<?xml version="1.0" encoding="utf-8"?>
<!-- Generator: Adobe Illustrator 16.0.0, SVG Export Plug-In . SVG Version: 6.00 Build 0)  -->
<!DOCTYPE svg PUBLIC "-//W3C//DTD SVG 1.1//EN" "http://www.w3.org/Graphics/SVG/1.1/DTD/svg11.dtd">
<svg version="1.1" id="Calque_1" xmlns="http://www.w3.org/2000/svg" xmlns:xlink="http://www.w3.org/1999/xlink" x="0px" y="0px"
	 width="400px" height="200px" viewBox="0 0 400 200" enable-background="new 0 0 400 200" xml:space="preserve">
<g>
	<path d="M110.602,116.03v27.787h10.715v2.515H88.344l0.002-2.512l10.512-0.003V82.661l-10.512,0.003v-2.52h34.105
		c7.701,0,13.503,1.713,17.396,5.135c3.9,3.424,5.855,7.635,5.854,12.637c0,5.133-1.971,9.436-5.899,12.907
		c-3.933,3.47-10.476,5.204-19.62,5.207H110.602z M110.6,82.664l0.002,30.796l6.367-0.003c3.327,0.003,6.088-0.271,8.293-0.83
		c2.205-0.566,4.109-2.041,5.702-4.443c1.597-2.402,2.394-6.124,2.394-11.155c0-4.44-0.701-7.708-2.097-9.8
		c-1.396-2.091-3.049-3.373-4.959-3.85c-1.911-0.477-4.28-0.715-7.104-0.718L110.6,82.664z"/>
	<path d="M159.62,143.817v-33.757h-8v-2.521l8.099-0.003c4.146,0.003,7.304-0.213,9.473-0.641v9.328l0.198,0.002
		c2.302-6.221,5.71-9.327,10.219-9.325c1.975-0.002,3.559,0.599,4.761,1.802c1.201,1.199,1.805,2.652,1.805,4.363
		c0.002,1.58-0.487,2.854-1.458,3.822c-0.972,0.977-2.229,1.465-3.775,1.459c-2.83,0-4.243-1.413-4.243-4.244l0.192-2.117
		c0.004-0.761-0.342-1.137-1.029-1.139c-1.09,0-2.471,1.46-4.149,4.393c-1.679,2.926-2.52,7.404-2.52,13.422v15.155h8.196
		l-0.004,2.517l-25.764-0.002v-2.515H159.62z"/>
	<path d="M227.434,123.973l-24.973,0.002c-0.23,9.746,0.309,15.738,1.627,17.99c1.322,2.257,3.67,3.383,7.062,3.383
		c6.975,0,11.691-4.05,14.162-12.138l2.121-0.003c-1.082,4.904-3.143,8.52-6.168,10.861c-3.029,2.333-6.398,3.5-10.117,3.498
		c-5.301,0-9.908-1.963-13.821-5.896c-3.915-3.93-5.874-8.879-5.876-14.83c0-5.791,1.917-10.658,5.75-14.614
		c3.83-3.942,8.285-5.92,13.357-5.92c4.41,0,8.264,1.562,11.568,4.693C225.436,114.122,227.207,118.445,227.434,123.973z
		 M202.461,121.753h14.359c0.268-2.331,0.4-4.11,0.398-5.331c0-5.256-2.389-7.89-7.158-7.895c-2.371,0.002-4.23,0.639-5.576,1.902
		c-1.352,1.264-2.023,2.982-2.027,5.156L202.461,121.753z"/>
	<path d="M261.592,107.093l-0.002,11.058l-2.021,0.003c-1.514-6.415-5.199-9.621-11.057-9.624c-2.533,0-4.65,0.663-6.35,2.001
		c-1.684,1.328-2.535,2.845-2.529,4.561c-0.006,1.447,0.598,2.592,1.793,3.435c1.205,0.836,4.039,1.551,8.518,2.145
		c9.842,1.219,14.758,5.697,14.754,13.424c0.004,3.855-1.271,7.061-3.82,9.625c-2.553,2.564-5.721,3.85-9.502,3.85
		c-3.715,0-7.318-1.532-10.809-4.589l-3.455,2.964h-1.725l-0.002-14.564h1.723c2.834,9.314,7.582,13.974,14.268,13.969
		c2.533,0,4.836-0.807,6.904-2.416c2.08-1.617,3.115-3.504,3.111-5.678c0.004-1.812-0.615-3.172-1.846-4.095
		c-1.23-0.924-4.564-1.774-9.994-2.567c-9.248-1.35-13.869-5.46-13.873-12.343c0.006-3.39,1.238-6.22,3.727-8.511
		c2.482-2.286,5.521-3.428,9.107-3.433c3.781,0.005,6.959,1.251,9.525,3.749c0.662-0.689,1.332-1.676,2.025-2.959L261.592,107.093z"
		/>
	<path d="M289.482,96.286v11.249l11.691,0.005v2.521l-11.691-0.006v24.438c0,3.586,0.234,6.039,0.711,7.349
		c0.477,1.322,1.754,1.977,3.828,1.977c1.574,0.005,3.096-0.524,4.562-1.577c1.465-1.054,2.574-2.682,3.332-4.891h2.123
		c-1.514,6.388-6.104,9.581-13.773,9.578c-3.223,0-5.586-0.586-7.107-1.748c-1.512-1.168-2.443-2.609-2.787-4.321
		c-0.346-1.708-0.518-4.03-0.521-6.962l0.004-23.842l-8.785,0.006v-2.521h8.787V97.127
		C283.111,97.132,286.322,96.847,289.482,96.286z"/>
</g>
<g>
	<g>
		<path fill="#1D1D1B" d="M94.028,183.896c0.999,0,1.72,0.338,2.392,0.924c0.089,0.082,0.089,0.196,0.011,0.276l-0.434,0.442
			c-0.07,0.09-0.16,0.09-0.248,0.002c-0.463-0.404-1.097-0.662-1.713-0.662c-1.412,0-2.479,1.187-2.48,2.564
			c0.002,1.392,1.077,2.568,2.491,2.57c0.726-0.002,1.226-0.291,1.701-0.654c0.091-0.069,0.176-0.06,0.237-0.014l0.457,0.447
			c0.079,0.066,0.058,0.197-0.009,0.266c-0.676,0.652-1.526,0.961-2.405,0.961c-1.979,0-3.57-1.572-3.57-3.555
			C90.458,185.493,92.049,183.896,94.028,183.896z"/>
		<path fill="#1D1D1B" d="M101.359,183.896c1.978-0.002,3.56,1.594,3.56,3.573s-1.582,3.547-3.56,3.55
			c-1.979,0-3.549-1.57-3.549-3.552C97.811,185.49,99.379,183.896,101.359,183.896z M101.358,190.029c1.414,0,2.57-1.146,2.57-2.557
			c0-1.407-1.158-2.586-2.57-2.586c-1.406,0-2.564,1.179-2.564,2.589C98.793,188.889,99.953,190.029,101.358,190.029z"/>
		<path fill="#1D1D1B" d="M106.829,184.078c0-0.099,0.087-0.182,0.188-0.182h0.247l4.293,4.968h0.007v-4.678
			c0.001-0.101,0.079-0.191,0.19-0.187h0.631c0.098-0.002,0.188,0.083,0.188,0.187v6.654c-0.003,0.102-0.091,0.179-0.188,0.179
			h-0.258l-4.293-5.1h-0.008l-0.002,4.812c0.002,0.1-0.075,0.191-0.183,0.191l-0.625-0.003c-0.102,0.003-0.188-0.089-0.19-0.188
			L106.829,184.078z"/>
		<path fill="#1D1D1B" d="M114.545,189.924c0.089-0.131,0.166-0.28,0.258-0.41c0.088-0.125,0.223-0.166,0.335-0.08
			c0.056,0.054,0.819,0.687,1.582,0.687c0.683,0,1.118-0.415,1.116-0.921c-0.004-0.594-0.514-0.971-1.491-1.37
			c-1.009-0.429-1.799-0.952-1.803-2.1c0.003-0.771,0.593-1.833,2.167-1.833c0.99-0.002,1.729,0.521,1.83,0.584
			c0.077,0.053,0.153,0.193,0.059,0.34c-0.081,0.117-0.168,0.256-0.247,0.377c-0.081,0.129-0.212,0.187-0.343,0.094
			c-0.07-0.032-0.768-0.492-1.334-0.492c-0.834,0-1.123,0.524-1.123,0.889c0,0.566,0.438,0.915,1.259,1.245
			c1.147,0.466,2.124,1.011,2.126,2.214c-0.004,1.035-0.922,1.873-2.207,1.873c-1.203,0-1.969-0.634-2.125-0.783
			C114.513,190.162,114.446,190.088,114.545,189.924z"/>
		<path fill="#1D1D1B" d="M121.745,184.929h-1.611c-0.11-0.002-0.186-0.091-0.188-0.188v-0.554c0.001-0.101,0.078-0.188,0.188-0.187
			l4.251-0.002c0.107,0,0.188,0.088,0.187,0.188v0.554c0,0.102-0.079,0.187-0.187,0.187l-1.614,0.005v5.803
			c0,0.098-0.085,0.187-0.185,0.187h-0.652c-0.104,0-0.188-0.089-0.188-0.188V184.929z"/>
		<path fill="#1D1D1B" d="M126.135,184.187c0.004-0.101,0.082-0.188,0.189-0.188l2.688-0.003c1.188,0.003,2.159,0.944,2.154,2.118
			c0.003,0.912-0.602,1.662-1.461,2.008l1.355,2.512c0.07,0.125-0.002,0.288-0.168,0.288h-0.773c-0.072,0-0.137-0.054-0.158-0.089
			l-1.314-2.619l-1.493,0.002l0.007,2.518c-0.006,0.1-0.098,0.191-0.191,0.191l-0.645-0.003c-0.107,0.003-0.189-0.089-0.184-0.188
			L126.135,184.187z M128.935,187.36c0.644,0.003,1.206-0.546,1.206-1.231c0-0.636-0.562-1.168-1.206-1.168h-1.765l0.006,2.396
			L128.935,187.36z"/>
		<path fill="#1D1D1B" d="M133.12,184.187c0-0.099,0.091-0.188,0.189-0.187l0.664-0.002c0.104-0.003,0.185,0.09,0.188,0.188
			l-0.003,4.084c0.003,0.987,0.635,1.759,1.641,1.759c1.02,0,1.662-0.758,1.662-1.737v-4.105c0-0.104,0.079-0.191,0.189-0.188h0.661
			c0.101,0.002,0.19,0.085,0.185,0.191l0.006,4.153c0,1.5-1.138,2.677-2.705,2.677c-1.551,0-2.674-1.177-2.678-2.682V184.187z"/>
		<path fill="#1D1D1B" d="M143.895,183.896c0.997,0.003,1.717,0.338,2.39,0.926c0.088,0.082,0.088,0.197,0.011,0.274l-0.439,0.444
			c-0.062,0.088-0.154,0.088-0.244-0.002c-0.463-0.4-1.098-0.658-1.71-0.66c-1.418,0.002-2.484,1.184-2.484,2.57
			c0,1.386,1.083,2.564,2.495,2.564c0.727,0,1.222-0.287,1.699-0.658c0.094-0.065,0.18-0.056,0.238-0.01l0.459,0.447
			c0.077,0.071,0.059,0.197-0.014,0.268c-0.678,0.652-1.526,0.959-2.4,0.959c-1.981,0-3.571-1.572-3.575-3.55
			C140.32,185.49,141.914,183.899,143.895,183.896z"/>
		<path fill="#1D1D1B" d="M149.15,184.927l-1.605,0.005c-0.108,0-0.191-0.09-0.191-0.191v-0.554
			c0.003-0.101,0.083-0.187,0.191-0.187l4.251-0.005c0.107,0,0.188,0.091,0.189,0.191l-0.002,0.552c0,0.1-0.08,0.186-0.188,0.186
			l-1.614,0.003l-0.003,5.808c0.003,0.098-0.085,0.187-0.182,0.187h-0.654c-0.1,0.006-0.192-0.089-0.189-0.187L149.15,184.927z"/>
		<path fill="#1D1D1B" d="M153.543,184.187c0.006-0.099,0.092-0.187,0.192-0.187l0.653-0.002c0.099,0.002,0.184,0.088,0.186,0.188
			v6.548c0,0.098-0.084,0.187-0.186,0.187l-0.653-0.003c-0.099,0.003-0.187-0.086-0.187-0.186L153.543,184.187z"/>
		<path fill="#1D1D1B" d="M160.036,183.899c1.976-0.003,3.557,1.591,3.557,3.57s-1.581,3.55-3.557,3.55
			c-1.978,0-3.551-1.57-3.551-3.55S158.058,183.899,160.036,183.899z M160.034,190.029c1.415,0,2.57-1.149,2.57-2.564
			c0.003-1.399-1.158-2.576-2.57-2.576c-1.4,0-2.562,1.177-2.562,2.581C157.471,188.883,158.633,190.029,160.034,190.029z"/>
		<path fill="#1D1D1B" d="M165.504,184.083c0-0.104,0.091-0.187,0.189-0.184h0.248l4.289,4.965h0.013v-4.678
			c0-0.104,0.077-0.187,0.187-0.188l0.635,0.002c0.097-0.002,0.187,0.086,0.187,0.189l0.005,6.654
			c-0.005,0.099-0.095,0.176-0.191,0.176h-0.259l-4.292-5.1h-0.005v4.814c-0.005,0.098-0.081,0.187-0.188,0.187h-0.625
			c-0.101,0-0.191-0.089-0.186-0.187L165.504,184.083z"/>
	</g>
</g>
<g>
	<path fill="#1D1D1B" d="M188.473,184.927h-1.611c-0.107,0-0.189-0.089-0.187-0.187v-0.554c0-0.104,0.079-0.188,0.187-0.188
		l4.254,0.002c0.106-0.002,0.188,0.088,0.188,0.189v0.553c0,0.096-0.078,0.189-0.188,0.189l-1.611-0.005l0.004,5.808
		c-0.004,0.098-0.096,0.187-0.189,0.187h-0.654c-0.102,0-0.189-0.091-0.189-0.187L188.473,184.927z"/>
	<path fill="#1D1D1B" d="M195.809,183.896c1.981,0,3.563,1.594,3.564,3.579c0,1.972-1.583,3.544-3.564,3.544
		c-1.976,0-3.547-1.57-3.547-3.55S193.833,183.899,195.809,183.896z M195.812,190.035c1.413,0,2.569-1.15,2.569-2.56
		c0-1.41-1.156-2.589-2.569-2.589c-1.402,0.002-2.558,1.179-2.556,2.583C193.254,188.883,194.41,190.029,195.812,190.035z"/>
	<path fill="#1D1D1B" d="M201.195,184.187c-0.002-0.101,0.088-0.188,0.189-0.188h0.662c0.107,0,0.189,0.09,0.188,0.188l0.002,4.089
		c-0.002,0.982,0.631,1.754,1.637,1.754c1.018,0,1.666-0.761,1.664-1.737v-4.105c0.002-0.099,0.076-0.191,0.188-0.188h0.66
		c0.102,0.002,0.193,0.09,0.189,0.188l0.004,4.151c-0.004,1.505-1.141,2.682-2.701,2.682c-1.555,0-2.682-1.177-2.684-2.682
		L201.195,184.187z"/>
	<path fill="#1D1D1B" d="M209.852,184.932l-1.613-0.005c-0.107,0-0.186-0.085-0.186-0.187l-0.006-0.551
		c0-0.104,0.084-0.191,0.191-0.191h4.25c0.107,0,0.191,0.09,0.189,0.188v0.554c0.002,0.098-0.082,0.187-0.189,0.187h-1.607
		l-0.008,5.808c0.008,0.098-0.082,0.187-0.186,0.187l-0.652,0.006c-0.098-0.006-0.184-0.095-0.184-0.192V184.932z"/>
	<path fill="#1D1D1B" d="M221.119,183.899c1,0,1.723,0.339,2.396,0.926c0.092,0.075,0.088,0.194,0.01,0.274l-0.436,0.439
		c-0.072,0.09-0.16,0.09-0.242,0.002c-0.469-0.402-1.104-0.66-1.717-0.662c-1.416,0.002-2.477,1.187-2.482,2.57
		c0,1.386,1.076,2.564,2.496,2.564c0.721,0,1.221-0.287,1.697-0.658c0.088-0.065,0.18-0.056,0.24-0.01l0.451,0.447
		c0.08,0.066,0.061,0.202-0.014,0.268c-0.668,0.65-1.518,0.959-2.4,0.959c-1.975,0-3.564-1.572-3.57-3.55
		C217.555,185.496,219.145,183.899,221.119,183.899z"/>
	<path fill="#1D1D1B" d="M228.449,183.896c1.98,0,3.559,1.594,3.564,3.579c0,1.972-1.584,3.544-3.564,3.544
		c-1.973,0-3.549-1.57-3.549-3.55S226.477,183.896,228.449,183.896z M228.449,190.029c1.412,0,2.574-1.146,2.574-2.56
		c0-1.404-1.16-2.583-2.572-2.583c-1.406,0-2.559,1.179-2.559,2.589C225.893,188.885,227.051,190.029,228.449,190.029z"/>
	<path fill="#1D1D1B" d="M233.926,184.187c-0.006-0.099,0.078-0.188,0.188-0.188h2.686c1.189,0,2.156,0.944,2.152,2.117
		c0,0.91-0.598,1.66-1.459,2.006l1.357,2.516c0.062,0.127,0,0.284-0.168,0.284h-0.775c-0.076,0-0.133-0.048-0.16-0.089l-1.314-2.617
		h-1.488v2.52c-0.004,0.098-0.094,0.187-0.188,0.187h-0.643c-0.109,0-0.193-0.089-0.193-0.188L233.926,184.187z M236.725,187.363
		c0.637,0,1.203-0.54,1.203-1.229c0-0.645-0.561-1.176-1.205-1.176l-1.76,0.005v2.399H236.725z"/>
	<path fill="#1D1D1B" d="M240.996,184.187c0-0.096,0.08-0.188,0.188-0.188h2.252c1.221,0.002,2.219,0.99,2.219,2.184
		c0,1.23-0.996,2.228-2.205,2.228l-1.436,0.003v2.322c0,0.098-0.094,0.187-0.189,0.187h-0.641c-0.107,0-0.184-0.089-0.188-0.187
		V184.187z M243.375,187.438c0.689,0,1.258-0.552,1.258-1.265c0-0.664-0.568-1.186-1.258-1.186h-1.361l-0.002,2.453L243.375,187.438
		z"/>
	<path fill="#1D1D1B" d="M246.922,189.92c0.086-0.127,0.166-0.276,0.256-0.404c0.09-0.125,0.225-0.17,0.334-0.08
		c0.057,0.052,0.824,0.685,1.586,0.689c0.682-0.005,1.115-0.418,1.115-0.926c0-0.594-0.516-0.969-1.492-1.373
		c-1.012-0.426-1.799-0.947-1.797-2.097c0-0.771,0.588-1.83,2.164-1.833c0.986,0,1.725,0.52,1.824,0.586
		c0.082,0.051,0.16,0.191,0.062,0.34c-0.08,0.12-0.166,0.254-0.246,0.373c-0.08,0.131-0.209,0.191-0.346,0.099
		c-0.07-0.038-0.764-0.495-1.338-0.495c-0.83,0.003-1.115,0.524-1.115,0.895c0,0.558,0.432,0.909,1.254,1.242
		c1.15,0.465,2.127,1.006,2.127,2.214c0,1.032-0.918,1.87-2.203,1.87c-1.209,0-1.967-0.631-2.123-0.783
		C246.893,190.16,246.822,190.088,246.922,189.92z"/>
	<path fill="#1D1D1B" d="M256.986,184.187c0-0.099,0.082-0.188,0.176-0.188h2.277c1.904,0,3.471,1.554,3.471,3.451
		c0,1.92-1.566,3.472-3.473,3.478l-2.275-0.006c-0.098,0.006-0.176-0.089-0.182-0.187L256.986,184.187z M259.301,189.981
		c1.455-0.005,2.514-1.072,2.516-2.532c-0.006-1.45-1.062-2.512-2.52-2.512h-1.299l-0.004,5.044H259.301z"/>
	<path fill="#1D1D1B" d="M264.521,184.674c-0.084-0.09-0.053-0.229,0.057-0.341c0.145-0.111,0.922-0.734,0.922-1.753
		c-0.031,0.014-0.162,0.045-0.301,0.045c-0.477,0-0.875-0.386-0.877-0.864c0-0.49,0.4-0.882,0.908-0.878
		c0.482,0,1.059,0.298,1.061,1.389c-0.002,1.282-0.82,2.216-1.23,2.586c-0.131,0.111-0.24,0.111-0.338,0.01L264.521,184.674z"/>
	<path fill="#1D1D1B" d="M268.336,184.187c0.002-0.101,0.078-0.188,0.189-0.187l3.955-0.002c0.109,0,0.184,0.09,0.188,0.188v0.554
		c0,0.102-0.078,0.187-0.188,0.187h-3.125v2.017l2.639,0.006c0.098-0.006,0.188,0.084,0.189,0.184v0.553
		c-0.002,0.114-0.092,0.188-0.189,0.191h-2.637L269.355,190h3.125c0.109,0,0.184,0.088,0.188,0.189v0.545
		c0,0.098-0.078,0.187-0.188,0.187h-3.957c-0.107,0-0.186-0.089-0.188-0.187V184.187z"/>
	<path fill="#1D1D1B" d="M275.609,184.932l-1.613-0.005c-0.107,0-0.188-0.085-0.193-0.185v-0.553c0-0.102,0.086-0.191,0.193-0.191
		h4.25c0.105,0,0.189,0.088,0.189,0.188v0.554c0,0.098-0.084,0.187-0.189,0.187h-1.609l-0.002,5.808
		c0,0.098-0.088,0.187-0.189,0.187l-0.654,0.006c-0.098-0.006-0.182-0.095-0.182-0.192V184.932z"/>
	<path fill="#1D1D1B" d="M278.691,190.66l3.039-6.652c0.023-0.055,0.115-0.111,0.164-0.108l0.098-0.003
		c0.053,0,0.143,0.051,0.176,0.115l3.012,6.654c0.061,0.125-0.023,0.255-0.17,0.255h-0.623c-0.113,0-0.189-0.059-0.221-0.151
		l-0.619-1.35h-3.23c-0.197,0.455-0.406,0.902-0.607,1.35c-0.029,0.074-0.107,0.151-0.223,0.151h-0.629
		C278.711,190.921,278.633,190.791,278.691,190.66z M283.172,188.568l-1.219-2.708h-0.045l-1.209,2.712L283.172,188.568z"/>
	<path fill="#1D1D1B" d="M287.252,184.927h-1.619c-0.107,0-0.186-0.089-0.186-0.187v-0.554c0-0.099,0.078-0.188,0.186-0.188
		l4.256,0.002c0.105-0.002,0.186,0.088,0.191,0.187v0.554c-0.006,0.098-0.084,0.191-0.191,0.191l-1.615-0.005l0.006,5.808
		c-0.006,0.098-0.094,0.187-0.188,0.187h-0.656c-0.098-0.003-0.184-0.089-0.189-0.187L287.252,184.927z"/>
	<path fill="#1D1D1B" d="M291.199,189.92c0.082-0.127,0.164-0.273,0.254-0.404c0.088-0.125,0.23-0.17,0.34-0.08
		c0.055,0.052,0.816,0.685,1.576,0.682c0.684,0.003,1.119-0.412,1.119-0.918c0.004-0.594-0.514-0.963-1.49-1.37
		c-1.012-0.429-1.803-0.952-1.799-2.097c0-0.769,0.588-1.836,2.162-1.836c0.988,0.003,1.734,0.52,1.828,0.591
		c0.078,0.046,0.156,0.187,0.059,0.338c-0.078,0.112-0.166,0.251-0.244,0.372c-0.082,0.129-0.207,0.184-0.346,0.094
		c-0.074-0.035-0.762-0.492-1.336-0.489c-0.832-0.003-1.117,0.524-1.119,0.884c0,0.565,0.438,0.917,1.256,1.25
		c1.148,0.463,2.125,1.006,2.125,2.216c0,1.03-0.918,1.868-2.207,1.868c-1.205,0-1.967-0.631-2.121-0.783
		C291.164,190.16,291.096,190.09,291.199,189.92z"/>
</g>
<line fill="none" stroke="#1D1D1B" stroke-width="1.0233" stroke-miterlimit="10" x1="178.862" y1="181.736" x2="178.862" y2="192.855"/>
<polygon fill="#000100" points="200.573,54.046 185.599,62.357 170.622,54.049 170.624,39.969 174.608,42.51 174.608,51.582 
	185.598,57.596 196.501,51.543 196.5,39.972 192.867,35.235 196.501,30.764 196.5,16.138 185.598,9.646 174.689,16.056 
	174.689,25.314 170.622,28.084 170.622,13.365 185.598,5 200.571,13.365 200.576,32.152 197.799,35.235 200.571,38.816 "/>
<polygon fill="#000100" points="215.551,54.049 200.571,62.361 185.599,54.046 185.598,39.969 189.58,42.515 189.583,51.582 
	200.573,57.598 211.477,51.543 211.477,39.966 207.844,35.235 211.479,30.766 211.48,16.138 200.571,9.646 189.667,16.047 
	189.667,25.316 185.599,28.084 185.599,13.365 200.571,5 215.551,13.365 215.553,32.149 212.775,35.235 215.551,38.814 "/>
<polygon fill="#000100" points="193.441,73.381 174.614,62.98 174.614,67.615 193.439,78.141 212.076,67.879 212.076,63.053 "/>
<polygon fill="#000100" points="216.658,169.572 175.45,169.568 175.446,165.645 216.658,165.64 "/>
<line fill="none" stroke="#1D1D1B" stroke-width="0.8531" stroke-miterlimit="10" x1="108.989" y1="169.165" x2="165.191" y2="169.17"/>
<line fill="none" stroke="#1D1D1B" stroke-width="0.8531" stroke-miterlimit="10" x1="227.297" y1="169.165" x2="283.496" y2="169.165"/>
<line fill="none" stroke="#1D1D1B" stroke-width="0.9964" stroke-miterlimit="10" x1="227.295" y1="166.055" x2="303.951" y2="166.055"/>
<line fill="none" stroke="#1D1D1B" stroke-width="0.9964" stroke-miterlimit="10" x1="88.534" y1="166.055" x2="165.191" y2="166.055"/>
</svg>
