<?xml version="1.0" encoding="utf-8"?>
<!-- Generator: Adobe Illustrator 16.0.0, SVG Export Plug-In . SVG Version: 6.00 Build 0)  -->
<!DOCTYPE svg PUBLIC "-//W3C//DTD SVG 1.1//EN" "http://www.w3.org/Graphics/SVG/1.1/DTD/svg11.dtd">
<svg version="1.1" id="Calque_1" xmlns="http://www.w3.org/2000/svg" xmlns:xlink="http://www.w3.org/1999/xlink" x="0px" y="0px"
	 width="400px" height="330px" viewBox="0 0 400 330" enable-background="new 0 0 400 330" xml:space="preserve">
<path fill="none" d="M193.368,44.004c-7.549-1.489-14.912-0.863-21.593,1.964c-19.733,8.358-27.691,33.403-19.415,57.934
	c6.277-3.558,13.134-6.241,20.435-7.763c-1.485-4.409-2.289-9.132-2.284-14.001C170.51,65.793,179.472,51.266,193.368,44.004z"/>
<path fill="none" d="M121.434,82.139c0,13.889,4.481,26.767,12.096,37.332c4.414-5.177,9.585-9.724,15.354-13.452
	c-9.41-26.658-0.61-54.283,21.269-63.544c8.218-3.479,17.317-3.997,26.552-1.647V17.897c-3-0.408-6.033-0.676-9.078-0.676
	C151.126,17.221,121.434,46.348,121.434,82.139z"/>
<path fill="none" d="M174.509,82.139c0,4.637,0.788,9.118,2.246,13.28c3.478-0.519,7.035-0.791,10.659-0.791
	c3.115,0,6.218,0.256,9.291,0.662V46.617C183.261,52.945,174.509,66.654,174.509,82.139z"/>
<path fill="none" d="M170.296,163.37c0-16.34,8.948-30.882,22.828-38.142c-7.535-1.478-14.887-0.842-21.562,1.97
	c-21.514,9.106-29.057,38.051-16.81,64.528c8.483,18.349,25.001,31.502,41.953,33.86V203.17
	C180.798,196.657,170.296,181.07,170.296,163.37z"/>
<path fill="none" d="M174.302,163.37c0,15.561,8.846,29.334,22.403,35.612v-71.229C183.147,134.037,174.302,147.8,174.302,163.37z"
	/>
<path fill="none" d="M121.22,163.37c0,35.792,29.698,64.917,66.194,64.917c0.905,0,1.806-0.077,2.707-0.114
	c-16.176-4.375-30.847-17.223-39.014-34.898c-13.145-28.403-4.685-59.614,18.838-69.57c8.277-3.503,17.453-4,26.76-1.588V99.15
	c-3.07-0.427-6.168-0.699-9.291-0.699C150.919,98.451,121.22,127.578,121.22,163.37z"/>
<path fill="none" d="M217.609,29.583l-16.343-0.013l19.027,21.085l2.005,0.295c27.872,2.513,29.83,29.718,29.857,36.905h0.303
	l15.386-17.064C262.889,40.434,238.688,29.583,217.609,29.583z"/>
<path fill="none" d="M222.061,17.233H199.93v10.839l17.679,0.012c21.717,0,46.653,11.197,51.727,42.541l15.308,16.917
	c0.067-6.009,0.031-11.557-0.603-17.257C279.639,31.126,247.901,17.233,222.061,17.233z"/>
<polygon fill="none" points="254.629,87.856 282.752,87.856 268.666,72.288 "/>
<polygon fill="none" points="209.006,40.384 199.93,30.326 199.93,227.079 208.824,217.249 "/>
<polygon fill="none" points="210.438,217.054 219.908,227.519 219.908,52.466 210.615,42.169 "/>
<polygon fill="none" points="200.931,228.383 218.515,228.383 209.719,218.667 "/>
<path fill="#1D1D1B" d="M175.674,61.554L165.045,49.78c-0.271,0.198-0.515,0.417-0.775,0.623l10.903,12.089
	C175.333,62.178,175.503,61.866,175.674,61.554z"/>
<path fill="#1D1D1B" d="M149.38,90.007c0.008,0.092,0.013,0.18,0.023,0.268c0.023,0.242,0.072,0.488,0.1,0.729l8.843,9.896
	c0.315-0.144,0.646-0.273,0.968-0.415l-9.974-11.163C149.359,89.554,149.354,89.776,149.38,90.007z"/>
<path fill="#1D1D1B" d="M172.137,70.276l-13.26-14.697c-0.22,0.258-0.415,0.536-0.623,0.801l13.597,15.07
	C171.945,71.06,172.027,70.663,172.137,70.276z"/>
<path fill="#1D1D1B" d="M173.72,65.72l-11.939-13.232c-0.242,0.228-0.462,0.482-0.693,0.719l12.222,13.546
	C173.445,66.405,173.581,66.062,173.72,65.72z"/>
<path fill="#1D1D1B" d="M171.046,75.386l-14.737-16.333c-0.19,0.29-0.371,0.586-0.551,0.881l15.106,16.741
	C170.919,76.243,170.981,75.815,171.046,75.386z"/>
<path fill="#1D1D1B" d="M183.448,51.218l-6.319-7.002c-0.363,0.085-0.718,0.193-1.077,0.292l6.694,7.419
	C182.978,51.691,183.21,51.452,183.448,51.218z"/>
<path fill="#1D1D1B" d="M186.617,48.419l-4.535-5.028c-0.406,0.038-0.806,0.101-1.208,0.151l4.962,5.505
	C186.096,48.833,186.36,48.627,186.617,48.419z"/>
<path fill="#1D1D1B" d="M177.959,57.776l-9.275-10.279c-0.299,0.164-0.596,0.331-0.889,0.503l9.6,10.641
	C177.581,58.353,177.764,58.059,177.959,57.776z"/>
<path fill="#1D1D1B" d="M190.082,45.938l-2.393-2.654c-0.461-0.025-0.913-0.018-1.373-0.027l2.924,3.239
	C189.521,46.307,189.801,46.122,190.082,45.938z"/>
<path fill="#1D1D1B" d="M180.563,54.333l-7.862-8.714c-0.307,0.122-0.625,0.222-0.926,0.35c-0.025,0.011-0.051,0.025-0.076,0.035
	l8.218,9.101C180.127,54.84,180.345,54.587,180.563,54.333z"/>
<path fill="#1D1D1B" d="M163.475,98.823l-14.286-15.978c-0.017,0.484-0.03,0.971-0.032,1.461l13.287,14.866
	C162.781,99.043,163.133,98.946,163.475,98.823z"/>
<path fill="#1D1D1B" d="M170.919,87.887l-18.704-20.726c-0.133,0.35-0.277,0.693-0.398,1.049l19.348,21.436
	C171.063,89.067,170.995,88.476,170.919,87.887z"/>
<path fill="#1D1D1B" d="M150.919,98.921l3.5,3.914c0.301-0.16,0.608-0.32,0.911-0.475l-4.84-5.42
	C150.63,97.599,150.753,98.259,150.919,98.921z"/>
<path fill="#1D1D1B" d="M167.831,97.386l-18.174-20.328c-0.062,0.441-0.087,0.897-0.138,1.345l17.254,19.306
	C167.126,97.602,167.477,97.488,167.831,97.386z"/>
<path fill="#1D1D1B" d="M172.686,96.169l-21.954-24.334c-0.098,0.383-0.221,0.76-0.314,1.146l21.175,23.462
	C171.958,96.36,172.317,96.247,172.686,96.169z"/>
<path fill="#1D1D1B" d="M170.51,82.139c0-0.333,0.028-0.656,0.034-0.988l-16.46-18.244c-0.163,0.321-0.322,0.639-0.479,0.967
	l16.926,18.753C170.53,82.464,170.51,82.301,170.51,82.139z"/>
<path fill="#1D1D1B" d="M170.296,163.37c0-0.348,0.026-0.687,0.034-1.031l-16.565-18.067c-0.161,0.321-0.31,0.648-0.464,0.973
	l17.01,18.553C170.308,163.652,170.296,163.514,170.296,163.37z"/>
<path fill="#1D1D1B" d="M194.37,202.111c-0.869-0.422-1.726-0.875-2.562-1.354l4.897,5.426v-1.487L194.37,202.111z"/>
<path fill="#1D1D1B" d="M154.419,190.916l26.413,29.271c0.818,0.449,1.648,0.863,2.484,1.259l-30.038-33.285
	C153.639,189.08,154.008,190,154.419,190.916z"/>
<path fill="#1D1D1B" d="M149.314,172.624l47.391,52.521v-1.488l-47.566-52.722C149.189,171.498,149.248,172.06,149.314,172.624z"/>
<path fill="#1D1D1B" d="M150.817,180.607l39.251,43.493c0.591,0.18,1.187,0.332,1.778,0.485l-41.495-45.984
	C150.501,179.27,150.647,179.938,150.817,180.607z"/>
<path fill="#1D1D1B" d="M186.448,129.59l-4.492-4.979c-0.407,0.039-0.803,0.105-1.206,0.154l4.918,5.449
	C185.921,130.002,186.188,129.798,186.448,129.59z"/>
<path fill="#1D1D1B" d="M189.913,127.112l-2.337-2.591c-0.459-0.026-0.916-0.022-1.373-0.031l2.874,3.184
	C189.352,127.485,189.629,127.295,189.913,127.112z"/>
<path fill="#1D1D1B" d="M183.27,132.39l-6.278-6.958c-0.364,0.088-0.726,0.191-1.084,0.29l6.654,7.379
	C182.795,132.862,183.028,132.623,183.27,132.39z"/>
<path fill="#1D1D1B" d="M170.838,156.566l-14.832-16.178c-0.188,0.29-0.379,0.576-0.562,0.87l15.212,16.587
	C170.707,157.417,170.775,156.991,170.838,156.566z"/>
<path fill="#1D1D1B" d="M175.365,142.933l-10.587-11.845c-0.271,0.195-0.556,0.38-0.818,0.583l10.913,12.212
	C175.034,143.562,175.199,143.247,175.365,142.933z"/>
<path fill="#1D1D1B" d="M173.441,147.095l-11.905-13.319c-0.244,0.229-0.496,0.445-0.733,0.68l12.23,13.684
	C173.161,147.789,173.302,147.441,173.441,147.095z"/>
<path fill="#1D1D1B" d="M148.918,165.859l47.787,52.962v-1.488l-47.749-52.922C148.943,164.894,148.922,165.371,148.918,165.859z"/>
<path fill="#1D1D1B" d="M170.745,169.604l-18.902-20.946c-0.131,0.357-0.225,0.743-0.35,1.108l19.576,21.692
	C170.957,170.841,170.834,170.231,170.745,169.604z"/>
<path fill="#1D1D1B" d="M171.879,151.668l-13.242-14.819c-0.216,0.258-0.445,0.503-0.657,0.768l13.614,15.232
	C171.688,152.455,171.766,152.057,171.879,151.668z"/>
<path fill="#1D1D1B" d="M149.265,159.934l47.439,52.566v-1.49l-47.287-52.399C149.359,159.048,149.314,159.492,149.265,159.934z"/>
<path fill="#1D1D1B" d="M172.953,178.37l-22.545-24.989c-0.102,0.396-0.164,0.805-0.257,1.207l23.9,26.489
	C173.657,180.189,173.288,179.286,172.953,178.37z"/>
<path fill="#1D1D1B" d="M180.2,135.711l-7.863-8.803c-0.261,0.1-0.518,0.183-0.775,0.29c-0.075,0.032-0.138,0.076-0.208,0.107
	l8.212,9.188C179.773,136.228,179.99,135.97,180.2,135.711z"/>
<path fill="#1D1D1B" d="M177.636,139.155l-9.26-10.361c-0.306,0.164-0.614,0.314-0.903,0.488l9.598,10.74
	C177.255,139.73,177.442,139.44,177.636,139.155z"/>
<polygon fill="#1D1D1B" points="219.908,172.59 219.908,171.1 210.494,160.661 210.494,162.152 "/>
<polygon fill="#1D1D1B" points="219.908,166.275 219.908,164.781 210.501,154.351 210.501,155.843 "/>
<polygon fill="#1D1D1B" points="219.908,153.63 219.908,152.138 210.516,141.73 210.511,143.216 "/>
<polygon fill="#1D1D1B" points="219.908,147.312 219.908,145.82 210.522,135.41 210.518,136.902 "/>
<polygon fill="#1D1D1B" points="219.908,140.988 219.908,139.501 210.526,129.102 210.524,130.589 "/>
<polygon fill="#1D1D1B" points="219.908,159.944 219.908,158.457 210.507,148.037 210.507,149.523 "/>
<polygon fill="#1D1D1B" points="219.908,178.908 219.908,177.417 210.487,166.976 210.487,168.463 "/>
<polygon fill="#1D1D1B" points="219.908,223.145 219.908,221.653 210.444,211.163 210.442,212.646 "/>
<polygon fill="#1D1D1B" points="219.908,204.184 219.908,202.69 210.46,192.226 210.46,193.714 "/>
<polygon fill="#1D1D1B" points="219.908,216.821 219.908,215.333 210.45,204.847 210.45,206.335 "/>
<polygon fill="#1D1D1B" points="219.908,185.224 219.908,183.732 210.483,173.28 210.483,174.772 "/>
<polygon fill="#1D1D1B" points="219.908,197.862 219.908,196.375 210.469,185.91 210.469,187.4 "/>
<polygon fill="#1D1D1B" points="219.908,191.548 219.908,190.056 210.473,179.596 210.473,181.087 "/>
<polygon fill="#1D1D1B" points="219.908,210.503 219.908,209.014 210.454,198.534 210.454,200.024 "/>
<polygon fill="#1D1D1B" points="219.908,77.804 219.908,76.315 210.592,65.988 210.592,67.477 "/>
<polygon fill="#1D1D1B" points="219.908,90.445 219.908,88.952 210.579,78.607 210.579,80.097 "/>
<polygon fill="#1D1D1B" points="219.908,84.122 219.908,82.631 210.585,72.298 210.585,73.787 "/>
<polygon fill="#1D1D1B" points="219.908,71.485 219.908,69.992 210.597,59.676 210.597,61.167 "/>
<polygon fill="#1D1D1B" points="219.908,58.843 219.908,57.353 210.61,47.048 210.61,48.537 "/>
<polygon fill="#1D1D1B" points="219.908,65.169 219.908,63.675 210.603,53.366 210.603,54.855 "/>
<polygon fill="#1D1D1B" points="219.908,103.081 219.908,101.588 210.567,91.236 210.565,92.728 "/>
<polygon fill="#1D1D1B" points="219.908,122.039 219.908,120.55 210.548,110.172 210.543,111.66 "/>
<polygon fill="#1D1D1B" points="219.908,96.763 219.908,95.271 210.573,84.925 210.573,86.418 "/>
<polygon fill="#1D1D1B" points="219.908,128.356 219.908,126.867 210.539,116.481 210.536,117.972 "/>
<polygon fill="#1D1D1B" points="219.908,115.72 219.908,114.228 210.552,103.861 210.552,105.35 "/>
<polygon fill="#1D1D1B" points="219.908,134.676 219.908,133.184 210.532,122.795 210.531,124.285 "/>
<polygon fill="#1D1D1B" points="219.908,109.401 219.908,107.91 210.561,97.547 210.556,99.034 "/>
<path fill="#1D1D1B" d="M287.247,69.926c-2.9-25.795-21.71-55.917-65.187-55.917h-25.356v0.022c-3-0.386-6.033-0.632-9.078-0.632
	c-38.705,0-70.194,30.832-70.194,68.741c0,15.138,5.044,29.133,13.547,40.505c-8.628,11.398-13.754,25.474-13.754,40.725
	c0,37.899,31.489,68.735,70.189,68.735c3.115,0,6.218-0.251,9.291-0.65v0.158h26.428v-41.277
	c8.788-52.006,63.011-68.087,63.011-68.087h1.611V95.154h-64.622V54.283c27.635,3.362,25.856,33.762,25.767,35.071l-0.12,1.727
	h39.039l0.023-1.588C287.947,82.623,287.971,76.413,287.247,69.926z M196.705,225.586c-16.951-2.358-33.47-15.512-41.953-33.86
	c-12.247-26.477-4.705-55.422,16.81-64.528c6.674-2.812,14.027-3.448,21.562-1.97c-13.88,7.26-22.828,21.802-22.828,38.142
	c0,17.701,10.502,33.288,26.409,39.8V225.586z M196.705,198.981c-13.558-6.277-22.403-20.051-22.403-35.612
	c0-15.569,8.846-29.333,22.403-35.618V198.981z M196.705,122.115c-9.307-2.412-18.483-1.915-26.76,1.588
	c-23.523,9.956-31.983,41.167-18.838,69.57c8.167,17.676,22.838,30.523,39.014,34.898c-0.901,0.037-1.801,0.114-2.707,0.114
	c-36.496,0-66.194-29.124-66.194-64.917c0-35.792,29.698-64.918,66.194-64.918c3.123,0,6.221,0.272,9.291,0.699V122.115z
	 M172.794,96.14c-7.3,1.521-14.158,4.205-20.435,7.763c-8.276-24.531-0.318-49.576,19.415-57.934
	c6.682-2.827,14.044-3.453,21.593-1.964c-13.896,7.261-22.858,21.789-22.858,38.135C170.506,87.008,171.309,91.731,172.794,96.14z
	 M196.705,95.291c-3.072-0.406-6.175-0.662-9.291-0.662c-3.624,0-7.182,0.271-10.659,0.791c-1.458-4.162-2.246-8.643-2.246-13.28
	c0-15.485,8.752-29.194,22.196-35.522V95.291z M196.705,40.828c-9.235-2.35-18.334-1.833-26.552,1.647
	c-21.879,9.262-30.678,36.886-21.269,63.544c-5.769,3.728-10.939,8.275-15.354,13.452c-7.615-10.564-12.096-23.443-12.096-37.332
	c0-35.791,29.691-64.918,66.192-64.918c3.045,0,6.078,0.268,9.078,0.676V40.828z M199.93,30.326l9.076,10.058l-0.182,176.865
	l-8.895,9.83V30.326z M200.931,228.383l8.788-9.716l8.796,9.716H200.931z M219.908,227.519l-9.471-10.465l0.178-174.884
	l9.293,10.297V227.519z M281.084,98.385c3.155-1.101,5.06-1.617,5.06-1.617s-1.9,0.516-5.052,1.615
	c-7.841,2.744-23.51,9.182-37.632,20.729c-1.171,0.957-2.335,1.943-3.479,2.974c-6.462,5.809-12.389,12.776-16.848,21.024v-21.005
	h16.822c1.159-1.039,2.331-2.031,3.509-2.999h-20.331v-20.72H281.084z M254.629,87.856l14.037-15.568l14.086,15.568H254.629z
	 M284.643,87.542l-15.308-16.917c-5.073-31.344-30.01-42.541-51.727-42.541l-17.679-0.012V17.233h22.131
	c25.84,0,57.578,13.893,61.979,53.052C284.674,75.985,284.71,81.533,284.643,87.542z"/>
<polygon fill="#1D1D1B" points="266.33,74.875 278.04,87.856 279.387,87.856 267.004,74.13 "/>
<polygon fill="#1D1D1B" points="263.48,78.038 272.341,87.856 273.684,87.856 264.156,77.289 "/>
<polygon fill="#1D1D1B" points="255.066,87.368 255.506,87.856 256.849,87.856 255.74,86.625 "/>
<polygon fill="#1D1D1B" points="257.863,84.27 261.097,87.856 262.44,87.856 258.531,83.525 "/>
<polygon fill="#1D1D1B" points="260.634,81.196 266.64,87.856 267.986,87.856 261.303,80.45 "/>
<g>
	<path fill="#1D1D1B" d="M78.806,262.903c0-0.29,0.232-0.555,0.554-0.555h6.499c3.515,0,6.04,2.323,6.04,5.374
		c0,2.234-1.657,3.828-3.02,4.616c1.541,0.636,3.631,2.06,3.631,4.728c0,3.251-2.67,5.605-6.329,5.605H79.36
		c-0.321,0-0.554-0.263-0.554-0.553V262.903z M86.149,280.002c1.773,0,3.136-1.365,3.136-3.166c0-1.772-1.68-3.05-3.569-3.05H81.74
		v6.216H86.149z M85.687,271.174c1.857,0,2.988-1.36,2.988-3.107c0-1.768-1.131-2.99-2.988-2.99h-3.922v6.098H85.687z"/>
	<path fill="#1D1D1B" d="M107.247,262.061c5.807,0,10.455,4.671,10.455,10.478c0,5.806-4.647,10.424-10.455,10.424
		c-5.805,0-10.42-4.618-10.42-10.424C96.826,266.731,101.442,262.061,107.247,262.061z M107.247,280.059
		c4.153,0,7.552-3.369,7.552-7.521c0-4.12-3.398-7.574-7.552-7.574c-4.118,0-7.517,3.454-7.517,7.574
		C99.73,276.689,103.129,280.059,107.247,280.059z"/>
	<path fill="#1D1D1B" d="M123.294,262.903c0-0.29,0.232-0.555,0.554-0.555h7.893c3.484,0,6.328,2.76,6.328,6.219
		c0,2.67-1.771,4.873-4.295,5.887l3.978,7.375c0.203,0.377,0,0.843-0.496,0.843h-2.259c-0.233,0-0.411-0.145-0.466-0.263
		l-3.861-7.69h-4.382v7.4c0,0.29-0.262,0.553-0.555,0.553h-1.882c-0.321,0-0.554-0.263-0.554-0.553V262.903z M131.507,272.218
		c1.888,0,3.543-1.594,3.543-3.596c0-1.891-1.655-3.457-3.543-3.457h-5.167v7.053H131.507z"/>
	<path fill="#1D1D1B" d="M144.044,262.903c0-0.29,0.232-0.555,0.521-0.555h6.678c5.601,0,10.188,4.561,10.188,10.135
		c0,5.628-4.587,10.188-10.188,10.188h-6.678c-0.289,0-0.521-0.263-0.521-0.553V262.903z M150.835,279.912
		c4.267,0,7.373-3.134,7.373-7.429c0-4.272-3.106-7.375-7.373-7.375h-3.831v14.804H150.835z"/>
	<path fill="#1D1D1B" d="M167.056,262.903c0-0.29,0.23-0.555,0.551-0.555h11.608c0.322,0,0.556,0.265,0.556,0.555v1.624
		c0,0.291-0.234,0.549-0.556,0.549h-9.171v5.925h7.749c0.293,0,0.553,0.259,0.553,0.55v1.625c0,0.319-0.26,0.554-0.553,0.554h-7.749
		v6.24h9.171c0.322,0,0.556,0.265,0.556,0.556v1.594c0,0.29-0.234,0.553-0.556,0.553h-11.608c-0.32,0-0.551-0.263-0.551-0.553
		V262.903z"/>
	<path fill="#1D1D1B" d="M182.869,281.917l8.911-19.534c0.088-0.178,0.35-0.322,0.494-0.322h0.29c0.146,0,0.407,0.145,0.496,0.322
		l8.854,19.534c0.174,0.378-0.06,0.755-0.496,0.755h-1.829c-0.345,0-0.551-0.176-0.667-0.435l-1.797-3.979h-9.494
		c-0.581,1.334-1.191,2.645-1.771,3.979c-0.085,0.201-0.32,0.435-0.666,0.435h-1.831
		C182.927,282.672,182.697,282.295,182.869,281.917z M196.018,275.764l-3.57-7.953h-0.146l-3.539,7.953H196.018z"/>
	<path fill="#1D1D1B" d="M205.767,262.903c0-0.29,0.263-0.555,0.551-0.555h1.945c0.32,0,0.554,0.265,0.554,0.555v11.985
		c0,2.902,1.858,5.17,4.819,5.17c2.99,0,4.875-2.235,4.875-5.107v-12.048c0-0.29,0.234-0.555,0.553-0.555h1.944
		c0.289,0,0.548,0.265,0.548,0.555v12.194c0,4.408-3.335,7.864-7.92,7.864c-4.561,0-7.869-3.456-7.869-7.864V262.903z"/>
	<path fill="#1D1D1B" d="M232.466,272.249l-5.749-9.087c-0.231-0.377,0-0.813,0.493-0.813h2.47c0.202,0,0.406,0.121,0.489,0.265
		l4.096,6.937h0.032l4.147-6.937c0.059-0.12,0.234-0.265,0.463-0.265h2.47c0.496,0,0.725,0.437,0.496,0.813l-5.75,9.087l5.951,9.608
		c0.231,0.408,0,0.814-0.493,0.814h-2.234c-0.233,0-0.439-0.145-0.496-0.263l-4.554-7.432h-0.062l-4.498,7.432
		c-0.089,0.118-0.261,0.263-0.493,0.263h-2.233c-0.524,0-0.755-0.435-0.524-0.814L232.466,272.249z"/>
	<path fill="#1D1D1B" d="M255.215,262.903c0-0.29,0.231-0.555,0.55-0.555h6.503c3.516,0,6.037,2.323,6.037,5.374
		c0,2.234-1.654,3.828-3.017,4.616c1.538,0.636,3.625,2.06,3.625,4.728c0,3.251-2.668,5.605-6.325,5.605h-6.823
		c-0.318,0-0.55-0.263-0.55-0.553V262.903z M262.563,280.002c1.77,0,3.13-1.365,3.13-3.166c0-1.772-1.685-3.05-3.57-3.05h-3.975
		v6.216H262.563z M262.092,271.174c1.858,0,2.994-1.36,2.994-3.107c0-1.768-1.136-2.99-2.994-2.99h-3.914v6.098H262.092z"/>
	<path fill="#1D1D1B" d="M274.716,262.903c0-0.29,0.23-0.555,0.549-0.555h11.615c0.318,0,0.549,0.265,0.549,0.555v1.624
		c0,0.291-0.23,0.549-0.549,0.549h-9.174v5.925h7.748c0.292,0,0.551,0.259,0.551,0.55v1.625c0,0.319-0.259,0.554-0.551,0.554h-7.748
		v6.24h9.174c0.318,0,0.549,0.265,0.549,0.556v1.594c0,0.29-0.23,0.553-0.549,0.553h-11.615c-0.318,0-0.549-0.263-0.549-0.553
		V262.903z"/>
	<path fill="#1D1D1B" d="M293.258,262.903c0-0.29,0.234-0.555,0.549-0.555h11.616c0.317,0,0.551,0.265,0.551,0.555v1.624
		c0,0.291-0.233,0.549-0.551,0.549h-9.175v5.925h7.748c0.292,0,0.554,0.259,0.554,0.55v1.625c0,0.319-0.262,0.554-0.554,0.554
		h-7.748v6.24h9.175c0.317,0,0.551,0.265,0.551,0.556v1.594c0,0.29-0.233,0.553-0.551,0.553h-11.616
		c-0.314,0-0.549-0.263-0.549-0.553V262.903z"/>
	<path fill="#1D1D1B" d="M311.801,262.903c0-0.29,0.233-0.555,0.552-0.555h7.9c3.479,0,6.327,2.76,6.327,6.219
		c0,2.67-1.773,4.873-4.3,5.887l3.978,7.375c0.206,0.377,0,0.843-0.496,0.843h-2.263c-0.229,0-0.407-0.145-0.464-0.263l-3.859-7.69
		h-4.383v7.4c0,0.29-0.26,0.553-0.551,0.553h-1.89c-0.318,0-0.552-0.263-0.552-0.553V262.903z M320.018,272.218
		c1.886,0,3.543-1.594,3.543-3.596c0-1.891-1.657-3.457-3.543-3.457h-5.166v7.053H320.018z"/>
</g>
<g>
	<path fill="#1D1D1B" d="M166.761,282.326c0.11-0.114,0.25-0.271,0.407-0.479c0.159-0.202,0.19-0.392,0.102-0.575
		c-0.026-0.088-0.143-0.163-0.356-0.22c-0.214-0.056-0.463-0.1-0.742-0.131c-0.279-0.03-0.565-0.045-0.847-0.03
		c-0.28,0.004-0.511,0.034-0.693,0.081c-0.065,0-0.138,0.024-0.221,0.08c-0.076,0.057-0.152,0.089-0.218,0.089
		c-0.089,0.043-0.19,0.051-0.305,0.013c-0.115-0.031-0.214-0.025-0.301,0.017c-0.183,0.047-0.357,0.102-0.524,0.173
		c-0.169,0.069-0.345,0.112-0.525,0.133c-0.091,0.049-0.181,0.071-0.271,0.087c-0.091,0.013-0.18,0.019-0.269,0.019
		c-0.653,0.176-1.296,0.391-1.924,0.637c-0.633,0.251-1.254,0.5-1.86,0.75c-0.161,0.063-0.316,0.138-0.475,0.211
		c-0.161,0.086-0.36,0.148-0.606,0.191c-0.07,0.045-0.161,0.08-0.271,0.102c-0.115,0.025-0.204,0.056-0.271,0.101
		c-0.114,0.024-0.214,0.057-0.303,0.102c-0.093,0.044-0.169,0.069-0.24,0.069c-0.089,0-0.15-0.013-0.187-0.034
		c-0.034-0.024-0.097-0.055-0.187-0.098c-0.112,0.043-0.282,0.098-0.504,0.161c-0.224,0.07-0.365,0.17-0.407,0.31
		c-0.065,0.045-0.095,0.112-0.081,0.202c0.008,0.086,0.015,0.171,0.015,0.232c-0.066,0.453-0.18,0.881-0.337,1.287
		c-0.157,0.406-0.326,0.791-0.511,1.152c-0.18,0.356-0.358,0.71-0.54,1.061c-0.178,0.349-0.335,0.706-0.475,1.066
		c0.114,0.043,0.19,0.013,0.22-0.102c0.036-0.114,0.076-0.214,0.121-0.301c-0.025,0.313-0.1,0.621-0.24,0.925
		c-0.131,0.302-0.188,0.648-0.167,1.034c1.171-0.253,2.479-0.479,3.922-0.695c1.441-0.213,2.939-0.275,4.495-0.189
		c0.9,0.045,1.731,0.159,2.5,0.342c0.246,0.067,0.549,0.157,0.894,0.271c0.35,0.112,0.681,0.245,0.999,0.402
		c0.222,0.114,0.525,0.265,0.898,0.46c0.371,0.188,0.565,0.341,0.591,0.451c0.045,0.069,0.049,0.102,0.013,0.102
		c-0.032,0-0.062,0.013-0.082,0.038c0,0.02-0.004,0.083-0.02,0.183c-0.01,0.102-0.025,0.19-0.049,0.252
		c-0.043,0.051-0.146,0.087-0.302,0.121c-0.159,0.037-0.316,0.051-0.473,0.051c-0.428,0.042-0.907,0.062-1.437,0.048
		c-0.531-0.006-1-0.006-1.402,0.02c-0.183,0.025-0.414,0.031-0.693,0.031c-0.284,0-0.523,0.026-0.727,0.071
		c-0.18-0.045-0.368-0.051-0.557-0.021c-0.192,0.037-0.379,0.045-0.558,0.021c-0.161,0-0.313,0.024-0.457,0.067
		c-0.145,0.045-0.265,0.089-0.356,0.131c-0.065-0.042-0.135-0.08-0.201-0.112c-0.065-0.037-0.148-0.058-0.235-0.058
		c-0.044-0.017-0.108-0.004-0.188,0.039c-0.077,0.045-0.174,0.069-0.285,0.069c-0.091,0-0.171-0.019-0.239-0.051
		c-0.068-0.037-0.123-0.058-0.169-0.058c-0.089,0.026-0.159,0.063-0.201,0.122c-0.045,0.056-0.115,0.099-0.202,0.12
		c-0.185,0.068-0.356,0.093-0.523,0.08c-0.171-0.004-0.32,0.032-0.46,0.119c-0.019-0.087,0-0.119,0.068-0.102
		c0.072,0.025,0.089-0.011,0.072-0.098c-0.185,0-0.369,0.029-0.564,0.098c-0.187,0.072-0.377,0.148-0.553,0.241
		c-0.138,0.045-0.24,0.063-0.307,0.063c-0.068,0-0.225,0.013-0.475,0.039c-0.063,0.017-0.123,0.055-0.169,0.1
		c-0.042,0.044-0.1,0.073-0.166,0.099c-0.313,0.115-0.699,0.191-1.15,0.24c-0.316,0.089-0.634,0.171-0.964,0.251
		c-0.327,0.077-0.691,0.128-1.093,0.153c-0.114,0.157-0.149,0.326-0.106,0.503c0.049,0.184,0.049,0.354,0,0.51
		c0,0.068-0.008,0.121-0.034,0.153c-0.021,0.029-0.042,0.086-0.066,0.15c-0.023,0.138-0.049,0.265-0.065,0.39
		c-0.025,0.127-0.034,0.266-0.034,0.421c-0.047,0.116-0.098,0.234-0.157,0.354c-0.055,0.125-0.106,0.277-0.148,0.458
		c-0.07,0.342-0.115,0.668-0.134,0.998c-0.025,0.327-0.057,0.678-0.104,1.062c0.021,0.045,0.046,0.057,0.065,0.04
		c0.025-0.026,0.049-0.051,0.087-0.089c0.034-0.033,0.068-0.058,0.102-0.072c0.032-0.004,0.051,0.009,0.051,0.06
		c0.042,0.157,0.038,0.314-0.02,0.471c-0.057,0.159-0.108,0.316-0.15,0.476c-0.021,0.088-0.021,0.173,0.017,0.249
		c0.034,0.083,0.051,0.163,0.051,0.253c-0.047,0.137-0.089,0.277-0.138,0.422c-0.044,0.151-0.087,0.3-0.134,0.459
		c0,0.271,0.028,0.541,0.085,0.812c0.055,0.271,0.074,0.517,0.049,0.744c-0.044,0.044-0.083,0.108-0.116,0.183
		c-0.034,0.082-0.051,0.146-0.051,0.189c-0.047,0.113-0.021,0.232,0.068,0.371c0.091,0.133,0.112,0.289,0.067,0.471
		c-0.067,0.021-0.165,0.021-0.289-0.017c-0.123-0.032-0.23-0.083-0.321-0.152c-0.066,0-0.106,0.033-0.115,0.082
		c-0.012,0.058-0.042,0.087-0.089,0.087c-0.381-0.295-0.652-0.712-0.81-1.25c-0.159-0.542-0.271-1.102-0.339-1.688
		c-0.042-0.316-0.084-0.6-0.114-0.847c-0.034-0.249-0.009-0.508,0.08-0.779c0-0.042-0.004-0.063-0.017-0.063
		c-0.008,0-0.025,0.009-0.051,0.013c-0.021,0.013-0.047,0.021-0.063,0.021c-0.025,0-0.025-0.033,0-0.101
		c0.042-0.07,0.038-0.105-0.02-0.121c-0.057-0.011-0.072-0.062-0.051-0.15c0-0.044,0.023-0.076,0.07-0.081
		c0.042-0.015,0.089-0.063,0.131-0.159c0-0.044-0.008-0.107-0.032-0.182c-0.023-0.083-0.023-0.163,0-0.252
		c-0.042-0.183-0.048-0.365-0.019-0.56c0.034-0.191,0.076-0.398,0.121-0.624c0-0.586,0.019-1.19,0.051-1.809
		c0.034-0.623,0.049-1.165,0.049-1.643c0.044-0.134,0.085-0.259,0.121-0.371c0.032-0.108,0.023-0.216-0.019-0.306
		c-0.021-0.084-0.072-0.147-0.15-0.18c-0.079-0.038-0.176-0.102-0.286-0.188c-0.208-0.185-0.394-0.379-0.577-0.593
		c-0.18-0.214-0.331-0.479-0.437-0.793c0.221,0.114,0.505,0.195,0.841,0.252c0.337,0.058,0.596,0.031,0.778-0.083
		c0.18-1.397,0.39-2.694,0.623-3.886c0.241-1.195,0.491-2.425,0.763-3.684c-0.517,0-1.115-0.008-1.793-0.019
		c-0.676-0.013-1.362-0.062-2.062-0.15c-0.11-0.026-0.279-0.133-0.502-0.322c-0.229-0.195-0.398-0.348-0.51-0.46
		c-0.066-0.105-0.133-0.214-0.202-0.319c-0.072-0.103-0.159-0.208-0.271-0.322c-0.089-0.106-0.174-0.208-0.252-0.284
		c-0.083-0.081-0.163-0.179-0.254-0.289c0.046-0.069,0.142-0.076,0.286-0.033c0.149,0.046,0.289,0.072,0.42,0.072
		c0.229-0.026,0.47-0.09,0.733-0.191c0.258-0.102,0.487-0.207,0.69-0.321c0.475-0.183,0.911-0.371,1.318-0.573
		c0.407-0.201,0.856-0.406,1.354-0.609c0.108-0.045,0.227-0.081,0.352-0.121c0.125-0.032,0.244-0.068,0.356-0.113
		c0.11-0.041,0.223-0.104,0.337-0.19c0.114-0.073,0.201-0.118,0.271-0.118c0.042-0.042,0.076-0.055,0.102-0.032
		c0.021,0.028,0.055,0.032,0.1,0.032c0.112-0.042,0.199-0.094,0.256-0.15c0.051-0.058,0.106-0.094,0.149-0.121
		c0.067-0.042,0.11-0.049,0.118-0.012c0.013,0.033,0.041,0.05,0.089,0.05c0.154-0.025,0.307-0.08,0.453-0.17
		c0.146-0.086,0.289-0.169,0.42-0.239c0.14-0.061,0.284-0.124,0.441-0.182c0.157-0.057,0.316-0.119,0.472-0.188
		c0.295-0.115,0.6-0.208,0.914-0.284c0.313-0.081,0.629-0.148,0.947-0.221c0.653-0.246,1.329-0.44,2.028-0.572
		c0.695-0.14,1.374-0.216,2.028-0.241c0.879,0,1.761,0.021,2.655,0.051c0.888,0.033,1.75,0.133,2.582,0.29
		c0.453,0.092,0.896,0.21,1.334,0.354c0.441,0.144,0.852,0.301,1.233,0.457c0.185,0.09,0.386,0.204,0.61,0.335
		c0.226,0.141,0.381,0.284,0.475,0.44c0.089,0.09,0.166,0.238,0.221,0.44c0.055,0.204,0.059,0.336,0.017,0.403
		c-0.025,0.07-0.063,0.14-0.119,0.204c-0.055,0.067-0.086,0.156-0.086,0.271c-0.02,0.067-0.011,0.149,0.036,0.236
		c0.044,0.09,0.063,0.17,0.063,0.233c-0.019,0.067-0.099,0.191-0.233,0.36c-0.139,0.17-0.239,0.263-0.305,0.282
		c-0.179,0.184-0.437,0.31-0.776,0.373c-0.114,0.069-0.235,0.131-0.355,0.188C166.995,282.362,166.871,282.371,166.761,282.326z
		 M152.769,289.355c0.048,0.043,0.086,0.024,0.116-0.053c0.038-0.08,0.021-0.118-0.051-0.118
		C152.834,289.209,152.817,289.267,152.769,289.355z M153.347,287.999c0.042,0,0.059,0.051,0.049,0.153
		c-0.011,0.102-0.062,0.118-0.151,0.049c0-0.062,0.018-0.108,0.064-0.112C153.355,288.076,153.364,288.044,153.347,287.999z"/>
	<path fill="#1D1D1B" d="M184.638,295.74c0,0.113-0.025,0.24-0.082,0.371c-0.057,0.141-0.13,0.285-0.218,0.44
		c-0.089,0.157-0.187,0.302-0.289,0.441c-0.102,0.132-0.173,0.233-0.22,0.301c-0.135,0.246-0.371,0.568-0.708,0.944
		c-0.338,0.387-0.667,0.695-0.983,0.914c-0.068,0.07-0.131,0.15-0.202,0.253c-0.07,0.105-0.133,0.178-0.201,0.22
		c-0.114,0.051-0.208,0.114-0.289,0.208c-0.08,0.089-0.165,0.157-0.251,0.204c-0.091,0.067-0.159,0.118-0.202,0.147
		c-0.049,0.034-0.114,0.096-0.206,0.185c-0.047,0.023-0.102,0.031-0.167,0.019c-0.067-0.012-0.125,0.005-0.169,0.052
		c-0.025,0.042-0.034,0.087-0.034,0.118c0,0.03-0.008,0.063-0.035,0.081c-0.655,0.522-1.297,0.843-1.927,0.963
		c-0.631,0.128-1.138,0.202-1.517,0.221c-0.814,0-1.504-0.057-2.079-0.169c-0.578-0.114-1.053-0.315-1.422-0.604
		c-0.373-0.296-0.653-0.693-0.846-1.203c-0.188-0.504-0.294-1.141-0.319-1.907c-0.116-0.114-0.208-0.114-0.289,0
		c-0.078,0.114-0.161,0.199-0.254,0.271c-0.089,0.131-0.214,0.301-0.373,0.502c-0.157,0.208-0.328,0.409-0.521,0.612
		c-0.19,0.201-0.394,0.391-0.608,0.56c-0.214,0.165-0.426,0.266-0.628,0.284c-0.29,0.042-0.623,0.006-0.994-0.119
		c-0.371-0.12-0.716-0.242-1.034-0.354c-0.314-0.159-0.534-0.342-0.657-0.543c-0.123-0.2-0.275-0.459-0.458-0.773
		c0.088-0.114,0.127-0.277,0.102-0.491c-0.022-0.212,0.043-0.335,0.203-0.352c0.047-0.141,0.037-0.229-0.033-0.271
		c-0.069-0.042-0.089-0.14-0.069-0.271c0.34-0.568,0.653-1.121,0.948-1.674c0.292-0.555,0.65-1.034,1.081-1.438
		c0.313-0.271,0.61-0.517,0.879-0.741c0.245-0.185,0.479-0.344,0.695-0.475c0.214-0.139,0.352-0.195,0.421-0.17
		c0.202-0.025,0.377-0.102,0.524-0.239c0.145-0.134,0.308-0.256,0.489-0.37c0.159-0.09,0.331-0.166,0.524-0.234
		c0.19-0.069,0.364-0.157,0.521-0.271c0.34,0.022,0.61,0.119,0.813,0.291c0.202,0.164,0.458,0.295,0.777,0.384
		c0.181-0.132,0.306-0.326,0.371-0.572c0.067-0.245,0.191-0.455,0.373-0.61c0.649-0.108,1.212-0.058,1.672,0.155
		c0.461,0.214,0.818,0.512,1.062,0.896c0.049,0.333,0.034,0.666-0.048,0.997c-0.075,0.326-0.183,0.652-0.32,0.98
		c-0.134,0.329-0.293,0.655-0.475,0.978c-0.178,0.326-0.334,0.661-0.471,1c-0.047,0.114-0.095,0.246-0.152,0.401
		c-0.056,0.157-0.106,0.302-0.15,0.442c-0.112,0.312-0.221,0.673-0.322,1.082c-0.104,0.405-0.153,0.833-0.153,1.286
		c0,0.246,0.034,0.504,0.1,0.775c0.068,0.268,0.169,0.497,0.305,0.673c0.293,0.112,0.56,0.171,0.795,0.171s0.46-0.034,0.676-0.102
		c0.212-0.069,0.426-0.165,0.64-0.288c0.212-0.123,0.447-0.255,0.693-0.386c0.206-0.14,0.363-0.239,0.477-0.31
		c0.11-0.063,0.208-0.131,0.284-0.201c0.078-0.07,0.159-0.133,0.239-0.201c0.075-0.07,0.183-0.156,0.32-0.271
		c0.047-0.043,0.077-0.103,0.102-0.171c0.02-0.069,0.059-0.118,0.102-0.169c0.045-0.021,0.089-0.042,0.132-0.063
		c0.045-0.025,0.092-0.045,0.139-0.07c0.178-0.156,0.409-0.358,0.691-0.607c0.28-0.249,0.574-0.506,0.877-0.778
		c0.31-0.27,0.598-0.527,0.881-0.78c0.279-0.246,0.508-0.446,0.691-0.604c0.159-0.141,0.303-0.221,0.441-0.253
		c0.133-0.035,0.245,0.007,0.334,0.112V295.74z M173.284,293.68c0.044,0,0.063-0.024,0.051-0.069
		c-0.012-0.041-0.072-0.067-0.182-0.067c-0.725,0.471-1.336,1.051-1.846,1.726c-0.504,0.673-0.994,1.373-1.468,2.097
		c0.517-0.184,0.964-0.483,1.334-0.914c0.373-0.429,0.713-0.812,1.032-1.153c0.202-0.243,0.41-0.496,0.626-0.755
		C173.043,294.285,173.196,293.996,173.284,293.68z"/>
	<path fill="#1D1D1B" d="M192.007,292.627c0.023,0.569-0.125,1.073-0.454,1.526c-0.328,0.454-0.616,0.81-0.862,1.081
		c-0.358-0.068-0.621-0.199-0.778-0.39c-0.161-0.188-0.328-0.378-0.506-0.56c-0.026-0.201-0.045-0.422-0.071-0.654
		c-0.023-0.24-0.112-0.448-0.268-0.63c-0.271,0-0.497,0.093-0.674,0.271c-0.184,0.183-0.341,0.365-0.475,0.541
		c-0.09,0.051-0.169,0.102-0.237,0.15c-0.067,0.06-0.171,0.146-0.303,0.259c-0.07,0.044-0.158,0.114-0.271,0.221
		c-0.113,0.101-0.201,0.206-0.272,0.322c-0.292,0.427-0.563,0.83-0.811,1.216c-0.179,0.288-0.348,0.602-0.505,0.942
		c-0.157,0.342-0.239,0.685-0.239,1.046c0,0.184,0.025,0.372,0.07,0.561c0.042,0.188,0.145,0.38,0.301,0.562
		c0.364,0.2,0.843,0.302,1.456,0.302c0.384,0,0.778-0.039,1.184-0.102c0.403-0.068,0.776-0.157,1.115-0.27
		c0.021,0.019,0.08,0.024,0.186,0.01c0.098-0.004,0.212-0.029,0.334-0.061c0.128-0.037,0.236-0.07,0.322-0.1
		c0.089-0.039,0.14-0.063,0.14-0.09c0.087,0.068,0.164,0.081,0.231,0.038c0.07-0.051,0.138-0.057,0.202-0.038
		c0.208-0.042,0.322-0.101,0.359-0.169c0.03-0.063,0.165-0.144,0.387-0.233c0.182,0.067,0.313,0.056,0.388-0.038
		c0.082-0.089,0.176-0.157,0.29-0.203c0.114-0.062,0.22-0.094,0.322-0.081c0.102,0.013,0.25-0.038,0.453-0.15
		c0.042,0,0.132-0.013,0.25-0.035c0.127-0.022,0.245-0.09,0.36-0.204c0.156-0.067,0.276-0.127,0.37-0.169
		c0.089-0.045,0.17-0.081,0.252-0.121c0.08-0.032,0.131-0.049,0.153-0.049c0.225-0.105,0.355-0.197,0.39-0.255
		c0.03-0.055,0.15-0.105,0.351-0.15c0.202-0.112,0.361-0.18,0.46-0.221c0.1-0.03,0.227-0.067,0.383-0.12
		c0.229-0.106,0.402-0.219,0.53-0.318c0.119-0.102,0.309-0.241,0.555-0.424c0.182-0.112,0.32-0.2,0.422-0.271
		c0.099-0.063,0.218-0.086,0.357-0.063c0.089,0.178,0.112,0.361,0.081,0.543c-0.03,0.178-0.174,0.428-0.422,0.742
		c-0.138,0.178-0.218,0.283-0.252,0.322c-0.036,0.033-0.099,0.11-0.186,0.216c-0.115,0.067-0.196,0.131-0.255,0.187
		c-0.055,0.059-0.137,0.12-0.25,0.185c-0.051,0.048-0.153,0.105-0.31,0.188c-0.157,0.081-0.275,0.152-0.373,0.22
		c0,0.017-0.086,0.039-0.269,0.051c-0.176,0.013-0.29,0.063-0.333,0.151c-0.046,0.045-0.133,0.125-0.259,0.239
		c-0.118,0.114-0.309,0.156-0.555,0.132c0.044,0.156-0.063,0.258-0.32,0.302c-0.261,0.049-0.437,0.112-0.523,0.21
		c-0.026,0.062-0.068,0.11-0.14,0.132c-0.042,0.023-0.089,0.029-0.131,0.029c-0.183,0.208-0.41,0.327-0.681,0.373
		c-0.265,0.052-0.49,0.14-0.674,0.27c-0.07,0-0.132,0.015-0.201,0.041c-0.115,0.112-0.221,0.186-0.322,0.23
		c-0.1,0.053-0.233,0.096-0.39,0.137c-0.157,0.09-0.301,0.161-0.44,0.204c-0.132,0.043-0.259,0.09-0.369,0.131
		c-0.383,0.208-0.86,0.326-1.436,0.377c-0.577,0.045-1.167,0.077-1.776,0.103c-0.789,0-1.507-0.153-2.162-0.441
		c-0.655-0.296-1.185-0.628-1.587-1.012c-0.114-0.271-0.265-0.53-0.455-0.783c-0.193-0.243-0.322-0.479-0.391-0.705
		c0.089-0.182,0.14-0.359,0.153-0.541c0.012-0.184,0.038-0.359,0.083-0.542c-0.02-0.133-0.002-0.29,0.049-0.472
		c0.059-0.184,0.108-0.371,0.154-0.573c0-0.093,0.036-0.19,0.102-0.29c0.066-0.1,0.12-0.207,0.169-0.319
		c0.049-0.047,0.085-0.135,0.117-0.271c0.033-0.135,0.076-0.24,0.119-0.306c0.046-0.112,0.102-0.225,0.169-0.339
		c0.067-0.114,0.146-0.225,0.237-0.339c0.11-0.106,0.18-0.214,0.202-0.302c0.023-0.088,0.078-0.189,0.171-0.304
		c0.042-0.024,0.085-0.037,0.114-0.049c0.037-0.016,0.077-0.037,0.121-0.088c0.087-0.108,0.163-0.229,0.22-0.354
		c0.059-0.126,0.175-0.24,0.353-0.353c0.07-0.252,0.114-0.385,0.137-0.408c0.089-0.064,0.185-0.114,0.285-0.134
		c0.106-0.025,0.19-0.082,0.253-0.172c0.026-0.042,0.043-0.1,0.053-0.169c0.01-0.067,0.041-0.118,0.083-0.17
		c0.115-0.112,0.229-0.173,0.341-0.201c0.11-0.019,0.214-0.076,0.303-0.17c0.086-0.044,0.163-0.12,0.22-0.22s0.106-0.17,0.15-0.223
		c0.044-0.043,0.108-0.062,0.187-0.062c0.078,0,0.098-0.068,0.049-0.201c0.094,0,0.233,0.013,0.428,0.051
		c0.186,0.029,0.39,0.067,0.602,0.114c0.216,0.049,0.42,0.098,0.612,0.155c0.189,0.057,0.343,0.107,0.451,0.152
		c0.115,0.019,0.254,0.069,0.412,0.149c0.157,0.077,0.324,0.141,0.504,0.184c0.114,0.051,0.225,0.084,0.339,0.102
		c0.115,0.024,0.228,0.057,0.34,0.105c0.047,0,0.095,0.038,0.153,0.115c0.054,0.082,0.08,0.143,0.08,0.188
		c0.047,0.045,0.089,0.069,0.121,0.069c0.032,0,0.069,0.008,0.121,0.03v0.103c0,0.069,0.03,0.102,0.1,0.102
		c0.112,0.14,0.227,0.2,0.354,0.2C191.812,292.527,191.92,292.566,192.007,292.627z"/>
	<path fill="#1D1D1B" d="M205.695,281.142c-0.089,0.314-0.227,0.637-0.407,0.963c-0.178,0.33-0.371,0.682-0.572,1.062
		c-0.135,0.335-0.277,0.702-0.421,1.086c-0.148,0.377-0.277,0.775-0.393,1.178c0.047,0.115,0.11,0.17,0.187,0.17
		c0.08,0,0.155-0.013,0.221-0.032c0.339,0.045,0.614,0.064,0.828,0.049c0.214-0.009,0.479-0.017,0.795-0.017
		c0.27,0.045,0.547,0.08,0.826,0.102c0.286,0.025,0.581,0.039,0.899,0.039c0.924,0.063,1.873,0.143,2.856,0.232
		c0.977,0.094,1.907,0.292,2.786,0.608c-0.112,0.044-0.163,0.083-0.151,0.12c0.01,0.032,0.028,0.094,0.053,0.183
		c-0.051,0.025-0.094,0.052-0.137,0.089c-0.047,0.03-0.093,0.025-0.135-0.017c-0.023,0.084-0.016,0.118,0.033,0.078
		c0.043-0.031,0.055-0.011,0.032,0.053c-0.339,0.023-0.683,0.023-1.03,0c-0.35-0.021-0.69-0.009-1.031,0.038
		c-0.184,0-0.349-0.008-0.505-0.021c-0.158-0.014-0.319,0.006-0.477,0.051c-0.244,0.025-0.512,0.037-0.795,0.051
		c-0.28,0.013-0.569-0.009-0.856-0.051c-0.388,0.042-0.75,0.08-1.1,0.118c-0.35,0.031-0.708,0.07-1.063,0.121
		c-0.094,0.019-0.206,0.019-0.342,0c-0.045,0.045-0.097,0.057-0.153,0.032c-0.057-0.026-0.104-0.032-0.149-0.032
		c-0.025,0-0.04,0.006-0.049,0.032c-0.015,0.024-0.032,0.029-0.055,0.029c-0.11,0.051-0.214,0.085-0.302,0.102
		c-0.093,0.025-0.182,0.038-0.271,0.038c-0.156-0.042-0.328-0.038-0.508,0.013c-0.178,0.058-0.326,0.102-0.44,0.119
		c-0.314-0.043-0.528-0.005-0.641,0.102c-0.047,0.067-0.14,0.229-0.288,0.479c-0.145,0.246-0.242,0.447-0.289,0.604
		c-0.041,0.112-0.075,0.201-0.097,0.271c-0.023,0.069-0.057,0.156-0.102,0.269c-0.067,0.185-0.114,0.348-0.136,0.504
		c-0.025,0.166-0.078,0.354-0.17,0.581c-0.047,0.131-0.091,0.233-0.135,0.303c-0.045,0.068-0.06,0.13-0.034,0.201
		c-0.047,0-0.06,0.043-0.032,0.139c0.021,0.086,0.042,0.157,0.066,0.2c-0.066,0.114-0.13,0.234-0.188,0.371
		c-0.057,0.135-0.092,0.29-0.118,0.474c-0.11,0.315-0.214,0.644-0.306,0.982c-0.088,0.335-0.189,0.674-0.305,1.014
		c0,0.063-0.029,0.159-0.1,0.271c-0.065,0.114-0.1,0.188-0.1,0.232c-0.021,0.182-0.047,0.359-0.07,0.543
		c-0.022,0.182-0.057,0.326-0.1,0.44c-0.067,0.182-0.096,0.339-0.085,0.489c0.014,0.146-0.037,0.266-0.151,0.354
		c-0.022,0.115-0.035,0.228-0.035,0.34c0,0.114-0.021,0.245-0.067,0.402c-0.047,0.114-0.067,0.268-0.067,0.463
		c0,0.186-0.045,0.367-0.136,0.553c-0.023,0.045-0.051,0.088-0.08,0.137c-0.037,0.047-0.051,0.077-0.051,0.103
		c0.021,0,0.029,0.006,0.029,0.029v0.103c-0.021,0.024-0.042,0.031-0.063,0.031c-0.023,0-0.036,0.012-0.036,0.038
		c-0.023-0.026-0.027,0.006-0.017,0.082c0.01,0.081,0.017,0.145,0.017,0.189s-0.013,0.045-0.033,0c-0.024-0.045-0.032-0.045-0.032,0
		c-0.07,0.157-0.106,0.345-0.121,0.573c-0.013,0.226-0.041,0.396-0.085,0.51l-0.065,0.063c0,0.094,0,0.188,0,0.288
		c0,0.102,0.022,0.207,0.065,0.321c-0.043,0.633-0.014,1.208,0.085,1.738c0.102,0.53,0.277,0.962,0.524,1.304
		c0.021,0.089,0.021,0.111,0,0.069c-0.022-0.05-0.032-0.025-0.032,0.064c0.135,0.155,0.256,0.312,0.371,0.472
		c0.11,0.155,0.292,0.214,0.538,0.169c0.183,0.045,0.352,0.032,0.509-0.051c0.157-0.075,0.292-0.18,0.407-0.318
		c0.046-0.045,0.072-0.106,0.084-0.184c0.013-0.084,0.072-0.152,0.188-0.222c0.088,0.111,0.097,0.222,0.017,0.321
		c-0.083,0.101-0.118,0.183-0.118,0.253c-0.045,0.042-0.073,0.089-0.086,0.14c-0.012,0.042-0.028,0.061-0.051,0.061
		c-0.047,0.096-0.159,0.184-0.339,0.27c-0.047,0.114-0.124,0.216-0.234,0.31c-0.112,0.09-0.249,0.204-0.405,0.335
		c-0.115,0.067-0.208,0.132-0.288,0.189c-0.081,0.057-0.221,0.107-0.424,0.149c-0.449,0.115-0.924,0.051-1.417-0.187
		c-0.498-0.234-0.89-0.51-1.185-0.826c-0.067-0.089-0.106-0.163-0.118-0.22c-0.008-0.056-0.072-0.179-0.186-0.353
		c0-0.114-0.039-0.232-0.114-0.359c-0.081-0.12-0.179-0.23-0.293-0.322c-0.021-0.088-0.049-0.184-0.08-0.284
		c-0.035-0.1-0.041-0.199-0.02-0.289c-0.044-0.114-0.086-0.238-0.116-0.39c-0.033-0.146-0.072-0.277-0.119-0.386
		c0-0.207-0.03-0.44-0.087-0.71c-0.053-0.271-0.092-0.529-0.114-0.782c-0.049-0.245-0.07-0.496-0.07-0.753c0-0.26,0-0.518,0-0.764
		c0-0.044-0.017-0.096-0.051-0.152c-0.034-0.056-0.039-0.106-0.017-0.15c0-0.045,0.01-0.088,0.035-0.119
		c0.022-0.032,0.022-0.077,0-0.12c0.134-0.177,0.167-0.302,0.102-0.371c-0.049-0.088-0.035-0.291,0.032-0.61
		c0.067-0.315,0.123-0.574,0.169-0.776c0-0.112,0.021-0.208,0.067-0.288c0.047-0.075,0.055-0.171,0.032-0.283
		c0.07-0.139,0.098-0.354,0.084-0.643c-0.008-0.297,0.02-0.498,0.087-0.612c0.021-0.068,0.055-0.154,0.1-0.269
		c0.044-0.115,0.069-0.189,0.069-0.234c0.087-0.314,0.157-0.562,0.202-0.73c0.045-0.163,0.112-0.354,0.201-0.553
		c-0.043,0.042-0.129,0.173-0.251,0.402c-0.123,0.224-0.22,0.371-0.286,0.44h-0.206c0.023,0.042,0.036,0.102,0.036,0.169
		c-0.114,0.179-0.229,0.365-0.355,0.557c-0.123,0.194-0.218,0.377-0.288,0.559c0-0.203,0.08-0.44,0.237-0.712
		c0-0.087,0.021-0.201,0.07-0.334c0.042-0.052,0.083-0.094,0.114-0.137c0.037-0.047,0.041-0.088,0.02-0.133
		c0.044-0.051,0.061-0.1,0.051-0.159c-0.014-0.049-0.006-0.1,0.017-0.15c0-0.045,0.021-0.063,0.067-0.063
		c0.047,0,0.068-0.024,0.068-0.069c0.042-0.024,0.049-0.049,0.013-0.086c-0.03-0.034-0.034-0.057-0.013-0.085
		c0.042-0.042,0.085-0.074,0.12-0.08c0.031-0.013,0.037-0.051,0.017-0.118c0.021-0.047,0.034-0.103,0.034-0.17
		c0-0.072,0.008-0.14,0.029-0.203c-0.021-0.043-0.014-0.09,0.019-0.119c0.036-0.034,0.053-0.083,0.053-0.152
		c0.043-0.067,0.064-0.145,0.064-0.237c0.021-0.045,0.055-0.085,0.084-0.121c0.036-0.031,0.051-0.07,0.051-0.112
		c0.024-0.072,0.03-0.127,0.022-0.172c-0.016-0.045-0.022-0.086-0.022-0.137c0-0.021,0.022-0.051,0.051-0.081
		c0.037-0.033,0.063-0.11,0.085-0.223c0.048-0.088,0.057-0.176,0.033-0.253c-0.021-0.08-0.01-0.137,0.036-0.186
		c0.045-0.047,0.088-0.098,0.133-0.153c0.047-0.057,0.068-0.118,0.068-0.182c0.021-0.114,0.029-0.195,0.021-0.24
		c-0.015-0.044,0-0.124,0.047-0.234c0.047-0.094,0.098-0.149,0.153-0.17c0.055-0.024,0.092-0.055,0.116-0.102
		c0.025-0.022,0.025-0.056,0-0.106c-0.024-0.042-0.024-0.087,0-0.131c0.07-0.07,0.104-0.087,0.104-0.07
		c0.042-0.062,0.059-0.131,0.051-0.201c-0.014-0.067-0.02-0.125-0.02-0.169c0-0.045,0.057-0.102,0.171-0.171
		c-0.046-0.045-0.059-0.088-0.035-0.131c0.021-0.047,0.046-0.069,0.069-0.069c0.042-0.176,0.094-0.315,0.149-0.405
		c0.059-0.088,0.098-0.194,0.123-0.301c-0.025,0-0.021-0.006,0.012-0.02c0.037-0.013-0.118,0.026-0.453,0.12
		c-0.36,0.019-0.71,0.039-1.051,0.051c-0.335,0.015-0.664,0.051-0.979,0.114c-0.45-0.02-0.886-0.028-1.314-0.014
		c-0.431,0.014-0.8-0.039-1.119-0.151c-0.089,0-0.183-0.012-0.271-0.037c-0.087-0.021-0.2-0.057-0.337-0.102
		c-0.202-0.114-0.388-0.208-0.558-0.284c-0.169-0.08-0.331-0.212-0.492-0.39c-0.135-0.089-0.273-0.183-0.423-0.271
		c-0.143-0.09-0.242-0.189-0.285-0.302c-0.044-0.051-0.072-0.108-0.084-0.169c-0.01-0.072-0.018-0.127-0.018-0.172
		c0.249,0.045,0.485,0.036,0.709-0.019c0.229-0.056,0.429-0.12,0.608-0.184c0.408-0.182,0.849-0.31,1.32-0.39
		c0.473-0.082,0.935-0.176,1.386-0.287c0.812-0.11,1.606-0.204,2.384-0.271c0.779-0.063,1.636-0.09,2.584-0.063
		c0.225-0.026,0.309-0.032,0.253-0.022c-0.06,0.015-0.05-0.004,0.018-0.049c0.067-0.026,0.108-0.069,0.118-0.131
		c0.011-0.069,0.039-0.152,0.086-0.239c0.021-0.115,0.061-0.19,0.118-0.241c0.054-0.043,0.114-0.088,0.187-0.131
		c0.021-0.043,0.029-0.088,0.029-0.139c0-0.045,0.014-0.087,0.033-0.133c0-0.026,0.031-0.051,0.088-0.081
		c0.057-0.039,0.094-0.076,0.119-0.119c-0.047-0.089-0.07-0.146-0.07-0.171l0.102-0.1c0.227-0.183,0.35-0.341,0.373-0.474
		c0.271-0.497,0.619-1.069,1.047-1.727c0.094-0.112,0.165-0.237,0.221-0.37c0.057-0.139,0.129-0.227,0.22-0.271
		c0.068-0.088,0.119-0.15,0.153-0.181c0.033-0.038,0.063-0.089,0.084-0.161c0.043-0.017,0.077-0.056,0.1-0.112
		c0.024-0.058,0.036-0.1,0.036-0.118c0-0.159,0.11-0.183,0.337-0.07c0.045,0,0.072-0.02,0.086-0.051
		c0.008-0.03,0.026-0.026,0.047,0.019c0.094,0,0.153-0.01,0.188-0.035c0.036-0.021,0.094-0.032,0.187-0.032
		c0.021,0,0.068,0.019,0.136,0.049c0.067,0.031,0.135,0.051,0.2,0.051c0.047,0.045,0.101,0.096,0.155,0.153
		c0.055,0.055,0.139,0.118,0.25,0.188h0.07v0.062c0.065,0.051,0.13,0.083,0.187,0.108
		C205.602,280.96,205.651,281.027,205.695,281.142z"/>
	<path fill="#1D1D1B" d="M220.737,295.368c0.047,0.612-0.067,1.152-0.341,1.625c-0.157,0.132-0.221,0.194-0.186,0.183
		c0.034-0.007-0.026,0.032-0.184,0.118c-0.116,0.047-0.221,0.114-0.322,0.204c-0.102,0.093-0.229,0.169-0.388,0.238
		c-0.318,0.112-0.585,0.189-0.81,0.232c-0.225,0.05-0.475,0.151-0.748,0.309c-0.199,0.063-0.419,0.105-0.657,0.114
		c-0.237,0.014-0.476,0.062-0.725,0.157c-0.339,0.089-0.62,0.126-0.844,0.114c-0.227-0.009-0.5-0.051-0.811-0.114
		c-0.024,0-0.09,0.063-0.189,0.183c-0.1,0.127-0.184,0.207-0.255,0.251c-0.067,0.096-0.129,0.176-0.184,0.259
		c-0.06,0.074-0.083,0.125-0.083,0.151c-0.093,0.114-0.142,0.165-0.154,0.149c-0.011-0.011-0.029,0.007-0.051,0.053
		c-0.065,0.157-0.197,0.296-0.39,0.401c-0.189,0.114-0.364,0.227-0.523,0.341c-0.043,0.043-0.079,0.081-0.103,0.119
		c-0.021,0.034-0.057,0.062-0.1,0.083c-0.021,0.044-0.057,0.073-0.102,0.088c-0.047,0.012-0.088,0.036-0.135,0.083
		c-0.09,0.067-0.149,0.123-0.186,0.17c-0.033,0.042-0.069,0.081-0.099,0.1c-0.036,0.024-0.085,0.045-0.154,0.069
		c-0.069,0.017-0.168,0.067-0.304,0.132c-0.114,0.07-0.271,0.132-0.478,0.188c-0.198,0.058-0.421,0.102-0.656,0.133
		c-0.237,0.037-0.475,0.057-0.71,0.068c-0.235,0.013-0.435-0.004-0.592-0.049c-0.154-0.044-0.314-0.12-0.472-0.222
		c-0.161-0.1-0.291-0.195-0.405-0.288c-0.472-0.403-0.916-0.887-1.322-1.45c-0.405-0.566-0.585-1.252-0.538-2.063
		c0.047-0.178,0.069-0.361,0.069-0.543c0-0.176,0.011-0.32,0.034-0.435c0.043-0.045,0.085-0.087,0.136-0.12
		c0.042-0.037,0.087-0.106,0.134-0.219c0.021-0.045,0.031-0.102,0.031-0.172c0-0.068,0.012-0.119,0.036-0.17
		c0.021-0.063,0.056-0.118,0.098-0.169c0.049-0.045,0.08-0.103,0.102-0.166c0.049-0.067,0.063-0.137,0.054-0.207
		c-0.013-0.063-0.005-0.119,0.017-0.164c0.045-0.111,0.105-0.206,0.187-0.289c0.078-0.08,0.142-0.138,0.187-0.188
		c0.043-0.106,0.069-0.206,0.082-0.302c0.012-0.089,0.04-0.169,0.087-0.232c0.09-0.227,0.159-0.38,0.202-0.461
		c0.041-0.075,0.156-0.207,0.337-0.39c0.114-0.109,0.197-0.189,0.257-0.232c0.055-0.047,0.169-0.047,0.353,0
		c0.112,0.019,0.191-0.006,0.238-0.09c0.042-0.075,0.065-0.156,0.065-0.249c0.043-0.204,0.106-0.336,0.187-0.393
		c0.076-0.051,0.118-0.095,0.118-0.112c-0.091-0.14-0.205-0.203-0.341-0.19c-0.135,0.013-0.259-0.017-0.371-0.081
		c-0.065-0.182-0.08-0.417-0.031-0.712c0.517,0.026,1.089,0,1.708-0.067c0.616-0.063,1.199-0.047,1.737,0.067
		c0.27,0.026,0.526,0.077,0.761,0.15c0.237,0.083,0.479,0.151,0.729,0.221c0.335,0.112,0.623,0.271,0.857,0.473
		c0.24,0.201,0.45,0.453,0.628,0.741c0.114,0.141,0.229,0.236,0.355,0.293c0.122,0.055,0.208,0.208,0.251,0.453
		c0.044,0.094,0.093,0.333,0.135,0.729c0.045,0.39,0.038,0.725-0.031,0.996c-0.043,0.245-0.096,0.459-0.153,0.622
		c-0.055,0.17-0.116,0.326-0.186,0.473c-0.064,0.151-0.143,0.304-0.219,0.46c-0.08,0.157-0.152,0.346-0.218,0.572
		c0.29,0.025,0.543,0.039,0.757,0.052c0.216,0.012,0.417,0.006,0.607-0.013c0.194-0.026,0.38-0.058,0.56-0.106
		c0.182-0.045,0.404-0.102,0.674-0.165c0.295-0.07,0.544-0.139,0.748-0.208c0.201-0.063,0.382-0.141,0.538-0.212
		c0.159-0.085,0.31-0.165,0.459-0.261c0.146-0.086,0.32-0.202,0.522-0.333c0.112-0.069,0.191-0.14,0.234-0.208
		c0.047-0.062,0.088-0.126,0.12-0.182c0.035-0.057,0.071-0.12,0.116-0.191C220.546,295.505,220.622,295.438,220.737,295.368z
		 M210.902,299.223c0.199-0.115,0.39-0.24,0.558-0.373c0.167-0.138,0.374-0.396,0.627-0.773c-0.543-0.271-1.007-0.617-1.388-1.032
		c-0.385-0.415-0.722-0.888-1.014-1.404c-0.025,0.024-0.042,0.031-0.051,0.031c-0.013,0-0.028,0.012-0.055,0.038
		c-0.176,0.157-0.351,0.377-0.506,0.654c-0.155,0.282-0.285,0.592-0.39,0.931c-0.096,0.341-0.169,0.683-0.218,1.034
		c-0.044,0.347-0.044,0.681,0,0.996c0.07,0.246,0.228,0.409,0.475,0.489c0.247,0.077,0.452,0.108,0.608,0.083
		c0.204-0.045,0.442-0.141,0.728-0.284C210.556,299.462,210.764,299.337,210.902,299.223z M213.201,293.713
		c-0.094-0.176-0.229-0.36-0.41-0.543c-0.089-0.088-0.178-0.169-0.271-0.232c-0.065-0.114-0.212-0.221-0.435-0.322
		c-0.227-0.103-0.42-0.208-0.577-0.32c-0.114-0.045-0.296-0.074-0.54-0.089c-0.248-0.007-0.404-0.011-0.475-0.011
		c0.181,0.173,0.256,0.403,0.235,0.674c-0.021,0.271-0.009,0.529,0.034,0.773c0.25,0.025,0.421,0.106,0.527,0.259
		c0.1,0.146,0.15,0.341,0.15,0.592c-0.022,0.088-0.102,0.118-0.235,0.101c-0.138-0.024-0.237,0-0.305,0.062
		c0.042,0.163,0.061,0.321,0.046,0.493c-0.01,0.17,0.009,0.333,0.054,0.49c0.021,0.043,0.063,0.082,0.12,0.101
		c0.056,0.023,0.092,0.081,0.114,0.17c0.047,0.07,0.088,0.134,0.122,0.188c0.033,0.058,0.062,0.106,0.084,0.153
		c0.18,0.245,0.356,0.463,0.523,0.652c0.17,0.195,0.4,0.347,0.691,0.461c0.205-0.341,0.408-0.714,0.608-1.113
		c0.204-0.412,0.227-0.871,0.069-1.387c0.157-0.114,0.187-0.29,0.083-0.529C213.32,294.103,213.242,293.896,213.201,293.713z"/>
	<path fill="#1D1D1B" d="M224.828,292.797c0.11,0.228,0.293,0.344,0.536,0.344c0.25,0,0.463,0.042,0.645,0.131
		c0.112,0.068,0.212,0.132,0.304,0.189c0.088,0.058,0.182,0.133,0.272,0.219c0.157,0,0.271,0.045,0.337,0.133l0.07,0.069
		c0,0.026,0.006,0.043,0.029,0.068c0.136,0.063,0.223,0.14,0.254,0.221c0.036,0.076,0.108,0.196,0.221,0.354
		c0.068,0.045,0.123,0.083,0.17,0.12c0.042,0.03,0.097,0.068,0.168,0.12c-0.045,0.245-0.014,0.408,0.084,0.485
		c0.102,0.082,0.21,0.155,0.322,0.22c-0.112,0.156-0.214,0.319-0.305,0.489c-0.092,0.17-0.193,0.31-0.302,0.424
		c-0.069,0.269-0.15,0.568-0.241,0.882c-0.087,0.313-0.19,0.598-0.301,0.843c0,0.017-0.03,0.056-0.084,0.103
		c-0.059,0.042-0.098,0.08-0.122,0.1c-0.086,0.201-0.152,0.43-0.184,0.673c-0.032,0.253-0.072,0.512-0.117,0.783
		c-0.114,0.444-0.227,0.949-0.341,1.504c-0.111,0.547-0.123,1.119-0.029,1.706c0.042,0.201,0.087,0.417,0.135,0.642
		c0.043,0.222,0.121,0.403,0.235,0.543l0.034,0.102c0.089,0.062,0.181,0.102,0.267,0.102c0.094,0,0.157,0.017,0.206,0.062
		c0.089,0.094,0.11,0.15,0.065,0.169c-0.045,0.026-0.023,0.096,0.07,0.202c0.245,0.026,0.479,0.006,0.69-0.051
		c0.214-0.056,0.447-0.094,0.695-0.112c-0.161,0.176-0.35,0.32-0.577,0.422c-0.225,0.102-0.427,0.169-0.607,0.221
		c-0.629,0.105-1.229,0.055-1.791-0.17c-0.565-0.227-0.973-0.53-1.218-0.916c-0.066-0.067-0.135-0.212-0.202-0.44
		c-0.067-0.225-0.123-0.384-0.169-0.471c-0.045-0.114-0.085-0.216-0.119-0.303c-0.036-0.095-0.062-0.197-0.087-0.308
		c-0.086-0.271-0.144-0.567-0.165-0.894c-0.023-0.329-0.033-0.658-0.033-0.997c0-0.542,0.033-1.102,0.102-1.674
		c0.067-0.574,0.162-1.135,0.286-1.669c0.126-0.543,0.261-1.052,0.406-1.524c0.145-0.473,0.297-0.882,0.454-1.215
		c-0.043-0.186-0.146-0.296-0.304-0.341c-0.159-0.044-0.304-0.12-0.438-0.232c-0.092,0-0.157-0.02-0.199-0.051
		c-0.052-0.039-0.093-0.075-0.138-0.121c-0.047-0.042-0.085-0.081-0.12-0.098c-0.035-0.028-0.084-0.015-0.149,0.029
		c-0.136,0.183-0.229,0.304-0.272,0.373c-0.047,0.067-0.09,0.132-0.135,0.188c-0.046,0.059-0.09,0.114-0.137,0.182
		c-0.043,0.071-0.137,0.184-0.271,0.339c-0.043,0.065-0.172,0.171-0.384,0.306c-0.216,0.137-0.334,0.225-0.358,0.271
		c-0.091,0.245-0.201,0.401-0.337,0.47c-0.136,0.07-0.292,0.195-0.475,0.373c-0.204,0.252-0.392,0.415-0.574,0.509
		c-0.179,0.089-0.393,0.221-0.64,0.402c-0.903,0.047-1.353-0.067-1.353-0.339c0.292-0.246,0.573-0.473,0.847-0.675
		c0.269-0.2,0.461-0.383,0.571-0.54c0.246-0.29,0.411-0.479,0.489-0.555c0.081-0.082,0.208-0.223,0.392-0.421
		c0.133-0.141,0.238-0.247,0.32-0.322c0.077-0.081,0.24-0.264,0.489-0.561c0.157-0.227,0.257-0.377,0.306-0.453
		c0.045-0.081,0.121-0.221,0.235-0.428c-0.047-0.063-0.106-0.132-0.187-0.204c-0.076-0.062-0.165-0.131-0.254-0.198
		c-0.065-0.09-0.108-0.141-0.117-0.153c-0.012-0.013-0.019-0.025-0.019-0.03c0-0.012,0-0.037,0-0.071
		c0-0.036-0.021-0.118-0.066-0.251c0-0.024-0.035-0.069-0.102-0.139c-0.069-0.067-0.101-0.112-0.101-0.132
		c-0.024-0.156-0.024-0.348,0-0.56c0.022-0.216,0.053-0.428,0.082-0.645c0.038-0.214,0.081-0.414,0.136-0.604
		c0.058-0.196,0.108-0.345,0.154-0.46c0.068-0.271,0.188-0.585,0.371-0.945c0.023-0.022,0.061-0.035,0.118-0.035
		c0.056,0,0.085-0.007,0.085-0.032c0.019-0.045,0.028-0.082,0.015-0.118c-0.008-0.033-0.015-0.063-0.015-0.086
		s0.032-0.029,0.1-0.029c0.023,0,0.056,0.007,0.103,0.029c0.022-0.041,0.022-0.084,0-0.118c-0.024-0.029-0.024-0.051,0-0.051
		c0.022-0.017,0.055-0.043,0.104-0.067c0.044-0.02,0.063-0.043,0.063-0.063c0.045-0.114,0.125-0.238,0.237-0.371
		c0.112-0.139,0.248-0.284,0.407-0.441c0.114-0.114,0.305-0.31,0.578-0.591c0.267-0.284,0.479-0.479,0.638-0.594
		c0.047-0.042,0.106-0.067,0.188-0.067c0.079,0,0.15-0.047,0.216-0.134c0.021,0,0.049-0.007,0.07-0.019
		c0.021-0.013,0.058,0.019,0.103,0.081c0.198,0.209,0.421,0.378,0.656,0.51c0.237,0.133,0.445,0.303,0.627,0.504
		c0,0.139,0.021,0.21,0.065,0.21c0.049,0.786,0,1.448-0.135,1.988c-0.136,0.543-0.304,1.096-0.504,1.657
		c-0.114,0.364-0.273,0.699-0.474,1.013C225.199,292.101,225.005,292.441,224.828,292.797z M224.557,289.05
		c-0.046,0.222-0.129,0.438-0.254,0.626c-0.124,0.188-0.25,0.384-0.373,0.574c-0.12,0.195-0.225,0.4-0.303,0.623
		c-0.08,0.225-0.083,0.479-0.018,0.742c0.178-0.422,0.371-0.813,0.577-1.166c0.198-0.346,0.37-0.693,0.506-1.026
		c0.043-0.067,0.088-0.156,0.136-0.258c0.042-0.102,0.042-0.195,0-0.284c-0.025,0.064-0.063,0.102-0.121,0.102
		C224.651,288.982,224.6,288.999,224.557,289.05z"/>
	<path fill="#1D1D1B" d="M235.674,292.327c0.112,0.315,0.104,0.571-0.019,0.763c-0.121,0.187-0.218,0.39-0.286,0.59
		c-0.023,0.088-0.033,0.178-0.033,0.253c0,0.081-0.011,0.139-0.035,0.189c-0.067,0.086-0.116,0.2-0.152,0.332
		c-0.031,0.14-0.071,0.259-0.114,0.374c-0.252,0.54-0.491,1.113-0.729,1.705c-0.236,0.598-0.471,1.214-0.693,1.846
		c0.157,0.09,0.279,0.067,0.373-0.069c0.087-0.132,0.188-0.246,0.301-0.341c0.699-0.561,1.443-1.171,2.231-1.819
		c0.791-0.656,1.645-1.195,2.571-1.625c0.381-0.185,0.879-0.329,1.501-0.44c0.62-0.112,1.201-0.101,1.742,0.038
		c0.113,0.019,0.229,0.045,0.356,0.063c0.121,0.022,0.229,0.057,0.32,0.1c0.065,0.025,0.116,0.076,0.15,0.157
		c0.033,0.075,0.072,0.139,0.121,0.182c0.157,0.071,0.328,0.165,0.522,0.292c0.193,0.119,0.332,0.238,0.422,0.353
		c0.043,0.112,0.1,0.281,0.168,0.508c0.068,0.221,0.138,0.416,0.203,0.575c0.022,0.086,0.043,0.188,0.049,0.3
		c0.013,0.112,0.032,0.23,0.053,0.342c0.068,0.313,0.104,0.706,0.104,1.185c0,0.489-0.021,1.02-0.053,1.566
		c-0.034,0.555-0.052,1.046-0.052,1.475c0.068-0.138,0.164-0.297,0.288-0.479c0.126-0.174,0.268-0.363,0.422-0.555
		c0.157-0.188,0.314-0.364,0.476-0.521c0.154-0.157,0.29-0.285,0.404-0.373c0.087-0.068,0.208-0.184,0.354-0.339
		c0.146-0.157,0.302-0.32,0.474-0.492c0.165-0.17,0.332-0.327,0.487-0.471c0.155-0.145,0.293-0.253,0.407-0.322
		c0.63-0.473,1.121-0.869,1.471-1.185c0.35-0.316,0.714-0.528,1.096-0.643c0.182-0.063,0.345-0.131,0.494-0.2
		c0.144-0.071,0.442-0.032,0.895,0.101c0.069,0.023,0.105,0.087,0.12,0.189c0.009,0.1,0.009,0.199,0,0.301
		c-0.015,0.102-0.042,0.19-0.087,0.252c-0.047,0.069-0.091,0.083-0.135,0.038c-0.204,0.087-0.343,0.146-0.423,0.163
		c-0.075,0.025-0.146,0.051-0.203,0.07c-0.056,0.025-0.123,0.069-0.201,0.138c-0.081,0.063-0.235,0.201-0.46,0.402
		c-0.043,0.047-0.176,0.145-0.404,0.306c-0.223,0.157-0.358,0.263-0.407,0.307c-0.043,0.045-0.104,0.1-0.185,0.17
		c-0.078,0.062-0.175,0.146-0.287,0.233c-0.177,0.137-0.302,0.245-0.371,0.339c-0.066,0.091-0.168,0.188-0.304,0.304
		c-0.268,0.2-0.526,0.437-0.759,0.691c-0.237,0.259-0.502,0.549-0.795,0.863c-0.025,0.025-0.104,0.105-0.235,0.252
		c-0.135,0.146-0.285,0.307-0.442,0.492c-0.157,0.182-0.306,0.345-0.438,0.502c-0.133,0.159-0.217,0.255-0.237,0.271
		c-0.023,0.051-0.074,0.134-0.15,0.259c-0.081,0.118-0.163,0.265-0.253,0.424c-0.094,0.156-0.184,0.309-0.271,0.451
		c-0.09,0.146-0.158,0.248-0.203,0.29c-0.182,0.114-0.301,0.284-0.352,0.505c-0.06,0.227-0.134,0.396-0.223,0.508
		c-0.046,0.178-0.098,0.39-0.15,0.623c-0.057,0.242-0.133,0.479-0.223,0.726c-0.135,0.611-0.269,1.297-0.404,2.067
		c-0.138,0.759-0.293,1.483-0.473,2.157c-0.047,0.185-0.102,0.379-0.169,0.594c-0.065,0.214-0.137,0.434-0.2,0.661
		c-0.026,0.044-0.026,0.105,0,0.183c0.019,0.08,0.019,0.156,0,0.22c-0.026,0.096-0.088,0.208-0.188,0.359
		c-0.104,0.146-0.186,0.311-0.255,0.485c-0.043,0.182-0.063,0.302-0.051,0.359c0.01,0.055,0.012,0.105,0.012,0.15
		s-0.002,0.1-0.012,0.17c-0.013,0.069-0.051,0.178-0.121,0.332c0,0.026-0.032,0.058-0.102,0.11c-0.063,0.043-0.1,0.075-0.1,0.1
		c-0.019,0.062-0.019,0.146,0,0.23c0.022,0.096,0.022,0.161,0,0.204c-0.09,0.182-0.161,0.377-0.221,0.592
		c-0.057,0.214-0.143,0.416-0.25,0.591c-0.091,0.185-0.185,0.38-0.273,0.594s-0.178,0.408-0.27,0.591
		c-0.041,0.112-0.073,0.185-0.084,0.201c-0.013,0.025-0.028,0.047-0.051,0.051c-0.023,0.013-0.041,0.026-0.051,0.038
		c-0.013,0.013-0.043,0.063-0.086,0.153c-0.067,0.112-0.112,0.174-0.133,0.198l-0.067,0.141c-0.181,0.377-0.39,0.742-0.628,1.076
		c-0.237,0.341-0.421,0.7-0.557,1.083c-0.178,0.384-0.337,0.775-0.474,1.165c-0.135,0.396-0.269,0.806-0.404,1.236
		c-0.182,0.084-0.388,0.186-0.605,0.288c-0.229,0.102-0.431,0.207-0.611,0.321c-0.451-0.114-0.91-0.203-1.386-0.259
		c-0.475-0.057-0.866-0.182-1.183-0.385c0-0.856,0.112-1.675,0.337-2.45c0.228-0.779,0.441-1.56,0.643-2.348
		c0.136-0.521,0.248-0.952,0.337-1.284c0.091-0.339,0.183-0.661,0.271-0.962c0.09-0.31,0.186-0.628,0.289-0.954
		c0.103-0.322,0.241-0.725,0.422-1.195c0.046-0.157,0.089-0.29,0.136-0.39c0.047-0.102,0.11-0.229,0.201-0.386l0.07-0.208
		c0.044-0.089,0.073-0.182,0.102-0.283c0.022-0.1,0.053-0.2,0.1-0.289c0-0.025,0.027-0.063,0.084-0.118
		c0.058-0.058,0.086-0.098,0.086-0.114c0.18-0.594,0.347-1.039,0.508-1.356c0.157-0.314,0.392-0.729,0.706-1.251
		c0-0.021,0.008-0.071,0.019-0.152c0.011-0.076,0.042-0.138,0.085-0.182c0.021-0.025,0.049-0.045,0.085-0.051
		c0.033-0.013,0.072-0.031,0.119-0.052c0.022-0.093,0.033-0.186,0.033-0.287c0-0.103,0.02-0.191,0.07-0.255
		c0-0.025,0.019-0.036,0.063-0.036c0.049,0,0.078-0.013,0.1-0.031c0.023-0.112,0.042-0.195,0.053-0.251
		c0.011-0.059,0.054-0.122,0.119-0.19c0.112-0.183,0.229-0.339,0.355-0.491c0.123-0.145,0.24-0.308,0.354-0.491
		c0.047-0.088,0.105-0.163,0.188-0.234c0.079-0.067,0.148-0.137,0.219-0.198c0.045-0.047,0.045-0.108,0-0.191
		c-0.048-0.076-0.048-0.127,0-0.149c0.045-0.045,0.104-0.071,0.185-0.071c0.076,0,0.14-0.042,0.185-0.131
		c0.093-0.089,0.148-0.183,0.169-0.271c0.021-0.09,0.07-0.196,0.137-0.302c0.111-0.14,0.229-0.277,0.354-0.423
		c0.124-0.151,0.245-0.314,0.353-0.491c-0.042-0.542-0.032-1.057,0.035-1.536c0.069-0.485,0.098-0.979,0.098-1.475
		c0-0.315-0.002-0.699-0.012-1.145c-0.013-0.453-0.043-0.894-0.086-1.321c-0.043-0.433-0.129-0.81-0.251-1.128
		c-0.127-0.33-0.291-0.53-0.491-0.594c-0.2-0.051-0.49,0.025-0.863,0.214c-0.373,0.196-0.683,0.38-0.928,0.56
		c-0.181,0.112-0.333,0.227-0.459,0.342c-0.122,0.112-0.277,0.225-0.455,0.335c-0.045,0.049-0.089,0.067-0.138,0.067
		c-0.042,0-0.087,0.025-0.134,0.069c-0.109,0.112-0.287,0.264-0.525,0.452c-0.23,0.194-0.41,0.366-0.519,0.523
		c-0.295,0.252-0.583,0.536-0.862,0.85c-0.284,0.316-0.573,0.594-0.865,0.843c-0.043,0.045-0.089,0.071-0.133,0.071
		c-0.043,0-0.092,0.019-0.137,0.063c-0.18,0.159-0.408,0.396-0.695,0.712c-0.279,0.315-0.533,0.553-0.756,0.71
		c-0.093,0.021-0.18,0.032-0.273,0.032c-0.091,0-0.176,0.015-0.27,0.031c-0.314,0.114-0.598,0.22-0.843,0.321
		c-0.248,0.106-0.565,0.076-0.948-0.083c-0.112-0.022-0.245-0.086-0.388-0.2c-0.147-0.112-0.298-0.234-0.457-0.358
		c-0.157-0.121-0.294-0.252-0.407-0.384c-0.112-0.14-0.178-0.255-0.198-0.341c-0.049-0.132-0.081-0.281-0.103-0.44
		c-0.022-0.159-0.069-0.291-0.136-0.405c-0.112-0.496-0.147-0.955-0.103-1.384c0.045-0.428,0.159-0.901,0.341-1.422
		c0.021-0.089,0.042-0.179,0.063-0.267c0.022-0.094,0.059-0.195,0.104-0.308c0.021-0.087,0.031-0.176,0.031-0.271
		c0-0.086,0.016-0.17,0.038-0.23c0.09-0.186,0.227-0.412,0.42-0.684c0.192-0.271,0.322-0.504,0.388-0.703
		c0.07-0.209,0.137-0.44,0.204-0.712s0.122-0.485,0.171-0.645c0.063-0.156,0.145-0.279,0.235-0.368
		c0.089-0.089,0.174-0.191,0.25-0.293c0.08-0.099,0.151-0.205,0.206-0.32c0.056-0.112,0.106-0.258,0.152-0.435
		c0.181-0.051,0.373-0.092,0.572-0.139c0.206-0.043,0.394-0.067,0.577-0.067c0.336,0,0.686,0.051,1.046,0.137
		C234.884,292.113,235.27,292.213,235.674,292.327z M240.406,309.124c-0.112,0.249-0.216,0.489-0.306,0.729
		c-0.09,0.232-0.18,0.453-0.269,0.654c-0.136,0.431-0.256,0.838-0.358,1.224c-0.098,0.377-0.227,0.73-0.385,1.044
		c0.065,0.227,0.053,0.46-0.034,0.712c-0.092,0.247-0.149,0.515-0.17,0.812c-0.043,0.107-0.051,0.22-0.019,0.334
		c0.037,0.114,0.039,0.253,0.019,0.41c-0.043,0.133-0.094,0.245-0.135,0.332c-0.045,0.095-0.09,0.227-0.137,0.411
		c0,0.114,0,0.246,0,0.402c0,0.157,0.092,0.271,0.271,0.339c0.605-1.352,1.136-2.77,1.587-4.255c0.452-1.494,0.802-3.113,1.047-4.87
		c0-0.067-0.031-0.102-0.101-0.102c-0.179,0.293-0.351,0.594-0.506,0.915C240.756,308.53,240.582,308.833,240.406,309.124z"/>
</g>
</svg>
