<?xml version="1.0" encoding="utf-8"?>
<!-- Generator: Adobe Illustrator 16.0.0, SVG Export Plug-In . SVG Version: 6.00 Build 0)  -->
<!DOCTYPE svg PUBLIC "-//W3C//DTD SVG 1.1//EN" "http://www.w3.org/Graphics/SVG/1.1/DTD/svg11.dtd">
<svg version="1.1" id="Calque_1" xmlns="http://www.w3.org/2000/svg" xmlns:xlink="http://www.w3.org/1999/xlink" x="0px" y="0px"
	 width="400px" height="330px" viewBox="0 0 400 330" enable-background="new 0 0 400 330" xml:space="preserve">
<path fill="none" stroke="#000000" stroke-width="1.851" d="M350.147,141.581"/>
<g>
	<g>
		<path d="M199.475,249.447l-0.127-2.854c2.319-0.105,11.132-0.688,11.134-0.688c35.617-0.002,64.517-29.734,64.517-66.277
			c0-18.26-5.096-29.031-12.748-39.582c-0.093-0.121-11.688-15.017-27.671-16.041l0.181-2.85c17.299,1.11,29.28,16.53,29.779,17.183
			c8.001,11.035,13.311,22.262,13.311,41.29c0,38.117-30.178,69.131-67.276,69.131C210.575,248.766,201.796,249.342,199.475,249.447
			z"/>
	</g>
	<g>
		<path d="M195.546,249.57c-0.788,0-1.425-0.637-1.425-1.426s0.638-1.426,1.425-1.426c32.922,0,59.702-27.451,59.702-61.197
			c0-16.855-4.723-26.801-11.813-36.547c-0.08-0.104-10.48-13.419-24.904-14.736c-0.786-0.072-1.365-0.768-1.295-1.553
			c0.075-0.785,0.816-1.364,1.551-1.291c15.692,1.433,26.484,15.282,26.937,15.872c7.438,10.225,12.382,20.628,12.382,38.255
			C258.104,220.84,230.042,249.57,195.546,249.57z"/>
	</g>
	<path fill="none" stroke="#000100" stroke-width="2.8551" stroke-linejoin="round" stroke-miterlimit="10" d="M201.559,131.069"/>
	<path fill="none" stroke="#000100" stroke-width="1.1226" stroke-miterlimit="10" d="M259.856,270.146"/>
	<g>
		<path d="M171.663,239.777c-3.838,0-23.552-0.523-34.853-10.848c-1.475-1.346-2.634-2.807-3.888-4.441
			c-8.307-10.789-9.47-22.6-9.486-33.756v-36.949c-0.013-0.104-0.391-5.376,3.808-8.184l6.225-4.158l-6.479-4.327
			c-3.864-2.583-3.573-7.941-3.56-8.168l-0.002-18.263c0.045-28.184,13.162-40.123,27.33-48.829
			c5.307-3.258,16.421-10.038,18.973-11.593l0.537-0.327c0.676-0.404,1.55-0.19,1.958,0.482c0.407,0.673,0.195,1.55-0.478,1.959
			l-0.526,0.32c-8.796,5.433-16.924,13.917-17.006,14.001c-4.791,6.019-7.264,13.918-7.264,23.388l0.023,19.407l-0.01,1.196v18.347
			c-0.005,0.124-0.196,4.041,2.293,5.704l7.362,4.92c0.592,0.395,0.949,1.06,0.949,1.781c0,0.712-0.352,1.375-0.939,1.775
			l-7.12,4.757c-2.786,1.862-2.546,5.662-2.545,5.701l0.005,37.057c0.033,19.611,4.289,33.486,25.956,46.387
			c0.544,0.326,0.811,0.975,0.647,1.588c-0.158,0.619-0.707,1.051-1.343,1.066L171.663,239.777z M153.097,63.771
			c-0.296,0.18-0.577,0.354-0.844,0.519c-21.512,13.216-25.94,28.106-25.969,46.396v18.351c-0.004,0.124-0.193,4.041,2.294,5.704
			l7.361,4.92c0.596,0.4,0.952,1.064,0.952,1.781c0,0.708-0.352,1.372-0.939,1.773l-7.123,4.759
			c-2.786,1.862-2.546,5.662-2.541,5.701l0.004,37.057c0.021,14.57,2.599,23.844,8.892,32.02c0.957,1.242,2.142,2.787,3.551,4.074
			c8.093,7.393,21.053,9.385,28.268,9.912c-18.882-12.824-22.856-27.279-22.887-46.004v-36.949c-0.013-0.106-0.39-5.376,3.807-8.184
			l6.224-4.158l-6.473-4.327c-3.869-2.583-3.578-7.941-3.56-8.168l-0.005-18.263l0.008-1.207l-0.021-19.387
			c0-10.135,2.681-18.635,7.97-25.267C152.149,64.736,152.507,64.361,153.097,63.771z"/>
	</g>
	<g>
		<path d="M164.478,32.409c6.837-1.371,7.936-2.472,9.307-9.308c1.373,6.836,2.474,7.938,9.311,9.308
			c-6.837,1.372-7.938,2.473-9.311,9.308C172.414,34.881,171.315,33.781,164.478,32.409z"/>
	</g>
	<g>
		<path d="M177.755,47.758c4.026-0.807,4.673-1.455,5.482-5.482c0.807,4.027,1.457,4.675,5.481,5.482
			c-4.025,0.806-4.675,1.458-5.481,5.482C182.429,49.216,181.782,48.564,177.755,47.758z"/>
	</g>
	<path d="M241.701,32.409l-24.953,15.8c0.778-0.081,1.557-0.128,2.338-0.149l23.638-14.969L241.701,32.409z"/>
	<path d="M226.369,48.686c0.525,0.104,1.048,0.213,1.56,0.342l19.825-12.55l-1.021-0.685L226.369,48.686z"/>
	<path d="M234.434,51.48l18.235-11.544c-0.312-0.248-0.64-0.482-0.959-0.723l-18.441,11.678
		C233.667,51.075,234.047,51.283,234.434,51.48z"/>
	<path d="M239.53,54.824l17.416-11.025c-0.27-0.276-0.546-0.54-0.823-0.806l-17.529,11.097
		C238.908,54.331,239.227,54.572,239.53,54.824z"/>
	<path d="M243.48,58.895l17.138-10.852c-0.225-0.297-0.459-0.594-0.699-0.888l-17.165,10.873
		C243,58.312,243.244,58.601,243.48,58.895z"/>
	<path d="M246.787,63.372l16.932-10.72c-0.19-0.322-0.378-0.646-0.575-0.965l-17.011,10.77
		C246.356,62.765,246.576,63.072,246.787,63.372z"/>
	<path d="M249.66,68.123l16.582-10.494c-0.15-0.349-0.295-0.701-0.451-1.045l-16.647,10.538
		C249.327,67.45,249.488,67.79,249.66,68.123z"/>
	<path d="M251.921,73.265l16.23-10.276c-0.106-0.375-0.204-0.754-0.322-1.126l-16.301,10.32
		C251.669,72.539,251.789,72.904,251.921,73.265z"/>
	<path d="M253.487,78.842L269.4,68.768c-0.063-0.404-0.12-0.806-0.192-1.207l-15.955,10.104
		C253.344,78.053,253.41,78.45,253.487,78.842z"/>
	<path d="M254.233,84.943l15.652-9.912c-0.002-0.436-0.027-0.869-0.042-1.302l-15.66,9.916
		C254.217,84.073,254.215,84.511,254.233,84.943z"/>
	<path d="M254.033,91.64l15.398-9.748c0.063-0.481,0.134-0.96,0.182-1.446l-15.46,9.789
		C254.122,90.706,254.078,91.174,254.033,91.64z"/>
	<path d="M252.614,99.107l15.059-9.53c0.173-0.541,0.33-1.091,0.487-1.641l-15.121,9.575
		C252.911,98.048,252.765,98.58,252.614,99.107z"/>
	<path d="M248.631,108.202l14.513-9.188c0.458-0.706,0.893-1.424,1.305-2.153l-14.647,9.274
		C249.438,106.833,249.046,107.519,248.631,108.202z"/>
	<path d="M242.446,123.931l-16.392,10.38c0.437,0.161,0.87,0.326,1.3,0.504l16.44-10.409
		C243.354,124.24,242.904,124.081,242.446,123.931z"/>
	<path d="M248.591,126.613l-16.599,10.509c0.363,0.212,0.726,0.428,1.074,0.65l16.639-10.533
		C249.339,127.024,248.969,126.818,248.591,126.613z"/>
	<path d="M237.916,141.271l16.816-10.646c-0.316-0.243-0.633-0.483-0.964-0.723l-16.779,10.625
		C237.304,140.775,237.616,141.025,237.916,141.271z"/>
	<path d="M242.138,145.169l17.001-10.763c-0.27-0.262-0.553-0.525-0.85-0.794l-16.961,10.741
		C241.614,144.636,241.887,144.909,242.138,145.169z"/>
	<path d="M245.688,149.492l17.326-10.967c-0.187-0.223-0.431-0.511-0.739-0.864l-17.236,10.913
		C245.256,148.878,245.477,149.184,245.688,149.492z"/>
	<path d="M248.706,154.152l17.493-11.073c-0.206-0.315-0.417-0.626-0.623-0.936l-17.455,11.05
		C248.316,153.514,248.516,153.832,248.706,154.152z"/>
	<path d="M251.327,159.066l17.72-11.22c-0.182-0.329-0.366-0.656-0.552-0.984l-17.66,11.18
		C251.004,158.384,251.161,158.725,251.327,159.066z"/>
	<path d="M253.476,164.275l18.013-11.403c-0.151-0.352-0.299-0.701-0.453-1.047l-17.961,11.376
		C253.206,163.562,253.349,163.911,253.476,164.275z"/>
	<path d="M255.063,169.842l18.399-11.651c-0.115-0.368-0.23-0.742-0.355-1.106l-18.314,11.603
		C254.888,169.064,254.97,169.453,255.063,169.842z"/>
	<path d="M256.1,175.756l18.84-11.929c-0.082-0.389-0.173-0.78-0.263-1.164l-18.743,11.867
		C255.999,174.934,256.049,175.342,256.1,175.756z"/>
	<path d="M256.606,182.006l19.294-12.213c-0.046-0.418-0.109-0.818-0.163-1.23l-19.194,12.154
		C256.562,181.146,256.593,181.568,256.606,182.006z"/>
	<path d="M256.593,188.584l19.771-12.52c-0.012-0.436-0.045-0.855-0.068-1.283l-19.668,12.451
		C256.613,187.686,256.613,188.139,256.593,188.584z"/>
	<path d="M255.837,195.633l20.51-12.982c0.017-0.447,0.017-0.9,0.032-1.352l-20.321,12.867
		C255.989,194.658,255.917,195.148,255.837,195.633z"/>
	<path d="M254.108,203.305l21.572-13.66c0.065-0.479,0.115-0.961,0.176-1.445l-21.304,13.488
		C254.412,202.23,254.261,202.77,254.108,203.305z"/>
	<path d="M250.9,211.904l23.216-14.703c0.139-0.523,0.274-1.051,0.398-1.582l-22.801,14.441
		C251.454,210.678,251.18,211.297,250.9,211.904z"/>
	<path d="M244.888,222.283l26.464-16.758c0.232-0.58,0.452-1.166,0.671-1.756l-25.54,16.17
		C245.969,220.734,245.435,221.516,244.888,222.283z"/>
	<path d="M223.991,240.752l-9.934,6.291c0.805-0.041,1.6-0.113,2.397-0.188l50.048-31.688c0.417-0.688,0.818-1.391,1.214-2.102
		l-36.629,23.193C228.829,237.918,226.465,239.42,223.991,240.752z"/>
	<path d="M231.812,242.807l23.652-14.979c1.103-1.086,2.184-2.199,3.215-3.365l-31.14,19.715
		C228.979,243.771,230.41,243.312,231.812,242.807z"/>
	<path d="M186.153,68.91c0.45-0.768,0.935-1.513,1.436-2.239l-19.274,12.204c-0.56,0.767-1.079,1.542-1.567,2.323L186.153,68.91z"/>
	<path d="M162.427,90.502l19.811-12.544c0.167-0.56,0.341-1.116,0.532-1.666l-19.755,12.509
		C162.809,89.365,162.611,89.929,162.427,90.502z"/>
	<path d="M160.651,98.198l20.083-12.716c0.051-0.483,0.106-0.963,0.175-1.441l-20.013,12.671
		C160.81,97.205,160.728,97.701,160.651,98.198z"/>
	<path d="M159.948,105.216l20.517-12.993v-1.328l-20.437,12.936C159.997,104.292,159.969,104.752,159.948,105.216z"/>
	<path d="M159.798,110.865v1.017l20.675-13.092v-1.329l-20.674,13.091C159.798,110.655,159.798,110.76,159.798,110.865z"/>
	<polygon points="159.798,118.454 180.481,105.355 180.479,104.028 159.798,117.122 	"/>
	<path d="M159.798,125.022l20.681-13.096v-1.062c0-0.087,0-0.177,0-0.268l-20.681,13.099V125.022z"/>
	<path d="M159.977,131.48l20.502-12.98v-1.33l-20.66,13.081C159.84,130.604,159.892,131.021,159.977,131.48z"/>
	<path d="M162.727,136.109l0.155,0.105l17.597-11.145v-1.329l-18.526,11.729C162.186,135.702,162.438,135.917,162.727,136.109z"/>
	<path d="M167.926,139.587l12.739-8.065c-0.085-0.456-0.138-0.872-0.161-1.226l-13.597,8.608L167.926,139.587z"/>
	<path d="M160.132,150.92l23.462-14.858l-0.188-0.129c-0.274-0.182-0.517-0.391-0.743-0.608l-21.815,13.812
		C160.518,149.737,160.29,150.345,160.132,150.92z"/>
	<polygon points="159.804,157.874 188.646,139.613 187.623,138.927 159.804,156.544 	"/>
	<path d="M159.804,164.445l20.992-13.292c0.151-0.569,0.375-1.175,0.696-1.77l-21.688,13.732V164.445z"/>
	<polygon points="159.804,171.016 180.486,157.921 180.486,156.591 159.804,169.686 	"/>
	<polygon points="159.804,177.586 180.486,164.49 180.486,163.162 159.804,176.258 	"/>
	<polygon points="159.804,184.158 180.486,171.064 180.486,169.734 159.804,182.83 	"/>
	<polygon points="159.804,190.73 180.486,177.637 180.486,176.307 159.804,189.4 	"/>
	<path d="M159.99,197.182l20.496-12.975v-1.332l-20.566,13.021C159.941,196.328,159.964,196.758,159.99,197.182z"/>
	<path d="M160.626,203.352l19.859-12.576v-1.328l-20.036,12.688C160.501,202.541,160.565,202.945,160.626,203.352z"/>
	<path d="M161.821,209.168l18.853-11.939c-0.028-0.428-0.052-0.852-0.071-1.285l-19.074,12.076
		C161.62,208.404,161.719,208.785,161.821,209.168z"/>
	<path d="M163.645,214.584l17.664-11.188c-0.06-0.406-0.117-0.812-0.167-1.223l-17.914,11.338
		C163.366,213.871,163.5,214.229,163.645,214.584z"/>
	<path d="M166.146,219.568l16.365-10.359c-0.103-0.379-0.202-0.76-0.297-1.145L165.58,218.6
		C165.763,218.926,165.952,219.248,166.146,219.568z"/>
	<path d="M168.994,223.807c0.09,0.119,0.186,0.234,0.277,0.354l15.075-9.545c-0.146-0.354-0.289-0.703-0.427-1.057l-15.324,9.701
		C168.732,223.439,168.857,223.625,168.994,223.807z"/>
	<path d="M172.714,228.061c0.106,0.1,0.218,0.188,0.33,0.287l13.795-8.738c-0.191-0.324-0.382-0.648-0.562-0.977l-14.081,8.916
		C172.366,227.723,172.53,227.898,172.714,228.061z"/>
	<path d="M177.923,231.824l12.053-7.631c-0.238-0.297-0.458-0.598-0.681-0.896l-12.445,7.879
		C177.204,231.395,177.561,231.615,177.923,231.824z"/>
	<path d="M183.895,234.615l9.831-6.225c-0.273-0.273-0.537-0.549-0.801-0.822l-10.323,6.535
		C183.029,234.279,183.463,234.453,183.895,234.615z"/>
	<path d="M190.952,236.717l7.07-4.477c-0.307-0.25-0.605-0.502-0.907-0.754l-7.68,4.861
		C189.944,236.482,190.45,236.602,190.952,236.717z"/>
	<path d="M149.46,71.097L129.906,83.48c-0.35,0.644-0.67,1.295-0.981,1.95L148.56,73C148.844,72.354,149.145,71.722,149.46,71.097z"
		/>
	<path d="M146.264,79.693l-19.868,12.579c-0.145,0.525-0.279,1.055-0.408,1.589l19.917-12.609
		C146.013,80.728,146.136,80.207,146.264,79.693z"/>
	<path d="M124.763,101.209l20.24-12.818c0.021-0.466,0.055-0.925,0.09-1.386l-20.165,12.766
		C124.869,100.249,124.812,100.729,124.763,101.209z"/>
	<path d="M124.334,108.049l20.635-13.064l-0.002-1.33l-20.587,13.036C124.362,107.142,124.347,107.596,124.334,108.049z"/>
	<polygon points="144.973,100.223 124.295,113.316 124.295,114.644 144.978,101.55 	"/>
	<polygon points="144.982,106.791 124.295,119.888 124.295,121.216 144.983,108.12 	"/>
	<polygon points="144.978,113.363 124.295,126.458 124.295,127.79 144.978,114.691 	"/>
	<path d="M144.978,119.937l-20.186,12.778c0.116,0.351,0.259,0.704,0.432,1.055l19.754-12.508V119.937z"/>
	<polygon points="144.978,126.504 128.482,136.949 129.503,137.634 144.978,127.834 	"/>
	<path d="M145.487,132.754l-11.958,7.57l1.022,0.683l11.373-7.202C145.749,133.458,145.604,133.106,145.487,132.754z"/>
	<path d="M149.199,136.975l-24.865,15.742c-0.07,0.751-0.032,1.249-0.032,1.249v0.101l25.917-16.41L149.199,136.975z"/>
	<polygon points="155.267,141.028 154.248,140.347 124.302,159.307 124.302,160.64 155.267,141.033 	"/>
	<path d="M144.985,153.966c0,0-0.039-0.478,0.026-1.197l-20.709,13.112v1.326l20.683-13.091V153.966z"/>
	<polygon points="144.985,159.357 124.302,172.453 124.302,173.781 144.985,160.684 	"/>
	<polygon points="144.985,165.927 124.302,179.021 124.302,180.35 144.985,167.258 	"/>
	<polygon points="144.985,172.498 124.302,185.592 124.302,186.922 144.985,173.828 	"/>
	<path d="M144.985,179.068l-20.67,13.088c0.006,0.441,0.008,0.881,0.019,1.318l20.651-13.074V179.068z"/>
	<path d="M144.985,185.641l-20.398,12.912c0.032,0.422,0.067,0.848,0.105,1.268l20.292-12.854V185.641z"/>
	<path d="M144.995,192.203l-19.664,12.453c0.068,0.396,0.146,0.793,0.223,1.188l19.464-12.326
		C145.008,193.082,145.001,192.645,144.995,192.203z"/>
	<path d="M145.27,198.602l-18.613,11.781c0.112,0.377,0.236,0.742,0.356,1.107l18.363-11.627
		C145.337,199.449,145.304,199.025,145.27,198.602z"/>
	<path d="M146.015,204.699l-17.376,11c0.155,0.348,0.312,0.689,0.476,1.031l17.128-10.844
		C146.163,205.492,146.084,205.098,146.015,204.699z"/>
	<path d="M147.356,210.422l-16.085,10.184c0.198,0.316,0.403,0.633,0.612,0.943l15.817-10.016
		C147.582,211.164,147.465,210.793,147.356,210.422z"/>
	<path d="M149.328,215.744l-14.804,9.375c0.236,0.295,0.469,0.584,0.715,0.875l14.572-9.225
		C149.644,216.43,149.486,216.09,149.328,215.744z"/>
	<path d="M151.972,220.641l-13.463,8.525c0.31,0.25,0.629,0.492,0.949,0.73l13.123-8.311
		C152.373,221.273,152.171,220.957,151.972,220.641z"/>
	<path d="M155.249,225.139l-11.619,7.355c0.388,0.205,0.776,0.402,1.172,0.59L155.986,226
		C155.735,225.713,155.489,225.428,155.249,225.139z"/>
	<path d="M159.12,229.256l-9.278,5.875c0.463,0.156,0.927,0.309,1.387,0.453l8.745-5.537
		C159.687,229.783,159.398,229.521,159.12,229.256z"/>
	<path d="M163.534,233.035l-6.392,4.049c0.545,0.107,1.083,0.211,1.614,0.307l5.729-3.629
		C164.165,233.52,163.847,233.279,163.534,233.035z"/>
	<g>
		<path d="M81.954,266.957c0-0.27,0.214-0.512,0.514-0.512h10.775c0.296,0,0.513,0.242,0.513,0.512v1.508
			c0,0.27-0.217,0.514-0.513,0.514h-8.515v5.494h7.196c0.267,0,0.513,0.244,0.513,0.514v1.508c0,0.297-0.246,0.512-0.513,0.512
			h-7.196v5.795h8.515c0.296,0,0.513,0.242,0.513,0.512v1.48c0,0.27-0.217,0.512-0.513,0.512H82.467
			c-0.299,0-0.514-0.242-0.514-0.512V266.957z"/>
		<path d="M98.251,266.957c0-0.27,0.245-0.512,0.514-0.512h1.803c0.295,0,0.515,0.242,0.515,0.512v11.127
			c0,2.695,1.725,4.797,4.472,4.797c2.773,0,4.527-2.074,4.527-4.742v-11.182c0-0.27,0.214-0.512,0.511-0.512h1.806
			c0.269,0,0.509,0.242,0.509,0.512v11.316c0,4.096-3.096,7.305-7.354,7.305c-4.232,0-7.304-3.209-7.304-7.305V266.957z"/>
		<path d="M126.893,266.174c2.586,0,4.714,0.945,6.546,2.508c0.217,0.215,0.244,0.539,0.028,0.752
			c-0.406,0.432-0.809,0.838-1.212,1.27c-0.216,0.242-0.43,0.213-0.699-0.027c-1.268-1.105-2.938-1.832-4.581-1.832
			c-3.826,0-6.765,3.23-6.765,7.004c0,3.748,2.938,6.982,6.765,6.982c2.235,0,3.77-0.811,4.041-0.918v-3.018h-2.641
			c-0.298,0-0.512-0.217-0.512-0.486v-1.562c0-0.297,0.214-0.514,0.512-0.514h4.906c0.268,0,0.484,0.244,0.484,0.514
			c0,2.154,0.026,4.365,0.026,6.523c0,0.133-0.107,0.35-0.216,0.428c0,0-2.773,1.781-6.681,1.781c-5.362,0-9.7-4.287-9.7-9.674
			C117.192,270.512,121.531,266.174,126.893,266.174z"/>
		<path d="M138.693,266.957c0-0.27,0.214-0.512,0.511-0.512h10.779c0.296,0,0.511,0.242,0.511,0.512v1.508
			c0,0.27-0.215,0.514-0.511,0.514h-8.515v5.494h7.195c0.268,0,0.51,0.244,0.51,0.514v1.508c0,0.297-0.243,0.512-0.51,0.512h-7.195
			v5.795h8.515c0.296,0,0.511,0.242,0.511,0.512v1.48c0,0.27-0.215,0.512-0.511,0.512h-10.779c-0.297,0-0.511-0.242-0.511-0.512
			V266.957z M142.033,264.316l-0.376-0.758c-0.109-0.213,0.026-0.428,0.159-0.508l4.234-2.453c0.159-0.105,0.564-0.162,0.699,0.08
			l0.619,1.188c0.162,0.268,0.054,0.535-0.162,0.645l-4.528,1.941C142.331,264.613,142.142,264.559,142.033,264.316z"/>
		<path d="M155.233,266.66c0-0.268,0.243-0.486,0.513-0.486h0.674l11.692,13.529h0.028v-12.746c0-0.27,0.214-0.512,0.51-0.512h1.725
			c0.271,0,0.512,0.242,0.512,0.512v18.135c0,0.27-0.242,0.486-0.512,0.486h-0.699l-11.693-13.906h-0.028v13.121
			c0,0.27-0.215,0.512-0.512,0.512h-1.697c-0.27,0-0.513-0.242-0.513-0.512V266.66z"/>
		<path d="M176.788,266.957c0-0.27,0.241-0.512,0.511-0.512h1.78c0.269,0,0.509,0.242,0.509,0.512v17.836
			c0,0.27-0.241,0.512-0.509,0.512h-1.78c-0.271,0-0.511-0.242-0.511-0.512V266.957z"/>
		<path d="M185.489,266.957c0-0.27,0.214-0.512,0.513-0.512h10.775c0.295,0,0.511,0.242,0.511,0.512v1.508
			c0,0.27-0.216,0.514-0.511,0.514h-8.516v5.494h7.195c0.27,0,0.513,0.244,0.513,0.514v1.508c0,0.297-0.244,0.512-0.513,0.512
			h-7.195v5.795h8.516c0.295,0,0.511,0.242,0.511,0.512v1.48c0,0.27-0.216,0.512-0.511,0.512h-10.775
			c-0.299,0-0.513-0.242-0.513-0.512V266.957z"/>
		<path d="M208.632,266.957c0-0.27,0.213-0.512,0.511-0.512h6.036c3.26,0,5.604,2.156,5.604,4.984c0,2.076-1.536,3.557-2.802,4.281
			c1.431,0.596,3.367,1.916,3.367,4.393c0,3.018-2.479,5.201-5.875,5.201h-6.331c-0.298,0-0.511-0.242-0.511-0.512V266.957z
			 M215.448,282.83c1.645,0,2.91-1.268,2.91-2.939c0-1.643-1.564-2.828-3.315-2.828h-3.691v5.768H215.448z M215.017,274.635
			c1.727,0,2.776-1.264,2.776-2.883c0-1.643-1.05-2.773-2.776-2.773h-3.64v5.656H215.017z"/>
		<path d="M223.529,284.604l8.271-18.131c0.083-0.162,0.324-0.299,0.458-0.299h0.27c0.136,0,0.378,0.137,0.46,0.299l8.219,18.131
			c0.159,0.352-0.057,0.701-0.46,0.701h-1.696c-0.327,0-0.512-0.16-0.62-0.402l-1.672-3.691h-8.808
			c-0.54,1.238-1.106,2.451-1.646,3.691c-0.079,0.189-0.296,0.402-0.616,0.402h-1.703
			C223.581,285.305,223.368,284.955,223.529,284.604z M235.733,278.895l-3.314-7.383h-0.134L229,278.895H235.733z"/>
		<path d="M244.571,266.957c0-0.27,0.214-0.512,0.512-0.512h7.327c3.234,0,5.872,2.559,5.872,5.766c0,2.479-1.642,4.527-3.985,5.469
			l3.692,6.844c0.188,0.354,0,0.781-0.459,0.781h-2.102c-0.216,0-0.377-0.133-0.432-0.242l-3.583-7.141h-4.068v6.871
			c0,0.27-0.244,0.512-0.511,0.512h-1.752c-0.298,0-0.512-0.242-0.512-0.512V266.957z M252.195,275.605
			c1.752,0,3.285-1.482,3.285-3.342c0-1.752-1.533-3.207-3.285-3.207h-4.796v6.549H252.195z"/>
		<path d="M263.161,266.957c0-0.27,0.215-0.512,0.513-0.512h7.329c3.23,0,5.874,2.559,5.874,5.766c0,2.479-1.644,4.527-3.987,5.469
			l3.691,6.844c0.186,0.354,0,0.781-0.459,0.781h-2.102c-0.216,0-0.378-0.133-0.433-0.242l-3.582-7.141h-4.069v6.871
			c0,0.27-0.243,0.512-0.511,0.512h-1.752c-0.298,0-0.513-0.242-0.513-0.512V266.957z M270.786,275.605
			c1.752,0,3.288-1.482,3.288-3.342c0-1.752-1.536-3.207-3.288-3.207h-4.795v6.549H270.786z"/>
		<path d="M290.049,266.174c5.388,0,9.701,4.338,9.701,9.73c0,5.387-4.313,9.674-9.701,9.674c-5.389,0-9.674-4.287-9.674-9.674
			C280.375,270.512,284.66,266.174,290.049,266.174z M290.049,282.881c3.854,0,7.007-3.127,7.007-6.977
			c0-3.83-3.152-7.033-7.007-7.033c-3.827,0-6.979,3.203-6.979,7.033C283.069,279.754,286.222,282.881,290.049,282.881z"/>
		<path d="M304.273,266.66c0-0.268,0.241-0.486,0.513-0.486h0.674l11.693,13.529h0.027v-12.746c0-0.27,0.216-0.512,0.514-0.512
			h1.724c0.268,0,0.511,0.242,0.511,0.512v18.135c0,0.27-0.243,0.486-0.511,0.486h-0.701l-11.695-13.906h-0.025v13.121
			c0,0.27-0.218,0.512-0.514,0.512h-1.696c-0.271,0-0.513-0.242-0.513-0.512V266.66z"/>
	</g>
	<g>
		<rect x="173.236" y="15.967" width="1.099" height="4.12"/>
	</g>
	<g>
		<rect x="185.29" y="31.854" width="4.12" height="1.099"/>
	</g>
	<path fill="none" stroke="#D64C4C" stroke-width="0.8419" stroke-miterlimit="10" d="M211.054,84.498"/>
	<path fill="#000100" d="M212.245,82.349"/>
	<path fill="none" d="M215.029,83.794c-1.663,1.199-2.716,1.731-3.328,1.89v49.63l3.328-2.093V83.794z"/>
	<path d="M252.075,37.206l-12.749-8.543c-0.472-0.315-1.084-0.32-1.56-0.015l-52.721,33.754c-0.004,0.005-0.009,0.012-0.015,0.018
		c-22.127,13.426-26.631,28.504-26.662,48.418l0.002,18.259c-0.013,0.228-0.305,5.589,3.562,8.171l6.473,4.328l-6.224,4.158
		c-3.991,2.667-3.848,7.561-3.807,8.23v36.901c0.016,11.158,1.179,22.969,9.485,33.762c1.021,1.33,2.296,2.984,3.887,4.439
		c11.273,10.289,30.709,10.84,34.713,10.84c0.385,0,0.624-0.004,0.707-0.004c0.637-0.02,1.184-0.447,1.348-1.068
		c0.16-0.609-0.105-1.26-0.649-1.586c-21.665-12.898-25.923-26.771-25.958-46.383v-36.949c0-0.039,0-0.077-0.002-0.115
		s-0.275-3.81,2.543-5.693l7.106-4.753c0.597-0.396,0.957-1.063,0.957-1.784c0-0.716-0.36-1.385-0.952-1.778l-7.361-4.92
		c-2.491-1.663-2.299-5.582-2.294-5.707v-18.347l0.004-1.192l-0.019-19.411c0-14,6.699-26.54,17.516-32.751l8.203-5.077
		c3.841-1.873,8.563-2.948,12.979-2.948h0.002c7.253,0,14.024,2.398,19.002,6.698l0.282,0.27c1.689,1.57,3.17,3.242,4.396,4.971
		c0.201,0.286,0.482,0.672,0.798,1.102c0.743,1.022,1.666,2.298,2.136,3.027c4.142,6.496,6.329,13.767,6.329,21.026
		c0,12.412-4.473,22.507-13.254,29.977c-0.05,0.039-4.925,3.92-9.889,7.047l-12.721,7.987v3.371l14.134-8.875l0,0
		c0.026-0.013,0.052-0.031,0.072-0.046l13.067-8.199c3.302-2.076,10.325-7.466,10.64-7.706
		c10.576-8.369,16.398-20.736,16.398-34.825C271.982,60.3,264.567,46.082,252.075,37.206z M179.036,90.238l0.021,19.396
		l-0.009,1.203l0.005,18.259c-0.013,0.228-0.305,5.589,3.56,8.171l6.473,4.328l-6.221,4.158c-3.994,2.67-3.847,7.565-3.809,8.23
		v36.901c0.03,18.719,4,33.168,22.861,45.986c-7.19-0.547-20.214-2.562-28.244-9.893c-1.407-1.285-2.595-2.832-3.547-4.074
		c-6.298-8.174-8.873-17.455-8.897-32.02l-0.003-37.056c0-0.041-0.245-3.839,2.543-5.701l7.107-4.754
		c0.597-0.395,0.952-1.062,0.952-1.783c0-0.716-0.355-1.381-0.949-1.778l-7.362-4.92c-2.489-1.663-2.299-5.582-2.294-5.707v-18.349
		c0.032-19.61,4.288-33.487,25.954-46.385l-0.011-0.016l0.446-0.284C182.172,71.2,179.036,80.383,179.036,90.238z M253.825,107.858
		c-0.04,0.031-2.521,1.935-5.204,3.904c5.152-6.992,7.767-15.43,7.767-25.207c0-7.804-2.345-15.605-6.777-22.563
		c-0.515-0.803-1.467-2.115-2.234-3.168c-0.303-0.42-0.577-0.797-0.773-1.078c-1.345-1.886-2.95-3.706-4.766-5.392l-0.318-0.303
		c-5.556-4.802-12.987-7.444-20.925-7.444c-0.003,0-0.005,0-0.005,0c-2.223,0-4.474,0.247-6.667,0.699l24.598-15.749l11.701,7.858
		l0.274,0.166c11.666,8.297,18.636,21.644,18.636,35.706C269.131,88.482,263.688,100.056,253.825,107.858z"/>
	<path d="M208.831,137.114c-0.669,0.419-0.87,1.302-0.448,1.967c0.27,0.434,0.734,0.669,1.21,0.669c0.258,0,0.523-0.07,0.755-0.218
		l0.507-0.317v-3.373L208.831,137.114z"/>
	<path d="M210.854,84.981v50.861v3.373v106.32h0.847l0,0l0.905-0.062V85.312c0.603-0.3,1.381-0.767,2.423-1.518v49.427v3.373
		v109.039h2.642V134.937v-3.371V80.249C213.523,84.501,210.854,84.981,210.854,84.981z"/>
	<g>
		<rect x="157.766" y="31.854" width="4.12" height="1.099"/>
	</g>
	<g>
		<path d="M43.475,296.092c3.511,0,6.267,2.986,6.267,6.322c0,3.213-2.476,6.463-6.32,6.463c-3.511,0-6.269-2.984-6.269-6.322
			C37.153,299.34,39.627,296.092,43.475,296.092z M43.632,308.314c2.563,0,4.18-2.213,4.18-5.391c0-2.67-1.546-6.271-4.549-6.271
			c-2.563,0-4.18,2.215-4.18,5.395C39.083,304.713,40.629,308.314,43.632,308.314z"/>
		<path d="M51.192,308.156h0.472c0.494,0,0.845,0,0.845-0.58v-4.934c0-0.545-0.652-0.65-0.914-0.791v-0.264
			c1.283-0.543,1.984-1,2.141-1c0.107,0,0.159,0.055,0.159,0.23v1.58h0.037c0.439-0.688,1.177-1.811,2.247-1.811
			c0.44,0,1.002,0.301,1.002,0.93c0,0.475-0.334,0.896-0.828,0.896c-0.542,0-0.542-0.422-1.158-0.422
			c-0.298,0-1.283,0.406-1.283,1.459v4.125c0,0.58,0.352,0.58,0.845,0.58h0.983v0.455c-0.965-0.016-1.703-0.031-2.458-0.031
			c-0.721,0-1.458,0.016-2.089,0.031V308.156z"/>
		<path d="M65.944,301.887l-1.738-0.07c0.297,0.367,0.457,0.863,0.457,1.336c0,1.281-1.07,2.705-3.25,2.705
			c-0.262,0-0.613-0.039-0.965-0.109c-0.334,0.248-0.527,0.475-0.527,0.9c0,0.262,0.07,0.805,1.23,0.805
			c0.858,0,1.72,0.02,2.421,0.02c1.512,0,2.407,0.455,2.407,1.773c0,0.686-0.914,3.371-4.655,3.371c-2.228,0-3.317-1.02-3.317-1.967
			c0-1.123,0.982-1.811,2.055-2.02v-0.035c-0.737-0.211-1.546-0.719-1.546-1.525c0-0.197,0-0.391,0.071-0.562
			c0.491-0.301,1.211-0.65,1.459-0.881c-0.984-0.508-1.652-1.176-1.652-2.336c0-1.525,1.124-2.703,3.283-2.703
			c0.527,0,1.125,0.125,1.547,0.246c0.491,0.139,0.983,0.299,1.704,0.299c0.315,0,0.561-0.018,1.017-0.088V301.887z M62.204,308.611
			c-1.142,0-2.913,0-2.913,1.652c0,1.211,1.087,1.791,2.316,1.791c1.073,0,3.073-0.457,3.073-2.02
			C64.68,308.756,63.133,308.611,62.204,308.611z M61.449,301.045c-1.071,0-1.545,1.072-1.545,2.004
			c0,1.014,0.439,2.352,1.651,2.352c1.192,0,1.704-0.986,1.704-2.055C63.259,302.273,62.68,301.045,61.449,301.045z"/>
		<path d="M74.553,307.928c-0.489,0.457-1.035,0.949-1.738,0.949c-0.72,0-1.053-0.668-1.089-1.301
			c-0.823,0.754-1.614,1.301-2.703,1.301c-1.123,0-1.896-0.773-1.896-1.703c0.069-1.406,0.789-1.668,4.581-2.967v-1.158
			c0-0.986-0.578-1.514-1.702-1.514c-0.772,0-1.3,0.441-1.335,1.23c0,0.49-0.562,0.736-0.981,0.736c-0.266,0-0.318-0.227-0.318-0.35
			c0-0.93,0.789-1.371,2.021-2.004c0.613-0.314,0.913-0.561,1.578-0.561c0.792,0,2.145,0.512,2.145,1.475v4.863
			c0,0.723,0.245,1.002,0.63,1.002c0.228,0,0.494-0.104,0.65-0.297L74.553,307.928z M71.708,304.713
			c-0.894,0.352-3.178,0.754-3.178,2.072c0,0.688,0.562,1.268,1.248,1.268c0.824,0,1.352-0.51,1.93-1.021V304.713z"/>
		<path d="M76.806,302.924c0-0.65-0.192-0.826-1.018-1.158v-0.336c0.755-0.244,1.475-0.475,2.318-0.842
			c0.054,0,0.105,0.035,0.105,0.176v1.139c0.999-0.717,1.861-1.314,3.037-1.314c1.493,0,2.02,1.088,2.02,2.461v4.527
			c0,0.58,0.386,0.58,0.879,0.58h0.313v0.455c-0.613,0-1.228-0.031-1.859-0.031c-0.633,0-1.263,0.016-1.898,0.031v-0.455h0.317
			c0.492,0,0.843,0,0.843-0.58v-4.547c0-1.002-0.615-1.494-1.615-1.494c-0.562,0-1.459,0.457-2.037,0.844v5.197
			c0,0.58,0.386,0.58,0.879,0.58h0.313v0.455c-0.614,0-1.228-0.031-1.86-0.031c-0.633,0-1.264,0.016-1.898,0.031v-0.455h0.318
			c0.49,0,0.842,0,0.842-0.58V302.924z"/>
		<path d="M85.504,308.156h0.334c0.492,0,0.841,0,0.841-0.58v-4.758c0-0.771-0.262-0.877-0.911-1.23v-0.281
			c0.825-0.244,1.808-0.578,1.878-0.633c0.122-0.07,0.23-0.086,0.315-0.086c0.088,0,0.124,0.105,0.124,0.246v6.742
			c0,0.58,0.386,0.58,0.877,0.58h0.298v0.455c-0.596,0-1.211-0.031-1.844-0.031c-0.63,0-1.263,0.016-1.913,0.031V308.156z
			 M87.382,297.883c-0.457,0-0.86-0.422-0.86-0.879c0-0.438,0.422-0.842,0.86-0.842c0.457,0,0.861,0.369,0.861,0.842
			C88.243,297.48,87.855,297.883,87.382,297.883z"/>
		<path d="M90.881,306.172c0.227,1.158,0.929,2.143,2.21,2.143c1.039,0,1.425-0.633,1.425-1.244c0-2.076-3.831-1.408-3.831-4.236
			c0-0.982,0.792-2.246,2.724-2.246c0.562,0,1.317,0.16,2.002,0.512l0.122,1.789h-0.403c-0.176-1.107-0.79-1.74-1.913-1.74
			c-0.704,0-1.371,0.406-1.371,1.16c0,2.055,4.073,1.424,4.073,4.18c0,1.16-0.932,2.389-3.02,2.389
			c-0.701,0-1.528-0.246-2.141-0.598l-0.192-2.02L90.881,306.172z"/>
		<path d="M104.826,307.928c-0.491,0.457-1.037,0.949-1.74,0.949c-0.718,0-1.051-0.668-1.087-1.301
			c-0.826,0.754-1.615,1.301-2.705,1.301c-1.123,0-1.896-0.773-1.896-1.703c0.069-1.406,0.79-1.668,4.583-2.967v-1.158
			c0-0.986-0.58-1.514-1.705-1.514c-0.771,0-1.297,0.441-1.334,1.23c0,0.49-0.562,0.736-0.981,0.736
			c-0.264,0-0.318-0.227-0.318-0.35c0-0.93,0.792-1.371,2.021-2.004c0.613-0.314,0.914-0.561,1.581-0.561
			c0.792,0,2.143,0.512,2.143,1.475v4.863c0,0.723,0.245,1.002,0.63,1.002c0.23,0,0.494-0.104,0.652-0.297L104.826,307.928z
			 M101.981,304.713c-0.896,0.352-3.177,0.754-3.177,2.072c0,0.688,0.562,1.268,1.245,1.268c0.827,0,1.352-0.51,1.932-1.021V304.713
			z"/>
		<path d="M108.343,306.453c0,1.158,0.632,1.475,1.107,1.475c0.474,0,0.825-0.156,1.229-0.508l0.262,0.262
			c-0.613,0.633-1.386,1.195-2.333,1.195c-1.125,0-1.668-0.598-1.668-1.635v-5.441h-1.159v-0.283
			c0.913-0.699,1.456-1.035,2.351-2.457h0.212v1.791h2.616v0.949h-2.616V306.453z"/>
		<path d="M111.717,308.156h0.476c0.492,0,0.841,0,0.841-0.58v-4.934c0-0.545-0.647-0.65-0.911-0.791v-0.264
			c1.281-0.543,1.984-1,2.142-1c0.106,0,0.159,0.055,0.159,0.23v1.58h0.035c0.438-0.688,1.175-1.811,2.248-1.811
			c0.437,0,0.999,0.301,0.999,0.93c0,0.475-0.332,0.896-0.823,0.896c-0.545,0-0.545-0.422-1.161-0.422
			c-0.298,0-1.28,0.406-1.28,1.459v4.125c0,0.58,0.352,0.58,0.841,0.58h0.985v0.455c-0.965-0.016-1.704-0.031-2.458-0.031
			c-0.721,0-1.459,0.016-2.092,0.031V308.156z"/>
		<path d="M118.693,308.156h0.333c0.493,0,0.845,0,0.845-0.58v-4.758c0-0.771-0.263-0.877-0.914-1.23v-0.281
			c0.824-0.244,1.808-0.578,1.879-0.633c0.122-0.07,0.227-0.086,0.315-0.086s0.122,0.105,0.122,0.246v6.742
			c0,0.58,0.386,0.58,0.879,0.58h0.298v0.455c-0.596,0-1.211-0.031-1.842-0.031c-0.636,0-1.265,0.016-1.916,0.031V308.156z
			 M120.573,297.883c-0.457,0-0.861-0.422-0.861-0.879c0-0.438,0.421-0.842,0.861-0.842c0.456,0,0.859,0.369,0.859,0.842
			C121.432,297.48,121.046,297.883,120.573,297.883z"/>
		<path d="M130.371,307.049c-0.857,1.004-2.036,1.828-3.422,1.828c-1.828,0-3.497-1.775-3.497-3.637
			c0-2.545,1.828-4.652,4.356-4.652c0.897,0,2.371,0.281,2.371,1.213c0,0.402-0.245,0.773-0.665,0.773
			c-0.739,0-0.704-1.426-2.355-1.426c-1.51,0-2.299,1.686-2.299,3.021c0,1.809,1.158,3.406,3.072,3.406
			c0.896,0,1.475-0.314,2.144-0.826L130.371,307.049z"/>
		<path d="M132.817,303.766c-0.035,0.16-0.035,0.422,0,1.02c0.106,1.668,1.177,3.039,2.582,3.039c0.965,0,1.72-0.527,2.37-1.176
			l0.246,0.244c-0.808,1.07-1.81,1.984-3.249,1.984c-2.791,0-3.352-2.705-3.352-3.828c0-3.443,2.316-4.461,3.545-4.461
			c1.422,0,2.952,0.896,2.968,2.758c0,0.105,0,0.211-0.016,0.314l-0.16,0.105H132.817z M135.927,303.205
			c0.438,0,0.491-0.229,0.491-0.439c0-0.895-0.545-1.617-1.53-1.617c-1.069,0-1.808,0.793-2.018,2.057H135.927z"/>
		<path d="M151.633,307.102c0,0.723,0.173,0.723,0.859,0.723h0.299v0.35h-0.018c-0.264,0.055-0.737,0.193-1.247,0.352
			c-0.544,0.176-1.001,0.352-1.107,0.352c-0.176,0-0.192-0.266-0.192-0.473v-0.811h-0.034c-0.636,0.65-1.618,1.283-2.688,1.283
			c-2.108,0-3.267-1.846-3.267-3.812c0-2.369,1.912-4.477,4.336-4.477c0.563,0,1.141,0.105,1.652,0.316v-3.109
			c0-1.143-0.264-1.174-0.931-1.367v-0.281c0.704-0.23,1.439-0.547,1.808-0.756c0.194-0.105,0.334-0.193,0.389-0.193
			c0.103,0,0.14,0.104,0.14,0.244V307.102z M150.228,302.766c0-1.299-1.089-1.617-1.862-1.617c-1.249,0-2.617,0.932-2.617,3.303
			c0,1.932,1.176,3.373,2.775,3.373c0.526,0,1.704-0.389,1.704-1.039V302.766z"/>
		<path d="M155.272,303.766c-0.034,0.16-0.034,0.422,0,1.02c0.105,1.668,1.174,3.039,2.582,3.039c0.965,0,1.72-0.527,2.371-1.176
			l0.246,0.244c-0.81,1.07-1.811,1.984-3.251,1.984c-2.791,0-3.353-2.705-3.353-3.828c0-3.443,2.318-4.461,3.547-4.461
			c1.422,0,2.95,0.896,2.966,2.758c0,0.105,0,0.211-0.016,0.314l-0.16,0.105H155.272z M158.38,303.205
			c0.439,0,0.49-0.229,0.49-0.439c0-0.895-0.544-1.617-1.527-1.617c-1.073,0-1.811,0.793-2.02,2.057H158.38z"/>
		<path d="M174.806,306.207c1.578-3.283,3.282-6.516,4.741-9.852c0.474,0.018,0.965,0.037,1.44,0.037
			c0.508,0,1.034-0.037,1.544-0.037v0.457c-0.596,0-0.999,0.035-1.229,0.211s-0.333,0.475-0.333,1.055
			c0,2.773,0.157,5.725,0.227,8.375c0.035,1.318,0.16,1.703,1.914,1.703v0.455c-0.965,0-1.93-0.031-2.898-0.031
			c-0.86,0-1.703,0.016-2.563,0.031v-0.455c0.613,0,1.053,0,1.352-0.158c0.317-0.174,0.457-0.508,0.457-1.193l-0.123-8.377h-0.034
			l-4.146,8.604c-0.192,0.422-0.542,1.283-0.684,1.74h-0.352c-1.493-3.355-3.179-6.639-4.848-9.959h-0.034l-0.142,6.357
			c0,0.23-0.018,0.861-0.018,1.107c0,0.861,0.09,1.334,0.37,1.58c0.282,0.246,0.719,0.299,1.423,0.299v0.455
			c-0.72,0-1.458-0.031-2.178-0.031c-0.771,0-1.562,0.016-2.333,0.031v-0.455c1.244,0,2.018-0.299,2.09-2.65
			c0.068-2.406,0.192-4.793,0.192-7.199c0-0.617-0.088-1.002-0.334-1.213c-0.245-0.211-0.63-0.281-1.212-0.281v-0.457
			c0.616,0.018,1.246,0.037,1.862,0.037c0.369,0,0.755-0.037,1.124-0.037L174.806,306.207z"/>
		<path d="M191.689,307.928c-0.491,0.457-1.036,0.949-1.737,0.949c-0.721,0-1.055-0.668-1.089-1.301
			c-0.828,0.754-1.616,1.301-2.705,1.301c-1.123,0-1.896-0.773-1.896-1.703c0.07-1.406,0.792-1.668,4.583-2.967v-1.158
			c0-0.986-0.58-1.514-1.702-1.514c-0.772,0-1.301,0.441-1.334,1.23c0,0.49-0.562,0.736-0.985,0.736
			c-0.264,0-0.316-0.227-0.316-0.35c0-0.93,0.791-1.371,2.019-2.004c0.616-0.314,0.914-0.561,1.582-0.561
			c0.789,0,2.142,0.512,2.142,1.475v4.863c0,0.723,0.246,1.002,0.633,1.002c0.228,0,0.491-0.104,0.647-0.297L191.689,307.928z
			 M188.846,304.713c-0.896,0.352-3.178,0.754-3.178,2.072c0,0.688,0.562,1.268,1.247,1.268c0.825,0,1.352-0.51,1.932-1.021V304.713
			z"/>
		<path d="M192.732,308.156h0.472c0.494,0,0.846,0,0.846-0.58v-4.934c0-0.545-0.654-0.65-0.916-0.791v-0.264
			c1.284-0.543,1.984-1,2.142-1c0.105,0,0.156,0.055,0.156,0.23v1.58h0.038c0.439-0.688,1.177-1.811,2.247-1.811
			c0.441,0,1.004,0.301,1.004,0.93c0,0.475-0.336,0.896-0.83,0.896c-0.543,0-0.543-0.422-1.157-0.422
			c-0.3,0-1.283,0.406-1.283,1.459v4.125c0,0.58,0.352,0.58,0.844,0.58h0.982v0.455c-0.965-0.016-1.702-0.031-2.457-0.031
			c-0.722,0-1.459,0.016-2.089,0.031V308.156z"/>
		<path d="M199.706,308.156h0.333c0.49,0,0.842,0,0.842-0.58v-4.758c0-0.771-0.262-0.877-0.912-1.23v-0.281
			c0.825-0.244,1.811-0.578,1.879-0.633c0.124-0.07,0.229-0.086,0.316-0.086c0.086,0,0.122,0.105,0.122,0.246v6.742
			c0,0.58,0.387,0.58,0.879,0.58h0.3v0.455c-0.601,0-1.215-0.031-1.846-0.031c-0.633,0-1.266,0.016-1.913,0.031V308.156z
			 M201.585,297.883c-0.458,0-0.861-0.422-0.861-0.879c0-0.438,0.422-0.842,0.861-0.842c0.454,0,0.86,0.369,0.86,0.842
			C202.445,297.48,202.059,297.883,201.585,297.883z"/>
		<path d="M212.193,307.928c-0.49,0.457-1.036,0.949-1.737,0.949c-0.721,0-1.056-0.668-1.088-1.301
			c-0.828,0.754-1.616,1.301-2.707,1.301c-1.122,0-1.895-0.773-1.895-1.703c0.07-1.406,0.791-1.668,4.582-2.967v-1.158
			c0-0.986-0.579-1.514-1.701-1.514c-0.772,0-1.301,0.441-1.335,1.23c0,0.49-0.561,0.736-0.984,0.736
			c-0.263,0-0.315-0.227-0.315-0.35c0-0.93,0.788-1.371,2.02-2.004c0.615-0.314,0.912-0.561,1.581-0.561
			c0.787,0,2.141,0.512,2.141,1.475v4.863c0,0.723,0.246,1.002,0.633,1.002c0.228,0,0.493-0.104,0.647-0.297L212.193,307.928z
			 M209.349,304.713c-0.896,0.352-3.177,0.754-3.177,2.072c0,0.688,0.56,1.268,1.245,1.268c0.825,0,1.353-0.51,1.932-1.021V304.713z
			"/>
		<path d="M221.153,301.887l-1.737-0.07c0.298,0.367,0.455,0.863,0.455,1.336c0,1.281-1.069,2.705-3.245,2.705
			c-0.266,0-0.617-0.039-0.967-0.109c-0.335,0.248-0.527,0.475-0.527,0.9c0,0.262,0.068,0.805,1.229,0.805
			c0.861,0,1.721,0.02,2.423,0.02c1.511,0,2.406,0.455,2.406,1.773c0,0.686-0.915,3.371-4.652,3.371c-2.23,0-3.319-1.02-3.319-1.967
			c0-1.123,0.982-1.811,2.053-2.02v-0.035c-0.734-0.211-1.543-0.719-1.543-1.525c0-0.197,0-0.391,0.07-0.562
			c0.492-0.301,1.209-0.65,1.456-0.881c-0.985-0.508-1.648-1.176-1.648-2.336c0-1.525,1.123-2.703,3.28-2.703
			c0.528,0,1.123,0.125,1.549,0.246c0.489,0.139,0.981,0.299,1.701,0.299c0.314,0,0.562-0.018,1.018-0.088V301.887z
			 M217.414,308.611c-1.14,0-2.915,0-2.915,1.652c0,1.211,1.088,1.791,2.319,1.791c1.069,0,3.071-0.457,3.071-2.02
			C219.89,308.756,218.345,308.611,217.414,308.611z M216.659,301.045c-1.072,0-1.544,1.072-1.544,2.004
			c0,1.014,0.437,2.352,1.648,2.352c1.194,0,1.705-0.986,1.705-2.055C218.469,302.273,217.888,301.045,216.659,301.045z"/>
		<path d="M223.6,303.766c-0.035,0.16-0.035,0.422,0,1.02c0.105,1.668,1.177,3.039,2.582,3.039c0.964,0,1.719-0.527,2.371-1.176
			l0.246,0.244c-0.81,1.07-1.811,1.984-3.25,1.984c-2.791,0-3.351-2.705-3.351-3.828c0-3.443,2.314-4.461,3.543-4.461
			c1.423,0,2.952,0.896,2.969,2.758c0,0.105,0,0.211-0.017,0.314l-0.16,0.105H223.6z M226.71,303.205
			c0.436,0,0.489-0.229,0.489-0.439c0-0.895-0.544-1.617-1.528-1.617c-1.069,0-1.809,0.793-2.018,2.057H226.71z"/>
		<path d="M230.452,306.172c0.229,1.158,0.931,2.143,2.214,2.143c1.033,0,1.421-0.633,1.421-1.244c0-2.076-3.827-1.408-3.827-4.236
			c0-0.982,0.79-2.246,2.721-2.246c0.562,0,1.317,0.16,2.002,0.512l0.125,1.789h-0.406c-0.174-1.107-0.79-1.74-1.913-1.74
			c-0.703,0-1.37,0.406-1.37,1.16c0,2.055,4.073,1.424,4.073,4.18c0,1.16-0.931,2.389-3.021,2.389c-0.701,0-1.528-0.246-2.141-0.598
			l-0.194-2.02L230.452,306.172z"/>
		<path d="M243.12,303.766c-0.035,0.16-0.035,0.422,0,1.02c0.104,1.668,1.177,3.039,2.582,3.039c0.963,0,1.721-0.527,2.368-1.176
			l0.246,0.244c-0.807,1.07-1.808,1.984-3.247,1.984c-2.794,0-3.356-2.705-3.356-3.828c0-3.443,2.319-4.461,3.548-4.461
			c1.423,0,2.953,0.896,2.969,2.758c0,0.105,0,0.211-0.016,0.314l-0.16,0.105H243.12z M246.228,303.205
			c0.438,0,0.492-0.229,0.492-0.439c0-0.895-0.544-1.617-1.527-1.617c-1.071,0-1.81,0.793-2.021,2.057H246.228z"/>
		<path d="M251.815,306.453c0,1.158,0.631,1.475,1.106,1.475c0.475,0,0.823-0.156,1.229-0.508l0.265,0.262
			c-0.616,0.633-1.389,1.195-2.336,1.195c-1.125,0-1.67-0.598-1.67-1.635v-5.441h-1.16v-0.283c0.914-0.699,1.458-1.035,2.354-2.457
			h0.212v1.791h2.617v0.949h-2.617V306.453z"/>
		<path d="M267.784,307.102c0,0.723,0.174,0.723,0.859,0.723h0.3v0.35h-0.017c-0.268,0.055-0.739,0.193-1.25,0.352
			c-0.544,0.176-0.999,0.352-1.106,0.352c-0.176,0-0.192-0.266-0.192-0.473v-0.811h-0.033c-0.633,0.65-1.617,1.283-2.688,1.283
			c-2.108,0-3.267-1.846-3.267-3.812c0-2.369,1.914-4.477,4.337-4.477c0.562,0,1.141,0.105,1.65,0.316v-3.109
			c0-1.143-0.261-1.174-0.932-1.367v-0.281c0.703-0.23,1.442-0.547,1.812-0.756c0.192-0.105,0.333-0.193,0.386-0.193
			c0.106,0,0.141,0.104,0.141,0.244V307.102z M266.378,302.766c0-1.299-1.088-1.617-1.861-1.617c-1.246,0-2.618,0.932-2.618,3.303
			c0,1.932,1.181,3.373,2.777,3.373c0.527,0,1.702-0.389,1.702-1.039V302.766z"/>
		<path d="M270.6,300.643c0.806-0.266,1.685-0.756,1.685-1.725c0-0.701-0.44-0.734-0.879-0.734c-0.454,0-0.896-0.105-0.896-0.914
			c0-0.648,0.493-0.914,1.071-0.914c1.091,0,1.635,0.949,1.635,1.932c0,1.494-1.106,2.387-2.441,2.775L270.6,300.643z"/>
		<path d="M278.256,301.902h2.321c1.419,0,1.419-1.104,1.472-1.508h0.354c-0.036,0.387-0.071,1.332-0.071,1.967
			c0,0.562,0.087,1.387,0.071,1.949h-0.354c0-1.686-0.562-1.686-1.913-1.686h-1.88v2.986c0,1.949,0.072,2.441,1.81,2.441h1.091
			c1.72-0.09,2.49-0.318,3.178-2.195l0.42,0.068c-0.279,0.879-0.545,1.775-0.721,2.686c-1.754,0-3.51-0.031-5.267-0.031
			c-1.3,0-2.601,0-3.9,0.031v-0.455c1.53,0,1.671-0.279,1.671-1.984v-7.795c0-1.443-0.279-1.512-1.671-1.564v-0.457
			c1.178,0.037,2.374,0.037,3.549,0.037c1.687,0,3.353,0,5.056-0.037v2.617l-0.352,0.088c-0.261-1.652-1.051-2.143-2.81-2.143
			h-2.054V301.902z"/>
		<path d="M286.729,302.658c-0.512-1.334-0.688-1.352-1.352-1.352v-0.455c0.58,0.018,1.175,0.037,1.755,0.037
			c0.614,0,1.21-0.037,1.827-0.037v0.455c-0.791,0-1.002,0.055-1.002,0.475c0,0.281,0.263,0.826,0.561,1.633l1.23,3.336l1.456-3.615
			c0.195-0.492,0.336-0.951,0.353-1.354c0.019-0.367-0.192-0.404-0.929-0.475v-0.455c0.419,0.018,0.839,0.037,1.262,0.037
			c0.527,0,1.053-0.037,1.599-0.037v0.455c-0.825,0-1.09,0.475-1.404,1.268l-2.53,6.303h-0.437L286.729,302.658z"/>
		<path d="M295.829,303.766c-0.035,0.16-0.035,0.422,0,1.02c0.104,1.668,1.178,3.039,2.582,3.039c0.964,0,1.721-0.527,2.368-1.176
			l0.246,0.244c-0.806,1.07-1.808,1.984-3.247,1.984c-2.793,0-3.355-2.705-3.355-3.828c0-3.443,2.318-4.461,3.548-4.461
			c1.422,0,2.952,0.896,2.968,2.758c0,0.105,0,0.211-0.016,0.314l-0.159,0.105H295.829z M298.937,303.205
			c0.438,0,0.492-0.229,0.492-0.439c0-0.895-0.544-1.617-1.526-1.617c-1.072,0-1.811,0.793-2.021,2.057H298.937z M296.268,299.043
			l2.352-2.336c0.266-0.264,0.545-0.615,0.932-0.615c0.316,0,0.562,0.301,0.562,0.529c0,0.297-0.122,0.488-0.297,0.594l-2.937,1.828
			H296.268z"/>
		<path d="M303.258,302.924c0-0.65-0.192-0.826-1.016-1.158v-0.336c0.755-0.244,1.476-0.475,2.317-0.842
			c0.054,0,0.105,0.035,0.105,0.176v1.139c1.001-0.717,1.862-1.314,3.037-1.314c1.493,0,2.021,1.088,2.021,2.461v4.527
			c0,0.58,0.387,0.58,0.877,0.58h0.316v0.455c-0.614,0-1.231-0.031-1.862-0.031c-0.63,0-1.263,0.016-1.896,0.031v-0.455h0.318
			c0.488,0,0.84,0,0.84-0.58v-4.547c0-1.002-0.614-1.494-1.616-1.494c-0.561,0-1.456,0.457-2.035,0.844v5.197
			c0,0.58,0.387,0.58,0.878,0.58h0.315v0.455c-0.614,0-1.229-0.031-1.861-0.031c-0.631,0-1.265,0.016-1.896,0.031v-0.455h0.317
			c0.487,0,0.839,0,0.839-0.58V302.924z"/>
		<path d="M313.4,303.766c-0.038,0.16-0.038,0.422,0,1.02c0.103,1.668,1.175,3.039,2.579,3.039c0.965,0,1.722-0.527,2.371-1.176
			l0.247,0.244c-0.81,1.07-1.809,1.984-3.251,1.984c-2.793,0-3.354-2.705-3.354-3.828c0-3.443,2.317-4.461,3.546-4.461
			c1.426,0,2.952,0.896,2.969,2.758c0,0.105,0,0.211-0.017,0.314l-0.159,0.105H313.4z M316.505,303.205
			c0.439,0,0.492-0.229,0.492-0.439c0-0.895-0.544-1.617-1.526-1.617c-1.071,0-1.811,0.793-2.02,2.057H316.505z"/>
		<path d="M320.829,302.818c0-0.771-0.262-0.877-0.914-1.23v-0.281c0.827-0.244,1.793-0.578,1.881-0.633
			c0.121-0.07,0.228-0.086,0.316-0.086c0.087,0,0.124,0.105,0.124,0.246v1.068c0.964-0.682,1.771-1.314,3.037-1.314
			c0.931,0,1.613,0.438,1.862,1.354c0.947-0.635,1.754-1.354,3.018-1.354c1.528,0,2.09,1.193,2.09,2.477v4.512
			c0,0.58,0.386,0.58,0.879,0.58h0.263v0.455c-0.562,0-1.175-0.031-1.808-0.031s-1.265,0.016-1.897,0.031v-0.455h0.316
			c0.492,0,0.844,0,0.844-0.58v-3.879c0-1.107-0.229-2.162-1.528-2.162c-0.685,0-1.67,0.562-2.073,0.844v5.197
			c0,0.58,0.403,0.58,0.896,0.58h0.317v0.455c-0.615,0-1.248-0.031-1.878-0.031c-0.635,0-1.268,0.016-1.896,0.031v-0.455h0.313
			c0.491,0,0.843,0,0.843-0.58v-3.879c0-1.107-0.229-2.162-1.527-2.162c-0.685,0-1.667,0.562-2.07,0.844v5.197
			c0,0.58,0.385,0.58,0.877,0.58h0.315v0.455c-0.612,0-1.229-0.031-1.863-0.031c-0.631,0-1.261,0.016-1.945,0.031v-0.455h0.367
			c0.49,0,0.842,0,0.842-0.58V302.818z"/>
		<path d="M335.816,303.766c-0.034,0.16-0.034,0.422,0,1.02c0.106,1.668,1.175,3.039,2.58,3.039c0.968,0,1.724-0.527,2.373-1.176
			l0.243,0.244c-0.807,1.07-1.808,1.984-3.247,1.984c-2.793,0-3.354-2.705-3.354-3.828c0-3.443,2.319-4.461,3.549-4.461
			c1.421,0,2.948,0.896,2.964,2.758c0,0.105,0,0.211-0.016,0.314l-0.158,0.105H335.816z M338.924,303.205
			c0.44,0,0.492-0.229,0.492-0.439c0-0.895-0.546-1.617-1.529-1.617c-1.068,0-1.808,0.793-2.019,2.057H338.924z"/>
		<path d="M343.248,302.924c0-0.65-0.192-0.826-1.018-1.158v-0.336c0.755-0.244,1.476-0.475,2.316-0.842
			c0.055,0,0.105,0.035,0.105,0.176v1.139c1.002-0.717,1.862-1.314,3.039-1.314c1.494,0,2.02,1.088,2.02,2.461v4.527
			c0,0.58,0.387,0.58,0.879,0.58h0.314v0.455c-0.614,0-1.229-0.031-1.861-0.031c-0.631,0-1.263,0.016-1.896,0.031v-0.455h0.314
			c0.493,0,0.845,0,0.845-0.58v-4.547c0-1.002-0.615-1.494-1.616-1.494c-0.562,0-1.456,0.457-2.038,0.844v5.197
			c0,0.58,0.39,0.58,0.879,0.58h0.315v0.455c-0.612,0-1.229-0.031-1.859-0.031c-0.632,0-1.265,0.016-1.897,0.031v-0.455h0.316
			c0.492,0,0.842,0,0.842-0.58V302.924z"/>
		<path d="M354.282,306.453c0,1.158,0.63,1.475,1.106,1.475c0.474,0,0.825-0.156,1.229-0.508l0.263,0.262
			c-0.614,0.633-1.389,1.195-2.336,1.195c-1.123,0-1.667-0.598-1.667-1.635v-5.441h-1.159v-0.283
			c0.91-0.699,1.456-1.035,2.353-2.457h0.212v1.791h2.614v0.949h-2.614V306.453z"/>
		<path d="M358.286,306.172c0.23,1.158,0.932,2.143,2.215,2.143c1.036,0,1.42-0.633,1.42-1.244c0-2.076-3.827-1.408-3.827-4.236
			c0-0.982,0.791-2.246,2.721-2.246c0.562,0,1.317,0.16,2.006,0.512l0.121,1.789h-0.403c-0.176-1.107-0.792-1.74-1.916-1.74
			c-0.701,0-1.367,0.406-1.367,1.16c0,2.055,4.071,1.424,4.071,4.18c0,1.16-0.932,2.389-3.018,2.389
			c-0.704,0-1.53-0.246-2.145-0.598l-0.191-2.02L358.286,306.172z"/>
	</g>
</g>
</svg>
