<?xml version="1.0" encoding="utf-8"?>
<!-- Generator: Adobe Illustrator 16.0.0, SVG Export Plug-In . SVG Version: 6.00 Build 0)  -->
<!DOCTYPE svg PUBLIC "-//W3C//DTD SVG 1.1//EN" "http://www.w3.org/Graphics/SVG/1.1/DTD/svg11.dtd">
<svg version="1.1" id="Calque_1" xmlns="http://www.w3.org/2000/svg" xmlns:xlink="http://www.w3.org/1999/xlink" x="0px" y="0px"
	 width="400px" height="330px" viewBox="0 0 400 330" enable-background="new 0 0 400 330" xml:space="preserve">
<circle fill="none" stroke="#1D1D1B" stroke-width="3.2893" stroke-miterlimit="10" cx="197.329" cy="161.801" r="152.12"/>
<path fill="none" stroke="#1D1D1B" stroke-width="1.2651" stroke-miterlimit="10" d="M50.351,161.801
	c0,81.176,65.804,146.979,146.979,146.979c81.172,0,146.982-65.803,146.982-146.979c0-81.174-65.811-146.98-146.982-146.98
	C116.154,14.821,50.351,80.627,50.351,161.801z"/>
<g>
	<path fill="#1D1D1B" d="M93.471,199.071h2.278v13.414h6.396v2.234h-8.674V199.071z"/>
	<path fill="#1D1D1B" d="M104.363,199.071h9.123v2.188h-6.839v3.779h6.528v2.146h-6.528v5.301h6.972v2.234h-9.256V199.071z"/>
	<path fill="#1D1D1B" d="M122.391,205.757c2.456,0,4.428,2.013,4.428,4.428c0,2.457-1.992,4.535-4.428,4.535h-6.059v-2.234h5.653
		c1.345,0,2.417-0.961,2.417-2.281c0-1.34-1.073-2.304-2.417-2.304h-2.165c-2.416,0-4.339-2.079-4.339-4.472
		c0-2.392,1.923-4.357,4.339-4.357h4.984v2.125h-4.717c-1.253,0-2.281,1.027-2.281,2.277c0,1.253,1.028,2.283,2.281,2.283H122.391z"
		/>
	<path fill="#1D1D1B" d="M135.837,210.359c0,1.7,0.87,2.372,1.965,2.372c1.12,0,1.995-0.896,1.995-1.989v-11.671h2.277v11.648
		c0,2.393-1.9,4.293-4.272,4.293c-2.346,0-4.248-1.7-4.248-4.653H135.837z"/>
	<path fill="#1D1D1B" d="M147.221,210.81l-1.61,3.91h-2.415l6.618-15.941l6.62,15.941h-2.415l-1.61-3.91H147.221z M149.813,204.123
		l-1.833,4.672h3.668L149.813,204.123z"/>
	<path fill="#1D1D1B" d="M169.409,214.072v0.647h-2.329v-0.647c0-1.723-1.271-3.934-3.556-3.934h-2.769v4.581h-2.307v-15.648h5.075
		c3.335,0,5.885,2.325,5.885,5.544c0,2.235-1.365,3.867-2.62,4.517C168.734,210.251,169.409,212.194,169.409,214.072z
		 M163.794,201.084h-3.038v7.04h3.038c1.857,0,3.243-1.765,3.243-3.509C167.037,202.804,165.651,201.084,163.794,201.084z"/>
	<path fill="#1D1D1B" d="M172.407,199.071h5.476c4.207,0,7.583,3.508,7.583,7.823c0,4.317-3.263,7.825-7.583,7.825h-5.476V199.071z
		 M177.617,212.71c3.198,0,5.48-2.615,5.48-5.815c0-3.197-2.305-5.811-5.48-5.811h-2.926v11.626H177.617z"/>
	<path fill="#1D1D1B" d="M187.888,199.071h2.28v15.648h-2.28V199.071z"/>
	<path fill="#1D1D1B" d="M193.41,199.071h2.101l8.006,9.858v-9.858h2.149v15.92l-10.105-12.077v11.806h-2.15V199.071z"/>
	<path fill="#1D1D1B" d="M214.93,205.757c2.457,0,4.428,2.013,4.428,4.428c0,2.457-1.995,4.535-4.428,4.535h-6.059v-2.234h5.658
		c1.338,0,2.41-0.961,2.41-2.281c0-1.34-1.072-2.304-2.41-2.304h-2.173c-2.417,0-4.338-2.079-4.338-4.472
		c0-2.392,1.921-4.357,4.338-4.357h4.988v2.125h-4.716c-1.257,0-2.283,1.027-2.283,2.277c0,1.253,1.026,2.283,2.283,2.283H214.93z"
		/>
	<path fill="#1D1D1B" d="M227.302,199.071h5.479c4.203,0,7.578,3.508,7.578,7.823c0,4.317-3.266,7.825-7.578,7.825h-5.479V199.071z
		 M232.508,212.71c3.2,0,5.482-2.615,5.482-5.815c0-3.197-2.303-5.811-5.482-5.811h-2.928v11.626H232.508z"/>
	<path fill="#1D1D1B" d="M242.873,199.071h2.478l-2.572,4.785h-1.388L242.873,199.071z"/>
	<path fill="#1D1D1B" d="M247.208,199.071h9.121v2.188h-6.841v3.779h6.533v2.146h-6.533v5.301h6.979v2.234h-9.259V199.071z"/>
	<path fill="#1D1D1B" d="M259.217,199.071h5.478c4.208,0,7.583,3.508,7.583,7.823c0,4.317-3.265,7.825-7.583,7.825h-5.478V199.071z
		 M264.432,212.71c3.195,0,5.476-2.615,5.476-5.815c0-3.197-2.298-5.811-5.476-5.811h-2.93v11.626H264.432z"/>
	<path fill="#1D1D1B" d="M274.699,199.071h9.121v2.188h-6.838v3.779h6.525v2.146h-6.525v5.301h6.971v2.234h-9.254V199.071z"/>
	<path fill="#1D1D1B" d="M286.596,199.071h2.101l8.008,9.858v-9.858h2.147v15.92l-10.106-12.077v11.806h-2.149V199.071z"/>
</g>
<line fill="none" stroke="#1D1D1B" stroke-width="1.1008" stroke-miterlimit="10" x1="94.538" y1="243.462" x2="300.293" y2="243.462"/>
<line fill="none" stroke="#1D1D1B" stroke-width="1.1008" stroke-miterlimit="10" x1="94.504" y1="255.621" x2="300.257" y2="255.621"/>
<path fill="#9CCFB6" d="M193.096,287.7c0,2.388,1.932,4.324,4.322,4.324c2.384,0,4.315-1.937,4.315-4.324
	c0-2.389-1.932-4.325-4.315-4.325C195.027,283.375,193.096,285.312,193.096,287.7z"/>
<g>
	
		<rect x="195.327" y="143.671" transform="matrix(0.7066 -0.7076 0.7076 0.7066 -48.3898 182.8716)" fill="#1D1D1B" width="2.021" height="12.24"/>
	
		<rect x="195.329" y="143.669" transform="matrix(-0.7057 -0.7086 0.7086 -0.7057 228.748 394.6078)" fill="#1D1D1B" width="2.018" height="12.243"/>
</g>
<g>
	
		<line fill="none" stroke="#1D1D1B" stroke-width="0.8294" stroke-miterlimit="10" x1="154.725" y1="192.27" x2="225.874" y2="121.453"/>
	
		<line fill="none" stroke="#1D1D1B" stroke-width="0.8294" stroke-miterlimit="10" x1="126.73" y1="220.266" x2="112.294" y2="234.625"/>
</g>
<g>
	
		<line fill="none" stroke="#1D1D1B" stroke-width="0.8294" stroke-miterlimit="10" x1="265.516" y1="220.206" x2="279.95" y2="234.638"/>
	
		<line fill="none" stroke="#1D1D1B" stroke-width="0.8294" stroke-miterlimit="10" x1="167.725" y1="122.411" x2="237.857" y2="192.55"/>
</g>
<path fill="#9CCFB6" d="M174.301,68.559c0,21.231,17.219,38.453,38.451,38.453c21.242,0,38.455-17.221,38.455-38.453
	c0-21.238-17.213-38.456-38.455-38.456C191.52,30.103,174.301,47.321,174.301,68.559z"/>
<rect x="94.449" y="234.189" fill="#1D1D1B" width="205.747" height="3.038"/>
<g>
	<defs>
		<rect id="SVGID_1_" x="94.568" y="243.462" width="205.69" height="12.159"/>
	</defs>
	<clipPath id="SVGID_2_">
		<use xlink:href="#SVGID_1_"  overflow="visible"/>
	</clipPath>
	<polyline clip-path="url(#SVGID_2_)" fill="none" stroke="#1D1D1B" stroke-width="0.5676" stroke-miterlimit="10" points="
		48.075,315.463 85.657,288.217 122.742,315.463 161.343,288.217 198.932,315.463 	"/>
	<polyline clip-path="url(#SVGID_2_)" fill="none" stroke="#1D1D1B" stroke-width="0.5676" stroke-miterlimit="10" points="
		48.075,322.942 85.657,295.696 122.742,322.942 161.343,295.696 198.932,322.942 	"/>
	<polyline clip-path="url(#SVGID_2_)" fill="none" stroke="#1D1D1B" stroke-width="0.5676" stroke-miterlimit="10" points="
		198.576,315.463 236.164,288.217 273.244,315.463 311.848,288.217 349.436,315.463 	"/>
	<polyline clip-path="url(#SVGID_2_)" fill="none" stroke="#1D1D1B" stroke-width="0.5676" stroke-miterlimit="10" points="
		198.576,322.942 236.164,295.696 273.244,322.942 311.848,295.696 349.436,322.942 	"/>
	<polyline clip-path="url(#SVGID_2_)" fill="none" stroke="#1D1D1B" stroke-width="0.8294" stroke-miterlimit="10" points="
		48.075,270.589 85.657,243.343 122.742,270.589 161.343,243.343 198.932,270.589 	"/>
	<polyline clip-path="url(#SVGID_2_)" fill="none" stroke="#1D1D1B" stroke-width="0.8294" stroke-miterlimit="10" points="
		48.075,278.07 85.657,250.824 122.742,278.07 161.343,250.824 198.932,278.07 	"/>
	<polyline clip-path="url(#SVGID_2_)" fill="none" stroke="#1D1D1B" stroke-width="0.5676" stroke-miterlimit="10" points="
		48.075,285.548 85.657,258.302 122.742,285.548 161.343,258.302 198.932,285.548 	"/>
	<polyline clip-path="url(#SVGID_2_)" fill="none" stroke="#1D1D1B" stroke-width="0.5676" stroke-miterlimit="10" points="
		48.075,293.027 85.657,265.781 122.742,293.027 161.343,265.781 198.932,293.027 	"/>
	<polyline clip-path="url(#SVGID_2_)" fill="none" stroke="#1D1D1B" stroke-width="0.5676" stroke-miterlimit="10" points="
		48.075,300.505 85.657,273.261 122.742,300.505 161.343,273.261 198.932,300.505 	"/>
	<polyline clip-path="url(#SVGID_2_)" fill="none" stroke="#1D1D1B" stroke-width="0.5676" stroke-miterlimit="10" points="
		48.075,307.984 85.657,280.737 122.742,307.984 161.343,280.737 198.932,307.984 	"/>
	<polyline clip-path="url(#SVGID_2_)" fill="none" stroke="#1D1D1B" stroke-width="0.8294" stroke-miterlimit="10" points="
		48.075,263.164 85.657,235.922 122.742,263.164 161.343,235.922 198.932,263.164 	"/>
	<polyline clip-path="url(#SVGID_2_)" fill="none" stroke="#1D1D1B" stroke-width="0.8294" stroke-miterlimit="10" points="
		48.075,255.925 85.657,228.683 122.742,255.925 161.343,228.683 198.932,255.925 	"/>
	<polyline clip-path="url(#SVGID_2_)" fill="none" stroke="#1D1D1B" stroke-width="0.8294" stroke-miterlimit="10" points="
		48.075,248.027 85.657,220.784 122.742,248.027 161.343,220.784 198.932,248.027 	"/>
	<polyline clip-path="url(#SVGID_2_)" fill="none" stroke="#1D1D1B" stroke-width="0.8294" stroke-miterlimit="10" points="
		198.576,270.589 236.164,243.343 273.244,270.589 311.848,243.343 349.436,270.589 	"/>
	<polyline clip-path="url(#SVGID_2_)" fill="none" stroke="#1D1D1B" stroke-width="0.8294" stroke-miterlimit="10" points="
		198.576,278.07 236.164,250.824 273.244,278.07 311.848,250.824 349.436,278.07 	"/>
	<polyline clip-path="url(#SVGID_2_)" fill="none" stroke="#1D1D1B" stroke-width="0.5676" stroke-miterlimit="10" points="
		198.576,285.548 236.164,258.302 273.244,285.548 311.848,258.302 349.436,285.548 	"/>
	<polyline clip-path="url(#SVGID_2_)" fill="none" stroke="#1D1D1B" stroke-width="0.5676" stroke-miterlimit="10" points="
		198.576,293.027 236.164,265.781 273.244,293.027 311.848,265.781 349.436,293.027 	"/>
	<polyline clip-path="url(#SVGID_2_)" fill="none" stroke="#1D1D1B" stroke-width="0.5676" stroke-miterlimit="10" points="
		198.576,300.505 236.164,273.261 273.244,300.505 311.848,273.261 349.436,300.505 	"/>
	<polyline clip-path="url(#SVGID_2_)" fill="none" stroke="#1D1D1B" stroke-width="0.5676" stroke-miterlimit="10" points="
		198.576,307.984 236.164,280.737 273.244,307.984 311.848,280.737 349.436,307.984 	"/>
	<polyline clip-path="url(#SVGID_2_)" fill="none" stroke="#1D1D1B" stroke-width="0.8294" stroke-miterlimit="10" points="
		198.576,263.164 236.164,235.922 273.244,263.164 311.848,235.922 349.436,263.164 	"/>
	<polyline clip-path="url(#SVGID_2_)" fill="none" stroke="#1D1D1B" stroke-width="0.8294" stroke-miterlimit="10" points="
		198.576,255.925 236.164,228.683 273.244,255.925 311.848,228.683 349.436,255.925 	"/>
	<polyline clip-path="url(#SVGID_2_)" fill="none" stroke="#1D1D1B" stroke-width="0.8294" stroke-miterlimit="10" points="
		198.576,248.027 236.164,220.784 273.244,248.027 311.848,220.784 349.436,248.027 	"/>
</g>
<g>
	<path fill="#1D1D1B" d="M122.297,267.375h4.332v1.042h-3.25v1.794h3.099v1.019h-3.099v2.517h3.312v1.062h-4.394V267.375z"/>
	<path fill="#1D1D1B" d="M128.481,267.375h0.996l3.803,4.683v-4.683h1.021v7.561l-4.799-5.734v5.606h-1.021V267.375z"/>
	<path fill="#1D1D1B" d="M137.706,268.417h-1.839v-1.042h4.758v1.042h-1.837v6.391h-1.082V268.417z"/>
	<path fill="#1D1D1B" d="M147.445,274.5v0.308h-1.104V274.5c0-0.816-0.605-1.869-1.688-1.869h-1.317v2.177h-1.095v-7.433h2.412
		c1.581,0,2.791,1.104,2.791,2.634c0,1.062-0.646,1.837-1.241,2.146C147.129,272.685,147.445,273.609,147.445,274.5z
		 M144.78,268.331h-1.443v3.344h1.443c0.882,0,1.538-0.839,1.538-1.666C146.318,269.149,145.662,268.331,144.78,268.331z"/>
	<path fill="#1D1D1B" d="M149.406,267.375h4.331v1.042h-3.249v1.794h3.101v1.019h-3.101v2.517h3.314v1.062h-4.396V267.375z"/>
	<path fill="#1D1D1B" d="M158.265,272.312h-1.536v2.496h-1.084v-7.433h2.62c1.358,0,2.453,1.116,2.453,2.474
		C160.718,271.219,159.623,272.312,158.265,272.312z M158.116,268.331h-1.388v3.027h1.388c0.946,0,1.478-0.628,1.478-1.51
		C159.594,269.011,158.945,268.331,158.116,268.331z"/>
	<path fill="#1D1D1B" d="M167.595,274.5v0.308h-1.104V274.5c0-0.816-0.604-1.869-1.688-1.869h-1.315v2.177h-1.096v-7.433h2.411
		c1.583,0,2.793,1.104,2.793,2.634c0,1.062-0.647,1.837-1.244,2.146C167.275,272.685,167.595,273.609,167.595,274.5z
		 M164.928,268.331h-1.441v3.344h1.441c0.884,0,1.54-0.839,1.54-1.666C166.468,269.149,165.812,268.331,164.928,268.331z"/>
	<path fill="#1D1D1B" d="M169.556,267.375h4.331v1.042h-3.247v1.794h3.099v1.019h-3.099v2.517h3.31v1.062h-4.394V267.375z"/>
	<path fill="#1D1D1B" d="M175.739,267.375h0.999l3.801,4.683v-4.683h1.019v7.561l-4.799-5.734v5.606h-1.02V267.375z"/>
	<path fill="#1D1D1B" d="M183.635,267.375h4.334v1.042h-3.25v1.794h3.1v1.019h-3.1v2.517h3.311v1.062h-4.395V267.375z"/>
	<path fill="#1D1D1B" d="M190.955,267.375v5.064c0,0.796,0.659,1.467,1.469,1.467c0.805,0,1.475-0.671,1.475-1.467v-5.064h1.082
		v5.064c0,1.401-1.147,2.508-2.57,2.508c-1.41,0-2.537-1.106-2.537-2.508v-5.064H190.955z"/>
	<path fill="#1D1D1B" d="M202.206,274.5v0.308h-1.104V274.5c0-0.816-0.607-1.869-1.689-1.869h-1.315v2.177h-1.093v-7.433h2.408
		c1.581,0,2.794,1.104,2.794,2.634c0,1.062-0.648,1.837-1.244,2.146C201.887,272.685,202.206,273.609,202.206,274.5z
		 M199.541,268.331h-1.444v3.344h1.444c0.881,0,1.54-0.839,1.54-1.666C201.081,269.149,200.422,268.331,199.541,268.331z"/>
	<path fill="#1D1D1B" d="M211.36,272.312h-1.54v2.496h-1.084v-7.433h2.624c1.358,0,2.451,1.116,2.451,2.474
		C213.812,271.219,212.719,272.312,211.36,272.312z M211.21,268.331h-1.39v3.027h1.39c0.946,0,1.478-0.628,1.478-1.51
		C212.688,269.011,212.039,268.331,211.21,268.331z"/>
	<path fill="#1D1D1B" d="M215.804,272.95l-0.765,1.857h-1.148l3.144-7.569l3.142,7.569h-1.145l-0.765-1.857H215.804z
		 M217.034,269.774l-0.87,2.22h1.742L217.034,269.774z"/>
	<path fill="#1D1D1B" d="M223.047,274.808h-1.081v-3.133l-2.294-4.3h1.201l1.635,3.229l1.635-3.229h1.201l-2.297,4.3V274.808z"/>
	<path fill="#1D1D1B" d="M229.445,270.551c1.169,0,2.103,0.956,2.103,2.101c0,1.169-0.947,2.156-2.103,2.156h-2.876v-1.062h2.685
		c0.639,0,1.146-0.456,1.146-1.084c0-0.637-0.508-1.093-1.146-1.093h-1.03c-1.146,0-2.06-0.987-2.06-2.123s0.913-2.071,2.06-2.071
		h2.368v1.01h-2.239c-0.594,0-1.084,0.488-1.084,1.082c0,0.596,0.49,1.084,1.084,1.084H229.445z"/>
	<path fill="#1D1D1B" d="M234.465,272.95l-0.765,1.857h-1.149l3.144-7.569l3.144,7.569h-1.146l-0.765-1.857H234.465z
		 M235.694,269.774l-0.87,2.22h1.743L235.694,269.774z"/>
	<path fill="#1D1D1B" d="M243.219,270.52h3.863c0.031,0.19,0.045,0.382,0.045,0.582c0,2.125-1.594,3.846-3.812,3.846
		c-2.113,0-3.812-1.721-3.812-3.846c0-2.134,1.698-3.854,3.812-3.854c1.241,0,2.356,0.607,3.045,1.541c0,0-0.901,0.701-0.901,0.689
		c-0.477-0.699-1.262-1.167-2.144-1.167c-1.457,0-2.645,1.253-2.645,2.791c0,1.529,1.188,2.782,2.645,2.782
		c1.495,0,2.568-0.977,2.643-2.366h-2.739V270.52z"/>
	<path fill="#1D1D1B" d="M248.906,267.375h1.084v7.433h-1.084V267.375z"/>
	<path fill="#1D1D1B" d="M254.974,270.551c1.167,0,2.103,0.956,2.103,2.101c0,1.169-0.947,2.156-2.103,2.156h-2.877v-1.062h2.686
		c0.639,0,1.146-0.456,1.146-1.084c0-0.637-0.508-1.093-1.146-1.093h-1.03c-1.146,0-2.062-0.987-2.062-2.123
		s0.915-2.071,2.062-2.071h2.366v1.01h-2.237c-0.597,0-1.084,0.488-1.084,1.082c0,0.596,0.487,1.084,1.084,1.084H254.974z"/>
	<path fill="#1D1D1B" d="M259.405,268.417h-1.837v-1.042h4.759v1.042h-1.838v6.391h-1.084V268.417z"/>
	<path fill="#1D1D1B" d="M263.943,267.375h4.334v1.042h-3.247v1.794h3.099v1.019h-3.099v2.517h3.31v1.062h-4.396V267.375z"/>
</g>
<path fill="#1D1D1B" d="M192.176,101.002c-8.5-5.403-14.733-14.028-16.96-24.175c-3.742-1.726-7.891-2.717-12.28-2.717
	c-16.219,0-29.365,13.148-29.365,29.366c0,16.217,13.146,29.362,29.365,29.362c16.216,0,29.364-13.145,29.364-29.362
	C192.3,102.64,192.243,101.82,192.176,101.002z"/>
<path fill="#1D1D1B" d="M245.868,93.647c-1.514,0-2.989,0.154-4.417,0.441c-3.96,4.449-8.923,7.971-14.557,10.202
	c-2.082,3.389-3.303,7.363-3.303,11.633c0,12.301,9.973,22.275,22.276,22.275c12.299,0,22.274-9.974,22.274-22.275
	C268.143,103.619,258.167,93.647,245.868,93.647z"/>
<rect x="32.474" y="-96.5" fill="#9CCFB6" width="65.334" height="84"/>
</svg>
