<?xml version="1.0" encoding="utf-8"?>
<!-- Generator: Adobe Illustrator 16.0.0, SVG Export Plug-In . SVG Version: 6.00 Build 0)  -->
<!DOCTYPE svg PUBLIC "-//W3C//DTD SVG 1.1//EN" "http://www.w3.org/Graphics/SVG/1.1/DTD/svg11.dtd">
<svg version="1.1" id="Calque_1" xmlns="http://www.w3.org/2000/svg" xmlns:xlink="http://www.w3.org/1999/xlink" x="0px" y="0px"
	 width="250px" height="250px" viewBox="0 0 250 250" enable-background="new 0 0 250 250" xml:space="preserve">
<g>
	<path fill="#D2B0B0" d="M83.495,152.373c-21.337,0-39.706-17.173-42.729-39.945l0.779-0.104
		c2.97,22.383,21.005,39.262,41.949,39.262c16.783,0,30.801-8.994,37.501-24.06l0.718,0.319
		C114.884,143.203,100.597,152.373,83.495,152.373z"/>
</g>
<polygon fill="none" stroke="#D2B0B0" stroke-width="0.7861" stroke-linecap="round" stroke-linejoin="round" points="
	202.659,63.572 203.957,57.994 210.824,59.682 "/>
<g>
	<path fill="#D2B0B0" d="M211.033,112.21c-0.101,0-0.201-0.038-0.276-0.114l-4.412-4.383c-0.113-0.112-0.146-0.28-0.087-0.428
		c0.062-0.148,0.203-0.244,0.364-0.244h9.873c0.166,0,0.314,0.105,0.371,0.263c0.054,0.157,0.005,0.332-0.125,0.437l-5.462,4.383
		C211.207,112.182,211.12,112.21,211.033,112.21z M207.574,107.827l3.487,3.464l4.316-3.464H207.574z"/>
</g>
<path fill="none" stroke="#CCC714" stroke-width="0.7861" d="M211.137,111.745"/>
<path fill="none" stroke="#CCC714" stroke-width="0.7861" d="M211.321,107.434"/>
<g>
	<path fill="#D2B0B0" d="M41.157,112.769c-0.099,0-0.195-0.037-0.268-0.105l-5.479-5.1c-0.119-0.11-0.157-0.281-0.098-0.431
		c0.059-0.151,0.205-0.249,0.366-0.249h9.818c0.154,0,0.292,0.089,0.357,0.228c0.064,0.139,0.042,0.303-0.057,0.419l-4.339,5.1
		c-0.07,0.082-0.169,0.132-0.277,0.138C41.172,112.769,41.165,112.769,41.157,112.769z M36.677,107.669l4.447,4.14l3.521-4.14
		H36.677z"/>
</g>
<path fill="#D2B0B0" d="M27.396,116.84c0,2.676-2.173,4.847-4.85,4.847c-2.678,0-4.848-2.171-4.848-4.847
	c0-2.679,3.218-5.326,4.848-9.406C24.306,111.319,27.396,114.161,27.396,116.84z"/>
<path fill="#D2B0B0" d="M234.278,116.84c0,2.676-2.17,4.847-4.848,4.847c-2.675,0-4.848-2.171-4.848-4.847
	c0-2.679,3.217-5.326,4.848-9.406C231.189,111.319,234.278,114.161,234.278,116.84z"/>
<path fill="#D2B0B0" d="M53.479,175.719c2.608,0,4.493,0.877,6.25,2.401c0.232,0.206,0.232,0.518,0.026,0.724l-1.136,1.16
	c-0.182,0.234-0.415,0.234-0.646,0c-1.213-1.057-2.867-1.728-4.468-1.728c-3.691,0-6.482,3.098-6.482,6.715
	c0,3.613,2.816,6.687,6.507,6.687c1.885,0,3.202-0.749,4.442-1.705c0.232-0.183,0.465-0.155,0.621-0.025l1.188,1.162
	c0.208,0.183,0.155,0.517-0.025,0.699c-1.756,1.7-3.978,2.502-6.277,2.502c-5.165,0-9.323-4.106-9.323-9.27
	C44.157,179.879,48.314,175.719,53.479,175.719z"/>
<path fill="#D2B0B0" d="M87.836,178.406h-4.21c-0.285,0-0.49-0.233-0.49-0.493v-1.445c0-0.259,0.206-0.491,0.49-0.491h11.106
	c0.284,0,0.489,0.232,0.489,0.491v1.445c0,0.26-0.205,0.493-0.489,0.493h-4.21v15.157c0,0.26-0.231,0.49-0.49,0.49h-1.704
	c-0.259,0-0.491-0.23-0.491-0.49L87.836,178.406L87.836,178.406z"/>
<path fill="#D2B0B0" d="M98.659,176.468c0-0.259,0.206-0.491,0.491-0.491h10.33c0.284,0,0.49,0.232,0.49,0.491v1.445
	c0,0.26-0.206,0.493-0.49,0.493h-8.161v5.266h6.896c0.258,0,0.492,0.233,0.492,0.492v1.447c0,0.284-0.234,0.487-0.492,0.487h-6.896
	v5.554h8.161c0.284,0,0.49,0.233,0.49,0.492v1.42c0,0.26-0.206,0.489-0.49,0.489H99.15c-0.285,0-0.491-0.229-0.491-0.489V176.468
	L98.659,176.468z M101.861,173.937l-0.361-0.723c-0.104-0.206,0.025-0.413,0.155-0.49l4.055-2.35
	c0.155-0.105,0.542-0.155,0.672,0.077l0.593,1.135c0.155,0.26,0.052,0.518-0.155,0.621l-4.338,1.858
	C102.145,174.222,101.965,174.17,101.861,173.937z"/>
<path fill="#D2B0B0" d="M120.847,176.468c0-0.259,0.208-0.491,0.491-0.491h5.783c3.126,0,5.374,2.066,5.374,4.777
	c0,1.988-1.472,3.41-2.686,4.107c1.366,0.565,3.227,1.834,3.227,4.21c0,2.89-2.378,4.982-5.63,4.982h-6.069
	c-0.282,0-0.491-0.23-0.491-0.49L120.847,176.468L120.847,176.468z M127.378,191.679c1.58,0,2.792-1.214,2.792-2.814
	c0-1.577-1.497-2.712-3.177-2.712h-3.538v5.526H127.378L127.378,191.679z M126.97,183.825c1.652,0,2.657-1.212,2.657-2.762
	c0-1.574-1.005-2.658-2.657-2.658h-3.489v5.42H126.97z"/>
<path fill="#D2B0B0" d="M135.132,193.382l7.928-17.381c0.078-0.153,0.309-0.282,0.439-0.282h0.258c0.131,0,0.362,0.129,0.439,0.282
	l7.877,17.381c0.154,0.336-0.052,0.672-0.438,0.672h-1.626c-0.314,0-0.492-0.155-0.597-0.386l-1.602-3.541h-8.446
	c-0.515,1.188-1.058,2.352-1.571,3.541c-0.08,0.179-0.285,0.386-0.594,0.386h-1.63C135.185,194.054,134.978,193.718,135.132,193.382
	z M146.83,187.907l-3.176-7.074h-0.133l-3.148,7.074H146.83z"/>
<path fill="#D2B0B0" d="M154.142,191.447c0.236-0.337,0.44-0.726,0.674-1.06c0.23-0.336,0.595-0.439,0.878-0.208
	c0.153,0.133,2.141,1.781,4.134,1.781c1.78,0,2.917-1.082,2.917-2.399c0-1.552-1.344-2.53-3.9-3.59
	c-2.634-1.11-4.702-2.481-4.702-5.476c0-2.014,1.553-4.777,5.658-4.777c2.581,0,4.52,1.342,4.776,1.523
	c0.207,0.128,0.412,0.49,0.154,0.878c-0.204,0.311-0.439,0.67-0.645,0.983c-0.206,0.334-0.543,0.49-0.907,0.256
	c-0.176-0.104-1.983-1.292-3.483-1.292c-2.17,0-2.916,1.37-2.916,2.325c0,1.473,1.133,2.377,3.277,3.254
	c2.996,1.213,5.552,2.633,5.552,5.786c0,2.683-2.4,4.879-5.758,4.879c-3.153,0-5.142-1.653-5.555-2.04
	C154.063,192.064,153.887,191.886,154.142,191.447z"/>
<path fill="#D2B0B0" d="M168.657,191.447c0.233-0.337,0.442-0.726,0.673-1.06c0.232-0.336,0.594-0.439,0.877-0.208
	c0.156,0.133,2.145,1.781,4.134,1.781c1.783,0,2.916-1.082,2.916-2.399c0-1.552-1.342-2.53-3.899-3.59
	c-2.634-1.11-4.701-2.481-4.701-5.476c0-2.014,1.551-4.777,5.659-4.777c2.581,0,4.517,1.342,4.778,1.523
	c0.204,0.128,0.41,0.49,0.152,0.878c-0.203,0.311-0.438,0.67-0.645,0.983c-0.207,0.334-0.543,0.49-0.903,0.256
	c-0.182-0.104-1.989-1.292-3.486-1.292c-2.167,0-2.918,1.37-2.918,2.325c0,1.473,1.137,2.377,3.279,3.254
	c2.996,1.213,5.552,2.633,5.552,5.786c0,2.683-2.402,4.879-5.761,4.879c-3.149,0-5.14-1.653-5.549-2.04
	C168.582,192.064,168.401,191.886,168.657,191.447z"/>
<path fill="#D2B0B0" d="M184.337,176.468c0-0.259,0.231-0.491,0.49-0.491h1.705c0.258,0,0.491,0.232,0.491,0.491v17.096
	c0,0.26-0.233,0.49-0.491,0.49h-1.705c-0.259,0-0.49-0.23-0.49-0.49V176.468z"/>
<path fill="#D2B0B0" d="M192.679,176.185c0-0.259,0.235-0.466,0.493-0.466h0.644l11.21,12.965h0.025v-12.216
	c0-0.259,0.206-0.491,0.488-0.491h1.656c0.258,0,0.491,0.232,0.491,0.491v17.38c0,0.259-0.233,0.465-0.491,0.465h-0.672
	l-11.211-13.326h-0.023v12.577c0,0.26-0.207,0.49-0.489,0.49h-1.628c-0.259,0-0.493-0.23-0.493-0.49V176.185z"/>
<g>
	<path fill="#D2B0B0" d="M63.041,209.926c0.093-0.134,0.176-0.292,0.271-0.428c0.093-0.134,0.24-0.176,0.353-0.083
		c0.063,0.055,0.865,0.72,1.668,0.72c0.718,0,1.176-0.437,1.176-0.969c0-0.625-0.542-1.023-1.574-1.448
		c-1.062-0.447-1.895-1-1.895-2.208c0-0.811,0.624-1.927,2.281-1.927c1.04,0,1.821,0.54,1.926,0.615
		c0.084,0.051,0.167,0.196,0.063,0.353c-0.083,0.124-0.177,0.271-0.26,0.396c-0.084,0.136-0.22,0.198-0.366,0.104
		c-0.072-0.04-0.801-0.522-1.405-0.522c-0.875,0-1.178,0.554-1.178,0.94c0,0.593,0.458,0.957,1.323,1.312
		c1.208,0.489,2.239,1.062,2.239,2.334c0,1.081-0.968,1.967-2.323,1.967c-1.27,0-2.071-0.667-2.238-0.823
		C63.008,210.177,62.936,210.104,63.041,209.926z"/>
	<path fill="#D2B0B0" d="M73.351,203.583c2.083,0,3.75,1.677,3.75,3.759c0,2.085-1.666,3.74-3.75,3.74
		c-2.083,0-3.74-1.655-3.74-3.74C69.611,205.26,71.268,203.583,73.351,203.583z M73.351,210.041c1.49,0,2.709-1.208,2.709-2.699
		c0-1.477-1.219-2.717-2.709-2.717c-1.479,0-2.697,1.24-2.697,2.717C70.653,208.833,71.871,210.041,73.351,210.041z"/>
	<path fill="#D2B0B0" d="M82.858,203.583c1.051,0,1.813,0.354,2.521,0.968c0.093,0.083,0.093,0.209,0.01,0.292l-0.458,0.468
		c-0.073,0.094-0.167,0.094-0.26,0c-0.49-0.427-1.156-0.696-1.802-0.696c-1.49,0-2.615,1.251-2.615,2.71
		c0,1.457,1.135,2.696,2.625,2.696c0.76,0,1.291-0.302,1.792-0.688c0.093-0.072,0.188-0.062,0.25-0.011l0.48,0.47
		c0.083,0.072,0.062,0.209-0.011,0.281c-0.708,0.688-1.604,1.009-2.531,1.009c-2.083,0-3.76-1.655-3.76-3.74
		C79.099,205.26,80.775,203.583,82.858,203.583z"/>
	<path fill="#D2B0B0" d="M87.918,203.885c0-0.102,0.093-0.197,0.197-0.197h0.689c0.104,0,0.197,0.096,0.197,0.197v6.896
		c0,0.104-0.093,0.197-0.197,0.197h-0.689c-0.104,0-0.197-0.094-0.197-0.197V203.885L87.918,203.885z"/>
	<path fill="#D2B0B0" d="M92.062,203.885c0-0.102,0.084-0.197,0.198-0.197h4.167c0.115,0,0.198,0.096,0.198,0.197v0.585
		c0,0.103-0.083,0.196-0.198,0.196h-3.292v2.125h2.782c0.104,0,0.197,0.093,0.197,0.198v0.582c0,0.115-0.094,0.199-0.197,0.199
		h-2.782v2.238h3.292c0.115,0,0.198,0.094,0.198,0.198v0.573c0,0.103-0.083,0.196-0.198,0.196H92.26
		c-0.114,0-0.198-0.094-0.198-0.196V203.885z M93.354,202.864l-0.145-0.292c-0.042-0.084,0.01-0.166,0.062-0.197l1.634-0.949
		c0.063-0.042,0.22-0.062,0.272,0.03l0.239,0.461c0.062,0.104,0.021,0.21-0.063,0.248l-1.75,0.752
		C93.468,202.978,93.396,202.959,93.354,202.864z"/>
	<path fill="#D2B0B0" d="M100.236,204.666h-1.697c-0.115,0-0.198-0.094-0.198-0.196v-0.585c0-0.102,0.083-0.197,0.198-0.197h4.479
		c0.114,0,0.198,0.096,0.198,0.197v0.585c0,0.103-0.083,0.196-0.198,0.196h-1.697v6.114c0,0.104-0.094,0.197-0.198,0.197h-0.688
		c-0.104,0-0.198-0.094-0.198-0.197L100.236,204.666L100.236,204.666z"/>
	<path fill="#D2B0B0" d="M105.381,203.885c0-0.102,0.084-0.197,0.198-0.197h4.168c0.114,0,0.197,0.096,0.197,0.197v0.585
		c0,0.103-0.083,0.196-0.197,0.196h-3.292v2.125h2.781c0.104,0,0.198,0.093,0.198,0.198v0.582c0,0.115-0.094,0.199-0.198,0.199
		h-2.781v2.238h3.292c0.114,0,0.197,0.094,0.197,0.198v0.573c0,0.103-0.083,0.196-0.197,0.196h-4.168
		c-0.114,0-0.198-0.094-0.198-0.196V203.885z M106.672,202.864l-0.145-0.292c-0.042-0.084,0.01-0.166,0.062-0.197l1.635-0.949
		c0.063-0.042,0.218-0.062,0.271,0.03l0.24,0.461c0.063,0.104,0.021,0.21-0.063,0.248l-1.75,0.752
		C106.788,202.978,106.715,202.959,106.672,202.864z"/>
	<path fill="#D2B0B0" d="M117.316,203.885c0-0.102,0.095-0.197,0.198-0.197h0.687c0.105,0,0.199,0.096,0.199,0.197v6.896
		c0,0.104-0.094,0.197-0.199,0.197h-0.687c-0.103,0-0.198-0.094-0.198-0.197V203.885z"/>
	<path fill="#D2B0B0" d="M122.253,203.74c0.02-0.083,0.104-0.157,0.187-0.157h0.167c0.062,0,0.156,0.052,0.177,0.114l2.177,5.323
		h0.042l2.166-5.323c0.02-0.063,0.104-0.114,0.176-0.114h0.169c0.081,0,0.165,0.074,0.187,0.157l1.282,6.999
		c0.029,0.145-0.042,0.238-0.189,0.238h-0.677c-0.092,0-0.177-0.07-0.197-0.145l-0.771-4.656c-0.011,0-0.031,0-0.031,0l-1.876,4.792
		c-0.02,0.062-0.083,0.113-0.176,0.113h-0.188c-0.083,0-0.156-0.052-0.177-0.113l-1.885-4.792c-0.011,0-0.032,0-0.042,0l-0.75,4.656
		c-0.01,0.074-0.104,0.145-0.187,0.145h-0.678c-0.146,0-0.218-0.093-0.198-0.238L122.253,203.74z"/>
	<path fill="#D2B0B0" d="M132.343,203.74c0.021-0.083,0.104-0.157,0.188-0.157h0.166c0.062,0,0.156,0.052,0.176,0.114l2.177,5.323
		h0.042l2.167-5.323c0.02-0.063,0.104-0.114,0.177-0.114h0.168c0.082,0,0.163,0.074,0.187,0.157l1.281,6.999
		c0.03,0.145-0.042,0.238-0.188,0.238h-0.677c-0.095,0-0.177-0.07-0.198-0.145l-0.771-4.656c-0.011,0-0.032,0-0.032,0l-1.874,4.792
		c-0.021,0.062-0.083,0.113-0.178,0.113h-0.188c-0.084,0-0.155-0.052-0.177-0.113l-1.886-4.792c-0.011,0-0.031,0-0.042,0
		l-0.749,4.656c-0.011,0.074-0.105,0.145-0.188,0.145h-0.676c-0.146,0-0.22-0.093-0.198-0.238L132.343,203.74z"/>
	<path fill="#D2B0B0" d="M144.852,203.583c2.082,0,3.749,1.677,3.749,3.759c0,2.085-1.667,3.74-3.749,3.74
		c-2.085,0-3.741-1.655-3.741-3.74C141.11,205.26,142.767,203.583,144.852,203.583z M144.852,210.041
		c1.487,0,2.706-1.208,2.706-2.699c0-1.477-1.219-2.717-2.706-2.717c-1.479,0-2.701,1.24-2.701,2.717
		C142.15,208.833,143.372,210.041,144.852,210.041z"/>
	<path fill="#D2B0B0" d="M151.13,203.885c0-0.102,0.082-0.197,0.197-0.197h2.332c1.261,0,2.166,0.834,2.166,1.926
		c0,0.803-0.594,1.376-1.081,1.657c0.551,0.229,1.302,0.741,1.302,1.696c0,1.168-0.959,2.011-2.271,2.011h-2.446
		c-0.114,0-0.198-0.094-0.198-0.197V203.885L151.13,203.885z M153.764,210.021c0.636,0,1.126-0.489,1.126-1.135
		c0-0.635-0.604-1.094-1.281-1.094h-1.429v2.229H153.764z M153.597,206.853c0.666,0,1.074-0.487,1.074-1.114
		c0-0.634-0.408-1.073-1.074-1.073h-1.406v2.188H153.597L153.597,206.853z"/>
	<path fill="#D2B0B0" d="M158.647,203.885c0-0.102,0.094-0.197,0.198-0.197h0.688c0.104,0,0.198,0.096,0.198,0.197v6.896
		c0,0.104-0.095,0.197-0.198,0.197h-0.688c-0.104,0-0.198-0.094-0.198-0.197V203.885z"/>
	<path fill="#D2B0B0" d="M162.792,203.885c0-0.102,0.084-0.197,0.198-0.197h0.688c0.104,0,0.197,0.096,0.197,0.197v6.124h2.822
		c0.116,0,0.198,0.095,0.198,0.199v0.572c0,0.104-0.082,0.197-0.198,0.197h-3.707c-0.114,0-0.198-0.094-0.198-0.197V203.885z"/>
	<path fill="#D2B0B0" d="M169.028,203.885c0-0.102,0.084-0.197,0.199-0.197h4.166c0.114,0,0.196,0.096,0.196,0.197v0.585
		c0,0.103-0.082,0.196-0.196,0.196h-3.291v2.125h2.78c0.104,0,0.197,0.093,0.197,0.198v0.582c0,0.115-0.093,0.199-0.197,0.199h-2.78
		v2.238h3.291c0.114,0,0.196,0.094,0.196,0.198v0.573c0,0.103-0.082,0.196-0.196,0.196h-4.166c-0.115,0-0.199-0.094-0.199-0.196
		V203.885z M170.247,202.165c-0.083-0.038-0.113-0.145-0.062-0.248l0.241-0.461c0.051-0.092,0.208-0.072,0.27-0.03l1.636,0.949
		c0.062,0.031,0.104,0.113,0.062,0.197l-0.146,0.292c-0.042,0.094-0.104,0.113-0.249,0.053L170.247,202.165z"/>
	<path fill="#D2B0B0" d="M176.203,203.885c0-0.102,0.085-0.197,0.199-0.197h2.832c1.251,0,2.271,0.987,2.271,2.229
		c0,0.957-0.636,1.749-1.541,2.112l1.427,2.648c0.072,0.134,0,0.3-0.178,0.3h-0.812c-0.084,0-0.146-0.052-0.168-0.094l-1.385-2.76
		h-1.572v2.656c0,0.104-0.094,0.197-0.199,0.197h-0.675c-0.114,0-0.199-0.094-0.199-0.197L176.203,203.885L176.203,203.885z
		 M179.15,207.23c0.679,0,1.271-0.575,1.271-1.293c0-0.678-0.593-1.238-1.271-1.238h-1.853v2.531H179.15z"/>
	<path fill="#D2B0B0" d="M184.17,203.885c0-0.102,0.084-0.197,0.199-0.197h4.165c0.114,0,0.198,0.096,0.198,0.197v0.585
		c0,0.103-0.084,0.196-0.198,0.196h-3.291v2.125h2.781c0.104,0,0.197,0.093,0.197,0.198v0.582c0,0.115-0.093,0.199-0.197,0.199
		h-2.781v2.238h3.291c0.114,0,0.198,0.094,0.198,0.198v0.573c0,0.103-0.084,0.196-0.198,0.196h-4.165
		c-0.115,0-0.199-0.094-0.199-0.196V203.885z"/>
</g>
<path fill="none" stroke="#FFFFFF" stroke-width="0.5859" d="M70.946,176.786c-3.981,0.609-6.982,4.028-6.982,8.194
	c0,4.162,3.002,7.542,6.982,8.146"/>
<g>
	<path fill="#D2B0B0" d="M63.658,185.043c0-4.116,3.042-7.516,6.982-8.083v-1.159c-4.608,0.566-8.118,4.474-8.118,9.246
		c0,4.771,3.51,8.634,8.118,9.195v-1.157C66.646,192.542,63.658,189.212,63.658,185.043z"/>
	<path fill="#D2B0B0" d="M70.641,178.415v-1.013c-3.699,0.562-6.543,3.767-6.543,7.641c0,3.922,2.794,7.059,6.543,7.601v-1.016
		c-3.125-0.55-5.535-3.284-5.535-6.582C65.105,181.774,67.515,178.979,70.641,178.415z"/>
</g>
<g>
	<path fill="#D2B0B0" d="M72.973,191.626v1.02c3.75-0.55,6.544-3.684,6.544-7.602c0-3.867-2.845-7.07-6.544-7.642v1.018
		c3.134,0.571,5.536,3.361,5.536,6.627C78.508,188.337,76.107,191.068,72.973,191.626z"/>
	<path fill="#D2B0B0" d="M72.973,175.806v1.154c3.942,0.576,6.983,3.975,6.983,8.083c0,4.161-2.987,7.488-6.983,8.042v1.153
		c4.599-0.571,8.117-4.426,8.117-9.191C81.09,180.282,77.571,176.382,72.973,175.806z"/>
</g>
<path fill="none" stroke="#000000" stroke-width="1.1231" d="M217.501,108.699"/>
<path fill="#D2B0B0" d="M124.815,134.155c-3.349-6.12-5.085-11.282-5.102-11.335l-0.458-1.373l-0.588,1.323
	c-6.473,14.555-19.661,23.597-34.416,23.597c-20.231,0-36.836-17.29-38.181-39.091h-1.126c1.351,22.422,18.458,40.217,39.308,40.217
	c14.778,0,28.022-8.785,34.866-23.021c0.716,1.898,2.247,5.67,4.556,9.932c-8.994,14.167-23.708,22.614-39.422,22.614
	c-25.599,0-46.579-22.063-47.938-49.742h-1.126c1.362,28.301,22.847,50.865,49.064,50.865c16.206,0,31.364-8.756,40.548-23.42
	l0.175-0.278L124.815,134.155z"/>
<rect x="35.187" y="98.433" fill="#D2B0B0" width="181.807" height="8.845"/>
<path fill="#D2B0B0" d="M117.299,98.465h1.125c-0.013-0.271-0.032-0.526-0.042-0.802c-0.548-15.519,3.926-29.331,13.301-41.05
	c9.56-11.953,21.593-18.366,35.759-19.06c0.859-0.042,1.713-0.063,2.561-0.063c13.244,0,25.017,5.229,34.994,15.539
	c2.005,2.074,3.859,4.257,5.52,6.497l-7.88,3.772c-0.949-1.185-1.945-2.349-2.972-3.48c-9.033-9.255-19.721-13.645-31.788-13.057
	c-11.994,0.587-22.168,6.021-30.242,16.15c-7.998,10.034-11.752,21.995-11.169,35.553h1.124c-0.582-13.3,3.089-25.026,10.923-34.854
	c7.866-9.866,17.762-15.157,29.418-15.728c11.715-0.574,22.131,3.704,30.915,12.704c1.1,1.209,2.171,2.473,3.191,3.758l0.279,0.351
	l9.901-4.739l-0.392-0.545c-1.794-2.474-3.817-4.885-6.022-7.164c-10.847-11.21-23.776-16.52-38.416-15.816
	c-14.502,0.71-26.811,7.264-36.581,19.478c-9.546,11.936-14.104,25.997-13.545,41.794C117.271,97.965,117.288,98.207,117.299,98.465
	z"/>
<g>
	<path fill="#D2B0B0" d="M121.89,98.49h0.788c-0.021-0.424-0.049-0.831-0.064-1.266c-0.5-14.101,3.564-26.651,12.083-37.304
		c8.695-10.868,19.635-16.697,32.515-17.328c13.568-0.656,25.131,3.851,34.381,13.41c0.813,0.845,1.59,1.696,2.312,2.531
		l0.595-0.514c-0.73-0.846-1.517-1.708-2.341-2.564c-9.416-9.73-21.192-14.329-34.984-13.648
		c-13.115,0.642-24.248,6.569-33.09,17.622c-8.64,10.804-12.763,23.529-12.256,37.822C121.841,97.678,121.87,98.075,121.89,98.49z"
		/>
	<path fill="#D2B0B0" d="M210.68,111.545l-0.099,0.61c-3.814,22.652-21.869,39.094-42.931,39.094
		c-17.216,0-32.873-11.133-39.905-28.389c-0.035-0.068-2.743-5.488-4.233-15.641h-0.794c1.51,10.374,4.289,15.922,4.313,15.969
		c7.138,17.523,23.082,28.847,40.618,28.847c21.447,0,39.829-16.716,43.707-39.753l0.097-0.607L210.68,111.545z"/>
</g>
<path fill="#D2B0B0" d="M206.121,107.22c-1.277,22.005-18.059,39.239-38.201,39.239c-13.734,0-26.524-8.197-33.375-21.394
	c-3.621-6.967-5.322-13.175-6.139-17.873h-1.089c1.07,6.282,3.14,12.444,6.23,18.39c7.047,13.569,20.216,22,34.372,22
	c20.576,0,37.739-17.426,39.286-39.769h8.636c-1.563,27.69-22.51,49.298-47.922,49.298c-18.928,0-36.148-12.243-43.886-31.233
	c-0.041-0.08-3.288-6.552-4.871-18.686h-1.144c1.573,12.371,4.842,18.861,4.995,19.153c7.891,19.373,25.517,31.889,44.905,31.889
	c26.194,0,47.748-22.383,49.073-50.957l-0.012-0.058H206.121L206.121,107.22z"/>
</svg>
