<?xml version="1.0" encoding="utf-8"?>
<!-- Generator: Adobe Illustrator 16.0.0, SVG Export Plug-In . SVG Version: 6.00 Build 0)  -->
<!DOCTYPE svg PUBLIC "-//W3C//DTD SVG 1.1//EN" "http://www.w3.org/Graphics/SVG/1.1/DTD/svg11.dtd">
<svg version="1.1" id="Calque_1" xmlns="http://www.w3.org/2000/svg" xmlns:xlink="http://www.w3.org/1999/xlink" x="0px" y="0px"
	 width="211px" height="225px" viewBox="92.5 51.5 211 225" enable-background="new 92.5 51.5 211 225" xml:space="preserve">
<g>
	<path fill="#D2B0B0" d="M195.795,226.775l-7.322-8.029l0.001-4.625l0.181-0.139c7.872-6.008,12.387-15.525,12.387-26.111
		c0-5.885-1.883-12.566-5.166-18.333l-3.968-6.884c-3.083-5.677-7.127-14.354-6.712-24.233c0.61-14.451,7.513-27.964,18.94-37.075
		l0.337-0.269l6.888,7.552v4.111l-0.18,0.138c-7.757,5.969-12.77,15.967-12.77,25.471c0,5.149,1.158,10.078,3.351,14.254
		c0.3,0.57,1.135,2.267,2.188,4.415c1.827,3.722,4.331,8.819,5.235,10.435c3.989,7.117,6.012,14.397,6.012,21.637
		c0,8.822-3.307,22.463-19.062,37.361L195.795,226.775z M189.395,218.391l6.449,7.072c15.225-14.549,18.436-27.794,18.436-36.37
		c0-7.082-1.982-14.211-5.895-21.19c-0.914-1.635-3.426-6.747-5.257-10.478c-1.011-2.057-1.884-3.833-2.179-4.394
		c-2.261-4.307-3.457-9.384-3.457-14.682c0-9.705,5.076-19.908,12.95-26.061v-3.303l-6.066-6.651
		c-11.019,8.94-17.668,22.083-18.26,36.125c-0.406,9.65,3.57,18.173,6.595,23.744l3.964,6.875c3.36,5.903,5.288,12.752,5.288,18.792
		c0,10.794-4.577,20.511-12.568,26.702L189.395,218.391z"/>
</g>
<g>
	<path fill="#D2B0B0" d="M195.976,216.888h-7.041v-0.613h6.805c7.595-6.938,12.125-17.276,12.125-27.683
		c0-6.507-1.707-13.037-4.938-18.884l-0.669-1.216c-1.537-2.796-4.735-8.612-5.522-9.933c-3.395-5.713-5.192-12.606-5.192-19.934
		c0-11.674,4.68-22.315,12.519-28.466l0.083-0.065h6.445v0.614h-6.232c-7.641,6.045-12.201,16.472-12.201,27.918
		c0,7.217,1.766,14.002,5.106,19.62c0.792,1.332,3.993,7.156,5.533,9.953l0.668,1.214c3.281,5.938,5.015,12.571,5.015,19.18
		c0,10.618-4.64,21.166-12.412,28.217L195.976,216.888z"/>
</g>
<g>
	<g>
		<path fill="#D2B0B0" d="M144.421,181.271l-7.638-7.651v-3.197l31.856-31.819l7.381,7.391l-0.001,3.715L144.421,181.271z
			 M137.703,173.24l6.718,6.729l30.678-30.641l0.001-2.953l-6.462-6.47l-30.936,30.898V173.24z"/>
	</g>
	<g>
		<polygon fill="#D2B0B0" points="144.696,172.188 137.584,172.188 137.584,171.574 144.442,171.574 168.637,147.411 
			175.149,147.411 175.149,148.024 168.891,148.024 		"/>
	</g>
</g>
<g>
	<g>
		<path fill="#D2B0B0" d="M232.328,188.387l-7.639-7.648v-3.198l31.857-31.819l7.381,7.391l-0.003,3.715L232.328,188.387z
			 M225.608,180.357l6.72,6.729l30.679-30.641l0.002-2.953l-6.462-6.47l-30.937,30.899L225.608,180.357L225.608,180.357z"/>
	</g>
	<g>
		<polygon fill="#D2B0B0" points="232.604,179.306 225.49,179.306 225.49,178.692 232.35,178.692 256.543,154.528 263.056,154.528 
			263.056,155.142 256.797,155.142 		"/>
	</g>
</g>
<polygon fill="#D2B0B0" points="188.935,159.896 165.17,159.896 156.807,168.25 193.469,168.25 "/>
<polygon fill="#D2B0B0" points="211.116,168.25 234.881,168.25 243.244,159.896 206.583,159.896 "/>
<path fill="#D2B0B0" d="M131.521,166.969c0,1.871-1.519,3.389-3.389,3.389s-3.388-1.52-3.388-3.389c0-1.873,2.249-3.723,3.388-6.576
	C129.361,163.109,131.521,165.096,131.521,166.969z"/>
<path fill="#D2B0B0" d="M274.003,166.969c0,1.871-1.519,3.389-3.389,3.389s-3.389-1.518-3.389-3.389
	c0-1.873,2.248-3.723,3.387-6.576C271.843,163.109,274.003,165.096,274.003,166.969z"/>
<g>
	<g>
		<path fill="#D2B0B0" d="M149.548,95.911l0.208-0.145c0.627,0.571,1.597,0.878,2.347,0.354c0.697-0.486,0.898-1.354,0.399-2.069
			c-1.175-1.683-3.508,0.684-4.997-1.452c-0.815-1.167-0.405-2.354,0.699-3.125c0.371-0.259,0.8-0.437,1.199-0.635l0.954,1.057
			l-0.208,0.146c-0.543-0.564-1.217-0.645-1.871-0.19c-0.688,0.48-0.737,1.256-0.276,1.917c1.175,1.683,3.641-0.724,5.093,1.357
			c0.821,1.176,0.223,2.576-0.845,3.322c-0.472,0.328-1.035,0.562-1.599,0.659L149.548,95.911z"/>
		<path fill="#D2B0B0" d="M159.306,89.263c0.35,0.295,1.078,0.959,1.352,1.082c0.254,0.108,0.578,0.01,0.884-0.167l0.144,0.249
			c-0.364,0.21-0.748,0.406-1.112,0.616c-0.47,0.271-0.923,0.546-1.387,0.826l-0.142-0.249l0.171-0.1
			c0.24-0.138,0.498-0.351,0.345-0.619c-0.061-0.105-0.292-0.329-0.464-0.472l-1.279-1.111l-2.248,1.297l0.176,0.792
			c0.107,0.473,0.228,0.991,0.397,1.288c0.259,0.449,0.563,0.248,0.91,0.074l0.219-0.127l0.144,0.248
			c-0.372,0.215-0.767,0.417-1.139,0.633c-0.382,0.22-0.77,0.456-1.146,0.687l-0.144-0.249c0.545-0.403,0.606-0.541,0.536-1.214
			c-0.045-0.433-0.146-0.872-0.226-1.297l-0.747-4.122c-0.051-0.264-0.131-0.69-0.296-0.977c-0.055-0.096-0.1-0.173-0.163-0.238
			c0.146-0.211,0.305-0.444,0.312-0.741l0.163-0.094L159.306,89.263z M155.48,90.145l1.97-1.137l-2.645-2.221l-0.019,0.011
			L155.48,90.145z"/>
		<path fill="#D2B0B0" d="M165.074,87.67c0.324,0.701,0.709,0.534,1.245,0.297l0.121,0.261c-0.506,0.222-0.971,0.426-1.431,0.64
			c-0.451,0.209-0.906,0.433-1.373,0.662l-0.12-0.261c0.525-0.256,0.902-0.444,0.575-1.144l-1.125-2.423l-3.432-1.912
			c-0.482-0.275-0.523-0.232-1.137-0.008l-0.12-0.259c0.194-0.079,0.939-0.413,1.401-0.627c0.411-0.191,0.802-0.396,1.212-0.588
			l0.121,0.261c-0.161,0.074-0.561,0.26-0.463,0.471c0.056,0.119,0.302,0.285,0.619,0.467l2.318,1.321l0.478-2.401
			c0.041-0.227,0.164-0.673,0.056-0.903c-0.135-0.291-0.335-0.198-0.846,0.039l-0.12-0.259c0.385-0.167,0.78-0.338,1.161-0.515
			c0.27-0.126,0.531-0.271,0.812-0.402l0.121,0.26c-0.417,0.205-0.48,0.563-0.562,0.967l-0.713,3.472L165.074,87.67z"/>
		<path fill="#D2B0B0" d="M178.087,79.744l-0.657-2.315c-0.211-0.744-0.618-0.64-1.184-0.491l-0.079-0.278
			c0.566-0.149,1.068-0.28,1.577-0.424c0.457-0.129,0.918-0.284,1.396-0.417l0.078,0.276c-0.56,0.17-0.959,0.295-0.75,1.039
			l1.513,5.333c0.211,0.743,0.618,0.64,1.184,0.49l0.079,0.276c-0.479,0.124-0.96,0.25-1.44,0.385
			c-0.498,0.142-0.984,0.291-1.534,0.458l-0.079-0.277c0.56-0.169,0.96-0.295,0.75-1.038l-0.731-2.582l-4.292,1.217l0.731,2.581
			c0.212,0.744,0.619,0.64,1.185,0.491l0.078,0.276c-0.51,0.145-0.972,0.253-1.441,0.386c-0.51,0.145-1.006,0.297-1.534,0.458
			l-0.078-0.276c0.56-0.17,0.96-0.295,0.751-1.04l-1.515-5.332c-0.21-0.744-0.617-0.64-1.184-0.491l-0.078-0.278
			c0.502-0.131,0.993-0.26,1.471-0.395c0.489-0.139,0.974-0.289,1.501-0.447l0.078,0.276c-0.559,0.17-0.959,0.295-0.75,1.039
			l0.657,2.315L178.087,79.744z"/>
		<path fill="#D2B0B0" d="M186.586,81.21c0.127,0.763,0.544,0.705,1.123,0.62l0.047,0.283c-0.546,0.08-1.049,0.153-1.551,0.236
			c-0.49,0.082-0.988,0.176-1.498,0.272l-0.047-0.283c0.576-0.108,0.988-0.188,0.86-0.951l-0.44-2.636l-2.798-2.758
			c-0.391-0.395-0.441-0.363-1.093-0.311l-0.047-0.285c0.209-0.024,1.017-0.147,1.519-0.231c0.447-0.075,0.879-0.169,1.326-0.242
			l0.046,0.283c-0.173,0.03-0.609,0.102-0.572,0.331c0.022,0.13,0.217,0.355,0.473,0.615l1.882,1.893l1.102-2.188
			c0.1-0.207,0.336-0.604,0.294-0.855c-0.053-0.316-0.271-0.28-0.828-0.188l-0.046-0.285c0.416-0.058,0.843-0.117,1.256-0.187
			c0.294-0.049,0.585-0.12,0.89-0.168l0.046,0.283c-0.454,0.088-0.613,0.416-0.799,0.783l-1.612,3.157L186.586,81.21z"/>
		<path fill="#D2B0B0" d="M190.422,73.992c0.498-0.014,0.993-0.049,1.49-0.085c0.374-0.027,0.757-0.078,1.22-0.11
			c1.136-0.083,2.798,0.274,2.924,1.992c0.094,1.301-1.052,2.292-2.21,2.375c-0.219,0.016-0.396,0.018-0.562,0.03l-0.026-0.363
			c0.145,0.012,0.277,0.002,0.421-0.009c0.947-0.068,1.299-1.035,1.24-1.828c-0.11-1.531-1.21-1.883-1.936-1.831
			c-0.167,0.012-0.364,0.037-0.482,0.067l0.448,6.223c0.057,0.772,0.475,0.752,1.071,0.72l0.021,0.287
			c-0.54,0.039-1.016,0.051-1.5,0.086c-0.527,0.038-1.046,0.087-1.596,0.138l-0.021-0.287c0.583-0.053,1.001-0.094,0.945-0.866
			l-0.378-5.243c-0.062-0.848-0.22-1.069-1.048-1.01L190.422,73.992z"/>
		<path fill="#D2B0B0" d="M200.01,77.046l1.457,0.023c0.894,0.014,0.904-0.681,0.94-0.934l0.221,0.002
			c-0.026,0.243-0.058,0.838-0.063,1.236c-0.007,0.353,0.039,0.873,0.024,1.226l-0.221-0.003c0.018-1.06-0.336-1.064-1.185-1.079
			L200,77.499l-0.03,1.876c-0.02,1.225,0.02,1.534,1.112,1.552l0.683,0.011c1.083-0.038,1.571-0.173,2.02-1.347l0.266,0.049
			c-0.186,0.548-0.359,1.108-0.479,1.68c-1.104-0.017-2.207-0.058-3.31-0.075c-0.816-0.013-1.633-0.026-2.45-0.018l0.004-0.287
			c0.959,0.015,1.051-0.16,1.069-1.23l0.078-4.898c0.014-0.906-0.163-0.952-1.033-1l0.004-0.289c0.739,0.034,1.491,0.045,2.23,0.058
			c1.059,0.017,2.107,0.034,3.178,0.031l-0.026,1.644l-0.222,0.052c-0.146-1.04-0.641-1.357-1.744-1.375l-1.29-0.021L200.01,77.046z
			"/>
		<path fill="#D2B0B0" d="M209.448,79.965l0.251,0.037c0.068,0.846,0.569,1.73,1.477,1.858c0.841,0.119,1.579-0.378,1.702-1.242
			c0.287-2.033-3.033-1.889-2.67-4.469c0.198-1.41,1.309-2.001,2.642-1.812c0.448,0.064,0.883,0.225,1.311,0.352l-0.022,1.424
			l-0.25-0.036c-0.013-0.782-0.451-1.302-1.239-1.413c-0.83-0.117-1.396,0.416-1.509,1.214c-0.288,2.033,3.157,1.952,2.802,4.465
			c-0.2,1.421-1.594,2.039-2.882,1.856c-0.568-0.081-1.14-0.294-1.62-0.608L209.448,79.965z"/>
		<path fill="#D2B0B0" d="M223.117,78.031l-0.292-0.067c0.101-0.588,0.222-0.968-0.64-1.166l-1.635-0.375l-1.382,6.017
			c-0.171,0.754,0.233,0.857,0.803,1l-0.063,0.28c-0.517-0.118-0.976-0.246-1.446-0.355c-0.519-0.118-1.026-0.224-1.567-0.337
			l0.063-0.279c0.573,0.12,0.984,0.203,1.158-0.55l1.381-6.017l-1.41-0.323c-0.969-0.223-1.073,0.036-1.417,0.694l-0.28-0.063
			l0.512-1.685l0.215,0.05c0.053,0.318,0.341,0.395,0.609,0.457l4.887,1.121c0.387,0.09,0.679,0.054,0.769-0.14l0.226,0.052
			L223.117,78.031z"/>
		<path fill="#D2B0B0" d="M232.426,79.856c-0.837-0.284-0.965,0.127-1.397,1.403l-1.021,3.011c-0.48,1.421-1.73,2.186-3.57,1.562
			c-1.725-0.585-2.477-1.773-1.904-3.561l1.294-3.816c0.247-0.731-0.146-0.877-0.695-1.075l0.09-0.269
			c0.488,0.177,0.965,0.351,1.437,0.51c0.48,0.164,0.965,0.316,1.493,0.48l-0.093,0.271c-0.557-0.178-0.958-0.301-1.207,0.43
			l-1.205,3.554c-0.422,1.244-0.422,2.584,1.208,3.138c1.735,0.589,2.356-0.692,2.602-1.414l1.01-2.979
			c0.581-1.715,0.508-1.704-0.412-2.051l0.092-0.27c0.436,0.16,0.871,0.319,1.311,0.468c0.355,0.121,0.707,0.217,1.062,0.335
			L232.426,79.856z"/>
		<path fill="#D2B0B0" d="M234.706,81.83c0.421-0.901-0.079-1.061-0.523-1.28l0.12-0.26c0.381,0.202,0.781,0.389,1.172,0.571
			c0.422,0.195,1.001,0.441,1.742,0.784c2.594,1.208,3.201,3.597,2.373,5.369c-0.461,0.992-2.201,3.215-5.747,1.565
			c-0.509-0.238-0.972-0.477-1.442-0.696c-0.45-0.21-0.896-0.405-1.352-0.604l0.121-0.261c0.628,0.22,0.929,0.335,1.276-0.333
			L234.706,81.83z M233.502,86.983c-0.359,0.772,0.15,1.118,0.642,1.346c2.162,1.007,3.633-0.294,4.329-1.787
			c0.871-1.873,0.297-3.784-1.634-4.684c-0.41-0.191-0.614-0.249-0.801-0.323L233.502,86.983z"/>
		<path fill="#D2B0B0" d="M243.504,86.052c0.382-0.671,0.022-0.889-0.479-1.188l0.142-0.248c0.446,0.267,0.882,0.527,1.314,0.773
			c0.44,0.251,0.887,0.494,1.371,0.755l-0.141,0.25c-0.514-0.28-0.883-0.478-1.267,0.193l-2.743,4.815
			c-0.382,0.671-0.024,0.889,0.479,1.188l-0.142,0.249c-0.461-0.263-0.862-0.517-1.285-0.757c-0.46-0.262-0.917-0.509-1.402-0.773
			l0.143-0.249c0.515,0.28,0.882,0.478,1.266-0.193L243.504,86.052z"/>
		<path fill="#D2B0B0" d="M251.186,89.38c1.817,1.254,2.178,3.784,0.986,5.51c-1.147,1.663-3.591,2.46-5.581,1.086
			c-1.817-1.254-2.178-3.783-0.985-5.51C246.753,88.805,249.194,88.008,251.186,89.38z M246.902,95.762
			c1.326,0.916,2.952,0.347,4.088-1.297c0.954-1.381,1.439-3.796-0.116-4.869c-1.326-0.915-2.952-0.347-4.088,1.297
			C245.834,92.275,245.349,94.689,246.902,95.762z"/>
	</g>
</g>
<g>
	<path fill="#D2B0B0" d="M159.601,240.044l-0.187-0.108c0.348-1.112-0.251-1.98-1.202-2.529c-1.504-0.868-3.131-0.051-3.931,1.334
		c-0.848,1.471-0.796,3.462,0.734,4.344c0.671,0.387,1.157,0.35,1.338,0.33l0.73-1.265c0.358-0.622,0.035-0.807-0.415-1.066
		l0.127-0.222c0.395,0.24,0.78,0.473,1.163,0.695c0.391,0.224,0.787,0.442,1.046,0.58l-0.127,0.222
		c-0.28-0.163-0.602-0.349-0.96,0.271l-0.644,1.112l0.055,0.201l-0.084,0.145c-0.831-0.151-1.75-0.366-2.489-0.791
		c-2.389-1.378-2.185-3.753-1.483-4.969c1.03-1.784,3.175-2.303,4.952-1.278c0.755,0.438,1.366,1.049,1.919,1.722L159.601,240.044z"
		/>
	<path fill="#D2B0B0" d="M162.221,243.38l-0.944,2.071c-0.285,0.625,0.05,0.789,0.52,1.014l-0.105,0.232
		c-0.429-0.195-0.805-0.39-1.197-0.568c-0.427-0.195-0.853-0.377-1.303-0.573l0.107-0.232c0.434,0.23,0.853,0.281,1.085-0.228
		l2.064-4.527c0.285-0.627-0.05-0.788-0.521-1.013l0.107-0.235c0.487,0.233,0.91,0.438,1.348,0.637
		c0.313,0.142,0.633,0.269,1.205,0.529c1.688,0.771,1.63,1.886,1.342,2.521c-0.346,0.759-1.174,1.062-1.964,0.948
		c0.271,1.559,0.373,2.468,0.562,3.071c0.141,0.451,0.297,0.814,0.754,1.023l-0.105,0.233c-0.223-0.103-0.44-0.222-0.662-0.323
		c-0.25-0.115-0.513-0.222-0.767-0.329c-0.406-1.263-0.527-2.579-0.71-3.881L162.221,243.38z M164.125,240.625
		c-0.222-0.103-0.387-0.145-0.558-0.192l-1.193,2.618c0.122,0.09,0.301,0.191,0.453,0.26c1.099,0.501,1.855-0.026,2.15-0.669
		C165.328,241.863,165.179,241.104,164.125,240.625z"/>
	<path fill="#D2B0B0" d="M172.44,248.825c0.003,0.406-0.021,1.281,0.057,1.537c0.075,0.233,0.33,0.396,0.626,0.497l-0.085,0.243
		c-0.352-0.122-0.705-0.268-1.059-0.39c-0.454-0.16-0.903-0.305-1.359-0.453l0.084-0.242l0.166,0.06
		c0.231,0.081,0.525,0.132,0.616-0.128c0.037-0.103,0.052-0.388,0.048-0.586l0.006-1.505l-2.179-0.758l-0.429,0.576
		c-0.256,0.347-0.534,0.729-0.634,1.016c-0.152,0.436,0.16,0.523,0.477,0.653l0.214,0.074l-0.085,0.24
		c-0.361-0.124-0.726-0.271-1.086-0.397c-0.37-0.129-0.753-0.251-1.127-0.37l0.084-0.242c0.588,0.132,0.716,0.093,1.128-0.345
		c0.266-0.281,0.501-0.604,0.742-0.906l2.338-2.895c0.148-0.188,0.388-0.488,0.485-0.766c0.032-0.093,0.058-0.167,0.064-0.247
		c0.227-0.025,0.475-0.053,0.679-0.221l0.158,0.057L172.44,248.825z M169.626,246.764l1.907,0.665l-0.041-3.069l-0.018-0.006
		L169.626,246.764z"/>
	<path fill="#D2B0B0" d="M176.393,244.919c0.422,0.128,0.852,0.238,1.28,0.348c0.322,0.084,0.66,0.149,1.061,0.253
		c0.979,0.251,2.282,1.021,1.901,2.505c-0.288,1.122-1.534,1.634-2.533,1.377c-0.19-0.049-0.339-0.098-0.483-0.136l0.082-0.313
		c0.117,0.051,0.232,0.08,0.356,0.113c0.817,0.209,1.387-0.506,1.562-1.189c0.339-1.322-0.487-1.931-1.115-2.092
		c-0.142-0.036-0.317-0.07-0.426-0.078l-1.38,5.372c-0.169,0.666,0.189,0.768,0.7,0.909l-0.064,0.247
		c-0.465-0.119-0.87-0.243-1.288-0.351c-0.456-0.117-0.907-0.223-1.384-0.335l0.064-0.248c0.506,0.121,0.87,0.204,1.041-0.462
		l1.163-4.526c0.189-0.731,0.116-0.963-0.598-1.146L176.393,244.919z"/>
	<path fill="#D2B0B0" d="M187.531,250.444l0.345-2.112c0.11-0.677-0.256-0.747-0.768-0.839l0.04-0.249
		c0.512,0.091,0.966,0.177,1.43,0.253c0.418,0.065,0.846,0.116,1.284,0.187l-0.042,0.252c-0.515-0.074-0.884-0.125-0.996,0.554
		l-0.793,4.862c-0.111,0.678,0.256,0.749,0.767,0.842l-0.041,0.252c-0.434-0.082-0.869-0.162-1.305-0.234
		c-0.455-0.073-0.902-0.139-1.407-0.21l0.041-0.251c0.515,0.074,0.883,0.124,0.995-0.553l0.385-2.354l-3.913-0.639l-0.384,2.354
		c-0.112,0.678,0.255,0.748,0.768,0.842l-0.041,0.252c-0.465-0.076-0.878-0.166-1.305-0.234c-0.465-0.076-0.922-0.141-1.408-0.211
		l0.042-0.251c0.515,0.074,0.883,0.124,0.994-0.553l0.795-4.863c0.111-0.677-0.256-0.749-0.767-0.842l0.04-0.248
		c0.454,0.085,0.898,0.166,1.333,0.238c0.447,0.072,0.893,0.138,1.379,0.202l-0.04,0.252c-0.515-0.073-0.884-0.124-0.996,0.553
		l-0.345,2.111L187.531,250.444z"/>
	<path fill="#D2B0B0" d="M191.863,248.773c0.059-0.685-0.312-0.727-0.831-0.78l0.022-0.253c0.459,0.049,0.908,0.099,1.348,0.137
		c0.45,0.038,0.9,0.067,1.391,0.097l-0.021,0.256c-0.521-0.036-0.892-0.058-0.952,0.626l-0.422,4.91
		c-0.06,0.685,0.312,0.727,0.83,0.78l-0.022,0.255c-0.47-0.041-0.887-0.097-1.317-0.134c-0.471-0.04-0.931-0.069-1.42-0.103
		l0.022-0.255c0.519,0.035,0.892,0.058,0.95-0.627L191.863,248.773z"/>
	<path fill="#D2B0B0" d="M201.393,249.992l-0.245-0.005c-0.166-1.149-0.973-1.625-2.071-1.646c-1.128-0.019-2.779,0.708-2.819,3.062
		c-0.035,1.98,1.354,3.428,2.864,3.454c0.971,0.016,1.787-0.637,2.001-1.663l0.224,0.063l-0.25,1.429
		c-0.416,0.247-1.529,0.494-2.177,0.481c-2.295-0.038-3.721-1.547-3.683-3.751c0.035-2.011,1.853-3.422,3.777-3.388
		c0.794,0.013,1.554,0.281,2.306,0.56L201.393,249.992z"/>
	<path fill="#D2B0B0" d="M207.229,248.982c-0.104-0.877-0.555-0.765-0.995-0.723l-0.03-0.25c0.382-0.025,0.772-0.07,1.152-0.116
		c0.409-0.048,0.962-0.133,1.684-0.22c2.522-0.299,4.096,1.225,4.3,2.951c0.115,0.963-0.165,3.457-3.613,3.864
		c-0.498,0.059-0.958,0.092-1.417,0.146c-0.438,0.053-0.865,0.114-1.304,0.174l-0.029-0.253c0.577-0.128,0.857-0.181,0.809-0.847
		L207.229,248.982z M208.722,253.438c0.089,0.752,0.634,0.776,1.111,0.72c2.105-0.248,2.608-1.919,2.438-3.371
		c-0.216-1.821-1.54-2.999-3.419-2.775c-0.399,0.047-0.581,0.098-0.755,0.129L208.722,253.438z"/>
	<path fill="#D2B0B0" d="M216.956,249.584l1.267-0.268c0.778-0.162,0.651-0.768,0.634-0.994l0.191-0.039
		c0.024,0.216,0.114,0.737,0.187,1.083c0.064,0.308,0.207,0.75,0.262,1.059l-0.191,0.04c-0.193-0.922-0.5-0.857-1.239-0.702
		l-1.028,0.215l0.344,1.633c0.223,1.065,0.319,1.326,1.268,1.127l0.596-0.124c0.933-0.245,1.328-0.459,1.486-1.564l0.24-0.011
		c-0.053,0.513-0.095,1.033-0.087,1.55c-0.959,0.202-1.926,0.384-2.884,0.585c-0.711,0.148-1.421,0.298-2.129,0.467l-0.053-0.249
		c0.835-0.176,0.882-0.345,0.685-1.276l-0.893-4.263c-0.166-0.787-0.327-0.794-1.092-0.664l-0.053-0.25
		c0.649-0.115,1.301-0.252,1.944-0.387c0.921-0.193,1.834-0.385,2.762-0.599l0.299,1.43l-0.182,0.09
		c-0.333-0.873-0.822-1.052-1.781-0.851l-1.124,0.235L216.956,249.584z"/>
	<path fill="#D2B0B0" d="M222.554,250.492l0.217-0.062c0.363,0.661,1.09,1.198,1.875,0.973c0.727-0.21,1.145-0.882,0.932-1.627
		c-0.505-1.754-3.148-0.433-3.789-2.658c-0.351-1.217,0.336-2.1,1.487-2.43c0.387-0.112,0.798-0.139,1.191-0.19l0.498,1.163
		l-0.217,0.064c-0.294-0.631-0.839-0.893-1.52-0.697c-0.717,0.206-0.983,0.844-0.784,1.533c0.504,1.752,3.271,0.437,3.896,2.606
		c0.354,1.227-0.552,2.233-1.666,2.552c-0.491,0.142-1.034,0.174-1.536,0.095L222.554,250.492z"/>
	<path fill="#D2B0B0" d="M227.451,244.523c-0.228-0.648-0.581-0.533-1.076-0.37l-0.085-0.238c0.438-0.144,0.867-0.284,1.285-0.43
		c0.426-0.149,0.85-0.309,1.31-0.482l0.085,0.241c-0.487,0.182-0.837,0.315-0.608,0.962l1.629,4.651
		c0.229,0.648,0.583,0.535,1.077,0.372l0.085,0.24c-0.444,0.156-0.85,0.277-1.258,0.421c-0.444,0.157-0.877,0.318-1.337,0.49
		l-0.085-0.242c0.487-0.182,0.836-0.314,0.609-0.962L227.451,244.523z"/>
	<path fill="#D2B0B0" d="M236.816,241.606l-0.197,0.087c-0.688-0.942-1.741-0.978-2.748-0.539c-1.596,0.692-1.905,2.486-1.269,3.954
		c0.677,1.558,2.309,2.699,3.929,1.996c0.71-0.31,0.971-0.722,1.062-0.881l-0.584-1.342c-0.285-0.657-0.626-0.508-1.104-0.301
		l-0.102-0.232c0.427-0.175,0.845-0.347,1.249-0.524c0.415-0.18,0.826-0.368,1.091-0.496l0.103,0.234
		c-0.297,0.129-0.64,0.277-0.354,0.935l0.512,1.179l0.194,0.077l0.064,0.153c-0.616,0.577-1.335,1.188-2.118,1.529
		c-2.529,1.101-4.317-0.478-4.877-1.766c-0.821-1.89,0.039-3.924,1.923-4.741c0.801-0.348,1.654-0.473,2.523-0.52L236.816,241.606z"
		/>
	<path fill="#D2B0B0" d="M246.982,241.983l-0.197,0.111l-7.235-2.393l1.796,3.19c0.663,1.181,0.892,1.366,1.815,0.848l0.126,0.221
		c-0.377,0.213-0.772,0.411-1.147,0.624c-0.376,0.212-0.756,0.437-1.129,0.655l-0.124-0.221c0.522-0.293,0.914-0.515,0.304-1.599
		l-1.935-3.439c-0.413-0.735-0.879-0.823-1.614-0.409l-0.125-0.223c0.27-0.14,0.532-0.276,0.797-0.425
		c0.231-0.131,0.461-0.281,0.691-0.411c0.646,0.324,1.878,0.654,3.461,1.186c1.18,0.396,2.459,0.789,3.396,1.096l-1.914-3.405
		c-0.443-0.786-0.757-0.926-1.617-0.453l-0.125-0.221c0.396-0.214,0.805-0.431,1.198-0.651c0.334-0.189,0.649-0.388,0.982-0.575
		l0.125,0.221c-0.522,0.294-0.779,0.496-0.309,1.335L246.982,241.983z"/>
</g>
</svg>
