<?xml version="1.0" encoding="utf-8"?>
<!-- Generator: Adobe Illustrator 16.0.0, SVG Export Plug-In . SVG Version: 6.00 Build 0)  -->
<!DOCTYPE svg PUBLIC "-//W3C//DTD SVG 1.1//EN" "http://www.w3.org/Graphics/SVG/1.1/DTD/svg11.dtd">
<svg version="1.1" id="Calque_1" xmlns="http://www.w3.org/2000/svg" xmlns:xlink="http://www.w3.org/1999/xlink" x="0px" y="0px"
	 width="250px" height="250px" viewBox="0 0 250 250" enable-background="new 0 0 250 250" xml:space="preserve">
<g>
	<path fill="#D2B0B0" d="M127.79,162.824H99.907v-1.427h27.883c8.929,0,9.344-8.901,9.356-9.281V46.802L18.336,161.349h8.71v1.427
		H16.567c-0.292,0-0.553-0.177-0.662-0.447c-0.108-0.27-0.042-0.578,0.167-0.779L137.365,44.609
		c0.205-0.199,0.511-0.255,0.773-0.143c0.264,0.112,0.436,0.371,0.436,0.657v107.019
		C138.569,152.272,138.079,162.824,127.79,162.824z"/>
</g>
<g>
	<path fill="#D2B0B0" d="M118.119,162.801v-1.428c8.902,0,9.344-8.9,9.358-9.28V54.62h1.428v97.5
		C128.899,152.25,128.408,162.801,118.119,162.801z"/>
</g>
<g>
	<path fill="#D2B0B0" d="M184.907,164.726l-0.164-1.418c20.568-2.361,33.859-23.189,33.859-53.065
		c0-40.4-11.688-62.07-33.804-62.666l0.037-1.427c16.056,0.433,35.194,11.904,35.194,64.093
		C220.03,140.891,206.242,162.276,184.907,164.726z"/>
</g>
<g>
	<path fill="#D2B0B0" d="M185.553,164.73c-17.531,0-28.938-7.632-36.987-24.741l1.291-0.608
		c7.783,16.544,18.792,23.922,35.696,23.922c26.104,0,46.553-24.545,46.553-55.881c0-16.699-3.803-31.111-10.998-41.678
		c-0.013-0.019-0.74-1.155-1.487-2.275c-6.82-10.225-17.755-16.329-29.252-16.329c-6.34,0-12.553,1.781-17.97,5.15
		c-0.008,0.006-1.553,0.993-2.63,1.899c-1.086,0.913-3.341,2.812-5.843,5.243l-44.693,43.417v38.115
		c-0.013,0.719-0.016,1.399-0.019,2.05c-0.008,1.584-0.014,2.955-0.14,4.112c0.065,5.638-1.958,10.129-5.844,12.9
		c-5.182,3.699-12.529,3.569-17.509,1.799c-4.508-1.602-8.306-5.623-10.16-10.757c-1.878-5.204-1.402-10.804,1.309-15.36
		c5.559-9.354,29.044-31.648,30.04-32.593l0.896-0.87V63.234h1.427v37.624l43.698-42.451c2.539-2.465,4.821-4.387,5.918-5.311
		c1.151-0.968,2.724-1.972,2.791-2.015c5.648-3.514,12.122-5.37,18.729-5.37c11.975,0,23.354,6.342,30.439,16.964
		c0.755,1.133,1.49,2.282,1.49,2.282c7.345,10.788,11.234,25.477,11.234,42.464C233.532,139.558,212.457,164.73,185.553,164.73z
		 M117.806,104.232c-1.648,1.567-24.423,23.309-29.711,32.203c-2.526,4.253-2.95,9.277-1.191,14.148
		c1.684,4.665,5.246,8.458,9.295,9.896c4.627,1.646,11.434,1.788,16.202-1.614c3.54-2.527,5.305-6.499,5.25-11.811
		c0.122-1.168,0.129-2.503,0.136-4.049c0.003-0.656,0.006-1.343,0.019-2.056V104.232z"/>
</g>
<g>
	<path fill="#D2B0B0" d="M37.672,206.641l-3.043-0.071c-0.381,0-1.412,0.023-3.094,0.071v-0.405c0.19-0.016,0.46-0.047,0.81-0.095
		c0.301-0.062,0.451-0.261,0.451-0.595c0-0.079-0.006-0.15-0.022-0.215c-1.301-3.915-2.095-6.096-2.378-6.54
		c-0.047-0.062-0.144-0.096-0.287-0.096c-2.473-0.031-4.662-0.039-6.565-0.023c-0.158,0.016-0.27,0.096-0.333,0.237
		c-0.635,1.508-1.498,3.68-2.593,6.519c-0.143,0.348-0.071,0.578,0.214,0.689c0.19,0.079,0.539,0.118,1.047,0.118v0.405
		l-2.593-0.071c-0.35,0-1.222,0.023-2.618,0.071v-0.405c0.318-0.031,0.658-0.07,1.024-0.118c0.173-0.062,0.356-0.127,0.546-0.19
		c0.301-0.159,0.556-0.452,0.761-0.881c1.523-3.218,3.831-8.522,6.921-15.912c0.224-0.538,0.198-0.864-0.069-0.975
		c-0.271-0.11-0.674-0.167-1.214-0.167v-0.356c0.619,0.048,1.262,0.071,1.926,0.071c0.635,0,1.158-0.023,1.57-0.071
		c1.38,3.774,2.395,6.509,3.045,8.205c1.299,3.395,2.434,6.202,3.401,8.421c0.333,0.761,0.619,1.236,0.855,1.428
		c0.318,0.253,1.063,0.436,2.237,0.546V206.641z M29.874,197.387c-0.777-2.173-1.709-4.671-2.802-7.493
		c-1.509,3.457-2.59,5.98-3.24,7.566c-0.049,0.11-0.008,0.174,0.118,0.189c1.84,0.047,3.774,0.039,5.806-0.023
		C29.897,197.626,29.938,197.545,29.874,197.387z"/>
	<path fill="#D2B0B0" d="M58.747,188.018c-0.127,0.016-0.333,0.055-0.619,0.118c-0.46,0.143-0.712,0.522-0.761,1.142
		c-0.095,1.19-0.144,3.816-0.144,7.879c0,0.539,0.019,3.927,0.057,10.163c-5.529-6.723-10.415-12.453-14.66-17.189v6.98
		c0,4.081,0.047,6.616,0.144,7.601c0.079,0.794,0.309,1.255,0.689,1.381c0.315,0.112,0.602,0.167,0.855,0.167v0.382
		c-1.158-0.048-1.942-0.071-2.355-0.071c-0.413,0-1.221,0.023-2.426,0.071v-0.382c0.142,0,0.419-0.039,0.832-0.118
		c0.523-0.158,0.81-0.619,0.857-1.38c0.063-1.014,0.094-3.567,0.094-7.658c0-4.218-0.022-6.803-0.071-7.754
		c-0.031-0.57-0.238-0.936-0.619-1.095c-0.316-0.126-0.706-0.205-1.166-0.238v-0.403c1,0.048,1.667,0.071,1.999,0.071
		c0.332,0,0.849-0.023,1.545-0.071c4.637,5.597,8.944,10.625,12.917,15.079v-5.541c0-4.36-0.047-6.984-0.142-7.873
		c-0.065-0.619-0.24-0.977-0.523-1.071c-0.208-0.078-0.485-0.144-0.833-0.19v-0.403c1.062,0.048,1.775,0.071,2.141,0.071
		s1.093-0.023,2.188-0.071V188.018z"/>
	<path fill="#D2B0B0" d="M81.534,206.641l-3.046-0.071c-0.379,0-1.411,0.023-3.09,0.071v-0.405c0.189-0.016,0.458-0.047,0.807-0.095
		c0.302-0.062,0.454-0.261,0.454-0.595c0-0.079-0.01-0.15-0.025-0.215c-1.299-3.915-2.092-6.096-2.378-6.54
		c-0.047-0.062-0.142-0.096-0.284-0.096c-2.475-0.031-4.662-0.039-6.565-0.023c-0.159,0.016-0.271,0.096-0.334,0.237
		c-0.633,1.508-1.498,3.68-2.593,6.519c-0.142,0.348-0.071,0.578,0.214,0.689c0.19,0.079,0.539,0.118,1.046,0.118v0.405
		l-2.593-0.071c-0.348,0-1.221,0.023-2.615,0.071v-0.405c0.316-0.031,0.657-0.07,1.022-0.118c0.175-0.062,0.358-0.127,0.547-0.19
		c0.301-0.159,0.554-0.452,0.762-0.881c1.521-3.218,3.828-8.522,6.921-15.912c0.22-0.538,0.198-0.864-0.073-0.975
		c-0.269-0.11-0.674-0.167-1.212-0.167v-0.356c0.619,0.048,1.26,0.071,1.928,0.071c0.633,0,1.156-0.023,1.569-0.071
		c1.38,3.774,2.395,6.509,3.045,8.205c1.299,3.395,2.434,6.202,3.401,8.421c0.333,0.761,0.617,1.236,0.856,1.428
		c0.317,0.253,1.062,0.436,2.237,0.546V206.641z M73.734,197.387c-0.775-2.173-1.711-4.671-2.804-7.493
		c-1.509,3.457-2.586,5.98-3.238,7.566c-0.047,0.11-0.009,0.174,0.12,0.189c1.84,0.047,3.774,0.039,5.803-0.023
		C73.759,197.626,73.797,197.545,73.734,197.387z"/>
	<path fill="#D2B0B0" d="M107.079,202.43c-0.285,1.356-0.476,2.525-0.572,3.502c-0.728,0.188-1.449,0.386-2.164,0.592
		c-1.125,0.221-2.544,0.331-4.256,0.331c-2.426,0-4.542-0.657-6.351-1.972c-2.394-1.742-3.591-4.332-3.591-7.77
		c0-2.835,1.07-5.194,3.21-7.078c2.028-1.789,4.464-2.686,7.302-2.686c0.999,0,2.188,0.088,3.568,0.263
		c1.252,0.174,2.046,0.324,2.378,0.45c-0.128,0.873-0.128,1.929,0,3.165h-0.476c0-0.254-0.023-0.483-0.071-0.69
		c-0.079-0.491-0.23-0.847-0.452-1.07c-0.348-0.349-1.126-0.618-2.332-0.809c-0.904-0.144-1.785-0.214-2.64-0.214
		c-2.427,0-4.44,0.776-6.041,2.328c-1.667,1.614-2.498,3.729-2.498,6.341c0,2.535,0.847,4.617,2.545,6.248
		c1.569,1.504,3.383,2.257,5.447,2.257c1.903,0,3.33-0.165,4.281-0.496c0.507-0.174,0.974-0.473,1.402-0.898
		c0.334-0.329,0.611-0.928,0.833-1.794H107.079z"/>
	<path fill="#D2B0B0" d="M128.439,206.641l-3.046-0.071c-0.38,0-1.412,0.023-3.09,0.071v-0.405c0.189-0.016,0.458-0.047,0.806-0.095
		c0.303-0.062,0.454-0.261,0.454-0.595c0-0.079-0.009-0.15-0.025-0.215c-1.3-3.915-2.092-6.096-2.379-6.54
		c-0.047-0.062-0.142-0.096-0.283-0.096c-2.475-0.031-4.663-0.039-6.565-0.023c-0.159,0.016-0.271,0.096-0.334,0.237
		c-0.633,1.508-1.498,3.68-2.593,6.519c-0.142,0.348-0.071,0.578,0.214,0.689c0.19,0.079,0.539,0.118,1.046,0.118v0.405
		l-2.593-0.071c-0.348,0-1.221,0.023-2.615,0.071v-0.405c0.317-0.031,0.657-0.07,1.022-0.118c0.175-0.062,0.357-0.127,0.546-0.19
		c0.301-0.159,0.555-0.452,0.763-0.881c1.521-3.218,3.828-8.522,6.921-15.912c0.221-0.538,0.199-0.864-0.072-0.975
		c-0.27-0.11-0.674-0.167-1.213-0.167v-0.356c0.619,0.048,1.26,0.071,1.928,0.071c0.633,0,1.156-0.023,1.569-0.071
		c1.379,3.774,2.394,6.509,3.044,8.205c1.3,3.395,2.434,6.202,3.401,8.421c0.334,0.761,0.617,1.236,0.856,1.428
		c0.317,0.253,1.062,0.436,2.237,0.546V206.641z M120.639,197.387c-0.775-2.173-1.71-4.671-2.804-7.493
		c-1.509,3.457-2.586,5.98-3.239,7.566c-0.047,0.11-0.009,0.174,0.12,0.189c1.84,0.047,3.774,0.039,5.803-0.023
		C120.664,197.626,120.702,197.545,120.639,197.387z"/>
	<path fill="#D2B0B0" d="M148.037,206.641c-0.538,0.078-1.254,0.119-2.142,0.119c-0.87,0-1.56-0.104-2.067-0.31
		c-0.715-0.27-1.316-0.801-1.808-1.595c-1.428-2.313-2.921-4.7-4.474-7.159c-0.11-0.142-0.236-0.206-0.381-0.19
		c-0.555,0.08-1.125,0.12-1.711,0.12h-1.19c-0.189,0-0.284,0.095-0.284,0.285c0,1.474,0.038,3.639,0.117,6.494
		c0.031,1.077,0.358,1.673,0.977,1.783c0.22,0.031,0.658,0.055,1.307,0.07v0.382c-1.427-0.048-2.488-0.071-3.185-0.071
		c-0.699,0-1.69,0.023-2.974,0.071v-0.382c0.617,0,1.054-0.055,1.307-0.165c0.397-0.19,0.618-0.706,0.665-1.547
		c0.016-0.316,0.025-2.783,0.025-7.396c0-3.203-0.047-5.756-0.142-7.659c-0.016-0.428-0.041-0.697-0.072-0.81
		c-0.095-0.301-0.277-0.483-0.547-0.546c-0.397-0.097-0.771-0.151-1.118-0.167v-0.356c1.095,0.048,1.885,0.071,2.38,0.071
		c0.173,0,0.774-0.036,1.805-0.107c1.033-0.07,1.903-0.107,2.618-0.107c1.141,0,2.171,0.35,3.091,1.048
		c1.144,0.856,1.714,2.046,1.714,3.569c0,1.763-0.781,3.213-2.341,4.356c-0.271,0.189-0.341,0.38-0.215,0.57
		c1.336,2.107,2.751,4.358,4.244,6.75c0.362,0.571,0.815,1.071,1.354,1.498c0.967,0.794,1.984,1.142,3.046,1.047V206.641z
		 M140.14,192.346c0-1.189-0.444-2.18-1.333-2.974c-0.822-0.729-1.773-1.095-2.854-1.095c-0.665,0-1.213,0.049-1.642,0.144
		c-0.173,0.047-0.277,0.206-0.309,0.476c-0.016,0.206-0.022,0.412-0.022,0.619v6.874c0,0.222,0.133,0.34,0.403,0.355
		c1.364,0.08,2.347-0.008,2.949-0.262C139.204,195.691,140.14,194.312,140.14,192.346z"/>
	<path fill="#D2B0B0" d="M161.477,201.646c0,1.03-0.326,1.997-0.975,2.901c-1.048,1.475-2.76,2.213-5.139,2.213
		c-0.697,0-1.482-0.033-2.354-0.096c-0.873-0.063-1.436-0.095-1.688-0.095c-1.063,0-2.007,0.023-2.831,0.071v-0.405
		c0.792,0.016,1.276-0.087,1.451-0.309c0.412-0.491,0.619-2.102,0.619-4.828v-9.419c0-0.365-0.008-0.873-0.024-1.523
		c-0.016-0.648-0.023-0.967-0.023-0.951c0-0.364-0.088-0.634-0.263-0.809c-0.332-0.334-0.84-0.468-1.521-0.404v-0.38
		c1.458,0.063,2.292,0.095,2.498,0.095c0.126,0,0.606-0.031,1.438-0.095c0.833-0.064,1.638-0.096,2.414-0.096
		c1.38,0,2.51,0.407,3.39,1.226c0.879,0.815,1.32,1.843,1.32,3.079c0,1.301-0.468,2.411-1.403,3.33
		c-0.619,0.604-1.27,1.016-1.95,1.238c1.362,0.016,2.544,0.546,3.544,1.592C160.978,199.029,161.477,200.25,161.477,201.646z
		 M157.979,191.87c0-1.189-0.529-2.125-1.586-2.807c-0.791-0.492-1.564-0.737-2.321-0.737c-0.475,0-0.94,0.047-1.397,0.142
		c-0.238,0.064-0.356,0.238-0.356,0.522c-0.047,1.983-0.047,4.25,0,6.804c0,0.237,0.126,0.365,0.38,0.381h1.279
		c1.01,0,1.902-0.357,2.676-1.071C157.537,194.296,157.979,193.217,157.979,191.87z M159.478,201.599
		c0-1.412-0.489-2.538-1.47-3.379c-0.933-0.776-2.101-1.166-3.508-1.166c-0.19,0-0.388,0-0.592,0c-0.175,0.018-0.578,0.018-1.21,0
		c-0.254,0-0.38,0.12-0.38,0.359c-0.047,2.272-0.047,4.381,0,6.319c0.016,0.684,0.063,1.138,0.144,1.359
		c0.095,0.318,0.291,0.493,0.593,0.524c0.757,0.097,1.453,0.151,2.085,0.167c1.027,0.033,1.936-0.221,2.727-0.761
		C158.94,204.293,159.478,203.151,159.478,201.599z"/>
	<path fill="#D2B0B0" d="M183.787,206.641l-3.045-0.071c-0.381,0-1.411,0.023-3.092,0.071v-0.405c0.19-0.016,0.46-0.047,0.808-0.095
		c0.301-0.062,0.452-0.261,0.452-0.595c0-0.079-0.008-0.15-0.023-0.215c-1.301-3.915-2.094-6.096-2.379-6.54
		c-0.047-0.062-0.143-0.096-0.284-0.096c-2.475-0.031-4.663-0.039-6.565-0.023c-0.159,0.016-0.27,0.096-0.333,0.237
		c-0.635,1.508-1.499,3.68-2.593,6.519c-0.143,0.348-0.072,0.578,0.215,0.689c0.188,0.079,0.539,0.118,1.046,0.118v0.405
		l-2.593-0.071c-0.35,0-1.221,0.023-2.616,0.071v-0.405c0.316-0.031,0.658-0.07,1.022-0.118c0.175-0.062,0.357-0.127,0.548-0.19
		c0.301-0.159,0.555-0.452,0.761-0.881c1.521-3.218,3.829-8.522,6.921-15.912c0.223-0.538,0.199-0.864-0.07-0.975
		c-0.271-0.11-0.675-0.167-1.213-0.167v-0.356c0.617,0.048,1.26,0.071,1.926,0.071c0.634,0,1.158-0.023,1.569-0.071
		c1.38,3.774,2.395,6.509,3.045,8.205c1.301,3.395,2.434,6.202,3.4,8.421c0.334,0.761,0.619,1.236,0.857,1.428
		c0.316,0.253,1.062,0.436,2.236,0.546V206.641z M175.988,197.387c-0.776-2.173-1.71-4.671-2.804-7.493
		c-1.509,3.457-2.588,5.98-3.24,7.566c-0.047,0.11-0.008,0.174,0.12,0.189c1.84,0.047,3.774,0.039,5.805-0.023
		C176.012,197.626,176.052,197.545,175.988,197.387z"/>
	<path fill="#D2B0B0" d="M198.105,203.072l-0.405,3.568l-5.661-0.071c-1.03,0-3.187,0.023-6.469,0.071v-0.382
		c0.381,0.018,0.722-0.023,1.022-0.118c0.571-0.19,0.888-0.92,0.951-2.188c0.049-1.031,0.072-3.299,0.072-6.803
		c0-4.298-0.016-6.812-0.049-7.541c-0.016-0.476-0.039-0.769-0.071-0.88c-0.094-0.333-0.309-0.547-0.643-0.642
		c-0.253-0.08-0.554-0.111-0.902-0.096v-0.38c1.362,0.048,2.22,0.071,2.569,0.071c0.348,0,1.229-0.023,2.64-0.071v0.38
		c-0.46-0.016-0.802,0.039-1.023,0.167c-0.223,0.128-0.372,0.254-0.452,0.381c-0.126,0.223-0.198,0.57-0.213,1.046v7.54
		c0,2.949,0.031,5.186,0.095,6.707c0.016,0.444,0.062,0.737,0.144,0.881c0.142,0.301,0.476,0.507,0.998,0.617
		c0.476,0.097,1.428,0.144,2.854,0.144c1.109,0,1.887-0.047,2.331-0.144c0.364-0.078,0.642-0.165,0.832-0.261
		c0.334-0.174,0.555-0.443,0.666-0.809c0.159-0.507,0.246-0.904,0.262-1.189H198.105z"/>
	<path fill="#D2B0B0" d="M212.899,203.072l-0.405,3.568l-5.661-0.071c-1.03,0-3.187,0.023-6.469,0.071v-0.382
		c0.381,0.018,0.722-0.023,1.022-0.118c0.571-0.19,0.888-0.92,0.951-2.188c0.049-1.031,0.072-3.299,0.072-6.803
		c0-4.298-0.016-6.812-0.049-7.541c-0.016-0.476-0.039-0.769-0.071-0.88c-0.094-0.333-0.309-0.547-0.643-0.642
		c-0.253-0.08-0.554-0.111-0.902-0.096v-0.38c1.362,0.048,2.22,0.071,2.569,0.071c0.348,0,1.229-0.023,2.64-0.071v0.38
		c-0.46-0.016-0.802,0.039-1.023,0.167c-0.223,0.128-0.372,0.254-0.452,0.381c-0.126,0.223-0.198,0.57-0.213,1.046v7.54
		c0,2.949,0.031,5.186,0.095,6.707c0.016,0.444,0.062,0.737,0.144,0.881c0.142,0.301,0.476,0.507,0.998,0.617
		c0.476,0.097,1.428,0.144,2.854,0.144c1.108,0,1.887-0.047,2.331-0.144c0.364-0.078,0.642-0.165,0.832-0.261
		c0.334-0.174,0.555-0.443,0.666-0.809c0.159-0.507,0.246-0.904,0.262-1.189H212.899z"/>
	<path fill="#D2B0B0" d="M233.687,197.15c0,2.966-1.046,5.392-3.14,7.278c-1.902,1.712-4.13,2.569-6.683,2.569
		c-2.776,0-5.052-0.81-6.827-2.428c-1.966-1.775-2.949-4.258-2.949-7.444c0-3.044,1.086-5.502,3.258-7.373
		c1.903-1.634,4.083-2.451,6.542-2.451c2.964,0,5.353,0.912,7.159,2.736C232.808,191.845,233.687,194.217,233.687,197.15z
		 M231.88,197.161c0-2.407-0.794-4.489-2.379-6.247c-1.586-1.758-3.457-2.637-5.613-2.637c-2.348,0-4.25,0.784-5.709,2.352
		c-1.522,1.632-2.283,3.793-2.283,6.484c0,2.44,0.789,4.518,2.367,6.236c1.576,1.719,3.444,2.577,5.602,2.577
		c2.172,0,4.004-0.712,5.494-2.138C231.039,202.189,231.88,199.98,231.88,197.161z"/>
</g>
<g>
	<path fill="#D2B0B0" d="M84.641,216.918c0-0.165,0.132-0.316,0.316-0.316h3.799c2.049,0,3.731,1.667,3.731,3.683
		c0,2.066-1.682,3.749-3.714,3.749h-2.417v3.916c0,0.167-0.151,0.316-0.318,0.316h-1.082c-0.184,0-0.316-0.149-0.316-0.316V216.918z
		 M88.657,222.399c1.15,0,2.115-0.933,2.115-2.133c0-1.132-0.965-1.998-2.115-1.998h-2.3v4.131H88.657z"/>
	<path fill="#D2B0B0" d="M97.861,216.918c0-0.165,0.149-0.316,0.316-0.316h1.1c0.167,0,0.316,0.151,0.316,0.316v11.031
		c0,0.167-0.149,0.316-0.316,0.316h-1.1c-0.167,0-0.316-0.149-0.316-0.316V216.918z"/>
	<path fill="#D2B0B0" d="M106.151,216.918c0-0.165,0.134-0.316,0.318-0.316h1.099c0.167,0,0.315,0.151,0.315,0.316v9.798h4.518
		c0.183,0,0.315,0.149,0.315,0.316v0.917c0,0.167-0.132,0.316-0.315,0.316h-5.932c-0.185,0-0.318-0.149-0.318-0.316V216.918z"/>
	<path fill="#D2B0B0" d="M116.739,227.832l5.116-11.213c0.051-0.101,0.2-0.183,0.284-0.183h0.167c0.082,0,0.233,0.082,0.284,0.183
		l5.082,11.213c0.101,0.216-0.033,0.434-0.284,0.434h-1.049c-0.2,0-0.316-0.1-0.384-0.25l-1.034-2.283h-5.447
		c-0.334,0.768-0.684,1.518-1.018,2.283c-0.05,0.116-0.183,0.25-0.383,0.25h-1.051C116.773,228.266,116.642,228.048,116.739,227.832
		z M124.287,224.3l-2.048-4.565h-0.085l-2.032,4.565H124.287z"/>
	<path fill="#D2B0B0" d="M133.642,218.169h-2.715c-0.185,0-0.317-0.151-0.317-0.316v-0.935c0-0.165,0.133-0.316,0.317-0.316h7.163
		c0.185,0,0.317,0.151,0.317,0.316v0.935c0,0.165-0.133,0.316-0.317,0.316h-2.715v9.78c0,0.167-0.15,0.316-0.316,0.316h-1.1
		c-0.167,0-0.317-0.149-0.317-0.316V218.169z"/>
	<path fill="#D2B0B0" d="M143.531,216.918c0-0.165,0.134-0.316,0.316-0.316h6.664c0.185,0,0.316,0.151,0.316,0.316v0.935
		c0,0.165-0.132,0.316-0.316,0.316h-5.264v3.399h4.448c0.167,0,0.316,0.149,0.316,0.316v0.933c0,0.183-0.149,0.316-0.316,0.316
		h-4.448v3.582h5.264c0.185,0,0.316,0.149,0.316,0.316v0.917c0,0.167-0.132,0.316-0.316,0.316h-6.664
		c-0.183,0-0.316-0.149-0.316-0.316V216.918z"/>
	<path fill="#D2B0B0" d="M155.918,226.583c0.149-0.217,0.283-0.468,0.433-0.684c0.15-0.217,0.383-0.283,0.567-0.134
		c0.1,0.084,1.383,1.15,2.665,1.15c1.15,0,1.884-0.699,1.884-1.55c0-0.999-0.866-1.632-2.517-2.315
		c-1.7-0.717-3.032-1.6-3.032-3.533c0-1.3,1-3.081,3.649-3.081c1.665,0,2.916,0.866,3.083,0.982
		c0.132,0.084,0.266,0.316,0.099,0.565c-0.134,0.2-0.283,0.434-0.415,0.634c-0.135,0.217-0.351,0.316-0.585,0.167
		c-0.116-0.066-1.282-0.834-2.249-0.834c-1.398,0-1.883,0.884-1.883,1.5c0,0.949,0.732,1.532,2.115,2.1
		c1.935,0.783,3.584,1.699,3.584,3.733c0,1.732-1.55,3.148-3.716,3.148c-2.033,0-3.315-1.066-3.582-1.316
		C155.867,226.981,155.751,226.865,155.918,226.583z"/>
</g>
<path fill="#D2B0B0" d="M137.789,37.453c0,0-0.314-3.568-0.499-7.136c-0.052-0.893-0.152-1.785-0.173-2.62
	c0.003-0.836,0.075-1.617,0.173-2.287c0.182-1.337,0.499-2.229,0.499-2.229h0.143c0,0,0.317,0.892,0.499,2.229
	c0.098,0.669,0.17,1.45,0.173,2.287c-0.021,0.835-0.121,1.728-0.173,2.62c-0.185,3.568-0.499,7.136-0.499,7.136H137.789z"/>
<path fill="#D2B0B0" d="M135.697,36.901c0,0-1.616-2.037-3.138-4.135c-0.394-0.516-0.803-1.023-1.145-1.523
	c-0.313-0.519-0.581-1.02-0.768-1.477c-0.18-0.462-0.331-0.844-0.399-1.135c-0.082-0.283-0.11-0.458-0.11-0.458l0.102-0.064
	c0,0,0.146,0.098,0.367,0.292c0.236,0.186,0.517,0.486,0.86,0.843c0.337,0.361,0.678,0.815,1.015,1.318
	c0.309,0.522,0.597,1.107,0.897,1.682c1.257,2.266,2.423,4.592,2.423,4.592L135.697,36.901z"/>
<path fill="#D2B0B0" d="M139.96,36.856c0,0,1.164-2.326,2.421-4.592c0.303-0.574,0.589-1.158,0.898-1.681
	c0.337-0.503,0.677-0.958,1.013-1.318c0.343-0.357,0.625-0.657,0.859-0.843c0.223-0.194,0.369-0.292,0.367-0.292l0.104,0.064
	c-0.002,0-0.028,0.174-0.11,0.458c-0.069,0.292-0.223,0.673-0.4,1.135c-0.186,0.457-0.454,0.958-0.767,1.476
	c-0.342,0.501-0.75,1.007-1.145,1.524c-1.522,2.097-3.138,4.134-3.138,4.134L139.96,36.856z"/>
</svg>
