<?xml version="1.0" encoding="utf-8"?>
<!-- Generator: Adobe Illustrator 16.0.0, SVG Export Plug-In . SVG Version: 6.00 Build 0)  -->
<!DOCTYPE svg PUBLIC "-//W3C//DTD SVG 1.1//EN" "http://www.w3.org/Graphics/SVG/1.1/DTD/svg11.dtd">
<svg version="1.1" id="Calque_1" xmlns="http://www.w3.org/2000/svg" xmlns:xlink="http://www.w3.org/1999/xlink" x="0px" y="0px"
	 width="250px" height="250px" viewBox="0 0 250 250" enable-background="new 0 0 250 250" xml:space="preserve">
<g>
	<path fill="#D2B0B0" d="M124.375,182.007l-0.084-1.896c1.54-0.069,7.391-0.456,7.393-0.456
		c23.646-0.002,42.833-19.741,42.833-44.003c0-12.122-3.384-19.273-8.464-26.278c-0.062-0.08-7.76-9.97-18.371-10.65l0.119-1.892
		c11.486,0.737,19.44,10.974,19.771,11.408c5.312,7.327,8.837,14.781,8.837,27.413c0,25.308-20.034,45.897-44.666,45.897
		C131.745,181.553,125.916,181.936,124.375,182.007z"/>
</g>
<g>
	<path fill="#D2B0B0" d="M121.768,182.088c-0.523,0-0.947-0.422-0.947-0.947c0-0.523,0.424-0.946,0.947-0.946
		c21.856,0,39.637-18.226,39.637-40.629c0-11.191-3.136-17.794-7.844-24.264c-0.053-0.069-6.958-8.909-16.534-9.784
		c-0.521-0.048-0.906-0.51-0.86-1.031c0.051-0.521,0.543-0.906,1.03-0.857c10.419,0.952,17.584,10.146,17.884,10.538
		c4.938,6.789,8.221,13.695,8.221,25.398C163.301,163.014,144.67,182.088,121.768,182.088z"/>
</g>
<path fill="none" stroke="#000100" stroke-width="1.8956" stroke-linejoin="round" stroke-miterlimit="10" d="M125.759,103.413"/>
<path fill="#D2B0B0" d="M164.464,195.749"/>
<g>
	<path fill="#D2B0B0" d="M105.91,175.586c-2.548,0-15.637-0.348-23.139-7.201c-0.979-0.894-1.749-1.863-2.582-2.949
		c-5.515-7.162-6.287-15.005-6.297-22.411v-24.531c-0.009-0.069-0.259-3.569,2.528-5.433l4.133-2.761l-4.301-2.873
		c-2.565-1.715-2.372-5.272-2.363-5.423l-0.001-12.125c0.031-18.711,8.739-26.638,18.145-32.417
		c3.523-2.163,10.902-6.665,12.596-7.697l0.356-0.217c0.449-0.269,1.029-0.126,1.3,0.32c0.271,0.447,0.13,1.029-0.317,1.301
		l-0.349,0.213c-5.839,3.607-11.236,9.239-11.29,9.295c-3.181,3.996-4.822,9.241-4.822,15.528l0.015,12.885l-0.006,0.794v12.181
		c-0.004,0.082-0.13,2.682,1.522,3.787l4.888,3.267c0.394,0.263,0.63,0.704,0.63,1.182c0,0.473-0.233,0.913-0.624,1.179
		l-4.727,3.158c-1.85,1.236-1.69,3.759-1.689,3.785l0.003,24.601c0.022,13.021,2.848,22.233,17.233,30.797
		c0.361,0.217,0.538,0.647,0.429,1.055c-0.104,0.411-0.469,0.697-0.891,0.709L105.91,175.586z M93.585,58.733
		c-0.197,0.12-0.383,0.235-0.561,0.344c-14.282,8.774-17.222,18.66-17.242,30.803v12.184c-0.003,0.082-0.128,2.682,1.523,3.787
		l4.888,3.267c0.396,0.266,0.632,0.707,0.632,1.182c0,0.47-0.233,0.911-0.623,1.177l-4.729,3.16c-1.85,1.236-1.69,3.759-1.687,3.785
		l0.002,24.601c0.014,9.674,1.726,15.831,5.904,21.259c0.635,0.825,1.422,1.851,2.357,2.706c5.373,4.906,13.978,6.23,18.768,6.581
		c-12.536-8.515-15.175-18.112-15.195-30.544v-24.531c-0.009-0.071-0.258-3.569,2.528-5.433l4.132-2.761l-4.297-2.873
		c-2.569-1.715-2.375-5.272-2.363-5.423l-0.004-12.125l0.006-0.801l-0.015-12.872c0-6.728,1.78-12.372,5.292-16.774
		C92.955,59.374,93.193,59.125,93.585,58.733z"/>
</g>
<g>
	<path fill="#D2B0B0" d="M101.14,37.912c4.54-0.91,5.269-1.642,6.179-6.18c0.912,4.538,1.642,5.27,6.182,6.18
		c-4.54,0.911-5.27,1.642-6.182,6.179C106.409,39.553,105.68,38.822,101.14,37.912z"/>
</g>
<g>
	<path fill="#D2B0B0" d="M109.956,48.103c2.673-0.536,3.103-0.966,3.639-3.64c0.536,2.673,0.967,3.104,3.639,3.64
		c-2.672,0.535-3.104,0.968-3.639,3.64C113.059,49.07,112.628,48.638,109.956,48.103z"/>
</g>
<path fill="#D2B0B0" d="M152.41,37.912l-16.567,10.49c0.518-0.054,1.034-0.085,1.553-0.099l15.693-9.938L152.41,37.912z"/>
<path fill="#D2B0B0" d="M142.231,48.718c0.349,0.069,0.695,0.142,1.035,0.227l13.162-8.332l-0.678-0.455L142.231,48.718z"/>
<path fill="#D2B0B0" d="M147.585,50.573l12.107-7.664c-0.208-0.165-0.425-0.32-0.638-0.479l-12.243,7.752
	C147.076,50.304,147.328,50.442,147.585,50.573z"/>
<path fill="#D2B0B0" d="M150.969,52.793l11.563-7.319c-0.18-0.184-0.363-0.358-0.548-0.536l-11.637,7.368
	C150.556,52.466,150.767,52.626,150.969,52.793z"/>
<path fill="#D2B0B0" d="M153.592,55.496l11.378-7.205c-0.149-0.197-0.305-0.395-0.465-0.589l-11.396,7.219
	C153.272,55.109,153.435,55.301,153.592,55.496z"/>
<path fill="#D2B0B0" d="M155.786,58.469l11.242-7.117c-0.127-0.214-0.251-0.429-0.382-0.641l-11.294,7.15
	C155.501,58.065,155.646,58.269,155.786,58.469z"/>
<path fill="#D2B0B0" d="M157.693,61.623l11.01-6.967c-0.1-0.232-0.195-0.465-0.3-0.693l-11.052,6.997
	C157.473,61.176,157.58,61.402,157.693,61.623z"/>
<path fill="#D2B0B0" d="M159.195,65.036l10.775-6.822c-0.07-0.249-0.135-0.501-0.214-0.748l-10.822,6.852
	C159.028,64.554,159.107,64.797,159.195,65.036z"/>
<path fill="#D2B0B0" d="M160.234,68.739l10.565-6.688c-0.042-0.268-0.079-0.535-0.127-0.801l-10.594,6.708
	C160.14,68.215,160.184,68.479,160.234,68.739z"/>
<path fill="#D2B0B0" d="M160.73,72.79l10.392-6.581c-0.001-0.289-0.018-0.577-0.027-0.864l-10.397,6.583
	C160.72,72.212,160.718,72.503,160.73,72.79z"/>
<path fill="#D2B0B0" d="M160.598,77.236l10.224-6.472c0.042-0.32,0.088-0.638,0.12-0.96l-10.265,6.499
	C160.656,76.616,160.627,76.927,160.598,77.236z"/>
<path fill="#D2B0B0" d="M159.655,82.194l9.998-6.328c0.115-0.359,0.219-0.724,0.323-1.089l-10.039,6.357
	C159.853,81.491,159.755,81.843,159.655,82.194z"/>
<path fill="#D2B0B0" d="M157.011,88.231l9.636-6.101c0.304-0.468,0.592-0.945,0.865-1.429l-9.725,6.157
	C157.546,87.323,157.287,87.778,157.011,88.231z"/>
<path fill="#D2B0B0" d="M152.905,98.674l-10.883,6.892c0.29,0.106,0.577,0.217,0.862,0.335l10.916-6.911
	C153.508,98.879,153.209,98.774,152.905,98.674z"/>
<path fill="#D2B0B0" d="M156.984,100.455l-11.021,6.977c0.241,0.141,0.482,0.285,0.714,0.432l11.046-6.993
	C157.48,100.728,157.235,100.591,156.984,100.455z"/>
<path fill="#D2B0B0" d="M149.897,110.187l11.164-7.068c-0.21-0.162-0.42-0.321-0.64-0.48l-11.141,7.054
	C149.49,109.857,149.698,110.023,149.897,110.187z"/>
<path fill="#D2B0B0" d="M152.699,112.775l11.288-7.146c-0.179-0.174-0.367-0.349-0.564-0.527l-11.261,7.131
	C152.353,112.421,152.533,112.602,152.699,112.775z"/>
<path fill="#D2B0B0" d="M155.057,115.645l11.503-7.281c-0.124-0.148-0.285-0.34-0.491-0.573l-11.443,7.245
	C154.771,115.237,154.916,115.44,155.057,115.645z"/>
<path fill="#D2B0B0" d="M157.061,118.739l11.613-7.352c-0.136-0.209-0.275-0.416-0.413-0.621l-11.588,7.336
	C156.802,118.314,156.935,118.526,157.061,118.739z"/>
<path fill="#D2B0B0" d="M158.801,122.001l11.765-7.449c-0.121-0.218-0.243-0.435-0.366-0.653l-11.725,7.422
	C158.586,121.548,158.69,121.775,158.801,122.001z"/>
<path fill="#D2B0B0" d="M160.227,125.46l11.959-7.571c-0.101-0.233-0.198-0.465-0.3-0.695l-11.926,7.552
	C160.049,124.986,160.143,125.218,160.227,125.46z"/>
<path fill="#D2B0B0" d="M161.281,129.155l12.216-7.735c-0.076-0.245-0.152-0.493-0.235-0.734l-12.16,7.702
	C161.164,128.639,161.22,128.897,161.281,129.155z"/>
<path fill="#D2B0B0" d="M161.969,133.082l12.509-7.921c-0.055-0.259-0.115-0.517-0.175-0.772l-12.443,7.878
	C161.902,132.535,161.936,132.807,161.969,133.082z"/>
<path fill="#D2B0B0" d="M162.306,137.23l12.81-8.108c-0.03-0.277-0.072-0.544-0.108-0.816l-12.743,8.069
	C162.275,136.66,162.297,136.94,162.306,137.23z"/>
<path fill="#D2B0B0" d="M162.297,141.599l13.126-8.313c-0.008-0.288-0.03-0.566-0.045-0.852l-13.059,8.268
	C162.311,141.002,162.311,141.303,162.297,141.599z"/>
<path fill="#D2B0B0" d="M161.795,146.278l13.617-8.62c0.011-0.297,0.011-0.598,0.021-0.896l-13.491,8.542
	C161.896,145.631,161.849,145.956,161.795,146.278z"/>
<path fill="#D2B0B0" d="M160.647,151.371l14.322-9.069c0.044-0.317,0.076-0.637,0.116-0.959l-14.144,8.955
	C160.849,150.658,160.748,151.017,160.647,151.371z"/>
<path fill="#D2B0B0" d="M158.518,157.08l15.413-9.761c0.093-0.349,0.183-0.698,0.265-1.05l-15.138,9.587
	C158.885,156.266,158.703,156.678,158.518,157.08z"/>
<path fill="#D2B0B0" d="M154.525,163.972l17.569-11.126c0.155-0.385,0.301-0.774,0.446-1.166l-16.956,10.735
	C155.243,162.944,154.889,163.461,154.525,163.972z"/>
<path fill="#D2B0B0" d="M140.652,176.232l-6.595,4.178c0.533-0.027,1.062-0.076,1.592-0.124l33.227-21.039
	c0.277-0.456,0.544-0.924,0.807-1.395l-24.319,15.398C143.864,174.352,142.294,175.35,140.652,176.232z"/>
<path fill="#D2B0B0" d="M145.844,177.597l15.703-9.943c0.732-0.721,1.45-1.46,2.135-2.234l-20.674,13.088
	C143.964,178.237,144.914,177.934,145.844,177.597z"/>
<path fill="#D2B0B0" d="M115.531,62.146c0.299-0.51,0.62-1.004,0.953-1.486l-12.796,8.102c-0.372,0.509-0.717,1.024-1.041,1.542
	L115.531,62.146z"/>
<path fill="#D2B0B0" d="M99.779,76.48l13.152-8.328c0.111-0.372,0.227-0.741,0.354-1.106l-13.116,8.305
	C100.032,75.726,99.901,76.1,99.779,76.48z"/>
<path fill="#D2B0B0" d="M98.6,81.59l13.333-8.442c0.034-0.321,0.07-0.64,0.117-0.957l-13.287,8.412
	C98.705,80.931,98.65,81.26,98.6,81.59z"/>
<path fill="#D2B0B0" d="M98.133,86.249l13.622-8.625v-0.882l-13.568,8.588C98.166,85.636,98.147,85.941,98.133,86.249z"/>
<path fill="#D2B0B0" d="M98.033,90v0.675l13.727-8.692v-0.882l-13.726,8.691C98.033,89.86,98.033,89.93,98.033,90z"/>
<polygon fill="#D2B0B0" points="98.033,95.038 111.765,86.342 111.764,85.46 98.033,94.154 "/>
<path fill="#D2B0B0" d="M98.033,99.399l13.731-8.695V90c0-0.058,0-0.118,0-0.178l-13.731,8.696V99.399z"/>
<path fill="#D2B0B0" d="M98.152,103.687l13.612-8.618v-0.883l-13.717,8.685C98.061,103.105,98.096,103.381,98.152,103.687z"/>
<path fill="#D2B0B0" d="M99.978,106.759l0.103,0.07l11.684-7.399v-0.882l-12.3,7.787C99.619,106.489,99.786,106.632,99.978,106.759z
	"/>
<path fill="#D2B0B0" d="M103.43,109.069l8.458-5.355c-0.056-0.302-0.091-0.579-0.107-0.813l-9.027,5.715L103.43,109.069z"/>
<path fill="#D2B0B0" d="M98.255,116.593l15.577-9.865l-0.125-0.086c-0.182-0.121-0.343-0.259-0.494-0.403l-14.483,9.17
	C98.511,115.808,98.36,116.211,98.255,116.593z"/>
<polygon fill="#D2B0B0" points="98.037,121.209 117.187,109.086 116.507,108.63 98.037,120.327 "/>
<path fill="#D2B0B0" d="M98.037,125.572l13.937-8.825c0.101-0.378,0.25-0.78,0.462-1.175l-14.399,9.117V125.572z"/>
<polygon fill="#D2B0B0" points="98.037,129.934 111.769,121.241 111.769,120.358 98.037,129.052 "/>
<polygon fill="#D2B0B0" points="98.037,134.297 111.769,125.602 111.769,124.72 98.037,133.414 "/>
<polygon fill="#D2B0B0" points="98.037,138.66 111.769,129.966 111.769,129.084 98.037,137.778 "/>
<polygon fill="#D2B0B0" points="98.037,143.022 111.769,134.33 111.769,133.447 98.037,142.14 "/>
<path fill="#D2B0B0" d="M98.161,147.306l13.607-8.613v-0.885l-13.654,8.646C98.128,146.74,98.144,147.024,98.161,147.306z"/>
<path fill="#D2B0B0" d="M98.583,151.401l13.185-8.349v-0.882l-13.303,8.424C98.5,150.864,98.542,151.133,98.583,151.401z"/>
<path fill="#D2B0B0" d="M99.377,155.264l12.516-7.927c-0.018-0.283-0.034-0.565-0.047-0.854l-12.664,8.019
	C99.243,154.757,99.309,155.01,99.377,155.264z"/>
<path fill="#D2B0B0" d="M100.587,158.859l11.728-7.427c-0.04-0.271-0.078-0.539-0.111-0.812l-11.893,7.527
	C100.402,158.387,100.491,158.623,100.587,158.859z"/>
<path fill="#D2B0B0" d="M102.248,162.17l10.865-6.879c-0.069-0.252-0.134-0.504-0.198-0.76l-11.043,6.995
	C101.993,161.742,102.119,161.956,102.248,162.17z"/>
<path fill="#D2B0B0" d="M104.139,164.983c0.06,0.079,0.124,0.154,0.184,0.235l10.008-6.338c-0.097-0.234-0.192-0.467-0.284-0.701
	l-10.173,6.44C103.965,164.738,104.048,164.863,104.139,164.983z"/>
<path fill="#D2B0B0" d="M106.608,167.808c0.07,0.065,0.145,0.125,0.219,0.19l9.159-5.801c-0.126-0.216-0.254-0.431-0.373-0.648
	l-9.349,5.919C106.377,167.583,106.486,167.7,106.608,167.808z"/>
<path fill="#D2B0B0" d="M110.067,170.306l8.002-5.065c-0.158-0.198-0.304-0.396-0.452-0.596l-8.263,5.23
	C109.589,170.021,109.826,170.167,110.067,170.306z"/>
<path fill="#D2B0B0" d="M114.032,172.158l6.527-4.132c-0.181-0.182-0.356-0.364-0.532-0.546l-6.853,4.339
	C113.457,171.936,113.745,172.052,114.032,172.158z"/>
<path fill="#D2B0B0" d="M118.717,173.554l4.694-2.973c-0.204-0.165-0.401-0.332-0.603-0.499l-5.099,3.228
	C118.048,173.398,118.383,173.478,118.717,173.554z"/>
<path fill="#D2B0B0" d="M91.17,63.598l-12.982,8.221c-0.232,0.428-0.445,0.86-0.651,1.295l13.036-8.253
	C90.761,64.432,90.96,64.012,91.17,63.598z"/>
<path fill="#D2B0B0" d="M89.048,69.304l-13.191,8.352c-0.096,0.349-0.186,0.701-0.271,1.055l13.223-8.372
	C88.881,69.992,88.962,69.646,89.048,69.304z"/>
<path fill="#D2B0B0" d="M74.773,83.589l13.438-8.51c0.014-0.31,0.037-0.614,0.06-0.92l-13.388,8.476
	C74.843,82.952,74.806,83.271,74.773,83.589z"/>
<path fill="#D2B0B0" d="M74.488,88.13l13.7-8.673l-0.002-0.883l-13.668,8.655C74.507,87.528,74.497,87.83,74.488,88.13z"/>
<polygon fill="#D2B0B0" points="88.19,82.935 74.463,91.627 74.463,92.508 88.194,83.815 "/>
<polygon fill="#D2B0B0" points="88.197,87.294 74.463,95.99 74.463,96.872 88.198,88.177 "/>
<polygon fill="#D2B0B0" points="88.194,91.658 74.463,100.352 74.463,101.236 88.194,92.54 "/>
<path fill="#D2B0B0" d="M88.194,96.023l-13.402,8.483c0.077,0.233,0.172,0.467,0.287,0.701l13.115-8.304V96.023z"/>
<polygon fill="#D2B0B0" points="88.194,100.383 77.243,107.317 77.92,107.772 88.194,101.266 "/>
<path fill="#D2B0B0" d="M88.532,104.533l-7.939,5.026l0.679,0.453l7.551-4.781C88.706,104.999,88.609,104.766,88.532,104.533z"/>
<path fill="#D2B0B0" d="M90.996,107.335l-16.508,10.451c-0.046,0.499-0.021,0.829-0.021,0.829v0.067l17.207-10.895L90.996,107.335z"
	/>
<polygon fill="#D2B0B0" points="95.025,110.025 94.349,109.573 74.467,122.161 74.467,123.046 95.025,110.029 "/>
<path fill="#D2B0B0" d="M88.199,118.615c0,0-0.025-0.317,0.017-0.794l-13.749,8.706v0.88l13.732-8.692V118.615z"/>
<polygon fill="#D2B0B0" points="88.199,122.194 74.467,130.888 74.467,131.771 88.199,123.075 "/>
<polygon fill="#D2B0B0" points="88.199,126.556 74.467,135.249 74.467,136.131 88.199,127.439 "/>
<polygon fill="#D2B0B0" points="88.199,130.919 74.467,139.612 74.467,140.495 88.199,131.802 "/>
<path fill="#D2B0B0" d="M88.199,135.281l-13.724,8.688c0.004,0.293,0.006,0.585,0.013,0.876l13.711-8.681V135.281z"/>
<path fill="#D2B0B0" d="M88.199,139.644l-13.542,8.573c0.021,0.279,0.044,0.562,0.07,0.841l13.473-8.533V139.644z"/>
<path fill="#D2B0B0" d="M88.206,144l-13.055,8.269c0.045,0.264,0.097,0.527,0.148,0.789l12.922-8.184
	C88.214,144.585,88.209,144.294,88.206,144z"/>
<path fill="#D2B0B0" d="M88.388,148.249l-12.357,7.822c0.074,0.25,0.157,0.492,0.237,0.734l12.191-7.719
	C88.432,148.812,88.41,148.529,88.388,148.249z"/>
<path fill="#D2B0B0" d="M88.882,152.298l-11.536,7.304c0.103,0.229,0.207,0.456,0.316,0.684l11.372-7.199
	C88.981,152.824,88.929,152.562,88.882,152.298z"/>
<path fill="#D2B0B0" d="M89.773,156.097l-10.68,6.762c0.132,0.21,0.268,0.419,0.407,0.626l10.501-6.65
	C89.923,156.59,89.846,156.344,89.773,156.097z"/>
<path fill="#D2B0B0" d="M91.082,159.631l-9.828,6.224c0.156,0.195,0.311,0.388,0.475,0.581l9.674-6.125
	C91.292,160.085,91.187,159.859,91.082,159.631z"/>
<path fill="#D2B0B0" d="M92.837,162.881l-8.938,5.66c0.206,0.165,0.417,0.327,0.63,0.485l8.712-5.518
	C93.104,163.302,92.97,163.092,92.837,162.881z"/>
<path fill="#D2B0B0" d="M95.013,165.867l-7.714,4.884c0.258,0.136,0.516,0.267,0.778,0.392l7.425-4.703
	C95.336,166.248,95.172,166.059,95.013,165.867z"/>
<path fill="#D2B0B0" d="M97.583,168.602l-6.16,3.9c0.308,0.104,0.615,0.204,0.921,0.3l5.805-3.676
	C97.959,168.95,97.768,168.777,97.583,168.602z"/>
<path fill="#D2B0B0" d="M100.514,171.109l-4.244,2.689c0.362,0.07,0.719,0.14,1.071,0.203l3.804-2.409
	C100.933,171.432,100.722,171.271,100.514,171.109z"/>
<g>
	<path fill="#D2B0B0" d="M46.351,193.632c0-0.179,0.143-0.341,0.341-0.341h7.154c0.196,0,0.34,0.162,0.34,0.341v1
		c0,0.18-0.144,0.342-0.34,0.342h-5.653v3.647h4.777c0.177,0,0.34,0.162,0.34,0.342v1c0,0.196-0.163,0.339-0.34,0.339h-4.777v3.849
		h5.653c0.196,0,0.34,0.16,0.34,0.339v0.983c0,0.18-0.144,0.34-0.34,0.34h-7.154c-0.199,0-0.341-0.16-0.341-0.34V193.632z"/>
	<path fill="#D2B0B0" d="M57.172,193.632c0-0.179,0.163-0.341,0.341-0.341h1.197c0.196,0,0.342,0.162,0.342,0.341v7.387
		c0,1.789,1.145,3.185,2.969,3.185c1.841,0,3.006-1.377,3.006-3.147v-7.424c0-0.179,0.142-0.341,0.339-0.341h1.199
		c0.178,0,0.338,0.162,0.338,0.341v7.513c0,2.719-2.056,4.85-4.883,4.85c-2.81,0-4.849-2.131-4.849-4.85V193.632z"/>
	<path fill="#D2B0B0" d="M76.187,193.111c1.717,0,3.13,0.627,4.346,1.664c0.144,0.144,0.162,0.358,0.019,0.5
		c-0.27,0.286-0.537,0.556-0.805,0.842c-0.143,0.161-0.286,0.142-0.464-0.017c-0.841-0.734-1.951-1.218-3.042-1.218
		c-2.54,0-4.491,2.146-4.491,4.65c0,2.488,1.951,4.636,4.491,4.636c1.484,0,2.503-0.537,2.683-0.609v-2.003h-1.753
		c-0.198,0-0.34-0.144-0.34-0.322v-1.038c0-0.196,0.143-0.341,0.34-0.341h3.257c0.178,0,0.321,0.163,0.321,0.341
		c0,1.431,0.018,2.898,0.018,4.331c0,0.088-0.071,0.231-0.144,0.284c0,0-1.841,1.183-4.436,1.183c-3.56,0-6.44-2.848-6.44-6.424
		C69.747,195.992,72.627,193.111,76.187,193.111z"/>
	<path fill="#D2B0B0" d="M84.021,193.632c0-0.179,0.142-0.341,0.339-0.341h7.156c0.197,0,0.339,0.162,0.339,0.341v1
		c0,0.18-0.143,0.342-0.339,0.342h-5.653v3.647h4.777c0.177,0,0.339,0.162,0.339,0.342v1c0,0.196-0.162,0.339-0.339,0.339h-4.777
		v3.849h5.653c0.197,0,0.339,0.16,0.339,0.339v0.983c0,0.18-0.143,0.34-0.339,0.34h-7.156c-0.197,0-0.339-0.16-0.339-0.34V193.632z
		 M86.239,191.878l-0.25-0.503c-0.072-0.141,0.017-0.284,0.105-0.337l2.811-1.629c0.105-0.07,0.375-0.107,0.464,0.053l0.411,0.788
		c0.108,0.179,0.037,0.356-0.107,0.429l-3.006,1.289C86.437,192.075,86.311,192.039,86.239,191.878z"/>
	<path fill="#D2B0B0" d="M95.002,193.434c0-0.177,0.162-0.322,0.34-0.322h0.448l7.763,8.981h0.019v-8.461
		c0-0.179,0.142-0.341,0.338-0.341h1.145c0.18,0,0.34,0.162,0.34,0.341v12.039c0,0.18-0.161,0.323-0.34,0.323h-0.464l-7.763-9.233
		H96.81v8.712c0,0.18-0.143,0.34-0.34,0.34h-1.126c-0.179,0-0.34-0.16-0.34-0.34V193.434z"/>
	<path fill="#D2B0B0" d="M109.313,193.632c0-0.179,0.16-0.341,0.339-0.341h1.182c0.178,0,0.338,0.162,0.338,0.341v11.841
		c0,0.18-0.16,0.34-0.338,0.34h-1.182c-0.179,0-0.339-0.16-0.339-0.34V193.632z"/>
	<path fill="#D2B0B0" d="M115.09,193.632c0-0.179,0.142-0.341,0.341-0.341h7.154c0.195,0,0.339,0.162,0.339,0.341v1
		c0,0.18-0.144,0.342-0.339,0.342h-5.654v3.647h4.777c0.179,0,0.341,0.162,0.341,0.342v1c0,0.196-0.162,0.339-0.341,0.339h-4.777
		v3.849h5.654c0.195,0,0.339,0.16,0.339,0.339v0.983c0,0.18-0.144,0.34-0.339,0.34h-7.154c-0.199,0-0.341-0.16-0.341-0.34V193.632z"
		/>
	<path fill="#D2B0B0" d="M130.455,193.632c0-0.179,0.142-0.341,0.339-0.341h4.008c2.164,0,3.721,1.432,3.721,3.31
		c0,1.378-1.021,2.362-1.86,2.843c0.949,0.396,2.235,1.271,2.235,2.916c0,2.004-1.645,3.453-3.9,3.453h-4.203
		c-0.197,0-0.339-0.16-0.339-0.34V193.632z M134.98,204.169c1.092,0,1.933-0.841,1.933-1.951c0-1.091-1.039-1.878-2.201-1.878
		h-2.451v3.829H134.98z M134.694,198.729c1.146,0,1.843-0.84,1.843-1.915c0-1.091-0.697-1.841-1.843-1.841h-2.417v3.756H134.694z"/>
	<path fill="#D2B0B0" d="M140.346,205.347l5.49-12.037c0.056-0.107,0.216-0.198,0.305-0.198h0.179c0.09,0,0.251,0.091,0.306,0.198
		l5.457,12.037c0.104,0.233-0.039,0.466-0.306,0.466h-1.127c-0.217,0-0.34-0.106-0.411-0.267l-1.109-2.451h-5.849
		c-0.358,0.822-0.734,1.627-1.093,2.451c-0.053,0.125-0.196,0.267-0.409,0.267h-1.131
		C140.38,205.812,140.238,205.58,140.346,205.347z M148.448,201.557l-2.2-4.901h-0.09l-2.181,4.901H148.448z"/>
	<path fill="#D2B0B0" d="M154.316,193.632c0-0.179,0.141-0.341,0.339-0.341h4.864c2.148,0,3.899,1.699,3.899,3.828
		c0,1.646-1.091,3.007-2.646,3.63l2.45,4.545c0.125,0.234,0,0.519-0.305,0.519h-1.395c-0.144,0-0.251-0.089-0.286-0.16l-2.38-4.742
		h-2.7v4.562c0,0.18-0.163,0.34-0.34,0.34h-1.163c-0.198,0-0.339-0.16-0.339-0.34V193.632z M159.378,199.373
		c1.163,0,2.181-0.983,2.181-2.218c0-1.163-1.018-2.131-2.181-2.131h-3.185v4.349H159.378z"/>
	<path fill="#D2B0B0" d="M166.657,193.632c0-0.179,0.143-0.341,0.341-0.341h4.866c2.145,0,3.899,1.699,3.899,3.828
		c0,1.646-1.091,3.007-2.647,3.63l2.451,4.545c0.123,0.234,0,0.519-0.305,0.519h-1.396c-0.144,0-0.251-0.089-0.287-0.16
		l-2.378-4.742H168.5v4.562c0,0.18-0.161,0.34-0.339,0.34h-1.163c-0.198,0-0.341-0.16-0.341-0.34V193.632z M171.72,199.373
		c1.163,0,2.183-0.983,2.183-2.218c0-1.163-1.02-2.131-2.183-2.131h-3.184v4.349H171.72z"/>
	<path fill="#D2B0B0" d="M184.509,193.111c3.577,0,6.44,2.881,6.44,6.459c0,3.576-2.863,6.424-6.44,6.424s-6.423-2.848-6.423-6.424
		C178.086,195.992,180.932,193.111,184.509,193.111z M184.509,204.203c2.559,0,4.652-2.076,4.652-4.633
		c0-2.541-2.094-4.669-4.652-4.669c-2.541,0-4.634,2.128-4.634,4.669C179.875,202.127,181.968,204.203,184.509,204.203z"/>
	<path fill="#D2B0B0" d="M193.953,193.434c0-0.177,0.159-0.322,0.34-0.322h0.448l7.763,8.981h0.019v-8.461
		c0-0.179,0.144-0.341,0.341-0.341h1.145c0.178,0,0.339,0.162,0.339,0.341v12.039c0,0.18-0.161,0.323-0.339,0.323h-0.466
		l-7.765-9.233h-0.017v8.712c0,0.18-0.146,0.34-0.342,0.34h-1.126c-0.181,0-0.34-0.16-0.34-0.34V193.434z"/>
</g>
<g>
	<rect x="106.955" y="26.995" fill="#D2B0B0" width="0.729" height="2.736"/>
</g>
<g>
	<rect x="114.958" y="37.543" fill="#D2B0B0" width="2.735" height="0.729"/>
</g>
<path fill="none" stroke="#D64C4C" stroke-width="0.559" stroke-miterlimit="10" d="M132.062,72.495"/>
<path fill="#000100" d="M132.854,71.067"/>
<path fill="none" d="M134.702,72.027c-1.104,0.796-1.803,1.149-2.21,1.255v32.95l2.21-1.39V72.027z"/>
<path fill="#D2B0B0" d="M159.297,41.097l-8.464-5.672c-0.312-0.209-0.72-0.213-1.035-0.01l-35.002,22.41
	c-0.002,0.003-0.006,0.007-0.01,0.011c-14.69,8.914-17.681,18.925-17.701,32.146l0.001,12.122c-0.009,0.151-0.202,3.711,2.365,5.425
	l4.297,2.874l-4.132,2.761c-2.65,1.77-2.555,5.02-2.527,5.464v24.5c0.01,7.407,0.783,15.249,6.297,22.414
	c0.678,0.883,1.524,1.982,2.581,2.948c7.484,6.832,20.389,7.197,23.046,7.197c0.256,0,0.414-0.004,0.471-0.004
	c0.422-0.013,0.785-0.297,0.895-0.709c0.105-0.404-0.071-0.837-0.432-1.054c-14.383-8.562-17.211-17.772-17.233-30.793v-24.531
	c0-0.025,0-0.051-0.001-0.076s-0.183-2.529,1.688-3.779l4.718-3.155c0.397-0.264,0.636-0.707,0.636-1.185
	c0-0.475-0.239-0.919-0.632-1.18l-4.887-3.267c-1.653-1.104-1.527-3.706-1.523-3.789V89.982l0.003-0.791l-0.013-12.887
	c0-9.295,4.447-17.62,11.629-21.744l5.445-3.371c2.551-1.244,5.686-1.958,8.618-1.958h0.001c4.815,0,9.311,1.592,12.616,4.447
	l0.187,0.179c1.122,1.042,2.105,2.152,2.92,3.3c0.133,0.19,0.319,0.447,0.529,0.732c0.493,0.679,1.105,1.526,1.418,2.01
	c2.75,4.312,4.202,9.14,4.202,13.959c0,8.24-2.971,14.943-8.8,19.902c-0.033,0.026-3.27,2.603-6.565,4.679l-8.445,5.303v2.238
	l9.384-5.892l0,0c0.018-0.008,0.034-0.021,0.048-0.031l8.676-5.444c2.192-1.378,6.855-4.957,7.064-5.116
	c7.021-5.556,10.887-13.768,10.887-23.121C172.515,56.429,167.592,46.989,159.297,41.097z M110.806,76.305l0.014,12.878
	l-0.006,0.799l0.004,12.122c-0.008,0.151-0.203,3.711,2.363,5.425l4.298,2.874l-4.13,2.761c-2.651,1.773-2.555,5.023-2.529,5.464
	v24.5c0.02,12.427,2.656,22.021,15.178,30.53c-4.774-0.362-13.421-1.701-18.752-6.568c-0.934-0.853-1.722-1.879-2.354-2.704
	c-4.181-5.427-5.891-11.588-5.908-21.258l-0.002-24.602c0-0.027-0.163-2.549,1.688-3.785l4.719-3.157
	c0.396-0.262,0.632-0.705,0.632-1.184c0-0.475-0.236-0.917-0.63-1.18l-4.888-3.267c-1.652-1.104-1.526-3.706-1.523-3.789V89.981
	c0.021-13.02,2.847-22.233,17.231-30.796l-0.007-0.011l0.295-0.188C112.888,63.666,110.806,69.762,110.806,76.305z M160.459,88.003
	c-0.025,0.02-1.674,1.285-3.454,2.592c3.42-4.643,5.155-10.244,5.155-16.735c0-5.182-1.556-10.361-4.499-14.98
	c-0.342-0.533-0.974-1.404-1.483-2.104c-0.201-0.279-0.384-0.529-0.514-0.715c-0.893-1.252-1.959-2.46-3.164-3.58l-0.211-0.201
	c-3.688-3.188-8.622-4.943-13.893-4.943c-0.002,0-0.003,0-0.003,0c-1.476,0-2.971,0.165-4.427,0.464l16.331-10.456l7.769,5.217
	l0.183,0.11c7.744,5.508,12.372,14.369,12.372,23.706C170.621,75.14,167.007,82.823,160.459,88.003z"/>
<path fill="#D2B0B0" d="M130.587,107.427c-0.444,0.278-0.578,0.864-0.297,1.306c0.179,0.288,0.487,0.444,0.803,0.444
	c0.171,0,0.348-0.046,0.501-0.145l0.337-0.211v-2.239L130.587,107.427z"/>
<path fill="#D2B0B0" d="M131.931,72.815v33.768v2.239v70.588h0.562l0,0l0.602-0.042V73.035c0.4-0.2,0.916-0.509,1.608-1.008v32.816
	v2.239v72.392h1.754v-73.492v-2.238V69.673C133.702,72.496,131.931,72.815,131.931,72.815z"/>
<g>
	<rect x="96.685" y="37.543" fill="#D2B0B0" width="2.735" height="0.729"/>
</g>
<g>
	<path fill="#D2B0B0" d="M21.805,212.975c2.332,0,4.161,1.982,4.161,4.197c0,2.134-1.644,4.291-4.196,4.291
		c-2.331,0-4.162-1.982-4.162-4.198C17.607,215.131,19.25,212.975,21.805,212.975z M21.909,221.09c1.702,0,2.776-1.47,2.776-3.58
		c0-1.772-1.027-4.163-3.021-4.163c-1.702,0-2.775,1.47-2.775,3.581C18.889,218.698,19.916,221.09,21.909,221.09z"/>
	<path fill="#D2B0B0" d="M26.928,220.983h0.313c0.328,0,0.561,0,0.561-0.385v-3.276c0-0.36-0.433-0.432-0.606-0.524v-0.174
		c0.852-0.362,1.317-0.664,1.421-0.664c0.071,0,0.105,0.035,0.105,0.151v1.05h0.024c0.292-0.457,0.781-1.201,1.492-1.201
		c0.292,0,0.665,0.199,0.665,0.616c0,0.314-0.222,0.596-0.549,0.596c-0.36,0-0.36-0.281-0.769-0.281
		c-0.198,0-0.852,0.271-0.852,0.971v2.737c0,0.385,0.233,0.385,0.561,0.385h0.652v0.303c-0.641-0.01-1.131-0.021-1.632-0.021
		c-0.479,0-0.968,0.012-1.387,0.021V220.983z"/>
	<path fill="#D2B0B0" d="M36.723,216.822l-1.154-0.048c0.197,0.244,0.303,0.573,0.303,0.888c0,0.85-0.71,1.795-2.157,1.795
		c-0.174,0-0.407-0.025-0.641-0.071c-0.222,0.164-0.35,0.314-0.35,0.597c0,0.174,0.047,0.535,0.817,0.535
		c0.57,0,1.142,0.013,1.608,0.013c1.004,0,1.598,0.302,1.598,1.177c0,0.455-0.606,2.238-3.09,2.238
		c-1.479,0-2.203-0.677-2.203-1.306c0-0.745,0.652-1.201,1.365-1.341v-0.022c-0.49-0.141-1.027-0.478-1.027-1.014
		c0-0.131,0-0.259,0.047-0.374c0.326-0.199,0.804-0.432,0.968-0.583c-0.653-0.339-1.096-0.781-1.096-1.552
		c0-1.013,0.746-1.794,2.179-1.794c0.35,0,0.747,0.082,1.027,0.162c0.326,0.093,0.652,0.198,1.131,0.198
		c0.209,0,0.373-0.011,0.675-0.059V216.822z M34.239,221.286c-0.758,0-1.934,0-1.934,1.098c0,0.804,0.722,1.188,1.538,1.188
		c0.712,0,2.04-0.304,2.04-1.341C35.883,221.382,34.856,221.286,34.239,221.286z M33.738,216.262c-0.711,0-1.026,0.712-1.026,1.331
		c0,0.674,0.292,1.562,1.097,1.562c0.792,0,1.131-0.654,1.131-1.364C34.939,217.078,34.555,216.262,33.738,216.262z"/>
	<path fill="#D2B0B0" d="M42.438,220.832c-0.324,0.304-0.687,0.631-1.154,0.631c-0.478,0-0.698-0.444-0.723-0.864
		c-0.546,0.501-1.071,0.864-1.794,0.864c-0.746,0-1.259-0.514-1.259-1.131c0.046-0.934,0.524-1.108,3.042-1.971v-0.769
		c0-0.654-0.383-1.004-1.13-1.004c-0.513,0-0.863,0.292-0.886,0.816c0,0.325-0.373,0.489-0.651,0.489
		c-0.176,0-0.211-0.151-0.211-0.232c0-0.618,0.524-0.911,1.341-1.331c0.407-0.209,0.606-0.371,1.048-0.371
		c0.526,0,1.424,0.339,1.424,0.979v3.229c0,0.479,0.163,0.664,0.418,0.664c0.151,0,0.328-0.068,0.431-0.197L42.438,220.832z
		 M40.549,218.698c-0.593,0.233-2.109,0.5-2.109,1.376c0,0.456,0.373,0.841,0.829,0.841c0.547,0,0.897-0.338,1.281-0.678V218.698z"
		/>
	<path fill="#D2B0B0" d="M43.934,217.51c0-0.432-0.128-0.548-0.676-0.769v-0.224c0.502-0.161,0.979-0.314,1.54-0.558
		c0.036,0,0.07,0.022,0.07,0.116v0.756c0.663-0.476,1.235-0.872,2.017-0.872c0.991,0,1.341,0.723,1.341,1.633v3.006
		c0,0.385,0.256,0.385,0.584,0.385h0.208v0.303c-0.407,0-0.815-0.021-1.234-0.021c-0.42,0-0.838,0.012-1.26,0.021v-0.303h0.21
		c0.327,0,0.56,0,0.56-0.385v-3.019c0-0.665-0.408-0.991-1.072-0.991c-0.373,0-0.969,0.302-1.353,0.56v3.45
		c0,0.385,0.256,0.385,0.584,0.385h0.208v0.303c-0.408,0-0.815-0.021-1.235-0.021s-0.839,0.012-1.26,0.021v-0.303h0.211
		c0.325,0,0.559,0,0.559-0.385V217.51z"/>
	<path fill="#D2B0B0" d="M49.708,220.983h0.222c0.327,0,0.558,0,0.558-0.385v-3.159c0-0.512-0.174-0.582-0.605-0.815v-0.188
		c0.548-0.162,1.201-0.384,1.247-0.42c0.082-0.047,0.153-0.057,0.209-0.057c0.059,0,0.083,0.068,0.083,0.162v4.477
		c0,0.385,0.256,0.385,0.583,0.385h0.198v0.303c-0.396,0-0.804-0.021-1.225-0.021c-0.418,0-0.838,0.012-1.27,0.021V220.983z
		 M50.956,214.163c-0.303,0-0.571-0.279-0.571-0.583c0-0.291,0.28-0.559,0.571-0.559c0.303,0,0.572,0.244,0.572,0.559
		C51.527,213.896,51.27,214.163,50.956,214.163z"/>
	<path fill="#D2B0B0" d="M53.278,219.666c0.15,0.77,0.616,1.424,1.467,1.424c0.69,0,0.946-0.421,0.946-0.827
		c0-1.379-2.543-0.934-2.543-2.812c0-0.653,0.525-1.491,1.808-1.491c0.374,0,0.875,0.105,1.329,0.339l0.081,1.188h-0.268
		c-0.117-0.735-0.524-1.155-1.27-1.155c-0.467,0-0.91,0.27-0.91,0.771c0,1.364,2.704,0.945,2.704,2.775
		c0,0.771-0.619,1.586-2.005,1.586c-0.466,0-1.015-0.164-1.422-0.398l-0.127-1.339L53.278,219.666z"/>
	<path fill="#D2B0B0" d="M62.537,220.832c-0.327,0.304-0.688,0.631-1.155,0.631c-0.477,0-0.698-0.444-0.722-0.864
		c-0.548,0.501-1.072,0.864-1.796,0.864c-0.746,0-1.259-0.514-1.259-1.131c0.046-0.934,0.525-1.108,3.043-1.971v-0.769
		c0-0.654-0.385-1.004-1.132-1.004c-0.512,0-0.861,0.292-0.886,0.816c0,0.325-0.373,0.489-0.651,0.489
		c-0.176,0-0.211-0.151-0.211-0.232c0-0.618,0.525-0.911,1.341-1.331c0.407-0.209,0.607-0.371,1.049-0.371
		c0.525,0,1.423,0.339,1.423,0.979v3.229c0,0.479,0.163,0.664,0.418,0.664c0.153,0,0.328-0.068,0.433-0.197L62.537,220.832z
		 M60.648,218.698c-0.595,0.233-2.11,0.5-2.11,1.376c0,0.456,0.373,0.841,0.827,0.841c0.549,0,0.897-0.338,1.283-0.678V218.698z"/>
	<path fill="#D2B0B0" d="M64.872,219.854c0,0.77,0.419,0.979,0.735,0.979c0.314,0,0.548-0.104,0.815-0.338l0.173,0.175
		c-0.407,0.421-0.92,0.794-1.549,0.794c-0.747,0-1.107-0.398-1.107-1.086v-3.612H63.17v-0.188c0.606-0.465,0.966-0.688,1.561-1.631
		h0.141v1.188h1.736v0.631h-1.736V219.854z"/>
	<path fill="#D2B0B0" d="M67.111,220.983h0.316c0.327,0,0.558,0,0.558-0.385v-3.276c0-0.36-0.429-0.432-0.605-0.524v-0.174
		c0.851-0.362,1.318-0.664,1.422-0.664c0.07,0,0.105,0.035,0.105,0.151v1.05h0.023c0.291-0.457,0.78-1.201,1.492-1.201
		c0.29,0,0.663,0.199,0.663,0.616c0,0.314-0.221,0.596-0.546,0.596c-0.362,0-0.362-0.281-0.771-0.281
		c-0.198,0-0.85,0.271-0.85,0.971v2.737c0,0.385,0.233,0.385,0.558,0.385h0.654v0.303c-0.641-0.01-1.131-0.021-1.632-0.021
		c-0.479,0-0.968,0.012-1.389,0.021V220.983z"/>
	<path fill="#D2B0B0" d="M71.743,220.983h0.222c0.327,0,0.561,0,0.561-0.385v-3.159c0-0.512-0.175-0.582-0.607-0.815v-0.188
		c0.547-0.162,1.201-0.384,1.248-0.42c0.081-0.047,0.151-0.057,0.21-0.057c0.059,0,0.08,0.068,0.08,0.162v4.477
		c0,0.385,0.257,0.385,0.584,0.385h0.198v0.303c-0.396,0-0.804-0.021-1.224-0.021c-0.422,0-0.839,0.012-1.271,0.021V220.983z
		 M72.991,214.163c-0.304,0-0.572-0.279-0.572-0.583c0-0.291,0.28-0.559,0.572-0.559c0.302,0,0.571,0.244,0.571,0.559
		C73.562,213.896,73.306,214.163,72.991,214.163z"/>
	<path fill="#D2B0B0" d="M79.497,220.248c-0.569,0.667-1.352,1.215-2.272,1.215c-1.213,0-2.321-1.179-2.321-2.414
		c0-1.69,1.214-3.089,2.892-3.089c0.595,0,1.574,0.187,1.574,0.805c0,0.267-0.163,0.513-0.441,0.513
		c-0.491,0-0.468-0.946-1.564-0.946c-1.002,0-1.526,1.12-1.526,2.007c0,1.2,0.769,2.261,2.04,2.261c0.595,0,0.979-0.208,1.423-0.548
		L79.497,220.248z"/>
	<path fill="#D2B0B0" d="M81.121,218.069c-0.023,0.105-0.023,0.279,0,0.676c0.07,1.108,0.781,2.019,1.714,2.019
		c0.641,0,1.142-0.351,1.574-0.781l0.163,0.162c-0.536,0.712-1.201,1.318-2.157,1.318c-1.853,0-2.225-1.797-2.225-2.542
		c0-2.286,1.538-2.961,2.353-2.961c0.945,0,1.96,0.594,1.971,1.83c0,0.071,0,0.14-0.011,0.209l-0.106,0.07H81.121z M83.185,217.696
		c0.291,0,0.326-0.15,0.326-0.291c0-0.595-0.362-1.074-1.016-1.074c-0.71,0-1.201,0.526-1.34,1.365H83.185z"/>
	<path fill="#D2B0B0" d="M93.612,220.284c0,0.479,0.115,0.479,0.57,0.479h0.198v0.232H94.37c-0.175,0.036-0.49,0.127-0.828,0.233
		c-0.361,0.117-0.665,0.233-0.735,0.233c-0.117,0-0.127-0.177-0.127-0.314v-0.538h-0.022c-0.422,0.432-1.075,0.853-1.785,0.853
		c-1.4,0-2.168-1.226-2.168-2.531c0-1.573,1.27-2.972,2.878-2.972c0.374,0,0.758,0.068,1.097,0.209v-2.063
		c0-0.759-0.175-0.78-0.618-0.908v-0.187c0.467-0.153,0.955-0.362,1.2-0.502c0.128-0.069,0.222-0.129,0.258-0.129
		c0.069,0,0.093,0.069,0.093,0.162V220.284z M92.68,217.405c0-0.862-0.723-1.074-1.236-1.074c-0.829,0-1.737,0.618-1.737,2.193
		c0,1.281,0.781,2.239,1.843,2.239c0.349,0,1.131-0.259,1.131-0.689V217.405z"/>
	<path fill="#D2B0B0" d="M96.028,218.069c-0.022,0.105-0.022,0.279,0,0.676c0.071,1.108,0.78,2.019,1.715,2.019
		c0.641,0,1.142-0.351,1.574-0.781l0.164,0.162c-0.538,0.712-1.202,1.318-2.159,1.318c-1.853,0-2.226-1.797-2.226-2.542
		c0-2.286,1.539-2.961,2.355-2.961c0.944,0,1.958,0.594,1.969,1.83c0,0.071,0,0.14-0.011,0.209l-0.106,0.07H96.028z M98.092,217.696
		c0.292,0,0.326-0.15,0.326-0.291c0-0.595-0.362-1.074-1.014-1.074c-0.712,0-1.202,0.526-1.341,1.365H98.092z"/>
	<path fill="#D2B0B0" d="M108.998,219.689c1.048-2.18,2.179-4.325,3.147-6.541c0.314,0.013,0.64,0.024,0.956,0.024
		c0.338,0,0.687-0.024,1.025-0.024v0.304c-0.396,0-0.663,0.023-0.815,0.141c-0.153,0.116-0.221,0.314-0.221,0.7
		c0,1.841,0.104,3.801,0.151,5.561c0.023,0.875,0.106,1.13,1.271,1.13v0.303c-0.641,0-1.282-0.021-1.924-0.021
		c-0.571,0-1.13,0.012-1.702,0.021v-0.303c0.407,0,0.7,0,0.897-0.104c0.21-0.115,0.303-0.337,0.303-0.793l-0.082-5.561h-0.022
		l-2.753,5.712c-0.127,0.28-0.36,0.853-0.454,1.155h-0.233c-0.991-2.229-2.111-4.408-3.218-6.611h-0.022l-0.094,4.221
		c0,0.152-0.012,0.57-0.012,0.734c0,0.572,0.06,0.887,0.246,1.049c0.188,0.164,0.478,0.198,0.945,0.198v0.303
		c-0.478,0-0.968-0.021-1.446-0.021c-0.512,0-1.037,0.012-1.549,0.021v-0.303c0.825,0,1.339-0.198,1.387-1.76
		c0.045-1.597,0.127-3.182,0.127-4.779c0-0.409-0.059-0.665-0.222-0.805c-0.163-0.141-0.418-0.188-0.805-0.188v-0.304
		c0.409,0.013,0.828,0.024,1.236,0.024c0.245,0,0.501-0.024,0.746-0.024L108.998,219.689z"/>
	<path fill="#D2B0B0" d="M120.207,220.832c-0.326,0.304-0.688,0.631-1.153,0.631c-0.479,0-0.701-0.444-0.723-0.864
		c-0.549,0.501-1.073,0.864-1.796,0.864c-0.746,0-1.259-0.514-1.259-1.131c0.047-0.934,0.526-1.108,3.042-1.971v-0.769
		c0-0.654-0.384-1.004-1.13-1.004c-0.513,0-0.864,0.292-0.886,0.816c0,0.325-0.373,0.489-0.654,0.489
		c-0.175,0-0.209-0.151-0.209-0.232c0-0.618,0.525-0.911,1.34-1.331c0.409-0.209,0.607-0.371,1.05-0.371
		c0.523,0,1.421,0.339,1.421,0.979v3.229c0,0.479,0.164,0.664,0.421,0.664c0.151,0,0.326-0.068,0.429-0.197L120.207,220.832z
		 M118.318,218.698c-0.595,0.233-2.11,0.5-2.11,1.376c0,0.456,0.374,0.841,0.828,0.841c0.548,0,0.898-0.338,1.282-0.678V218.698z"/>
	<path fill="#D2B0B0" d="M120.899,220.983h0.313c0.328,0,0.562,0,0.562-0.385v-3.276c0-0.36-0.435-0.432-0.608-0.524v-0.174
		c0.853-0.362,1.318-0.664,1.423-0.664c0.069,0,0.103,0.035,0.103,0.151v1.05h0.025c0.291-0.457,0.781-1.201,1.492-1.201
		c0.293,0,0.666,0.199,0.666,0.616c0,0.314-0.223,0.596-0.551,0.596c-0.36,0-0.36-0.281-0.768-0.281c-0.2,0-0.853,0.271-0.853,0.971
		v2.737c0,0.385,0.234,0.385,0.561,0.385h0.652v0.303c-0.642-0.01-1.13-0.021-1.631-0.021c-0.479,0-0.969,0.012-1.387,0.021V220.983
		z"/>
	<path fill="#D2B0B0" d="M125.529,220.983h0.221c0.325,0,0.56,0,0.56-0.385v-3.159c0-0.512-0.174-0.582-0.605-0.815v-0.188
		c0.548-0.162,1.201-0.384,1.246-0.42c0.083-0.047,0.153-0.057,0.211-0.057c0.057,0,0.08,0.068,0.08,0.162v4.477
		c0,0.385,0.257,0.385,0.584,0.385h0.199v0.303c-0.398,0-0.807-0.021-1.225-0.021c-0.421,0-0.841,0.012-1.271,0.021V220.983z
		 M126.776,214.163c-0.304,0-0.572-0.279-0.572-0.583c0-0.291,0.28-0.559,0.572-0.559c0.302,0,0.571,0.244,0.571,0.559
		C127.348,213.896,127.091,214.163,126.776,214.163z"/>
	<path fill="#D2B0B0" d="M133.819,220.832c-0.325,0.304-0.688,0.631-1.153,0.631c-0.479,0-0.701-0.444-0.722-0.864
		c-0.551,0.501-1.073,0.864-1.798,0.864c-0.745,0-1.258-0.514-1.258-1.131c0.047-0.934,0.525-1.108,3.042-1.971v-0.769
		c0-0.654-0.384-1.004-1.13-1.004c-0.513,0-0.863,0.292-0.886,0.816c0,0.325-0.372,0.489-0.653,0.489
		c-0.175,0-0.21-0.151-0.21-0.232c0-0.618,0.523-0.911,1.342-1.331c0.407-0.209,0.605-0.371,1.049-0.371
		c0.522,0,1.422,0.339,1.422,0.979v3.229c0,0.479,0.163,0.664,0.419,0.664c0.151,0,0.328-0.068,0.43-0.197L133.819,220.832z
		 M131.931,218.698c-0.595,0.233-2.109,0.5-2.109,1.376c0,0.456,0.372,0.841,0.827,0.841c0.548,0,0.898-0.338,1.282-0.678V218.698z"
		/>
	<path fill="#D2B0B0" d="M139.769,216.822l-1.154-0.048c0.198,0.244,0.303,0.573,0.303,0.888c0,0.85-0.71,1.795-2.155,1.795
		c-0.176,0-0.409-0.025-0.642-0.071c-0.223,0.164-0.35,0.314-0.35,0.597c0,0.174,0.045,0.535,0.815,0.535
		c0.572,0,1.143,0.013,1.609,0.013c1.003,0,1.597,0.302,1.597,1.177c0,0.455-0.607,2.238-3.089,2.238
		c-1.48,0-2.203-0.677-2.203-1.306c0-0.745,0.651-1.201,1.363-1.341v-0.022c-0.489-0.141-1.025-0.478-1.025-1.014
		c0-0.131,0-0.259,0.046-0.374c0.327-0.199,0.804-0.432,0.968-0.583c-0.654-0.339-1.095-0.781-1.095-1.552
		c0-1.013,0.746-1.794,2.178-1.794c0.351,0,0.746,0.082,1.028,0.162c0.324,0.093,0.651,0.198,1.129,0.198
		c0.209,0,0.373-0.011,0.677-0.059V216.822z M137.285,221.286c-0.757,0-1.936,0-1.936,1.098c0,0.804,0.723,1.188,1.541,1.188
		c0.709,0,2.038-0.304,2.038-1.341C138.929,221.382,137.903,221.286,137.285,221.286z M136.784,216.262
		c-0.712,0-1.024,0.712-1.024,1.331c0,0.674,0.289,1.562,1.094,1.562c0.794,0,1.133-0.654,1.133-1.364
		C137.986,217.078,137.6,216.262,136.784,216.262z"/>
	<path fill="#D2B0B0" d="M141.392,218.069c-0.022,0.105-0.022,0.279,0,0.676c0.07,1.108,0.781,2.019,1.715,2.019
		c0.641,0,1.141-0.351,1.574-0.781l0.163,0.162c-0.537,0.712-1.202,1.318-2.158,1.318c-1.852,0-2.224-1.797-2.224-2.542
		c0-2.286,1.536-2.961,2.353-2.961c0.944,0,1.96,0.594,1.971,1.83c0,0.071,0,0.14-0.011,0.209l-0.106,0.07H141.392z
		 M143.457,217.696c0.29,0,0.324-0.15,0.324-0.291c0-0.595-0.36-1.074-1.014-1.074c-0.71,0-1.201,0.526-1.34,1.365H143.457z"/>
	<path fill="#D2B0B0" d="M145.941,219.666c0.153,0.77,0.618,1.424,1.47,1.424c0.686,0,0.943-0.421,0.943-0.827
		c0-1.379-2.54-0.934-2.54-2.812c0-0.653,0.523-1.491,1.806-1.491c0.374,0,0.874,0.105,1.33,0.339l0.082,1.188h-0.27
		c-0.115-0.735-0.524-1.155-1.271-1.155c-0.467,0-0.909,0.27-0.909,0.771c0,1.364,2.704,0.945,2.704,2.775
		c0,0.771-0.618,1.586-2.005,1.586c-0.466,0-1.015-0.164-1.422-0.398l-0.129-1.339L145.941,219.666z"/>
	<path fill="#D2B0B0" d="M154.353,218.069c-0.024,0.105-0.024,0.279,0,0.676c0.068,1.108,0.781,2.019,1.714,2.019
		c0.639,0,1.143-0.351,1.572-0.781l0.163,0.162c-0.535,0.712-1.199,1.318-2.155,1.318c-1.855,0-2.229-1.797-2.229-2.542
		c0-2.286,1.54-2.961,2.355-2.961c0.945,0,1.96,0.594,1.971,1.83c0,0.071,0,0.14-0.011,0.209l-0.105,0.07H154.353z M156.415,217.696
		c0.29,0,0.327-0.15,0.327-0.291c0-0.595-0.361-1.074-1.014-1.074c-0.711,0-1.201,0.526-1.342,1.365H156.415z"/>
	<path fill="#D2B0B0" d="M160.125,219.854c0,0.77,0.419,0.979,0.735,0.979c0.314,0,0.546-0.104,0.815-0.338l0.176,0.175
		c-0.409,0.421-0.922,0.794-1.551,0.794c-0.747,0-1.109-0.398-1.109-1.086v-3.612h-0.77v-0.188c0.606-0.465,0.969-0.688,1.562-1.631
		h0.141v1.188h1.738v0.631h-1.738V219.854z"/>
	<path fill="#D2B0B0" d="M170.728,220.284c0,0.479,0.115,0.479,0.57,0.479h0.199v0.232h-0.012c-0.177,0.036-0.491,0.127-0.83,0.233
		c-0.36,0.117-0.663,0.233-0.734,0.233c-0.116,0-0.128-0.177-0.128-0.314v-0.538h-0.021c-0.421,0.432-1.074,0.853-1.784,0.853
		c-1.4,0-2.169-1.226-2.169-2.531c0-1.573,1.271-2.972,2.879-2.972c0.374,0,0.758,0.068,1.096,0.209v-2.063
		c0-0.759-0.173-0.78-0.618-0.908v-0.187c0.467-0.153,0.957-0.362,1.203-0.502c0.127-0.069,0.221-0.129,0.256-0.129
		c0.07,0,0.094,0.069,0.094,0.162V220.284z M169.793,217.405c0-0.862-0.722-1.074-1.235-1.074c-0.827,0-1.738,0.618-1.738,2.193
		c0,1.281,0.784,2.239,1.844,2.239c0.351,0,1.13-0.259,1.13-0.689V217.405z"/>
	<path fill="#D2B0B0" d="M172.596,215.995c0.535-0.175,1.119-0.502,1.119-1.146c0-0.465-0.293-0.486-0.584-0.486
		c-0.302,0-0.594-0.07-0.594-0.607c0-0.431,0.327-0.607,0.711-0.607c0.725,0,1.085,0.631,1.085,1.284
		c0,0.99-0.734,1.584-1.621,1.842L172.596,215.995z"/>
	<path fill="#D2B0B0" d="M177.68,216.832h1.54c0.943,0,0.943-0.732,0.978-1.001h0.234c-0.023,0.256-0.047,0.885-0.047,1.306
		c0,0.373,0.058,0.921,0.047,1.295h-0.234c0-1.119-0.373-1.119-1.27-1.119h-1.248v1.981c0,1.294,0.048,1.621,1.201,1.621h0.725
		c1.141-0.059,1.653-0.211,2.109-1.458l0.278,0.046c-0.186,0.583-0.361,1.179-0.478,1.783c-1.165,0-2.33-0.021-3.497-0.021
		c-0.863,0-1.727,0-2.59,0.021v-0.303c1.017,0,1.109-0.185,1.109-1.317v-5.175c0-0.958-0.186-1.003-1.109-1.039v-0.304
		c0.782,0.024,1.576,0.024,2.356,0.024c1.119,0,2.226,0,3.356-0.024v1.738l-0.233,0.059c-0.173-1.098-0.697-1.423-1.865-1.423
		h-1.363V216.832z"/>
	<path fill="#D2B0B0" d="M183.305,217.334c-0.34-0.886-0.457-0.897-0.897-0.897v-0.303c0.385,0.013,0.779,0.025,1.165,0.025
		c0.408,0,0.803-0.025,1.213-0.025v0.303c-0.525,0-0.665,0.037-0.665,0.314c0,0.188,0.175,0.549,0.372,1.085l0.817,2.215
		l0.966-2.401c0.13-0.327,0.224-0.631,0.234-0.898c0.012-0.243-0.128-0.268-0.616-0.314v-0.303c0.278,0.013,0.557,0.025,0.837,0.025
		c0.351,0,0.699-0.025,1.062-0.025v0.303c-0.548,0-0.724,0.314-0.932,0.841l-1.681,4.186h-0.289L183.305,217.334z"/>
	<path fill="#D2B0B0" d="M189.347,218.069c-0.023,0.105-0.023,0.279,0,0.676c0.068,1.108,0.782,2.019,1.714,2.019
		c0.64,0,1.143-0.351,1.572-0.781l0.163,0.162c-0.534,0.712-1.2,1.318-2.155,1.318c-1.854,0-2.228-1.797-2.228-2.542
		c0-2.286,1.539-2.961,2.355-2.961c0.943,0,1.96,0.594,1.97,1.83c0,0.071,0,0.14-0.01,0.209l-0.106,0.07H189.347z M191.41,217.696
		c0.29,0,0.326-0.15,0.326-0.291c0-0.595-0.361-1.074-1.014-1.074c-0.712,0-1.202,0.526-1.342,1.365H191.41z M189.638,214.933
		l1.562-1.551c0.176-0.174,0.361-0.407,0.618-0.407c0.21,0,0.373,0.198,0.373,0.351c0,0.197-0.081,0.325-0.197,0.396l-1.949,1.212
		H189.638z"/>
	<path fill="#D2B0B0" d="M194.278,217.51c0-0.432-0.128-0.548-0.674-0.769v-0.224c0.501-0.161,0.979-0.314,1.538-0.558
		c0.035,0,0.07,0.022,0.07,0.116v0.756c0.664-0.476,1.236-0.872,2.016-0.872c0.992,0,1.343,0.723,1.343,1.633v3.006
		c0,0.385,0.257,0.385,0.582,0.385h0.21v0.303c-0.408,0-0.817-0.021-1.236-0.021c-0.418,0-0.838,0.012-1.259,0.021v-0.303h0.211
		c0.324,0,0.558,0,0.558-0.385v-3.019c0-0.665-0.408-0.991-1.073-0.991c-0.372,0-0.966,0.302-1.351,0.56v3.45
		c0,0.385,0.256,0.385,0.583,0.385h0.209v0.303c-0.407,0-0.815-0.021-1.235-0.021c-0.419,0-0.84,0.012-1.259,0.021v-0.303h0.211
		c0.323,0,0.557,0,0.557-0.385V217.51z"/>
	<path fill="#D2B0B0" d="M201.012,218.069c-0.025,0.105-0.025,0.279,0,0.676c0.068,1.108,0.78,2.019,1.713,2.019
		c0.641,0,1.143-0.351,1.574-0.781l0.164,0.162c-0.538,0.712-1.201,1.318-2.158,1.318c-1.854,0-2.227-1.797-2.227-2.542
		c0-2.286,1.539-2.961,2.354-2.961c0.947,0,1.96,0.594,1.972,1.83c0,0.071,0,0.14-0.012,0.209l-0.105,0.07H201.012z
		 M203.073,217.696c0.292,0,0.327-0.15,0.327-0.291c0-0.595-0.361-1.074-1.014-1.074c-0.711,0-1.202,0.526-1.341,1.365H203.073z"/>
	<path fill="#D2B0B0" d="M205.944,217.439c0-0.512-0.174-0.582-0.607-0.815v-0.188c0.55-0.162,1.191-0.384,1.249-0.42
		c0.08-0.047,0.151-0.057,0.211-0.057c0.058,0,0.082,0.068,0.082,0.162v0.71c0.64-0.452,1.175-0.872,2.017-0.872
		c0.617,0,1.071,0.29,1.236,0.897c0.629-0.421,1.164-0.897,2.003-0.897c1.015,0,1.388,0.791,1.388,1.644v2.995
		c0,0.385,0.256,0.385,0.584,0.385h0.174v0.303c-0.373,0-0.78-0.021-1.2-0.021s-0.84,0.012-1.26,0.021v-0.303h0.21
		c0.327,0,0.56,0,0.56-0.385v-2.575c0-0.734-0.15-1.435-1.014-1.435c-0.455,0-1.109,0.373-1.377,0.56v3.45
		c0,0.385,0.268,0.385,0.595,0.385h0.21v0.303c-0.407,0-0.828-0.021-1.246-0.021c-0.422,0-0.842,0.012-1.259,0.021v-0.303h0.208
		c0.327,0,0.561,0,0.561-0.385v-2.575c0-0.734-0.152-1.435-1.015-1.435c-0.454,0-1.106,0.373-1.374,0.56v3.45
		c0,0.385,0.255,0.385,0.582,0.385h0.209v0.303c-0.406,0-0.815-0.021-1.237-0.021c-0.418,0-0.837,0.012-1.291,0.021v-0.303h0.243
		c0.326,0,0.56,0,0.56-0.385V217.439z"/>
	<path fill="#D2B0B0" d="M215.895,218.069c-0.022,0.105-0.022,0.279,0,0.676c0.071,1.108,0.779,2.019,1.713,2.019
		c0.643,0,1.145-0.351,1.575-0.781l0.162,0.162c-0.536,0.712-1.2,1.318-2.156,1.318c-1.854,0-2.227-1.797-2.227-2.542
		c0-2.286,1.539-2.961,2.356-2.961c0.942,0,1.957,0.594,1.968,1.83c0,0.071,0,0.14-0.011,0.209l-0.105,0.07H215.895z
		 M217.958,217.696c0.292,0,0.326-0.15,0.326-0.291c0-0.595-0.362-1.074-1.015-1.074c-0.71,0-1.201,0.526-1.341,1.365H217.958z"/>
	<path fill="#D2B0B0" d="M220.829,217.51c0-0.432-0.128-0.548-0.676-0.769v-0.224c0.501-0.161,0.979-0.314,1.538-0.558
		c0.035,0,0.069,0.022,0.069,0.116v0.756c0.665-0.476,1.236-0.872,2.018-0.872c0.992,0,1.342,0.723,1.342,1.633v3.006
		c0,0.385,0.256,0.385,0.582,0.385h0.209v0.303c-0.407,0-0.815-0.021-1.235-0.021c-0.418,0-0.839,0.012-1.258,0.021v-0.303h0.209
		c0.326,0,0.56,0,0.56-0.385v-3.019c0-0.665-0.408-0.991-1.073-0.991c-0.373,0-0.966,0.302-1.353,0.56v3.45
		c0,0.385,0.259,0.385,0.584,0.385h0.209v0.303c-0.406,0-0.816-0.021-1.234-0.021c-0.42,0-0.839,0.012-1.26,0.021v-0.303h0.21
		c0.327,0,0.56,0,0.56-0.385V217.51z"/>
	<path fill="#D2B0B0" d="M228.154,219.854c0,0.77,0.419,0.979,0.734,0.979s0.548-0.104,0.815-0.338l0.175,0.175
		c-0.408,0.421-0.922,0.794-1.551,0.794c-0.745,0-1.107-0.398-1.107-1.086v-3.612h-0.77v-0.188c0.604-0.465,0.968-0.688,1.562-1.631
		h0.141v1.188h1.735v0.631h-1.735V219.854z"/>
	<path fill="#D2B0B0" d="M230.812,219.666c0.152,0.77,0.618,1.424,1.471,1.424c0.688,0,0.942-0.421,0.942-0.827
		c0-1.379-2.541-0.934-2.541-2.812c0-0.653,0.525-1.491,1.806-1.491c0.374,0,0.875,0.105,1.333,0.339l0.08,1.188h-0.268
		c-0.116-0.735-0.526-1.155-1.272-1.155c-0.465,0-0.908,0.27-0.908,0.771c0,1.364,2.703,0.945,2.703,2.775
		c0,0.771-0.618,1.586-2.003,1.586c-0.468,0-1.017-0.164-1.424-0.398l-0.127-1.339L230.812,219.666z"/>
</g>
</svg>
