<?xml version="1.0" encoding="utf-8"?>
<!-- Generator: Adobe Illustrator 16.0.0, SVG Export Plug-In . SVG Version: 6.00 Build 0)  -->
<!DOCTYPE svg PUBLIC "-//W3C//DTD SVG 1.1//EN" "http://www.w3.org/Graphics/SVG/1.1/DTD/svg11.dtd">
<svg version="1.1" id="Calque_1" xmlns="http://www.w3.org/2000/svg" xmlns:xlink="http://www.w3.org/1999/xlink" x="0px" y="0px"
	 width="250px" height="250px" viewBox="0 0 250 250" enable-background="new 0 0 250 250" xml:space="preserve">
<g>
	<g>
		<path fill="#D2B0B0" d="M72.207,39.994c0.015-0.204,0.006-0.424,0.021-0.627c0.015-0.204,0.145-0.341,0.327-0.312
			c0.101,0.017,1.38,0.226,2.239-0.281c0.77-0.452,0.985-1.21,0.65-1.779c-0.394-0.671-1.224-0.752-2.598-0.56
			c-1.42,0.189-2.662,0.123-3.422-1.171c-0.512-0.871-0.545-2.458,1.23-3.503c1.115-0.655,2.293-0.568,2.452-0.555
			c0.123,0.003,0.303,0.107,0.291,0.339c-0.012,0.188-0.02,0.403-0.03,0.588c-0.004,0.197-0.109,0.35-0.325,0.341
			c-0.104,0.001-1.187-0.053-1.834,0.328c-0.937,0.551-0.914,1.334-0.67,1.747c0.374,0.637,1.095,0.737,2.244,0.572
			c1.603-0.237,3.069-0.272,3.87,1.088c0.683,1.162,0.202,2.719-1.249,3.573c-1.361,0.8-2.64,0.592-2.917,0.53
			C72.331,40.282,72.207,40.25,72.207,39.994z"/>
		<path fill="#D2B0B0" d="M79.716,28.477l-1.914,0.894c-0.129,0.06-0.273-0.001-0.328-0.12l-0.306-0.657
			c-0.054-0.117-0.01-0.266,0.12-0.327l5.048-2.355c0.129-0.06,0.272,0.001,0.328,0.12l0.306,0.657
			c0.055,0.117,0.011,0.267-0.119,0.328l-1.915,0.892l3.214,6.893c0.055,0.117,0,0.271-0.119,0.328l-0.775,0.361
			c-0.117,0.055-0.271-0.001-0.327-0.12L79.716,28.477z"/>
		<path fill="#D2B0B0" d="M87.279,24.142c-0.042-0.123,0.031-0.271,0.153-0.312l0.822-0.282c0.134-0.046,0.271,0.03,0.312,0.153
			l1.732,5.063c0.42,1.226,1.531,1.915,2.781,1.486c1.264-0.433,1.737-1.648,1.322-2.862L92.661,22.3
			c-0.042-0.123,0.019-0.265,0.154-0.312l0.822-0.281c0.123-0.042,0.27,0.031,0.312,0.154l1.761,5.149
			c0.638,1.863-0.272,3.805-2.209,4.468c-1.925,0.657-3.822-0.323-4.459-2.186L87.279,24.142z"/>
		<path fill="#D2B0B0" d="M99.89,20.234c-0.026-0.126,0.052-0.262,0.179-0.289l2.916-0.61c2.447-0.513,4.865,1.058,5.375,3.491
			c0.514,2.459-1.071,4.868-3.517,5.38l-2.916,0.611c-0.126,0.026-0.253-0.066-0.278-0.193L99.89,20.234z M104.412,27.041
			c1.863-0.39,2.933-2.042,2.54-3.918c-0.39-1.864-2.03-2.936-3.894-2.546l-1.672,0.351l1.354,6.464L104.412,27.041z"/>
		<path fill="#D2B0B0" d="M112.967,17.941c-0.014-0.129,0.089-0.257,0.218-0.271l0.849-0.094c0.128-0.015,0.257,0.088,0.271,0.218
			l0.942,8.518c0.015,0.128-0.088,0.258-0.216,0.271l-0.85,0.094c-0.129,0.014-0.258-0.089-0.271-0.218L112.967,17.941z"/>
		<path fill="#D2B0B0" d="M124.423,16.834c2.589-0.042,4.694,2.01,4.736,4.599s-1.998,4.681-4.587,4.722
			c-2.588,0.041-4.681-1.984-4.721-4.574C119.811,18.992,121.834,16.875,124.423,16.834z M124.553,24.86
			c1.851-0.029,3.341-1.555,3.311-3.407c-0.029-1.838-1.57-3.354-3.418-3.325c-1.84,0.029-3.329,1.594-3.301,3.432
			C121.176,23.413,122.713,24.89,124.553,24.86z"/>
		<path fill="#D2B0B0" d="M142.02,22.919l-2.289-4.757c-0.075-0.184,0.061-0.371,0.266-0.337l0.944,0.155
			c0.102,0.019,0.156,0.092,0.185,0.149l1.779,3.638l2.848-2.879c0.046-0.045,0.131-0.096,0.223-0.082l0.959,0.157
			c0.204,0.034,0.271,0.255,0.144,0.404l-3.728,3.759l-0.668,4.077c-0.022,0.127-0.158,0.224-0.284,0.202l-0.843-0.139
			c-0.141-0.022-0.224-0.155-0.201-0.283L142.02,22.919z"/>
		<path fill="#D2B0B0" d="M155.77,21.02c2.491,0.715,3.907,3.292,3.192,5.782c-0.714,2.491-3.273,3.899-5.766,3.185
			c-2.49-0.715-3.902-3.263-3.189-5.754C150.723,21.742,153.278,20.305,155.77,21.02z M153.554,28.741
			c1.782,0.511,3.653-0.515,4.163-2.296c0.509-1.769-0.524-3.668-2.305-4.18c-1.77-0.507-3.65,0.557-4.158,2.325
			C150.742,26.371,151.784,28.233,153.554,28.741z"/>
		<path fill="#D2B0B0" d="M169.245,25.868c1.142,0.49,1.902,1.311,2.416,2.35c0.053,0.135,0.005,0.284-0.131,0.337
			c-0.261,0.114-0.514,0.215-0.773,0.329c-0.144,0.066-0.233,0.014-0.307-0.145c-0.346-0.727-0.945-1.366-1.674-1.678
			c-1.688-0.726-3.6,0.145-4.317,1.81c-0.71,1.653-0.025,3.639,1.663,4.365c0.987,0.424,1.819,0.36,1.96,0.363l0.574-1.332
			l-1.165-0.501c-0.132-0.056-0.188-0.192-0.135-0.312l0.297-0.69c0.056-0.131,0.192-0.185,0.323-0.127l2.165,0.93
			c0.121,0.052,0.168,0.199,0.118,0.318c-0.407,0.952-0.817,1.932-1.225,2.883c-0.023,0.06-0.113,0.134-0.177,0.15
			c0,0-1.562,0.258-3.288-0.483c-2.367-1.018-3.47-3.732-2.446-6.111C164.138,25.942,166.876,24.849,169.245,25.868z"/>
		<path fill="#D2B0B0" d="M171.986,36.897l7.797-5.558c0.072-0.048,0.204-0.046,0.262-0.014l0.114,0.064
			c0.056,0.032,0.124,0.146,0.119,0.232l-0.936,9.52c-0.02,0.185-0.194,0.278-0.36,0.181l-0.707-0.408
			c-0.134-0.076-0.174-0.19-0.159-0.316l0.191-1.937l-3.668-2.116c-0.521,0.385-1.048,0.755-1.572,1.141
			c-0.079,0.059-0.221,0.097-0.354,0.019l-0.707-0.408C171.842,37.2,171.835,37.004,171.986,36.897z M178.437,37.452l0.396-3.868
			l-0.056-0.032l-3.14,2.282L178.437,37.452z"/>
	</g>
</g>
<g>
	<g>
		<path fill="#D2B0B0" d="M52.558,193.785c0.092-0.09,0.249-0.097,0.347,0.005l2.067,2.107c1.114,1.138,1.106,2.977-0.014,4.073
			c-1.146,1.122-2.994,1.105-4.101-0.023l-1.314-1.338l-2.173,2.129c-0.091,0.09-0.257,0.088-0.347-0.005l-0.589-0.601
			c-0.1-0.102-0.089-0.256,0.003-0.347L52.558,193.785z M51.7,198.997c0.625,0.638,1.668,0.664,2.334,0.013
			c0.629-0.615,0.583-1.622-0.041-2.262l-1.252-1.275l-2.292,2.247L51.7,198.997z"/>
		<path fill="#D2B0B0" d="M60.07,201.065c0.082-0.1,0.236-0.125,0.346-0.034l2.726,2.231c1.203,0.987,1.404,2.741,0.428,3.937
			c-0.755,0.92-1.99,1.183-3.15,0.818l-0.711,3.67c-0.037,0.187-0.238,0.291-0.409,0.15l-0.781-0.641
			c-0.081-0.063-0.1-0.163-0.087-0.222l0.842-3.746l-1.513-1.238l-2.093,2.553c-0.082,0.101-0.246,0.121-0.346,0.037l-0.652-0.535
			c-0.11-0.088-0.117-0.246-0.034-0.347L60.07,201.065z M60.272,206.604c0.652,0.535,1.674,0.448,2.24-0.241
			c0.534-0.652,0.406-1.659-0.246-2.193l-1.784-1.461l-1.995,2.434L60.272,206.604z"/>
		<path fill="#D2B0B0" d="M63.417,214.503l8.069-5.159c0.076-0.047,0.208-0.037,0.263,0l0.109,0.068
			c0.055,0.036,0.118,0.153,0.108,0.239l-1.415,9.462c-0.026,0.184-0.205,0.268-0.369,0.161l-0.686-0.441
			c-0.129-0.086-0.164-0.196-0.145-0.325l0.289-1.926l-3.556-2.299c-0.541,0.359-1.085,0.7-1.626,1.061
			c-0.082,0.053-0.225,0.086-0.356,0.002l-0.685-0.442C63.256,214.8,63.26,214.602,63.417,214.503z M69.833,215.382l0.589-3.846
			l-0.054-0.035l-3.253,2.123L69.833,215.382z"/>
		<path fill="#D2B0B0" d="M79.033,215.141l-1.879-0.968c-0.125-0.063-0.165-0.218-0.105-0.334l0.332-0.644
			c0.059-0.119,0.205-0.173,0.333-0.107l4.954,2.551c0.126,0.064,0.166,0.218,0.106,0.333l-0.332,0.645
			c-0.059,0.116-0.204,0.173-0.332,0.107l-1.879-0.968l-3.481,6.764c-0.058,0.116-0.216,0.165-0.332,0.107l-0.761-0.392
			c-0.114-0.059-0.165-0.218-0.105-0.334L79.033,215.141z"/>
		<path fill="#D2B0B0" d="M86.707,217.695c0.049-0.12,0.201-0.183,0.322-0.131l0.79,0.33c0.12,0.051,0.184,0.199,0.133,0.322
			l-3.3,7.918c-0.05,0.122-0.202,0.183-0.321,0.132l-0.79-0.33c-0.121-0.05-0.183-0.201-0.132-0.323L86.707,217.695z"/>
		<path fill="#D2B0B0" d="M96.828,220.962c2.48,0.754,3.861,3.351,3.11,5.83c-0.534,1.763-2.025,2.975-3.751,3.266l0.78,2.836
			c0.06,0.206-0.113,0.372-0.311,0.312l-0.967-0.293c-0.049-0.017-0.138-0.084-0.16-0.185l-0.657-2.665
			c-0.246-0.033-0.523-0.104-0.747-0.171c-2.48-0.752-3.855-3.317-3.104-5.802C91.771,221.612,94.349,220.214,96.828,220.962z
			 M94.5,228.653c1.774,0.536,3.661-0.461,4.197-2.236c0.533-1.76-0.472-3.676-2.245-4.212c-1.761-0.534-3.659,0.502-4.191,2.264
			C91.724,226.242,92.74,228.121,94.5,228.653z"/>
		<path fill="#D2B0B0" d="M105.521,223.618c0.021-0.128,0.157-0.222,0.284-0.2l0.856,0.145c0.141,0.023,0.223,0.155,0.202,0.282
			l-0.888,5.278c-0.215,1.277,0.436,2.413,1.739,2.633c1.315,0.222,2.312-0.621,2.524-1.891l0.893-5.301
			c0.021-0.127,0.143-0.229,0.284-0.201l0.856,0.145c0.127,0.02,0.225,0.157,0.202,0.282l-0.901,5.366
			c-0.328,1.939-2.054,3.218-4.072,2.877c-2.006-0.336-3.207-2.104-2.881-4.046L105.521,223.618z"/>
		<path fill="#D2B0B0" d="M117.608,225.31c0.008-0.13,0.119-0.239,0.259-0.23l5.174,0.284c0.144,0.007,0.24,0.129,0.231,0.258
			l-0.039,0.728c-0.006,0.127-0.119,0.238-0.261,0.229l-4.087-0.226l-0.144,2.639l3.453,0.189c0.129,0.009,0.24,0.129,0.231,0.261
			l-0.039,0.724c-0.009,0.145-0.13,0.241-0.261,0.233l-3.452-0.192l-0.155,2.78l4.086,0.226c0.143,0.011,0.24,0.129,0.233,0.263
			l-0.041,0.711c-0.006,0.129-0.116,0.239-0.258,0.229l-5.173-0.284c-0.142-0.01-0.239-0.127-0.232-0.259L117.608,225.31z"/>
		<path fill="#D2B0B0" d="M127.806,233.13c0.109-0.172,0.203-0.371,0.312-0.545c0.11-0.173,0.289-0.232,0.437-0.123
			c0.08,0.061,1.112,0.845,2.108,0.797c0.893-0.039,1.438-0.609,1.407-1.269c-0.034-0.775-0.729-1.237-2.034-1.709
			c-1.344-0.5-2.409-1.138-2.477-2.635c-0.046-1.011,0.669-2.428,2.725-2.521c1.293-0.059,2.294,0.569,2.426,0.653
			c0.108,0.059,0.22,0.234,0.099,0.438c-0.098,0.159-0.205,0.345-0.302,0.506c-0.097,0.172-0.261,0.258-0.446,0.151
			c-0.092-0.048-1.025-0.604-1.776-0.568c-1.085,0.049-1.43,0.751-1.408,1.229c0.034,0.736,0.623,1.163,1.717,1.555
			c1.526,0.542,2.839,1.194,2.91,2.773c0.061,1.345-1.093,2.497-2.774,2.572c-1.577,0.073-2.61-0.711-2.826-0.896
			C127.78,233.441,127.687,233.355,127.806,233.13z"/>
		<path fill="#D2B0B0" d="M143.514,224.085c-0.028-0.125,0.05-0.263,0.176-0.287l2.91-0.632c2.445-0.53,4.876,1.023,5.402,3.453
			c0.535,2.459-1.037,4.88-3.48,5.407l-2.911,0.632c-0.126,0.026-0.254-0.064-0.28-0.191L143.514,224.085z M148.083,230.863
			c1.863-0.403,2.921-2.063,2.515-3.938c-0.403-1.861-2.052-2.924-3.911-2.521l-1.673,0.364l1.399,6.454L148.083,230.863z"/>
		<path fill="#D2B0B0" d="M159.115,219.49c2.438-0.87,5.091,0.396,5.959,2.835c0.868,2.44-0.391,5.076-2.829,5.944
			c-2.439,0.87-5.072-0.377-5.938-2.813C155.438,223.015,156.675,220.358,159.115,219.49z M161.812,227.05
			c1.744-0.62,2.666-2.544,2.043-4.289c-0.618-1.732-2.563-2.674-4.305-2.051c-1.731,0.617-2.642,2.579-2.023,4.309
			C158.149,226.764,160.081,227.669,161.812,227.05z"/>
		<path fill="#D2B0B0" d="M167.681,216.468c-0.058-0.117-0.007-0.271,0.109-0.332l0.773-0.393c0.126-0.063,0.272-0.008,0.33,0.108
			l2.418,4.77c0.583,1.153,1.782,1.678,2.958,1.081c1.189-0.603,1.489-1.874,0.909-3.016l-2.427-4.789
			c-0.059-0.118-0.018-0.268,0.107-0.334l0.773-0.392c0.116-0.059,0.271-0.008,0.332,0.109l2.457,4.85
			c0.89,1.754,0.259,3.801-1.566,4.727c-1.814,0.918-3.827,0.211-4.717-1.543L167.681,216.468z"/>
		<path fill="#D2B0B0" d="M181.514,208.145c1.088-0.726,2.119-0.886,3.275-0.738c0.154,0.021,0.239,0.153,0.212,0.295l-0.151,0.802
			c-0.013,0.148-0.107,0.211-0.268,0.179c-0.802-0.104-1.68,0.078-2.348,0.521c-1.54,1.027-1.841,3.096-0.834,4.604
			c1.007,1.51,3.034,2.005,4.576,0.978c0.785-0.523,1.127-1.202,1.379-1.945c0.046-0.141,0.151-0.194,0.25-0.184l0.818,0.155
			c0.139,0.017,0.209,0.172,0.187,0.297c-0.26,1.2-0.963,2.153-1.923,2.793c-2.154,1.435-5.03,0.878-6.468-1.275
			C178.781,212.471,179.359,209.58,181.514,208.145z"/>
		<path fill="#D2B0B0" d="M187.995,203.869c-0.084-0.1-0.08-0.255,0.029-0.345l3.967-3.336c0.11-0.093,0.266-0.071,0.348,0.028
			l0.466,0.556c0.086,0.099,0.082,0.255-0.028,0.347l-3.133,2.633l1.701,2.023l2.647-2.226c0.1-0.084,0.266-0.068,0.347,0.03
			l0.466,0.554c0.091,0.11,0.071,0.265-0.029,0.347l-2.645,2.225l1.791,2.134l3.131-2.633c0.111-0.09,0.266-0.069,0.347,0.029
			l0.459,0.546c0.085,0.1,0.08,0.256-0.029,0.349l-3.969,3.333c-0.108,0.091-0.264,0.068-0.346-0.028L187.995,203.869z"/>
		<path fill="#D2B0B0" d="M200.781,202.598c-0.04-0.201-0.108-0.41-0.146-0.612c-0.04-0.2,0.051-0.368,0.232-0.388
			c0.1-0.011,1.391-0.146,2.086-0.861c0.622-0.643,0.632-1.432,0.159-1.893c-0.558-0.544-1.381-0.404-2.656,0.147
			c-1.32,0.558-2.535,0.822-3.612-0.227c-0.725-0.704-1.174-2.229,0.262-3.706c0.904-0.93,2.064-1.152,2.221-1.182
			c0.118-0.03,0.32,0.021,0.369,0.252c0.04,0.183,0.09,0.392,0.126,0.574c0.051,0.194-0.014,0.369-0.224,0.416
			c-0.099,0.027-1.158,0.263-1.683,0.8c-0.76,0.779-0.529,1.527-0.187,1.86c0.53,0.514,1.253,0.423,2.317-0.041
			c1.485-0.652,2.888-1.074,4.02,0.028c0.968,0.939,0.915,2.573-0.263,3.777c-1.103,1.134-2.391,1.271-2.674,1.284
			C200.976,202.844,200.848,202.844,200.781,202.598z"/>
	</g>
</g>
<path fill="#1D1D1B" d="M136.117,127.77"/>
<path fill="none" stroke="#9AD1CA" stroke-width="1.0482" stroke-miterlimit="10" d="M132.513,133.608"/>
<g>
	<path fill="#D2B0B0" d="M40.419,127.24l-2.978,2.979c-0.194,0.19-0.543,0.19-0.735,0l-0.812-0.812
		c-0.194-0.196-0.194-0.545-0.001-0.737l2.979-2.979l-2.996-2.997c-0.194-0.196-0.174-0.522,0.019-0.716l0.812-0.812
		c0.194-0.195,0.521-0.214,0.716-0.02l2.996,2.996l2.977-2.977c0.194-0.195,0.523-0.174,0.718,0.018l0.813,0.814
		c0.191,0.191,0.211,0.521,0.018,0.716l-2.978,2.977l2.958,2.962c0.194,0.194,0.174,0.521-0.019,0.715l-0.812,0.812
		c-0.194,0.193-0.522,0.211-0.716,0.017L40.419,127.24z"/>
</g>
<g>
	<path fill="#D2B0B0" d="M211.134,127.24l-2.978,2.979c-0.193,0.19-0.545,0.19-0.735,0l-0.813-0.812
		c-0.193-0.196-0.193-0.545,0-0.737l2.978-2.979l-2.995-2.997c-0.194-0.196-0.174-0.522,0.02-0.716l0.812-0.812
		c0.194-0.195,0.52-0.214,0.716-0.02l2.997,2.996l2.976-2.977c0.194-0.195,0.523-0.174,0.717,0.018l0.814,0.814
		c0.193,0.191,0.211,0.521,0.018,0.716l-2.977,2.977l2.957,2.962c0.194,0.194,0.174,0.521-0.019,0.715l-0.812,0.812
		c-0.195,0.193-0.521,0.211-0.715,0.017L211.134,127.24z"/>
</g>
<g>
	<path fill="#D2B0B0" d="M97.051,171.711c0.099-0.144,0.188-0.308,0.287-0.452c0.1-0.142,0.253-0.188,0.375-0.089
		c0.066,0.057,0.916,0.763,1.765,0.763c0.761,0,1.246-0.465,1.246-1.025c0-0.662-0.573-1.081-1.666-1.535
		c-1.125-0.475-2.007-1.059-2.007-2.34c0-0.859,0.662-2.04,2.415-2.04c1.104,0,1.931,0.574,2.041,0.652
		c0.089,0.055,0.177,0.209,0.067,0.373c-0.089,0.133-0.188,0.288-0.276,0.42c-0.088,0.144-0.232,0.209-0.387,0.112
		c-0.077-0.048-0.849-0.552-1.488-0.552c-0.926,0-1.247,0.583-1.247,0.993c0,0.627,0.486,1.013,1.401,1.39
		c1.28,0.52,2.371,1.124,2.371,2.471c0,1.148-1.025,2.084-2.46,2.084c-1.345,0-2.195-0.705-2.371-0.871
		C97.018,171.977,96.939,171.898,97.051,171.711z"/>
	<path fill="#D2B0B0" d="M107.837,166.143h-1.798c-0.122,0-0.209-0.1-0.209-0.212v-0.615c0-0.112,0.088-0.211,0.209-0.211h4.744
		c0.121,0,0.208,0.099,0.208,0.211v0.615c0,0.112-0.088,0.212-0.208,0.212h-1.799v6.474c0,0.11-0.099,0.209-0.21,0.209h-0.728
		c-0.11,0-0.209-0.099-0.209-0.209V166.143z"/>
	<path fill="#D2B0B0" d="M115.392,165.315c0-0.112,0.099-0.211,0.209-0.211h0.739c0.123,0,0.211,0.099,0.211,0.211v4.555
		c0,1.103,0.706,1.96,1.832,1.96c1.134,0,1.853-0.849,1.853-1.941v-4.578c0-0.109,0.087-0.208,0.208-0.208h0.739
		c0.111,0,0.21,0.099,0.21,0.208v4.635c0,1.676-1.269,2.985-3.009,2.985c-1.732,0-2.991-1.312-2.991-2.985V165.315z"/>
	<path fill="#D2B0B0" d="M126.742,165.315c0-0.112,0.088-0.211,0.199-0.211h2.534c2.129,0,3.869,1.731,3.869,3.849
		c0,2.138-1.741,3.87-3.869,3.87h-2.534c-0.111,0-0.197-0.1-0.197-0.209L126.742,165.315L126.742,165.315z M129.324,171.778
		c1.62,0,2.802-1.191,2.802-2.825c0-1.622-1.182-2.801-2.802-2.801h-1.457v5.626H129.324z"/>
	<path fill="#D2B0B0" d="M138.247,165.315c0-0.112,0.099-0.211,0.21-0.211h0.727c0.11,0,0.21,0.099,0.21,0.211v7.299
		c0,0.109-0.1,0.209-0.21,0.209h-0.727c-0.111,0-0.21-0.1-0.21-0.209V165.315z"/>
	<path fill="#D2B0B0" d="M148.24,164.994c2.205,0,3.97,1.777,3.97,3.981c0,2.206-1.765,3.96-3.97,3.96
		c-2.208,0-3.961-1.754-3.961-3.96S146.033,164.994,148.24,164.994z M148.24,171.832c1.576,0,2.867-1.277,2.867-2.856
		c0-1.564-1.291-2.879-2.867-2.879c-1.567,0-2.857,1.314-2.857,2.879C145.383,170.555,146.673,171.832,148.24,171.832z"/>
</g>
<g>
	<path fill="#D2B0B0" d="M141.052,125.194c0,6.682-2.357,12.145-7.073,16.398c-4.29,3.859-9.31,5.788-15.06,5.788
		c-6.252,0-11.379-1.821-15.379-5.467c-4.431-3.998-6.645-9.594-6.645-16.773c0-6.86,2.446-12.396,7.341-16.612
		c4.288-3.679,9.198-5.52,14.736-5.52c6.681,0,12.059,2.055,16.133,6.163C139.069,113.245,141.052,118.585,141.052,125.194z
		 M136.979,125.22c0-5.421-1.785-10.112-5.356-14.074c-3.575-3.96-7.79-5.94-12.646-5.94c-5.286,0-9.575,1.766-12.861,5.297
		c-3.429,3.676-5.144,8.545-5.144,14.61c0,5.497,1.777,10.179,5.333,14.05c3.553,3.869,7.76,5.805,12.619,5.805
		c4.895,0,9.021-1.605,12.379-4.815C135.086,136.549,136.979,131.572,136.979,125.22z"/>
	<path fill="#D2B0B0" d="M182.089,144.432c-0.536-0.429-1.18-1.499-1.928-3.214c-2.179-5.003-4.733-11.324-7.662-18.97
		c-1.237-3.227-3.059-8.127-5.465-14.686l0,0c0-0.001,0-0.001,0-0.001c-0.116-0.309-0.229-0.619-0.345-0.935
		c-0.284-0.91-0.173-1.475,0.345-1.688c0.608-0.249,1.52-0.375,2.733-0.375v-0.803c-1.309,0.1-2.667,0.149-4.068,0.155
		c-0.002-0.003-0.002-0.004-0.004-0.006l0.004,0.006c-0.079,0-0.156,0.004-0.233,0.004l-3.361,0.001c-1.499,0-2.946-0.052-4.34-0.16
		v0.803c1.215,0,2.124,0.125,2.732,0.374c0.61,0.25,0.662,0.984,0.161,2.198c-6.966,16.649-12.164,28.602-15.595,35.851
		c-0.463,0.965-1.036,1.626-1.714,1.982c-0.429,0.144-0.838,0.287-1.232,0.429c-0.822,0.107-1.588,0.198-2.303,0.269v0.91
		c3.142-0.106,5.107-0.16,5.893-0.16l5.842,0.16v-0.91c-1.144,0-1.928-0.088-2.357-0.269c-0.644-0.25-0.804-0.765-0.48-1.554
		c2.464-6.395,4.411-11.289,5.842-14.685c0.143-0.321,0.393-0.498,0.749-0.534c4.29-0.035,9.217-0.02,14.792,0.052
		c0.322,0,0.536,0.07,0.645,0.216c0.642,1.001,2.428,5.914,5.356,14.735c0.035,0.143,0.053,0.302,0.053,0.481
		c0,0.749-0.338,1.195-1.017,1.337c-0.787,0.108-1.395,0.179-1.819,0.216v0.909c3.785-0.105,6.106-0.157,6.965-0.157l6.858,0.157
		v-0.909C184.482,145.416,182.802,145.005,182.089,144.432z M169.288,126.267c-4.575,0.142-8.933,0.159-13.078,0.052
		c-0.286-0.034-0.376-0.177-0.266-0.427c1.467-3.573,3.9-9.255,7.3-17.049c2.46,6.36,4.565,11.99,6.313,16.883
		C169.698,126.088,169.61,126.267,169.288,126.267z"/>
	<path fill="#D2B0B0" d="M88.42,126.59c-3.858-3.325-7.36-6.289-10.503-8.897c-1.5-1.357-2.251-3.09-2.251-5.198
		c0-1.608,0.553-3.109,1.661-4.5c1.429-1.681,3.34-2.52,5.733-2.52c2.036,0,3.645,0.428,4.823,1.287
		c1.321,0.964,1.965,2.358,1.93,4.179h0.965c-0.144-2.284-0.144-4.303,0-6.055c-0.003-0.001-0.007-0.003-0.009-0.003
		c0.027-0.434,0.056-0.872,0.084-1.309h-0.964c0.008,0.477-0.624,0.698-1.077,0.534l0.002,0.001
		c-1.855-0.623-3.719-0.938-5.592-0.938c-2.859,0-5.376,0.769-7.556,2.306c-2.752,1.928-4.126,4.718-4.126,8.361
		c0,2.572,1,4.825,2.999,6.754c4.004,3.496,7.508,6.514,10.512,9.042c0.997,1.036,1.656,1.872,1.978,2.515
		c0.426,0.89,0.642,2.066,0.642,3.524c0,2.351-0.752,4.346-2.25,5.985c-1.788,1.96-4.323,2.938-7.61,2.938
		c-3.68,0-5.931-0.974-6.752-2.92c-0.321-1.417-0.481-2.462-0.481-3.134h-0.857c0.142,3.162,0.142,5.573,0,7.241
		c0.001,0.002,0.002,0.002,0.004,0.002c-0.03,0.429-0.059,0.861-0.087,1.292H70.6c-0.008-0.476,0.38-0.909,0.849-0.799l-0.005-0.009
		c2.083,0.52,4.187,0.795,6.313,0.795c4.358,0,7.769-0.98,10.234-2.942c2.787-2.209,4.18-5.487,4.18-9.833
		C92.17,131.647,90.92,129.084,88.42,126.59z"/>
</g>
<circle fill="#D2B0B0" cx="112.82" cy="96.871" r="2.167"/>
<circle fill="#D2B0B0" cx="124.38" cy="96.871" r="2.167"/>
<line fill="none" stroke="#D2B0B0" stroke-width="1.5496" stroke-linecap="round" stroke-linejoin="round" stroke-miterlimit="10" stroke-dasharray="0,4.6396" x1="41.945" y1="185.121" x2="41.945" y2="185.121"/>
<line fill="none" stroke="#D2B0B0" stroke-width="1.5496" stroke-linecap="round" stroke-linejoin="round" stroke-miterlimit="10" stroke-dasharray="0,4.6396" x1="22.293" y1="124.452" x2="22.293" y2="124.452"/>
<path fill="none" stroke="#D2B0B0" stroke-width="1.5496" stroke-linecap="round" stroke-linejoin="round" stroke-miterlimit="10" stroke-dasharray="0,4.6396" d="
	M57.635,46.592c-21.12,18.485-34.653,45.427-35.315,75.539"/>
<path fill="none" stroke="#D2B0B0" stroke-width="1.5496" stroke-linecap="round" stroke-linejoin="round" stroke-miterlimit="10" stroke-dasharray="0,4.6396" d="
	M22.396,129.084c0.884,20.062,7.484,38.642,18.21,54.147"/>
<path fill="none" stroke="#D2B0B0" stroke-width="1.5496" stroke-linecap="round" stroke-linejoin="round" stroke-miterlimit="10" stroke-dasharray="0,4.6396" d="
	M212.25,181.142c10.294-15.683,16.44-34.327,16.879-54.382"/>
<path fill="none" stroke="#D2B0B0" stroke-width="1.5496" stroke-linecap="round" stroke-linejoin="round" stroke-miterlimit="10" stroke-dasharray="0,4.6396" d="
	M229.05,119.792c-1.335-30.152-15.581-56.946-37.345-74.994"/>
<line fill="none" stroke="#D2B0B0" stroke-width="1.5496" stroke-linecap="round" stroke-linejoin="round" stroke-miterlimit="10" stroke-dasharray="0,4.6396" x1="229.154" y1="124.452" x2="229.154" y2="124.452"/>
<line fill="none" stroke="#D2B0B0" stroke-width="1.5496" stroke-linecap="round" stroke-linejoin="round" stroke-miterlimit="10" stroke-dasharray="0,4.6396" x1="209.631" y1="184.941" x2="209.631" y2="184.941"/>
<circle fill="#D2B0B0" cx="61.225" cy="43.608" r="1.319"/>
<circle fill="#D2B0B0" cx="189.868" cy="43.509" r="1.319"/>
<circle fill="#D2B0B0" cx="45.324" cy="189.367" r="1.319"/>
<circle fill="#D2B0B0" cx="206.376" cy="189.367" r="1.319"/>
</svg>
