<?xml version="1.0" encoding="utf-8"?>
<!-- Generator: Adobe Illustrator 16.0.0, SVG Export Plug-In . SVG Version: 6.00 Build 0)  -->
<!DOCTYPE svg PUBLIC "-//W3C//DTD SVG 1.1//EN" "http://www.w3.org/Graphics/SVG/1.1/DTD/svg11.dtd">
<svg version="1.1" id="Calque_1" xmlns="http://www.w3.org/2000/svg" xmlns:xlink="http://www.w3.org/1999/xlink" x="0px" y="0px"
	 width="250px" height="250px" viewBox="0 0 250 250" enable-background="new 0 0 250 250" xml:space="preserve">
<circle fill="none" stroke="#D2B0B0" stroke-width="2.3121" stroke-miterlimit="10" cx="126.141" cy="125.635" r="106.929"/>
<circle fill="none" stroke="#D2B0B0" stroke-width="0.8893" stroke-miterlimit="10" cx="126.142" cy="125.635" r="103.316"/>
<g>
	<path fill="#D2B0B0" d="M53.137,151.833h1.601v9.431h4.495v1.568h-6.096V151.833z"/>
	<path fill="#D2B0B0" d="M60.793,151.833h6.413v1.539h-4.807v2.657h4.588v1.509h-4.588v3.726h4.901v1.568h-6.506V151.833z"/>
	<path fill="#D2B0B0" d="M73.466,156.532c1.726,0,3.112,1.414,3.112,3.111c0,1.729-1.4,3.188-3.112,3.188h-4.259v-1.568h3.974
		c0.945,0,1.699-0.677,1.699-1.605c0-0.942-0.754-1.62-1.699-1.62h-1.521c-1.699,0-3.05-1.46-3.05-3.142
		c0-1.681,1.351-3.063,3.05-3.063h3.503v1.493h-3.316c-0.88,0-1.603,0.724-1.603,1.602c0,0.88,0.723,1.604,1.603,1.604H73.466z"/>
	<path fill="#D2B0B0" d="M82.917,159.77c0,1.195,0.611,1.667,1.381,1.667c0.787,0,1.402-0.631,1.402-1.4v-8.203h1.602v8.187
		c0,1.684-1.336,3.019-3.003,3.019c-1.648,0-2.986-1.193-2.986-3.269H82.917z"/>
	<path fill="#D2B0B0" d="M90.919,160.084l-1.132,2.748H88.09l4.651-11.204l4.653,11.204h-1.697l-1.132-2.748H90.919z
		 M92.741,155.385l-1.289,3.283h2.579L92.741,155.385z"/>
	<path fill="#D2B0B0" d="M106.515,162.377v0.455h-1.636v-0.455c0-1.209-0.894-2.765-2.499-2.765h-1.947v3.22h-1.621v-10.999h3.568
		c2.343,0,4.135,1.635,4.135,3.897c0,1.571-0.958,2.719-1.841,3.173C106.041,159.692,106.515,161.056,106.515,162.377z
		 M102.569,153.247h-2.137v4.95h2.137c1.306,0,2.278-1.239,2.278-2.467C104.847,154.456,103.875,153.247,102.569,153.247z"/>
	<path fill="#D2B0B0" d="M108.624,151.833h3.849c2.957,0,5.328,2.467,5.328,5.498c0,3.034-2.292,5.501-5.328,5.501h-3.849V151.833z
		 M112.285,161.42c2.248,0,3.853-1.839,3.853-4.089c0-2.247-1.621-4.084-3.853-4.084h-2.056v8.173H112.285z"/>
	<path fill="#D2B0B0" d="M119.505,151.833h1.602v10.999h-1.602V151.833z"/>
	<path fill="#D2B0B0" d="M123.387,151.833h1.477l5.626,6.931v-6.931h1.511v11.19l-7.103-8.489v8.298h-1.511V151.833z"/>
	<path fill="#D2B0B0" d="M138.512,156.532c1.729,0,3.112,1.414,3.112,3.111c0,1.729-1.401,3.188-3.112,3.188h-4.258v-1.568h3.977
		c0.941,0,1.694-0.677,1.694-1.605c0-0.942-0.753-1.62-1.694-1.62h-1.527c-1.699,0-3.047-1.46-3.047-3.142
		c0-1.681,1.348-3.063,3.047-3.063h3.507v1.493h-3.315c-0.883,0-1.604,0.724-1.604,1.602c0,0.88,0.721,1.604,1.604,1.604H138.512z"
		/>
	<path fill="#D2B0B0" d="M147.21,151.833h3.851c2.955,0,5.326,2.467,5.326,5.498c0,3.034-2.295,5.501-5.326,5.501h-3.851V151.833z
		 M150.87,161.42c2.248,0,3.852-1.839,3.852-4.089c0-2.247-1.619-4.084-3.852-4.084h-2.06v8.173H150.87z"/>
	<path fill="#D2B0B0" d="M158.154,151.833h1.741l-1.807,3.363h-0.978L158.154,151.833z"/>
	<path fill="#D2B0B0" d="M161.203,151.833h6.41v1.539h-4.808v2.657h4.59v1.509h-4.59v3.726h4.905v1.568h-6.508V151.833z"/>
	<path fill="#D2B0B0" d="M169.643,151.833h3.851c2.957,0,5.33,2.467,5.33,5.498c0,3.034-2.295,5.501-5.33,5.501h-3.851V151.833z
		 M173.308,161.42c2.246,0,3.849-1.839,3.849-4.089c0-2.247-1.614-4.084-3.849-4.084h-2.06v8.173H173.308z"/>
	<path fill="#D2B0B0" d="M180.526,151.833h6.412v1.539h-4.809v2.657h4.587v1.509h-4.587v3.726h4.902v1.568h-6.506V151.833z"/>
	<path fill="#D2B0B0" d="M188.888,151.833h1.476l5.631,6.931v-6.931h1.509v11.19l-7.104-8.489v8.298h-1.512V151.833z"/>
</g>
<line fill="none" stroke="#D2B0B0" stroke-width="0.7737" stroke-miterlimit="10" x1="53.888" y1="183.036" x2="198.516" y2="183.036"/>
<line fill="none" stroke="#D2B0B0" stroke-width="0.7737" stroke-miterlimit="10" x1="53.863" y1="191.585" x2="198.491" y2="191.585"/>
<path fill="#D2B0B0" d="M123.165,214.131c0,1.679,1.358,3.041,3.04,3.041c1.675,0,3.033-1.362,3.033-3.041
	c0-1.677-1.358-3.037-3.033-3.037C124.522,211.094,123.165,212.454,123.165,214.131z"/>
<g>
	
		<rect x="124.734" y="112.891" transform="matrix(0.7062 -0.708 0.708 0.7062 -46.1194 123.2357)" fill="#D2B0B0" width="1.42" height="8.604"/>
	
		<rect x="124.735" y="112.89" transform="matrix(-0.705 -0.7092 0.7092 -0.705 130.776 288.7799)" fill="#D2B0B0" width="1.418" height="8.606"/>
</g>
<g>
	
		<line fill="none" stroke="#D2B0B0" stroke-width="0.583" stroke-miterlimit="10" x1="96.194" y1="147.051" x2="146.206" y2="97.273"/>
	
		<line fill="none" stroke="#D2B0B0" stroke-width="0.583" stroke-miterlimit="10" x1="76.515" y1="166.732" x2="66.369" y2="176.824"/>
</g>
<g>
	
		<line fill="none" stroke="#D2B0B0" stroke-width="0.583" stroke-miterlimit="10" x1="174.07" y1="166.688" x2="184.218" y2="176.835"/>
	
		<line fill="none" stroke="#D2B0B0" stroke-width="0.583" stroke-miterlimit="10" x1="105.332" y1="97.947" x2="154.63" y2="147.249"/>
</g>
<path fill="#D2B0B0" d="M109.953,60.094c0,14.923,12.104,27.029,27.028,27.029c14.931,0,27.031-12.105,27.031-27.029
	c0-14.929-12.101-27.031-27.031-27.031C122.057,33.062,109.953,45.165,109.953,60.094z"/>
<rect x="53.825" y="176.52" fill="#D2B0B0" width="144.623" height="2.134"/>
<g>
	<defs>
		<rect id="SVGID_1_" x="53.908" y="183.036" width="144.584" height="8.549"/>
	</defs>
	<clipPath id="SVGID_2_">
		<use xlink:href="#SVGID_1_"  overflow="visible"/>
	</clipPath>
	<polyline clip-path="url(#SVGID_2_)" fill="none" stroke="#1D1D1B" stroke-width="0.399" stroke-miterlimit="10" points="
		21.227,233.646 47.645,214.494 73.712,233.646 100.846,214.494 127.267,233.646 	"/>
	<polyline clip-path="url(#SVGID_2_)" fill="none" stroke="#1D1D1B" stroke-width="0.399" stroke-miterlimit="10" points="
		21.227,238.904 47.645,219.755 73.712,238.904 100.846,219.755 127.267,238.904 	"/>
	<polyline clip-path="url(#SVGID_2_)" fill="none" stroke="#1D1D1B" stroke-width="0.399" stroke-miterlimit="10" points="
		127.018,233.646 153.438,214.494 179.504,233.646 206.637,214.494 233.059,233.646 	"/>
	<polyline clip-path="url(#SVGID_2_)" fill="none" stroke="#1D1D1B" stroke-width="0.399" stroke-miterlimit="10" points="
		127.018,238.904 153.438,219.755 179.504,238.904 206.637,219.755 233.059,238.904 	"/>
	<polyline clip-path="url(#SVGID_2_)" fill="none" stroke="#D2B0B0" stroke-width="0.583" stroke-miterlimit="10" points="
		21.227,202.105 47.645,182.952 73.712,202.105 100.846,182.952 127.267,202.105 	"/>
	<polyline clip-path="url(#SVGID_2_)" fill="none" stroke="#D2B0B0" stroke-width="0.583" stroke-miterlimit="10" points="
		21.227,207.362 47.645,188.211 73.712,207.362 100.846,188.211 127.267,207.362 	"/>
	<polyline clip-path="url(#SVGID_2_)" fill="none" stroke="#1D1D1B" stroke-width="0.399" stroke-miterlimit="10" points="
		21.227,212.619 47.645,193.468 73.712,212.619 100.846,193.468 127.267,212.619 	"/>
	<polyline clip-path="url(#SVGID_2_)" fill="none" stroke="#1D1D1B" stroke-width="0.399" stroke-miterlimit="10" points="
		21.227,217.875 47.645,198.724 73.712,217.875 100.846,198.724 127.267,217.875 	"/>
	<polyline clip-path="url(#SVGID_2_)" fill="none" stroke="#1D1D1B" stroke-width="0.399" stroke-miterlimit="10" points="
		21.227,223.132 47.645,203.982 73.712,223.132 100.846,203.982 127.267,223.132 	"/>
	<polyline clip-path="url(#SVGID_2_)" fill="none" stroke="#1D1D1B" stroke-width="0.399" stroke-miterlimit="10" points="
		21.227,228.39 47.645,209.239 73.712,228.39 100.846,209.239 127.267,228.39 	"/>
	<polyline clip-path="url(#SVGID_2_)" fill="none" stroke="#D2B0B0" stroke-width="0.583" stroke-miterlimit="10" points="
		21.227,196.887 47.645,177.735 73.712,196.887 100.846,177.735 127.267,196.887 	"/>
	<polyline clip-path="url(#SVGID_2_)" fill="none" stroke="#D2B0B0" stroke-width="0.583" stroke-miterlimit="10" points="
		21.227,191.797 47.645,172.648 73.712,191.797 100.846,172.648 127.267,191.797 	"/>
	<polyline clip-path="url(#SVGID_2_)" fill="none" stroke="#D2B0B0" stroke-width="0.583" stroke-miterlimit="10" points="
		21.227,186.246 47.645,167.096 73.712,186.246 100.846,167.096 127.267,186.246 	"/>
	<polyline clip-path="url(#SVGID_2_)" fill="none" stroke="#D2B0B0" stroke-width="0.583" stroke-miterlimit="10" points="
		127.018,202.105 153.438,182.952 179.504,202.105 206.637,182.952 233.059,202.105 	"/>
	<polyline clip-path="url(#SVGID_2_)" fill="none" stroke="#D2B0B0" stroke-width="0.583" stroke-miterlimit="10" points="
		127.018,207.362 153.438,188.211 179.504,207.362 206.637,188.211 233.059,207.362 	"/>
	<polyline clip-path="url(#SVGID_2_)" fill="none" stroke="#1D1D1B" stroke-width="0.399" stroke-miterlimit="10" points="
		127.018,212.619 153.438,193.468 179.504,212.619 206.637,193.468 233.059,212.619 	"/>
	<polyline clip-path="url(#SVGID_2_)" fill="none" stroke="#1D1D1B" stroke-width="0.399" stroke-miterlimit="10" points="
		127.018,217.875 153.438,198.724 179.504,217.875 206.637,198.724 233.059,217.875 	"/>
	<polyline clip-path="url(#SVGID_2_)" fill="none" stroke="#1D1D1B" stroke-width="0.399" stroke-miterlimit="10" points="
		127.018,223.132 153.438,203.982 179.504,223.132 206.637,203.982 233.059,223.132 	"/>
	<polyline clip-path="url(#SVGID_2_)" fill="none" stroke="#1D1D1B" stroke-width="0.399" stroke-miterlimit="10" points="
		127.018,228.39 153.438,209.239 179.504,228.39 206.637,209.239 233.059,228.39 	"/>
	<polyline clip-path="url(#SVGID_2_)" fill="none" stroke="#D2B0B0" stroke-width="0.583" stroke-miterlimit="10" points="
		127.018,196.887 153.438,177.735 179.504,196.887 206.637,177.735 233.059,196.887 	"/>
	<polyline clip-path="url(#SVGID_2_)" fill="none" stroke="#D2B0B0" stroke-width="0.583" stroke-miterlimit="10" points="
		127.018,191.797 153.438,172.648 179.504,191.797 206.637,172.648 233.059,191.797 	"/>
	<polyline clip-path="url(#SVGID_2_)" fill="none" stroke="#D2B0B0" stroke-width="0.583" stroke-miterlimit="10" points="
		127.018,186.246 153.438,167.096 179.504,186.246 206.637,167.096 233.059,186.246 	"/>
</g>
<g>
	<path fill="#D2B0B0" d="M73.4,199.836h3.051v0.732h-2.288v1.264h2.184v0.718h-2.184v1.771h2.333v0.748H73.4V199.836z"/>
	<path fill="#D2B0B0" d="M77.748,199.836h0.703l2.677,3.297v-3.297h0.718v5.323l-3.379-4.038v3.948h-0.718V199.836z"/>
	<path fill="#D2B0B0" d="M84.232,200.568h-1.293v-0.732h3.35v0.732h-1.293v4.501h-0.763V200.568z"/>
	<path fill="#D2B0B0" d="M91.085,204.853v0.217h-0.778v-0.217c0-0.576-0.426-1.316-1.189-1.316h-0.927v1.533h-0.771v-5.233h1.697
		c1.114,0,1.967,0.777,1.967,1.854c0,0.748-0.457,1.294-0.875,1.511C90.861,203.574,91.085,204.225,91.085,204.853z M89.208,200.509
		h-1.017v2.354h1.017c0.621,0,1.084-0.59,1.084-1.174C90.292,201.084,89.829,200.509,89.208,200.509z"/>
	<path fill="#D2B0B0" d="M92.456,199.836h3.051v0.732h-2.288v1.264h2.184v0.718h-2.184v1.771h2.333v0.748h-3.096V199.836z"/>
	<path fill="#D2B0B0" d="M98.688,203.312h-1.084v1.757h-0.763v-5.233h1.847c0.957,0,1.727,0.785,1.727,1.742
		C100.415,202.542,99.645,203.312,98.688,203.312z M98.583,200.509h-0.979v2.131h0.979c0.666,0,1.04-0.441,1.04-1.062
		C99.623,200.987,99.167,200.509,98.583,200.509z"/>
	<path fill="#D2B0B0" d="M105.248,204.853v0.217h-0.778v-0.217c0-0.576-0.426-1.316-1.189-1.316h-0.927v1.533h-0.771v-5.233h1.697
		c1.114,0,1.967,0.777,1.967,1.854c0,0.748-0.456,1.294-0.875,1.511C105.023,203.574,105.248,204.225,105.248,204.853z
		 M103.371,200.509h-1.017v2.354h1.017c0.621,0,1.084-0.59,1.084-1.174C104.455,201.084,103.992,200.509,103.371,200.509z"/>
	<path fill="#D2B0B0" d="M106.619,199.836h3.051v0.732h-2.288v1.264h2.184v0.718h-2.184v1.771h2.333v0.748h-3.096V199.836z"/>
	<path fill="#D2B0B0" d="M110.967,199.836h0.703l2.677,3.297v-3.297h0.718v5.323l-3.379-4.038v3.948h-0.718V199.836z"/>
	<path fill="#D2B0B0" d="M116.517,199.836h3.051v0.732h-2.288v1.264h2.184v0.718h-2.184v1.771h2.333v0.748h-3.096V199.836z"/>
	<path fill="#D2B0B0" d="M121.664,199.836v3.566c0,0.561,0.464,1.031,1.032,1.031c0.568,0,1.04-0.471,1.04-1.031v-3.566h0.763v3.566
		c0,0.986-0.808,1.765-1.81,1.765c-0.994,0-1.787-0.778-1.787-1.765v-3.566H121.664z"/>
	<path fill="#D2B0B0" d="M129.577,204.853v0.217H128.8v-0.217c0-0.576-0.426-1.316-1.188-1.316h-0.928v1.533h-0.77v-5.233h1.698
		c1.113,0,1.966,0.777,1.966,1.854c0,0.748-0.456,1.294-0.874,1.511C129.354,203.574,129.577,204.225,129.577,204.853z
		 M127.701,200.509h-1.018v2.354h1.018c0.62,0,1.084-0.59,1.084-1.174C128.785,201.084,128.321,200.509,127.701,200.509z"/>
	<path fill="#D2B0B0" d="M136.007,203.312h-1.084v1.757h-0.763v-5.233h1.847c0.957,0,1.728,0.785,1.728,1.742
		C137.734,202.542,136.964,203.312,136.007,203.312z M135.902,200.509h-0.979v2.131h0.979c0.666,0,1.039-0.441,1.039-1.062
		C136.941,200.987,136.485,200.509,135.902,200.509z"/>
	<path fill="#D2B0B0" d="M139.129,203.761l-0.538,1.309h-0.808l2.213-5.331l2.213,5.331h-0.808l-0.538-1.309H139.129z
		 M139.996,201.525l-0.613,1.562h1.227L139.996,201.525z"/>
	<path fill="#D2B0B0" d="M144.225,205.069h-0.763v-2.206l-1.615-3.027h0.845l1.151,2.272l1.151-2.272h0.846l-1.615,3.027V205.069z"
		/>
	<path fill="#D2B0B0" d="M148.722,202.071c0.822,0,1.48,0.673,1.48,1.48c0,0.822-0.666,1.518-1.48,1.518h-2.026v-0.748h1.892
		c0.448,0,0.808-0.321,0.808-0.763c0-0.448-0.359-0.77-0.808-0.77h-0.726c-0.808,0-1.45-0.695-1.45-1.495
		c0-0.801,0.643-1.458,1.45-1.458h1.668v0.71h-1.578c-0.419,0-0.763,0.344-0.763,0.763s0.344,0.763,0.763,0.763H148.722z"/>
	<path fill="#D2B0B0" d="M152.246,203.761l-0.538,1.309H150.9l2.213-5.331l2.213,5.331h-0.808l-0.538-1.309H152.246z
		 M153.113,201.525l-0.613,1.562h1.227L153.113,201.525z"/>
	<path fill="#D2B0B0" d="M158.403,202.049h2.722c0.022,0.135,0.029,0.27,0.029,0.411c0,1.495-1.121,2.707-2.684,2.707
		c-1.488,0-2.685-1.212-2.685-2.707c0-1.503,1.196-2.714,2.685-2.714c0.874,0,1.659,0.426,2.146,1.084c0,0-0.636,0.493-0.636,0.486
		c-0.336-0.494-0.89-0.823-1.51-0.823c-1.024,0-1.862,0.883-1.862,1.967c0,1.076,0.838,1.959,1.862,1.959
		c1.054,0,1.809-0.688,1.861-1.667h-1.929V202.049z"/>
	<path fill="#D2B0B0" d="M162.396,199.836h0.763v5.233h-0.763V199.836z"/>
	<path fill="#D2B0B0" d="M166.664,202.071c0.822,0,1.48,0.673,1.48,1.48c0,0.822-0.666,1.518-1.48,1.518h-2.026v-0.748h1.892
		c0.448,0,0.808-0.321,0.808-0.763c0-0.448-0.359-0.77-0.808-0.77h-0.726c-0.808,0-1.45-0.695-1.45-1.495
		c0-0.801,0.643-1.458,1.45-1.458h1.668v0.71h-1.578c-0.419,0-0.763,0.344-0.763,0.763s0.344,0.763,0.763,0.763H166.664z"/>
	<path fill="#D2B0B0" d="M169.778,200.568h-1.293v-0.732h3.35v0.732h-1.294v4.501h-0.763V200.568z"/>
	<path fill="#D2B0B0" d="M172.967,199.836h3.051v0.732h-2.288v1.264h2.184v0.718h-2.184v1.771h2.333v0.748h-3.096V199.836z"/>
</g>
<path fill="#D2B0B0" d="M122.518,82.898c-5.974-3.797-10.356-9.86-11.921-16.993c-2.63-1.213-5.546-1.91-8.632-1.91
	c-11.399,0-20.642,9.242-20.642,20.642c0,11.399,9.242,20.639,20.642,20.639c11.399,0,20.641-9.24,20.641-20.639
	C122.605,84.051,122.564,83.474,122.518,82.898z"/>
<path fill="#D2B0B0" d="M160.259,77.729c-1.063,0-2.1,0.108-3.104,0.309c-2.783,3.128-6.271,5.604-10.23,7.172
	c-1.465,2.382-2.323,5.176-2.323,8.177c0,8.647,7.011,15.658,15.658,15.658c8.646,0,15.658-7.011,15.658-15.658
	C175.917,84.738,168.904,77.729,160.259,77.729z"/>
<g>
	<path fill="#D2B0B0" d="M374.355,228.014c0.103,2.172-0.209,9.035-7.483,10.014c-1.136,0.156-4.286,0.461-4.336-4.695
		c-0.054-5.162-0.054-21.061-0.054-21.061s0.414-2.992-2.836-1.082c-1.242,0.826-1.857,2.891-1.857,3.355v18.012
		c0,0-0.309,6.916,6.811,7.176c4.495,0.053,10.973-0.105,13.834-6.814c2.858-6.711-1.339-11.732-7.38-12.072
		c0,0,6.937-1.654,7.146-7.92c0-4.178-4.217-7.723-9.631-7.875c-5.412-0.158-10.26,0.566-13.721,2.943
		c-3.457,2.373-8.722,9.289-5.215,15.379c1.04,1.529,3.15,1.443,4.028,1.443s3.219,0,0.382-3.561
		c-1.137-2.064-1.083-7.396,2.064-10.6c1.91-2.064,6.688-5.039,11.85-3.805c2.013,0.416,7.076,2.428,4.941,9.102
		c-0.517,1.037-2.516,4.219-7.109,4.322c0,0-2.096-0.055-1.321,1.027C365.24,222.391,373.715,220.068,374.355,228.014z"/>
	<path fill="#D2B0B0" d="M400.973,229.943c0.441-3.039,0.547-5.307,0.639-6.311c0,0,0.565,0.619,4.9,0.619
		c0,0-1.339,18.582,1.602,22.449c0.465,0.828,3.459,6.656,10.685,4.799c2.22-0.518,4.284-3.457,4.851-5.111
		c0.569-1.648-0.771-1.131-1.443-0.049c-0.672,1.084-2.374,4.08-6.039,4.023c-2.788-0.256-5.164-2.424-5.264-10.992
		c0.205-8.514,0.463-16.566,0.463-16.566s0-2.271-2.426-2.527c-2.426-0.26-6.143,0.359-6.453-1.547
		c0.054-0.881,0.518-1.809,0.877-2.375c0.363-0.568-2.424-2.273-3.814-0.672c-1.396,1.6-2.066,4.9,0.307,6.967l0.285,0.154
		l-0.99,11.51"/>
	<path fill="#D2B0B0" d="M399.746,227.367c0,0-0.114,8.783-7.182,10.383c-7.071,1.602-7.571-6.264-7.571-6.264
		s11.905-3.197,12.045-11.457c0.041-2.721-2.902-5.014-5.404-5.014c-2.504,0-6.812,0.668-9.442,4.281
		c-2.635,3.611-2.377,10.805-2.068,12.189c0.311,1.385,1.113,6.52,7.046,8.045c1.083,0.41,6.597,0.248,9.237-1.73
		c2.596-1.945,4.397-5.035,4.762-9.164L399.746,227.367z M386.087,219.633c3.56-5.521,7.433-2.658,7.535,0.387
		c-0.312,7.898-8.957,10.096-8.957,10.096C384.41,222.781,385.934,219.969,386.087,219.633z"/>
	<path fill="#D2B0B0" d="M413.411,221.541c0,0,0.106-3.586,1.524-4.457c1.412-0.871,2.936-0.434,2.936,0.979s0,3.371,0,3.371
		s2.826-5.68,6.74-4.799c1.195,0.447,3.375,1.318,4.022,5.562c0,0,2.396-5.326,5.765-5.654c3.371-0.33,5.549,3.152,5.766,7.283
		c0.215,4.133-0.221,9.352,0.759,11.418c0.979,2.068,2.575,3.465,5.113,0.979c0,0,2.392-0.652,0.761,1.195
		c-1.632,1.85-9.93,5.775-10.458-2.9c-0.526-8.68-0.633-13.193-0.633-13.193s-0.089-5.189-3.593-2.504
		c-1.022,0.965-1.746,1.498-2.607,3.594c-0.861,2.1-0.438,7.938-0.544,10.113c-0.11,2.174-0.019,4.854-1.431,6.705
		c-1.412,1.848-2.891-0.832-2.92-2.791c-0.03-1.963,0-13.162,0-14.141c0-0.977-0.229-5.941-3.151-3.805
		c-0.966,0.684-3.394,3.49-3.589,6.852c0,1.635-0.219,8.914-0.219,8.914s0.125,3.881-1.887,5.221c0,0-2.246,1.092-2.354-2.605
		C413.302,233.178,413.411,221.541,413.411,221.541z"/>
	<path fill="#D2B0B0" d="M455.246,234.949c0,0-1.006,6.074-6.426,4.77c-3.764-0.049-4.916-5.873-5.069-8.084
		c-0.149-2.203-0.283-6.662-0.251-8.027c0,0-0.252-5.824,2.762-6.576c0.604-0.053,1.504,0.402,1.606,1.605
		c0.101,1.205,0,10.49,0,11.998c0,1.506,0.35,5.668,1.905,7.125c0.353,0.301,2.611,1.959,4.269-2.758
		c0.198-0.652,0.853-2.412,0.601-8.484c-0.25-6.072,0.402-9.393,3.162-9.49c0.653,0.055,1.004,0.756,1.154,1.861
		c0.152,1.105-0.15,11.293,0,13.355c0.152,2.051,1.057,6.266,3.768,6.043c0.6-0.123,1.504-0.625,2.058-2.133
		c0.553-1.506,0.603-2.311,0.603-2.311v3.145c0,0-1.641,4.148-5.908,2.611C458.439,239.217,456.818,238.631,455.246,234.949z"/>
	<path fill="#D2B0B0" d="M506.204,241.367c-0.466,0.564-1.652,1.752-3.304,1.133c-1.652-0.619-3.252-2.785-4.026-4.799
		c-0.774-2.016-0.669-7.898-0.742-10.893c-0.065-2.992,0.019-9.064,0-9.342c-1.291-3.406-3.978,1.283-3.978,1.283
		c-0.728-1.398-1.906-2.127-3.799-1.951c-4.196,0.387-7.945,5.414-7.945,12.1c0,6.688,1.74,11.021,6.502,11.021
		c2.681,0,4.371-1.744,5.338-4.461c0.048,2.146,1.218,4.719,2.042,5.748c5.265,6.35,9.396,2.633,10.479,1.469
		C507.854,241.506,506.668,240.797,506.204,241.367z M489.79,238.266c-2.554,0-3.019-3.752-3.019-9.467
		c0-5.721,1.547-10.014,3.638-10.246c2.76-0.307,3.461,3.578,3.461,9.295C493.87,233.566,492.345,238.266,489.79,238.266z"/>
	<path fill="#D2B0B0" d="M484.873,233.957c-0.825,3.043-1.96,3.615-2.58,3.973c-3.355,0.881-4.387-3.715-4.645-8.67
		c-0.258-4.951,0-20.387,0-24.205c-0.617-20.645-9.153-28.283-17.205-29.316c-18.301-2.686-22.227,14.59-21.193,22.779
		s6.193,12.111,8.604,13.627c2.407,1.514,1.721-0.967,0.823-1.379c-9.771-5.781-8.942-17.408-7.362-22.57
		c1.582-5.16,7.776-11.355,14.313-11.146c6.536,0.203,10.53,2.201,14.383,10.803c3.853,8.604,3.218,29.502,3.218,29.502
		c-0.994-1.607-2.379-2.459-4.183-2.25c-3.715,0.426-7.912,4.984-7.912,12.109c0,10.393,2.742,12.73,7.019,12.73
		c2.535,0,4.531-2.039,5.735-5.189c0.523,2.295,2.728,4.623,4.175,4.881c6.301,1.344,7.479-4.541,7.948-5.779
		C486.475,232.615,485.7,230.912,484.873,233.957z M469.092,238.139c-2.285,0-3.996-1.99-3.418-10.811
		c0.551-8.373,2.246-9.936,4.229-10.297c2.244-0.412,2.783,3.584,3.271,10.121C473.588,232.654,471.377,238.139,469.092,238.139z"/>
</g>
<g>
	<path fill="#D2B0B0" d="M316.264,58.623h27.334v8.038h-9.248v48.234h-8.845V66.661h-9.242L316.264,58.623L316.264,58.623z"/>
	<path fill="#D2B0B0" d="M346.796,72.298c0-9.004,4.745-14.147,13.429-14.147c8.68,0,13.422,5.143,13.422,14.147v29.261
		c0,9-4.742,14.146-13.422,14.146c-8.684,0-13.429-5.146-13.429-14.146V72.298z M355.638,102.119c0,4.023,1.775,5.547,4.587,5.547
		c2.813,0,4.58-1.524,4.58-5.547V71.736c0-4.021-1.767-5.55-4.58-5.55c-2.812,0-4.587,1.528-4.587,5.55V102.119z"/>
	<path fill="#D2B0B0" d="M383.518,59.008h8.844v56.274h-8.844V59.008z"/>
	<path fill="#D2B0B0" d="M327.143,83.58c-0.264-0.132-0.576-0.112-0.818,0.057l-3.752,2.653c-0.209,0.148-0.332,0.386-0.332,0.642
		s0.121,0.496,0.332,0.642l3.752,2.655c0.135,0.096,0.295,0.142,0.453,0.142c0.123,0,0.246-0.027,0.365-0.087
		c0.26-0.132,0.42-0.404,0.42-0.697v-5.31C327.562,83.985,327.402,83.715,327.143,83.58z"/>
	<path fill="#D2B0B0" d="M348.429,83.793c-0.26-0.135-0.571-0.112-0.815,0.057l-3.746,2.655c-0.208,0.146-0.333,0.384-0.333,0.64
		c0,0.256,0.125,0.496,0.333,0.642l3.746,2.655c0.14,0.094,0.298,0.144,0.459,0.144c0.121,0,0.248-0.03,0.356-0.091
		c0.263-0.133,0.431-0.405,0.431-0.697v-5.305C348.859,84.197,348.691,83.927,348.429,83.793z"/>
	<path fill="#D2B0B0" d="M366.473,83.793c-0.264-0.135-0.576-0.112-0.818,0.057l-3.75,2.655c-0.207,0.146-0.332,0.384-0.332,0.64
		c0,0.256,0.125,0.496,0.332,0.642l3.75,2.655c0.137,0.094,0.295,0.144,0.455,0.144c0.123,0,0.246-0.03,0.363-0.091
		c0.262-0.133,0.424-0.405,0.424-0.697v-5.305C366.898,84.197,366.734,83.927,366.473,83.793z"/>
	<path fill="#D2B0B0" d="M385.119,84.01c-0.26-0.135-0.576-0.114-0.816,0.055l-3.749,2.655c-0.21,0.146-0.333,0.386-0.333,0.642
		s0.123,0.496,0.333,0.642l3.749,2.655c0.135,0.096,0.295,0.142,0.453,0.142c0.125,0,0.251-0.028,0.363-0.087
		c0.26-0.135,0.425-0.404,0.425-0.699V84.71C385.544,84.414,385.379,84.145,385.119,84.01z"/>
	<path fill="#D2B0B0" d="M332.799,90.28c0.264,0.135,0.576,0.112,0.816-0.057l3.75-2.653c0.212-0.151,0.334-0.388,0.334-0.642
		c0-0.256-0.122-0.494-0.334-0.642l-3.75-2.655c-0.133-0.096-0.293-0.144-0.457-0.144c-0.119,0-0.24,0.03-0.359,0.089
		c-0.258,0.135-0.425,0.402-0.425,0.697v5.308C332.374,89.875,332.541,90.142,332.799,90.28z"/>
	<path fill="#D2B0B0" d="M354.111,90.48c0.264,0.133,0.578,0.112,0.82-0.059l3.747-2.65c0.21-0.146,0.332-0.389,0.332-0.642
		c0-0.256-0.12-0.496-0.332-0.642l-3.747-2.653c-0.139-0.098-0.297-0.144-0.455-0.144c-0.125,0-0.246,0.025-0.365,0.086
		c-0.258,0.133-0.422,0.405-0.422,0.697v5.308C353.689,90.074,353.854,90.345,354.111,90.48z"/>
	<path fill="#D2B0B0" d="M372.109,90.48c0.263,0.133,0.576,0.112,0.815-0.059l3.749-2.65c0.213-0.146,0.336-0.389,0.336-0.642
		c0-0.256-0.123-0.496-0.336-0.642l-3.749-2.653c-0.135-0.098-0.292-0.144-0.453-0.144c-0.125,0-0.249,0.025-0.362,0.086
		c-0.26,0.133-0.426,0.405-0.426,0.697v5.308C371.684,90.074,371.85,90.345,372.109,90.48z"/>
	<path fill="#D2B0B0" d="M390.826,90.663c0.26,0.137,0.57,0.112,0.812-0.055l3.752-2.655c0.205-0.146,0.328-0.386,0.328-0.642
		c0-0.253-0.124-0.493-0.328-0.642l-3.752-2.655c-0.137-0.096-0.291-0.142-0.455-0.142c-0.123,0-0.246,0.03-0.357,0.089
		c-0.264,0.135-0.426,0.402-0.426,0.697v5.308C390.4,90.259,390.564,90.531,390.826,90.663z"/>
</g>
<g>
	<path fill="#D2B0B0" d="M476.025,90.734c0.264,0.137,0.576,0.114,0.815-0.055l3.752-2.655c0.208-0.146,0.329-0.384,0.329-0.642
		c0-0.253-0.121-0.493-0.329-0.64l-3.752-2.655c-0.135-0.094-0.292-0.142-0.452-0.142c-0.126,0-0.246,0.027-0.363,0.087
		c-0.258,0.132-0.422,0.402-0.422,0.697v5.308C475.604,90.332,475.768,90.601,476.025,90.734z"/>
	<path fill="#D2B0B0" d="M459.258,99.151l6.02-39.86h12.267v56.142h-8.339V75.172l-6.094,40.261h-8.34l-6.578-39.701v39.701h-7.701
		V59.292h12.273L459.258,99.151z"/>
	<path fill="#D2B0B0" d="M524.126,59.213h8.821v56.142h-8.821V59.213z"/>
	<path fill="#D2B0B0" d="M442.093,84.014c-0.263-0.135-0.575-0.109-0.815,0.057l-3.752,2.655c-0.211,0.146-0.332,0.384-0.332,0.642
		c0,0.256,0.121,0.494,0.332,0.64l3.752,2.655c0.133,0.096,0.298,0.144,0.453,0.144c0.125,0,0.246-0.028,0.362-0.089
		c0.261-0.132,0.423-0.402,0.423-0.697v-5.308C442.516,84.419,442.354,84.149,442.093,84.014z"/>
	<path fill="#D2B0B0" d="M525.762,84.033c-0.263-0.135-0.573-0.114-0.812,0.057l-3.752,2.655c-0.207,0.144-0.334,0.386-0.334,0.642
		c0,0.253,0.127,0.493,0.334,0.64l3.752,2.655c0.133,0.094,0.295,0.142,0.452,0.142c0.12,0,0.247-0.027,0.36-0.089
		c0.264-0.133,0.425-0.402,0.425-0.697v-5.306C526.187,84.44,526.023,84.168,525.762,84.033z"/>
	<path fill="#D2B0B0" d="M531.412,90.737c0.263,0.137,0.573,0.114,0.812-0.055l3.752-2.655c0.21-0.146,0.335-0.386,0.335-0.64
		c0-0.256-0.125-0.496-0.335-0.642l-3.752-2.655c-0.133-0.094-0.293-0.144-0.452-0.144c-0.124,0-0.246,0.027-0.36,0.089
		c-0.264,0.133-0.428,0.405-0.428,0.697v5.308C530.984,90.334,531.148,90.601,531.412,90.737z"/>
	<path fill="#D2B0B0" d="M487.355,71.948c0-9.004,4.744-14.15,13.422-14.15c8.684,0,13.427,5.146,13.427,14.15v29.259
		c0,9.002-4.743,14.147-13.427,14.147c-8.678,0-13.422-5.146-13.422-14.147V71.948z M496.199,101.767c0,4.023,1.771,5.55,4.578,5.55
		c2.814,0,4.582-1.526,4.582-5.55V71.384c0-4.017-1.768-5.547-4.582-5.547c-2.809,0-4.578,1.531-4.578,5.547V101.767z"/>
	<path fill="#D2B0B0" d="M488.99,84.01c-0.266-0.135-0.578-0.114-0.818,0.055l-3.749,2.655c-0.21,0.146-0.331,0.386-0.331,0.642
		s0.121,0.496,0.331,0.642l3.749,2.655c0.139,0.096,0.298,0.142,0.457,0.142c0.124,0,0.242-0.028,0.361-0.087
		c0.261-0.135,0.423-0.404,0.423-0.699V84.71C489.413,84.414,489.251,84.145,488.99,84.01z"/>
	<path fill="#D2B0B0" d="M507.027,84.033c-0.262-0.137-0.574-0.114-0.819,0.057l-3.742,2.655c-0.212,0.144-0.336,0.384-0.336,0.642
		c0,0.253,0.124,0.491,0.336,0.64l3.742,2.655c0.14,0.094,0.3,0.142,0.46,0.142c0.123,0,0.244-0.027,0.359-0.089
		c0.26-0.133,0.427-0.402,0.427-0.697V84.73C507.454,84.435,507.287,84.168,507.027,84.033z"/>
	<path fill="#D2B0B0" d="M494.673,90.714c0.261,0.135,0.571,0.112,0.813-0.057l3.748-2.655c0.211-0.144,0.334-0.384,0.334-0.642
		c0-0.254-0.123-0.494-0.334-0.64l-3.748-2.655c-0.135-0.096-0.293-0.144-0.455-0.144c-0.123,0-0.244,0.03-0.358,0.089
		c-0.267,0.135-0.426,0.404-0.426,0.699v5.305C494.247,90.309,494.406,90.576,494.673,90.714z"/>
	<path fill="#D2B0B0" d="M512.665,90.734c0.263,0.139,0.578,0.117,0.815-0.053l3.752-2.655c0.209-0.146,0.334-0.386,0.334-0.64
		c0-0.256-0.125-0.498-0.334-0.642l-3.752-2.655c-0.133-0.096-0.293-0.144-0.453-0.144c-0.123,0-0.246,0.027-0.362,0.087
		c-0.261,0.135-0.425,0.407-0.425,0.699v5.306C512.24,90.332,512.404,90.601,512.665,90.734z"/>
</g>
<rect x="411.977" y="73.964" transform="matrix(0.7071 0.7071 -0.7071 0.7071 183.64 -268.5993)" fill="#D2B0B0" width="8.181" height="26.845"/>
<rect x="411.989" y="73.959" transform="matrix(-0.7072 0.707 -0.707 -0.7072 772.1205 -144.9832)" fill="#D2B0B0" width="8.183" height="26.845"/>
<polygon fill="#D2B0B0" points="324.661,152.73 314.706,158.479 324.661,164.227 334.613,158.479 "/>
<polygon fill="#D2B0B0" points="532.127,152.73 522.172,158.479 532.127,164.227 542.08,158.479 "/>
<g>
	<g>
		<circle fill="#1A171B" cx="348.068" cy="133.633" r="0.535"/>
		<circle fill="#1A171B" cx="351.361" cy="134.674" r="0.535"/>
		<path fill="#1A171B" d="M354.141,135.553c-0.091,0.283,0.066,0.58,0.35,0.672c0.281,0.088,0.582-0.066,0.67-0.35
			c0.092-0.281-0.066-0.58-0.348-0.67C354.531,135.117,354.23,135.273,354.141,135.553z"/>
		<path fill="#1A171B" d="M357.432,136.594c-0.089,0.283,0.066,0.584,0.35,0.672c0.281,0.09,0.58-0.064,0.672-0.35
			c0.089-0.279-0.068-0.58-0.348-0.668C357.822,136.156,357.521,136.314,357.432,136.594z"/>
		<path fill="#1A171B" d="M360.725,137.637c-0.09,0.281,0.065,0.58,0.344,0.672c0.283,0.086,0.586-0.068,0.675-0.35
			c0.089-0.285-0.068-0.584-0.347-0.672C361.111,137.199,360.811,137.355,360.725,137.637z"/>
		<circle fill="#1A171B" cx="364.523" cy="138.839" r="0.534"/>
		<path fill="#1A171B" d="M367.304,139.719c-0.089,0.283,0.068,0.582,0.351,0.674c0.283,0.086,0.582-0.068,0.671-0.35
			c0.089-0.283-0.068-0.584-0.351-0.674C367.697,139.279,367.396,139.438,367.304,139.719z"/>
		<circle fill="#1A171B" cx="371.105" cy="140.923" r="0.534"/>
		<path fill="#1A171B" d="M373.887,141.799c-0.087,0.283,0.066,0.586,0.35,0.674c0.281,0.09,0.58-0.064,0.672-0.346
			c0.089-0.287-0.068-0.584-0.35-0.674S373.977,141.52,373.887,141.799z"/>
		<circle fill="#1A171B" cx="377.688" cy="143.004" r="0.535"/>
		<circle fill="#1A171B" cx="380.98" cy="144.047" r="0.535"/>
		<path fill="#1A171B" d="M383.759,144.926c-0.089,0.285,0.068,0.582,0.351,0.672c0.281,0.09,0.582-0.066,0.67-0.35
			c0.09-0.281-0.067-0.58-0.35-0.67C384.15,144.49,383.852,144.645,383.759,144.926z"/>
		<path fill="#1A171B" d="M387.052,145.967c-0.092,0.283,0.066,0.582,0.351,0.672c0.281,0.092,0.58-0.064,0.668-0.35
			c0.09-0.281-0.065-0.58-0.348-0.672C387.441,145.533,387.141,145.684,387.052,145.967z"/>
		<circle fill="#1A171B" cx="390.852" cy="147.171" r="0.536"/>
		<path fill="#1A171B" d="M393.632,148.049c-0.087,0.285,0.067,0.584,0.351,0.672c0.281,0.092,0.582-0.066,0.672-0.346
			c0.091-0.283-0.069-0.584-0.351-0.674C394.023,147.613,393.721,147.77,393.632,148.049z"/>
		<path fill="#1A171B" d="M396.922,149.092c-0.087,0.281,0.068,0.584,0.352,0.67c0.279,0.09,0.58-0.064,0.672-0.348
			c0.089-0.283-0.068-0.582-0.351-0.672C397.312,148.654,397.013,148.812,396.922,149.092z"/>
		<circle fill="#1A171B" cx="400.727" cy="150.296" r="0.534"/>
		<circle fill="#1A171B" cx="404.016" cy="151.337" r="0.534"/>
		<path fill="#1A171B" d="M406.797,152.217c-0.089,0.279,0.066,0.582,0.35,0.672c0.281,0.088,0.58-0.066,0.672-0.348
			c0.09-0.287-0.065-0.586-0.35-0.672C407.188,151.781,406.886,151.938,406.797,152.217z"/>
		<circle fill="#1A171B" cx="410.6" cy="153.42" r="0.537"/>
		<path fill="#1A171B" d="M413.379,154.299c-0.089,0.281,0.066,0.584,0.35,0.672c0.281,0.09,0.584-0.064,0.672-0.35
			c0.088-0.283-0.068-0.58-0.353-0.672C413.77,153.861,413.468,154.016,413.379,154.299z"/>
		<circle fill="#1A171B" cx="417.182" cy="155.503" r="0.534"/>
		<path fill="#1A171B" d="M419.962,156.383c-0.089,0.281,0.065,0.58,0.347,0.67c0.283,0.092,0.584-0.064,0.672-0.348
			c0.09-0.283-0.065-0.582-0.347-0.674C420.35,155.947,420.051,156.1,419.962,156.383z"/>
		<path fill="#1A171B" d="M423.252,157.426c-0.089,0.277,0.066,0.58,0.35,0.67c0.283,0.088,0.58-0.066,0.672-0.35
			c0.09-0.285-0.065-0.582-0.35-0.672C423.643,156.988,423.341,157.143,423.252,157.426z"/>
		<path fill="#1A171B" d="M426.542,158.465c-0.089,0.281,0.067,0.582,0.353,0.67c0.28,0.092,0.58-0.062,0.668-0.348
			c0.092-0.281-0.065-0.582-0.35-0.672C426.934,158.027,426.633,158.184,426.542,158.465z"/>
		<path fill="#1A171B" d="M429.832,159.506c-0.087,0.281,0.068,0.584,0.352,0.67c0.281,0.092,0.584-0.062,0.672-0.348
			c0.09-0.283-0.065-0.58-0.35-0.672C430.227,159.068,429.926,159.223,429.832,159.506z"/>
		<path fill="#1A171B" d="M433.127,160.547c-0.092,0.283,0.066,0.584,0.348,0.672c0.283,0.09,0.582-0.066,0.672-0.348
			c0.09-0.283-0.065-0.58-0.348-0.674C433.516,160.111,433.216,160.266,433.127,160.547z"/>
		<circle fill="#1A171B" cx="436.926" cy="161.749" r="0.534"/>
		<circle fill="#1A171B" cx="440.219" cy="162.792" r="0.536"/>
	</g>
	<g>
		<path fill="#1A171B" d="M443.723,163.902c-0.088,0.283,0.067,0.582,0.352,0.67c0.279,0.092,0.58-0.062,0.67-0.35
			c0.091-0.279-0.066-0.58-0.348-0.67C444.111,163.465,443.812,163.619,443.723,163.902z"/>
		<circle fill="#1A171B" cx="447.523" cy="165.106" r="0.536"/>
		<path fill="#1A171B" d="M450.307,165.988c-0.092,0.279,0.065,0.58,0.348,0.668c0.281,0.092,0.582-0.066,0.672-0.35
			c0.089-0.281-0.066-0.582-0.348-0.672C450.693,165.545,450.393,165.703,450.307,165.988z"/>
		<path fill="#1A171B" d="M453.598,167.027c-0.091,0.281,0.065,0.582,0.346,0.672c0.283,0.088,0.586-0.068,0.672-0.352
			c0.09-0.279-0.065-0.582-0.346-0.672C453.984,166.59,453.686,166.742,453.598,167.027z"/>
		<path fill="#1A171B" d="M456.889,168.068c-0.092,0.279,0.066,0.584,0.348,0.67c0.281,0.092,0.582-0.066,0.67-0.348
			c0.092-0.283-0.066-0.584-0.348-0.672C457.277,167.629,456.979,167.787,456.889,168.068z"/>
		<path fill="#1A171B" d="M460.179,169.109c-0.089,0.281,0.066,0.582,0.351,0.674c0.281,0.088,0.58-0.068,0.672-0.35
			c0.087-0.283-0.068-0.582-0.35-0.674C460.568,168.672,460.268,168.826,460.179,169.109z"/>
		<path fill="#1A171B" d="M463.469,170.154c-0.089,0.275,0.066,0.58,0.35,0.668c0.281,0.09,0.58-0.066,0.672-0.348
			c0.09-0.283-0.067-0.584-0.35-0.672C463.859,169.711,463.559,169.871,463.469,170.154z"/>
		<path fill="#1A171B" d="M466.759,171.191c-0.087,0.283,0.069,0.584,0.351,0.67c0.281,0.092,0.582-0.064,0.672-0.348
			c0.089-0.277-0.066-0.582-0.348-0.67C467.148,170.752,466.85,170.91,466.759,171.191z"/>
		<path fill="#1A171B" d="M470.054,172.236c-0.091,0.277,0.064,0.582,0.345,0.67c0.283,0.088,0.584-0.066,0.672-0.35
			c0.09-0.281-0.065-0.584-0.346-0.67C470.441,171.795,470.139,171.949,470.054,172.236z"/>
		<path fill="#1A171B" d="M473.344,173.275c-0.091,0.281,0.066,0.584,0.346,0.672c0.283,0.09,0.584-0.068,0.674-0.352
			c0.09-0.279-0.068-0.582-0.35-0.672C473.732,172.838,473.432,172.994,473.344,173.275z"/>
		<path fill="#1A171B" d="M476.634,174.316c-0.091,0.283,0.065,0.582,0.351,0.67c0.281,0.092,0.582-0.064,0.67-0.35
			c0.091-0.277-0.066-0.582-0.348-0.668C477.023,173.879,476.723,174.031,476.634,174.316z"/>
		<path fill="#1A171B" d="M479.924,175.359c-0.089,0.283,0.066,0.58,0.35,0.67c0.281,0.092,0.584-0.064,0.672-0.352
			c0.09-0.277-0.065-0.58-0.35-0.668C480.314,174.92,480.014,175.074,479.924,175.359z"/>
		<path fill="#1A171B" d="M483.214,176.398c-0.087,0.281,0.065,0.584,0.351,0.672c0.28,0.092,0.582-0.066,0.672-0.348
			c0.088-0.283-0.066-0.582-0.351-0.672C483.607,175.963,483.307,176.115,483.214,176.398z"/>
		<path fill="#1A171B" d="M486.509,177.438c-0.091,0.283,0.063,0.586,0.345,0.678c0.281,0.084,0.584-0.068,0.672-0.354
			c0.093-0.279-0.065-0.58-0.347-0.672C486.898,177.002,486.596,177.156,486.509,177.438z"/>
		<path fill="#1A171B" d="M489.799,178.482c-0.089,0.283,0.066,0.584,0.348,0.67c0.283,0.09,0.582-0.064,0.672-0.35
			c0.09-0.279-0.067-0.578-0.348-0.672C490.188,178.043,489.886,178.199,489.799,178.482z"/>
		<path fill="#1A171B" d="M493.089,179.525c-0.091,0.277,0.065,0.582,0.351,0.672c0.28,0.088,0.58-0.066,0.67-0.352
			c0.088-0.283-0.066-0.582-0.349-0.672C493.479,179.086,493.179,179.24,493.089,179.525z"/>
		<path fill="#1A171B" d="M496.379,180.564c-0.089,0.283,0.068,0.582,0.35,0.674c0.281,0.09,0.584-0.068,0.672-0.35
			c0.09-0.283-0.065-0.586-0.35-0.674C496.77,180.129,496.469,180.283,496.379,180.564z"/>
		<path fill="#1A171B" d="M499.669,181.605c-0.086,0.283,0.071,0.586,0.351,0.672c0.28,0.09,0.582-0.062,0.672-0.348
			c0.088-0.283-0.066-0.582-0.351-0.672C500.062,181.166,499.759,181.324,499.669,181.605z"/>
		<path fill="#1A171B" d="M502.964,182.648c-0.091,0.279,0.065,0.582,0.345,0.672c0.284,0.092,0.584-0.066,0.676-0.352
			c0.088-0.277-0.069-0.582-0.354-0.668C503.354,182.211,503.049,182.365,502.964,182.648z"/>
		<circle fill="#1A171B" cx="506.764" cy="183.85" r="0.535"/>
		<path fill="#1A171B" d="M529.289,190.98"/>
	</g>
</g>
<g>
	<g>
		<path fill="#1A171B" d="M507.479,133.012c0.092,0.283-0.062,0.586-0.343,0.674c-0.282,0.094-0.585-0.061-0.676-0.342
			c-0.089-0.283,0.062-0.584,0.345-0.674C507.086,132.576,507.385,132.734,507.479,133.012z"/>
		<circle fill="#1A171B" cx="503.686" cy="134.241" r="0.534"/>
		<path fill="#1A171B" d="M500.91,135.139c0.089,0.281-0.064,0.578-0.346,0.672c-0.28,0.092-0.582-0.061-0.674-0.342
			c-0.092-0.283,0.063-0.586,0.346-0.674C500.518,134.703,500.818,134.857,500.91,135.139z"/>
		<path fill="#1A171B" d="M497.624,136.199c0.092,0.287-0.062,0.584-0.343,0.674c-0.283,0.092-0.584-0.062-0.676-0.344
			c-0.093-0.279,0.062-0.584,0.348-0.676C497.232,135.764,497.535,135.918,497.624,136.199z"/>
		<path fill="#1A171B" d="M494.341,137.262c0.093,0.283-0.063,0.584-0.345,0.676c-0.281,0.088-0.582-0.062-0.674-0.348
			c-0.092-0.281,0.065-0.582,0.345-0.67C493.947,136.828,494.25,136.984,494.341,137.262z"/>
		<circle fill="#1A171B" cx="490.547" cy="138.49" r="0.535"/>
		<circle fill="#1A171B" cx="487.263" cy="139.552" r="0.536"/>
		<circle fill="#1A171B" cx="483.979" cy="140.615" r="0.535"/>
		<path fill="#1A171B" d="M481.203,141.512c0.092,0.281-0.062,0.582-0.346,0.676c-0.28,0.09-0.58-0.062-0.674-0.344
			c-0.092-0.283,0.064-0.584,0.346-0.678C480.811,141.076,481.111,141.232,481.203,141.512z"/>
		<path fill="#1A171B" d="M477.92,142.574c0.092,0.285-0.062,0.582-0.346,0.674c-0.28,0.092-0.581-0.062-0.674-0.346
			c-0.092-0.279,0.063-0.58,0.346-0.672C477.525,142.141,477.829,142.293,477.92,142.574z"/>
		<circle fill="#1A171B" cx="474.127" cy="143.803" r="0.535"/>
		<path fill="#1A171B" d="M471.35,144.701c0.092,0.283-0.062,0.58-0.343,0.672c-0.28,0.094-0.583-0.064-0.675-0.342
			c-0.092-0.285,0.064-0.586,0.346-0.676C470.959,144.268,471.26,144.418,471.35,144.701z"/>
		<path fill="#1A171B" d="M468.068,145.764c0.088,0.281-0.066,0.582-0.346,0.674c-0.283,0.092-0.585-0.062-0.677-0.348
			c-0.089-0.277,0.063-0.58,0.345-0.674C467.676,145.33,467.975,145.484,468.068,145.764z"/>
		<circle fill="#1A171B" cx="464.273" cy="146.989" r="0.536"/>
		<circle fill="#1A171B" cx="460.988" cy="148.053" r="0.535"/>
		<path fill="#1A171B" d="M458.214,148.951c0.093,0.281-0.062,0.582-0.345,0.672c-0.281,0.092-0.583-0.062-0.674-0.344
			c-0.092-0.283,0.062-0.584,0.345-0.674C457.82,148.514,458.123,148.67,458.214,148.951z"/>
		<circle fill="#1A171B" cx="454.42" cy="150.178" r="0.535"/>
		<circle fill="#1A171B" cx="451.136" cy="151.24" r="0.533"/>
		<circle fill="#1A171B" cx="447.852" cy="152.303" r="0.537"/>
		<circle fill="#1A171B" cx="444.566" cy="153.365" r="0.535"/>
		<circle fill="#1A171B" cx="441.284" cy="154.428" r="0.535"/>
		<path fill="#1A171B" d="M438.508,155.326c0.094,0.283-0.064,0.58-0.343,0.672c-0.281,0.094-0.583-0.062-0.677-0.344
			c-0.092-0.281,0.065-0.582,0.348-0.674C438.113,154.889,438.416,155.043,438.508,155.326z"/>
		<path fill="#1A171B" d="M435.225,156.389c0.092,0.281-0.063,0.58-0.346,0.672c-0.283,0.094-0.582-0.061-0.674-0.344
			c-0.092-0.281,0.064-0.582,0.345-0.674C434.831,155.953,435.133,156.107,435.225,156.389z"/>
		<path fill="#1A171B" d="M431.939,157.453c0.092,0.279-0.062,0.58-0.346,0.672c-0.281,0.088-0.58-0.062-0.672-0.346
			c-0.094-0.283,0.062-0.582,0.344-0.676C431.548,157.016,431.85,157.172,431.939,157.453z"/>
		<path fill="#1A171B" d="M425.37,159.576c0.091,0.279-0.062,0.584-0.343,0.674s-0.584-0.064-0.676-0.346
			c-0.088-0.281,0.063-0.582,0.346-0.676C424.977,159.139,425.277,159.295,425.37,159.576z"/>
		<path fill="#1A171B" d="M422.087,160.635c0.091,0.281-0.065,0.588-0.345,0.674c-0.281,0.096-0.583-0.061-0.674-0.342
			c-0.09-0.281,0.063-0.582,0.345-0.674C421.691,160.201,421.995,160.354,422.087,160.635z"/>
		<path fill="#1A171B" d="M418.801,161.699c0.094,0.279-0.062,0.584-0.343,0.676c-0.283,0.09-0.583-0.064-0.674-0.346
			c-0.091-0.279,0.062-0.58,0.343-0.67C418.408,161.264,418.712,161.42,418.801,161.699z"/>
		<circle fill="#1A171B" cx="415.007" cy="162.927" r="0.534"/>
	</g>
	<g>
		<path fill="#1A171B" d="M411.51,164.059c0.09,0.285-0.062,0.582-0.345,0.674c-0.281,0.094-0.581-0.061-0.672-0.346
			c-0.095-0.277,0.062-0.58,0.343-0.672S411.421,163.777,411.51,164.059z"/>
		<path fill="#1A171B" d="M408.227,165.123c0.092,0.281-0.063,0.58-0.345,0.672c-0.28,0.092-0.583-0.061-0.677-0.344
			c-0.09-0.283,0.066-0.58,0.348-0.674C407.834,164.689,408.136,164.84,408.227,165.123z"/>
		<path fill="#1A171B" d="M404.941,166.186c0.09,0.281-0.064,0.58-0.346,0.672c-0.279,0.094-0.583-0.062-0.674-0.344
			c-0.089-0.281,0.066-0.582,0.346-0.676C404.551,165.748,404.85,165.906,404.941,166.186z"/>
		<path fill="#1A171B" d="M401.658,167.248c0.091,0.281-0.064,0.584-0.346,0.674c-0.281,0.092-0.582-0.066-0.674-0.346
			c-0.091-0.281,0.064-0.584,0.346-0.676C401.266,166.814,401.566,166.967,401.658,167.248z"/>
		<path fill="#1A171B" d="M398.373,168.311c0.094,0.281-0.064,0.582-0.342,0.672c-0.281,0.094-0.586-0.062-0.678-0.344
			c-0.091-0.281,0.064-0.582,0.349-0.674C397.98,167.873,398.281,168.029,398.373,168.311z"/>
		<circle fill="#1A171B" cx="394.58" cy="169.537" r="0.535"/>
		<path fill="#1A171B" d="M391.804,170.438c0.093,0.275-0.062,0.58-0.345,0.67c-0.281,0.092-0.581-0.062-0.674-0.344
			c-0.09-0.279,0.064-0.58,0.345-0.674C391.413,169.998,391.712,170.154,391.804,170.438z"/>
		<path fill="#1A171B" d="M388.521,171.498c0.092,0.281-0.062,0.582-0.346,0.672c-0.281,0.09-0.583-0.062-0.674-0.344
			s0.064-0.584,0.343-0.672C388.128,171.059,388.429,171.217,388.521,171.498z"/>
		<path fill="#1A171B" d="M385.234,172.561c0.092,0.281-0.062,0.584-0.342,0.674c-0.281,0.092-0.584-0.064-0.675-0.346
			c-0.089-0.279,0.063-0.582,0.345-0.672C384.842,172.123,385.146,172.277,385.234,172.561z"/>
		<path fill="#1A171B" d="M381.949,173.623c0.095,0.277-0.059,0.584-0.342,0.676c-0.281,0.086-0.584-0.066-0.672-0.35
			c-0.095-0.279,0.062-0.58,0.342-0.674C381.559,173.186,381.859,173.342,381.949,173.623z"/>
		<path fill="#1A171B" d="M378.669,174.686c0.092,0.279-0.063,0.582-0.347,0.674c-0.279,0.092-0.58-0.066-0.672-0.348
			c-0.092-0.277,0.062-0.58,0.343-0.67C378.275,174.248,378.577,174.402,378.669,174.686z"/>
		<path fill="#1A171B" d="M375.383,175.748c0.092,0.283-0.064,0.582-0.343,0.67c-0.281,0.094-0.583-0.059-0.675-0.342
			c-0.09-0.279,0.062-0.58,0.344-0.672S375.292,175.463,375.383,175.748z"/>
		<path fill="#1A171B" d="M372.1,176.812c0.09,0.277-0.063,0.58-0.345,0.672c-0.28,0.094-0.583-0.062-0.674-0.344
			c-0.093-0.281,0.063-0.584,0.342-0.674C371.705,176.375,372.006,176.527,372.1,176.812z"/>
		<circle fill="#1A171B" cx="368.305" cy="178.036" r="0.536"/>
		<circle fill="#1A171B" cx="365.021" cy="179.101" r="0.534"/>
		<circle fill="#1A171B" cx="361.736" cy="180.162" r="0.535"/>
		<path fill="#1A171B" d="M358.962,181.062c0.091,0.277-0.063,0.582-0.343,0.672c-0.283,0.092-0.585-0.064-0.676-0.346
			c-0.092-0.281,0.062-0.582,0.345-0.674C358.568,180.625,358.871,180.779,358.962,181.062z"/>
		<path fill="#1A171B" d="M355.677,182.121c0.091,0.281-0.063,0.586-0.343,0.672c-0.283,0.094-0.583-0.059-0.674-0.342
			c-0.092-0.281,0.062-0.584,0.343-0.674C355.284,181.686,355.586,181.84,355.677,182.121z"/>
		<path fill="#1A171B" d="M352.395,183.184c0.088,0.279-0.062,0.584-0.344,0.676s-0.585-0.062-0.676-0.344
			c-0.092-0.279,0.064-0.582,0.345-0.674C352.001,182.75,352.304,182.904,352.395,183.184z"/>
		<path fill="#1A171B" d="M349.109,184.246c0.092,0.281-0.063,0.584-0.342,0.674c-0.283,0.092-0.588-0.061-0.677-0.346
			c-0.094-0.277,0.063-0.578,0.345-0.672C348.717,183.812,349.02,183.963,349.109,184.246z"/>
		<path fill="#1A171B" d="M326.118,191.684"/>
	</g>
</g>
<g>
	<path fill="#D2B0B0" d="M422.512,207.863c0,0-0.05,3.961-3.24,4.684c-3.189,0.723-3.418-2.824-3.418-2.824s5.375-1.445,5.437-5.17
		c0.019-1.227-1.308-2.262-2.438-2.262c-1.129,0-3.072,0.303-4.261,1.93c-1.187,1.633-1.069,4.877-0.933,5.502
		c0.143,0.621,0.503,2.941,3.181,3.627c0.487,0.188,2.978,0.113,4.167-0.779c1.172-0.877,1.986-2.271,2.148-4.133L422.512,207.863z
		 M416.35,204.373c1.606-2.492,3.353-1.201,3.4,0.174c-0.141,3.564-4.042,4.555-4.042,4.555
		C415.593,205.793,416.281,204.525,416.35,204.373z"/>
	<path fill="#D2B0B0" d="M429.197,209.5c0.018,0.982-0.008,2.191-0.644,3.025c-0.64,0.834-1.307-0.375-1.319-1.26
		c-0.015-0.885,0-5.938,0-6.379c0-0.439-0.104-2.68-1.422-1.717c-0.434,0.309-1.527,1.574-1.617,3.092
		c0,0.736-0.101,4.021-0.101,4.021s0.058,1.75-0.853,2.355c0,0-1.012,0.49-1.062-1.178c-0.048-1.668,0-6.918,0-6.918
		s0.051-1.619,0.69-2.014c0.635-0.391,1.325-0.193,1.325,0.445c0,0.637,0,1.52,0,1.52s1.274-2.562,3.039-2.166
		c0.541,0.201,1.522,0.596,1.815,2.512C429.051,204.842,429.117,204.992,429.197,209.5z"/>
</g>
<g opacity="0.4">
	
		<line fill="none" stroke="#1A171B" stroke-width="0.8774" stroke-miterlimit="10" x1="331.077" y1="24.21" x2="335.031" y2="28.039"/>
	
		<line fill="none" stroke="#1A171B" stroke-width="0.8774" stroke-miterlimit="10" x1="327.021" y1="27.612" x2="331.111" y2="31.297"/>
	
		<line fill="none" stroke="#1A171B" stroke-width="0.8774" stroke-miterlimit="10" x1="323.09" y1="31.154" x2="327.305" y2="34.695"/>
	
		<line fill="none" stroke="#1A171B" stroke-width="0.8774" stroke-miterlimit="10" x1="319.286" y1="34.829" x2="323.622" y2="38.218"/>
	
		<line fill="none" stroke="#1A171B" stroke-width="0.8774" stroke-miterlimit="10" x1="315.609" y1="38.632" x2="320.062" y2="41.871"/>
	
		<line fill="none" stroke="#1A171B" stroke-width="0.8774" stroke-miterlimit="10" x1="312.07" y1="42.564" x2="316.63" y2="45.646"/>
	
		<line fill="none" stroke="#1A171B" stroke-width="0.8774" stroke-miterlimit="10" x1="308.668" y1="46.617" x2="313.338" y2="49.537"/>
	
		<line fill="none" stroke="#1A171B" stroke-width="0.8774" stroke-miterlimit="10" x1="305.41" y1="50.787" x2="310.182" y2="53.537"/>
	
		<line fill="none" stroke="#1A171B" stroke-width="0.8774" stroke-miterlimit="10" x1="302.3" y1="55.068" x2="307.165" y2="57.653"/>
	
		<line fill="none" stroke="#1A171B" stroke-width="0.8774" stroke-miterlimit="10" x1="299.344" y1="59.455" x2="304.291" y2="61.868"/>
	
		<line fill="none" stroke="#1A171B" stroke-width="0.8774" stroke-miterlimit="10" x1="296.541" y1="63.94" x2="301.568" y2="66.179"/>
	
		<line fill="none" stroke="#1A171B" stroke-width="0.8774" stroke-miterlimit="10" x1="293.895" y1="68.521" x2="299.001" y2="70.584"/>
	
		<line fill="none" stroke="#1A171B" stroke-width="0.8774" stroke-miterlimit="10" x1="291.411" y1="73.189" x2="296.586" y2="75.079"/>
	
		<line fill="none" stroke="#1A171B" stroke-width="0.8774" stroke-miterlimit="10" x1="289.092" y1="77.946" x2="294.329" y2="79.648"/>
	
		<line fill="none" stroke="#1A171B" stroke-width="0.8774" stroke-miterlimit="10" x1="286.939" y1="82.779" x2="292.232" y2="84.298"/>
	
		<line fill="none" stroke="#1A171B" stroke-width="0.8774" stroke-miterlimit="10" x1="284.959" y1="87.684" x2="290.301" y2="89.018"/>
	
		<line fill="none" stroke="#1A171B" stroke-width="0.8774" stroke-miterlimit="10" x1="283.146" y1="92.656" x2="288.531" y2="93.802"/>
	
		<line fill="none" stroke="#1A171B" stroke-width="0.8774" stroke-miterlimit="10" x1="281.511" y1="97.687" x2="286.938" y2="98.644"/>
	
		<line fill="none" stroke="#1A171B" stroke-width="0.8774" stroke-miterlimit="10" x1="280.053" y1="102.773" x2="285.507" y2="103.543"/>
	
		<line fill="none" stroke="#1A171B" stroke-width="0.8774" stroke-miterlimit="10" x1="278.771" y1="107.905" x2="284.253" y2="108.485"/>
	
		<line fill="none" stroke="#1A171B" stroke-width="0.8774" stroke-miterlimit="10" x1="277.672" y1="113.079" x2="283.17" y2="113.466"/>
	
		<line fill="none" stroke="#1A171B" stroke-width="0.8774" stroke-miterlimit="10" x1="276.754" y1="118.292" x2="282.258" y2="118.488"/>
	
		<line fill="none" stroke="#1A171B" stroke-width="0.8774" stroke-miterlimit="10" x1="276.018" y1="123.528" x2="281.523" y2="123.532"/>
	
		<line fill="none" stroke="#1A171B" stroke-width="0.8774" stroke-miterlimit="10" x1="275.468" y1="128.791" x2="280.967" y2="128.602"/>
	
		<line fill="none" stroke="#1A171B" stroke-width="0.8774" stroke-miterlimit="10" x1="275.098" y1="134.066" x2="280.59" y2="133.688"/>
	
		<line fill="none" stroke="#1A171B" stroke-width="0.8774" stroke-miterlimit="10" x1="274.91" y1="139.352" x2="280.389" y2="138.783"/>
	
		<line fill="none" stroke="#1A171B" stroke-width="0.8774" stroke-miterlimit="10" x1="274.91" y1="144.643" x2="280.369" y2="143.881"/>
	
		<line fill="none" stroke="#1A171B" stroke-width="0.8774" stroke-miterlimit="10" x1="275.098" y1="149.93" x2="280.521" y2="148.979"/>
	
		<line fill="none" stroke="#1A171B" stroke-width="0.8774" stroke-miterlimit="10" x1="275.463" y1="155.205" x2="280.854" y2="154.07"/>
	
		<line fill="none" stroke="#1A171B" stroke-width="0.8774" stroke-miterlimit="10" x1="276.016" y1="160.469" x2="281.361" y2="159.143"/>
	
		<line fill="none" stroke="#1A171B" stroke-width="0.8774" stroke-miterlimit="10" x1="276.752" y1="165.703" x2="282.048" y2="164.199"/>
	
		<line fill="none" stroke="#1A171B" stroke-width="0.8774" stroke-miterlimit="10" x1="277.67" y1="170.918" x2="282.912" y2="169.223"/>
	
		<line fill="none" stroke="#1A171B" stroke-width="0.8774" stroke-miterlimit="10" x1="278.77" y1="176.09" x2="283.951" y2="174.215"/>
	
		<line fill="none" stroke="#1A171B" stroke-width="0.8774" stroke-miterlimit="10" x1="280.049" y1="181.225" x2="285.162" y2="179.168"/>
	
		<line fill="none" stroke="#1A171B" stroke-width="0.8774" stroke-miterlimit="10" x1="281.506" y1="186.311" x2="286.542" y2="184.076"/>
	
		<line fill="none" stroke="#1A171B" stroke-width="0.8774" stroke-miterlimit="10" x1="283.143" y1="191.338" x2="288.096" y2="188.934"/>
	
		<line fill="none" stroke="#1A171B" stroke-width="0.8774" stroke-miterlimit="10" x1="284.949" y1="196.312" x2="289.818" y2="193.732"/>
	
		<line fill="none" stroke="#1A171B" stroke-width="0.8774" stroke-miterlimit="10" x1="286.932" y1="201.217" x2="291.708" y2="198.469"/>
	
		<line fill="none" stroke="#1A171B" stroke-width="0.8774" stroke-miterlimit="10" x1="289.083" y1="206.051" x2="293.762" y2="203.137"/>
	
		<line fill="none" stroke="#1A171B" stroke-width="0.8774" stroke-miterlimit="10" x1="291.398" y1="210.807" x2="295.977" y2="207.73"/>
	
		<line fill="none" stroke="#1A171B" stroke-width="0.8774" stroke-miterlimit="10" x1="293.883" y1="215.479" x2="298.348" y2="212.244"/>
	
		<line fill="none" stroke="#1A171B" stroke-width="0.8774" stroke-miterlimit="10" x1="296.529" y1="220.059" x2="300.879" y2="216.672"/>
	
		<line fill="none" stroke="#1A171B" stroke-width="0.8774" stroke-miterlimit="10" x1="299.333" y1="224.547" x2="303.562" y2="221.01"/>
	
		<line fill="none" stroke="#1A171B" stroke-width="0.8774" stroke-miterlimit="10" x1="302.291" y1="228.934" x2="306.391" y2="225.25"/>
	
		<line fill="none" stroke="#1A171B" stroke-width="0.8774" stroke-miterlimit="10" x1="305.4" y1="233.215" x2="309.372" y2="229.387"/>
	
		<line fill="none" stroke="#1A171B" stroke-width="0.8774" stroke-miterlimit="10" x1="308.656" y1="237.383" x2="312.493" y2="233.422"/>
	
		<line fill="none" stroke="#1A171B" stroke-width="0.8774" stroke-miterlimit="10" x1="312.059" y1="241.438" x2="315.749" y2="237.344"/>
	
		<line fill="none" stroke="#1A171B" stroke-width="0.8774" stroke-miterlimit="10" x1="315.598" y1="245.369" x2="319.146" y2="241.152"/>
	
		<line fill="none" stroke="#1A171B" stroke-width="0.8774" stroke-miterlimit="10" x1="319.271" y1="249.174" x2="322.671" y2="244.834"/>
	
		<line fill="none" stroke="#1A171B" stroke-width="0.8774" stroke-miterlimit="10" x1="323.078" y1="252.85" x2="326.322" y2="248.395"/>
	
		<line fill="none" stroke="#1A171B" stroke-width="0.8774" stroke-miterlimit="10" x1="327.01" y1="256.391" x2="330.098" y2="251.824"/>
	
		<line fill="none" stroke="#1A171B" stroke-width="0.8774" stroke-miterlimit="10" x1="331.062" y1="259.793" x2="333.988" y2="255.119"/>
	
		<line fill="none" stroke="#1A171B" stroke-width="0.8774" stroke-miterlimit="10" x1="335.229" y1="263.047" x2="337.994" y2="258.277"/>
	
		<line fill="none" stroke="#1A171B" stroke-width="0.8774" stroke-miterlimit="10" x1="339.511" y1="266.158" x2="342.104" y2="261.293"/>
	
		<line fill="none" stroke="#1A171B" stroke-width="0.8774" stroke-miterlimit="10" x1="343.895" y1="269.115" x2="346.318" y2="264.164"/>
	
		<line fill="none" stroke="#1A171B" stroke-width="0.8774" stroke-miterlimit="10" x1="348.385" y1="271.922" x2="350.631" y2="266.889"/>
	
		<line fill="none" stroke="#1A171B" stroke-width="0.8774" stroke-miterlimit="10" x1="352.963" y1="274.568" x2="355.036" y2="269.455"/>
	
		<line fill="none" stroke="#1A171B" stroke-width="0.8774" stroke-miterlimit="10" x1="357.636" y1="277.051" x2="359.525" y2="271.871"/>
	
		<line fill="none" stroke="#1A171B" stroke-width="0.8774" stroke-miterlimit="10" x1="362.391" y1="279.369" x2="364.102" y2="274.127"/>
	
		<line fill="none" stroke="#1A171B" stroke-width="0.8774" stroke-miterlimit="10" x1="367.225" y1="281.523" x2="368.747" y2="276.223"/>
	
		<line fill="none" stroke="#1A171B" stroke-width="0.8774" stroke-miterlimit="10" x1="372.128" y1="283.506" x2="373.467" y2="278.154"/>
	
		<line fill="none" stroke="#1A171B" stroke-width="0.8774" stroke-miterlimit="10" x1="377.1" y1="285.316" x2="378.252" y2="279.922"/>
	
		<line fill="none" stroke="#1A171B" stroke-width="0.8774" stroke-miterlimit="10" x1="382.134" y1="286.949" x2="383.095" y2="281.518"/>
	
		<line fill="none" stroke="#1A171B" stroke-width="0.8774" stroke-miterlimit="10" x1="387.217" y1="288.408" x2="387.992" y2="282.949"/>
	
		<line fill="none" stroke="#1A171B" stroke-width="0.8774" stroke-miterlimit="10" x1="392.354" y1="289.691" x2="392.934" y2="284.201"/>
	
		<line fill="none" stroke="#1A171B" stroke-width="0.8774" stroke-miterlimit="10" x1="397.525" y1="290.789" x2="397.915" y2="285.287"/>
	
		<line fill="none" stroke="#1A171B" stroke-width="0.8774" stroke-miterlimit="10" x1="402.734" y1="291.707" x2="402.936" y2="286.197"/>
	
		<line fill="none" stroke="#1A171B" stroke-width="0.8774" stroke-miterlimit="10" x1="407.975" y1="292.447" x2="407.979" y2="286.928"/>
	
		<line fill="none" stroke="#1A171B" stroke-width="0.8774" stroke-miterlimit="10" x1="413.238" y1="292.998" x2="413.049" y2="287.488"/>
	
		<line fill="none" stroke="#1A171B" stroke-width="0.8774" stroke-miterlimit="10" x1="418.518" y1="293.369" x2="418.135" y2="287.867"/>
	
		<line fill="none" stroke="#1A171B" stroke-width="0.8774" stroke-miterlimit="10" x1="423.804" y1="293.555" x2="423.23" y2="288.066"/>
	
		<line fill="none" stroke="#1A171B" stroke-width="0.8774" stroke-miterlimit="10" x1="429.096" y1="293.555" x2="428.332" y2="288.09"/>
	
		<line fill="none" stroke="#1A171B" stroke-width="0.8774" stroke-miterlimit="10" x1="434.38" y1="293.369" x2="433.428" y2="287.938"/>
	
		<line fill="none" stroke="#1A171B" stroke-width="0.8774" stroke-miterlimit="10" x1="439.658" y1="292.998" x2="438.516" y2="287.607"/>
	
		<line fill="none" stroke="#1A171B" stroke-width="0.8774" stroke-miterlimit="10" x1="444.92" y1="292.447" x2="443.593" y2="287.094"/>
	
		<line fill="none" stroke="#1A171B" stroke-width="0.8774" stroke-miterlimit="10" x1="450.156" y1="291.709" x2="448.645" y2="286.408"/>
	
		<line fill="none" stroke="#1A171B" stroke-width="0.8774" stroke-miterlimit="10" x1="455.37" y1="290.791" x2="453.671" y2="285.547"/>
	
		<line fill="none" stroke="#1A171B" stroke-width="0.8774" stroke-miterlimit="10" x1="460.546" y1="289.693" x2="458.66" y2="284.51"/>
	
		<line fill="none" stroke="#1A171B" stroke-width="0.8774" stroke-miterlimit="10" x1="465.68" y1="288.412" x2="463.613" y2="283.299"/>
	
		<line fill="none" stroke="#1A171B" stroke-width="0.8774" stroke-miterlimit="10" x1="470.766" y1="286.955" x2="468.523" y2="281.918"/>
	
		<line fill="none" stroke="#1A171B" stroke-width="0.8774" stroke-miterlimit="10" x1="475.797" y1="285.32" x2="473.384" y2="280.365"/>
	
		<line fill="none" stroke="#1A171B" stroke-width="0.8774" stroke-miterlimit="10" x1="480.77" y1="283.512" x2="478.182" y2="278.643"/>
	
		<line fill="none" stroke="#1A171B" stroke-width="0.8774" stroke-miterlimit="10" x1="485.672" y1="281.529" x2="482.918" y2="276.756"/>
	
		<line fill="none" stroke="#1A171B" stroke-width="0.8774" stroke-miterlimit="10" x1="490.506" y1="279.379" x2="487.589" y2="274.701"/>
	
		<line fill="none" stroke="#1A171B" stroke-width="0.8774" stroke-miterlimit="10" x1="495.263" y1="277.061" x2="492.184" y2="272.49"/>
	
		<line fill="none" stroke="#1A171B" stroke-width="0.8774" stroke-miterlimit="10" x1="499.936" y1="274.578" x2="496.695" y2="270.117"/>
	
		<line fill="none" stroke="#1A171B" stroke-width="0.8774" stroke-miterlimit="10" x1="504.516" y1="271.934" x2="501.126" y2="267.588"/>
	
		<line fill="none" stroke="#1A171B" stroke-width="0.8774" stroke-miterlimit="10" x1="509.002" y1="269.129" x2="505.46" y2="264.902"/>
	
		<line fill="none" stroke="#1A171B" stroke-width="0.8774" stroke-miterlimit="10" x1="513.391" y1="266.17" x2="509.705" y2="262.074"/>
	
		<line fill="none" stroke="#1A171B" stroke-width="0.8774" stroke-miterlimit="10" x1="517.668" y1="263.061" x2="513.843" y2="259.09"/>
	
		<line fill="none" stroke="#1A171B" stroke-width="0.8774" stroke-miterlimit="10" x1="521.84" y1="259.807" x2="517.876" y2="255.971"/>
	
		<line fill="none" stroke="#1A171B" stroke-width="0.8774" stroke-miterlimit="10" x1="525.894" y1="256.404" x2="521.799" y2="252.711"/>
	
		<line fill="none" stroke="#1A171B" stroke-width="0.8774" stroke-miterlimit="10" x1="529.825" y1="252.865" x2="525.603" y2="249.318"/>
	
		<line fill="none" stroke="#1A171B" stroke-width="0.8774" stroke-miterlimit="10" x1="533.63" y1="249.193" x2="529.286" y2="245.793"/>
	
		<line fill="none" stroke="#1A171B" stroke-width="0.8774" stroke-miterlimit="10" x1="537.306" y1="245.385" x2="532.846" y2="242.139"/>
	
		<line fill="none" stroke="#1A171B" stroke-width="0.8774" stroke-miterlimit="10" x1="540.845" y1="241.453" x2="536.277" y2="238.365"/>
	
		<line fill="none" stroke="#1A171B" stroke-width="0.8774" stroke-miterlimit="10" x1="544.249" y1="237.404" x2="539.574" y2="234.473"/>
	
		<line fill="none" stroke="#1A171B" stroke-width="0.8774" stroke-miterlimit="10" x1="547.503" y1="233.236" x2="542.729" y2="230.471"/>
	
		<line fill="none" stroke="#1A171B" stroke-width="0.8774" stroke-miterlimit="10" x1="550.614" y1="228.953" x2="545.748" y2="226.355"/>
	
		<line fill="none" stroke="#1A171B" stroke-width="0.8774" stroke-miterlimit="10" x1="553.573" y1="224.568" x2="548.618" y2="222.143"/>
	
		<line fill="none" stroke="#1A171B" stroke-width="0.8774" stroke-miterlimit="10" x1="556.379" y1="220.08" x2="551.341" y2="217.828"/>
	
		<line fill="none" stroke="#1A171B" stroke-width="0.8774" stroke-miterlimit="10" x1="559.023" y1="215.496" x2="553.912" y2="213.424"/>
	
		<line fill="none" stroke="#1A171B" stroke-width="0.8774" stroke-miterlimit="10" x1="561.509" y1="210.826" x2="556.327" y2="208.932"/>
	
		<line fill="none" stroke="#1A171B" stroke-width="0.8774" stroke-miterlimit="10" x1="563.825" y1="206.072" x2="558.584" y2="204.361"/>
	
		<line fill="none" stroke="#1A171B" stroke-width="0.8774" stroke-miterlimit="10" x1="565.979" y1="201.24" x2="560.682" y2="199.711"/>
	
		<line fill="none" stroke="#1A171B" stroke-width="0.8774" stroke-miterlimit="10" x1="567.961" y1="196.33" x2="562.614" y2="194.99"/>
	
		<line fill="none" stroke="#1A171B" stroke-width="0.8774" stroke-miterlimit="10" x1="569.771" y1="191.363" x2="564.383" y2="190.203"/>
	
		<line fill="none" stroke="#1A171B" stroke-width="0.8774" stroke-miterlimit="10" x1="571.406" y1="186.33" x2="565.979" y2="185.363"/>
	
		<line fill="none" stroke="#1A171B" stroke-width="0.8774" stroke-miterlimit="10" x1="572.866" y1="181.246" x2="567.408" y2="180.465"/>
	
		<line fill="none" stroke="#1A171B" stroke-width="0.8774" stroke-miterlimit="10" x1="574.148" y1="176.113" x2="568.662" y2="175.523"/>
	
		<line fill="none" stroke="#1A171B" stroke-width="0.8774" stroke-miterlimit="10" x1="575.247" y1="170.938" x2="569.745" y2="170.543"/>
	
		<line fill="none" stroke="#1A171B" stroke-width="0.8774" stroke-miterlimit="10" x1="576.166" y1="165.729" x2="570.654" y2="165.523"/>
	
		<line fill="none" stroke="#1A171B" stroke-width="0.8774" stroke-miterlimit="10" x1="576.903" y1="160.49" x2="571.386" y2="160.479"/>
	
		<line fill="none" stroke="#1A171B" stroke-width="0.8774" stroke-miterlimit="10" x1="577.456" y1="155.227" x2="571.943" y2="155.408"/>
	
		<line fill="none" stroke="#1A171B" stroke-width="0.8774" stroke-miterlimit="10" x1="577.824" y1="149.947" x2="572.322" y2="150.322"/>
	
		<line fill="none" stroke="#1A171B" stroke-width="0.8774" stroke-miterlimit="10" x1="578.01" y1="144.66" x2="572.521" y2="145.229"/>
	
		<line fill="none" stroke="#1A171B" stroke-width="0.8774" stroke-miterlimit="10" x1="578.012" y1="139.369" x2="572.547" y2="140.129"/>
	
		<line fill="none" stroke="#1A171B" stroke-width="0.8774" stroke-miterlimit="10" x1="577.829" y1="134.082" x2="572.391" y2="135.031"/>
	
		<line fill="none" stroke="#1A171B" stroke-width="0.8774" stroke-miterlimit="10" x1="577.459" y1="128.803" x2="572.06" y2="129.947"/>
	
		<line fill="none" stroke="#1A171B" stroke-width="0.8774" stroke-miterlimit="10" x1="576.906" y1="123.542" x2="571.551" y2="124.869"/>
	
		<line fill="none" stroke="#1A171B" stroke-width="0.8774" stroke-miterlimit="10" x1="576.17" y1="118.305" x2="570.865" y2="119.815"/>
	
		<line fill="none" stroke="#1A171B" stroke-width="0.8774" stroke-miterlimit="10" x1="575.254" y1="113.091" x2="570.004" y2="114.788"/>
	
		<line fill="none" stroke="#1A171B" stroke-width="0.8774" stroke-miterlimit="10" x1="574.152" y1="107.917" x2="568.966" y2="109.794"/>
	
		<line fill="none" stroke="#1A171B" stroke-width="0.8774" stroke-miterlimit="10" x1="572.873" y1="102.782" x2="567.755" y2="104.841"/>
	
		<line fill="none" stroke="#1A171B" stroke-width="0.8774" stroke-miterlimit="10" x1="571.415" y1="97.696" x2="566.373" y2="99.933"/>
	
		<line fill="none" stroke="#1A171B" stroke-width="0.8774" stroke-miterlimit="10" x1="569.782" y1="92.665" x2="564.819" y2="95.073"/>
	
		<line fill="none" stroke="#1A171B" stroke-width="0.8774" stroke-miterlimit="10" x1="567.97" y1="87.693" x2="563.095" y2="90.275"/>
	
		<line fill="none" stroke="#1A171B" stroke-width="0.8774" stroke-miterlimit="10" x1="565.989" y1="82.787" x2="561.207" y2="85.538"/>
	
		<line fill="none" stroke="#1A171B" stroke-width="0.8774" stroke-miterlimit="10" x1="563.839" y1="77.957" x2="559.155" y2="80.87"/>
	
		<line fill="none" stroke="#1A171B" stroke-width="0.8774" stroke-miterlimit="10" x1="561.521" y1="73.198" x2="556.941" y2="76.278"/>
	
		<line fill="none" stroke="#1A171B" stroke-width="0.8774" stroke-miterlimit="10" x1="559.036" y1="68.528" x2="554.564" y2="71.763"/>
	
		<line fill="none" stroke="#1A171B" stroke-width="0.8774" stroke-miterlimit="10" x1="556.391" y1="63.947" x2="552.038" y2="67.335"/>
	
		<line fill="none" stroke="#1A171B" stroke-width="0.8774" stroke-miterlimit="10" x1="553.59" y1="59.457" x2="549.355" y2="62.999"/>
	
		<line fill="none" stroke="#1A171B" stroke-width="0.8774" stroke-miterlimit="10" x1="550.628" y1="55.071" x2="546.523" y2="58.76"/>
	
		<line fill="none" stroke="#1A171B" stroke-width="0.8774" stroke-miterlimit="10" x1="547.519" y1="50.789" x2="543.543" y2="54.62"/>
	
		<line fill="none" stroke="#1A171B" stroke-width="0.8774" stroke-miterlimit="10" x1="544.263" y1="46.617" x2="540.422" y2="50.586"/>
	
		<line fill="none" stroke="#1A171B" stroke-width="0.8774" stroke-miterlimit="10" x1="540.861" y1="42.564" x2="537.164" y2="46.665"/>
	
		<line fill="none" stroke="#1A171B" stroke-width="0.8774" stroke-miterlimit="10" x1="537.319" y1="38.632" x2="533.765" y2="42.859"/>
	
		<line fill="none" stroke="#1A171B" stroke-width="0.8774" stroke-miterlimit="10" x1="533.646" y1="34.827" x2="530.241" y2="39.175"/>
	
		<line fill="none" stroke="#1A171B" stroke-width="0.8774" stroke-miterlimit="10" x1="529.839" y1="31.154" x2="526.59" y2="35.615"/>
	
		<line fill="none" stroke="#1A171B" stroke-width="0.8774" stroke-miterlimit="10" x1="525.907" y1="27.61" x2="522.814" y2="32.186"/>
	
		<line fill="none" stroke="#1A171B" stroke-width="0.8774" stroke-miterlimit="10" x1="521.854" y1="24.208" x2="518.925" y2="28.887"/>
	
		<line fill="none" stroke="#1A171B" stroke-width="0.8774" stroke-miterlimit="10" x1="517.688" y1="20.952" x2="514.922" y2="25.732"/>
	
		<line fill="none" stroke="#1A171B" stroke-width="0.8774" stroke-miterlimit="10" x1="513.404" y1="17.842" x2="510.809" y2="22.713"/>
	
		<line fill="none" stroke="#1A171B" stroke-width="0.8774" stroke-miterlimit="10" x1="509.02" y1="14.883" x2="506.596" y2="19.844"/>
	
		<line fill="none" stroke="#1A171B" stroke-width="0.8774" stroke-miterlimit="10" x1="504.531" y1="12.08" x2="502.284" y2="17.122"/>
	
		<line fill="none" stroke="#1A171B" stroke-width="0.8774" stroke-miterlimit="10" x1="499.951" y1="9.434" x2="497.879" y2="14.552"/>
	
		<line fill="none" stroke="#1A171B" stroke-width="0.8774" stroke-miterlimit="10" x1="495.279" y1="6.948" x2="493.385" y2="12.137"/>
	
		<line fill="none" stroke="#1A171B" stroke-width="0.8774" stroke-miterlimit="10" x1="490.523" y1="4.632" x2="488.814" y2="9.88"/>
	
		<line fill="none" stroke="#1A171B" stroke-width="0.8774" stroke-miterlimit="10" x1="485.689" y1="2.479" x2="484.166" y2="7.782"/>
	
		<line fill="none" stroke="#1A171B" stroke-width="0.8774" stroke-miterlimit="10" x1="480.784" y1="0.496" x2="479.443" y2="5.849"/>
	
		<line fill="none" stroke="#1A171B" stroke-width="0.8774" stroke-miterlimit="10" x1="475.814" y1="-1.314" x2="474.659" y2="4.081"/>
	
		<line fill="none" stroke="#1A171B" stroke-width="0.8774" stroke-miterlimit="10" x1="470.784" y1="-2.952" x2="469.818" y2="2.486"/>
	
		<line fill="none" stroke="#1A171B" stroke-width="0.8774" stroke-miterlimit="10" x1="465.697" y1="-4.407" x2="464.921" y2="1.056"/>
	
		<line fill="none" stroke="#1A171B" stroke-width="0.8774" stroke-miterlimit="10" x1="460.564" y1="-5.691" x2="459.979" y2="-0.201"/>
	
		<line fill="none" stroke="#1A171B" stroke-width="0.8774" stroke-miterlimit="10" x1="455.391" y1="-6.79" x2="454.998" y2="-1.284"/>
	
		<line fill="none" stroke="#1A171B" stroke-width="0.8774" stroke-miterlimit="10" x1="450.177" y1="-7.708" x2="449.979" y2="-2.193"/>
	
		<line fill="none" stroke="#1A171B" stroke-width="0.8774" stroke-miterlimit="10" x1="444.939" y1="-8.445" x2="444.934" y2="-2.925"/>
	
		<line fill="none" stroke="#1A171B" stroke-width="0.8774" stroke-miterlimit="10" x1="439.679" y1="-8.997" x2="439.863" y2="-3.482"/>
	
		<line fill="none" stroke="#1A171B" stroke-width="0.8774" stroke-miterlimit="10" x1="434.398" y1="-9.37" x2="434.777" y2="-3.861"/>
	
		<line fill="none" stroke="#1A171B" stroke-width="0.8774" stroke-miterlimit="10" x1="429.111" y1="-9.552" x2="429.684" y2="-4.062"/>
	
		<line fill="none" stroke="#1A171B" stroke-width="0.8774" stroke-miterlimit="10" x1="423.822" y1="-9.555" x2="424.583" y2="-4.085"/>
	
		<line fill="none" stroke="#1A171B" stroke-width="0.8774" stroke-miterlimit="10" x1="418.533" y1="-9.37" x2="419.484" y2="-3.932"/>
	<line fill="none" stroke="#1A171B" stroke-width="0.8774" stroke-miterlimit="10" x1="413.257" y1="-9" x2="414.395" y2="-3.601"/>
	
		<line fill="none" stroke="#1A171B" stroke-width="0.8774" stroke-miterlimit="10" x1="407.993" y1="-8.449" x2="409.322" y2="-3.089"/>
	
		<line fill="none" stroke="#1A171B" stroke-width="0.8774" stroke-miterlimit="10" x1="402.754" y1="-7.714" x2="404.268" y2="-2.404"/>
	
		<line fill="none" stroke="#1A171B" stroke-width="0.8774" stroke-miterlimit="10" x1="397.542" y1="-6.795" x2="399.24" y2="-1.542"/>
	
		<line fill="none" stroke="#1A171B" stroke-width="0.8774" stroke-miterlimit="10" x1="392.367" y1="-5.694" x2="394.248" y2="-0.505"/>
	
		<line fill="none" stroke="#1A171B" stroke-width="0.8774" stroke-miterlimit="10" x1="387.232" y1="-4.414" x2="389.294" y2="0.706"/>
	
		<line fill="none" stroke="#1A171B" stroke-width="0.8774" stroke-miterlimit="10" x1="382.148" y1="-2.956" x2="384.386" y2="2.091"/>
	
		<line fill="none" stroke="#1A171B" stroke-width="0.8774" stroke-miterlimit="10" x1="377.118" y1="-1.323" x2="379.529" y2="3.644"/>
	
		<line fill="none" stroke="#1A171B" stroke-width="0.8774" stroke-miterlimit="10" x1="372.146" y1="0.489" x2="374.729" y2="5.367"/>
	<line fill="none" stroke="#1A171B" stroke-width="0.8774" stroke-miterlimit="10" x1="367.24" y1="2.47" x2="369.992" y2="7.254"/>
	
		<line fill="none" stroke="#1A171B" stroke-width="0.8774" stroke-miterlimit="10" x1="362.406" y1="4.62" x2="365.322" y2="9.308"/>
	
		<line fill="none" stroke="#1A171B" stroke-width="0.8774" stroke-miterlimit="10" x1="357.648" y1="6.939" x2="360.73" y2="11.522"/>
	
		<line fill="none" stroke="#1A171B" stroke-width="0.8774" stroke-miterlimit="10" x1="352.977" y1="9.42" x2="356.215" y2="13.894"/>
	
		<line fill="none" stroke="#1A171B" stroke-width="0.8774" stroke-miterlimit="10" x1="348.396" y1="12.069" x2="351.787" y2="16.423"/>
	
		<line fill="none" stroke="#1A171B" stroke-width="0.8774" stroke-miterlimit="10" x1="343.909" y1="14.872" x2="347.449" y2="19.106"/>
	
		<line fill="none" stroke="#1A171B" stroke-width="0.8774" stroke-miterlimit="10" x1="339.523" y1="17.831" x2="343.21" y2="21.939"/>
	
		<line fill="none" stroke="#1A171B" stroke-width="0.8774" stroke-miterlimit="10" x1="335.243" y1="20.94" x2="339.07" y2="24.918"/>
</g>
</svg>
