<?xml version="1.0" encoding="utf-8"?>
<!-- Generator: Adobe Illustrator 16.0.0, SVG Export Plug-In . SVG Version: 6.00 Build 0)  -->
<!DOCTYPE svg PUBLIC "-//W3C//DTD SVG 1.1//EN" "http://www.w3.org/Graphics/SVG/1.1/DTD/svg11.dtd">
<svg version="1.1" id="Calque_1" xmlns="http://www.w3.org/2000/svg" xmlns:xlink="http://www.w3.org/1999/xlink" x="0px" y="0px"
	 width="250px" height="250px" viewBox="0 0 250 250" enable-background="new 0 0 250 250" xml:space="preserve">
<path fill="none" d="M118.348,38.525c-5.285-1.042-10.44-0.604-15.119,1.375c-13.818,5.852-19.39,23.39-13.595,40.566
	c4.396-2.491,9.197-4.37,14.309-5.435c-1.04-3.087-1.603-6.395-1.6-9.804C102.343,53.782,108.619,43.61,118.348,38.525z"/>
<path fill="none" d="M67.979,65.228c0,9.726,3.139,18.743,8.47,26.14c3.091-3.625,6.711-6.809,10.75-9.419
	c-6.588-18.667-0.427-38.01,14.892-44.495c5.755-2.437,12.126-2.798,18.593-1.153V20.245c-2.101-0.287-4.225-0.474-6.357-0.474
	C88.77,19.771,67.979,40.167,67.979,65.228z"/>
<path fill="none" d="M105.144,65.228c0,3.247,0.552,6.384,1.573,9.299c2.435-0.364,4.926-0.554,7.464-0.554
	c2.181,0,4.354,0.18,6.505,0.464V40.355C111.272,44.786,105.144,54.385,105.144,65.228z"/>
<path fill="none" d="M102.193,122.106c0-11.442,6.265-21.624,15.984-26.708c-5.277-1.034-10.424-0.589-15.099,1.38
	c-15.064,6.376-20.345,26.644-11.77,45.184c5.94,12.848,17.507,22.058,29.376,23.709v-15.696
	C109.547,145.415,102.193,134.501,102.193,122.106z"/>
<path fill="none" d="M104.998,122.106c0,10.896,6.193,20.541,15.688,24.937V97.167C111.191,101.567,104.998,111.205,104.998,122.106
	z"/>
<path fill="none" d="M67.83,122.106c0,25.062,20.795,45.455,46.351,45.455c0.634,0,1.264-0.053,1.895-0.08
	c-11.327-3.062-21.6-12.06-27.318-24.437c-9.205-19.887-3.281-41.742,13.19-48.713c5.796-2.453,12.221-2.801,18.738-1.112V77.14
	c-2.15-0.299-4.32-0.49-6.505-0.49C88.625,76.65,67.83,97.045,67.83,122.106z"/>
<path fill="none" d="M135.322,28.427l-11.443-0.009l13.323,14.764l1.404,0.207c19.516,1.76,20.887,20.809,20.906,25.842h0.212
	l10.773-11.949C167.028,36.025,150.083,28.427,135.322,28.427z"/>
<path fill="none" d="M138.44,19.779h-15.497v7.589l12.378,0.009c15.207,0,32.668,7.84,36.221,29.788l10.718,11.845
	c0.047-4.208,0.022-8.092-0.422-12.083C178.757,29.508,156.533,19.779,138.44,19.779z"/>
<polygon fill="none" points="161.244,69.231 180.937,69.231 171.073,58.33 "/>
<polygon fill="none" points="129.3,35.99 122.944,28.947 122.944,166.718 129.172,159.834 "/>
<polygon fill="none" points="130.301,159.697 136.933,167.024 136.933,44.45 130.426,37.24 "/>
<polygon fill="none" points="123.645,167.63 135.958,167.63 129.798,160.826 "/>
<path fill="#D2B0B0" d="M105.959,50.813l-7.443-8.244c-0.19,0.139-0.36,0.292-0.543,0.437l7.635,8.465
	C105.721,51.25,105.839,51.032,105.959,50.813z"/>
<path fill="#D2B0B0" d="M87.547,70.736c0.006,0.064,0.009,0.126,0.017,0.188c0.016,0.17,0.05,0.342,0.07,0.511l6.192,6.93
	c0.221-0.101,0.453-0.191,0.678-0.291l-6.984-7.816C87.533,70.42,87.53,70.575,87.547,70.736z"/>
<path fill="#D2B0B0" d="M103.483,56.921L94.198,46.63c-0.154,0.181-0.291,0.375-0.437,0.561l9.521,10.552
	C103.348,57.47,103.406,57.191,103.483,56.921z"/>
<path fill="#D2B0B0" d="M104.591,53.73l-8.36-9.265c-0.169,0.159-0.323,0.337-0.485,0.503l8.557,9.485
	C104.398,54.21,104.493,53.97,104.591,53.73z"/>
<path fill="#D2B0B0" d="M102.719,60.499L92.4,49.062c-0.134,0.204-0.26,0.411-0.386,0.618l10.577,11.722
	C102.63,61.1,102.673,60.8,102.719,60.499z"/>
<path fill="#D2B0B0" d="M111.402,43.576l-4.425-4.903c-0.254,0.06-0.503,0.135-0.754,0.205l4.688,5.195
	C111.073,43.907,111.236,43.74,111.402,43.576z"/>
<path fill="#D2B0B0" d="M113.622,41.616l-3.175-3.521c-0.285,0.026-0.564,0.07-0.846,0.105l3.475,3.854
	C113.257,41.906,113.441,41.762,113.622,41.616z"/>
<path fill="#D2B0B0" d="M107.559,48.168l-6.495-7.197c-0.209,0.115-0.417,0.231-0.622,0.353l6.722,7.45
	C107.295,48.572,107.422,48.366,107.559,48.168z"/>
<path fill="#D2B0B0" d="M116.048,39.879l-1.675-1.859c-0.323-0.018-0.64-0.013-0.961-0.019l2.048,2.268
	C115.655,40.137,115.851,40.008,116.048,39.879z"/>
<path fill="#D2B0B0" d="M109.383,45.758l-5.505-6.102c-0.215,0.085-0.438,0.155-0.648,0.245c-0.018,0.007-0.036,0.018-0.053,0.024
	l5.754,6.373C109.077,46.112,109.23,45.936,109.383,45.758z"/>
<path fill="#D2B0B0" d="M97.417,76.91L87.414,65.723c-0.012,0.339-0.021,0.679-0.022,1.023l9.304,10.409
	C96.932,77.064,97.178,76.996,97.417,76.91z"/>
<path fill="#D2B0B0" d="M102.63,69.252L89.533,54.74c-0.093,0.245-0.194,0.485-0.279,0.734l13.548,15.01
	C102.73,70.079,102.683,69.665,102.63,69.252z"/>
<path fill="#D2B0B0" d="M88.625,76.979l2.451,2.741c0.211-0.112,0.426-0.224,0.638-0.333l-3.389-3.796
	C88.423,76.052,88.509,76.516,88.625,76.979z"/>
<path fill="#D2B0B0" d="M100.468,75.904L87.742,61.67c-0.043,0.309-0.061,0.628-0.096,0.941L99.727,76.13
	C99.974,76.055,100.22,75.975,100.468,75.904z"/>
<path fill="#D2B0B0" d="M103.867,75.052l-15.373-17.04c-0.068,0.269-0.154,0.532-0.22,0.803l14.827,16.429
	C103.357,75.186,103.609,75.106,103.867,75.052z"/>
<path fill="#D2B0B0" d="M102.343,65.228c0-0.233,0.019-0.459,0.024-0.691L90.842,51.761c-0.114,0.225-0.226,0.448-0.335,0.677
	l11.852,13.132C102.356,65.455,102.343,65.341,102.343,65.228z"/>
<path fill="#D2B0B0" d="M102.193,122.106c0-0.243,0.018-0.481,0.024-0.722l-11.6-12.651c-0.113,0.225-0.217,0.454-0.325,0.681
	l11.911,12.992C102.202,122.305,102.193,122.209,102.193,122.106z"/>
<path fill="#D2B0B0" d="M119.05,149.234c-0.608-0.295-1.208-0.613-1.794-0.948l3.429,3.799v-1.042L119.05,149.234z"/>
<path fill="#D2B0B0" d="M91.076,141.396l18.495,20.495c0.573,0.314,1.154,0.605,1.739,0.881l-21.033-23.306
	C90.53,140.11,90.788,140.754,91.076,141.396z"/>
<path fill="#D2B0B0" d="M87.501,128.586l33.184,36.776v-1.041l-33.307-36.918C87.414,127.798,87.456,128.191,87.501,128.586z"/>
<path fill="#D2B0B0" d="M88.554,134.178l27.484,30.453c0.414,0.126,0.831,0.233,1.245,0.34l-29.056-32.198
	C88.333,133.239,88.435,133.709,88.554,134.178z"/>
<path fill="#D2B0B0" d="M113.503,98.454l-3.146-3.487c-0.285,0.028-0.562,0.074-0.844,0.108l3.444,3.815
	C113.134,98.742,113.321,98.599,113.503,98.454z"/>
<path fill="#D2B0B0" d="M115.93,96.718l-1.637-1.814c-0.322-0.018-0.641-0.016-0.961-0.021l2.012,2.229
	C115.537,96.979,115.731,96.847,115.93,96.718z"/>
<path fill="#D2B0B0" d="M111.278,100.414l-4.396-4.872c-0.255,0.062-0.509,0.134-0.76,0.202l4.66,5.168
	C110.945,100.745,111.108,100.577,111.278,100.414z"/>
<path fill="#D2B0B0" d="M102.573,117.343l-10.386-11.329c-0.132,0.203-0.266,0.404-0.393,0.609l10.651,11.614
	C102.481,117.938,102.529,117.641,102.573,117.343z"/>
<path fill="#D2B0B0" d="M105.743,107.796l-7.414-8.294c-0.189,0.137-0.389,0.267-0.573,0.409l7.642,8.551
	C105.511,108.237,105.627,108.017,105.743,107.796z"/>
<path fill="#D2B0B0" d="M104.396,110.711l-8.336-9.326c-0.171,0.161-0.347,0.312-0.514,0.476l8.563,9.582
	C104.2,111.197,104.297,110.953,104.396,110.711z"/>
<path fill="#D2B0B0" d="M87.224,123.85l33.461,37.085v-1.041L87.25,122.835C87.242,123.173,87.227,123.509,87.224,123.85z"/>
<path fill="#D2B0B0" d="M102.508,126.472l-13.236-14.667c-0.092,0.25-0.158,0.52-0.245,0.776l13.708,15.189
	C102.656,127.338,102.57,126.911,102.508,126.472z"/>
<path fill="#D2B0B0" d="M103.302,113.913l-9.272-10.377c-0.151,0.181-0.312,0.353-0.46,0.538l9.533,10.665
	C103.168,114.464,103.223,114.185,103.302,113.913z"/>
<path fill="#D2B0B0" d="M87.467,119.701l33.218,36.808v-1.044l-33.111-36.69C87.533,119.081,87.501,119.392,87.467,119.701z"/>
<path fill="#D2B0B0" d="M104.054,132.61l-15.787-17.498c-0.071,0.277-0.114,0.563-0.18,0.844l16.735,18.549
	C104.547,133.884,104.289,133.252,104.054,132.61z"/>
<path fill="#D2B0B0" d="M109.129,102.74l-5.506-6.164c-0.183,0.069-0.362,0.127-0.543,0.202c-0.052,0.022-0.096,0.053-0.146,0.075
	l5.75,6.433C108.829,103.102,108.98,102.921,109.129,102.74z"/>
<path fill="#D2B0B0" d="M107.333,105.151l-6.484-7.255c-0.214,0.115-0.431,0.22-0.632,0.342l6.721,7.521
	C107.066,105.554,107.197,105.351,107.333,105.151z"/>
<polygon fill="#D2B0B0" points="136.933,128.562 136.933,127.52 130.341,120.21 130.341,121.254 "/>
<polygon fill="#D2B0B0" points="136.933,124.141 136.933,123.096 130.346,115.792 130.346,116.836 "/>
<polygon fill="#D2B0B0" points="136.933,115.287 136.933,114.242 130.355,106.954 130.353,107.995 "/>
<polygon fill="#D2B0B0" points="136.933,110.863 136.933,109.818 130.36,102.528 130.357,103.574 "/>
<polygon fill="#D2B0B0" points="136.933,106.435 136.933,105.393 130.363,98.112 130.362,99.153 "/>
<polygon fill="#D2B0B0" points="136.933,119.708 136.933,118.667 130.35,111.37 130.35,112.411 "/>
<polygon fill="#D2B0B0" points="136.933,132.987 136.933,131.942 130.335,124.633 130.335,125.674 "/>
<polygon fill="#D2B0B0" points="136.933,163.962 136.933,162.917 130.306,155.572 130.304,156.61 "/>
<polygon fill="#D2B0B0" points="136.933,150.686 136.933,149.64 130.317,142.312 130.317,143.354 "/>
<polygon fill="#D2B0B0" points="136.933,159.534 136.933,158.492 130.31,151.15 130.31,152.191 "/>
<polygon fill="#D2B0B0" points="136.933,137.409 136.933,136.365 130.332,129.046 130.332,130.091 "/>
<polygon fill="#D2B0B0" points="136.933,146.259 136.933,145.218 130.323,137.891 130.323,138.934 "/>
<polygon fill="#D2B0B0" points="136.933,141.837 136.933,140.793 130.326,133.468 130.326,134.513 "/>
<polygon fill="#D2B0B0" points="136.933,155.11 136.933,154.067 130.312,146.729 130.312,147.772 "/>
<polygon fill="#D2B0B0" points="136.933,62.192 136.933,61.15 130.409,53.918 130.409,54.96 "/>
<polygon fill="#D2B0B0" points="136.933,71.043 136.933,69.998 130.4,62.755 130.4,63.798 "/>
<polygon fill="#D2B0B0" points="136.933,66.616 136.933,65.573 130.405,58.336 130.405,59.379 "/>
<polygon fill="#D2B0B0" points="136.933,57.768 136.933,56.722 130.412,49.499 130.412,50.542 "/>
<polygon fill="#D2B0B0" points="136.933,48.915 136.933,47.872 130.421,40.656 130.421,41.698 "/>
<polygon fill="#D2B0B0" points="136.933,53.345 136.933,52.298 130.417,45.08 130.417,46.124 "/>
<polygon fill="#D2B0B0" points="136.933,79.891 136.933,78.846 130.392,71.597 130.39,72.642 "/>
<polygon fill="#D2B0B0" points="136.933,93.166 136.933,92.124 130.378,84.856 130.375,85.899 "/>
<polygon fill="#D2B0B0" points="136.933,75.468 136.933,74.423 130.396,67.178 130.396,68.224 "/>
<polygon fill="#D2B0B0" points="136.933,97.589 136.933,96.547 130.372,89.274 130.371,90.318 "/>
<polygon fill="#D2B0B0" points="136.933,88.741 136.933,87.696 130.381,80.438 130.381,81.48 "/>
<polygon fill="#D2B0B0" points="136.933,102.015 136.933,100.97 130.368,93.696 130.366,94.739 "/>
<polygon fill="#D2B0B0" points="136.933,84.317 136.933,83.273 130.387,76.017 130.384,77.058 "/>
<path fill="#D2B0B0" d="M184.084,57.676c-2.029-18.062-15.2-39.154-45.644-39.154h-17.755v0.016
	c-2.101-0.271-4.225-0.443-6.357-0.443c-27.102,0-49.152,21.589-49.152,48.133c0,10.6,3.533,20.399,9.486,28.363
	c-6.041,7.981-9.632,17.837-9.632,28.516c0,26.537,22.05,48.129,49.149,48.129c2.181,0,4.354-0.175,6.505-0.455v0.111h18.506
	v-28.903c6.153-36.416,44.121-47.676,44.121-47.676h1.128V75.341h-45.249V46.723c19.35,2.354,18.104,23.641,18.042,24.557
	l-0.085,1.209h27.336l0.017-1.112C184.574,66.566,184.592,62.218,184.084,57.676z M120.686,166.671
	c-11.87-1.651-23.437-10.861-29.376-23.709c-8.575-18.54-3.294-38.807,11.77-45.184c4.674-1.969,9.822-2.414,15.099-1.38
	c-9.719,5.084-15.984,15.266-15.984,26.708c0,12.395,7.354,23.309,18.492,27.868V166.671z M120.686,148.043
	c-9.494-4.396-15.688-14.041-15.688-24.937c0-10.901,6.193-20.54,15.688-24.94V148.043z M120.686,94.22
	c-6.517-1.689-12.942-1.341-18.738,1.112c-16.471,6.971-22.395,28.827-13.19,48.713c5.719,12.377,15.992,21.374,27.318,24.437
	c-0.631,0.027-1.261,0.08-1.895,0.08c-25.555,0-46.351-20.393-46.351-45.455c0-25.062,20.795-45.457,46.351-45.457
	c2.186,0,4.355,0.19,6.505,0.49V94.22z M103.943,76.032c-5.112,1.065-9.914,2.944-14.309,5.435
	c-5.794-17.176-0.223-34.714,13.595-40.566c4.679-1.979,9.834-2.418,15.119-1.375c-9.729,5.084-16.005,15.256-16.005,26.702
	C102.34,69.637,102.903,72.944,103.943,76.032z M120.686,75.437c-2.152-0.284-4.324-0.464-6.505-0.464
	c-2.538,0-5.029,0.19-7.464,0.554c-1.021-2.915-1.573-6.052-1.573-9.299c0-10.843,6.128-20.442,15.542-24.873V75.437z
	 M120.686,37.301c-6.467-1.646-12.838-1.284-18.593,1.153C86.773,44.939,80.612,64.282,87.2,82.949
	c-4.039,2.61-7.66,5.794-10.75,9.419c-5.332-7.397-8.47-16.415-8.47-26.14c0-25.061,20.791-45.457,46.349-45.457
	c2.132,0,4.256,0.188,6.357,0.474V37.301z M122.944,29.947l6.356,7.042l-0.128,123.844l-6.228,6.884V29.947z M123.645,168.63
	l6.153-6.804l6.16,6.804H123.645z M136.933,168.024l-6.632-7.327l0.125-122.457l6.507,7.21V168.024z M179.77,77.603
	c2.209-0.771,3.543-1.132,3.543-1.132s-1.331,0.361-3.537,1.131c-5.49,1.921-16.463,6.429-26.352,14.515
	c-0.82,0.67-1.635,1.36-2.437,2.082c-4.523,4.067-8.674,8.946-11.796,14.722V94.211h11.778c0.812-0.728,1.633-1.422,2.458-2.1
	h-14.236V77.603H179.77z M161.244,70.231l9.829-10.901l9.863,10.901H161.244z M182.261,70.011l-10.718-11.845
	c-3.553-21.948-21.014-29.788-36.221-29.788l-12.378-0.009v-7.589h15.497c18.093,0,40.316,9.729,43.398,37.148
	C182.283,61.918,182.308,65.803,182.261,70.011z"/>
<polygon fill="#D2B0B0" points="169.438,60.142 177.639,69.231 178.58,69.231 169.91,59.619 "/>
<polygon fill="#D2B0B0" points="167.442,62.356 173.646,69.231 174.587,69.231 167.916,61.831 "/>
<polygon fill="#D2B0B0" points="161.55,68.889 161.858,69.231 162.8,69.231 162.023,68.369 "/>
<polygon fill="#D2B0B0" points="163.509,66.72 165.773,69.231 166.714,69.231 163.978,66.198 "/>
<polygon fill="#D2B0B0" points="165.449,64.567 169.655,69.231 170.598,69.231 165.919,64.045 "/>
<g>
	<path fill="#D2B0B0" d="M38.131,192.803c0-0.203,0.162-0.389,0.386-0.389h4.553c2.46,0,4.229,1.626,4.229,3.763
		c0,1.564-1.161,2.68-2.116,3.231c1.081,0.445,2.543,1.442,2.543,3.311c0,2.276-1.87,3.926-4.431,3.926h-4.778
		c-0.224,0-0.386-0.185-0.386-0.388V192.803z M43.271,204.774c1.242,0,2.196-0.956,2.196-2.217c0-1.24-1.175-2.136-2.499-2.136
		h-2.784v4.353H43.271z M42.948,198.593c1.301,0,2.092-0.953,2.092-2.176c0-1.237-0.791-2.094-2.092-2.094h-2.746v4.27H42.948z"/>
	<path fill="#D2B0B0" d="M58.045,192.212c4.066,0,7.321,3.271,7.321,7.336c0,4.066-3.255,7.3-7.321,7.3
		c-4.064,0-7.296-3.233-7.296-7.3C50.749,195.482,53.98,192.212,58.045,192.212z M58.045,204.814c2.909,0,5.289-2.359,5.289-5.267
		c0-2.885-2.38-5.303-5.289-5.303c-2.883,0-5.263,2.418-5.263,5.303C52.782,202.455,55.162,204.814,58.045,204.814z"/>
	<path fill="#D2B0B0" d="M69.281,192.803c0-0.203,0.164-0.389,0.389-0.389h5.526c2.439,0,4.431,1.932,4.431,4.354
		c0,1.869-1.24,3.413-3.008,4.122l2.785,5.164c0.143,0.264,0,0.591-0.347,0.591h-1.582c-0.164,0-0.288-0.102-0.327-0.185
		l-2.704-5.385h-3.069v5.182c0,0.203-0.184,0.388-0.389,0.388H69.67c-0.226,0-0.389-0.185-0.389-0.388V192.803z M75.032,199.324
		c1.322,0,2.481-1.116,2.481-2.519c0-1.323-1.159-2.42-2.481-2.42h-3.618v4.938H75.032z"/>
	<path fill="#D2B0B0" d="M83.811,192.803c0-0.203,0.163-0.389,0.365-0.389h4.675c3.922,0,7.135,3.193,7.135,7.096
		c0,3.941-3.212,7.135-7.135,7.135h-4.675c-0.202,0-0.365-0.185-0.365-0.388V192.803z M88.567,204.712
		c2.987,0,5.163-2.194,5.163-5.202c0-2.992-2.176-5.164-5.163-5.164h-2.683v10.366H88.567z"/>
	<path fill="#D2B0B0" d="M99.924,192.803c0-0.203,0.162-0.389,0.386-0.389h8.128c0.226,0,0.389,0.186,0.389,0.389v1.137
		c0,0.203-0.163,0.384-0.389,0.384h-6.422v4.149h5.427c0.205,0,0.387,0.181,0.387,0.384v1.139c0,0.224-0.183,0.387-0.387,0.387
		h-5.427v4.37h6.422c0.226,0,0.389,0.186,0.389,0.389v1.116c0,0.203-0.163,0.388-0.389,0.388h-8.128
		c-0.224,0-0.386-0.185-0.386-0.388V192.803z"/>
	<path fill="#D2B0B0" d="M110.997,206.116l6.24-13.679c0.062-0.125,0.245-0.226,0.346-0.226h0.204c0.102,0,0.285,0.101,0.347,0.226
		l6.2,13.679c0.122,0.264-0.042,0.528-0.347,0.528h-1.281c-0.242,0-0.386-0.124-0.467-0.305l-1.258-2.787h-6.648
		c-0.407,0.936-0.834,1.853-1.241,2.787c-0.059,0.141-0.224,0.305-0.466,0.305h-1.282
		C111.037,206.645,110.877,206.38,110.997,206.116z M120.205,201.807l-2.5-5.569h-0.103l-2.478,5.569H120.205z"/>
	<path fill="#D2B0B0" d="M127.03,192.803c0-0.203,0.185-0.389,0.386-0.389h1.362c0.225,0,0.388,0.186,0.388,0.389v8.391
		c0,2.033,1.301,3.621,3.374,3.621c2.094,0,3.415-1.565,3.415-3.576v-8.436c0-0.203,0.163-0.389,0.387-0.389h1.36
		c0.204,0,0.385,0.186,0.385,0.389v8.538c0,3.086-2.336,5.507-5.547,5.507c-3.193,0-5.51-2.421-5.51-5.507V192.803z"/>
	<path fill="#D2B0B0" d="M145.726,199.347l-4.025-6.363c-0.162-0.264,0-0.569,0.346-0.569h1.729c0.143,0,0.285,0.084,0.343,0.186
		l2.868,4.856h0.022l2.904-4.856c0.041-0.085,0.164-0.186,0.325-0.186h1.729c0.347,0,0.507,0.306,0.347,0.569l-4.025,6.363
		l4.167,6.728c0.161,0.285,0,0.57-0.346,0.57h-1.564c-0.163,0-0.307-0.102-0.347-0.185l-3.189-5.204h-0.043l-3.15,5.204
		c-0.062,0.083-0.183,0.185-0.346,0.185h-1.563c-0.367,0-0.528-0.305-0.367-0.57L145.726,199.347z"/>
	<path fill="#D2B0B0" d="M161.655,192.803c0-0.203,0.162-0.389,0.385-0.389h4.554c2.462,0,4.228,1.626,4.228,3.763
		c0,1.564-1.159,2.68-2.113,3.231c1.077,0.445,2.539,1.442,2.539,3.311c0,2.276-1.868,3.926-4.43,3.926h-4.777
		c-0.223,0-0.385-0.185-0.385-0.388V192.803z M166.8,204.774c1.239,0,2.191-0.956,2.191-2.217c0-1.24-1.18-2.136-2.5-2.136h-2.782
		v4.353H166.8z M166.471,198.593c1.301,0,2.097-0.953,2.097-2.176c0-1.237-0.796-2.094-2.097-2.094h-2.741v4.27H166.471z"/>
	<path fill="#D2B0B0" d="M175.31,192.803c0-0.203,0.162-0.389,0.385-0.389h8.133c0.223,0,0.385,0.186,0.385,0.389v1.137
		c0,0.203-0.162,0.384-0.385,0.384h-6.424v4.149h5.426c0.204,0,0.386,0.181,0.386,0.384v1.139c0,0.224-0.182,0.387-0.386,0.387
		h-5.426v4.37h6.424c0.223,0,0.385,0.186,0.385,0.389v1.116c0,0.203-0.162,0.388-0.385,0.388h-8.133
		c-0.223,0-0.385-0.185-0.385-0.388V192.803z"/>
	<path fill="#D2B0B0" d="M188.294,192.803c0-0.203,0.163-0.389,0.385-0.389h8.133c0.223,0,0.386,0.186,0.386,0.389v1.137
		c0,0.203-0.163,0.384-0.386,0.384h-6.424v4.149h5.425c0.205,0,0.388,0.181,0.388,0.384v1.139c0,0.224-0.183,0.387-0.388,0.387
		h-5.425v4.37h6.424c0.223,0,0.386,0.186,0.386,0.389v1.116c0,0.203-0.163,0.388-0.386,0.388h-8.133
		c-0.222,0-0.385-0.185-0.385-0.388V192.803z"/>
	<path fill="#D2B0B0" d="M201.278,192.803c0-0.203,0.163-0.389,0.386-0.389h5.531c2.437,0,4.432,1.932,4.432,4.354
		c0,1.869-1.242,3.413-3.012,4.122l2.786,5.164c0.144,0.264,0,0.591-0.348,0.591h-1.585c-0.16,0-0.285-0.102-0.325-0.185
		l-2.702-5.385h-3.068v5.182c0,0.203-0.183,0.388-0.386,0.388h-1.323c-0.223,0-0.386-0.185-0.386-0.388V192.803z M207.031,199.324
		c1.32,0,2.48-1.116,2.48-2.519c0-1.323-1.16-2.42-2.48-2.42h-3.618v4.938H207.031z"/>
</g>
<g>
	<path fill="#D2B0B0" d="M99.718,206.402c0.077-0.08,0.175-0.19,0.285-0.336c0.111-0.141,0.134-0.274,0.071-0.401
		c-0.018-0.062-0.099-0.114-0.249-0.154c-0.15-0.039-0.325-0.07-0.52-0.093c-0.196-0.021-0.396-0.031-0.593-0.021
		c-0.196,0.003-0.358,0.024-0.485,0.057c-0.046,0-0.097,0.018-0.154,0.057c-0.054,0.04-0.107,0.062-0.153,0.062
		c-0.062,0.03-0.134,0.036-0.214,0.01c-0.08-0.022-0.15-0.019-0.21,0.012c-0.128,0.032-0.25,0.071-0.367,0.12
		c-0.119,0.049-0.242,0.078-0.368,0.094c-0.063,0.034-0.126,0.05-0.19,0.061c-0.063,0.009-0.126,0.013-0.188,0.013
		c-0.457,0.124-0.908,0.273-1.347,0.445c-0.444,0.177-0.878,0.351-1.303,0.525c-0.113,0.045-0.221,0.097-0.333,0.148
		c-0.113,0.06-0.252,0.104-0.424,0.134c-0.049,0.031-0.113,0.057-0.19,0.071c-0.08,0.018-0.143,0.038-0.19,0.069
		c-0.08,0.019-0.15,0.04-0.212,0.071c-0.065,0.031-0.119,0.049-0.167,0.049c-0.062,0-0.105-0.009-0.131-0.023
		c-0.023-0.018-0.068-0.038-0.13-0.068c-0.079,0.03-0.197,0.068-0.353,0.113c-0.157,0.049-0.255,0.118-0.285,0.217
		c-0.046,0.03-0.066,0.078-0.056,0.141c0.006,0.061,0.01,0.12,0.01,0.163c-0.046,0.317-0.126,0.617-0.236,0.9
		c-0.11,0.285-0.229,0.556-0.358,0.808c-0.126,0.249-0.25,0.497-0.378,0.743c-0.125,0.243-0.235,0.494-0.333,0.747
		c0.08,0.029,0.133,0.009,0.154-0.071c0.025-0.081,0.053-0.15,0.084-0.211c-0.018,0.22-0.07,0.435-0.167,0.646
		c-0.092,0.213-0.132,0.454-0.117,0.725c0.82-0.177,1.736-0.336,2.747-0.487c1.009-0.148,2.058-0.192,3.147-0.132
		c0.631,0.031,1.212,0.111,1.751,0.239c0.172,0.047,0.385,0.109,0.626,0.189c0.245,0.079,0.476,0.173,0.699,0.282
		c0.156,0.08,0.368,0.186,0.629,0.322c0.26,0.132,0.396,0.238,0.414,0.315c0.031,0.05,0.034,0.071,0.009,0.071
		c-0.022,0-0.043,0.009-0.058,0.027c0,0.013-0.003,0.058-0.013,0.127c-0.007,0.071-0.018,0.134-0.034,0.177
		c-0.031,0.036-0.103,0.061-0.212,0.085c-0.111,0.026-0.221,0.035-0.331,0.035c-0.3,0.03-0.635,0.043-1.006,0.034
		c-0.372-0.004-0.7-0.004-0.982,0.014c-0.128,0.018-0.29,0.022-0.485,0.022c-0.199,0-0.367,0.018-0.509,0.049
		c-0.126-0.031-0.258-0.036-0.391-0.014c-0.135,0.025-0.266,0.031-0.39,0.014c-0.113,0-0.22,0.018-0.32,0.047
		c-0.101,0.031-0.186,0.062-0.25,0.093c-0.046-0.03-0.095-0.057-0.141-0.079c-0.046-0.026-0.104-0.04-0.165-0.04
		c-0.031-0.012-0.076-0.003-0.132,0.026c-0.054,0.031-0.122,0.05-0.199,0.05c-0.063,0-0.12-0.014-0.167-0.036
		c-0.047-0.026-0.086-0.04-0.119-0.04c-0.062,0.018-0.111,0.045-0.141,0.085c-0.031,0.04-0.08,0.069-0.141,0.084
		c-0.129,0.048-0.249,0.065-0.366,0.057c-0.12-0.003-0.224,0.022-0.322,0.083c-0.013-0.061,0-0.083,0.048-0.071
		c0.05,0.018,0.062-0.007,0.05-0.068c-0.129,0-0.258,0.021-0.395,0.068c-0.13,0.051-0.264,0.104-0.387,0.169
		c-0.096,0.031-0.167,0.045-0.215,0.045c-0.048,0-0.158,0.009-0.333,0.026c-0.044,0.013-0.086,0.039-0.119,0.07
		c-0.03,0.031-0.07,0.052-0.116,0.069c-0.22,0.08-0.49,0.134-0.806,0.168c-0.221,0.062-0.444,0.12-0.675,0.177
		c-0.229,0.053-0.484,0.089-0.766,0.106c-0.08,0.11-0.104,0.229-0.074,0.352c0.034,0.129,0.034,0.248,0,0.357
		c0,0.048-0.006,0.085-0.024,0.107c-0.015,0.021-0.03,0.061-0.046,0.105c-0.017,0.096-0.034,0.186-0.046,0.272
		c-0.018,0.089-0.024,0.186-0.024,0.296c-0.033,0.08-0.068,0.163-0.11,0.247c-0.039,0.088-0.074,0.194-0.104,0.321
		c-0.049,0.238-0.081,0.467-0.094,0.698c-0.018,0.229-0.04,0.476-0.073,0.744c0.015,0.031,0.033,0.04,0.046,0.028
		c0.018-0.02,0.034-0.036,0.061-0.062c0.024-0.024,0.047-0.04,0.071-0.051c0.022-0.003,0.036,0.006,0.036,0.042
		c0.03,0.109,0.026,0.219-0.014,0.329c-0.04,0.111-0.076,0.221-0.105,0.332c-0.015,0.062-0.015,0.122,0.012,0.176
		c0.024,0.058,0.036,0.114,0.036,0.176c-0.033,0.097-0.062,0.194-0.097,0.296c-0.031,0.106-0.061,0.21-0.093,0.321
		c0,0.19,0.019,0.379,0.059,0.568c0.039,0.19,0.052,0.362,0.034,0.521c-0.031,0.031-0.058,0.075-0.082,0.127
		c-0.023,0.059-0.036,0.103-0.036,0.134c-0.033,0.079-0.015,0.162,0.047,0.26c0.064,0.092,0.079,0.202,0.048,0.329
		c-0.048,0.016-0.116,0.016-0.202-0.012c-0.086-0.021-0.162-0.058-0.225-0.106c-0.046,0-0.074,0.023-0.081,0.058
		c-0.009,0.04-0.029,0.061-0.062,0.061c-0.267-0.206-0.457-0.498-0.567-0.875c-0.111-0.38-0.19-0.771-0.237-1.183
		c-0.03-0.222-0.06-0.42-0.08-0.592c-0.024-0.176-0.006-0.356,0.056-0.546c0-0.03-0.003-0.045-0.012-0.045
		c-0.006,0-0.018,0.006-0.036,0.009c-0.015,0.009-0.033,0.015-0.044,0.015c-0.018,0-0.018-0.023,0-0.071
		c0.029-0.049,0.026-0.074-0.014-0.084c-0.04-0.008-0.05-0.043-0.036-0.105c0-0.031,0.017-0.054,0.049-0.057
		c0.029-0.011,0.062-0.045,0.092-0.111c0-0.031-0.006-0.075-0.022-0.128c-0.016-0.058-0.016-0.114,0-0.176
		c-0.029-0.128-0.034-0.256-0.013-0.393c0.024-0.133,0.054-0.278,0.084-0.436c0-0.411,0.014-0.834,0.036-1.268
		c0.024-0.437,0.034-0.816,0.034-1.15c0.031-0.093,0.06-0.181,0.084-0.26c0.022-0.075,0.017-0.15-0.013-0.213
		c-0.015-0.06-0.05-0.104-0.105-0.126c-0.055-0.027-0.123-0.071-0.2-0.133c-0.146-0.129-0.276-0.266-0.404-0.415
		c-0.126-0.15-0.231-0.336-0.306-0.555c0.154,0.08,0.354,0.136,0.589,0.176s0.417,0.022,0.544-0.058
		c0.126-0.979,0.273-1.888,0.437-2.722c0.169-0.837,0.344-1.697,0.534-2.578c-0.362,0-0.781-0.007-1.255-0.014
		c-0.474-0.009-0.954-0.043-1.444-0.105c-0.077-0.018-0.196-0.092-0.352-0.226c-0.16-0.137-0.279-0.243-0.357-0.322
		c-0.046-0.074-0.093-0.149-0.141-0.224c-0.05-0.071-0.111-0.146-0.19-0.226c-0.062-0.074-0.122-0.146-0.176-0.199
		c-0.058-0.056-0.114-0.124-0.178-0.201c0.033-0.05,0.1-0.054,0.2-0.024c0.104,0.033,0.202,0.051,0.294,0.051
		c0.16-0.018,0.33-0.062,0.514-0.134c0.181-0.071,0.341-0.146,0.483-0.226c0.333-0.127,0.638-0.26,0.923-0.4
		c0.285-0.141,0.6-0.285,0.948-0.428c0.076-0.031,0.159-0.056,0.247-0.084c0.087-0.022,0.17-0.048,0.249-0.079
		c0.078-0.029,0.156-0.074,0.236-0.134c0.08-0.052,0.141-0.083,0.19-0.083c0.029-0.029,0.053-0.038,0.071-0.021
		c0.015,0.019,0.038,0.021,0.069,0.021c0.079-0.029,0.14-0.065,0.18-0.104c0.036-0.041,0.074-0.065,0.104-0.085
		c0.047-0.03,0.077-0.034,0.083-0.009c0.009,0.023,0.028,0.035,0.062,0.035c0.108-0.018,0.215-0.057,0.317-0.118
		s0.202-0.119,0.294-0.168c0.098-0.043,0.199-0.088,0.309-0.128s0.221-0.083,0.331-0.132c0.207-0.08,0.42-0.146,0.64-0.199
		c0.22-0.056,0.441-0.104,0.664-0.154c0.457-0.172,0.93-0.309,1.42-0.4c0.487-0.098,0.961-0.151,1.42-0.169
		c0.616,0,1.233,0.015,1.859,0.035c0.622,0.024,1.226,0.094,1.808,0.204c0.317,0.063,0.627,0.146,0.935,0.247
		c0.309,0.102,0.597,0.211,0.864,0.32c0.129,0.062,0.27,0.143,0.427,0.235c0.157,0.098,0.267,0.198,0.333,0.309
		c0.062,0.062,0.116,0.166,0.154,0.309s0.042,0.234,0.012,0.281c-0.018,0.05-0.044,0.099-0.083,0.143
		c-0.039,0.048-0.061,0.11-0.061,0.19c-0.013,0.047-0.007,0.105,0.025,0.166c0.031,0.062,0.044,0.119,0.044,0.163
		c-0.013,0.048-0.07,0.134-0.163,0.252c-0.098,0.119-0.167,0.185-0.214,0.198c-0.125,0.129-0.306,0.216-0.543,0.261
		c-0.08,0.049-0.165,0.092-0.249,0.132C99.881,206.428,99.795,206.434,99.718,206.402z M89.92,211.324
		c0.034,0.029,0.061,0.017,0.082-0.037c0.026-0.057,0.015-0.083-0.036-0.083C89.966,211.222,89.954,211.262,89.92,211.324z
		 M90.325,210.375c0.03,0,0.042,0.035,0.034,0.106s-0.043,0.083-0.105,0.034c0-0.043,0.012-0.076,0.045-0.079
		C90.331,210.428,90.337,210.405,90.325,210.375z"/>
	<path fill="#D2B0B0" d="M112.236,215.795c0,0.079-0.018,0.168-0.058,0.26c-0.04,0.098-0.09,0.199-0.153,0.309
		c-0.062,0.11-0.13,0.211-0.202,0.309c-0.071,0.092-0.122,0.163-0.154,0.211c-0.095,0.172-0.26,0.397-0.496,0.662
		c-0.237,0.27-0.467,0.486-0.688,0.64c-0.047,0.049-0.092,0.104-0.141,0.176c-0.049,0.074-0.093,0.125-0.141,0.155
		c-0.08,0.035-0.145,0.08-0.202,0.145c-0.056,0.062-0.116,0.11-0.176,0.143c-0.064,0.048-0.111,0.083-0.141,0.104
		c-0.034,0.023-0.08,0.066-0.144,0.129c-0.033,0.017-0.071,0.022-0.117,0.013c-0.047-0.009-0.087,0.004-0.119,0.036
		c-0.018,0.029-0.024,0.061-0.024,0.083c0,0.021-0.006,0.045-0.025,0.057c-0.458,0.366-0.908,0.591-1.349,0.675
		c-0.442,0.089-0.797,0.142-1.062,0.154c-0.57,0-1.054-0.04-1.456-0.118c-0.405-0.08-0.737-0.222-0.996-0.423
		c-0.261-0.208-0.457-0.485-0.592-0.843c-0.132-0.354-0.206-0.799-0.224-1.336c-0.08-0.08-0.145-0.08-0.202,0
		c-0.055,0.08-0.113,0.14-0.178,0.189c-0.062,0.093-0.15,0.211-0.261,0.353c-0.11,0.146-0.23,0.286-0.365,0.429
		c-0.134,0.141-0.276,0.272-0.426,0.392c-0.15,0.115-0.298,0.186-0.439,0.198c-0.203,0.03-0.436,0.005-0.696-0.083
		c-0.26-0.084-0.501-0.169-0.724-0.247c-0.22-0.111-0.374-0.239-0.46-0.38c-0.086-0.142-0.193-0.322-0.321-0.542
		c0.062-0.08,0.089-0.194,0.071-0.344c-0.015-0.148,0.031-0.235,0.143-0.247c0.033-0.098,0.025-0.16-0.024-0.189
		c-0.047-0.03-0.062-0.099-0.047-0.19c0.237-0.397,0.457-0.785,0.664-1.172c0.205-0.389,0.455-0.725,0.756-1.006
		c0.22-0.19,0.428-0.362,0.616-0.52c0.172-0.129,0.335-0.24,0.486-0.333c0.15-0.096,0.247-0.136,0.295-0.118
		c0.141-0.018,0.264-0.071,0.367-0.168c0.101-0.094,0.215-0.18,0.343-0.26c0.111-0.062,0.231-0.115,0.366-0.163
		c0.134-0.049,0.255-0.109,0.365-0.189c0.237,0.015,0.427,0.083,0.57,0.203c0.141,0.114,0.32,0.206,0.544,0.269
		c0.126-0.092,0.214-0.229,0.26-0.4c0.046-0.173,0.134-0.319,0.261-0.428c0.454-0.076,0.849-0.04,1.171,0.108
		c0.323,0.149,0.573,0.359,0.743,0.628c0.034,0.232,0.024,0.466-0.034,0.697c-0.052,0.229-0.127,0.457-0.224,0.687
		c-0.094,0.23-0.205,0.459-0.333,0.685c-0.125,0.229-0.234,0.463-0.33,0.7c-0.033,0.08-0.067,0.172-0.107,0.282
		c-0.039,0.109-0.074,0.211-0.105,0.309c-0.079,0.22-0.155,0.472-0.226,0.758c-0.073,0.283-0.107,0.583-0.107,0.901
		c0,0.172,0.023,0.353,0.07,0.543c0.047,0.187,0.119,0.347,0.213,0.47c0.205,0.079,0.392,0.12,0.557,0.12s0.322-0.023,0.473-0.071
		c0.148-0.049,0.298-0.115,0.448-0.201c0.148-0.086,0.313-0.178,0.485-0.271c0.144-0.098,0.254-0.167,0.334-0.216
		c0.077-0.045,0.145-0.093,0.199-0.142c0.055-0.049,0.111-0.094,0.167-0.141c0.052-0.049,0.128-0.11,0.224-0.19
		c0.033-0.029,0.053-0.071,0.071-0.118c0.013-0.049,0.042-0.083,0.071-0.119c0.031-0.015,0.062-0.029,0.092-0.044
		c0.033-0.019,0.065-0.031,0.098-0.05c0.125-0.109,0.286-0.25,0.484-0.426c0.196-0.173,0.402-0.353,0.614-0.544
		c0.216-0.188,0.418-0.37,0.617-0.547c0.196-0.172,0.356-0.312,0.484-0.423c0.111-0.098,0.212-0.154,0.309-0.176
		c0.093-0.025,0.172,0.004,0.234,0.078V215.795z M104.286,214.352c0.031,0,0.044-0.017,0.036-0.048
		c-0.009-0.029-0.05-0.048-0.127-0.048c-0.508,0.33-0.935,0.736-1.292,1.208c-0.354,0.473-0.696,0.962-1.028,1.47
		c0.362-0.129,0.675-0.34,0.935-0.642c0.261-0.3,0.499-0.568,0.723-0.807c0.141-0.171,0.287-0.348,0.438-0.528
		C104.117,214.775,104.223,214.574,104.286,214.352z"/>
	<path fill="#D2B0B0" d="M117.396,213.615c0.017,0.397-0.087,0.751-0.317,1.068s-0.432,0.567-0.604,0.757
		c-0.25-0.048-0.435-0.14-0.544-0.272c-0.113-0.133-0.23-0.265-0.354-0.393c-0.018-0.141-0.031-0.295-0.049-0.458
		c-0.016-0.168-0.079-0.313-0.188-0.44c-0.19,0-0.347,0.064-0.472,0.189c-0.129,0.128-0.239,0.255-0.333,0.379
		c-0.063,0.035-0.119,0.07-0.166,0.104c-0.047,0.042-0.12,0.103-0.212,0.182c-0.049,0.031-0.111,0.08-0.19,0.154
		c-0.079,0.071-0.141,0.146-0.19,0.226c-0.205,0.3-0.395,0.581-0.568,0.852c-0.125,0.202-0.243,0.422-0.353,0.66
		c-0.11,0.239-0.167,0.479-0.167,0.731c0,0.129,0.018,0.262,0.049,0.394c0.03,0.132,0.101,0.266,0.21,0.394
		c0.255,0.139,0.591,0.21,1.02,0.21c0.269,0,0.545-0.026,0.83-0.071c0.282-0.047,0.543-0.109,0.781-0.188
		c0.015,0.014,0.056,0.019,0.13,0.008c0.068-0.003,0.148-0.021,0.234-0.043c0.089-0.025,0.165-0.049,0.226-0.069
		c0.062-0.027,0.098-0.045,0.098-0.062c0.061,0.047,0.114,0.056,0.162,0.026c0.049-0.035,0.096-0.04,0.141-0.026
		c0.145-0.03,0.226-0.071,0.252-0.119c0.021-0.044,0.114-0.101,0.27-0.163c0.128,0.048,0.22,0.039,0.272-0.026
		c0.058-0.062,0.123-0.11,0.203-0.143c0.08-0.043,0.154-0.065,0.226-0.057s0.175-0.026,0.317-0.105c0.03,0,0.092-0.009,0.175-0.025
		c0.089-0.015,0.172-0.062,0.252-0.143c0.11-0.047,0.193-0.089,0.26-0.118c0.062-0.031,0.119-0.057,0.177-0.085
		c0.056-0.022,0.092-0.034,0.107-0.034c0.157-0.074,0.249-0.138,0.273-0.178c0.021-0.039,0.105-0.074,0.246-0.105
		c0.141-0.078,0.252-0.126,0.322-0.154c0.07-0.022,0.159-0.048,0.269-0.084c0.16-0.074,0.282-0.153,0.371-0.223
		c0.083-0.071,0.217-0.17,0.389-0.297c0.127-0.079,0.224-0.142,0.295-0.19c0.069-0.044,0.152-0.061,0.25-0.044
		c0.062,0.124,0.079,0.252,0.057,0.38c-0.021,0.124-0.122,0.3-0.295,0.519c-0.097,0.125-0.153,0.199-0.177,0.226
		c-0.025,0.024-0.07,0.077-0.13,0.151c-0.08,0.048-0.137,0.093-0.178,0.131c-0.039,0.042-0.097,0.085-0.175,0.129
		c-0.036,0.034-0.106,0.074-0.216,0.133c-0.11,0.056-0.193,0.106-0.261,0.154c0,0.012-0.061,0.026-0.188,0.035
		c-0.123,0.009-0.203,0.045-0.233,0.105c-0.033,0.031-0.094,0.088-0.181,0.168c-0.083,0.08-0.217,0.109-0.389,0.092
		c0.031,0.109-0.044,0.181-0.224,0.212c-0.183,0.034-0.306,0.079-0.367,0.147c-0.018,0.043-0.047,0.076-0.098,0.092
		c-0.03,0.016-0.062,0.021-0.092,0.021c-0.127,0.146-0.286,0.229-0.476,0.261c-0.186,0.036-0.343,0.099-0.472,0.188
		c-0.049,0-0.092,0.011-0.141,0.028c-0.08,0.079-0.154,0.131-0.226,0.162c-0.07,0.037-0.163,0.066-0.273,0.097
		c-0.11,0.062-0.211,0.112-0.309,0.142c-0.092,0.03-0.181,0.062-0.258,0.093c-0.269,0.146-0.603,0.229-1.006,0.264
		c-0.403,0.031-0.816,0.054-1.243,0.071c-0.552,0-1.055-0.106-1.514-0.309c-0.458-0.208-0.83-0.44-1.111-0.709
		c-0.08-0.19-0.186-0.371-0.319-0.548c-0.135-0.171-0.226-0.335-0.273-0.494c0.062-0.128,0.098-0.252,0.107-0.378
		c0.009-0.13,0.027-0.253,0.058-0.38c-0.013-0.094-0.001-0.204,0.034-0.331c0.042-0.128,0.076-0.26,0.108-0.4
		c0-0.065,0.025-0.134,0.071-0.204c0.046-0.069,0.084-0.146,0.119-0.224c0.034-0.033,0.06-0.094,0.082-0.19
		c0.024-0.093,0.054-0.167,0.083-0.213c0.032-0.079,0.071-0.157,0.119-0.237c0.047-0.081,0.102-0.158,0.166-0.238
		c0.077-0.074,0.126-0.149,0.141-0.21c0.016-0.062,0.055-0.134,0.12-0.214c0.03-0.017,0.059-0.025,0.08-0.034
		c0.025-0.011,0.053-0.025,0.084-0.062c0.061-0.075,0.114-0.16,0.154-0.247c0.04-0.088,0.122-0.168,0.247-0.246
		c0.049-0.177,0.08-0.271,0.096-0.287c0.062-0.044,0.129-0.08,0.199-0.093c0.074-0.019,0.134-0.059,0.178-0.121
		c0.018-0.029,0.03-0.069,0.037-0.118c0.007-0.048,0.028-0.083,0.058-0.119c0.08-0.078,0.16-0.121,0.239-0.141
		c0.077-0.014,0.15-0.054,0.212-0.119c0.061-0.03,0.114-0.084,0.154-0.154c0.04-0.069,0.074-0.118,0.105-0.155
		c0.031-0.029,0.076-0.043,0.131-0.043c0.055,0,0.068-0.048,0.034-0.142c0.065,0,0.163,0.01,0.299,0.036
		c0.131,0.021,0.273,0.048,0.422,0.08c0.151,0.034,0.293,0.068,0.429,0.108c0.132,0.04,0.24,0.075,0.316,0.106
		c0.08,0.014,0.178,0.049,0.288,0.105c0.11,0.054,0.227,0.098,0.353,0.128c0.08,0.035,0.157,0.06,0.237,0.071
		c0.08,0.018,0.159,0.04,0.237,0.074c0.033,0,0.067,0.026,0.107,0.08c0.039,0.058,0.057,0.101,0.057,0.132
		c0.033,0.031,0.062,0.049,0.084,0.049s0.049,0.005,0.084,0.021v0.071c0,0.05,0.021,0.071,0.07,0.071
		c0.079,0.099,0.159,0.142,0.248,0.142C117.259,213.546,117.335,213.572,117.396,213.615z"/>
	<path fill="#D2B0B0" d="M126.98,205.572c-0.062,0.22-0.159,0.445-0.285,0.674c-0.125,0.231-0.26,0.479-0.4,0.745
		c-0.096,0.234-0.194,0.491-0.296,0.76c-0.104,0.265-0.194,0.543-0.274,0.825c0.033,0.08,0.077,0.119,0.131,0.119
		c0.057,0,0.108-0.01,0.154-0.022c0.237,0.031,0.431,0.044,0.58,0.034c0.149-0.006,0.335-0.012,0.557-0.012
		c0.188,0.03,0.383,0.056,0.578,0.07c0.201,0.019,0.407,0.027,0.63,0.027c0.646,0.044,1.312,0.101,2,0.163
		c0.684,0.065,1.335,0.205,1.951,0.426c-0.078,0.031-0.114,0.058-0.106,0.085c0.007,0.021,0.021,0.064,0.037,0.127
		c-0.036,0.018-0.065,0.036-0.096,0.062c-0.032,0.021-0.064,0.018-0.095-0.012c-0.017,0.06-0.01,0.083,0.023,0.055
		c0.03-0.022,0.039-0.007,0.022,0.037c-0.237,0.017-0.478,0.017-0.721,0c-0.245-0.015-0.484-0.006-0.723,0.027
		c-0.128,0-0.243-0.007-0.354-0.016c-0.111-0.009-0.224,0.005-0.334,0.036c-0.17,0.018-0.357,0.026-0.557,0.035
		c-0.195,0.009-0.398-0.006-0.599-0.035c-0.271,0.029-0.525,0.056-0.771,0.083c-0.245,0.022-0.496,0.049-0.745,0.084
		c-0.065,0.014-0.144,0.014-0.238,0c-0.031,0.031-0.068,0.041-0.107,0.022c-0.04-0.018-0.074-0.022-0.105-0.022
		c-0.018,0-0.028,0.005-0.034,0.022c-0.01,0.019-0.021,0.021-0.038,0.021c-0.077,0.035-0.15,0.059-0.211,0.071
		c-0.065,0.018-0.128,0.026-0.189,0.026c-0.11-0.03-0.23-0.026-0.356,0.009c-0.125,0.04-0.229,0.071-0.309,0.083
		c-0.22-0.029-0.37-0.003-0.448,0.071c-0.032,0.048-0.098,0.16-0.202,0.335c-0.101,0.173-0.169,0.313-0.201,0.423
		c-0.03,0.079-0.054,0.142-0.068,0.19c-0.017,0.049-0.04,0.109-0.071,0.188c-0.048,0.129-0.08,0.243-0.095,0.354
		c-0.019,0.115-0.056,0.247-0.119,0.406c-0.033,0.092-0.064,0.163-0.095,0.212c-0.031,0.048-0.042,0.091-0.024,0.142
		c-0.033,0-0.042,0.029-0.022,0.096c0.015,0.062,0.03,0.11,0.046,0.142c-0.046,0.08-0.091,0.163-0.131,0.26
		c-0.04,0.093-0.065,0.203-0.083,0.33c-0.077,0.222-0.15,0.451-0.214,0.688c-0.062,0.234-0.133,0.473-0.213,0.71
		c0,0.044-0.021,0.111-0.07,0.189c-0.046,0.08-0.07,0.132-0.07,0.163c-0.015,0.128-0.033,0.253-0.049,0.38
		c-0.017,0.128-0.04,0.229-0.07,0.309c-0.047,0.128-0.067,0.238-0.06,0.343c0.009,0.103-0.026,0.186-0.106,0.248
		c-0.015,0.08-0.024,0.159-0.024,0.237c0,0.08-0.015,0.173-0.047,0.282c-0.033,0.08-0.048,0.188-0.048,0.323
		c0,0.131-0.031,0.259-0.095,0.388c-0.017,0.031-0.036,0.062-0.057,0.097c-0.025,0.032-0.036,0.053-0.036,0.071
		c0.015,0,0.021,0.004,0.021,0.021v0.071c-0.015,0.018-0.03,0.022-0.044,0.022c-0.017,0-0.025,0.009-0.025,0.026
		c-0.016-0.018-0.019,0.004-0.012,0.058c0.007,0.057,0.012,0.101,0.012,0.132s-0.009,0.031-0.023,0
		c-0.017-0.031-0.022-0.031-0.022,0c-0.049,0.11-0.074,0.242-0.084,0.402c-0.009,0.157-0.028,0.276-0.06,0.356l-0.046,0.044
		c0,0.065,0,0.133,0,0.202c0,0.071,0.015,0.146,0.046,0.226c-0.031,0.442-0.01,0.846,0.06,1.217
		c0.071,0.371,0.194,0.674,0.366,0.913c0.015,0.062,0.015,0.078,0,0.049c-0.015-0.036-0.022-0.019-0.022,0.044
		c0.095,0.11,0.179,0.22,0.26,0.331c0.077,0.108,0.205,0.15,0.376,0.119c0.128,0.031,0.247,0.022,0.356-0.036
		c0.11-0.053,0.205-0.126,0.285-0.224c0.033-0.031,0.05-0.074,0.059-0.128c0.01-0.06,0.051-0.106,0.131-0.155
		c0.062,0.078,0.068,0.155,0.012,0.226c-0.058,0.069-0.083,0.127-0.083,0.176c-0.031,0.03-0.05,0.062-0.06,0.099
		c-0.009,0.029-0.021,0.043-0.035,0.043c-0.033,0.066-0.111,0.127-0.237,0.188c-0.033,0.08-0.088,0.151-0.165,0.217
		c-0.079,0.062-0.173,0.142-0.283,0.234c-0.08,0.047-0.146,0.092-0.202,0.132c-0.057,0.04-0.154,0.075-0.297,0.105
		c-0.314,0.08-0.647,0.035-0.993-0.131c-0.349-0.165-0.624-0.357-0.83-0.579c-0.047-0.062-0.074-0.114-0.083-0.154
		c-0.006-0.038-0.05-0.124-0.131-0.246c0-0.08-0.026-0.163-0.08-0.252c-0.056-0.083-0.125-0.16-0.205-0.226
		c-0.015-0.061-0.034-0.128-0.057-0.199c-0.023-0.069-0.028-0.14-0.013-0.201c-0.031-0.081-0.061-0.168-0.082-0.273
		c-0.024-0.103-0.05-0.194-0.083-0.271c0-0.145-0.021-0.309-0.061-0.497c-0.037-0.189-0.065-0.37-0.08-0.547
		c-0.034-0.173-0.049-0.348-0.049-0.528c0-0.182,0-0.362,0-0.534c0-0.031-0.012-0.067-0.036-0.107
		c-0.024-0.038-0.027-0.074-0.012-0.104c0-0.031,0.007-0.062,0.025-0.084c0.015-0.021,0.015-0.053,0-0.084
		c0.094-0.123,0.117-0.211,0.071-0.26c-0.034-0.061-0.025-0.203,0.022-0.428c0.047-0.221,0.086-0.402,0.119-0.543
		c0-0.078,0.015-0.146,0.047-0.202c0.033-0.053,0.039-0.12,0.022-0.198c0.049-0.097,0.068-0.248,0.059-0.45
		c-0.006-0.207,0.013-0.349,0.061-0.429c0.015-0.047,0.039-0.108,0.07-0.188c0.031-0.08,0.049-0.132,0.049-0.163
		c0.061-0.221,0.11-0.393,0.141-0.512c0.031-0.114,0.079-0.248,0.141-0.388c-0.031,0.03-0.09,0.122-0.176,0.282
		c-0.086,0.157-0.154,0.26-0.201,0.309h-0.144c0.016,0.03,0.025,0.071,0.025,0.119c-0.08,0.124-0.16,0.255-0.249,0.389
		c-0.086,0.137-0.153,0.264-0.202,0.392c0-0.143,0.057-0.309,0.167-0.499c0-0.061,0.015-0.141,0.049-0.234
		c0.03-0.035,0.058-0.065,0.08-0.095c0.025-0.032,0.028-0.062,0.013-0.094c0.031-0.035,0.043-0.069,0.036-0.111
		c-0.009-0.034-0.004-0.069,0.012-0.104c0-0.031,0.015-0.045,0.047-0.045s0.047-0.017,0.047-0.049
		c0.03-0.017,0.034-0.034,0.009-0.06c-0.021-0.023-0.023-0.04-0.009-0.06c0.03-0.029,0.06-0.052,0.083-0.057
		c0.022-0.009,0.027-0.035,0.012-0.083c0.015-0.032,0.023-0.071,0.023-0.118c0-0.051,0.006-0.098,0.021-0.143
		c-0.015-0.029-0.01-0.062,0.013-0.083c0.025-0.023,0.037-0.058,0.037-0.107c0.03-0.047,0.044-0.101,0.044-0.166
		c0.015-0.031,0.039-0.06,0.06-0.084c0.025-0.022,0.036-0.05,0.036-0.079c0.016-0.051,0.021-0.089,0.015-0.12
		c-0.01-0.031-0.015-0.061-0.015-0.097c0-0.013,0.015-0.035,0.036-0.056c0.025-0.024,0.044-0.077,0.059-0.156
		c0.034-0.061,0.04-0.123,0.024-0.177c-0.015-0.057-0.007-0.097,0.025-0.131c0.031-0.032,0.062-0.067,0.093-0.106
		c0.033-0.04,0.047-0.083,0.047-0.128c0.015-0.08,0.021-0.136,0.015-0.167c-0.01-0.031,0-0.088,0.033-0.165
		c0.032-0.065,0.068-0.104,0.106-0.119c0.039-0.018,0.065-0.038,0.082-0.07c0.018-0.017,0.018-0.039,0-0.074
		c-0.017-0.03-0.017-0.062,0-0.093c0.049-0.049,0.072-0.061,0.072-0.049c0.03-0.043,0.042-0.092,0.036-0.141
		c-0.009-0.048-0.013-0.088-0.013-0.119s0.04-0.071,0.12-0.118c-0.033-0.033-0.042-0.062-0.025-0.092
		c0.015-0.033,0.032-0.05,0.049-0.05c0.03-0.123,0.065-0.221,0.104-0.283c0.042-0.062,0.068-0.137,0.086-0.211
		c-0.018,0-0.015-0.004,0.009-0.013c0.025-0.009-0.083,0.018-0.317,0.083c-0.252,0.013-0.497,0.028-0.736,0.035
		c-0.234,0.011-0.464,0.036-0.686,0.08c-0.314-0.013-0.62-0.019-0.92-0.009c-0.301,0.009-0.561-0.028-0.783-0.106
		c-0.062,0-0.128-0.008-0.19-0.025c-0.061-0.015-0.14-0.04-0.236-0.071c-0.141-0.08-0.271-0.146-0.39-0.199
		c-0.119-0.056-0.231-0.148-0.344-0.272c-0.095-0.062-0.191-0.128-0.297-0.19c-0.099-0.062-0.169-0.132-0.199-0.21
		c-0.031-0.036-0.05-0.076-0.059-0.119c-0.008-0.051-0.012-0.089-0.012-0.12c0.174,0.031,0.34,0.025,0.496-0.014
		c0.16-0.038,0.301-0.083,0.426-0.127c0.287-0.128,0.595-0.217,0.925-0.273c0.331-0.058,0.654-0.123,0.97-0.202
		c0.568-0.077,1.125-0.142,1.669-0.189c0.544-0.045,1.146-0.062,1.809-0.045c0.157-0.018,0.216-0.022,0.178-0.015
		c-0.042,0.011-0.036-0.003,0.012-0.034c0.047-0.02,0.076-0.049,0.083-0.092c0.007-0.049,0.027-0.106,0.059-0.168
		c0.015-0.08,0.043-0.134,0.083-0.169c0.037-0.029,0.081-0.061,0.131-0.092c0.015-0.03,0.021-0.061,0.021-0.097
		c0-0.031,0.009-0.061,0.024-0.094c0-0.018,0.021-0.035,0.061-0.056c0.04-0.027,0.065-0.054,0.083-0.084
		c-0.033-0.062-0.049-0.102-0.049-0.12l0.071-0.069c0.159-0.128,0.245-0.239,0.261-0.331c0.19-0.349,0.434-0.749,0.733-1.209
		c0.065-0.079,0.115-0.166,0.154-0.26c0.04-0.097,0.091-0.159,0.154-0.19c0.047-0.061,0.083-0.105,0.106-0.126
		c0.024-0.026,0.045-0.062,0.06-0.112c0.029-0.012,0.054-0.039,0.069-0.079c0.017-0.04,0.025-0.069,0.025-0.083
		c0-0.111,0.077-0.128,0.236-0.049c0.031,0,0.051-0.014,0.06-0.036c0.006-0.021,0.019-0.018,0.034,0.014
		c0.064,0,0.106-0.007,0.13-0.025c0.025-0.015,0.065-0.022,0.131-0.022c0.015,0,0.048,0.014,0.095,0.034
		c0.048,0.022,0.096,0.036,0.142,0.036c0.032,0.031,0.069,0.066,0.108,0.106c0.038,0.039,0.096,0.083,0.175,0.133h0.049v0.043
		c0.046,0.035,0.091,0.058,0.131,0.075C126.915,205.445,126.949,205.492,126.98,205.572z"/>
	<path fill="#D2B0B0" d="M137.513,215.534c0.032,0.429-0.048,0.807-0.239,1.138c-0.109,0.092-0.154,0.137-0.129,0.128
		c0.023-0.005-0.02,0.022-0.129,0.083c-0.082,0.032-0.154,0.08-0.226,0.143c-0.071,0.065-0.16,0.118-0.271,0.168
		c-0.223,0.078-0.409,0.132-0.567,0.161c-0.157,0.036-0.332,0.107-0.523,0.217c-0.14,0.045-0.294,0.074-0.46,0.08
		c-0.166,0.009-0.334,0.043-0.508,0.11c-0.237,0.062-0.435,0.089-0.59,0.08c-0.159-0.006-0.351-0.036-0.568-0.08
		c-0.017,0-0.062,0.044-0.133,0.127c-0.069,0.089-0.129,0.146-0.178,0.177c-0.048,0.066-0.091,0.123-0.129,0.181
		c-0.042,0.053-0.058,0.088-0.058,0.105c-0.065,0.08-0.1,0.116-0.108,0.105c-0.008-0.007-0.021,0.005-0.036,0.037
		c-0.046,0.11-0.138,0.206-0.272,0.28c-0.133,0.08-0.256,0.159-0.367,0.239c-0.029,0.029-0.055,0.057-0.071,0.083
		c-0.015,0.023-0.04,0.045-0.069,0.058c-0.015,0.031-0.04,0.053-0.071,0.062c-0.032,0.008-0.062,0.025-0.095,0.058
		c-0.062,0.048-0.104,0.087-0.129,0.119c-0.024,0.029-0.05,0.057-0.07,0.069c-0.025,0.019-0.06,0.031-0.108,0.05
		c-0.047,0.012-0.117,0.047-0.212,0.092c-0.08,0.049-0.19,0.092-0.334,0.132c-0.14,0.04-0.295,0.071-0.46,0.094
		c-0.166,0.025-0.332,0.038-0.497,0.047c-0.165,0.01-0.304-0.003-0.414-0.034c-0.108-0.03-0.221-0.084-0.331-0.155
		c-0.112-0.07-0.203-0.137-0.283-0.202c-0.331-0.282-0.641-0.62-0.926-1.015c-0.283-0.396-0.41-0.877-0.377-1.445
		c0.032-0.125,0.049-0.252,0.049-0.38c0-0.123,0.008-0.225,0.023-0.305c0.03-0.03,0.06-0.061,0.096-0.084
		c0.029-0.025,0.061-0.074,0.093-0.153c0.015-0.031,0.022-0.071,0.022-0.12c0-0.047,0.008-0.083,0.025-0.118
		c0.015-0.045,0.038-0.083,0.068-0.119c0.034-0.031,0.057-0.071,0.071-0.115c0.034-0.048,0.044-0.097,0.037-0.146
		c-0.009-0.045-0.003-0.083,0.012-0.114c0.031-0.079,0.074-0.146,0.131-0.203c0.055-0.057,0.099-0.097,0.13-0.133
		c0.03-0.074,0.049-0.144,0.059-0.211c0.007-0.062,0.027-0.118,0.061-0.163c0.062-0.158,0.111-0.266,0.141-0.321
		c0.03-0.054,0.11-0.146,0.236-0.273c0.08-0.077,0.138-0.134,0.18-0.163c0.038-0.033,0.118-0.033,0.247,0
		c0.079,0.014,0.134-0.005,0.167-0.062c0.029-0.054,0.046-0.109,0.046-0.175c0.029-0.143,0.074-0.234,0.13-0.274
		c0.054-0.036,0.084-0.067,0.084-0.079c-0.064-0.098-0.145-0.143-0.239-0.134s-0.181-0.012-0.26-0.056
		c-0.046-0.128-0.057-0.293-0.022-0.499c0.362,0.018,0.763,0,1.196-0.048c0.432-0.044,0.84-0.032,1.217,0.048
		c0.188,0.018,0.368,0.054,0.532,0.105c0.167,0.058,0.336,0.105,0.511,0.154c0.234,0.079,0.437,0.19,0.602,0.331
		c0.167,0.141,0.314,0.317,0.438,0.52c0.08,0.098,0.16,0.164,0.25,0.204c0.084,0.039,0.145,0.146,0.175,0.317
		c0.031,0.065,0.065,0.233,0.095,0.511c0.031,0.273,0.026,0.508-0.022,0.697c-0.029,0.173-0.066,0.322-0.106,0.437
		c-0.039,0.119-0.082,0.229-0.131,0.331c-0.044,0.105-0.1,0.212-0.152,0.322c-0.057,0.109-0.107,0.241-0.153,0.4
		c0.203,0.018,0.38,0.026,0.53,0.035c0.151,0.01,0.292,0.005,0.426-0.009c0.137-0.018,0.266-0.04,0.392-0.074
		c0.128-0.031,0.283-0.071,0.472-0.115c0.206-0.049,0.382-0.097,0.523-0.146c0.142-0.045,0.268-0.098,0.377-0.148
		c0.111-0.06,0.217-0.116,0.321-0.183c0.102-0.061,0.226-0.141,0.366-0.232c0.078-0.05,0.134-0.099,0.165-0.146
		c0.032-0.045,0.061-0.09,0.083-0.128c0.025-0.04,0.05-0.085,0.081-0.134C137.379,215.631,137.433,215.583,137.513,215.534z
		 M130.626,218.233c0.14-0.08,0.273-0.168,0.391-0.262c0.117-0.096,0.263-0.277,0.438-0.541c-0.38-0.19-0.704-0.432-0.972-0.723
		c-0.269-0.291-0.505-0.622-0.709-0.984c-0.018,0.019-0.03,0.022-0.036,0.022c-0.009,0-0.019,0.009-0.038,0.026
		c-0.123,0.11-0.245,0.265-0.354,0.459c-0.108,0.197-0.199,0.414-0.271,0.651c-0.068,0.239-0.119,0.478-0.153,0.725
		c-0.031,0.243-0.031,0.476,0,0.697c0.049,0.172,0.159,0.286,0.332,0.343c0.173,0.053,0.316,0.075,0.427,0.058
		c0.142-0.031,0.31-0.098,0.509-0.199C130.384,218.4,130.529,218.313,130.626,218.233z M132.236,214.375
		c-0.065-0.123-0.16-0.252-0.287-0.38c-0.062-0.062-0.124-0.118-0.189-0.163c-0.046-0.08-0.148-0.154-0.305-0.226
		c-0.158-0.071-0.293-0.146-0.403-0.224c-0.08-0.031-0.208-0.053-0.378-0.062c-0.174-0.005-0.284-0.008-0.333-0.008
		c0.126,0.122,0.18,0.282,0.165,0.472c-0.015,0.19-0.006,0.371,0.023,0.542c0.176,0.018,0.296,0.074,0.37,0.181
		c0.069,0.103,0.104,0.239,0.104,0.414c-0.016,0.062-0.07,0.083-0.164,0.071c-0.097-0.018-0.166,0-0.214,0.043
		c0.029,0.114,0.043,0.226,0.032,0.346c-0.007,0.119,0.006,0.233,0.037,0.343c0.016,0.031,0.045,0.059,0.085,0.071
		c0.039,0.017,0.063,0.057,0.08,0.119c0.032,0.049,0.061,0.094,0.085,0.132c0.023,0.04,0.043,0.074,0.059,0.106
		c0.127,0.173,0.25,0.325,0.367,0.457c0.118,0.137,0.28,0.244,0.483,0.324c0.145-0.239,0.286-0.5,0.426-0.781
		c0.145-0.287,0.159-0.609,0.049-0.97c0.11-0.08,0.131-0.204,0.059-0.371C132.319,214.648,132.266,214.503,132.236,214.375z"/>
	<path fill="#D2B0B0" d="M140.378,213.734c0.077,0.158,0.205,0.24,0.376,0.24c0.175,0,0.323,0.029,0.45,0.092
		c0.079,0.048,0.148,0.092,0.213,0.132c0.062,0.04,0.127,0.094,0.191,0.153c0.109,0,0.189,0.032,0.235,0.094l0.049,0.049
		c0,0.018,0.005,0.029,0.021,0.047c0.095,0.045,0.155,0.099,0.178,0.154c0.025,0.054,0.076,0.139,0.154,0.248
		c0.048,0.031,0.086,0.058,0.119,0.085c0.029,0.021,0.068,0.047,0.117,0.083c-0.031,0.172-0.009,0.286,0.06,0.34
		c0.07,0.058,0.146,0.109,0.226,0.154c-0.079,0.109-0.15,0.224-0.214,0.343c-0.064,0.118-0.136,0.217-0.211,0.297
		c-0.049,0.188-0.105,0.397-0.169,0.617c-0.062,0.22-0.134,0.418-0.211,0.591c0,0.012-0.021,0.038-0.06,0.07
		c-0.04,0.03-0.068,0.057-0.084,0.07c-0.062,0.141-0.107,0.301-0.13,0.472c-0.021,0.177-0.05,0.357-0.081,0.548
		c-0.08,0.312-0.159,0.664-0.239,1.054c-0.077,0.383-0.086,0.783-0.021,1.194c0.029,0.141,0.061,0.292,0.095,0.449
		c0.029,0.154,0.085,0.282,0.165,0.38l0.023,0.071c0.062,0.043,0.126,0.071,0.188,0.071c0.064,0,0.109,0.012,0.144,0.043
		c0.062,0.065,0.077,0.105,0.046,0.119c-0.031,0.018-0.017,0.066,0.049,0.141c0.172,0.018,0.336,0.005,0.484-0.035
		c0.149-0.039,0.312-0.065,0.486-0.079c-0.113,0.123-0.245,0.225-0.403,0.295c-0.157,0.071-0.3,0.119-0.426,0.154
		c-0.441,0.074-0.861,0.039-1.254-0.118c-0.396-0.159-0.682-0.371-0.854-0.642c-0.046-0.047-0.094-0.148-0.141-0.309
		c-0.048-0.157-0.087-0.269-0.119-0.329c-0.031-0.08-0.06-0.151-0.083-0.212c-0.025-0.067-0.043-0.139-0.061-0.216
		c-0.062-0.189-0.102-0.397-0.116-0.626c-0.017-0.229-0.023-0.46-0.023-0.697c0-0.38,0.023-0.771,0.071-1.172
		c0.047-0.402,0.114-0.796,0.2-1.17c0.089-0.38,0.183-0.735,0.285-1.066c0.101-0.331,0.207-0.617,0.317-0.851
		c-0.03-0.131-0.103-0.208-0.213-0.239c-0.111-0.03-0.212-0.084-0.307-0.163c-0.063,0-0.11-0.013-0.14-0.035
		c-0.035-0.026-0.065-0.052-0.097-0.085c-0.032-0.029-0.06-0.057-0.084-0.068c-0.024-0.019-0.059-0.01-0.104,0.021
		c-0.095,0.127-0.16,0.212-0.191,0.261c-0.032,0.048-0.062,0.092-0.093,0.131c-0.033,0.041-0.064,0.08-0.097,0.128
		c-0.03,0.05-0.095,0.129-0.19,0.237c-0.029,0.046-0.12,0.12-0.269,0.213c-0.151,0.097-0.234,0.157-0.251,0.19
		c-0.063,0.172-0.141,0.282-0.235,0.329c-0.095,0.049-0.205,0.137-0.332,0.262c-0.143,0.176-0.275,0.29-0.402,0.355
		c-0.125,0.062-0.274,0.154-0.448,0.282c-0.632,0.032-0.947-0.048-0.947-0.237c0.205-0.172,0.401-0.331,0.593-0.472
		c0.188-0.142,0.323-0.269,0.4-0.379c0.172-0.203,0.288-0.335,0.343-0.389c0.057-0.058,0.146-0.155,0.274-0.295
		c0.092-0.098,0.166-0.172,0.225-0.226c0.053-0.057,0.167-0.185,0.342-0.392c0.11-0.159,0.18-0.265,0.214-0.318
		c0.031-0.056,0.085-0.154,0.165-0.299c-0.032-0.045-0.074-0.093-0.131-0.143c-0.053-0.043-0.115-0.093-0.178-0.14
		c-0.046-0.062-0.076-0.098-0.082-0.107c-0.009-0.009-0.013-0.018-0.013-0.021c0-0.009,0-0.026,0-0.051s-0.016-0.083-0.046-0.175
		c0-0.018-0.025-0.049-0.071-0.098c-0.05-0.048-0.071-0.079-0.071-0.092c-0.017-0.11-0.017-0.243,0-0.392
		c0.016-0.151,0.037-0.3,0.058-0.451c0.026-0.15,0.057-0.291,0.095-0.423c0.04-0.139,0.076-0.242,0.108-0.322
		c0.048-0.19,0.132-0.41,0.26-0.662c0.017-0.017,0.043-0.025,0.083-0.025c0.039,0,0.06-0.004,0.06-0.022
		c0.014-0.03,0.02-0.058,0.011-0.083c-0.007-0.021-0.011-0.044-0.011-0.059c0-0.017,0.022-0.021,0.069-0.021
		c0.017,0,0.039,0.005,0.071,0.021c0.017-0.03,0.017-0.06,0-0.083c-0.016-0.021-0.016-0.036,0-0.036
		c0.017-0.012,0.039-0.029,0.073-0.048c0.031-0.013,0.044-0.029,0.044-0.044c0.031-0.08,0.088-0.166,0.166-0.26
		c0.079-0.097,0.174-0.199,0.285-0.309c0.08-0.08,0.214-0.217,0.405-0.414c0.188-0.199,0.335-0.335,0.446-0.415
		c0.033-0.03,0.074-0.048,0.133-0.048c0.055,0,0.105-0.032,0.151-0.094c0.015,0,0.034-0.004,0.049-0.013
		c0.015-0.01,0.04,0.013,0.071,0.056c0.14,0.147,0.295,0.266,0.46,0.357c0.166,0.094,0.312,0.213,0.439,0.354
		c0,0.097,0.015,0.147,0.046,0.147c0.034,0.55,0,1.013-0.096,1.392c-0.095,0.38-0.212,0.767-0.353,1.16
		c-0.08,0.255-0.191,0.489-0.331,0.709C140.638,213.246,140.501,213.484,140.378,213.734z M140.188,211.11
		c-0.033,0.154-0.091,0.306-0.179,0.438c-0.087,0.133-0.175,0.269-0.261,0.402c-0.085,0.137-0.157,0.28-0.212,0.437
		c-0.057,0.157-0.059,0.335-0.013,0.52c0.125-0.296,0.26-0.57,0.404-0.816c0.14-0.242,0.26-0.485,0.354-0.718
		c0.029-0.048,0.061-0.11,0.095-0.182c0.03-0.071,0.03-0.137,0-0.198c-0.018,0.044-0.044,0.071-0.085,0.071
		C140.253,211.063,140.218,211.075,140.188,211.11z"/>
	<path fill="#D2B0B0" d="M147.973,213.404c0.078,0.222,0.072,0.401-0.014,0.534c-0.084,0.131-0.152,0.273-0.2,0.413
		c-0.017,0.062-0.023,0.124-0.023,0.178c0,0.057-0.008,0.097-0.024,0.132c-0.047,0.062-0.081,0.142-0.106,0.233
		c-0.022,0.098-0.051,0.181-0.08,0.261c-0.177,0.379-0.345,0.781-0.511,1.195c-0.164,0.418-0.329,0.85-0.485,1.292
		c0.11,0.062,0.196,0.048,0.262-0.049c0.061-0.092,0.132-0.172,0.211-0.239c0.489-0.392,1.01-0.819,1.562-1.272
		c0.553-0.461,1.151-0.838,1.8-1.139c0.267-0.129,0.615-0.229,1.052-0.309c0.434-0.079,0.84-0.069,1.22,0.026
		c0.079,0.014,0.16,0.031,0.249,0.045c0.085,0.017,0.161,0.04,0.225,0.069c0.046,0.019,0.081,0.054,0.105,0.11
		c0.023,0.054,0.05,0.098,0.084,0.128c0.11,0.05,0.23,0.115,0.367,0.204c0.135,0.083,0.231,0.166,0.295,0.246
		c0.029,0.079,0.069,0.198,0.117,0.356c0.048,0.154,0.097,0.291,0.143,0.402c0.015,0.061,0.029,0.132,0.034,0.211
		c0.009,0.078,0.022,0.16,0.037,0.238c0.047,0.22,0.072,0.494,0.072,0.83c0,0.343-0.015,0.714-0.037,1.097
		c-0.023,0.389-0.035,0.732-0.035,1.032c0.047-0.097,0.114-0.208,0.202-0.335c0.087-0.122,0.187-0.256,0.295-0.389
		c0.109-0.133,0.22-0.256,0.332-0.365c0.108-0.11,0.203-0.199,0.284-0.262c0.061-0.047,0.145-0.127,0.247-0.237
		c0.103-0.109,0.213-0.224,0.333-0.344c0.115-0.119,0.231-0.229,0.341-0.33c0.108-0.101,0.205-0.176,0.285-0.226
		c0.44-0.33,0.785-0.608,1.029-0.829c0.245-0.221,0.5-0.369,0.768-0.449c0.128-0.045,0.242-0.093,0.346-0.142
		c0.101-0.049,0.311-0.022,0.626,0.071c0.049,0.017,0.074,0.062,0.085,0.133c0.006,0.069,0.006,0.139,0,0.21
		c-0.011,0.071-0.03,0.134-0.061,0.177c-0.033,0.049-0.064,0.058-0.096,0.026c-0.143,0.062-0.238,0.103-0.295,0.114
		c-0.054,0.019-0.103,0.036-0.143,0.05c-0.038,0.018-0.086,0.049-0.141,0.096c-0.057,0.045-0.165,0.142-0.322,0.282
		c-0.029,0.032-0.123,0.101-0.283,0.214c-0.156,0.109-0.251,0.184-0.285,0.215c-0.029,0.031-0.072,0.07-0.129,0.119
		c-0.055,0.043-0.123,0.103-0.202,0.163c-0.123,0.097-0.211,0.172-0.26,0.237c-0.046,0.063-0.117,0.132-0.212,0.212
		c-0.188,0.142-0.368,0.306-0.531,0.485c-0.166,0.181-0.352,0.385-0.557,0.604c-0.018,0.018-0.072,0.074-0.165,0.176
		c-0.095,0.103-0.2,0.216-0.31,0.345c-0.11,0.128-0.214,0.242-0.308,0.352c-0.093,0.111-0.151,0.178-0.166,0.19
		c-0.017,0.035-0.052,0.093-0.105,0.181c-0.056,0.083-0.114,0.186-0.177,0.297c-0.064,0.109-0.129,0.217-0.189,0.315
		c-0.063,0.103-0.111,0.174-0.143,0.204c-0.128,0.08-0.211,0.198-0.246,0.353c-0.042,0.159-0.094,0.277-0.156,0.356
		c-0.032,0.125-0.068,0.273-0.105,0.437c-0.04,0.169-0.093,0.335-0.155,0.507c-0.095,0.429-0.188,0.908-0.283,1.448
		c-0.097,0.531-0.205,1.039-0.331,1.511c-0.033,0.129-0.071,0.266-0.119,0.416c-0.046,0.149-0.095,0.304-0.14,0.463
		c-0.019,0.031-0.019,0.074,0,0.127c0.014,0.057,0.014,0.11,0,0.154c-0.019,0.067-0.062,0.146-0.132,0.251
		c-0.072,0.103-0.129,0.219-0.178,0.34c-0.03,0.128-0.045,0.213-0.036,0.253c0.008,0.038,0.01,0.073,0.01,0.104
		s-0.002,0.07-0.01,0.119c-0.009,0.049-0.035,0.125-0.084,0.233c0,0.018-0.022,0.04-0.071,0.077c-0.045,0.029-0.07,0.052-0.07,0.069
		c-0.013,0.043-0.013,0.103,0,0.162c0.017,0.066,0.017,0.112,0,0.142c-0.062,0.128-0.112,0.265-0.154,0.414
		c-0.04,0.15-0.099,0.293-0.175,0.414c-0.063,0.13-0.129,0.266-0.191,0.416c-0.062,0.149-0.125,0.286-0.188,0.414
		c-0.029,0.078-0.052,0.129-0.06,0.141c-0.009,0.018-0.019,0.033-0.035,0.036c-0.017,0.009-0.028,0.018-0.036,0.026
		c-0.009,0.009-0.029,0.045-0.059,0.106c-0.048,0.079-0.079,0.122-0.094,0.14l-0.048,0.098c-0.126,0.265-0.272,0.52-0.439,0.754
		c-0.166,0.239-0.295,0.49-0.39,0.759c-0.125,0.269-0.236,0.543-0.331,0.815c-0.095,0.278-0.188,0.564-0.283,0.865
		c-0.128,0.06-0.271,0.131-0.425,0.202c-0.16,0.071-0.301,0.146-0.427,0.226c-0.316-0.08-0.639-0.143-0.971-0.181
		c-0.332-0.04-0.607-0.128-0.828-0.271c0-0.6,0.079-1.172,0.236-1.715c0.158-0.547,0.309-1.093,0.449-1.645
		c0.095-0.365,0.174-0.666,0.236-0.899c0.063-0.237,0.127-0.463,0.189-0.674c0.062-0.217,0.129-0.438,0.202-0.667
		c0.071-0.226,0.169-0.508,0.295-0.838c0.033-0.109,0.062-0.203,0.095-0.272c0.033-0.071,0.077-0.16,0.142-0.271l0.049-0.146
		c0.031-0.062,0.052-0.127,0.071-0.198c0.016-0.07,0.037-0.14,0.069-0.202c0-0.018,0.02-0.044,0.06-0.083
		c0.04-0.04,0.06-0.068,0.06-0.08c0.126-0.415,0.243-0.727,0.355-0.949c0.11-0.22,0.275-0.511,0.494-0.876
		c0-0.015,0.007-0.051,0.014-0.106c0.008-0.054,0.03-0.097,0.06-0.128c0.015-0.018,0.034-0.031,0.06-0.036
		c0.023-0.009,0.05-0.021,0.083-0.035c0.016-0.065,0.023-0.131,0.023-0.202s0.014-0.133,0.049-0.178
		c0-0.018,0.014-0.025,0.045-0.025c0.034,0,0.055-0.009,0.069-0.022c0.017-0.078,0.03-0.136,0.037-0.175
		c0.008-0.041,0.037-0.086,0.083-0.134c0.079-0.127,0.16-0.237,0.25-0.344c0.086-0.101,0.167-0.215,0.247-0.345
		c0.033-0.061,0.074-0.114,0.133-0.163c0.055-0.047,0.104-0.097,0.152-0.14c0.031-0.032,0.031-0.075,0-0.133
		c-0.034-0.054-0.034-0.09,0-0.105c0.031-0.031,0.073-0.049,0.129-0.049c0.054,0,0.099-0.03,0.129-0.093
		c0.065-0.062,0.104-0.127,0.119-0.189s0.049-0.137,0.095-0.211c0.079-0.098,0.16-0.194,0.25-0.297
		c0.086-0.105,0.17-0.22,0.246-0.343c-0.03-0.38-0.022-0.74,0.025-1.075c0.047-0.34,0.068-0.686,0.068-1.033
		c0-0.221-0.002-0.489-0.01-0.801c-0.009-0.318-0.029-0.627-0.059-0.927c-0.031-0.303-0.091-0.566-0.177-0.789
		c-0.089-0.231-0.203-0.371-0.345-0.415c-0.14-0.036-0.343,0.018-0.604,0.149c-0.262,0.137-0.478,0.266-0.65,0.392
		c-0.126,0.079-0.232,0.159-0.32,0.239c-0.086,0.078-0.194,0.157-0.319,0.234c-0.03,0.034-0.062,0.047-0.096,0.047
		c-0.03,0-0.062,0.019-0.094,0.05c-0.077,0.078-0.202,0.184-0.368,0.315c-0.162,0.137-0.288,0.257-0.363,0.367
		c-0.206,0.176-0.408,0.375-0.604,0.595c-0.198,0.221-0.4,0.415-0.605,0.591c-0.029,0.031-0.062,0.049-0.093,0.049
		c-0.03,0-0.064,0.013-0.096,0.044c-0.126,0.111-0.286,0.277-0.486,0.499c-0.196,0.221-0.374,0.388-0.529,0.497
		c-0.065,0.015-0.127,0.022-0.191,0.022s-0.124,0.01-0.188,0.022c-0.222,0.08-0.419,0.154-0.591,0.225
		c-0.174,0.074-0.396,0.054-0.663-0.058c-0.079-0.017-0.173-0.061-0.271-0.141c-0.104-0.079-0.21-0.163-0.321-0.251
		c-0.109-0.084-0.206-0.177-0.284-0.269c-0.079-0.098-0.125-0.178-0.14-0.239c-0.034-0.092-0.057-0.197-0.071-0.309
		c-0.017-0.111-0.049-0.203-0.095-0.283c-0.079-0.347-0.104-0.669-0.073-0.969c0.033-0.3,0.113-0.631,0.239-0.996
		c0.015-0.062,0.029-0.124,0.044-0.187c0.017-0.065,0.042-0.137,0.073-0.215c0.015-0.062,0.022-0.124,0.022-0.19
		c0-0.061,0.01-0.119,0.026-0.162c0.062-0.129,0.159-0.287,0.294-0.478c0.135-0.189,0.226-0.353,0.271-0.492
		c0.049-0.147,0.095-0.309,0.143-0.499c0.047-0.189,0.086-0.34,0.12-0.451c0.044-0.109,0.101-0.195,0.164-0.258
		c0.062-0.062,0.122-0.134,0.176-0.205c0.057-0.069,0.105-0.144,0.144-0.224c0.039-0.079,0.074-0.182,0.107-0.305
		c0.126-0.035,0.261-0.065,0.4-0.098c0.144-0.03,0.275-0.048,0.403-0.048c0.236,0,0.48,0.036,0.733,0.097
		C147.419,213.255,147.689,213.324,147.973,213.404z M151.286,225.166c-0.079,0.175-0.151,0.343-0.214,0.511
		c-0.063,0.163-0.126,0.317-0.188,0.458c-0.095,0.301-0.18,0.586-0.251,0.856c-0.068,0.264-0.158,0.512-0.27,0.731
		c0.046,0.158,0.037,0.322-0.024,0.498c-0.063,0.173-0.104,0.361-0.118,0.568c-0.029,0.076-0.036,0.154-0.014,0.234
		c0.027,0.081,0.028,0.177,0.014,0.287c-0.029,0.094-0.065,0.172-0.095,0.232c-0.031,0.067-0.062,0.159-0.096,0.288
		c0,0.08,0,0.172,0,0.282c0,0.109,0.064,0.189,0.19,0.237c0.424-0.946,0.795-1.939,1.111-2.979c0.316-1.046,0.561-2.18,0.733-3.41
		c0-0.048-0.022-0.071-0.071-0.071c-0.125,0.205-0.245,0.415-0.354,0.642C151.531,224.75,151.409,224.963,151.286,225.166z"/>
</g>
</svg>
