<?xml version="1.0" encoding="utf-8"?>
<!-- Generator: Adobe Illustrator 16.0.0, SVG Export Plug-In . SVG Version: 6.00 Build 0)  -->
<!DOCTYPE svg PUBLIC "-//W3C//DTD SVG 1.1//EN" "http://www.w3.org/Graphics/SVG/1.1/DTD/svg11.dtd">
<svg version="1.1" id="Calque_1" xmlns="http://www.w3.org/2000/svg" xmlns:xlink="http://www.w3.org/1999/xlink" x="0px" y="0px"
	 width="250px" height="250px" viewBox="0 0 250 250" enable-background="new 0 0 250 250" xml:space="preserve">
<polyline fill="none" stroke="#D2B0B0" stroke-width="0.9181" stroke-miterlimit="10" points="76.56,149.74 70.978,165.688 
	70.977,167.323 "/>
<line fill="none" stroke="#D2B0B0" stroke-width="0.9181" stroke-miterlimit="10" x1="95.355" y1="96.044" x2="87.454" y2="118.616"/>
<polyline fill="none" stroke="#D2B0B0" stroke-width="0.9181" stroke-miterlimit="10" points="115.055,41.055 114.604,41.055 
	96.882,91.683 "/>
<line fill="none" stroke="#D2B0B0" stroke-width="0.9181" stroke-miterlimit="10" x1="100.694" y1="96.496" x2="118.438" y2="45.875"/>
<line fill="none" stroke="#D2B0B0" stroke-width="0.9181" stroke-miterlimit="10" x1="87.454" y1="134.264" x2="99.167" y2="100.853"/>
<path fill="none" stroke="#FFFFFF" stroke-width="0.6296" stroke-miterlimit="10" d="M70.977,167.323"/>
<line fill="none" stroke="#D2B0B0" stroke-width="0.9181" stroke-miterlimit="10" x1="151.189" y1="92.395" x2="133.012" y2="40.89"/>
<line fill="none" stroke="#D2B0B0" stroke-width="0.9181" stroke-miterlimit="10" x1="161.174" y1="120.679" x2="152.726" y2="96.744"/>
<line fill="none" stroke="#D2B0B0" stroke-width="0.9181" stroke-miterlimit="10" x1="176.606" y1="164.399" x2="172.1" y2="151.63"/>
<line fill="none" stroke="#D2B0B0" stroke-width="0.9181" stroke-miterlimit="10" x1="149.058" y1="101.361" x2="161.241" y2="136.121"/>
<line fill="none" stroke="#D2B0B0" stroke-width="0.9181" stroke-miterlimit="10" x1="129.612" y1="45.884" x2="147.531" y2="97.008"/>
<path fill="none" stroke="#000100" stroke-width="0.5977" stroke-miterlimit="10" d="M137.84,123.583"/>
<path fill="none" stroke="#D2B0B0" stroke-width="0.9181" stroke-miterlimit="10" d="M121.567,129.164
	c-4.726,6.054-9.103,11.739-9.103,11.739s-10.694,13.621-11.08,22.539c-0.511,11.757,7.955,21.547,18.681,23.563 M127.857,187.128
	c11.08-1.71,20.054-11.677,19.39-23.686c-0.581-10.571-11.081-22.541-11.081-22.541s-4.462-5.796-9.239-11.916
	c2.328-2.741,4.487-5.327,5.854-7.087l28.397-35.824c0,0,0,68.589,0,73.612c0,5.021-5.679,4.808-5.679,4.808v2.837h22.28v-2.837
	c-5.462,0-5.678-5.68-5.678-5.68s0-79.95,0-82.788c0-0.095,0.012-0.195,0.02-0.296h-0.008c0.013-0.136,0.022-0.271,0.049-0.415
	c0.09-6.191,4.481-11.639,4.481-11.639l-1.509-1.913l-10.442,13.552c-0.106,0.135-0.22,0.276-0.329,0.416h-0.011
	c-11.379,14.428-30.544,38.664-39.898,50.098c-0.046-0.058-0.093-0.117-0.14-0.176c-0.045,0.059-0.092,0.118-0.137,0.176
	c-9.376-11.46-28.61-35.781-39.977-50.197h-0.007c-0.08-0.101-0.159-0.207-0.238-0.302L73.509,61.78L72,63.691
	c0,0,4.394,5.445,4.481,11.639c0.019,0.105,0.026,0.202,0.04,0.302h-0.019c0.018,0.138,0.029,0.271,0.029,0.396
	c0,2.838,0,82.787,0,82.787c-0.25,5.032-5.679,5.68-5.679,5.68v2.839h22.281v-2.839c0,0-1.867,0.072-3.458-0.813
	c-1.186-0.659-2.222-1.852-2.222-3.992c0-1.882,0-12.663,0-25.425c0-21.332,0-48.188,0-48.188l28.397,35.824
	c1.038,1.333,2.526,3.143,4.204,5.133 M120.205,181.973c-8.237-2.415-14.881-10.233-13.872-19.401
	c0.829-7.494,7.8-17.312,13.384-23.893c1.31-1.542,2.918-3.439,4.598-5.423c1.684,1.983,3.293,3.881,4.603,5.423
	c5.58,6.581,13.383,16.212,13.383,23.893c0,9.422-6.139,17.339-14.442,19.551"/>
<polygon fill="none" stroke="#D2B0B0" stroke-width="0.6557" stroke-miterlimit="10" points="161.554,167.203 167.007,159.82 
	172.459,167.203 "/>
<line fill="none" stroke="#D2B0B0" stroke-width="0.6557" stroke-miterlimit="10" x1="81.812" y1="72.547" x2="81.812" y2="159.82"/>
<path fill="none" stroke="#010101" stroke-width="0.4722" stroke-miterlimit="10" d="M161.194,160.07"/>
<polyline fill="none" stroke="#D2B0B0" stroke-width="0.6557" stroke-miterlimit="10" points="161.248,85.848 167.022,78.45 
	167.022,160.07 "/>
<g>
	<g>
		<g>
			<g>
				<defs>
					<polygon id="SVGID_1_" points="161.274,86.236 167.05,78.838 167.05,164.492 161.221,164.492 					"/>
				</defs>
				<clipPath id="SVGID_2_">
					<use xlink:href="#SVGID_1_"  overflow="visible"/>
				</clipPath>
				
					<line clip-path="url(#SVGID_2_)" fill="none" stroke="#010101" stroke-width="0.4722" stroke-miterlimit="10" x1="58.26" y1="181.824" x2="138.848" y2="72.12"/>
			</g>
		</g>
	</g>
	<g>
		<g>
			<g>
				<defs>
					<polygon id="SVGID_3_" points="161.274,86.236 167.05,78.838 167.05,164.492 161.221,164.492 					"/>
				</defs>
				<clipPath id="SVGID_4_">
					<use xlink:href="#SVGID_3_"  overflow="visible"/>
				</clipPath>
				
					<line clip-path="url(#SVGID_4_)" fill="none" stroke="#010101" stroke-width="0.4722" stroke-miterlimit="10" x1="61.286" y1="181.824" x2="141.872" y2="72.12"/>
			</g>
		</g>
	</g>
	<g>
		<g>
			<g>
				<defs>
					<polygon id="SVGID_5_" points="161.274,86.236 167.05,78.838 167.05,164.492 161.221,164.492 					"/>
				</defs>
				<clipPath id="SVGID_6_">
					<use xlink:href="#SVGID_5_"  overflow="visible"/>
				</clipPath>
				
					<line clip-path="url(#SVGID_6_)" fill="none" stroke="#010101" stroke-width="0.4722" stroke-miterlimit="10" x1="64.311" y1="181.824" x2="144.896" y2="72.12"/>
			</g>
		</g>
	</g>
	<g>
		<g>
			<g>
				<defs>
					<polygon id="SVGID_7_" points="161.274,86.236 167.05,78.838 167.05,164.492 161.221,164.492 					"/>
				</defs>
				<clipPath id="SVGID_8_">
					<use xlink:href="#SVGID_7_"  overflow="visible"/>
				</clipPath>
				
					<line clip-path="url(#SVGID_8_)" fill="none" stroke="#010101" stroke-width="0.4722" stroke-miterlimit="10" x1="67.336" y1="181.824" x2="147.923" y2="72.12"/>
			</g>
		</g>
	</g>
	<g>
		<g>
			<g>
				<defs>
					<polygon id="SVGID_9_" points="161.274,86.236 167.05,78.838 167.05,164.492 161.221,164.492 					"/>
				</defs>
				<clipPath id="SVGID_10_">
					<use xlink:href="#SVGID_9_"  overflow="visible"/>
				</clipPath>
				
					<line clip-path="url(#SVGID_10_)" fill="none" stroke="#010101" stroke-width="0.4722" stroke-miterlimit="10" x1="70.361" y1="181.824" x2="150.946" y2="72.12"/>
			</g>
		</g>
	</g>
	<g>
		<g>
			<g>
				<defs>
					<polygon id="SVGID_11_" points="161.274,86.236 167.05,78.838 167.05,164.492 161.221,164.492 					"/>
				</defs>
				<clipPath id="SVGID_12_">
					<use xlink:href="#SVGID_11_"  overflow="visible"/>
				</clipPath>
				
					<line clip-path="url(#SVGID_12_)" fill="none" stroke="#010101" stroke-width="0.4722" stroke-miterlimit="10" x1="73.386" y1="181.824" x2="153.972" y2="72.12"/>
			</g>
		</g>
	</g>
	<g>
		<g>
			<g>
				<defs>
					<polygon id="SVGID_13_" points="161.274,86.236 167.05,78.838 167.05,164.492 161.221,164.492 					"/>
				</defs>
				<clipPath id="SVGID_14_">
					<use xlink:href="#SVGID_13_"  overflow="visible"/>
				</clipPath>
				
					<line clip-path="url(#SVGID_14_)" fill="none" stroke="#010101" stroke-width="0.4722" stroke-miterlimit="10" x1="76.411" y1="181.824" x2="156.996" y2="72.12"/>
			</g>
		</g>
	</g>
	<g>
		<g>
			<g>
				<defs>
					<polygon id="SVGID_15_" points="161.274,86.236 167.05,78.838 167.05,164.492 161.221,164.492 					"/>
				</defs>
				<clipPath id="SVGID_16_">
					<use xlink:href="#SVGID_15_"  overflow="visible"/>
				</clipPath>
				
					<line clip-path="url(#SVGID_16_)" fill="none" stroke="#010101" stroke-width="0.4722" stroke-miterlimit="10" x1="79.435" y1="181.824" x2="160.021" y2="72.12"/>
			</g>
		</g>
	</g>
	<g>
		<g>
			<g>
				<defs>
					<polygon id="SVGID_17_" points="161.274,86.236 167.05,78.838 167.05,164.492 161.221,164.492 					"/>
				</defs>
				<clipPath id="SVGID_18_">
					<use xlink:href="#SVGID_17_"  overflow="visible"/>
				</clipPath>
				
					<line clip-path="url(#SVGID_18_)" fill="none" stroke="#010101" stroke-width="0.4722" stroke-miterlimit="10" x1="82.459" y1="181.824" x2="163.047" y2="72.12"/>
			</g>
		</g>
	</g>
	<g>
		<g>
			<g>
				<defs>
					<polygon id="SVGID_19_" points="161.274,86.236 167.05,78.838 167.05,164.492 161.221,164.492 					"/>
				</defs>
				<clipPath id="SVGID_20_">
					<use xlink:href="#SVGID_19_"  overflow="visible"/>
				</clipPath>
				
					<line clip-path="url(#SVGID_20_)" fill="none" stroke="#010101" stroke-width="0.4722" stroke-miterlimit="10" x1="85.484" y1="181.824" x2="166.072" y2="72.12"/>
			</g>
		</g>
	</g>
	<g>
		<g>
			<g>
				<defs>
					<polygon id="SVGID_21_" points="161.274,86.236 167.05,78.838 167.05,164.492 161.221,164.492 					"/>
				</defs>
				<clipPath id="SVGID_22_">
					<use xlink:href="#SVGID_21_"  overflow="visible"/>
				</clipPath>
				
					<line clip-path="url(#SVGID_22_)" fill="none" stroke="#010101" stroke-width="0.4722" stroke-miterlimit="10" x1="88.51" y1="181.824" x2="169.099" y2="72.12"/>
			</g>
		</g>
	</g>
	<g>
		<g>
			<g>
				<defs>
					<polygon id="SVGID_23_" points="161.274,86.236 167.05,78.838 167.05,164.492 161.221,164.492 					"/>
				</defs>
				<clipPath id="SVGID_24_">
					<use xlink:href="#SVGID_23_"  overflow="visible"/>
				</clipPath>
				<path clip-path="url(#SVGID_24_)" fill="#010101" stroke="#010101" stroke-width="0.4722" stroke-miterlimit="10" d="
					M172.122,72.12"/>
			</g>
		</g>
	</g>
	<g>
		<g>
			<g>
				<defs>
					<polygon id="SVGID_25_" points="161.274,86.236 167.05,78.838 167.05,164.492 161.221,164.492 					"/>
				</defs>
				<clipPath id="SVGID_26_">
					<use xlink:href="#SVGID_25_"  overflow="visible"/>
				</clipPath>
				
					<line clip-path="url(#SVGID_26_)" fill="none" stroke="#D2B0B0" stroke-width="0.4722" stroke-miterlimit="10" x1="94.561" y1="181.824" x2="175.145" y2="72.12"/>
			</g>
		</g>
	</g>
	<g>
		<g>
			<g>
				<defs>
					<polygon id="SVGID_27_" points="161.274,86.236 167.05,78.838 167.05,164.492 161.221,164.492 					"/>
				</defs>
				<clipPath id="SVGID_28_">
					<use xlink:href="#SVGID_27_"  overflow="visible"/>
				</clipPath>
				
					<line clip-path="url(#SVGID_28_)" fill="none" stroke="#D2B0B0" stroke-width="0.4722" stroke-miterlimit="10" x1="97.585" y1="181.824" x2="178.172" y2="72.12"/>
			</g>
		</g>
	</g>
	<g>
		<g>
			<g>
				<defs>
					<polygon id="SVGID_29_" points="161.274,86.236 167.05,78.838 167.05,164.492 161.221,164.492 					"/>
				</defs>
				<clipPath id="SVGID_30_">
					<use xlink:href="#SVGID_29_"  overflow="visible"/>
				</clipPath>
				
					<line clip-path="url(#SVGID_30_)" fill="none" stroke="#D2B0B0" stroke-width="0.4722" stroke-miterlimit="10" x1="100.611" y1="181.824" x2="181.195" y2="72.12"/>
			</g>
		</g>
	</g>
	<g>
		<g>
			<g>
				<defs>
					<polygon id="SVGID_31_" points="161.274,86.236 167.05,78.838 167.05,164.492 161.221,164.492 					"/>
				</defs>
				<clipPath id="SVGID_32_">
					<use xlink:href="#SVGID_31_"  overflow="visible"/>
				</clipPath>
				
					<line clip-path="url(#SVGID_32_)" fill="none" stroke="#D2B0B0" stroke-width="0.4722" stroke-miterlimit="10" x1="103.635" y1="181.824" x2="184.222" y2="72.12"/>
			</g>
		</g>
	</g>
	<g>
		<g>
			<g>
				<defs>
					<polygon id="SVGID_33_" points="161.274,86.236 167.05,78.838 167.05,164.492 161.221,164.492 					"/>
				</defs>
				<clipPath id="SVGID_34_">
					<use xlink:href="#SVGID_33_"  overflow="visible"/>
				</clipPath>
				
					<line clip-path="url(#SVGID_34_)" fill="none" stroke="#D2B0B0" stroke-width="0.4722" stroke-miterlimit="10" x1="106.66" y1="181.824" x2="187.246" y2="72.12"/>
			</g>
		</g>
	</g>
	<g>
		<g>
			<g>
				<defs>
					<polygon id="SVGID_35_" points="161.274,86.236 167.05,78.838 167.05,164.492 161.221,164.492 					"/>
				</defs>
				<clipPath id="SVGID_36_">
					<use xlink:href="#SVGID_35_"  overflow="visible"/>
				</clipPath>
				
					<line clip-path="url(#SVGID_36_)" fill="none" stroke="#D2B0B0" stroke-width="0.4722" stroke-miterlimit="10" x1="109.684" y1="181.824" x2="190.271" y2="72.12"/>
			</g>
		</g>
	</g>
	<g>
		<g>
			<g>
				<defs>
					<polygon id="SVGID_37_" points="161.274,86.236 167.05,78.838 167.05,164.492 161.221,164.492 					"/>
				</defs>
				<clipPath id="SVGID_38_">
					<use xlink:href="#SVGID_37_"  overflow="visible"/>
				</clipPath>
				
					<line clip-path="url(#SVGID_38_)" fill="none" stroke="#D2B0B0" stroke-width="0.4722" stroke-miterlimit="10" x1="112.709" y1="181.824" x2="193.295" y2="72.12"/>
			</g>
		</g>
	</g>
	<g>
		<g>
			<g>
				<defs>
					<polygon id="SVGID_39_" points="161.274,86.236 167.05,78.838 167.05,164.492 161.221,164.492 					"/>
				</defs>
				<clipPath id="SVGID_40_">
					<use xlink:href="#SVGID_39_"  overflow="visible"/>
				</clipPath>
				
					<line clip-path="url(#SVGID_40_)" fill="none" stroke="#D2B0B0" stroke-width="0.4722" stroke-miterlimit="10" x1="115.736" y1="181.824" x2="196.321" y2="72.12"/>
			</g>
		</g>
	</g>
	<g>
		<g>
			<g>
				<defs>
					<polygon id="SVGID_41_" points="161.274,86.236 167.05,78.838 167.05,164.492 161.221,164.492 					"/>
				</defs>
				<clipPath id="SVGID_42_">
					<use xlink:href="#SVGID_41_"  overflow="visible"/>
				</clipPath>
				
					<line clip-path="url(#SVGID_42_)" fill="none" stroke="#D2B0B0" stroke-width="0.4722" stroke-miterlimit="10" x1="118.759" y1="181.824" x2="199.346" y2="72.12"/>
			</g>
		</g>
	</g>
	<g>
		<g>
			<g>
				<defs>
					<polygon id="SVGID_43_" points="161.274,86.236 167.05,78.838 167.05,164.492 161.221,164.492 					"/>
				</defs>
				<clipPath id="SVGID_44_">
					<use xlink:href="#SVGID_43_"  overflow="visible"/>
				</clipPath>
				
					<line clip-path="url(#SVGID_44_)" fill="none" stroke="#D2B0B0" stroke-width="0.4722" stroke-miterlimit="10" x1="121.784" y1="181.824" x2="202.372" y2="72.12"/>
			</g>
		</g>
	</g>
	<g>
		<g>
			<g>
				<defs>
					<polygon id="SVGID_45_" points="161.274,86.236 167.05,78.838 167.05,164.492 161.221,164.492 					"/>
				</defs>
				<clipPath id="SVGID_46_">
					<use xlink:href="#SVGID_45_"  overflow="visible"/>
				</clipPath>
				
					<line clip-path="url(#SVGID_46_)" fill="none" stroke="#D2B0B0" stroke-width="0.4722" stroke-miterlimit="10" x1="124.809" y1="181.824" x2="205.396" y2="72.12"/>
			</g>
		</g>
	</g>
	<g>
		<g>
			<g>
				<defs>
					<polygon id="SVGID_47_" points="161.274,86.236 167.05,78.838 167.05,164.492 161.221,164.492 					"/>
				</defs>
				<clipPath id="SVGID_48_">
					<use xlink:href="#SVGID_47_"  overflow="visible"/>
				</clipPath>
				
					<line clip-path="url(#SVGID_48_)" fill="none" stroke="#D2B0B0" stroke-width="0.4722" stroke-miterlimit="10" x1="127.833" y1="181.824" x2="208.42" y2="72.12"/>
			</g>
		</g>
	</g>
	<g>
		<g>
			<g>
				<defs>
					<polygon id="SVGID_49_" points="161.274,86.236 167.05,78.838 167.05,164.492 161.221,164.492 					"/>
				</defs>
				<clipPath id="SVGID_50_">
					<use xlink:href="#SVGID_49_"  overflow="visible"/>
				</clipPath>
				
					<line clip-path="url(#SVGID_50_)" fill="none" stroke="#D2B0B0" stroke-width="0.4722" stroke-miterlimit="10" x1="130.859" y1="181.824" x2="211.445" y2="72.12"/>
			</g>
		</g>
	</g>
	<g>
		<g>
			<g>
				<defs>
					<polygon id="SVGID_51_" points="161.274,86.236 167.05,78.838 167.05,164.492 161.221,164.492 					"/>
				</defs>
				<clipPath id="SVGID_52_">
					<use xlink:href="#SVGID_51_"  overflow="visible"/>
				</clipPath>
				
					<line clip-path="url(#SVGID_52_)" fill="none" stroke="#D2B0B0" stroke-width="0.4722" stroke-miterlimit="10" x1="133.887" y1="181.824" x2="214.471" y2="72.12"/>
			</g>
		</g>
	</g>
	<g>
		<g>
			<g>
				<defs>
					<polygon id="SVGID_53_" points="161.274,86.236 167.05,78.838 167.05,164.492 161.221,164.492 					"/>
				</defs>
				<clipPath id="SVGID_54_">
					<use xlink:href="#SVGID_53_"  overflow="visible"/>
				</clipPath>
				
					<line clip-path="url(#SVGID_54_)" fill="none" stroke="#D2B0B0" stroke-width="0.4722" stroke-miterlimit="10" x1="136.908" y1="181.824" x2="217.496" y2="72.12"/>
			</g>
		</g>
	</g>
	<g>
		<g>
			<g>
				<defs>
					<polygon id="SVGID_55_" points="161.274,86.236 167.05,78.838 167.05,164.492 161.221,164.492 					"/>
				</defs>
				<clipPath id="SVGID_56_">
					<use xlink:href="#SVGID_55_"  overflow="visible"/>
				</clipPath>
				
					<line clip-path="url(#SVGID_56_)" fill="none" stroke="#D2B0B0" stroke-width="0.4722" stroke-miterlimit="10" x1="139.934" y1="181.824" x2="220.521" y2="72.12"/>
			</g>
		</g>
	</g>
	<g>
		<g>
			<g>
				<defs>
					<polygon id="SVGID_57_" points="161.274,86.236 167.05,78.838 167.05,164.492 161.221,164.492 					"/>
				</defs>
				<clipPath id="SVGID_58_">
					<use xlink:href="#SVGID_57_"  overflow="visible"/>
				</clipPath>
				
					<line clip-path="url(#SVGID_58_)" fill="none" stroke="#D2B0B0" stroke-width="0.4722" stroke-miterlimit="10" x1="142.959" y1="181.824" x2="223.545" y2="72.12"/>
			</g>
		</g>
	</g>
	<g>
		<g>
			<g>
				<defs>
					<polygon id="SVGID_59_" points="161.274,86.236 167.05,78.838 167.05,164.492 161.221,164.492 					"/>
				</defs>
				<clipPath id="SVGID_60_">
					<use xlink:href="#SVGID_59_"  overflow="visible"/>
				</clipPath>
				
					<line clip-path="url(#SVGID_60_)" fill="none" stroke="#D2B0B0" stroke-width="0.4722" stroke-miterlimit="10" x1="145.984" y1="181.824" x2="226.57" y2="72.12"/>
			</g>
		</g>
	</g>
	<g>
		<g>
			<g>
				<defs>
					<polygon id="SVGID_61_" points="161.274,86.236 167.05,78.838 167.05,164.492 161.221,164.492 					"/>
				</defs>
				<clipPath id="SVGID_62_">
					<use xlink:href="#SVGID_61_"  overflow="visible"/>
				</clipPath>
				
					<line clip-path="url(#SVGID_62_)" fill="none" stroke="#010101" stroke-width="0.4722" stroke-miterlimit="10" x1="155.06" y1="181.824" x2="235.646" y2="72.12"/>
			</g>
		</g>
	</g>
	<g>
		<g>
			<g>
				<defs>
					<polygon id="SVGID_63_" points="161.274,86.236 167.05,78.838 167.05,164.492 161.221,164.492 					"/>
				</defs>
				<clipPath id="SVGID_64_">
					<use xlink:href="#SVGID_63_"  overflow="visible"/>
				</clipPath>
				
					<line clip-path="url(#SVGID_64_)" fill="none" stroke="#010101" stroke-width="0.4722" stroke-miterlimit="10" x1="158.082" y1="181.824" x2="238.668" y2="72.12"/>
			</g>
		</g>
	</g>
</g>
<path fill="none" stroke="#D2B0B0" stroke-width="0.9181" stroke-miterlimit="10" d="M127.857,121.643V49.975v0.262v-0.193
	c-0.078-4.642,5.154-6.207,5.154-6.207v-2.782h-0.225h-17.732l-0.009,2.782c0,0,5.231,1.564,5.152,6.207v-0.069v70.904"/>
<line fill="none" stroke="#D2B0B0" stroke-width="0.9181" stroke-miterlimit="10" x1="127.857" y1="130.18" x2="127.857" y2="127.89"/>
<path fill="none" stroke="#D2B0B0" stroke-width="0.9181" stroke-miterlimit="10" d="M120.196,138.147v55.058l0,0v0.352v-0.26v0.193
	c0.08,4.645-5.15,6.209-5.15,6.209v2.78h0.224h17.728l0.01-2.78c0,0-5.228-1.564-5.149-6.209v-0.285l0,0v-55.862"/>
<line fill="none" stroke="#D2B0B0" stroke-width="0.9181" stroke-miterlimit="10" x1="120.196" y1="127.254" x2="120.196" y2="130.906"/>
<line fill="none" stroke="#D2B0B0" stroke-width="0.6557" stroke-miterlimit="10" x1="124.358" y1="132.982" x2="124.358" y2="195.487"/>
<line fill="none" stroke="#D2B0B0" stroke-width="0.6557" stroke-miterlimit="10" x1="124.358" y1="48.263" x2="124.358" y2="125.771"/>
<polygon fill="none" stroke="#D2B0B0" stroke-width="0.6557" stroke-miterlimit="10" points="129.809,41.055 124.358,48.438 
	118.906,41.055 "/>
<polygon fill="none" stroke="#D2B0B0" stroke-width="0.6557" stroke-miterlimit="10" points="118.906,202.479 124.358,195.094 
	129.809,202.479 "/>
<g>
	<g>
		<g>
			<g>
				<defs>
					<path id="SVGID_65_" d="M81.84,159.767V72.499l-8.303-10.769l-1.507,1.912c0,0,4.394,5.445,4.48,11.637
						c0.021,0.106,0.026,0.203,0.04,0.305h-0.018c0.017,0.136,0.031,0.269,0.031,0.394c0,2.839,0,82.789,0,82.789
						c-0.25,5.031-5.681,5.677-5.681,5.677v2.842h10.962v-7.518H81.84z"/>
				</defs>
				<clipPath id="SVGID_66_">
					<use xlink:href="#SVGID_65_"  overflow="visible"/>
				</clipPath>
				
					<line clip-path="url(#SVGID_66_)" fill="none" stroke="#010101" stroke-width="0.4722" stroke-miterlimit="10" x1="166.021" y1="171.247" x2="85.434" y2="61.543"/>
			</g>
		</g>
	</g>
	<g>
		<g>
			<g>
				<defs>
					<path id="SVGID_67_" d="M81.84,159.767V72.499l-8.303-10.769l-1.507,1.912c0,0,4.394,5.445,4.48,11.637
						c0.021,0.106,0.026,0.203,0.04,0.305h-0.018c0.017,0.136,0.031,0.269,0.031,0.394c0,2.839,0,82.789,0,82.789
						c-0.25,5.031-5.681,5.677-5.681,5.677v2.842h10.962v-7.518H81.84z"/>
				</defs>
				<clipPath id="SVGID_68_">
					<use xlink:href="#SVGID_67_"  overflow="visible"/>
				</clipPath>
				
					<line clip-path="url(#SVGID_68_)" fill="none" stroke="#010101" stroke-width="0.4722" stroke-miterlimit="10" x1="162.997" y1="171.247" x2="82.409" y2="61.543"/>
			</g>
		</g>
	</g>
	<g>
		<g>
			<g>
				<defs>
					<path id="SVGID_69_" d="M81.84,159.767V72.499l-8.303-10.769l-1.507,1.912c0,0,4.394,5.445,4.48,11.637
						c0.021,0.106,0.026,0.203,0.04,0.305h-0.018c0.017,0.136,0.031,0.269,0.031,0.394c0,2.839,0,82.789,0,82.789
						c-0.25,5.031-5.681,5.677-5.681,5.677v2.842h10.962v-7.518H81.84z"/>
				</defs>
				<clipPath id="SVGID_70_">
					<use xlink:href="#SVGID_69_"  overflow="visible"/>
				</clipPath>
				
					<line clip-path="url(#SVGID_70_)" fill="none" stroke="#010101" stroke-width="0.4722" stroke-miterlimit="10" x1="159.973" y1="171.247" x2="79.384" y2="61.543"/>
			</g>
		</g>
	</g>
	<g>
		<g>
			<g>
				<defs>
					<path id="SVGID_71_" d="M81.84,159.767V72.499l-8.303-10.769l-1.507,1.912c0,0,4.394,5.445,4.48,11.637
						c0.021,0.106,0.026,0.203,0.04,0.305h-0.018c0.017,0.136,0.031,0.269,0.031,0.394c0,2.839,0,82.789,0,82.789
						c-0.25,5.031-5.681,5.677-5.681,5.677v2.842h10.962v-7.518H81.84z"/>
				</defs>
				<clipPath id="SVGID_72_">
					<use xlink:href="#SVGID_71_"  overflow="visible"/>
				</clipPath>
				
					<line clip-path="url(#SVGID_72_)" fill="none" stroke="#010101" stroke-width="0.4722" stroke-miterlimit="10" x1="156.947" y1="171.247" x2="76.359" y2="61.543"/>
			</g>
		</g>
	</g>
	<g>
		<g>
			<g>
				<defs>
					<path id="SVGID_73_" d="M81.84,159.767V72.499l-8.303-10.769l-1.507,1.912c0,0,4.394,5.445,4.48,11.637
						c0.021,0.106,0.026,0.203,0.04,0.305h-0.018c0.017,0.136,0.031,0.269,0.031,0.394c0,2.839,0,82.789,0,82.789
						c-0.25,5.031-5.681,5.677-5.681,5.677v2.842h10.962v-7.518H81.84z"/>
				</defs>
				<clipPath id="SVGID_74_">
					<use xlink:href="#SVGID_73_"  overflow="visible"/>
				</clipPath>
				
					<line clip-path="url(#SVGID_74_)" fill="none" stroke="#D2B0B0" stroke-width="0.4722" stroke-miterlimit="10" x1="150.896" y1="171.247" x2="70.31" y2="61.543"/>
			</g>
		</g>
	</g>
	<g>
		<g>
			<g>
				<defs>
					<path id="SVGID_75_" d="M81.84,159.767V72.499l-8.303-10.769l-1.507,1.912c0,0,4.394,5.445,4.48,11.637
						c0.021,0.106,0.026,0.203,0.04,0.305h-0.018c0.017,0.136,0.031,0.269,0.031,0.394c0,2.839,0,82.789,0,82.789
						c-0.25,5.031-5.681,5.677-5.681,5.677v2.842h10.962v-7.518H81.84z"/>
				</defs>
				<clipPath id="SVGID_76_">
					<use xlink:href="#SVGID_75_"  overflow="visible"/>
				</clipPath>
				
					<line clip-path="url(#SVGID_76_)" fill="none" stroke="#D2B0B0" stroke-width="0.4722" stroke-miterlimit="10" x1="147.872" y1="171.247" x2="67.285" y2="61.543"/>
			</g>
		</g>
	</g>
	<g>
		<g>
			<g>
				<defs>
					<path id="SVGID_77_" d="M81.84,159.767V72.499l-8.303-10.769l-1.507,1.912c0,0,4.394,5.445,4.48,11.637
						c0.021,0.106,0.026,0.203,0.04,0.305h-0.018c0.017,0.136,0.031,0.269,0.031,0.394c0,2.839,0,82.789,0,82.789
						c-0.25,5.031-5.681,5.677-5.681,5.677v2.842h10.962v-7.518H81.84z"/>
				</defs>
				<clipPath id="SVGID_78_">
					<use xlink:href="#SVGID_77_"  overflow="visible"/>
				</clipPath>
				
					<line clip-path="url(#SVGID_78_)" fill="none" stroke="#D2B0B0" stroke-width="0.4722" stroke-miterlimit="10" x1="144.846" y1="171.247" x2="64.259" y2="61.543"/>
			</g>
		</g>
	</g>
	<g>
		<g>
			<g>
				<defs>
					<path id="SVGID_79_" d="M81.84,159.767V72.499l-8.303-10.769l-1.507,1.912c0,0,4.394,5.445,4.48,11.637
						c0.021,0.106,0.026,0.203,0.04,0.305h-0.018c0.017,0.136,0.031,0.269,0.031,0.394c0,2.839,0,82.789,0,82.789
						c-0.25,5.031-5.681,5.677-5.681,5.677v2.842h10.962v-7.518H81.84z"/>
				</defs>
				<clipPath id="SVGID_80_">
					<use xlink:href="#SVGID_79_"  overflow="visible"/>
				</clipPath>
				
					<line clip-path="url(#SVGID_80_)" fill="none" stroke="#D2B0B0" stroke-width="0.4722" stroke-miterlimit="10" x1="141.821" y1="171.247" x2="61.234" y2="61.543"/>
			</g>
		</g>
	</g>
	<g>
		<g>
			<g>
				<defs>
					<path id="SVGID_81_" d="M81.84,159.767V72.499l-8.303-10.769l-1.507,1.912c0,0,4.394,5.445,4.48,11.637
						c0.021,0.106,0.026,0.203,0.04,0.305h-0.018c0.017,0.136,0.031,0.269,0.031,0.394c0,2.839,0,82.789,0,82.789
						c-0.25,5.031-5.681,5.677-5.681,5.677v2.842h10.962v-7.518H81.84z"/>
				</defs>
				<clipPath id="SVGID_82_">
					<use xlink:href="#SVGID_81_"  overflow="visible"/>
				</clipPath>
				
					<line clip-path="url(#SVGID_82_)" fill="none" stroke="#D2B0B0" stroke-width="0.4722" stroke-miterlimit="10" x1="138.796" y1="171.247" x2="58.209" y2="61.543"/>
			</g>
		</g>
	</g>
	<g>
		<g>
			<g>
				<defs>
					<path id="SVGID_83_" d="M81.84,159.767V72.499l-8.303-10.769l-1.507,1.912c0,0,4.394,5.445,4.48,11.637
						c0.021,0.106,0.026,0.203,0.04,0.305h-0.018c0.017,0.136,0.031,0.269,0.031,0.394c0,2.839,0,82.789,0,82.789
						c-0.25,5.031-5.681,5.677-5.681,5.677v2.842h10.962v-7.518H81.84z"/>
				</defs>
				<clipPath id="SVGID_84_">
					<use xlink:href="#SVGID_83_"  overflow="visible"/>
				</clipPath>
				
					<line clip-path="url(#SVGID_84_)" fill="none" stroke="#D2B0B0" stroke-width="0.4722" stroke-miterlimit="10" x1="135.771" y1="171.247" x2="55.186" y2="61.543"/>
			</g>
		</g>
	</g>
	<g>
		<g>
			<g>
				<defs>
					<path id="SVGID_85_" d="M81.84,159.767V72.499l-8.303-10.769l-1.507,1.912c0,0,4.394,5.445,4.48,11.637
						c0.021,0.106,0.026,0.203,0.04,0.305h-0.018c0.017,0.136,0.031,0.269,0.031,0.394c0,2.839,0,82.789,0,82.789
						c-0.25,5.031-5.681,5.677-5.681,5.677v2.842h10.962v-7.518H81.84z"/>
				</defs>
				<clipPath id="SVGID_86_">
					<use xlink:href="#SVGID_85_"  overflow="visible"/>
				</clipPath>
				
					<line clip-path="url(#SVGID_86_)" fill="none" stroke="#D2B0B0" stroke-width="0.4722" stroke-miterlimit="10" x1="132.746" y1="171.247" x2="52.162" y2="61.543"/>
			</g>
		</g>
	</g>
	<g>
		<g>
			<g>
				<defs>
					<path id="SVGID_87_" d="M81.84,159.767V72.499l-8.303-10.769l-1.507,1.912c0,0,4.394,5.445,4.48,11.637
						c0.021,0.106,0.026,0.203,0.04,0.305h-0.018c0.017,0.136,0.031,0.269,0.031,0.394c0,2.839,0,82.789,0,82.789
						c-0.25,5.031-5.681,5.677-5.681,5.677v2.842h10.962v-7.518H81.84z"/>
				</defs>
				<clipPath id="SVGID_88_">
					<use xlink:href="#SVGID_87_"  overflow="visible"/>
				</clipPath>
				
					<line clip-path="url(#SVGID_88_)" fill="none" stroke="#D2B0B0" stroke-width="0.4722" stroke-miterlimit="10" x1="129.722" y1="171.247" x2="49.135" y2="61.543"/>
			</g>
		</g>
	</g>
	<g>
		<g>
			<g>
				<defs>
					<path id="SVGID_89_" d="M81.84,159.767V72.499l-8.303-10.769l-1.507,1.912c0,0,4.394,5.445,4.48,11.637
						c0.021,0.106,0.026,0.203,0.04,0.305h-0.018c0.017,0.136,0.031,0.269,0.031,0.394c0,2.839,0,82.789,0,82.789
						c-0.25,5.031-5.681,5.677-5.681,5.677v2.842h10.962v-7.518H81.84z"/>
				</defs>
				<clipPath id="SVGID_90_">
					<use xlink:href="#SVGID_89_"  overflow="visible"/>
				</clipPath>
				
					<line clip-path="url(#SVGID_90_)" fill="none" stroke="#D2B0B0" stroke-width="0.4722" stroke-miterlimit="10" x1="126.696" y1="171.247" x2="46.11" y2="61.543"/>
			</g>
		</g>
	</g>
	<g>
		<g>
			<g>
				<defs>
					<path id="SVGID_91_" d="M81.84,159.767V72.499l-8.303-10.769l-1.507,1.912c0,0,4.394,5.445,4.48,11.637
						c0.021,0.106,0.026,0.203,0.04,0.305h-0.018c0.017,0.136,0.031,0.269,0.031,0.394c0,2.839,0,82.789,0,82.789
						c-0.25,5.031-5.681,5.677-5.681,5.677v2.842h10.962v-7.518H81.84z"/>
				</defs>
				<clipPath id="SVGID_92_">
					<use xlink:href="#SVGID_91_"  overflow="visible"/>
				</clipPath>
				
					<line clip-path="url(#SVGID_92_)" fill="none" stroke="#D2B0B0" stroke-width="0.4722" stroke-miterlimit="10" x1="123.67" y1="171.247" x2="43.086" y2="61.543"/>
			</g>
		</g>
	</g>
	<g>
		<g>
			<g>
				<defs>
					<path id="SVGID_93_" d="M81.84,159.767V72.499l-8.303-10.769l-1.507,1.912c0,0,4.394,5.445,4.48,11.637
						c0.021,0.106,0.026,0.203,0.04,0.305h-0.018c0.017,0.136,0.031,0.269,0.031,0.394c0,2.839,0,82.789,0,82.789
						c-0.25,5.031-5.681,5.677-5.681,5.677v2.842h10.962v-7.518H81.84z"/>
				</defs>
				<clipPath id="SVGID_94_">
					<use xlink:href="#SVGID_93_"  overflow="visible"/>
				</clipPath>
				
					<line clip-path="url(#SVGID_94_)" fill="none" stroke="#D2B0B0" stroke-width="0.4722" stroke-miterlimit="10" x1="120.647" y1="171.247" x2="40.061" y2="61.543"/>
			</g>
		</g>
	</g>
	<g>
		<g>
			<g>
				<defs>
					<path id="SVGID_95_" d="M81.84,159.767V72.499l-8.303-10.769l-1.507,1.912c0,0,4.394,5.445,4.48,11.637
						c0.021,0.106,0.026,0.203,0.04,0.305h-0.018c0.017,0.136,0.031,0.269,0.031,0.394c0,2.839,0,82.789,0,82.789
						c-0.25,5.031-5.681,5.677-5.681,5.677v2.842h10.962v-7.518H81.84z"/>
				</defs>
				<clipPath id="SVGID_96_">
					<use xlink:href="#SVGID_95_"  overflow="visible"/>
				</clipPath>
				
					<line clip-path="url(#SVGID_96_)" fill="none" stroke="#D2B0B0" stroke-width="0.4722" stroke-miterlimit="10" x1="117.623" y1="171.247" x2="37.036" y2="61.543"/>
			</g>
		</g>
	</g>
	<g>
		<g>
			<g>
				<defs>
					<path id="SVGID_97_" d="M81.84,159.767V72.499l-8.303-10.769l-1.507,1.912c0,0,4.394,5.445,4.48,11.637
						c0.021,0.106,0.026,0.203,0.04,0.305h-0.018c0.017,0.136,0.031,0.269,0.031,0.394c0,2.839,0,82.789,0,82.789
						c-0.25,5.031-5.681,5.677-5.681,5.677v2.842h10.962v-7.518H81.84z"/>
				</defs>
				<clipPath id="SVGID_98_">
					<use xlink:href="#SVGID_97_"  overflow="visible"/>
				</clipPath>
				
					<line clip-path="url(#SVGID_98_)" fill="none" stroke="#D2B0B0" stroke-width="0.4722" stroke-miterlimit="10" x1="114.595" y1="171.247" x2="34.01" y2="61.543"/>
			</g>
		</g>
	</g>
	<g>
		<g>
			<g>
				<defs>
					<path id="SVGID_99_" d="M81.84,159.767V72.499l-8.303-10.769l-1.507,1.912c0,0,4.394,5.445,4.48,11.637
						c0.021,0.106,0.026,0.203,0.04,0.305h-0.018c0.017,0.136,0.031,0.269,0.031,0.394c0,2.839,0,82.789,0,82.789
						c-0.25,5.031-5.681,5.677-5.681,5.677v2.842h10.962v-7.518H81.84z"/>
				</defs>
				<clipPath id="SVGID_100_">
					<use xlink:href="#SVGID_99_"  overflow="visible"/>
				</clipPath>
				
					<line clip-path="url(#SVGID_100_)" fill="none" stroke="#D2B0B0" stroke-width="0.4722" stroke-miterlimit="10" x1="111.573" y1="171.247" x2="30.983" y2="61.543"/>
			</g>
		</g>
	</g>
	<g>
		<g>
			<g>
				<defs>
					<path id="SVGID_101_" d="M81.84,159.767V72.499l-8.303-10.769l-1.507,1.912c0,0,4.394,5.445,4.48,11.637
						c0.021,0.106,0.026,0.203,0.04,0.305h-0.018c0.017,0.136,0.031,0.269,0.031,0.394c0,2.839,0,82.789,0,82.789
						c-0.25,5.031-5.681,5.677-5.681,5.677v2.842h10.962v-7.518H81.84z"/>
				</defs>
				<clipPath id="SVGID_102_">
					<use xlink:href="#SVGID_101_"  overflow="visible"/>
				</clipPath>
				
					<line clip-path="url(#SVGID_102_)" fill="none" stroke="#D2B0B0" stroke-width="0.4722" stroke-miterlimit="10" x1="108.547" y1="171.247" x2="27.961" y2="61.543"/>
			</g>
		</g>
	</g>
	<g>
		<g>
			<g>
				<defs>
					<path id="SVGID_103_" d="M81.84,159.767V72.499l-8.303-10.769l-1.507,1.912c0,0,4.394,5.445,4.48,11.637
						c0.021,0.106,0.026,0.203,0.04,0.305h-0.018c0.017,0.136,0.031,0.269,0.031,0.394c0,2.839,0,82.789,0,82.789
						c-0.25,5.031-5.681,5.677-5.681,5.677v2.842h10.962v-7.518H81.84z"/>
				</defs>
				<clipPath id="SVGID_104_">
					<use xlink:href="#SVGID_103_"  overflow="visible"/>
				</clipPath>
				
					<line clip-path="url(#SVGID_104_)" fill="none" stroke="#D2B0B0" stroke-width="0.4722" stroke-miterlimit="10" x1="105.522" y1="171.247" x2="24.935" y2="61.543"/>
			</g>
		</g>
	</g>
	<g>
		<g>
			<g>
				<defs>
					<path id="SVGID_105_" d="M81.84,159.767V72.499l-8.303-10.769l-1.507,1.912c0,0,4.394,5.445,4.48,11.637
						c0.021,0.106,0.026,0.203,0.04,0.305h-0.018c0.017,0.136,0.031,0.269,0.031,0.394c0,2.839,0,82.789,0,82.789
						c-0.25,5.031-5.681,5.677-5.681,5.677v2.842h10.962v-7.518H81.84z"/>
				</defs>
				<clipPath id="SVGID_106_">
					<use xlink:href="#SVGID_105_"  overflow="visible"/>
				</clipPath>
				
					<line clip-path="url(#SVGID_106_)" fill="none" stroke="#D2B0B0" stroke-width="0.4722" stroke-miterlimit="10" x1="102.497" y1="171.247" x2="21.911" y2="61.543"/>
			</g>
		</g>
	</g>
	<g>
		<g>
			<g>
				<defs>
					<path id="SVGID_107_" d="M81.84,159.767V72.499l-8.303-10.769l-1.507,1.912c0,0,4.394,5.445,4.48,11.637
						c0.021,0.106,0.026,0.203,0.04,0.305h-0.018c0.017,0.136,0.031,0.269,0.031,0.394c0,2.839,0,82.789,0,82.789
						c-0.25,5.031-5.681,5.677-5.681,5.677v2.842h10.962v-7.518H81.84z"/>
				</defs>
				<clipPath id="SVGID_108_">
					<use xlink:href="#SVGID_107_"  overflow="visible"/>
				</clipPath>
				
					<line clip-path="url(#SVGID_108_)" fill="none" stroke="#D2B0B0" stroke-width="0.4722" stroke-miterlimit="10" x1="99.47" y1="171.247" x2="18.887" y2="61.543"/>
			</g>
		</g>
	</g>
	<g>
		<g>
			<g>
				<defs>
					<path id="SVGID_109_" d="M81.84,159.767V72.499l-8.303-10.769l-1.507,1.912c0,0,4.394,5.445,4.48,11.637
						c0.021,0.106,0.026,0.203,0.04,0.305h-0.018c0.017,0.136,0.031,0.269,0.031,0.394c0,2.839,0,82.789,0,82.789
						c-0.25,5.031-5.681,5.677-5.681,5.677v2.842h10.962v-7.518H81.84z"/>
				</defs>
				<clipPath id="SVGID_110_">
					<use xlink:href="#SVGID_109_"  overflow="visible"/>
				</clipPath>
				
					<line clip-path="url(#SVGID_110_)" fill="none" stroke="#D2B0B0" stroke-width="0.4722" stroke-miterlimit="10" x1="96.447" y1="171.247" x2="15.86" y2="61.543"/>
			</g>
		</g>
	</g>
	<g>
		<g>
			<g>
				<defs>
					<path id="SVGID_111_" d="M81.84,159.767V72.499l-8.303-10.769l-1.507,1.912c0,0,4.394,5.445,4.48,11.637
						c0.021,0.106,0.026,0.203,0.04,0.305h-0.018c0.017,0.136,0.031,0.269,0.031,0.394c0,2.839,0,82.789,0,82.789
						c-0.25,5.031-5.681,5.677-5.681,5.677v2.842h10.962v-7.518H81.84z"/>
				</defs>
				<clipPath id="SVGID_112_">
					<use xlink:href="#SVGID_111_"  overflow="visible"/>
				</clipPath>
				
					<line clip-path="url(#SVGID_112_)" fill="none" stroke="#D2B0B0" stroke-width="0.4722" stroke-miterlimit="10" x1="93.422" y1="171.247" x2="12.835" y2="61.543"/>
			</g>
		</g>
	</g>
	<g>
		<g>
			<g>
				<defs>
					<path id="SVGID_113_" d="M81.84,159.767V72.499l-8.303-10.769l-1.507,1.912c0,0,4.394,5.445,4.48,11.637
						c0.021,0.106,0.026,0.203,0.04,0.305h-0.018c0.017,0.136,0.031,0.269,0.031,0.394c0,2.839,0,82.789,0,82.789
						c-0.25,5.031-5.681,5.677-5.681,5.677v2.842h10.962v-7.518H81.84z"/>
				</defs>
				<clipPath id="SVGID_114_">
					<use xlink:href="#SVGID_113_"  overflow="visible"/>
				</clipPath>
				
					<line clip-path="url(#SVGID_114_)" fill="none" stroke="#D2B0B0" stroke-width="0.4722" stroke-miterlimit="10" x1="90.243" y1="171.082" x2="9.656" y2="61.378"/>
			</g>
		</g>
	</g>
	<g>
		<g>
			<g>
				<defs>
					<path id="SVGID_115_" d="M81.84,159.767V72.499l-8.303-10.769l-1.507,1.912c0,0,4.394,5.445,4.48,11.637
						c0.021,0.106,0.026,0.203,0.04,0.305h-0.018c0.017,0.136,0.031,0.269,0.031,0.394c0,2.839,0,82.789,0,82.789
						c-0.25,5.031-5.681,5.677-5.681,5.677v2.842h10.962v-7.518H81.84z"/>
				</defs>
				<clipPath id="SVGID_116_">
					<use xlink:href="#SVGID_115_"  overflow="visible"/>
				</clipPath>
				<path clip-path="url(#SVGID_116_)" fill="none" stroke="#010101" stroke-width="0.4722" stroke-miterlimit="10" d="
					M6.785,61.543"/>
			</g>
		</g>
	</g>
	<g>
		<g>
			<g>
				<defs>
					<path id="SVGID_117_" d="M81.84,159.767V72.499l-8.303-10.769l-1.507,1.912c0,0,4.394,5.445,4.48,11.637
						c0.021,0.106,0.026,0.203,0.04,0.305h-0.018c0.017,0.136,0.031,0.269,0.031,0.394c0,2.839,0,82.789,0,82.789
						c-0.25,5.031-5.681,5.677-5.681,5.677v2.842h10.962v-7.518H81.84z"/>
				</defs>
				<clipPath id="SVGID_118_">
					<use xlink:href="#SVGID_117_"  overflow="visible"/>
				</clipPath>
				<path clip-path="url(#SVGID_118_)" fill="none" stroke="#010101" stroke-width="0.4722" stroke-miterlimit="10" d="
					M87.373,171.247"/>
			</g>
		</g>
	</g>
	<g>
		<g>
			<g>
				<defs>
					<path id="SVGID_119_" d="M81.84,159.767V72.499l-8.303-10.769l-1.507,1.912c0,0,4.394,5.445,4.48,11.637
						c0.021,0.106,0.026,0.203,0.04,0.305h-0.018c0.017,0.136,0.031,0.269,0.031,0.394c0,2.839,0,82.789,0,82.789
						c-0.25,5.031-5.681,5.677-5.681,5.677v2.842h10.962v-7.518H81.84z"/>
				</defs>
				<clipPath id="SVGID_120_">
					<use xlink:href="#SVGID_119_"  overflow="visible"/>
				</clipPath>
				<path clip-path="url(#SVGID_120_)" fill="none" stroke="#010101" stroke-width="0.4722" stroke-miterlimit="10" d="M3.76,61.543
					"/>
			</g>
		</g>
	</g>
	<g>
		<g>
			<g>
				<defs>
					<path id="SVGID_121_" d="M81.84,159.767V72.499l-8.303-10.769l-1.507,1.912c0,0,4.394,5.445,4.48,11.637
						c0.021,0.106,0.026,0.203,0.04,0.305h-0.018c0.017,0.136,0.031,0.269,0.031,0.394c0,2.839,0,82.789,0,82.789
						c-0.25,5.031-5.681,5.677-5.681,5.677v2.842h10.962v-7.518H81.84z"/>
				</defs>
				<clipPath id="SVGID_122_">
					<use xlink:href="#SVGID_121_"  overflow="visible"/>
				</clipPath>
				<path clip-path="url(#SVGID_122_)" fill="none" stroke="#010101" stroke-width="0.4722" stroke-miterlimit="10" d="
					M84.347,171.247"/>
			</g>
		</g>
	</g>
	<g>
		<g>
			<g>
				<defs>
					<path id="SVGID_123_" d="M81.84,159.767V72.499l-8.303-10.769l-1.507,1.912c0,0,4.394,5.445,4.48,11.637
						c0.021,0.106,0.026,0.203,0.04,0.305h-0.018c0.017,0.136,0.031,0.269,0.031,0.394c0,2.839,0,82.789,0,82.789
						c-0.25,5.031-5.681,5.677-5.681,5.677v2.842h10.962v-7.518H81.84z"/>
				</defs>
				<clipPath id="SVGID_124_">
					<use xlink:href="#SVGID_123_"  overflow="visible"/>
				</clipPath>
				<path clip-path="url(#SVGID_124_)" fill="none" stroke="#010101" stroke-width="0.4722" stroke-miterlimit="10" d="
					M0.734,61.543"/>
			</g>
		</g>
	</g>
	<g>
		<g>
			<g>
				<defs>
					<path id="SVGID_125_" d="M81.84,159.767V72.499l-8.303-10.769l-1.507,1.912c0,0,4.394,5.445,4.48,11.637
						c0.021,0.106,0.026,0.203,0.04,0.305h-0.018c0.017,0.136,0.031,0.269,0.031,0.394c0,2.839,0,82.789,0,82.789
						c-0.25,5.031-5.681,5.677-5.681,5.677v2.842h10.962v-7.518H81.84z"/>
				</defs>
				<clipPath id="SVGID_126_">
					<use xlink:href="#SVGID_125_"  overflow="visible"/>
				</clipPath>
				<path clip-path="url(#SVGID_126_)" fill="none" stroke="#010101" stroke-width="0.4722" stroke-miterlimit="10" d="
					M81.322,171.247"/>
			</g>
		</g>
	</g>
	<g>
		<g>
			<g>
				<defs>
					<path id="SVGID_127_" d="M81.84,159.767V72.499l-8.303-10.769l-1.507,1.912c0,0,4.394,5.445,4.48,11.637
						c0.021,0.106,0.026,0.203,0.04,0.305h-0.018c0.017,0.136,0.031,0.269,0.031,0.394c0,2.839,0,82.789,0,82.789
						c-0.25,5.031-5.681,5.677-5.681,5.677v2.842h10.962v-7.518H81.84z"/>
				</defs>
				<clipPath id="SVGID_128_">
					<use xlink:href="#SVGID_127_"  overflow="visible"/>
				</clipPath>
				<path clip-path="url(#SVGID_128_)" fill="none" stroke="#010101" stroke-width="0.4722" stroke-miterlimit="10" d="
					M-2.289,61.543"/>
			</g>
		</g>
	</g>
	<g>
		<g>
			<g>
				<defs>
					<path id="SVGID_129_" d="M81.84,159.767V72.499l-8.303-10.769l-1.507,1.912c0,0,4.394,5.445,4.48,11.637
						c0.021,0.106,0.026,0.203,0.04,0.305h-0.018c0.017,0.136,0.031,0.269,0.031,0.394c0,2.839,0,82.789,0,82.789
						c-0.25,5.031-5.681,5.677-5.681,5.677v2.842h10.962v-7.518H81.84z"/>
				</defs>
				<clipPath id="SVGID_130_">
					<use xlink:href="#SVGID_129_"  overflow="visible"/>
				</clipPath>
				<path clip-path="url(#SVGID_130_)" fill="none" stroke="#010101" stroke-width="0.4722" stroke-miterlimit="10" d="
					M78.296,171.247"/>
			</g>
		</g>
	</g>
	<g>
		<g>
			<g>
				<defs>
					<path id="SVGID_131_" d="M81.84,159.767V72.499l-8.303-10.769l-1.507,1.912c0,0,4.394,5.445,4.48,11.637
						c0.021,0.106,0.026,0.203,0.04,0.305h-0.018c0.017,0.136,0.031,0.269,0.031,0.394c0,2.839,0,82.789,0,82.789
						c-0.25,5.031-5.681,5.677-5.681,5.677v2.842h10.962v-7.518H81.84z"/>
				</defs>
				<clipPath id="SVGID_132_">
					<use xlink:href="#SVGID_131_"  overflow="visible"/>
				</clipPath>
				<path clip-path="url(#SVGID_132_)" fill="none" stroke="#010101" stroke-width="0.4722" stroke-miterlimit="10" d="
					M-5.313,61.543"/>
			</g>
		</g>
	</g>
	<g>
		<g>
			<g>
				<defs>
					<path id="SVGID_133_" d="M81.84,159.767V72.499l-8.303-10.769l-1.507,1.912c0,0,4.394,5.445,4.48,11.637
						c0.021,0.106,0.026,0.203,0.04,0.305h-0.018c0.017,0.136,0.031,0.269,0.031,0.394c0,2.839,0,82.789,0,82.789
						c-0.25,5.031-5.681,5.677-5.681,5.677v2.842h10.962v-7.518H81.84z"/>
				</defs>
				<clipPath id="SVGID_134_">
					<use xlink:href="#SVGID_133_"  overflow="visible"/>
				</clipPath>
				<path clip-path="url(#SVGID_134_)" fill="none" stroke="#010101" stroke-width="0.4722" stroke-miterlimit="10" d="
					M75.271,171.247"/>
			</g>
		</g>
	</g>
</g>
<polygon fill="none" stroke="#D2B0B0" stroke-width="0.6557" stroke-miterlimit="10" points="76.359,167.203 81.812,159.82 
	87.264,167.203 "/>
<path fill="none" d="M119.46,120.232c0,0,8.395,10.161,9.133,11.107l-0.227,6.461c-0.892-1.219-8.438-10.695-8.438-10.695
	L119.46,120.232z"/>
<path fill="none" stroke="#D2B0B0" stroke-width="0.9181" stroke-miterlimit="10" d="M121.227,122.194
	c0.85,1.033,2.022,2.456,3.211,3.902c2.262,2.747,4.597,5.593,4.963,6.062"/>
<path fill="none" stroke="#D2B0B0" stroke-width="0.9181" stroke-miterlimit="10" d="M128.425,138.099
	c-0.394-0.533-2.136-2.824-3.976-5.24c-2.366-3.111-4.895-6.418-4.895-6.418"/>
<g>
	<path fill="#D2B0B0" d="M71.815,35.75c-0.046-0.117-0.01-0.273,0.089-0.343l0.195-0.142c0.074-0.052,0.229-0.07,0.307-0.015
		l7.072,4.424l0.049-0.035l-1.958-8.104c-0.028-0.091,0.024-0.224,0.112-0.286l0.196-0.142c0.097-0.071,0.256-0.055,0.352,0.026
		l7.439,7.158c0.161,0.144,0.156,0.316-0.015,0.439l-0.799,0.574c-0.11,0.08-0.269,0.063-0.356-0.004l-4.853-4.83
		c-0.011,0.009-0.038,0.028-0.038,0.028l1.853,7.23c0.028,0.092-0.001,0.206-0.111,0.285l-0.221,0.159
		c-0.098,0.071-0.228,0.071-0.306,0.015l-6.28-4.045c-0.013,0.008-0.036,0.025-0.049,0.035l3.062,6.119
		c0.049,0.095,0.002,0.26-0.098,0.33l-0.798,0.574c-0.172,0.124-0.336,0.075-0.436-0.115L71.815,35.75z"/>
	<path fill="#D2B0B0" d="M89.399,25.23c-0.062-0.137,0.005-0.317,0.142-0.38l0.909-0.413c0.136-0.062,0.316,0.004,0.378,0.142
		l4.146,9.103c0.063,0.138-0.005,0.317-0.142,0.38l-0.908,0.414c-0.136,0.062-0.317-0.005-0.379-0.143L89.399,25.23z"/>
	<path fill="#D2B0B0" d="M101.537,20.36c-0.034-0.147,0.072-0.296,0.218-0.331l0.368-0.086l8.113,5.891l0.016-0.002l-1.628-6.958
		c-0.035-0.146,0.051-0.307,0.215-0.345l0.941-0.22c0.149-0.034,0.309,0.067,0.346,0.214l2.316,9.898
		c0.034,0.148-0.072,0.296-0.218,0.332l-0.383,0.089l-8.161-6.096l-0.014,0.003l1.677,7.163c0.033,0.148-0.052,0.308-0.214,0.345
		l-0.927,0.217c-0.147,0.034-0.311-0.066-0.345-0.213L101.537,20.36z"/>
	<path fill="#D2B0B0" d="M121.816,17.281c0.002-0.151,0.126-0.286,0.278-0.281l3.475,0.063c2.915,0.055,5.258,2.471,5.206,5.372
		c-0.057,2.931-2.487,5.259-5.402,5.206l-3.473-0.064c-0.152-0.003-0.272-0.141-0.268-0.293L121.816,17.281z M125.188,26.201
		c2.22,0.042,3.867-1.561,3.908-3.795c0.043-2.222-1.545-3.868-3.765-3.91l-1.996-0.037l-0.142,7.707L125.188,26.201z"/>
	<path fill="#D2B0B0" d="M141.574,19.049c0.036-0.146,0.185-0.249,0.345-0.21l5.868,1.434c0.162,0.04,0.247,0.199,0.212,0.348
		l-0.202,0.819c-0.035,0.147-0.185,0.25-0.346,0.211l-4.635-1.132l-0.83,3.389l3.917,0.957c0.146,0.035,0.247,0.2,0.212,0.346
		l-0.197,0.806c-0.035,0.148-0.2,0.248-0.348,0.211l-3.915-0.957l-0.944,3.859c-0.034,0.147-0.198,0.246-0.344,0.21l-0.953-0.233
		c-0.161-0.041-0.247-0.201-0.213-0.347L141.574,19.049z"/>
	<path fill="#D2B0B0" d="M157.82,24.172c0.064-0.134,0.247-0.197,0.384-0.131l0.907,0.448c0.148,0.073,0.198,0.249,0.133,0.384
		l-2.754,5.596c-0.665,1.354-0.317,2.837,1.064,3.518c1.396,0.687,2.791,0.076,3.45-1.265l2.765-5.622
		c0.068-0.136,0.235-0.204,0.385-0.131l0.908,0.446c0.134,0.067,0.196,0.249,0.132,0.383l-2.8,5.691
		c-1.009,2.059-3.364,2.905-5.503,1.852c-2.126-1.045-2.88-3.417-1.865-5.477L157.82,24.172z"/>
	<path fill="#D2B0B0" d="M174.759,33.983c0.094-0.12,0.271-0.153,0.402-0.052l0.79,0.609c0.118,0.092,0.142,0.283,0.051,0.403
		l-5.426,7.036l3.243,2.501c0.132,0.101,0.145,0.282,0.05,0.402l-0.508,0.658c-0.091,0.12-0.271,0.154-0.402,0.053l-4.258-3.285
		c-0.132-0.101-0.144-0.283-0.053-0.402L174.759,33.983z"/>
</g>
<g id="g2462_3_">
	<path id="path2530_3_" marker-mid="none" marker-end="none" marker-start="none" fill="#D2B0B0" d="M120.637,227.05
		c0-1.995,1.668-3.618,3.721-3.618c2.053,0,3.758,1.623,3.72,3.618c-0.049,2.683-2.095,3.771-3.72,6.851
		C122.633,230.923,120.637,229.052,120.637,227.05z"/>
</g>
<g>
	<path fill="#D2B0B0" d="M74.512,219.12l4.251-9.322c0.042-0.083,0.167-0.153,0.235-0.153h0.139c0.069,0,0.194,0.07,0.236,0.153
		l4.224,9.322c0.084,0.179-0.027,0.361-0.235,0.361h-0.873c-0.165,0-0.262-0.086-0.319-0.208l-0.858-1.897h-4.529
		c-0.277,0.636-0.568,1.26-0.845,1.897c-0.042,0.097-0.151,0.208-0.317,0.208H74.75C74.539,219.481,74.429,219.299,74.512,219.12z
		 M80.785,216.186l-1.703-3.796h-0.069l-1.689,3.796H80.785z"/>
	<path fill="#D2B0B0" d="M91.34,211.085h-2.256c-0.155,0-0.266-0.122-0.266-0.262v-0.773c0-0.14,0.111-0.264,0.266-0.264h5.954
		c0.152,0,0.262,0.124,0.262,0.264v0.773c0,0.14-0.109,0.262-0.262,0.262H92.78v8.131c0,0.138-0.124,0.266-0.263,0.266h-0.913
		c-0.139,0-0.263-0.128-0.263-0.266V211.085L91.34,211.085z"/>
	<path fill="#D2B0B0" d="M103.905,211.085h-2.259c-0.151,0-0.263-0.122-0.263-0.262v-0.773c0-0.14,0.112-0.264,0.263-0.264h5.957
		c0.151,0,0.262,0.124,0.262,0.264v0.773c0,0.14-0.111,0.262-0.262,0.262h-2.256v8.131c0,0.138-0.126,0.266-0.265,0.266h-0.914
		c-0.138,0-0.262-0.128-0.262-0.266V211.085z"/>
	<path fill="#D2B0B0" d="M114.903,210.05c0-0.14,0.122-0.264,0.262-0.264h0.914c0.139,0,0.264,0.124,0.264,0.264v9.166
		c0,0.138-0.125,0.266-0.264,0.266h-0.914c-0.14,0-0.262-0.128-0.262-0.266V210.05z"/>
	<path fill="#D2B0B0" d="M125.899,211.085h-2.258c-0.154,0-0.261-0.122-0.261-0.262v-0.773c0-0.14,0.107-0.264,0.261-0.264h5.956
		c0.152,0,0.264,0.124,0.264,0.264v0.773c0,0.14-0.111,0.262-0.264,0.262h-2.258v8.131c0,0.138-0.126,0.266-0.265,0.266h-0.912
		c-0.14,0-0.263-0.128-0.263-0.266V211.085L125.899,211.085z"/>
	<path fill="#D2B0B0" d="M136.772,210.05c0-0.14,0.125-0.264,0.262-0.264h0.926c0.154,0,0.266,0.124,0.266,0.264v5.719
		c0,1.384,0.887,2.466,2.298,2.466c1.425,0,2.325-1.066,2.325-2.438v-5.746c0-0.14,0.11-0.264,0.265-0.264h0.926
		c0.14,0,0.264,0.124,0.264,0.264v5.817c0,2.102-1.595,3.752-3.781,3.752c-2.174,0-3.753-1.65-3.753-3.752L136.772,210.05
		L136.772,210.05z"/>
	<path fill="#D2B0B0" d="M152.411,210.05c0-0.14,0.106-0.264,0.249-0.264h3.184c2.674,0,4.861,2.175,4.861,4.833
		c0,2.688-2.188,4.862-4.861,4.862h-3.184c-0.141,0-0.249-0.128-0.249-0.266V210.05L152.411,210.05z M155.649,218.163
		c2.034,0,3.517-1.493,3.517-3.544c0-2.037-1.481-3.515-3.517-3.515h-1.829v7.059H155.649z"/>
	<path fill="#D2B0B0" d="M168.241,210.05c0-0.14,0.11-0.264,0.262-0.264h5.542c0.15,0,0.263,0.124,0.263,0.264v0.773
		c0,0.14-0.112,0.262-0.263,0.262h-4.376v2.83h3.698c0.137,0,0.263,0.122,0.263,0.26v0.777c0,0.151-0.126,0.262-0.263,0.262h-3.698
		v2.975h4.376c0.15,0,0.263,0.126,0.263,0.264v0.764c0,0.136-0.112,0.264-0.263,0.264h-5.542c-0.151,0-0.262-0.128-0.262-0.264
		V210.05z"/>
</g>
</svg>
