<?xml version="1.0" encoding="utf-8"?>
<!-- Generator: Adobe Illustrator 16.0.0, SVG Export Plug-In . SVG Version: 6.00 Build 0)  -->
<!DOCTYPE svg PUBLIC "-//W3C//DTD SVG 1.1//EN" "http://www.w3.org/Graphics/SVG/1.1/DTD/svg11.dtd">
<svg version="1.1" id="Calque_1" xmlns="http://www.w3.org/2000/svg" xmlns:xlink="http://www.w3.org/1999/xlink" x="0px" y="0px"
	 width="400px" height="330px" viewBox="0 0 400 330" enable-background="new 0 0 400 330" xml:space="preserve">
<g>
	<g>
		<path fill="#1D1D1B" d="M137.588,63.565c0.018-0.241,0.007-0.5,0.025-0.74c0.018-0.241,0.171-0.402,0.385-0.369
			c0.118,0.02,1.626,0.266,2.639-0.33c0.907-0.533,1.161-1.427,0.767-2.097c-0.464-0.79-1.442-0.887-3.062-0.66
			c-1.674,0.223-3.137,0.145-4.034-1.381c-0.604-1.026-0.642-2.897,1.45-4.128c1.314-0.773,2.703-0.67,2.89-0.655
			c0.144,0.004,0.357,0.127,0.342,0.401c-0.013,0.22-0.022,0.474-0.035,0.693c-0.005,0.232-0.129,0.412-0.383,0.402
			c-0.123,0.001-1.399-0.062-2.162,0.387c-1.105,0.649-1.077,1.571-0.79,2.058c0.44,0.75,1.29,0.87,2.645,0.675
			c1.89-0.279,3.617-0.321,4.561,1.283c0.805,1.368,0.239,3.205-1.471,4.211c-1.604,0.943-3.112,0.697-3.438,0.624
			C137.734,63.904,137.588,63.866,137.588,63.565z"/>
		<path fill="#1D1D1B" d="M146.438,49.99l-2.256,1.053c-0.152,0.07-0.321-0.002-0.386-0.141l-0.361-0.775
			c-0.064-0.138-0.012-0.314,0.141-0.386l5.95-2.775c0.152-0.07,0.321,0.002,0.386,0.141l0.361,0.775
			c0.065,0.138,0.013,0.314-0.14,0.386l-2.256,1.052l3.788,8.124c0.065,0.138-0.001,0.32-0.14,0.386l-0.914,0.426
			c-0.138,0.064-0.32-0.002-0.385-0.141L146.438,49.99z"/>
		<path fill="#1D1D1B" d="M155.353,44.88c-0.05-0.145,0.036-0.319,0.181-0.368l0.968-0.332c0.159-0.054,0.319,0.036,0.368,0.181
			l2.042,5.968c0.494,1.445,1.805,2.256,3.278,1.752c1.489-0.51,2.048-1.943,1.558-3.374l-2.052-5.997
			c-0.049-0.145,0.022-0.313,0.181-0.368l0.969-0.331c0.145-0.05,0.318,0.036,0.368,0.181l2.076,6.069
			c0.752,2.196-0.321,4.484-2.604,5.266c-2.269,0.775-4.505-0.38-5.256-2.576L155.353,44.88z"/>
		<path fill="#1D1D1B" d="M170.217,40.275c-0.031-0.149,0.061-0.309,0.21-0.34l3.436-0.72c2.884-0.604,5.734,1.247,6.335,4.115
			c0.607,2.898-1.262,5.738-4.146,6.342l-3.436,0.72c-0.149,0.031-0.297-0.078-0.328-0.228L170.217,40.275z M175.546,48.298
			c2.196-0.46,3.456-2.408,2.993-4.619c-0.459-2.196-2.393-3.46-4.589-3l-1.972,0.413l1.596,7.618L175.546,48.298z"/>
		<path fill="#1D1D1B" d="M185.63,37.572c-0.017-0.152,0.104-0.304,0.257-0.32l1.001-0.111c0.151-0.017,0.303,0.104,0.319,0.257
			l1.111,10.04c0.017,0.152-0.104,0.304-0.256,0.32l-1.001,0.111c-0.152,0.017-0.304-0.105-0.32-0.257L185.63,37.572z"/>
		<path fill="#1D1D1B" d="M199.133,36.267c3.053-0.049,5.532,2.369,5.581,5.421c0.05,3.052-2.354,5.517-5.405,5.565
			c-3.051,0.048-5.518-2.339-5.566-5.391C193.695,38.81,196.081,36.315,199.133,36.267z M199.284,45.727
			c2.182-0.034,3.938-1.833,3.903-4.015c-0.035-2.167-1.851-3.954-4.03-3.919c-2.167,0.034-3.923,1.879-3.889,4.045
			C195.304,44.021,197.117,45.762,199.284,45.727z"/>
		<path fill="#1D1D1B" d="M219.872,43.44l-2.699-5.608c-0.088-0.216,0.072-0.437,0.313-0.397l1.113,0.183
			c0.121,0.021,0.185,0.108,0.219,0.176l2.097,4.288l3.356-3.394c0.055-0.053,0.155-0.113,0.263-0.096l1.13,0.186
			c0.24,0.039,0.32,0.3,0.169,0.476l-4.394,4.43l-0.787,4.805c-0.025,0.15-0.185,0.264-0.334,0.238l-0.993-0.163
			c-0.166-0.026-0.265-0.182-0.239-0.333L219.872,43.44z"/>
		<path fill="#1D1D1B" d="M236.078,41.2c2.936,0.843,4.605,3.88,3.764,6.815c-0.843,2.936-3.859,4.596-6.796,3.754
			c-2.937-0.843-4.601-3.846-3.759-6.782C230.13,42.052,233.143,40.358,236.078,41.2z M233.467,50.302
			c2.1,0.602,4.305-0.608,4.907-2.707c0.599-2.085-0.618-4.324-2.718-4.927c-2.084-0.598-4.303,0.656-4.9,2.741
			C230.152,47.508,231.382,49.703,233.467,50.302z"/>
		<path fill="#1D1D1B" d="M251.961,46.914c1.346,0.578,2.243,1.545,2.848,2.769c0.063,0.16,0.006,0.335-0.154,0.398
			c-0.307,0.134-0.606,0.254-0.913,0.388c-0.168,0.078-0.273,0.016-0.359-0.171c-0.409-0.857-1.116-1.61-1.974-1.978
			c-1.991-0.856-4.243,0.17-5.088,2.133c-0.838,1.949-0.031,4.289,1.959,5.145c1.164,0.5,2.145,0.424,2.31,0.428l0.677-1.57
			l-1.375-0.591c-0.154-0.066-0.22-0.227-0.158-0.367l0.351-0.813c0.065-0.154,0.228-0.218,0.381-0.151l2.552,1.097
			c0.142,0.061,0.198,0.234,0.139,0.375c-0.48,1.122-0.963,2.277-1.443,3.399c-0.029,0.07-0.134,0.158-0.208,0.176
			c0,0-1.843,0.305-3.876-0.569c-2.79-1.199-4.09-4.399-2.884-7.204C245.941,47.002,249.17,45.714,251.961,46.914z"/>
		<path fill="#1D1D1B" d="M255.191,59.914l9.19-6.551c0.085-0.057,0.242-0.055,0.31-0.016l0.133,0.076
			c0.066,0.038,0.146,0.173,0.141,0.274l-1.104,11.221c-0.021,0.217-0.227,0.328-0.424,0.214l-0.832-0.481
			c-0.158-0.091-0.205-0.224-0.188-0.373l0.226-2.283L258.32,59.5c-0.615,0.455-1.236,0.89-1.854,1.345
			c-0.093,0.069-0.26,0.114-0.418,0.022l-0.832-0.48C255.021,60.272,255.014,60.04,255.191,59.914z M262.796,60.568l0.465-4.559
			l-0.065-0.039l-3.701,2.69L262.796,60.568z"/>
	</g>
</g>
<g>
	<g>
		<path fill="#1D1D1B" d="M114.428,244.83c0.109-0.107,0.293-0.116,0.41,0.004l2.436,2.484c1.313,1.34,1.303,3.508-0.016,4.801
			c-1.351,1.324-3.529,1.303-4.833-0.026l-1.549-1.579l-2.561,2.51c-0.108,0.106-0.303,0.104-0.409-0.004l-0.694-0.709
			c-0.118-0.119-0.105-0.303,0.004-0.41L114.428,244.83z M113.418,250.971c0.737,0.752,1.967,0.784,2.751,0.016
			c0.741-0.727,0.688-1.912-0.049-2.666l-1.475-1.502l-2.702,2.647L113.418,250.971z"/>
		<path fill="#1D1D1B" d="M123.283,253.41c0.097-0.118,0.278-0.146,0.408-0.041l3.213,2.632c1.417,1.161,1.655,3.229,0.504,4.638
			c-0.89,1.086-2.346,1.395-3.712,0.965l-0.839,4.324c-0.043,0.223-0.28,0.344-0.481,0.18l-0.921-0.756
			c-0.095-0.076-0.117-0.192-0.102-0.261l0.992-4.417l-1.783-1.46l-2.467,3.011c-0.097,0.118-0.29,0.14-0.408,0.041l-0.768-0.629
			c-0.13-0.104-0.138-0.289-0.041-0.408L123.283,253.41z M123.521,259.939c0.768,0.629,1.973,0.528,2.641-0.285
			c0.629-0.77,0.478-1.956-0.29-2.586l-2.103-1.721l-2.351,2.867L123.521,259.939z"/>
		<path fill="#1D1D1B" d="M127.228,269.247l9.511-6.082c0.089-0.054,0.245-0.042,0.31,0l0.128,0.082
			c0.064,0.042,0.138,0.181,0.127,0.282l-1.667,11.152c-0.031,0.217-0.241,0.315-0.434,0.191l-0.808-0.521
			c-0.153-0.1-0.193-0.232-0.17-0.384l0.34-2.27l-4.191-2.709c-0.637,0.424-1.279,0.825-1.916,1.25
			c-0.097,0.063-0.266,0.102-0.42,0.002l-0.807-0.521C127.038,269.598,127.043,269.364,127.228,269.247z M134.79,270.283
			l0.694-4.531l-0.064-0.041l-3.834,2.501L134.79,270.283z"/>
		<path fill="#1D1D1B" d="M145.634,269.999l-2.214-1.14c-0.149-0.076-0.195-0.256-0.125-0.393l0.391-0.76
			c0.07-0.139,0.242-0.202,0.392-0.126l5.839,3.005c0.149,0.077,0.195,0.256,0.125,0.393l-0.391,0.76
			c-0.07,0.137-0.241,0.203-0.391,0.127l-2.214-1.141l-4.103,7.973c-0.069,0.136-0.255,0.195-0.391,0.125l-0.896-0.461
			c-0.136-0.069-0.195-0.256-0.125-0.393L145.634,269.999z"/>
		<path fill="#1D1D1B" d="M154.678,273.011c0.059-0.142,0.238-0.216,0.38-0.155l0.931,0.389c0.141,0.059,0.215,0.236,0.156,0.379
			l-3.89,9.334c-0.059,0.143-0.238,0.215-0.379,0.154l-0.931-0.387c-0.142-0.06-0.215-0.238-0.156-0.381L154.678,273.011z"/>
		<path fill="#1D1D1B" d="M166.608,276.861c2.923,0.887,4.55,3.947,3.665,6.871c-0.629,2.076-2.387,3.506-4.421,3.849l0.919,3.342
			c0.07,0.244-0.133,0.438-0.366,0.368l-1.141-0.346c-0.058-0.02-0.162-0.098-0.189-0.217l-0.773-3.141
			c-0.291-0.04-0.617-0.123-0.88-0.202c-2.924-0.885-4.544-3.911-3.659-6.837C160.647,277.628,163.685,275.979,166.608,276.861z
			 M163.864,285.926c2.091,0.633,4.314-0.545,4.947-2.636c0.628-2.075-0.556-4.333-2.646-4.966c-2.075-0.629-4.312,0.594-4.94,2.669
			C160.592,283.084,161.789,285.298,163.864,285.926z"/>
		<path fill="#1D1D1B" d="M176.853,279.992c0.025-0.15,0.185-0.264,0.335-0.238l1.009,0.17c0.166,0.028,0.264,0.184,0.238,0.334
			l-1.046,6.221c-0.254,1.506,0.513,2.845,2.049,3.103c1.551,0.261,2.725-0.733,2.976-2.226l1.052-6.25
			c0.025-0.15,0.168-0.268,0.334-0.237l1.009,0.17c0.15,0.024,0.264,0.185,0.238,0.334l-1.063,6.325
			c-0.386,2.287-2.419,3.79-4.798,3.39c-2.365-0.396-3.78-2.479-3.396-4.769L176.853,279.992z"/>
		<path fill="#1D1D1B" d="M191.1,281.984c0.009-0.151,0.139-0.281,0.306-0.272l6.098,0.336c0.168,0.009,0.282,0.153,0.273,0.306
			l-0.047,0.854c-0.008,0.151-0.138,0.283-0.306,0.272l-4.816-0.266l-0.172,3.109l4.07,0.224c0.152,0.011,0.282,0.153,0.273,0.308
			l-0.047,0.854c-0.009,0.168-0.153,0.282-0.306,0.273l-4.069-0.226l-0.181,3.277l4.816,0.266c0.168,0.011,0.282,0.153,0.274,0.308
			l-0.047,0.838c-0.008,0.152-0.138,0.283-0.306,0.271l-6.097-0.335c-0.168-0.01-0.282-0.151-0.274-0.306L191.1,281.984z"/>
		<path fill="#1D1D1B" d="M203.119,291.203c0.128-0.204,0.238-0.438,0.367-0.643s0.34-0.275,0.514-0.146
			c0.096,0.072,1.312,0.995,2.486,0.941c1.052-0.047,1.693-0.719,1.658-1.496c-0.041-0.914-0.859-1.457-2.396-2.014
			c-1.585-0.588-2.841-1.341-2.92-3.106c-0.055-1.189,0.787-2.861,3.211-2.972c1.523-0.068,2.703,0.672,2.859,0.771
			c0.127,0.068,0.258,0.277,0.115,0.516c-0.113,0.188-0.24,0.406-0.354,0.596c-0.113,0.203-0.308,0.305-0.526,0.178
			c-0.109-0.057-1.208-0.71-2.093-0.67c-1.28,0.058-1.687,0.886-1.66,1.449c0.039,0.869,0.733,1.371,2.022,1.834
			c1.801,0.637,3.348,1.406,3.431,3.267c0.071,1.586-1.287,2.944-3.271,3.034c-1.858,0.084-3.076-0.84-3.33-1.057
			C203.09,291.57,202.979,291.469,203.119,291.203z"/>
		<path fill="#1D1D1B" d="M221.632,280.543c-0.032-0.148,0.06-0.311,0.208-0.342l3.432-0.744c2.881-0.624,5.746,1.208,6.367,4.072
			c0.629,2.896-1.223,5.75-4.103,6.373l-3.433,0.744c-0.148,0.032-0.299-0.076-0.33-0.227L221.632,280.543z M227.02,288.531
			c2.194-0.477,3.441-2.434,2.963-4.643c-0.476-2.193-2.418-3.445-4.61-2.971l-1.972,0.43l1.649,7.608L227.02,288.531z"/>
		<path fill="#1D1D1B" d="M240.021,275.125c2.875-1.025,6,0.469,7.024,3.344s-0.46,5.98-3.334,7.006
			c-2.875,1.025-5.978-0.445-7.001-3.317C235.688,279.279,237.146,276.15,240.021,275.125z M243.201,284.037
			c2.055-0.732,3.142-3,2.408-5.057c-0.729-2.041-3.021-3.15-5.074-2.418c-2.041,0.729-3.113,3.039-2.385,5.08
			C238.883,283.697,241.16,284.766,243.201,284.037z"/>
		<path fill="#1D1D1B" d="M250.118,271.562c-0.069-0.137-0.009-0.319,0.128-0.391l0.911-0.462c0.149-0.076,0.321-0.009,0.39,0.128
			l2.85,5.621c0.688,1.359,2.1,1.98,3.486,1.275c1.402-0.709,1.756-2.207,1.072-3.553l-2.861-5.647
			c-0.068-0.138-0.021-0.314,0.127-0.392l0.912-0.463c0.137-0.068,0.32-0.008,0.391,0.129l2.896,5.717
			c1.049,2.067,0.305,4.48-1.847,5.57c-2.138,1.084-4.511,0.25-5.56-1.818L250.118,271.562z"/>
		<path fill="#1D1D1B" d="M266.422,261.753c1.282-0.854,2.497-1.042,3.859-0.869c0.183,0.025,0.283,0.179,0.25,0.347l-0.178,0.944
			c-0.014,0.175-0.127,0.25-0.316,0.212c-0.944-0.123-1.979,0.09-2.766,0.614c-1.814,1.211-2.17,3.649-0.983,5.427
			c1.187,1.778,3.577,2.364,5.394,1.153c0.926-0.618,1.328-1.418,1.625-2.294c0.055-0.165,0.178-0.229,0.295-0.217l0.965,0.183
			c0.162,0.021,0.246,0.203,0.219,0.351c-0.307,1.414-1.135,2.537-2.266,3.291c-2.539,1.692-5.93,1.037-7.623-1.502
			C263.202,266.854,263.883,263.445,266.422,261.753z"/>
		<path fill="#1D1D1B" d="M274.061,256.714c-0.099-0.116-0.094-0.301,0.035-0.407l4.676-3.932c0.129-0.107,0.312-0.082,0.408,0.035
			l0.551,0.654c0.1,0.117,0.095,0.301-0.035,0.408l-3.692,3.104l2.005,2.385l3.12-2.624c0.117-0.098,0.312-0.081,0.409,0.036
			l0.55,0.652c0.106,0.131,0.082,0.312-0.035,0.408l-3.118,2.625l2.11,2.514l3.692-3.104c0.13-0.106,0.312-0.081,0.408,0.035
			l0.541,0.644c0.1,0.117,0.094,0.302-0.035,0.41l-4.676,3.93c-0.129,0.106-0.312,0.082-0.408-0.034L274.061,256.714z"/>
		<path fill="#1D1D1B" d="M289.13,255.216c-0.047-0.237-0.126-0.483-0.172-0.722c-0.047-0.236,0.06-0.434,0.274-0.457
			c0.117-0.012,1.639-0.173,2.459-1.016c0.733-0.756,0.744-1.686,0.187-2.229c-0.657-0.641-1.626-0.477-3.13,0.172
			c-1.557,0.658-2.988,0.971-4.258-0.267c-0.854-0.831-1.385-2.628,0.309-4.366c1.065-1.096,2.434-1.359,2.616-1.396
			c0.14-0.035,0.378,0.026,0.437,0.297c0.047,0.216,0.104,0.463,0.148,0.68c0.059,0.227-0.016,0.434-0.264,0.488
			c-0.117,0.033-1.366,0.311-1.984,0.943c-0.895,0.92-0.623,1.801-0.219,2.194c0.624,0.606,1.476,0.499,2.73-0.047
			c1.75-0.769,3.404-1.267,4.739,0.032c1.14,1.106,1.077,3.031-0.31,4.453c-1.299,1.334-2.817,1.496-3.151,1.512
			C289.359,255.504,289.209,255.506,289.13,255.216z"/>
	</g>
</g>
<path fill="#1D1D1B" d="M212.914,167.02"/>
<path fill="none" stroke="#9AD1CA" stroke-width="1.2355" stroke-miterlimit="10" d="M208.666,173.9"/>
<g>
	<path fill="#B6925E" d="M100.122,166.396l-3.51,3.51c-0.228,0.227-0.641,0.227-0.866,0.002l-0.958-0.959
		c-0.229-0.229-0.229-0.641-0.001-0.867l3.511-3.512l-3.531-3.531c-0.229-0.23-0.205-0.615,0.022-0.844l0.957-0.957
		c0.229-0.229,0.614-0.252,0.844-0.023l3.531,3.531l3.509-3.51c0.229-0.229,0.617-0.205,0.846,0.023l0.958,0.959
		c0.226,0.225,0.249,0.615,0.021,0.844l-3.509,3.508l3.487,3.491c0.229,0.228,0.205,0.614-0.023,0.844l-0.957,0.957
		c-0.228,0.228-0.615,0.25-0.843,0.021L100.122,166.396z"/>
</g>
<g>
	<path fill="#B6925E" d="M301.332,166.396l-3.51,3.51c-0.227,0.227-0.641,0.227-0.865,0.002l-0.959-0.959
		c-0.229-0.229-0.229-0.641,0-0.867l3.51-3.512l-3.531-3.531c-0.229-0.23-0.205-0.615,0.023-0.844l0.957-0.957
		c0.229-0.229,0.613-0.252,0.844-0.023l3.531,3.531l3.508-3.51c0.229-0.229,0.617-0.205,0.846,0.023l0.959,0.959
		c0.227,0.225,0.248,0.615,0.021,0.844l-3.508,3.508l3.484,3.491c0.229,0.228,0.205,0.614-0.021,0.844l-0.957,0.957
		c-0.229,0.228-0.615,0.25-0.842,0.021L301.332,166.396z"/>
</g>
<g>
	<path fill="#1D1D1B" d="M166.87,218.812c0.117-0.17,0.221-0.363,0.338-0.533c0.117-0.168,0.299-0.221,0.442-0.104
		c0.078,0.065,1.079,0.897,2.08,0.897c0.897,0,1.469-0.547,1.469-1.209c0-0.78-0.676-1.274-1.963-1.809
		c-1.326-0.56-2.366-1.248-2.366-2.757c0-1.014,0.78-2.405,2.847-2.405c1.3,0,2.275,0.676,2.405,0.77
		c0.104,0.062,0.208,0.246,0.078,0.439c-0.104,0.156-0.221,0.338-0.325,0.494c-0.104,0.17-0.273,0.248-0.455,0.131
		c-0.091-0.053-1.001-0.648-1.755-0.648c-1.092,0-1.469,0.688-1.469,1.17c0,0.74,0.572,1.193,1.651,1.638
		c1.508,0.611,2.795,1.326,2.795,2.912c0,1.354-1.209,2.457-2.899,2.457c-1.586,0-2.587-0.832-2.795-1.026
		C166.831,219.124,166.739,219.033,166.87,218.812z"/>
	<path fill="#1D1D1B" d="M179.583,212.247h-2.119c-0.143,0-0.247-0.117-0.247-0.247v-0.729c0-0.131,0.104-0.248,0.247-0.248h5.59
		c0.143,0,0.247,0.117,0.247,0.248V212c0,0.13-0.104,0.247-0.247,0.247h-2.119v7.631c0,0.13-0.117,0.247-0.247,0.247h-0.858
		c-0.13,0-0.247-0.117-0.247-0.247V212.247z"/>
	<path fill="#1D1D1B" d="M188.488,211.271c0-0.131,0.117-0.248,0.247-0.248h0.871c0.143,0,0.247,0.117,0.247,0.248v5.369
		c0,1.301,0.832,2.312,2.158,2.312c1.339,0,2.184-1.001,2.184-2.288v-5.396c0-0.129,0.104-0.246,0.247-0.246h0.871
		c0.13,0,0.247,0.117,0.247,0.246v5.461c0,1.977-1.495,3.521-3.549,3.521c-2.041,0-3.523-1.547-3.523-3.521V211.271z"/>
	<path fill="#1D1D1B" d="M201.865,211.271c0-0.131,0.104-0.248,0.234-0.248h2.988c2.51,0,4.562,2.041,4.562,4.537
		c0,2.521-2.053,4.562-4.562,4.562H202.1c-0.131,0-0.233-0.117-0.233-0.247L201.865,211.271L201.865,211.271z M204.908,218.891
		c1.91,0,3.302-1.404,3.302-3.328c0-1.912-1.392-3.303-3.302-3.303h-1.717v6.631H204.908z"/>
	<path fill="#1D1D1B" d="M215.425,211.271c0-0.131,0.116-0.248,0.247-0.248h0.857c0.131,0,0.248,0.117,0.248,0.248v8.604
		c0,0.13-0.117,0.247-0.248,0.247h-0.857c-0.131,0-0.247-0.117-0.247-0.247V211.271z"/>
	<path fill="#1D1D1B" d="M227.203,210.895c2.6,0,4.68,2.095,4.68,4.693c0,2.6-2.08,4.667-4.68,4.667
		c-2.602,0-4.668-2.067-4.668-4.667C222.535,212.986,224.604,210.895,227.203,210.895z M227.203,218.955
		c1.859,0,3.38-1.508,3.38-3.367c0-1.846-1.521-3.395-3.38-3.395c-1.848,0-3.367,1.549-3.367,3.395
		C223.836,217.447,225.355,218.955,227.203,218.955z"/>
</g>
<g>
	<g>
		<path fill="#000100" d="M218.73,163.984c0,7.875-2.777,14.316-8.336,19.329c-5.055,4.547-10.971,6.819-17.75,6.819
			c-7.369,0-13.411-2.146-18.127-6.44c-5.222-4.715-7.831-11.308-7.831-19.771c0-8.086,2.883-14.611,8.653-19.58
			c5.053-4.336,10.84-6.506,17.368-6.506c7.874,0,14.212,2.422,19.013,7.264C216.395,149.9,218.73,156.195,218.73,163.984z
			 M213.932,164.016c0-6.391-2.104-11.92-6.314-16.588c-4.213-4.668-9.18-7.002-14.905-7.002c-6.231,0-11.286,2.082-15.159,6.244
			c-4.041,4.332-6.062,10.072-6.062,17.221c0,6.477,2.094,11.996,6.285,16.559c4.188,4.562,9.146,6.842,14.873,6.842
			c5.769,0,10.633-1.894,14.59-5.676C211.699,177.367,213.932,171.502,213.932,164.016z"/>
		<path fill="#000100" d="M267.1,186.66c-0.633-0.506-1.391-1.77-2.273-3.791c-2.568-5.895-5.578-13.346-9.031-22.357
			c-1.457-3.803-3.604-9.578-6.441-17.309l0,0c0-0.002,0-0.002,0-0.002c-0.136-0.363-0.27-0.729-0.406-1.102
			c-0.334-1.072-0.203-1.738,0.406-1.99c0.717-0.293,1.791-0.441,3.222-0.441v-0.947c-1.542,0.119-3.144,0.176-4.796,0.184
			c-0.002-0.004-0.002-0.006-0.004-0.008l0.004,0.008c-0.094,0-0.184,0.004-0.275,0.004l-3.961,0.002
			c-1.768,0-3.473-0.062-5.115-0.189v0.947c1.432,0,2.504,0.148,3.221,0.441c0.718,0.295,0.779,1.16,0.189,2.59
			c-8.21,19.623-14.337,33.709-18.379,42.256c-0.547,1.137-1.223,1.916-2.021,2.336c-0.506,0.17-0.987,0.338-1.453,0.506
			c-0.969,0.127-1.871,0.231-2.715,0.315v1.072c3.705-0.125,6.021-0.188,6.946-0.188l6.886,0.188v-1.072
			c-1.349,0-2.272-0.104-2.778-0.315c-0.759-0.295-0.947-0.903-0.568-1.832c2.905-7.536,5.199-13.305,6.886-17.307
			c0.168-0.38,0.463-0.589,0.883-0.632c5.056-0.041,10.863-0.021,17.435,0.063c0.379,0,0.631,0.084,0.758,0.252
			c0.759,1.181,2.863,6.97,6.315,17.369c0.041,0.168,0.062,0.356,0.062,0.567c0,0.884-0.399,1.41-1.198,1.578
			c-0.929,0.127-1.644,0.211-2.146,0.254v1.072c4.462-0.125,7.199-0.188,8.21-0.188l8.084,0.188v-1.072
			C269.92,187.818,267.939,187.334,267.1,186.66z M252.012,165.248c-5.392,0.168-10.529,0.189-15.414,0.062
			c-0.338-0.041-0.443-0.209-0.314-0.504c1.729-4.211,4.597-10.908,8.604-20.094c2.899,7.496,5.381,14.131,7.442,19.9
			C252.494,165.037,252.391,165.248,252.012,165.248z"/>
		<path fill="#000100" d="M156.697,165.629c-4.547-3.918-8.675-7.412-12.379-10.486c-1.769-1.6-2.653-3.643-2.653-6.127
			c0-1.895,0.652-3.664,1.957-5.305c1.684-1.98,3.937-2.969,6.758-2.969c2.4,0,4.295,0.504,5.685,1.516
			c1.557,1.137,2.316,2.779,2.274,4.926h1.137c-0.169-2.693-0.169-5.072,0-7.137c-0.003-0.002-0.007-0.004-0.01-0.004
			c0.032-0.512,0.066-1.027,0.099-1.543h-1.137c0.01,0.562-0.734,0.822-1.269,0.629l0.002,0.002
			c-2.187-0.734-4.383-1.105-6.591-1.105c-3.37,0-6.337,0.906-8.905,2.717c-3.244,2.273-4.864,5.561-4.864,9.854
			c0,3.033,1.178,5.688,3.534,7.961c4.72,4.121,8.849,7.676,12.39,10.66c1.176,1.22,1.952,2.205,2.331,2.962
			c0.503,1.049,0.757,2.435,0.757,4.155c0,2.771-0.886,5.121-2.653,7.054c-2.107,2.31-5.095,3.463-8.969,3.463
			c-4.337,0-6.99-1.147-7.958-3.442c-0.378-1.67-0.568-2.9-0.568-3.693h-1.01c0.167,3.726,0.167,6.568,0,8.535
			c0.001,0.002,0.002,0.002,0.004,0.002c-0.035,0.506-0.069,1.015-0.102,1.524h1.137c-0.01-0.562,0.447-1.073,1-0.942l-0.006-0.012
			c2.455,0.614,4.935,0.937,7.441,0.937c5.136,0,9.157-1.156,12.063-3.468c3.284-2.604,4.926-6.467,4.926-11.59
			C161.117,171.592,159.644,168.568,156.697,165.629z"/>
	</g>
	<circle fill="#1D1D1B" cx="185.456" cy="130.602" r="2.554"/>
	<circle fill="#1D1D1B" cx="199.081" cy="130.602" r="2.554"/>
</g>
<g>
	<path fill="#1D1D1B" d="M101.92,235.53c-0.24,0-0.48-0.101-0.65-0.271c-0.17-0.17-0.26-0.41-0.26-0.64c0-0.25,0.09-0.48,0.26-0.65
		c0.34-0.34,0.96-0.34,1.3,0c0.17,0.17,0.26,0.4,0.26,0.65c0,0.229-0.09,0.47-0.26,0.64C102.39,235.43,102.16,235.53,101.92,235.53z
		"/>
</g>
<g>
	<path fill="#1D1D1B" d="M78.76,164.02c-0.24,0-0.48-0.1-0.65-0.27c-0.17-0.17-0.27-0.4-0.27-0.64c0-0.24,0.1-0.47,0.27-0.65
		c0.34-0.34,0.95-0.34,1.29,0c0.17,0.18,0.27,0.41,0.27,0.65c0,0.24-0.1,0.47-0.27,0.64C79.23,163.92,79,164.02,78.76,164.02z"/>
</g>
<g>
	<path fill="#1D1D1B" d="M78.84,158.52c-0.5-0.02-0.89-0.45-0.87-0.96l0,0c0.02-0.5,0.45-0.89,0.95-0.87l0,0
		c0.51,0.03,0.9,0.45,0.87,0.96l0,0c-0.02,0.49-0.42,0.87-0.91,0.87l0,0C78.87,158.52,78.85,158.52,78.84,158.52z M79.16,153.06
		c-0.5-0.04-0.87-0.49-0.83-0.99l0,0c0.05-0.5,0.49-0.87,1-0.83l0,0c0.5,0.05,0.87,0.49,0.82,0.99l0,0
		c-0.04,0.48-0.44,0.83-0.9,0.83l0,0C79.22,153.06,79.19,153.06,79.16,153.06z M79.73,147.62c-0.5-0.06-0.85-0.53-0.78-1.02l0,0
		c0.06-0.5,0.52-0.85,1.02-0.79l0,0c0.5,0.07,0.85,0.53,0.79,1.03l0,0c-0.07,0.46-0.46,0.79-0.91,0.79l0,0
		C79.81,147.63,79.77,147.63,79.73,147.62z M80.54,142.22c-0.5-0.09-0.83-0.57-0.74-1.06l0,0c0.09-0.5,0.57-0.83,1.06-0.74l0,0
		c0.5,0.09,0.83,0.57,0.74,1.06l0,0c-0.08,0.44-0.47,0.75-0.9,0.75l0,0C80.65,142.23,80.59,142.23,80.54,142.22z M81.59,136.86
		c-0.49-0.12-0.8-0.61-0.69-1.1l0,0c0.11-0.49,0.6-0.8,1.1-0.68l0,0c0.49,0.11,0.79,0.6,0.68,1.09l0,0l0,0l0,0
		c-0.09,0.42-0.47,0.71-0.89,0.71l0,0C81.73,136.88,81.66,136.87,81.59,136.86z M82.88,131.55c-0.48-0.14-0.77-0.64-0.64-1.13l0,0
		c0.14-0.48,0.64-0.77,1.13-0.63l0,0c0.48,0.13,0.77,0.63,0.63,1.12l0,0c-0.11,0.4-0.48,0.67-0.88,0.67l0,0
		C83.04,131.58,82.96,131.57,82.88,131.55z M84.41,126.3c-0.48-0.16-0.74-0.67-0.58-1.15h-0.01c0.16-0.48,0.67-0.74,1.16-0.59l0,0
		c0.47,0.16,0.74,0.67,0.58,1.15l0,0c-0.12,0.39-0.48,0.63-0.87,0.63l0,0C84.6,126.34,84.5,126.33,84.41,126.3z M86.18,121.13
		c-0.48-0.18-0.72-0.71-0.54-1.18l0,0c0.18-0.47,0.71-0.71,1.18-0.53l0,0c0.47,0.17,0.71,0.7,0.53,1.17l0,0
		c-0.14,0.37-0.48,0.6-0.85,0.6l0,0C86.39,121.19,86.28,121.17,86.18,121.13z M88.17,116.04c-0.46-0.2-0.68-0.74-0.48-1.2l0,0
		c0.2-0.46,0.74-0.68,1.2-0.48l0,0c0.46,0.2,0.68,0.73,0.48,1.2l0,0c-0.15,0.35-0.48,0.55-0.84,0.55l0,0
		C88.41,116.11,88.29,116.09,88.17,116.04z M90.4,111.05c-0.46-0.22-0.65-0.77-0.43-1.22l0,0c0.22-0.46,0.77-0.65,1.22-0.43l0,0
		c0.46,0.22,0.65,0.77,0.43,1.22l0,0c-0.16,0.33-0.48,0.52-0.82,0.52l0,0C90.66,111.14,90.53,111.11,90.4,111.05z M92.85,106.16
		c-0.45-0.24-0.61-0.79-0.37-1.24l0,0c0.24-0.44,0.79-0.61,1.23-0.37l0,0c0.45,0.24,0.61,0.79,0.37,1.24l0,0
		c-0.16,0.3-0.48,0.48-0.8,0.48l0,0C93.13,106.27,92.98,106.23,92.85,106.16z M95.51,101.39c-0.43-0.26-0.57-0.82-0.31-1.26l0,0
		c0.26-0.43,0.82-0.57,1.25-0.31l0,0c0.43,0.26,0.57,0.82,0.31,1.25l0,0c-0.17,0.29-0.47,0.45-0.78,0.45l0,0
		C95.82,101.52,95.66,101.47,95.51,101.39z M98.39,96.74c-0.42-0.28-0.54-0.85-0.26-1.27l0,0c0.28-0.42,0.85-0.53,1.27-0.26l0,0
		c0.42,0.28,0.53,0.85,0.25,1.27l0,0c-0.17,0.26-0.46,0.41-0.76,0.41l0,0C98.72,96.89,98.54,96.84,98.39,96.74z M101.47,92.22
		c-0.41-0.29-0.5-0.87-0.2-1.27l0,0c0.3-0.41,0.87-0.5,1.28-0.21l0,0c0.4,0.3,0.49,0.87,0.2,1.28l0,0
		c-0.18,0.25-0.46,0.38-0.74,0.38l0,0C101.82,92.4,101.63,92.34,101.47,92.22z M104.75,87.85c-0.39-0.32-0.46-0.89-0.14-1.29l0,0
		c0.31-0.39,0.89-0.45,1.28-0.14l0,0c0.4,0.31,0.46,0.89,0.15,1.28l0,0c-0.18,0.23-0.45,0.35-0.72,0.35l0,0
		C105.12,88.05,104.92,87.98,104.75,87.85z M108.23,83.63c-0.38-0.34-0.42-0.91-0.09-1.29l0,0c0.33-0.38,0.91-0.42,1.29-0.09l0,0
		c0.38,0.33,0.42,0.91,0.08,1.29l0,0c-0.18,0.21-0.43,0.31-0.68,0.31l0,0C108.61,83.85,108.4,83.78,108.23,83.63z M111.89,79.56
		c-0.37-0.35-0.38-0.92-0.04-1.29l0,0c0.35-0.36,0.93-0.38,1.3-0.03l0,0c0.36,0.35,0.37,0.93,0.03,1.29l0,0
		c-0.18,0.19-0.42,0.28-0.66,0.28l0,0C112.29,79.81,112.06,79.73,111.89,79.56z M115.72,75.67c-0.35-0.37-0.34-0.95,0.03-1.29l0,0
		c0.36-0.35,0.94-0.34,1.29,0.02l0,0c0.35,0.37,0.34,0.94-0.03,1.29l0,0c-0.18,0.17-0.4,0.26-0.63,0.26l0,0
		C116.14,75.95,115.9,75.85,115.72,75.67z M119.73,71.94c-0.34-0.38-0.3-0.95,0.08-1.29l0,0c0.38-0.33,0.96-0.29,1.29,0.09l0,0
		c0.33,0.38,0.29,0.96-0.09,1.29l0,0c-0.17,0.15-0.38,0.23-0.6,0.23l0,0C120.16,72.26,119.91,72.15,119.73,71.94z"/>
</g>
<g>
	<path fill="#1D1D1B" d="M98.13,230.75c-0.28-0.431-0.16-0.99,0.26-1.271l0,0c0.42-0.279,0.98-0.16,1.26,0.261l0,0l0,0l0,0
		c0.28,0.42,0.16,0.979-0.26,1.26l0,0c-0.15,0.109-0.33,0.16-0.5,0.16l0,0C98.59,231.16,98.3,231.01,98.13,230.75z M95.19,226.08
		c-0.25-0.431-0.11-0.99,0.32-1.25l0,0c0.43-0.261,0.99-0.12,1.25,0.31l0,0c0.26,0.44,0.12,1-0.31,1.26l0,0
		c-0.15,0.08-0.31,0.131-0.47,0.131l0,0C95.67,226.53,95.37,226.37,95.19,226.08z M92.47,221.29c-0.24-0.44-0.07-1,0.37-1.23l0,0
		c0.45-0.25,1-0.08,1.24,0.37l0,0c0.24,0.44,0.07,0.99-0.37,1.23l0,0c-0.14,0.08-0.29,0.109-0.43,0.109l0,0
		C92.95,221.77,92.64,221.6,92.47,221.29z M89.97,216.38c-0.22-0.45-0.03-1,0.43-1.22l0,0c0.45-0.221,0.99-0.021,1.21,0.43l0,0
		c0.22,0.46,0.03,1-0.42,1.22l0,0c-0.13,0.061-0.27,0.09-0.4,0.09l0,0C90.45,216.899,90.13,216.71,89.97,216.38z M87.69,211.37
		c-0.2-0.471,0.02-1,0.48-1.2l0,0c0.46-0.2,1,0.02,1.2,0.479l0,0l0,0l0,0c0.2,0.46-0.02,1-0.48,1.2l0,0
		c-0.12,0.05-0.24,0.07-0.36,0.07l0,0C88.18,211.92,87.84,211.71,87.69,211.37z M85.64,206.25v0.01c-0.18-0.479,0.06-1,0.53-1.18
		l0,0c0.47-0.181,1,0.06,1.18,0.529l0,0c0.17,0.48-0.07,1-0.54,1.181l0,0c-0.1,0.04-0.21,0.06-0.32,0.06l0,0
		C86.12,206.85,85.77,206.62,85.64,206.25z M83.82,201.05L83.82,201.05c-0.16-0.48,0.1-0.99,0.59-1.15l0,0
		c0.47-0.149,0.99,0.11,1.14,0.591l0,0l0,0l0,0c0.16,0.479-0.1,0.989-0.58,1.149l0,0c-0.09,0.03-0.19,0.04-0.28,0.04l0,0
		C84.3,201.68,83.94,201.439,83.82,201.05z M82.24,195.77c-0.14-0.479,0.15-0.989,0.63-1.12l0,0c0.49-0.13,0.99,0.15,1.13,0.641l0,0
		c0.13,0.479-0.16,0.99-0.64,1.12l0,0c-0.08,0.02-0.16,0.029-0.24,0.029l0,0C82.72,196.439,82.35,196.18,82.24,195.77z M80.9,190.43
		c-0.12-0.49,0.19-0.979,0.68-1.09l0,0c0.49-0.12,0.98,0.19,1.1,0.68l0,0c0.11,0.5-0.2,0.98-0.69,1.101l0,0
		c-0.07,0.01-0.14,0.02-0.21,0.02l0,0C81.37,191.14,80.99,190.85,80.9,190.43z M79.79,185.03c-0.08-0.5,0.25-0.971,0.74-1.061l0,0
		c0.5-0.09,0.97,0.24,1.06,0.73l0,0c0.09,0.5-0.24,0.97-0.73,1.069l0,0c-0.06,0-0.11,0.011-0.17,0.011l0,0
		C80.26,185.78,79.87,185.47,79.79,185.03z M78.94,179.58c-0.07-0.5,0.28-0.96,0.78-1.021l0,0c0.5-0.069,0.96,0.28,1.03,0.78l0,0
		c0.07,0.5-0.28,0.96-0.78,1.03l0,0c-0.04,0-0.08,0.01-0.12,0.01l0,0C79.4,180.38,79,180.04,78.94,179.58z M78.33,174.109
		c-0.04-0.51,0.33-0.949,0.83-0.989l0,0c0.5-0.051,0.95,0.319,0.99,0.83l0,0c0.04,0.5-0.33,0.939-0.83,0.989l0,0
		c-0.03,0-0.06,0-0.08,0l0,0C78.77,174.939,78.37,174.58,78.33,174.109z M77.96,168.609h0.01c-0.03-0.5,0.36-0.93,0.87-0.949l0,0
		c0.5-0.03,0.93,0.359,0.95,0.87l0,0l0,0l0,0c0.02,0.5-0.37,0.93-0.87,0.949l0,0c-0.02,0-0.03,0-0.04,0l0,0
		C78.39,169.479,77.99,169.1,77.96,168.609z"/>
</g>
<g>
	<path fill="#1D1D1B" d="M302.149,230.689c-0.43-0.279-0.54-0.85-0.27-1.27l0,0c0,0,0,0,0.01,0.01l0,0
		c0.271-0.43,0.84-0.54,1.26-0.27l0,0c0.42,0.279,0.54,0.85,0.261,1.27l0,0c-0.17,0.26-0.471,0.41-0.761,0.41l0,0
		C302.479,230.84,302.3,230.79,302.149,230.689z M305.08,226.069c-0.44-0.25-0.58-0.81-0.32-1.25l0,0
		c0.26-0.43,0.82-0.569,1.25-0.319l0,0c0.44,0.26,0.58,0.819,0.32,1.26l0,0c-0.17,0.28-0.471,0.44-0.79,0.44l0,0
		C305.39,226.2,305.22,226.16,305.08,226.069z M307.8,221.33c-0.44-0.24-0.61-0.79-0.38-1.23l0,0c0,0,0,0,0.01,0l0,0
		c0.23-0.45,0.79-0.62,1.23-0.38l0,0c0.449,0.24,0.609,0.79,0.38,1.24l0,0c-0.17,0.31-0.48,0.479-0.811,0.479l0,0
		C308.08,221.439,307.939,221.41,307.8,221.33z M310.31,216.47c-0.46-0.21-0.649-0.76-0.43-1.21l0,0l0,0l0,0
		c0.21-0.46,0.76-0.65,1.21-0.43l0,0c0.46,0.21,0.65,0.76,0.43,1.21l0,0c-0.149,0.33-0.479,0.52-0.819,0.52l0,0
		C310.569,216.56,310.43,216.53,310.31,216.47z M312.59,211.51c-0.46-0.2-0.68-0.74-0.49-1.2l0,0c0.2-0.46,0.74-0.68,1.2-0.479l0,0
		c0.47,0.189,0.68,0.729,0.49,1.189l0,0c-0.15,0.351-0.49,0.561-0.84,0.561l0,0C312.83,211.58,312.71,211.56,312.59,211.51z
		 M314.649,206.439c-0.47-0.17-0.71-0.699-0.54-1.17l0,0l0,0l0,0c0.181-0.47,0.7-0.71,1.181-0.54l0,0
		c0.47,0.181,0.71,0.7,0.529,1.181l0,0c-0.13,0.359-0.479,0.59-0.85,0.59l0,0C314.859,206.5,314.75,206.479,314.649,206.439z
		 M316.479,201.29c-0.479-0.15-0.75-0.67-0.59-1.15l0,0c0.15-0.479,0.66-0.74,1.141-0.59l0,0c0.489,0.16,0.75,0.67,0.6,1.15h-0.01
		c-0.12,0.39-0.48,0.64-0.86,0.64l0,0C316.66,201.34,316.569,201.319,316.479,201.29z M318.069,196.06
		c-0.489-0.13-0.77-0.63-0.64-1.12l0,0c0.13-0.479,0.63-0.77,1.12-0.64l0,0c0.49,0.13,0.77,0.64,0.64,1.12l0,0
		c-0.109,0.41-0.479,0.68-0.88,0.68l0,0C318.229,196.1,318.149,196.09,318.069,196.06z M319.43,190.77c-0.5-0.109-0.81-0.6-0.7-1.09
		l0,0l0,0l0,0c0.11-0.5,0.601-0.81,1.09-0.689l0,0c0.5,0.109,0.811,0.59,0.7,1.09l0,0c-0.1,0.42-0.479,0.71-0.899,0.71l0,0
		C319.56,190.79,319.49,190.78,319.43,190.77z M320.54,185.42c-0.5-0.09-0.83-0.561-0.74-1.061l0,0c0.09-0.5,0.56-0.829,1.06-0.739
		l0,0c0.49,0.09,0.83,0.56,0.74,1.06l0,0c-0.08,0.44-0.47,0.75-0.899,0.75l0,0C320.649,185.43,320.59,185.43,320.54,185.42z
		 M321.41,180.02c-0.5-0.06-0.851-0.52-0.78-1.02l0,0c0,0,0,0-0.01,0l0,0c0.069-0.5,0.529-0.851,1.029-0.79l0,0
		c0.5,0.07,0.851,0.52,0.79,1.03l0,0c-0.06,0.449-0.46,0.79-0.909,0.79l0,0C321.49,180.03,321.45,180.03,321.41,180.02z
		 M322.04,174.6c-0.5-0.05-0.87-0.49-0.83-0.99l0,0c0.04-0.51,0.49-0.88,0.99-0.829l0,0c0.5,0.039,0.869,0.479,0.83,0.979l0,0
		c-0.04,0.48-0.44,0.84-0.91,0.84l0,0C322.09,174.6,322.069,174.6,322.04,174.6z M322.43,169.14c-0.5-0.02-0.899-0.439-0.88-0.95
		l0,0c0.02-0.5,0.45-0.89,0.95-0.87l0,0c0.51,0.021,0.899,0.44,0.88,0.95l0,0c-0.021,0.49-0.43,0.87-0.91,0.87l0,0
		C322.45,169.14,322.439,169.14,322.43,169.14z"/>
</g>
<g>
	<path fill="#1D1D1B" d="M321.54,157.66L321.54,157.66L321.54,157.66c-0.021-0.51,0.37-0.93,0.87-0.95l0,0
		c0.5-0.03,0.93,0.36,0.949,0.87l0,0c0.03,0.5-0.369,0.93-0.869,0.95l0,0c-0.011,0-0.03,0-0.04,0l0,0
		C321.96,158.53,321.56,158.15,321.54,157.66z M321.18,152.24c-0.05-0.5,0.32-0.94,0.82-0.99l0,0c0.51-0.04,0.95,0.33,1,0.83l0,0
		c0.04,0.5-0.33,0.95-0.83,0.99l0,0c-0.03,0-0.061,0.01-0.08,0.01l0,0C321.62,153.08,321.22,152.72,321.18,152.24z M320.569,146.85
		c-0.06-0.5,0.29-0.96,0.79-1.03l0,0c0.5-0.07,0.96,0.28,1.021,0.78l0,0c0.07,0.5-0.28,0.96-0.78,1.03l0,0
		c-0.04,0.01-0.08,0.01-0.12,0.01l0,0C321.03,147.64,320.64,147.3,320.569,146.85z M319.729,141.48L319.729,141.48L319.729,141.48
		c-0.09-0.49,0.24-0.97,0.74-1.06l0,0c0.49-0.09,0.97,0.24,1.061,0.74l0,0c0.09,0.49-0.24,0.97-0.74,1.06l0,0
		c-0.05,0.01-0.11,0.01-0.16,0.01l0,0C320.189,142.23,319.81,141.92,319.729,141.48z M318.649,136.16
		c-0.119-0.49,0.19-0.98,0.681-1.09l0,0c0.5-0.11,0.989,0.19,1.1,0.69l0,0c0.11,0.49-0.2,0.98-0.689,1.09l0,0
		c-0.07,0.01-0.141,0.02-0.2,0.02l0,0C319.12,136.87,318.74,136.59,318.649,136.16z M317.319,130.9c-0.13-0.49,0.15-0.99,0.641-1.13
		l0,0c0.49-0.13,0.99,0.15,1.12,0.64l0,0c0.14,0.49-0.15,0.99-0.63,1.12l0,0c-0.091,0.03-0.17,0.04-0.25,0.04l0,0
		C317.8,131.57,317.43,131.3,317.319,130.9z M315.76,125.7c-0.15-0.48,0.11-1,0.59-1.15l0,0c0.48-0.16,0.99,0.1,1.15,0.58l0,0
		c0.16,0.48-0.11,1-0.59,1.15l0,0c-0.091,0.03-0.19,0.05-0.28,0.05l0,0C316.25,126.33,315.89,126.08,315.76,125.7z M313.97,120.57
		c-0.18-0.47,0.061-0.99,0.53-1.17l0,0c0.479-0.18,1,0.06,1.18,0.53l0,0c0.18,0.47-0.06,1-0.53,1.18l0,0
		c-0.109,0.04-0.22,0.06-0.33,0.06l0,0C314.45,121.17,314.109,120.94,313.97,120.57z M311.95,115.54c-0.2-0.47,0.02-1,0.479-1.2l0,0
		c0.46-0.2,1,0.01,1.2,0.48l0,0c0.189,0.46-0.021,1-0.48,1.2l0,0c-0.119,0.05-0.239,0.07-0.359,0.07l0,0
		C312.43,116.09,312.1,115.88,311.95,115.54z M309.7,110.6c-0.221-0.46-0.03-1,0.42-1.22l0,0c0.46-0.22,1-0.03,1.22,0.42l0,0
		c0.22,0.46,0.03,1-0.42,1.22l0,0c-0.13,0.06-0.26,0.09-0.4,0.09l0,0C310.18,111.11,309.859,110.92,309.7,110.6z M307.229,105.76
		c-0.239-0.44-0.069-1,0.37-1.24l0,0c0.45-0.24,1-0.07,1.24,0.38l0,0c0.24,0.44,0.07,0.99-0.37,1.23l0,0
		c-0.14,0.08-0.29,0.11-0.43,0.11l0,0C307.71,106.24,307.399,106.07,307.229,105.76z M304.55,101.04L304.55,101.04L304.55,101.04
		c-0.26-0.43-0.12-0.99,0.31-1.25l0,0c0.431-0.26,0.99-0.12,1.261,0.31h-0.011c0.261,0.44,0.12,1-0.31,1.26l0,0
		c-0.15,0.09-0.31,0.13-0.47,0.13l0,0C305.02,101.49,304.72,101.33,304.55,101.04z M301.66,96.45c-0.28-0.42-0.17-0.99,0.26-1.26
		l0,0c0.41-0.28,0.979-0.17,1.26,0.25l0,0c0.28,0.42,0.16,0.99-0.26,1.27l0,0c-0.15,0.1-0.33,0.15-0.5,0.15l0,0
		C302.12,96.86,301.83,96.72,301.66,96.45z M298.56,91.99c-0.3-0.41-0.21-0.98,0.2-1.27l0,0c0.41-0.3,0.98-0.21,1.28,0.2l0,0
		c0.29,0.4,0.2,0.98-0.2,1.27l0,0c-0.17,0.12-0.35,0.18-0.54,0.18l0,0C299.02,92.37,298.74,92.24,298.56,91.99z M295.27,87.67
		c-0.31-0.39-0.25-0.96,0.141-1.28l0,0c0.399-0.31,0.97-0.25,1.29,0.15l0,0c0.31,0.39,0.25,0.97-0.15,1.28l0,0
		c-0.16,0.13-0.36,0.2-0.56,0.2l0,0C295.72,88.02,295.45,87.9,295.27,87.67z M291.79,83.51c-0.33-0.38-0.29-0.96,0.09-1.29l0,0
		c0.38-0.33,0.95-0.29,1.29,0.09l0,0c0.33,0.38,0.29,0.96-0.09,1.29l0,0c-0.17,0.15-0.391,0.22-0.601,0.22l0,0
		C292.22,83.82,291.97,83.72,291.79,83.51z M288.13,79.51c-0.35-0.37-0.34-0.95,0.03-1.3l0,0c0.359-0.34,0.939-0.33,1.29,0.04v-0.01
		c0.35,0.37,0.33,0.95-0.03,1.29l0,0c-0.18,0.17-0.4,0.26-0.63,0.26l0,0C288.55,79.79,288.31,79.69,288.13,79.51z M284.29,75.67
		L284.29,75.67L284.29,75.67c-0.36-0.35-0.38-0.93-0.03-1.29l0,0c0.35-0.37,0.93-0.38,1.29-0.03h0.01
		c0.36,0.35,0.37,0.93,0.021,1.29l0,0c-0.181,0.19-0.42,0.28-0.66,0.28l0,0C284.7,75.92,284.47,75.84,284.29,75.67z M280.29,72.01
		c-0.38-0.34-0.42-0.91-0.09-1.29l0,0c0.33-0.38,0.909-0.42,1.29-0.09l0,0c0.38,0.33,0.42,0.91,0.09,1.29l0,0
		c-0.181,0.21-0.44,0.31-0.69,0.31l0,0C280.67,72.23,280.46,72.16,280.29,72.01z"/>
</g>
<g>
	<path fill="#1D1D1B" d="M322.569,164.02c-0.239,0-0.47-0.1-0.64-0.27c-0.17-0.17-0.27-0.4-0.27-0.64c0-0.24,0.1-0.47,0.27-0.65
		c0.33-0.34,0.95-0.34,1.29,0.01c0.17,0.16,0.26,0.4,0.26,0.64c0,0.24-0.09,0.47-0.26,0.64
		C323.05,163.92,322.81,164.02,322.569,164.02z"/>
</g>
<g>
	<path fill="#1D1D1B" d="M299.56,235.319c-0.24,0-0.47-0.1-0.64-0.27s-0.271-0.41-0.271-0.65c0-0.239,0.101-0.47,0.271-0.64
		c0.34-0.34,0.939-0.34,1.29,0c0.17,0.17,0.27,0.4,0.27,0.64c0,0.24-0.1,0.48-0.27,0.65S299.8,235.319,299.56,235.319z"/>
</g>
<circle fill="#B6915D" cx="124.644" cy="67.824" r="1.554"/>
<circle fill="#B6915D" cx="276.27" cy="67.707" r="1.554"/>
<circle fill="#B6915D" cx="105.902" cy="239.621" r="1.554"/>
<circle fill="#B6915D" cx="295.725" cy="239.621" r="1.554"/>
</svg>
