<?xml version="1.0" encoding="utf-8"?>
<!-- Generator: Adobe Illustrator 16.0.0, SVG Export Plug-In . SVG Version: 6.00 Build 0)  -->
<!DOCTYPE svg PUBLIC "-//W3C//DTD SVG 1.1//EN" "http://www.w3.org/Graphics/SVG/1.1/DTD/svg11.dtd">
<svg version="1.1" id="Calque_1" xmlns="http://www.w3.org/2000/svg" xmlns:xlink="http://www.w3.org/1999/xlink" x="0px" y="0px"
	 width="400px" height="330px" viewBox="0 0 400 330" enable-background="new 0 0 400 330" xml:space="preserve">
<g>
	<g>
		<path fill="#1D1D1B" d="M137.588,63.565c0.018-0.241,0.007-0.5,0.025-0.74c0.018-0.241,0.171-0.402,0.385-0.369
			c0.118,0.02,1.626,0.266,2.639-0.33c0.907-0.533,1.161-1.427,0.767-2.097c-0.464-0.79-1.442-0.887-3.062-0.66
			c-1.674,0.223-3.137,0.145-4.034-1.381c-0.604-1.026-0.642-2.897,1.45-4.128c1.314-0.773,2.703-0.67,2.89-0.655
			c0.144,0.004,0.357,0.127,0.342,0.401c-0.013,0.22-0.022,0.474-0.035,0.693c-0.005,0.232-0.129,0.412-0.383,0.402
			c-0.123,0.001-1.399-0.062-2.162,0.387c-1.105,0.649-1.077,1.571-0.79,2.058c0.44,0.75,1.29,0.87,2.645,0.675
			c1.89-0.279,3.617-0.321,4.561,1.283c0.805,1.368,0.239,3.205-1.471,4.211c-1.604,0.943-3.112,0.697-3.438,0.624
			C137.734,63.904,137.588,63.866,137.588,63.565z"/>
		<path fill="#1D1D1B" d="M146.438,49.99l-2.256,1.053c-0.152,0.07-0.321-0.002-0.386-0.141l-0.361-0.775
			c-0.064-0.138-0.012-0.314,0.141-0.386l5.95-2.775c0.152-0.07,0.321,0.002,0.386,0.141l0.361,0.775
			c0.065,0.138,0.013,0.314-0.14,0.386l-2.256,1.052l3.788,8.124c0.065,0.138-0.001,0.32-0.14,0.386l-0.914,0.426
			c-0.138,0.064-0.32-0.002-0.385-0.141L146.438,49.99z"/>
		<path fill="#1D1D1B" d="M155.353,44.88c-0.05-0.145,0.036-0.319,0.181-0.368l0.968-0.332c0.159-0.054,0.319,0.036,0.368,0.181
			l2.042,5.968c0.494,1.445,1.805,2.256,3.278,1.752c1.489-0.51,2.048-1.943,1.558-3.374l-2.052-5.997
			c-0.049-0.145,0.022-0.313,0.181-0.368l0.969-0.331c0.145-0.05,0.318,0.036,0.368,0.181l2.076,6.069
			c0.752,2.196-0.321,4.484-2.604,5.266c-2.269,0.775-4.505-0.38-5.256-2.576L155.353,44.88z"/>
		<path fill="#1D1D1B" d="M170.217,40.275c-0.031-0.149,0.061-0.309,0.21-0.34l3.436-0.72c2.884-0.604,5.734,1.247,6.335,4.115
			c0.607,2.898-1.262,5.738-4.146,6.342l-3.436,0.72c-0.149,0.031-0.297-0.078-0.328-0.228L170.217,40.275z M175.546,48.298
			c2.196-0.46,3.456-2.408,2.993-4.619c-0.459-2.196-2.393-3.46-4.589-3l-1.972,0.413l1.596,7.618L175.546,48.298z"/>
		<path fill="#1D1D1B" d="M185.63,37.572c-0.017-0.152,0.104-0.304,0.257-0.32l1.001-0.111c0.151-0.017,0.303,0.104,0.319,0.257
			l1.111,10.04c0.017,0.152-0.104,0.304-0.256,0.32l-1.001,0.111c-0.152,0.017-0.304-0.105-0.32-0.257L185.63,37.572z"/>
		<path fill="#1D1D1B" d="M199.133,36.267c3.053-0.049,5.532,2.369,5.581,5.421c0.05,3.052-2.354,5.517-5.405,5.565
			c-3.051,0.048-5.518-2.339-5.566-5.391C193.695,38.81,196.081,36.315,199.133,36.267z M199.284,45.727
			c2.182-0.034,3.938-1.833,3.903-4.015c-0.035-2.167-1.85-3.954-4.03-3.919c-2.167,0.034-3.923,1.879-3.889,4.045
			C195.304,44.021,197.117,45.762,199.284,45.727z"/>
		<path fill="#1D1D1B" d="M219.872,43.44l-2.699-5.608c-0.088-0.216,0.072-0.437,0.313-0.397l1.113,0.183
			c0.121,0.021,0.185,0.108,0.219,0.176l2.097,4.288l3.356-3.394c0.055-0.053,0.156-0.113,0.263-0.096l1.13,0.186
			c0.24,0.039,0.32,0.3,0.169,0.476l-4.394,4.43l-0.787,4.805c-0.025,0.15-0.184,0.264-0.334,0.238l-0.993-0.163
			c-0.166-0.026-0.265-0.182-0.239-0.333L219.872,43.44z"/>
		<path fill="#1D1D1B" d="M236.078,41.2c2.936,0.843,4.605,3.88,3.764,6.815c-0.843,2.936-3.859,4.596-6.796,3.754
			c-2.937-0.843-4.601-3.846-3.759-6.782C230.13,42.052,233.143,40.358,236.078,41.2z M233.467,50.302
			c2.1,0.602,4.305-0.608,4.907-2.707c0.599-2.085-0.618-4.324-2.718-4.927c-2.084-0.598-4.303,0.656-4.9,2.741
			C230.152,47.508,231.382,49.703,233.467,50.302z"/>
		<path fill="#1D1D1B" d="M251.961,46.914c1.346,0.578,2.243,1.545,2.848,2.769c0.063,0.16,0.006,0.335-0.154,0.398
			c-0.307,0.134-0.607,0.254-0.914,0.388c-0.168,0.078-0.273,0.016-0.359-0.171c-0.41-0.857-1.117-1.61-1.974-1.978
			c-1.991-0.856-4.243,0.17-5.087,2.133c-0.838,1.949-0.032,4.289,1.959,5.145c1.164,0.5,2.144,0.424,2.309,0.428l0.676-1.57
			l-1.375-0.591c-0.154-0.066-0.219-0.227-0.158-0.367l0.351-0.813c0.065-0.154,0.228-0.218,0.381-0.151l2.552,1.097
			c0.141,0.061,0.198,0.234,0.139,0.375c-0.481,1.122-0.963,2.277-1.444,3.399c-0.03,0.07-0.134,0.158-0.208,0.176
			c0,0-1.843,0.305-3.876-0.569c-2.79-1.199-4.09-4.399-2.884-7.204C245.941,47.002,249.17,45.714,251.961,46.914z"/>
		<path fill="#1D1D1B" d="M255.191,59.914l9.191-6.551c0.085-0.057,0.242-0.055,0.309-0.016l0.133,0.076
			c0.066,0.038,0.146,0.173,0.141,0.274l-1.104,11.221c-0.021,0.217-0.226,0.328-0.424,0.214l-0.832-0.481
			c-0.158-0.091-0.205-0.224-0.188-0.373l0.226-2.283L258.32,59.5c-0.615,0.455-1.236,0.89-1.853,1.345
			c-0.093,0.069-0.26,0.114-0.418,0.022l-0.832-0.48C255.021,60.272,255.014,60.04,255.191,59.914z M262.796,60.568l0.465-4.559
			l-0.065-0.039l-3.702,2.69L262.796,60.568z"/>
	</g>
</g>
<g>
	<g>
		<path fill="#1D1D1B" d="M114.428,244.83c0.109-0.107,0.293-0.116,0.41,0.004l2.436,2.484c1.313,1.34,1.303,3.508-0.016,4.801
			c-1.351,1.324-3.529,1.303-4.833-0.026l-1.549-1.579l-2.561,2.51c-0.108,0.106-0.303,0.104-0.409-0.004l-0.694-0.709
			c-0.118-0.119-0.105-0.303,0.004-0.41L114.428,244.83z M113.418,250.971c0.737,0.752,1.967,0.784,2.751,0.016
			c0.741-0.727,0.688-1.913-0.049-2.666l-1.475-1.502l-2.702,2.647L113.418,250.971z"/>
		<path fill="#1D1D1B" d="M123.283,253.41c0.097-0.118,0.278-0.146,0.408-0.041l3.213,2.632c1.417,1.161,1.655,3.229,0.504,4.638
			c-0.89,1.086-2.346,1.394-3.712,0.965l-0.839,4.324c-0.043,0.223-0.28,0.344-0.481,0.18l-0.921-0.756
			c-0.095-0.076-0.117-0.193-0.102-0.261l0.992-4.417l-1.783-1.46l-2.467,3.011c-0.097,0.118-0.29,0.139-0.408,0.041l-0.768-0.629
			c-0.13-0.105-0.138-0.289-0.041-0.408L123.283,253.41z M123.521,259.939c0.768,0.629,1.973,0.529,2.641-0.285
			c0.629-0.769,0.478-1.956-0.29-2.586l-2.103-1.721l-2.351,2.868L123.521,259.939z"/>
		<path fill="#1D1D1B" d="M127.228,269.247l9.511-6.082c0.089-0.054,0.245-0.042,0.31,0l0.128,0.082
			c0.064,0.042,0.138,0.181,0.127,0.282l-1.667,11.152c-0.031,0.217-0.241,0.316-0.434,0.192l-0.808-0.522
			c-0.153-0.099-0.193-0.232-0.17-0.383l0.34-2.27l-4.191-2.709c-0.637,0.424-1.279,0.826-1.916,1.25
			c-0.097,0.064-0.266,0.102-0.42,0.002l-0.807-0.521C127.038,269.598,127.043,269.364,127.228,269.247z M134.79,270.283
			l0.694-4.531l-0.064-0.041l-3.834,2.501L134.79,270.283z"/>
		<path fill="#1D1D1B" d="M145.634,269.999l-2.214-1.14c-0.149-0.076-0.195-0.256-0.125-0.392l0.391-0.76
			c0.07-0.138,0.242-0.202,0.392-0.126l5.839,3.005c0.149,0.077,0.195,0.256,0.125,0.392l-0.391,0.76
			c-0.07,0.137-0.241,0.203-0.391,0.127l-2.214-1.141l-4.103,7.973c-0.069,0.136-0.255,0.195-0.391,0.125l-0.896-0.461
			c-0.136-0.069-0.195-0.256-0.125-0.392L145.634,269.999z"/>
		<path fill="#1D1D1B" d="M154.678,273.011c0.059-0.142,0.238-0.216,0.38-0.155l0.931,0.388c0.141,0.059,0.215,0.237,0.156,0.379
			l-3.89,9.334c-0.059,0.142-0.238,0.215-0.379,0.155l-0.931-0.387c-0.142-0.06-0.215-0.238-0.156-0.381L154.678,273.011z"/>
		<path fill="#1D1D1B" d="M166.608,276.861c2.923,0.887,4.55,3.947,3.665,6.871c-0.629,2.076-2.387,3.506-4.421,3.849l0.919,3.342
			c0.07,0.244-0.133,0.438-0.366,0.368l-1.141-0.346c-0.058-0.019-0.162-0.098-0.189-0.217l-0.773-3.14
			c-0.291-0.04-0.617-0.123-0.88-0.202c-2.924-0.885-4.544-3.912-3.659-6.837C160.647,277.628,163.685,275.979,166.608,276.861z
			 M163.864,285.926c2.091,0.633,4.314-0.545,4.947-2.636c0.628-2.075-0.556-4.333-2.646-4.966c-2.075-0.629-4.312,0.594-4.94,2.669
			C160.592,283.084,161.789,285.298,163.864,285.926z"/>
		<path fill="#1D1D1B" d="M176.853,279.992c0.025-0.15,0.185-0.264,0.335-0.238l1.009,0.17c0.166,0.028,0.264,0.184,0.238,0.334
			l-1.046,6.221c-0.254,1.506,0.513,2.844,2.049,3.102c1.551,0.261,2.725-0.734,2.976-2.225l1.052-6.25
			c0.025-0.151,0.168-0.268,0.334-0.238l1.009,0.17c0.15,0.025,0.264,0.184,0.238,0.334l-1.063,6.325
			c-0.386,2.288-2.419,3.79-4.798,3.39c-2.365-0.396-3.78-2.479-3.396-4.768L176.853,279.992z"/>
		<path fill="#1D1D1B" d="M191.1,281.984c0.009-0.151,0.139-0.281,0.306-0.272l6.098,0.336c0.168,0.009,0.282,0.153,0.273,0.306
			l-0.047,0.854c-0.008,0.151-0.138,0.283-0.306,0.272l-4.816-0.265l-0.172,3.109l4.07,0.224c0.152,0.01,0.282,0.153,0.273,0.307
			l-0.047,0.854c-0.009,0.168-0.153,0.282-0.306,0.273l-4.069-0.225l-0.181,3.277l4.816,0.266c0.168,0.01,0.282,0.153,0.274,0.307
			l-0.047,0.838c-0.008,0.152-0.138,0.283-0.306,0.272l-6.097-0.335c-0.168-0.01-0.282-0.152-0.274-0.306L191.1,281.984z"/>
		<path fill="#1D1D1B" d="M203.119,291.203c0.128-0.204,0.238-0.438,0.367-0.643s0.34-0.275,0.514-0.146
			c0.096,0.072,1.312,0.995,2.486,0.941c1.052-0.047,1.693-0.719,1.658-1.496c-0.041-0.914-0.859-1.457-2.396-2.014
			c-1.585-0.587-2.841-1.34-2.92-3.106c-0.055-1.189,0.787-2.861,3.211-2.972c1.523-0.068,2.703,0.672,2.859,0.772
			c0.127,0.069,0.258,0.278,0.115,0.515c-0.113,0.188-0.24,0.407-0.354,0.596c-0.113,0.203-0.308,0.305-0.526,0.178
			c-0.109-0.057-1.208-0.71-2.093-0.67c-1.28,0.058-1.687,0.886-1.66,1.449c0.039,0.869,0.733,1.371,2.022,1.834
			c1.801,0.637,3.348,1.406,3.431,3.267c0.071,1.586-1.287,2.944-3.271,3.034c-1.858,0.084-3.076-0.84-3.33-1.057
			C203.09,291.57,202.979,291.469,203.119,291.203z"/>
		<path fill="#1D1D1B" d="M221.632,280.543c-0.032-0.148,0.06-0.311,0.208-0.342l3.432-0.744c2.881-0.624,5.746,1.208,6.367,4.072
			c0.629,2.896-1.223,5.75-4.103,6.373l-3.433,0.744c-0.148,0.033-0.299-0.076-0.33-0.226L221.632,280.543z M227.02,288.531
			c2.194-0.477,3.441-2.434,2.963-4.643c-0.476-2.193-2.418-3.445-4.611-2.97l-1.971,0.429l1.649,7.609L227.02,288.531z"/>
		<path fill="#1D1D1B" d="M240.021,275.125c2.875-1.025,6,0.469,7.025,3.344s-0.46,5.98-3.334,7.006
			c-2.875,1.025-5.977-0.445-7.001-3.318C235.688,279.279,237.146,276.15,240.021,275.125z M243.201,284.037
			c2.055-0.732,3.142-3,2.408-5.057c-0.729-2.041-3.021-3.15-5.074-2.418c-2.041,0.729-3.113,3.039-2.385,5.08
			C238.883,283.697,241.16,284.766,243.201,284.037z"/>
		<path fill="#1D1D1B" d="M250.118,271.562c-0.069-0.136-0.009-0.319,0.128-0.39l0.911-0.462c0.149-0.076,0.321-0.009,0.39,0.128
			l2.85,5.621c0.688,1.36,2.099,1.981,3.486,1.276c1.402-0.709,1.756-2.207,1.072-3.553l-2.861-5.648
			c-0.068-0.137-0.021-0.314,0.127-0.391l0.912-0.463c0.137-0.068,0.32-0.008,0.391,0.129l2.896,5.717
			c1.049,2.067,0.304,4.48-1.847,5.57c-2.137,1.084-4.51,0.25-5.559-1.818L250.118,271.562z"/>
		<path fill="#1D1D1B" d="M266.422,261.753c1.282-0.854,2.497-1.042,3.859-0.869c0.183,0.025,0.283,0.179,0.25,0.347l-0.178,0.944
			c-0.013,0.175-0.127,0.25-0.316,0.212c-0.944-0.123-1.979,0.09-2.766,0.614c-1.814,1.211-2.17,3.649-0.983,5.427
			c1.187,1.778,3.577,2.364,5.394,1.153c0.926-0.618,1.328-1.418,1.625-2.294c0.055-0.165,0.178-0.229,0.295-0.217l0.965,0.183
			c0.162,0.021,0.246,0.203,0.218,0.351c-0.306,1.414-1.134,2.537-2.265,3.291c-2.539,1.692-5.93,1.037-7.623-1.502
			C263.202,266.854,263.883,263.445,266.422,261.753z"/>
		<path fill="#1D1D1B" d="M274.061,256.714c-0.099-0.116-0.094-0.301,0.035-0.407l4.676-3.932c0.129-0.107,0.311-0.082,0.408,0.035
			l0.551,0.654c0.099,0.117,0.094,0.301-0.035,0.408l-3.693,3.104l2.005,2.385l3.12-2.624c0.117-0.098,0.311-0.081,0.409,0.036
			l0.55,0.653c0.107,0.13,0.082,0.312-0.035,0.408l-3.119,2.625l2.111,2.513l3.693-3.104c0.129-0.107,0.311-0.082,0.408,0.035
			l0.541,0.643c0.099,0.117,0.094,0.302-0.035,0.41l-4.676,3.93c-0.129,0.107-0.312,0.082-0.408-0.034L274.061,256.714z"/>
		<path fill="#1D1D1B" d="M289.13,255.216c-0.047-0.237-0.126-0.483-0.172-0.722c-0.047-0.236,0.06-0.434,0.274-0.457
			c0.117-0.012,1.639-0.173,2.459-1.016c0.734-0.756,0.744-1.685,0.187-2.228c-0.657-0.64-1.626-0.476-3.13,0.172
			c-1.557,0.658-2.988,0.97-4.258-0.267c-0.854-0.831-1.385-2.627,0.309-4.366c1.065-1.095,2.434-1.36,2.616-1.396
			c0.14-0.035,0.378,0.026,0.437,0.297c0.047,0.215,0.104,0.463,0.148,0.679c0.059,0.226-0.016,0.433-0.264,0.489
			c-0.117,0.033-1.366,0.31-1.984,0.943c-0.895,0.92-0.623,1.801-0.219,2.194c0.624,0.606,1.476,0.499,2.73-0.047
			c1.75-0.769,3.405-1.267,4.74,0.032c1.139,1.107,1.077,3.031-0.309,4.453c-1.299,1.334-2.818,1.496-3.152,1.512
			C289.359,255.504,289.209,255.506,289.13,255.216z"/>
	</g>
</g>
<path fill="#1D1D1B" d="M212.914,167.02"/>
<path fill="none" stroke="#9AD1CA" stroke-width="1.2355" stroke-miterlimit="10" d="M208.666,173.9"/>
<g>
	<path fill="#B6925E" d="M100.122,166.396l-3.51,3.51c-0.228,0.227-0.641,0.227-0.866,0.002l-0.958-0.959
		c-0.229-0.229-0.229-0.641-0.001-0.867l3.511-3.512l-3.531-3.531c-0.229-0.23-0.205-0.615,0.022-0.844l0.957-0.957
		c0.229-0.229,0.614-0.252,0.844-0.023l3.531,3.531l3.509-3.51c0.229-0.229,0.617-0.205,0.846,0.023l0.958,0.959
		c0.226,0.225,0.249,0.615,0.021,0.844l-3.509,3.508l3.487,3.491c0.229,0.227,0.205,0.614-0.023,0.844l-0.957,0.957
		c-0.228,0.227-0.615,0.25-0.843,0.021L100.122,166.396z"/>
</g>
<g>
	<path fill="#B6925E" d="M301.332,166.396l-3.51,3.51c-0.227,0.227-0.641,0.227-0.865,0.002l-0.959-0.959
		c-0.229-0.229-0.229-0.641,0-0.867l3.51-3.512l-3.531-3.531c-0.229-0.23-0.205-0.615,0.023-0.844l0.957-0.957
		c0.229-0.229,0.613-0.252,0.844-0.023l3.531,3.531l3.508-3.51c0.229-0.229,0.617-0.205,0.846,0.023l0.959,0.959
		c0.226,0.225,0.248,0.615,0.021,0.844l-3.508,3.508l3.485,3.491c0.229,0.227,0.205,0.614-0.022,0.844l-0.957,0.957
		c-0.228,0.227-0.615,0.25-0.842,0.021L301.332,166.396z"/>
</g>
<g>
	<path fill="#1D1D1B" d="M166.87,218.812c0.117-0.17,0.221-0.363,0.338-0.533c0.117-0.168,0.299-0.221,0.442-0.104
		c0.078,0.065,1.079,0.897,2.08,0.897c0.897,0,1.469-0.546,1.469-1.209c0-0.78-0.676-1.274-1.963-1.808
		c-1.326-0.56-2.366-1.248-2.366-2.757c0-1.014,0.78-2.405,2.847-2.405c1.3,0,2.275,0.676,2.405,0.769
		c0.104,0.063,0.208,0.246,0.078,0.44c-0.104,0.156-0.221,0.338-0.325,0.494c-0.104,0.17-0.273,0.248-0.455,0.131
		c-0.091-0.053-1.001-0.649-1.755-0.649c-1.092,0-1.469,0.688-1.469,1.17c0,0.74,0.572,1.194,1.651,1.638
		c1.508,0.611,2.795,1.326,2.795,2.912c0,1.354-1.209,2.457-2.899,2.457c-1.586,0-2.587-0.832-2.795-1.027
		C166.831,219.124,166.739,219.033,166.87,218.812z"/>
	<path fill="#1D1D1B" d="M179.583,212.247h-2.119c-0.143,0-0.247-0.117-0.247-0.247v-0.729c0-0.131,0.104-0.248,0.247-0.248h5.59
		c0.143,0,0.247,0.117,0.247,0.248V212c0,0.13-0.104,0.247-0.247,0.247h-2.119v7.631c0,0.13-0.117,0.247-0.247,0.247h-0.858
		c-0.13,0-0.247-0.117-0.247-0.247V212.247z"/>
	<path fill="#1D1D1B" d="M188.488,211.271c0-0.131,0.117-0.248,0.247-0.248h0.871c0.143,0,0.247,0.117,0.247,0.248v5.369
		c0,1.301,0.832,2.313,2.158,2.313c1.339,0,2.184-1.001,2.184-2.288v-5.396c0-0.129,0.104-0.246,0.247-0.246h0.871
		c0.13,0,0.247,0.117,0.247,0.246v5.461c0,1.977-1.495,3.522-3.549,3.522c-2.041,0-3.523-1.547-3.523-3.522V211.271z"/>
	<path fill="#1D1D1B" d="M201.865,211.271c0-0.131,0.104-0.248,0.234-0.248h2.989c2.509,0,4.562,2.041,4.562,4.537
		c0,2.522-2.053,4.563-4.562,4.563H202.1c-0.131,0-0.234-0.117-0.234-0.247V211.271z M204.908,218.891
		c1.91,0,3.302-1.404,3.302-3.328c0-1.912-1.392-3.303-3.302-3.303h-1.717v6.631H204.908z"/>
	<path fill="#1D1D1B" d="M215.425,211.271c0-0.131,0.116-0.248,0.247-0.248h0.857c0.131,0,0.248,0.117,0.248,0.248v8.605
		c0,0.13-0.117,0.247-0.248,0.247h-0.857c-0.131,0-0.247-0.117-0.247-0.247V211.271z"/>
	<path fill="#1D1D1B" d="M227.203,210.895c2.6,0,4.68,2.094,4.68,4.693s-2.08,4.667-4.68,4.667c-2.602,0-4.668-2.067-4.668-4.667
		C222.535,212.986,224.604,210.895,227.203,210.895z M227.203,218.955c1.859,0,3.38-1.508,3.38-3.367
		c0-1.846-1.521-3.395-3.38-3.395c-1.848,0-3.367,1.549-3.367,3.395C223.836,217.447,225.355,218.955,227.203,218.955z"/>
</g>
<g>
	<g>
		<path fill="#000100" d="M218.73,163.984c0,7.875-2.777,14.316-8.336,19.329c-5.054,4.547-10.97,6.819-17.749,6.819
			c-7.369,0-13.411-2.146-18.127-6.44c-5.222-4.715-7.831-11.308-7.831-19.771c0-8.086,2.883-14.611,8.653-19.58
			c5.053-4.336,10.84-6.506,17.368-6.506c7.874,0,14.212,2.422,19.012,7.264C216.395,149.9,218.73,156.195,218.73,163.984z
			 M213.932,164.016c0-6.391-2.105-11.92-6.315-16.588c-4.212-4.668-9.18-7.002-14.905-7.002c-6.231,0-11.286,2.082-15.159,6.244
			c-4.041,4.332-6.062,10.072-6.062,17.221c0,6.477,2.094,11.996,6.285,16.559c4.188,4.562,9.146,6.842,14.873,6.842
			c5.769,0,10.633-1.894,14.59-5.676C211.699,177.367,213.932,171.502,213.932,164.016z"/>
		<path fill="#000100" d="M267.1,186.66c-0.633-0.506-1.391-1.77-2.274-3.791c-2.568-5.895-5.578-13.346-9.031-22.357
			c-1.457-3.803-3.604-9.578-6.442-17.309l0,0c0-0.002,0-0.002,0-0.002c-0.135-0.363-0.269-0.729-0.406-1.102
			c-0.334-1.072-0.203-1.738,0.406-1.99c0.717-0.293,1.791-0.441,3.222-0.441v-0.947c-1.542,0.119-3.144,0.176-4.796,0.184
			c-0.002-0.004-0.002-0.006-0.004-0.008l0.004,0.008c-0.094,0-0.184,0.004-0.275,0.004l-3.961,0.002
			c-1.768,0-3.473-0.062-5.115-0.189v0.947c1.432,0,2.504,0.148,3.221,0.441c0.717,0.295,0.779,1.16,0.189,2.59
			c-8.21,19.623-14.337,33.709-18.379,42.256c-0.547,1.137-1.223,1.916-2.021,2.336c-0.506,0.17-0.988,0.338-1.453,0.506
			c-0.969,0.127-1.871,0.231-2.715,0.315v1.072c3.705-0.125,6.021-0.188,6.946-0.188l6.886,0.188v-1.072
			c-1.349,0-2.273-0.104-2.779-0.315c-0.758-0.295-0.947-0.903-0.568-1.832c2.905-7.536,5.199-13.305,6.885-17.307
			c0.168-0.38,0.463-0.589,0.883-0.632c5.056-0.041,10.864-0.02,17.435,0.064c0.379,0,0.631,0.084,0.758,0.252
			c0.759,1.18,2.863,6.969,6.315,17.369c0.041,0.168,0.062,0.357,0.062,0.568c0,0.883-0.4,1.41-1.199,1.578
			c-0.928,0.127-1.643,0.211-2.146,0.254v1.072c4.462-0.125,7.199-0.189,8.21-0.189l8.084,0.189v-1.072
			C269.92,187.818,267.939,187.334,267.1,186.66z M252.012,165.248c-5.392,0.168-10.529,0.189-15.414,0.062
			c-0.338-0.041-0.443-0.209-0.315-0.504c1.729-4.211,4.597-10.908,8.604-20.094c2.899,7.496,5.381,14.131,7.442,19.9
			C252.494,165.037,252.391,165.248,252.012,165.248z"/>
		<path fill="#000100" d="M156.697,165.629c-4.547-3.918-8.675-7.412-12.379-10.486c-1.769-1.6-2.653-3.643-2.653-6.127
			c0-1.895,0.652-3.664,1.957-5.305c1.684-1.98,3.937-2.969,6.758-2.969c2.4,0,4.295,0.504,5.685,1.516
			c1.557,1.137,2.316,2.779,2.274,4.926h1.137c-0.169-2.693-0.169-5.072,0-7.137c-0.003-0.002-0.007-0.004-0.01-0.004
			c0.032-0.512,0.066-1.027,0.099-1.543h-1.137c0.01,0.562-0.734,0.822-1.269,0.629l0.002,0.002
			c-2.187-0.734-4.383-1.105-6.591-1.105c-3.37,0-6.337,0.906-8.905,2.717c-3.244,2.273-4.864,5.561-4.864,9.854
			c0,3.033,1.178,5.688,3.534,7.961c4.72,4.121,8.849,7.676,12.39,10.66c1.176,1.22,1.952,2.205,2.331,2.962
			c0.503,1.049,0.757,2.434,0.757,4.155c0,2.771-0.886,5.121-2.653,7.054c-2.107,2.309-5.095,3.463-8.969,3.463
			c-4.337,0-6.99-1.148-7.958-3.443c-0.378-1.67-0.568-2.9-0.568-3.693h-1.01c0.167,3.725,0.167,6.568,0,8.535
			c0.001,0.002,0.002,0.002,0.004,0.002c-0.035,0.506-0.069,1.014-0.102,1.525h1.137c-0.01-0.562,0.447-1.074,1-0.943l-0.006-0.012
			c2.455,0.615,4.935,0.936,7.441,0.936c5.136,0,9.157-1.156,12.063-3.467c3.284-2.604,4.926-6.467,4.926-11.59
			C161.117,171.592,159.644,168.568,156.697,165.629z"/>
	</g>
	<circle fill="#1D1D1B" cx="185.456" cy="130.602" r="2.554"/>
	<circle fill="#1D1D1B" cx="199.081" cy="130.602" r="2.554"/>
</g>
<rect x="77.845" y="66.582" fill="none" width="245.641" height="168.947"/>
<rect x="77.845" y="66.582" fill="none" width="245.641" height="168.947"/>
<g>
	<defs>
		<rect id="SVGID_1_" x="77.845" y="66.582" width="245.641" height="168.947"/>
	</defs>
	<clipPath id="SVGID_2_">
		<use xlink:href="#SVGID_1_"  overflow="visible"/>
	</clipPath>
	
		<path clip-path="url(#SVGID_2_)" fill="none" stroke="#1D1D1B" stroke-width="1.8264" stroke-linecap="round" stroke-linejoin="round" stroke-miterlimit="10" d="
		M101.92,234.615L101.92,234.615 M78.758,163.109L78.758,163.109 M124.607,67.832L124.607,67.832"/>
</g>
<rect x="77.845" y="66.582" fill="none" width="245.641" height="168.947"/>
<rect x="77.845" y="66.582" fill="none" width="245.641" height="168.947"/>
<path fill="none" stroke="#1D1D1B" stroke-width="1.8264" stroke-linecap="round" stroke-linejoin="round" stroke-miterlimit="10" stroke-dasharray="0,5.4684" d="
	M120.413,71.342C95.52,93.129,79.57,124.883,78.789,160.375 M78.878,168.568c1.042,23.647,8.821,45.547,21.464,63.82
	 M302.648,229.926c12.133-18.482,19.377-40.459,19.895-64.096 M322.45,157.617c-1.575-35.539-18.366-67.119-44.017-88.391"/>
<g>
	<defs>
		<rect id="SVGID_3_" x="77.845" y="66.582" width="245.641" height="168.947"/>
	</defs>
	<clipPath id="SVGID_4_">
		<use xlink:href="#SVGID_3_"  overflow="visible"/>
	</clipPath>
	
		<path clip-path="url(#SVGID_4_)" fill="none" stroke="#1D1D1B" stroke-width="1.8264" stroke-linecap="round" stroke-linejoin="round" stroke-miterlimit="10" d="
		M276.299,67.496L276.299,67.496 M322.572,163.109L322.572,163.109 M299.562,234.404L299.562,234.404"/>
</g>
<circle fill="#B6915D" cx="124.644" cy="67.824" r="1.554"/>
<circle fill="#B6915D" cx="276.27" cy="67.707" r="1.554"/>
<circle fill="#B6915D" cx="105.902" cy="239.621" r="1.554"/>
<circle fill="#B6915D" cx="295.725" cy="239.621" r="1.554"/>
</svg>
