<?xml version="1.0" encoding="utf-8"?>
<!-- Generator: Adobe Illustrator 16.0.0, SVG Export Plug-In . SVG Version: 6.00 Build 0)  -->
<!DOCTYPE svg PUBLIC "-//W3C//DTD SVG 1.1//EN" "http://www.w3.org/Graphics/SVG/1.1/DTD/svg11.dtd">
<svg version="1.1" id="Calque_1" xmlns="http://www.w3.org/2000/svg" xmlns:xlink="http://www.w3.org/1999/xlink" x="0px" y="0px"
	 width="400px" height="330px" viewBox="0 0 400 330" enable-background="new 0 0 400 330" xml:space="preserve">
<rect x="129.171" y="243.064" fill="#254393" width="152.631" height="2.573"/>
<polygon fill="#254393" points="281.672,166.178 281.672,157.539 237.854,157.539 237.854,178.814 260.405,178.814 260.405,208.019 
	215.751,208.019 215.751,117.922 194.474,117.922 194.474,208.019 150.236,208.019 150.236,178.814 173.098,178.814 
	173.098,157.539 129.29,157.539 129.29,178.814 129.379,178.814 129.379,229.296 132.998,229.296 150.236,229.296 194.474,229.296 
	215.751,229.296 260.405,229.296 279.118,229.296 281.682,229.296 281.682,166.178 "/>
<polygon fill="#254393" points="281.672,75.768 260.733,75.768 150.567,75.768 129.379,75.768 129.29,75.768 129.29,132.756 
	150.567,132.756 150.567,97.044 260.733,97.044 260.733,132.756 282.011,132.756 282.011,75.768 "/>
<g>
	<g>
		<path fill="#254393" d="M66.646,228.188l-1.696,1.781l2.458-0.096l-5.162,5.412l-0.43-0.949l3.223-3.393l-1.043,0.033
			l-2.514,2.622l-0.429-0.949l3.223-3.391l-4.675,0.179l-0.43-0.95L66.646,228.188z"/>
		<path fill="#254393" d="M63.687,221.063l-1.781,1.694l2.458,0.026l-5.424,5.144l-0.382-0.969l3.388-3.225l-1.043-0.02l-2.64,2.492
			l-0.381-0.97l3.387-3.224l-4.676-0.056l-0.38-0.969L63.687,221.063z"/>
		<path fill="#254393" d="M61.087,213.783l-1.865,1.601l2.453,0.151l-5.678,4.865l-0.332-0.986l3.547-3.051l-1.041-0.071
			l-2.763,2.356l-0.332-0.989l3.546-3.05l-4.668-0.291l-0.331-0.986L61.087,213.783z"/>
		<path fill="#254393" d="M59.139,211.92c-0.104-0.334,0.097-0.703,0.432-0.807c0.344-0.108,0.71,0.084,0.813,0.418
			c0.107,0.345-0.088,0.701-0.432,0.809C59.618,212.444,59.245,212.264,59.139,211.92z"/>
		<path fill="#254393" d="M53.762,210.311l0.463,1.619l-0.918,0.262l-1.198-4.195l0.918-0.263l0.463,1.621l5.639-1.61l0.272,0.955
			L53.762,210.311z"/>
		<path fill="#254393" d="M51.835,206.91l-0.25-0.961l6.598-1.714l0.249,0.961L51.835,206.91z"/>
		<path fill="#254393" d="M51.843,203.02l0.385,1.642l-0.93,0.218l-0.996-4.25l0.93-0.217l0.385,1.641l5.708-1.338l0.228,0.967
			L51.843,203.02z"/>
		<path fill="#254393" d="M55.01,198.144l1.809,0.349l0.208,1.031l-7.373-1.449l6.232-4.198l0.208,1.03l-1.53,1.024L55.01,198.144z
			 M51.935,197.613l2.151,0.379l-0.316-1.564L51.935,197.613z"/>
		<path fill="#254393" d="M49.041,194.29l-0.145-0.903l3.688-4.119l-4.238,0.679l-0.147-0.923l6.842-1.096l-4.494,5.175l5.074-0.812
			l0.148,0.922L49.041,194.29z"/>
		<path fill="#254393" d="M51.695,184.744l-0.278-2.574l0.852-0.092l0.278,2.574L51.695,184.744z"/>
		<path fill="#254393" d="M53.53,173.987c0.16,0.371,0.263,0.765,0.289,1.191c0.121,1.935-1.355,3.588-3.3,3.71
			c-1.954,0.123-3.626-1.334-3.747-3.268c-0.026-0.429,0.026-0.832,0.139-1.219c0,0,1.099-0.068,1.108-0.07
			c-0.201,0.374-0.302,0.79-0.274,1.228c0.083,1.332,1.298,2.349,2.708,2.261c1.399-0.088,2.478-1.248,2.395-2.58
			c-0.027-0.438-0.169-0.839-0.415-1.184L53.53,173.987z"/>
		<path fill="#254393" d="M46.577,170.229c-0.041-1.936,1.502-3.524,3.457-3.566c1.945-0.041,3.555,1.482,3.596,3.418
			s-1.502,3.526-3.447,3.567C48.227,173.689,46.618,172.166,46.577,170.229z M52.656,170.102c-0.027-1.333-1.199-2.398-2.6-2.369
			c-1.411,0.031-2.535,1.144-2.507,2.477c0.028,1.332,1.199,2.398,2.609,2.368C51.56,172.547,52.685,171.434,52.656,170.102z"/>
		<path fill="#254393" d="M51.368,162.671l-4.71-2.408l6.967-1.09l-0.028,1.031l-3.858,0.563l3.914,1.967l-4.019,1.746l3.821,0.778
			l-0.028,1.03l-6.896-1.476L51.368,162.671z"/>
		<path fill="#254393" d="M51.605,155.456l-0.103,1.409l2.282,0.164l-0.071,0.991l-6.796-0.491l0.173-2.398
			c0.09-1.243,1.182-2.169,2.424-2.081C50.767,153.141,51.695,154.213,51.605,155.456z M47.954,155.329l-0.091,1.272l2.767,0.2
			l0.092-1.271c0.062-0.865-0.476-1.391-1.281-1.45C48.674,154.024,48.01,154.571,47.954,155.329z"/>
		<path fill="#254393" d="M47.61,148.54c0.226-1.922,1.972-3.286,3.913-3.059c1.933,0.227,3.316,1.956,3.092,3.879
			c-0.226,1.922-1.971,3.285-3.903,3.059C48.771,152.192,47.386,150.463,47.61,148.54z M53.649,149.247
			c0.154-1.323-0.858-2.539-2.25-2.702c-1.401-0.165-2.668,0.785-2.822,2.109c-0.155,1.323,0.857,2.538,2.259,2.702
			C52.228,151.52,53.494,150.57,53.649,149.247z"/>
		<path fill="#254393" d="M53.84,145.211c0.05-0.347,0.39-0.593,0.737-0.542c0.355,0.05,0.604,0.381,0.554,0.729
			c-0.052,0.356-0.38,0.593-0.736,0.542C54.048,145.889,53.789,145.567,53.84,145.211z"/>
		<path fill="#254393" d="M55.882,139.378c0.071,0.397,0.082,0.804,0.01,1.225c-0.322,1.91-2.136,3.182-4.055,2.858
			c-1.928-0.327-3.223-2.124-2.9-4.033c0.071-0.422,0.215-0.802,0.412-1.154c0,0,1.084,0.184,1.094,0.185
			c-0.28,0.317-0.473,0.699-0.546,1.132c-0.222,1.314,0.728,2.58,2.119,2.814c1.382,0.233,2.695-0.649,2.917-1.963
			c0.073-0.433,0.025-0.855-0.135-1.247L55.882,139.378z"/>
		<path fill="#254393" d="M49.957,134.15c0.399-1.896,2.265-3.095,4.18-2.69c1.905,0.401,3.128,2.252,2.728,4.147
			c-0.4,1.895-2.265,3.095-4.17,2.692C50.779,137.896,49.558,136.046,49.957,134.15z M55.911,135.406
			c0.275-1.305-0.623-2.609-1.996-2.899c-1.381-0.29-2.73,0.539-3.006,1.844c-0.274,1.306,0.625,2.609,2.006,2.901
			C54.287,137.541,55.636,136.712,55.911,135.406z"/>
		<path fill="#254393" d="M56.354,127.839l-4.043-3.415l7.037,0.519l-0.262,0.998l-3.889-0.327l3.367,2.806l-4.311,0.789
			l3.546,1.626l-0.263,0.997l-6.383-3.004L56.354,127.839z"/>
		<path fill="#254393" d="M66.364,97.614c1.494,0.713,2.887,2.155,2.043,3.922c-0.843,1.766-2.841,1.589-4.334,0.875
			c-1.494-0.713-2.879-2.152-2.035-3.917C62.881,96.727,64.87,96.901,66.364,97.614z M65.928,98.528
			c-1.283-0.614-2.575-0.798-3.117,0.335c-0.541,1.133,0.415,2.021,1.698,2.634c1.283,0.614,2.584,0.803,3.126-0.33
			C68.176,100.033,67.21,99.141,65.928,98.528z"/>
		<path fill="#254393" d="M67.003,96.748l-2.159-3.963l0.809-0.39l1.309,2.353l0.031-0.061c0.573-1.096,1.892-1.517,2.953-0.962
			c1.044,0.545,1.452,1.867,0.88,2.963c-0.56,1.071-1.878,1.492-2.923,0.946C67.505,97.428,67.206,97.117,67.003,96.748z
			 M67.787,95.08c-0.303,0.58-0.063,1.319,0.575,1.652c0.64,0.333,1.385,0.107,1.686-0.471c0.303-0.578,0.059-1.31-0.58-1.644
			S68.089,94.502,67.787,95.08z"/>
		<path fill="#254393" d="M71.193,93.235c0.168-0.308,0.573-0.417,0.88-0.249c0.315,0.173,0.431,0.568,0.263,0.876
			c-0.173,0.315-0.564,0.422-0.88,0.25C71.148,93.942,71.021,93.551,71.193,93.235z"/>
		<path fill="#254393" d="M73.924,84.147c1.417,0.858,2.661,2.431,1.647,4.105s-2.984,1.301-4.401,0.444
			c-1.416-0.858-2.652-2.426-1.639-4.1C70.545,82.921,72.508,83.29,73.924,84.147z M73.399,85.014
			c-1.216-0.736-2.484-1.049-3.135,0.026s0.214,2.054,1.43,2.79c1.217,0.737,2.494,1.054,3.144-0.021
			C75.489,86.735,74.616,85.751,73.399,85.014z"/>
		<path fill="#254393" d="M74.06,79.25l-1.768,2.694l-0.7-0.459l2.575-3.923l3.862,6.833l-0.805,0.426L74.06,79.25z"/>
		<path fill="#254393" d="M78.731,80.91c0.197-0.29,0.611-0.362,0.9-0.165c0.299,0.202,0.377,0.607,0.18,0.897
			c-0.202,0.298-0.602,0.368-0.9,0.166C78.621,81.612,78.53,81.209,78.731,80.91z"/>
		<path fill="#254393" d="M77.716,72.394c0.713-0.963,2.048-1.21,2.94-0.55c0.478,0.354,0.644,0.718,0.795,1.267l0.899,3.27
			l1.541-2.082l0.674,0.499l-2.607,3.522l-0.986-3.481c-0.715,0.95-2.038,1.183-2.922,0.528
			C77.156,74.706,77.004,73.356,77.716,72.394z M80.296,74.328c0.389-0.524,0.282-1.282-0.242-1.671
			c-0.525-0.389-1.279-0.268-1.668,0.257c-0.388,0.525-0.275,1.273,0.249,1.662C79.158,74.964,79.908,74.853,80.296,74.328z"/>
		<path fill="#254393" d="M86.402,69.234l0.656,0.52l-0.52,0.657l0.915,0.725l-0.592,0.747l-0.916-0.725l-2.182,2.753l-1.749-7.085
			l3.867,3.064L86.402,69.234z M83.422,69.157l0.738,2.908l1.13-1.427L83.422,69.157z"/>
		<path fill="#254393" d="M87.915,68.744c0.225-0.269,0.644-0.299,0.912-0.074c0.276,0.23,0.313,0.643,0.088,0.91
			c-0.23,0.276-0.635,0.306-0.912,0.075C87.735,69.431,87.685,69.021,87.915,68.744z"/>
		<path fill="#254393" d="M91.354,61.213l1.088,4.375l-0.881,0.174l-0.67-2.605l-0.046,0.05c-0.83,0.915-2.211,0.99-3.097,0.186
			c-0.872-0.791-0.933-2.172-0.103-3.087c0.811-0.893,2.191-0.967,3.062-0.177C91.041,60.43,91.26,60.812,91.354,61.213z
			 M90.177,62.626c0.438-0.482,0.393-1.259-0.14-1.742c-0.533-0.483-1.31-0.452-1.747,0.031c-0.438,0.482-0.387,1.251,0.146,1.734
			C88.969,63.133,89.739,63.109,90.177,62.626z"/>
		<path fill="#254393" d="M92.386,60.609l-0.955-4.407l0.885-0.146l0.592,2.624l0.047-0.048c0.857-0.89,2.24-0.922,3.102-0.092
			c0.848,0.817,0.866,2.2,0.008,3.088c-0.837,0.87-2.219,0.901-3.066,0.083C92.675,61.401,92.476,61.02,92.386,60.609z
			 M93.605,59.23c-0.452,0.47-0.431,1.247,0.087,1.746c0.518,0.499,1.296,0.492,1.748,0.022c0.452-0.469,0.424-1.239-0.094-1.738
			C94.828,58.761,94.058,58.761,93.605,59.23z"/>
		<path fill="#254393" d="M97.4,58.418c0.249-0.246,0.669-0.237,0.915,0.011c0.254,0.256,0.252,0.668,0.004,0.916
			c-0.255,0.253-0.661,0.246-0.915-0.011C97.157,59.086,97.145,58.672,97.4,58.418z"/>
		<path fill="#254393" d="M99.49,49.832l-2.377,2.175l-0.565-0.617l3.462-3.167l2.06,7.573l-0.885,0.215L99.49,49.832z"/>
		<path fill="#254393" d="M101.32,48.202l-0.547-0.634l1.467-1.264l4.454,5.166l-0.723,0.624l-3.908-4.533L101.32,48.202z"/>
		<path fill="#254393" d="M121.318,33.524l-1.429,0.89l-0.504-0.81l3.701-2.303l0.504,0.809l-1.43,0.89l3.094,4.973l-0.842,0.525
			L121.318,33.524z"/>
		<path fill="#254393" d="M125.767,29.74l0.861-0.494l3.387,5.909l-0.861,0.493L125.767,29.74z"/>
		<path fill="#254393" d="M131.313,27.771l-1.491,0.781l-0.442-0.844l3.859-2.023l0.442,0.845l-1.49,0.781l2.718,5.186l-0.879,0.46
			L131.313,27.771z"/>
		<path fill="#254393" d="M138.549,28.753l0.08,1.841l-0.954,0.442l-0.305-7.51l5.534,5.085l-0.954,0.442l-1.353-1.251
			L138.549,28.753z M138.349,25.637l0.132,2.182l1.448-0.671L138.349,25.637z"/>
		<path fill="#254393" d="M142.718,21.231l0.848-0.346l4.854,2.652l-1.627-3.974l0.865-0.354l2.626,6.417l-6.065-3.199l1.948,4.759
			l-0.864,0.354L142.718,21.231z"/>
		<path fill="#254393" d="M161.447,21.583c-0.321,0.244-0.678,0.439-1.086,0.567c-1.846,0.584-3.806-0.449-4.392-2.302
			c-0.591-1.865,0.418-3.837,2.264-4.421c0.408-0.128,0.812-0.175,1.215-0.16c0,0,0.332,1.047,0.334,1.057
			c-0.41-0.104-0.838-0.102-1.256,0.031c-1.271,0.401-1.963,1.824-1.537,3.169c0.423,1.336,1.808,2.101,3.078,1.699
			c0.418-0.132,0.772-0.367,1.048-0.688L161.447,21.583z"/>
		<path fill="#254393" d="M165.352,13.394c1.876-0.486,3.78,0.647,4.272,2.542c0.49,1.885-0.622,3.804-2.496,4.292
			c-1.876,0.486-3.781-0.647-4.271-2.534C162.364,15.8,163.477,13.881,165.352,13.394z M166.882,19.285
			c1.292-0.336,2.059-1.722,1.705-3.08c-0.354-1.366-1.699-2.204-2.99-1.869s-2.058,1.722-1.703,3.088
			C164.247,18.782,165.591,19.62,166.882,19.285z"/>
		<path fill="#254393" d="M175.746,15.933l1.328-5.126l2.583,6.572l-1.014,0.196l-1.392-3.648l-1.07,4.254l-2.582-3.547l0.072,3.904
			l-1.013,0.197l-0.06-7.06L175.746,15.933z"/>
		<path fill="#254393" d="M184.751,14.337l-1.398,0.188l0.306,2.266l-0.984,0.133l-0.909-6.749l2.381-0.321
			c1.234-0.167,2.364,0.712,2.53,1.946C186.844,13.043,185.984,14.171,184.751,14.337z M184.128,10.739l-1.263,0.171l0.37,2.747
			l1.264-0.169c0.857-0.116,1.263-0.75,1.155-1.55C185.552,11.176,184.88,10.638,184.128,10.739z"/>
		<path fill="#254393" d="M192.703,8.836c1.931-0.149,3.604,1.302,3.756,3.253c0.15,1.939-1.28,3.631-3.21,3.781
			c-1.931,0.15-3.605-1.301-3.756-3.241C189.343,10.678,190.772,8.986,192.703,8.836z M193.173,14.899
			c1.33-0.102,2.327-1.332,2.219-2.729c-0.108-1.407-1.284-2.466-2.613-2.364c-1.329,0.103-2.327,1.333-2.218,2.739
			C190.669,13.942,191.845,15.003,193.173,14.899z"/>
		<path fill="#254393" d="M202.157,11.419c1.07-0.022,1.944,0.835,1.967,1.886c0.022,1.07-0.824,1.993-1.885,2.016l-2.637,0.055
			l-0.02-0.973l2.461-0.051c0.584-0.013,1.041-0.441,1.029-1.015c-0.012-0.583-0.488-0.992-1.071-0.979l-0.944,0.02
			c-1.051,0.022-1.906-0.865-1.929-1.906c-0.021-1.041,0.798-1.915,1.848-1.937l2.17-0.045l0.02,0.923l-2.054,0.043
			c-0.544,0.011-0.981,0.469-0.971,1.013c0.012,0.546,0.469,0.983,1.014,0.972L202.157,11.419z"/>
		<path fill="#254393" d="M207.187,8.505l0.992,0.019l-0.128,6.811l-0.993-0.02L207.187,8.505z"/>
		<path fill="#254393" d="M212.929,9.653l-1.68-0.092l0.052-0.951l4.351,0.237l-0.053,0.952l-1.68-0.092l-0.319,5.845l-0.99-0.055
			L212.929,9.653z"/>
		<path fill="#254393" d="M218.841,9.095l3.954,0.4l-0.097,0.95l-2.965-0.3l-0.166,1.637l2.829,0.286l-0.094,0.931l-2.83-0.286
			l-0.231,2.297l3.023,0.306l-0.099,0.969l-4.013-0.406L218.841,9.095z"/>
		<path fill="#254393" d="M245.917,18.744l3.473-3.993l-0.621,7.029l-0.994-0.277l0.384-3.883l-2.855,3.326l-0.726-4.323
			l-1.678,3.524l-0.993-0.277l3.097-6.339L245.917,18.744z"/>
		<path fill="#254393" d="M253.328,21.477l-1.214,1.384l-0.994-0.34l4.967-5.636l0.485,7.498l-0.995-0.339l-0.112-1.838
			L253.328,21.477z M255.337,19.087l-1.413,1.666l1.511,0.516L255.337,19.087z"/>
		<path fill="#254393" d="M261.589,20.029l-1.57-0.612l0.347-0.89l4.065,1.583L264.085,21l-1.57-0.61l-2.126,5.463l-0.926-0.361
			L261.589,20.029z"/>
		<path fill="#254393" d="M267.355,21.34l3.632,1.608l-0.387,0.872l-2.723-1.206l-0.666,1.504l2.599,1.149l-0.378,0.855l-2.6-1.151
			l-0.933,2.11l2.776,1.228l-0.395,0.89l-3.684-1.629L267.355,21.34z"/>
		<path fill="#254393" d="M275.451,32.408l-0.127,0.251l-0.903-0.455l0.127-0.251c0.337-0.669,0.275-1.78-0.611-2.225l-1.076-0.543
			l-0.898,1.781l-0.896-0.451l3.065-6.082l1.973,0.994c1.295,0.653,1.83,2.056,1.199,3.307c-0.438,0.869-1.288,1.235-1.901,1.242
			C275.939,30.79,275.819,31.678,275.451,32.408z M275.814,26.26l-1.181-0.595l-1.38,2.737l1.182,0.595
			c0.721,0.364,1.605-0.05,1.947-0.728C276.737,27.565,276.536,26.624,275.814,26.26z"/>
		<path fill="#254393" d="M281.428,28.224l0.868,0.48l-3.303,5.959l-0.868-0.48L281.428,28.224z"/>
		<path fill="#254393" d="M283.773,35.462l-1.485,1.089l-0.898-0.547l6.075-4.424l-1.155,7.426l-0.897-0.548l0.289-1.819
			L283.773,35.462z M286.253,33.565l-1.741,1.321l1.363,0.833L286.253,33.565z"/>
		<path fill="#254393" d="M292.986,35.252l-2.608,3.836c-0.41,0.604-0.256,1.45,0.355,1.866c0.611,0.415,1.463,0.253,1.873-0.351
			l2.608-3.837l0.82,0.558l-2.608,3.837c-0.723,1.062-2.16,1.309-3.238,0.576c-1.069-0.727-1.354-2.145-0.632-3.206l2.609-3.837
			L292.986,35.252z"/>
		<path fill="#254393" d="M299.192,42.189l2.066-1.011l0.846,0.639l-3.188,1.542l-0.705,4.049l-0.839-0.634l0.482-2.816
			l-2.577,1.234l-0.839-0.633l3.702-1.786l0.61-3.487l0.846,0.639L299.192,42.189z"/>
		<path fill="#254393" d="M308.274,46.862l2.977,2.628l-0.631,0.714l-2.232-1.971l-1.089,1.233l2.13,1.881l-0.618,0.7l-2.13-1.88
			l-1.527,1.728l2.276,2.01l-0.644,0.729l-3.021-2.667L308.274,46.862z"/>
		<path fill="#254393" d="M312.179,59.646c-0.367-0.166-0.707-0.388-1.015-0.687c-1.39-1.35-1.409-3.564-0.054-4.962
			c1.362-1.403,3.578-1.449,4.968-0.101c0.308,0.298,0.539,0.632,0.716,0.994c0,0-0.765,0.789-0.771,0.796
			c-0.103-0.412-0.309-0.787-0.622-1.092c-0.957-0.929-2.538-0.864-3.521,0.148c-0.976,1.006-0.993,2.59-0.038,3.518
			c0.314,0.305,0.689,0.506,1.104,0.597L312.179,59.646z"/>
		<path fill="#254393" d="M321.219,59.215c1.314,1.422,1.213,3.635-0.225,4.962c-1.429,1.321-3.644,1.246-4.958-0.176
			c-1.313-1.421-1.212-3.635,0.219-4.956C317.69,57.719,319.905,57.792,321.219,59.215z M316.751,63.342
			c0.904,0.979,2.488,1,3.518,0.05c1.036-0.958,1.141-2.537,0.236-3.517c-0.905-0.98-2.488-1.001-3.524-0.043
			C315.951,60.783,315.847,62.362,316.751,63.342z"/>
		<path fill="#254393" d="M325.618,64.349l0.633,0.764l-4.494,3.725l1.775,2.143l-0.748,0.621l-2.409-2.906L325.618,64.349z"/>
		<path fill="#254393" d="M331.594,71.671c1.161,1.551,0.831,3.742-0.735,4.914c-1.559,1.166-3.754,0.863-4.914-0.688
			s-0.83-3.742,0.729-4.908C328.239,69.818,330.435,70.12,331.594,71.671z M326.725,75.314c0.798,1.068,2.37,1.253,3.492,0.414
			c1.13-0.846,1.396-2.406,0.599-3.474c-0.799-1.068-2.371-1.252-3.501-0.408C326.192,72.686,325.926,74.248,326.725,75.314z"/>
		<path fill="#254393" d="M334.708,81.321l1.941,2.961c-0.13,0.12-0.271,0.224-0.426,0.326c-1.627,1.066-3.744,0.709-4.859-0.99
			c-1.062-1.619-0.596-3.784,1.03-4.851c1.636-1.071,3.806-0.634,4.867,0.984c0.624,0.951,0.72,2.11,0.352,3.108
			c0,0-0.991-0.34-0.982-0.345c0.296-0.719,0.26-1.555-0.183-2.231c-0.73-1.113-2.287-1.396-3.467-0.622
			c-1.172,0.767-1.534,2.307-0.805,3.422c0.753,1.147,2.04,1.478,3.143,0.836l-1.376-2.099L334.708,81.321z"/>
		<path fill="#254393" d="M340.786,85.59l0.506,0.854l-5.867,3.473l-0.506-0.855L340.786,85.59z"/>
		<path fill="#254393" d="M344.672,92.266c0.909,1.709,0.249,3.823-1.478,4.741c-1.58,0.841-3.502,0.377-4.504-1.03l-1.211,0.645
			l-0.438-0.825l1.211-0.644c-0.607-1.617,0.081-3.47,1.661-4.311C341.64,89.924,343.763,90.557,344.672,92.266z M339.128,94.687
			l0.816-0.434l0.438,0.824l-0.815,0.434c0.719,0.874,2.035,1.132,3.126,0.552c1.245-0.662,1.746-2.164,1.121-3.339
			c-0.627-1.178-2.151-1.6-3.396-0.938C339.326,92.367,338.805,93.603,339.128,94.687z"/>
		<path fill="#254393" d="M348.014,99.153l-4.214,1.953c-0.663,0.308-0.965,1.113-0.654,1.784c0.312,0.672,1.126,0.97,1.788,0.664
			l4.214-1.953l0.418,0.9l-4.214,1.954c-1.166,0.541-2.526,0.013-3.075-1.172c-0.545-1.174-0.061-2.536,1.105-3.076l4.214-1.954
			L348.014,99.153z"/>
		<path fill="#254393" d="M350.958,105.77l1.492,3.676l-0.884,0.357l-1.118-2.757l-1.523,0.617l1.067,2.632l-0.865,0.351
			l-1.067-2.632l-2.135,0.866l1.14,2.812l-0.901,0.365l-1.513-3.73L350.958,105.77z"/>
		<path fill="#254393" d="M351.786,116.1c0.354,1.012-0.19,2.109-1.183,2.457c-1.011,0.354-2.151-0.165-2.503-1.167l-0.871-2.491
			l0.919-0.321l0.813,2.324c0.193,0.551,0.742,0.854,1.285,0.666c0.551-0.193,0.792-0.773,0.6-1.324l-0.312-0.891
			c-0.348-0.993,0.23-2.083,1.214-2.426c0.983-0.344,2.068,0.163,2.416,1.155l0.718,2.049l-0.873,0.306l-0.68-1.938
			c-0.18-0.515-0.751-0.79-1.265-0.61c-0.515,0.181-0.79,0.752-0.609,1.266L351.786,116.1z"/>
		<path fill="#254393" d="M360.499,137.598l0.181,0.975l-6.695,1.241l-0.181-0.975L360.499,137.598z"/>
		<path fill="#254393" d="M357.153,145.977l5.045,1.609l-6.705,2.214l-0.139-1.022l3.72-1.187l-4.188-1.305l3.685-2.381
			l-3.903-0.145l-0.139-1.022l7.053,0.333L357.153,145.977z"/>
		<path fill="#254393" d="M358.242,155.062l-0.108-1.406l-2.28,0.177l-0.077-0.99l6.791-0.526l0.186,2.396
			c0.097,1.241-0.845,2.319-2.087,2.415C359.415,157.227,358.338,156.304,358.242,155.062z M361.87,154.646l-0.1-1.271l-2.765,0.215
			l0.099,1.271c0.067,0.864,0.677,1.304,1.482,1.242C361.353,156.042,361.929,155.402,361.87,154.646z"/>
		<path fill="#254393" d="M363.289,163.297c0.04,1.936-1.502,3.525-3.458,3.566c-1.945,0.041-3.555-1.481-3.596-3.417
			s1.503-3.526,3.448-3.567C361.639,159.837,363.247,161.36,363.289,163.297z M357.208,163.425c0.028,1.333,1.2,2.397,2.601,2.368
			c1.41-0.03,2.535-1.143,2.507-2.477c-0.027-1.333-1.199-2.398-2.609-2.367C358.306,160.979,357.181,162.093,357.208,163.425z"/>
		<path fill="#254393" d="M356.489,174.635l-0.283-0.01l0.037-1.011l0.282,0.01c0.749,0.027,1.732-0.492,1.769-1.484l0.043-1.206
			l-1.993-0.072l0.036-1.002l6.809,0.247l-0.08,2.208c-0.053,1.449-1.104,2.521-2.505,2.471c-0.974-0.036-1.661-0.654-1.924-1.21
			C358.163,174.404,357.306,174.664,356.489,174.635z M362.229,172.398l0.049-1.322l-3.064-0.111l-0.048,1.324
			c-0.029,0.807,0.717,1.437,1.477,1.465C361.429,173.783,362.2,173.207,362.229,172.398z"/>
		<path fill="#254393" d="M361.767,179.091l0.14-1.679l0.951,0.078l-0.36,4.349l-0.951-0.078l0.139-1.679l-5.844-0.484l0.082-0.99
			L361.767,179.091z"/>
		<path fill="#254393" d="M358.317,183.219l-0.3,2.57l-0.851-0.1l0.301-2.569L358.317,183.219z"/>
		<path fill="#254393" d="M360.813,194.121l-0.736,3.902l-0.937-0.178l0.552-2.926l-1.616-0.305l-0.526,2.792l-0.919-0.174
			l0.527-2.793l-2.267-0.427l-0.563,2.983l-0.956-0.18l0.747-3.96L360.813,194.121z"/>
		<path fill="#254393" d="M356.922,202.76l1.759,1.485l-0.245,1.032l-2.695-2.298l-3.993,0.984l0.242-1.022l2.773-0.693
			l-2.169-1.863l0.242-1.022l3.128,2.671l3.439-0.846l-0.244,1.031L356.922,202.76z"/>
		<path fill="#254393" d="M352.544,209.656l0.393-1.355l-2.198-0.635l0.276-0.954l6.546,1.892l-0.667,2.31
			c-0.346,1.198-1.607,1.878-2.804,1.532C352.883,212.096,352.198,210.854,352.544,209.656z M356.089,210.539l0.354-1.225
			l-2.665-0.77l-0.354,1.225c-0.241,0.832,0.176,1.459,0.952,1.684C355.115,211.666,355.878,211.27,356.089,210.539z"/>
		<path fill="#254393" d="M354.372,219.152c-0.643,1.828-2.646,2.774-4.492,2.125c-1.836-0.645-2.808-2.636-2.166-4.463
			c0.643-1.828,2.646-2.774,4.483-2.129C354.042,215.334,355.014,217.326,354.372,219.152z M348.634,217.137
			c-0.443,1.258,0.279,2.667,1.602,3.131c1.332,0.469,2.776-0.179,3.218-1.438c0.442-1.258-0.28-2.666-1.611-3.135
			C350.52,215.231,349.075,215.878,348.634,217.137z"/>
		<path fill="#254393" d="M344.043,227.352l-0.261-0.109l0.389-0.934l0.261,0.107c0.692,0.288,1.796,0.146,2.178-0.77l0.464-1.116
			l-1.843-0.767l0.386-0.926l6.293,2.619l-0.85,2.041c-0.558,1.34-1.919,1.976-3.214,1.436c-0.898-0.373-1.327-1.195-1.378-1.808
			C345.692,227.722,344.798,227.666,344.043,227.352z M350.206,227.27l0.509-1.223l-2.832-1.179l-0.509,1.222
			c-0.311,0.746,0.167,1.6,0.869,1.892C348.971,228.284,349.896,228.016,350.206,227.27z"/>
		<path fill="#254393" d="M347.427,233.37l0.716-1.522l0.863,0.405l-1.853,3.945l-0.863-0.405l0.715-1.524l-5.302-2.489l0.422-0.898
			L347.427,233.37z"/>
		<path fill="#254393" d="M329.936,255.81c-0.899-0.618-1.14-1.869-0.517-2.776l1.498-2.186l5.622,3.858l-1.471,2.144
			c-0.573,0.835-1.725,1.05-2.56,0.477c-0.515-0.353-0.677-0.89-0.735-1.355C331.229,256.247,330.53,256.217,329.936,255.81z
			 M330.235,253.393c-0.347,0.506-0.205,1.229,0.284,1.565c0.514,0.353,1.218,0.221,1.571-0.294l0.843-1.228l-1.855-1.273
			L330.235,253.393z M335.254,255.029l-1.598-1.098l-0.815,1.188c-0.309,0.451-0.197,1.046,0.244,1.35
			c0.449,0.31,1.045,0.196,1.354-0.253L335.254,255.029z"/>
		<path fill="#254393" d="M330.171,263.739c-1.186,1.533-3.386,1.801-4.935,0.604c-1.541-1.191-1.836-3.39-0.651-4.923
			c1.186-1.533,3.387-1.8,4.927-0.61C331.061,260.01,331.356,262.205,330.171,263.739z M325.355,260.017
			c-0.815,1.056-0.573,2.621,0.536,3.479c1.117,0.862,2.693,0.702,3.509-0.353c0.815-1.056,0.574-2.621-0.544-3.485
			C327.748,258.801,326.172,258.961,325.355,260.017z"/>
		<path fill="#254393" d="M325.856,268.884l-0.643,0.756l-5.188-4.409l0.643-0.757L325.856,268.884z"/>
		<path fill="#254393" d="M318.921,272.342c-0.725,0.788-1.949,0.825-2.723,0.113c-0.787-0.725-0.868-1.976-0.149-2.756l1.786-1.941
			l0.717,0.66l-1.668,1.812c-0.396,0.43-0.403,1.057,0.02,1.445c0.43,0.396,1.054,0.334,1.449-0.095l0.639-0.694
			c0.712-0.774,1.945-0.777,2.711-0.072c0.767,0.705,0.83,1.901,0.118,2.675l-1.47,1.598l-0.68-0.627l1.391-1.511
			c0.369-0.401,0.342-1.033-0.059-1.403c-0.401-0.368-1.033-0.343-1.403,0.059L318.921,272.342z"/>
		<path fill="#254393" d="M314.294,281.201l-2.902,2.708l-0.65-0.696l2.177-2.032l-1.121-1.202l-2.078,1.938l-0.637-0.684
			l2.077-1.938l-1.573-1.686l-2.22,2.072l-0.663-0.713l2.945-2.748L314.294,281.201z"/>
		<path fill="#254393" d="M308.835,286.191l-0.699,0.588l-5.428-1.047l2.76,3.287l-0.716,0.6l-4.454-5.305l6.746,1.195l-3.304-3.934
			l0.716-0.601L308.835,286.191z"/>
		<path fill="#254393" d="M298.263,294.602l-0.81,0.574l-1.79-2.524l-0.061,3.836l-0.929,0.659l0.079-3.911l-4.187-1.528
			l1.024-0.727l3.189,1.234l0.016-0.787l-1.283-1.81l0.81-0.574L298.263,294.602z"/>
		<path fill="#254393" d="M291.971,298.945l-0.832,0.543l-3.728-5.709l0.831-0.543L291.971,298.945z"/>
		<path fill="#254393" d="M286.55,301.227l1.443-0.866l0.491,0.818l-3.737,2.244l-0.49-0.817l1.443-0.867l-3.016-5.021l0.85-0.512
			L286.55,301.227z"/>
		<path fill="#254393" d="M259.999,314.109l1.578-0.586l0.332,0.894l-4.087,1.518l-0.332-0.894l1.578-0.586l-2.039-5.493
			l0.931-0.347L259.999,314.109z"/>
		<path fill="#254393" d="M254.851,316.938l-0.941,0.312l-2.137-6.465l0.942-0.311L254.851,316.938z"/>
		<path fill="#254393" d="M249.046,317.764l1.616-0.469l0.267,0.916l-4.188,1.217l-0.267-0.916l1.617-0.471l-1.635-5.626
			l0.953-0.277L249.046,317.764z"/>
		<path fill="#254393" d="M242.129,315.348l0.276-1.822l1.021-0.25l-1.151,7.427l-4.447-6.057l1.021-0.25l1.085,1.488
			L242.129,315.348z M241.723,318.442l0.293-2.165l-1.551,0.379L241.723,318.442z"/>
		<path fill="#254393" d="M236.56,321.875l-0.899,0.169l-4.217-3.581l0.79,4.221l-0.919,0.173l-1.276-6.814l5.295,4.358
			l-0.946-5.054l0.919-0.173L236.56,321.875z"/>
		<path fill="#254393" d="M218.274,317.747c0.363-0.175,0.753-0.293,1.179-0.337c1.927-0.198,3.639,1.211,3.838,3.147
			c0.201,1.947-1.188,3.676-3.114,3.874c-0.426,0.044-0.831,0.008-1.223-0.089c0,0-0.112-1.096-0.113-1.104
			c0.381,0.186,0.801,0.27,1.236,0.226c1.326-0.138,2.294-1.392,2.148-2.797c-0.144-1.395-1.346-2.426-2.673-2.288
			c-0.436,0.045-0.831,0.203-1.165,0.464L218.274,317.747z"/>
		<path fill="#254393" d="M212.788,324.962c-1.934,0.094-3.564-1.404-3.66-3.358c-0.094-1.943,1.384-3.594,3.318-3.688
			c1.934-0.094,3.564,1.405,3.659,3.348C216.201,323.218,214.722,324.867,212.788,324.962z M212.493,318.889
			c-1.331,0.064-2.363,1.264-2.296,2.664c0.068,1.408,1.212,2.502,2.544,2.438c1.331-0.065,2.364-1.265,2.296-2.673
			C214.969,319.917,213.825,318.823,212.493,318.889z"/>
		<path fill="#254393" d="M203.13,320.374l-2.342,4.751l-1.193-6.959l1.032,0.014l0.621,3.854l1.911-3.948l1.809,3.997l0.723-3.837
			l1.031,0.014l-1.376,6.926L203.13,320.374z"/>
		<path fill="#254393" d="M193.972,320.109l1.407,0.1l0.161-2.28l0.99,0.07l-0.482,6.792l-2.396-0.17
			c-1.242-0.088-2.169-1.178-2.081-2.42C191.659,320.949,192.729,320.021,193.972,320.109z M193.85,323.757l1.271,0.09l0.196-2.765
			l-1.271-0.09c-0.863-0.061-1.39,0.477-1.446,1.281C192.546,323.04,193.093,323.703,193.85,323.757z"/>
		<path fill="#254393" d="M185.075,323.891c-1.922-0.244-3.268-2.007-3.021-3.949c0.247-1.933,1.992-3.3,3.915-3.054
			c1.922,0.244,3.269,2.008,3.021,3.939C188.743,322.77,186.998,324.137,185.075,323.891z M185.846,317.854
			c-1.323-0.169-2.551,0.833-2.729,2.224c-0.178,1.401,0.759,2.679,2.082,2.848s2.55-0.833,2.729-2.233
			C188.106,319.301,187.17,318.022,185.846,317.854z"/>
		<path fill="#254393" d="M176.331,319.451c-1.054-0.193-1.737-1.211-1.547-2.244c0.194-1.054,1.211-1.788,2.255-1.596l2.595,0.478
			l-0.176,0.958l-2.424-0.446c-0.574-0.105-1.109,0.221-1.214,0.786c-0.105,0.575,0.278,1.072,0.853,1.178l0.929,0.171
			c1.035,0.19,1.694,1.232,1.506,2.258c-0.188,1.024-1.168,1.715-2.202,1.525l-2.136-0.395l0.168-0.909l2.021,0.373
			c0.536,0.099,1.058-0.262,1.156-0.797c0.1-0.537-0.26-1.059-0.797-1.158L176.331,319.451z"/>
		<path fill="#254393" d="M170.833,321.295l-0.969-0.218l1.486-6.647l0.969,0.217L170.833,321.295z"/>
		<path fill="#254393" d="M165.445,319.017l1.628,0.428l-0.242,0.922l-4.216-1.107l0.242-0.922l1.628,0.428l1.488-5.666l0.96,0.253
			L165.445,319.017z"/>
		<path fill="#254393" d="M159.563,318.377l-3.793-1.183l0.284-0.911l2.845,0.887l0.49-1.57l-2.715-0.847l0.278-0.893l2.714,0.847
			l0.688-2.203l-2.899-0.904l0.29-0.93l3.848,1.2L159.563,318.377z"/>
	</g>
	<circle fill="#254393" cx="58.798" cy="114.914" r="1.782"/>
	<circle fill="#254393" cx="111.27" cy="42.768" r="1.782"/>
	<path fill="#254393" d="M146.467,307.774c0.917,0.363,1.366,1.398,1.006,2.313c-0.36,0.913-1.394,1.366-2.311,1.005
		c-0.916-0.361-1.365-1.396-1.006-2.312C144.517,307.867,145.552,307.413,146.467,307.774z"/>
	<circle fill="#254393" cx="230.522" cy="13.551" r="1.782"/>
	<circle fill="#254393" cx="354.62" cy="125.885" r="1.782"/>
	<circle fill="#254393" cx="338.85" cy="244.15" r="1.782"/>
	<path fill="#254393" d="M274.737,303.549c0.879,0.445,1.235,1.518,0.794,2.395c-0.442,0.879-1.513,1.234-2.392,0.793
		s-1.235-1.512-0.795-2.395C272.786,303.465,273.858,303.107,274.737,303.549z"/>
	<g>
		<path fill="#254393" d="M133.434,308.017l-3.518-1.837l0.441-0.845l2.639,1.378l0.761-1.457l-2.518-1.314l0.432-0.828l2.518,1.314
			l1.066-2.043l-2.689-1.404l0.45-0.862l3.569,1.863L133.434,308.017z"/>
		<path fill="#254393" d="M126.586,296.541c0.396,0.074,0.78,0.208,1.15,0.425c1.673,0.978,2.223,3.126,1.24,4.808
			c-0.988,1.689-3.129,2.266-4.803,1.288c-0.369-0.217-0.675-0.485-0.934-0.795c0,0,0.555-0.949,0.56-0.958
			c0.198,0.375,0.487,0.69,0.866,0.912c1.151,0.673,2.673,0.231,3.386-0.988c0.707-1.211,0.346-2.753-0.807-3.426
			c-0.378-0.222-0.79-0.327-1.215-0.315L126.586,296.541z"/>
		<path fill="#254393" d="M117.909,299.134c-1.618-1.065-2.053-3.24-0.976-4.875c1.071-1.626,3.24-2.087,4.858-1.021
			c1.618,1.066,2.052,3.24,0.98,4.867C121.696,299.739,119.527,300.2,117.909,299.134z M121.257,294.051
			c-1.114-0.733-2.657-0.374-3.429,0.798c-0.776,1.179-0.498,2.738,0.616,3.472c1.114,0.734,2.657,0.374,3.434-0.805
			C122.649,296.344,122.371,294.785,121.257,294.051z"/>
		<path fill="#254393" d="M112.387,295.188l-0.799-0.59l3.47-4.697l-2.238-1.653l0.578-0.783l3.037,2.244L112.387,295.188z"/>
		<path fill="#254393" d="M104.854,289.537c-1.5-1.224-1.71-3.429-0.475-4.944c1.23-1.508,3.433-1.745,4.933-0.521
			c1.5,1.224,1.71,3.429,0.479,4.936C108.557,290.523,106.354,290.761,104.854,289.537z M108.697,284.825
			c-1.032-0.842-2.603-0.642-3.488,0.444c-0.892,1.093-0.772,2.671,0.26,3.514c1.033,0.842,2.603,0.642,3.494-0.451
			C109.849,287.246,109.73,285.668,108.697,284.825z"/>
		<path fill="#254393" d="M99.482,280.905l-2.599-2.405c0.097-0.148,0.209-0.283,0.334-0.419c1.322-1.429,3.463-1.594,4.956-0.213
			c1.421,1.314,1.493,3.528,0.172,4.957c-1.328,1.435-3.541,1.534-4.962,0.22c-0.836-0.772-1.209-1.874-1.092-2.932
			c0,0,1.043,0.091,1.036,0.098c-0.114,0.769,0.123,1.571,0.716,2.12c0.979,0.905,2.558,0.803,3.516-0.233
			c0.952-1.028,0.932-2.61-0.047-3.516c-1.007-0.932-2.336-0.942-3.251-0.053l1.842,1.704L99.482,280.905z"/>
		<path fill="#254393" d="M92.556,278.223l-0.697-0.707l4.85-4.785l0.697,0.707L92.556,278.223z"/>
		<path fill="#254393" d="M87.177,272.701c-1.296-1.439-1.167-3.652,0.287-4.962c1.33-1.198,3.31-1.213,4.622-0.089l1.021-0.919
			l0.625,0.694l-1.02,0.919c0.98,1.422,0.761,3.389-0.57,4.588C90.688,274.242,88.474,274.141,87.177,272.701z M91.974,269.009
			l-0.687,0.619l-0.626-0.694l0.688-0.619c-0.909-0.675-2.25-0.606-3.168,0.221c-1.049,0.945-1.173,2.523-0.28,3.515
			s2.476,1.032,3.524,0.087C92.344,271.31,92.551,269.983,91.974,269.009z"/>
		<path fill="#254393" d="M82.295,266.824l3.617-2.904c0.568-0.457,0.669-1.311,0.206-1.887s-1.324-0.671-1.893-0.214l-3.617,2.903
			l-0.621-0.773l3.617-2.903c1.001-0.804,2.447-0.618,3.263,0.398c0.811,1.008,0.667,2.445-0.334,3.249l-3.618,2.904L82.295,266.824
			z"/>
		<path fill="#254393" d="M77.827,261.102l-2.328-3.213l0.771-0.559l1.746,2.409l1.331-0.965l-1.667-2.299l0.756-0.548l1.667,2.299
			l1.865-1.353l-1.78-2.456l0.787-0.571l2.363,3.26L77.827,261.102z"/>
	</g>
	<path fill="#254393" d="M69.749,242.491c0.917,0.363,1.366,1.398,1.006,2.313c-0.36,0.913-1.394,1.366-2.311,1.005
		c-0.916-0.361-1.365-1.396-1.006-2.312C67.799,242.584,68.834,242.13,69.749,242.491z"/>
</g>
<g>
	<path fill="#254393" d="M131.987,253.738h-2.448v-1.387h6.341v1.387h-2.448v8.52h-1.444V253.738z"/>
	<path fill="#254393" d="M140.154,252.352h1.442v9.906h-1.442V252.352z"/>
	<path fill="#254393" d="M148.32,253.738h-2.448v-1.387h6.34v1.387h-2.447v8.52h-1.444V253.738z"/>
	<path fill="#254393" d="M156.981,259.781l-1.02,2.477h-1.527l4.188-10.091l4.189,10.091h-1.528l-1.019-2.477H156.981z
		 M158.622,255.55l-1.159,2.958h2.321L158.622,255.55z"/>
	<path fill="#254393" d="M166.704,252.352h1.33l5.066,6.241v-6.241h1.359v10.076l-6.396-7.642v7.472h-1.359V252.352z"/>
	<path fill="#254393" d="M191.952,262.13c-0.552,0.199-1.133,0.312-1.754,0.312c-2.816,0-5.082-2.293-5.082-5.123
		c0-2.845,2.266-5.138,5.082-5.138c0.621,0,1.202,0.113,1.754,0.312c0,0,0,1.599,0,1.613c-0.523-0.325-1.118-0.51-1.754-0.51
		c-1.939,0-3.524,1.67-3.524,3.723c0,2.037,1.585,3.708,3.524,3.708c0.636,0,1.23-0.171,1.754-0.496V262.13z"/>
	<path fill="#254393" d="M200.544,252.182c2.816,0,5.08,2.293,5.08,5.138c0,2.83-2.264,5.123-5.08,5.123s-5.081-2.293-5.081-5.123
		C195.463,254.475,197.728,252.182,200.544,252.182z M200.544,261.027c1.939,0,3.523-1.671,3.523-3.708
		c0-2.053-1.584-3.723-3.523-3.723s-3.523,1.67-3.523,3.723C197.021,259.356,198.604,261.027,200.544,261.027z"/>
	<path fill="#254393" d="M214.215,259.116l3.312-6.949l1.868,10.091h-1.5l-0.978-5.59l-2.702,5.774l-2.703-5.774l-0.977,5.59h-1.499
		l1.867-10.091L214.215,259.116z"/>
	<path fill="#254393" d="M227.477,258.932h-2.053v3.326h-1.442v-9.906h3.495c1.812,0,3.269,1.486,3.269,3.298
		C230.745,257.475,229.288,258.932,227.477,258.932z M227.278,253.625h-1.854v4.033h1.854c1.26,0,1.967-0.835,1.967-2.009
		C229.245,254.531,228.382,253.625,227.278,253.625z"/>
	<path fill="#254393" d="M239.563,252.182c2.816,0,5.08,2.293,5.08,5.138c0,2.83-2.264,5.123-5.08,5.123s-5.081-2.293-5.081-5.123
		C234.482,254.475,236.747,252.182,239.563,252.182z M239.563,261.027c1.938,0,3.523-1.671,3.523-3.708
		c0-2.053-1.585-3.723-3.523-3.723c-1.939,0-3.524,1.67-3.524,3.723C236.039,259.356,237.624,261.027,239.563,261.027z"/>
	<path fill="#254393" d="M252.795,256.583c1.558,0,2.803,1.274,2.803,2.802c0,1.558-1.26,2.873-2.803,2.873h-3.834v-1.415h3.58
		c0.849,0,1.528-0.609,1.528-1.443c0-0.85-0.68-1.457-1.528-1.457h-1.373c-1.528,0-2.745-1.317-2.745-2.831
		c0-1.515,1.217-2.76,2.745-2.76h3.156v1.345h-2.986c-0.793,0-1.443,0.65-1.443,1.443c0,0.792,0.65,1.443,1.443,1.443H252.795z"/>
	<path fill="#254393" d="M259.901,252.352h1.442v9.906h-1.442V252.352z"/>
	<path fill="#254393" d="M268.067,253.738h-2.449v-1.387h6.34v1.387h-2.447v8.52h-1.443V253.738z"/>
	<path fill="#254393" d="M276.233,252.352h5.774v1.387h-4.331v2.393h4.133v1.358h-4.133v3.354h4.416v1.415h-5.859V252.352z"/>
</g>
</svg>
