<?xml version="1.0" encoding="utf-8"?>
<!-- Generator: Adobe Illustrator 16.0.0, SVG Export Plug-In . SVG Version: 6.00 Build 0)  -->
<!DOCTYPE svg PUBLIC "-//W3C//DTD SVG 1.1//EN" "http://www.w3.org/Graphics/SVG/1.1/DTD/svg11.dtd">
<svg version="1.1" id="Calque_1" xmlns="http://www.w3.org/2000/svg" xmlns:xlink="http://www.w3.org/1999/xlink" x="0px" y="0px"
	 width="1500px" height="800px" viewBox="0 0 1500 800" enable-background="new 0 0 1500 800" xml:space="preserve">
<rect fill="#A4C8CC" width="1500" height="800"/>
<circle fill="none" stroke="#010202" stroke-width="3.3211" stroke-miterlimit="10" cx="744.073" cy="365.209" r="103.305"/>
<path fill="none" stroke="#010202" stroke-width="3.3211" stroke-miterlimit="10" d="M624.411,406.382
	c-4.439-12.907-6.849-26.76-6.849-41.172c0-69.87,56.641-126.51,126.511-126.51c69.872,0,126.511,56.641,126.511,126.51
	c0,14.416-2.409,28.27-6.851,41.176"/>
<g>
	<polygon fill="none" stroke="#010202" stroke-width="3.3211" stroke-miterlimit="10" points="773.771,322.543 745.196,371.012 
		716.624,322.543 	"/>
	
		<line fill="none" stroke="#010202" stroke-width="3.3211" stroke-miterlimit="10" x1="740.241" y1="362.608" x2="782.999" y2="433.331"/>
	
		<line fill="none" stroke="#010202" stroke-width="3.3211" stroke-miterlimit="10" x1="749.758" y1="363.24" x2="707" y2="433.962"/>
</g>
<polygon fill="none" stroke="#010202" stroke-width="2.9943" stroke-miterlimit="10" points="714.842,367.707 695.16,401.8 
	675.478,367.707 "/>
<polygon fill="none" stroke="#010202" stroke-width="2.9943" stroke-miterlimit="10" points="815.402,367.707 795.719,401.8 
	776.039,367.707 "/>
<path fill="none" stroke="#010202" stroke-width="2.9943" stroke-miterlimit="10" d="M695.16,367.707c0,0-0.95-29.679,21.981-44.283
	"/>
<path fill="none" stroke="#010202" stroke-width="2.9943" stroke-miterlimit="10" d="M795.753,366.826
	c0,0,0.952-29.678-21.982-44.283"/>
<path fill="none" d="M798.237,481.48c-63.566,29.68-139.228,2.043-169.004-61.727c-29.776-63.773-2.388-139.524,61.178-169.204
	c63.569-29.682,139.23-2.045,169.006,61.728C889.188,376.048,861.805,451.799,798.237,481.48z"/>
<text transform="matrix(0.4954 0.8724 -0.8696 0.4938 630.1567 422.2129)" fill="#010202" font-family="'Campton-LightDEMO'" font-size="20.6178">A</text>
<text transform="matrix(0.6248 0.7849 -0.7824 0.6228 640.292 439.3564)" fill="#010202" font-family="'Campton-LightDEMO'" font-size="20.6178">V</text>
<text transform="matrix(0.7452 0.6718 -0.6696 0.7427 652.9443 454.7773)" fill="#010202" font-family="'Campton-LightDEMO'" font-size="20.6178">O</text>
<text transform="matrix(0.848 0.5362 -0.5344 0.8452 669.5225 469.1572)" fill="#010202" font-family="'Campton-LightDEMO'" font-size="20.6178">C</text>
<text transform="matrix(0.9228 0.3935 -0.3923 0.9198 687.6699 480.1436)" fill="#010202" font-family="'Campton-LightDEMO'" font-size="20.6178">A</text>
<text transform="matrix(0.9702 0.2553 -0.2545 0.9671 706.043 487.54)" fill="#010202" font-family="'Campton-LightDEMO'" font-size="20.6178">T</text>
<text transform="matrix(0.9962 0.1186 -0.1183 0.993 722.9751 491.707)" fill="#010202" font-family="'Campton-LightDEMO'" font-size="20.6178">S</text>
<text transform="matrix(1.0032 0.0108 -0.0108 0.9999 740.5576 493.3652)" fill="#010202" font-family="'Campton-LightDEMO'" font-size="20.6178"> </text>
<text transform="matrix(0.9977 -0.1054 0.1051 0.9945 750.2861 493.5176)" fill="#010202" font-family="'Campton-LightDEMO'" font-size="20.6178">A</text>
<text transform="matrix(0.9706 -0.254 0.2532 0.9674 769.9863 491.0322)" fill="#010202" font-family="'Campton-LightDEMO'" font-size="20.6178">S</text>
<text transform="matrix(0.9251 -0.3882 0.387 0.9221 787.291 486.1836)" fill="#010202" font-family="'Campton-LightDEMO'" font-size="20.6178">S</text>
<text transform="matrix(0.8537 -0.527 0.5252 0.8509 803.9316 478.9814)" fill="#010202" font-family="'Campton-LightDEMO'" font-size="20.6178">O</text>
<text transform="matrix(0.7514 -0.6648 0.6626 0.7489 822.3809 467.1035)" fill="#010202" font-family="'Campton-LightDEMO'" font-size="20.6178">C</text>
<text transform="matrix(0.6659 -0.7504 0.748 0.6637 837.582 452.8652)" fill="#010202" font-family="'Campton-LightDEMO'" font-size="20.6178">I</text>
<text transform="matrix(0.5835 -0.8161 0.8134 0.5816 843.8467 445.7881)" fill="#010202" font-family="'Campton-LightDEMO'" font-size="20.6178">E</text>
<text transform="matrix(0.4649 -0.889 0.8861 0.4634 853.7275 431.4873)" fill="#010202" font-family="'Campton-LightDEMO'" font-size="20.6178">S</text>
<g>
	<path d="M667.22,576.179h-27.241v-38.751h6.838v32.597h20.403V576.179z"/>
	<path d="M691.217,576.179h-6.839v-38.751h6.839V576.179z"/>
	<path d="M799.737,576.179h-5.356l-22.057-26.102v26.102h-6.838v-38.751h5.187l22.282,26.729v-26.729h6.782V576.179z"/>
	<path d="M850.691,561.136h7.069c-1.824,9.573-9.118,15.844-18.864,15.844c-11.172,0-20.177-8.492-20.177-20.177
		c0-11.684,9.005-20.174,20.177-20.174c9.746,0,17.04,6.269,18.864,15.846h-7.069c-1.481-5.873-5.697-9.293-11.795-9.293
		c-7.581,0-13.221,5.587-13.221,13.621c0,8.035,5.64,13.622,13.221,13.622C844.994,570.425,849.21,567.005,850.691,561.136z"/>
	<path d="M883.526,553.897h19.036v6.326h-19.036v9.632h21.315v6.323h-28.153v-38.751h28.153v6.325h-21.315V553.897z"/>
	<polygon points="615.808,576.179 623.044,576.179 606.119,537.199 599.735,537.199 582.695,576.179 590.047,576.179 
		592.593,570.078 592.593,570.078 592.604,570.053 592.928,569.273 593.638,567.574 593.647,567.574 597.328,558.839 
		597.329,558.839 602.927,545.521 609.538,561.25 609.532,561.25 613.57,570.902 613.57,570.902 	"/>
	<polygon points="741.387,576.179 748.624,576.179 731.699,537.199 725.316,537.199 708.275,576.179 715.627,576.179 
		718.173,570.078 718.173,570.078 718.184,570.053 718.509,569.273 719.218,567.574 719.228,567.574 722.908,558.839 
		722.909,558.839 728.506,545.521 735.118,561.25 735.112,561.25 739.151,570.902 739.151,570.902 	"/>
</g>
</svg>
