<?xml version="1.0" encoding="utf-8"?>
<!-- Generator: Adobe Illustrator 16.0.0, SVG Export Plug-In . SVG Version: 6.00 Build 0)  -->
<!DOCTYPE svg PUBLIC "-//W3C//DTD SVG 1.1//EN" "http://www.w3.org/Graphics/SVG/1.1/DTD/svg11.dtd">
<svg version="1.1" id="Calque_1" xmlns="http://www.w3.org/2000/svg" xmlns:xlink="http://www.w3.org/1999/xlink" x="0px" y="0px"
	 width="400px" height="330px" viewBox="0 0 400 330" enable-background="new 0 0 400 330" xml:space="preserve">
<path fill="none" stroke="#000000" stroke-width="1.2957" stroke-miterlimit="10" d="M59.502,147.641
	c4.896,36.891,34.767,65.274,69.782,65.274c27.443,0,51.148-14.738,62.399-40.04"/>
<polygon fill="none" stroke="#000000" stroke-width="1.2957" stroke-linecap="round" stroke-linejoin="round" points="
	325.687,67.205 327.825,58.011 339.146,60.793 "/>
<polygon fill="none" stroke="#000000" stroke-width="1.2957" stroke-linejoin="round" points="348.49,139.496 339.489,146.72 
	332.218,139.496 "/>
<path fill="none" stroke="#CCC714" stroke-width="1.2957" d="M339.659,146.601"/>
<path fill="none" stroke="#CCC714" stroke-width="1.2957" d="M339.963,139.496"/>
<polygon fill="none" stroke="#000000" stroke-width="1.2957" stroke-linecap="round" stroke-linejoin="round" points="
	50.474,139.237 66.656,139.237 59.504,147.642 "/>
<path fill="#010202" d="M36.823,154.998c0,4.411-3.581,7.988-7.992,7.988c-4.414,0-7.99-3.577-7.99-7.988
	c0-4.414,5.304-8.778,7.99-15.502C31.73,145.9,36.823,150.584,36.823,154.998z"/>
<path fill="#010202" d="M377.801,154.998c0,4.411-3.576,7.988-7.99,7.988c-4.408,0-7.989-3.577-7.989-7.988
	c0-4.414,5.302-8.778,7.989-15.502C372.709,145.9,377.801,150.584,377.801,154.998z"/>
<path d="M79.813,252.041c4.3,0,7.406,1.446,10.301,3.959c0.382,0.339,0.382,0.852,0.043,1.192l-1.874,1.912
	c-0.298,0.387-0.683,0.387-1.064,0c-2-1.742-4.727-2.848-7.364-2.848c-6.085,0-10.684,5.106-10.684,11.066
	c0,5.957,4.641,11.021,10.726,11.021c3.106,0,5.277-1.232,7.321-2.81c0.382-0.298,0.767-0.256,1.022-0.042l1.958,1.916
	c0.342,0.301,0.256,0.851-0.042,1.151c-2.894,2.806-6.556,4.126-10.345,4.126c-8.512,0-15.365-6.769-15.365-15.278
	C64.448,258.896,71.301,252.041,79.813,252.041z"/>
<path d="M136.439,256.47h-6.94c-0.469,0-0.808-0.386-0.808-0.812v-2.383c0-0.425,0.339-0.808,0.808-0.808h18.304
	c0.469,0,0.808,0.383,0.808,0.808v2.383c0,0.426-0.339,0.812-0.808,0.812h-6.939v24.983c0,0.428-0.382,0.808-0.808,0.808h-2.808
	c-0.427,0-0.808-0.38-0.808-0.808V256.47z"/>
<path d="M154.277,253.275c0-0.425,0.339-0.808,0.809-0.808h17.025c0.468,0,0.808,0.383,0.808,0.808v2.383
	c0,0.426-0.34,0.812-0.808,0.812H158.66v8.679h11.367c0.424,0,0.809,0.385,0.809,0.812v2.384c0,0.47-0.385,0.806-0.809,0.806H158.66
	v9.152h13.451c0.468,0,0.808,0.384,0.808,0.81v2.341c0,0.428-0.34,0.808-0.808,0.808h-17.025c-0.47,0-0.809-0.38-0.809-0.808
	V253.275z M159.554,249.103l-0.596-1.19c-0.17-0.34,0.042-0.68,0.256-0.809l6.683-3.871c0.256-0.174,0.894-0.256,1.107,0.126
	l0.979,1.872c0.256,0.426,0.085,0.851-0.255,1.021l-7.15,3.064C160.022,249.572,159.725,249.488,159.554,249.103z"/>
<path d="M190.846,253.275c0-0.425,0.345-0.808,0.81-0.808h9.532c5.152,0,8.857,3.404,8.857,7.873c0,3.276-2.426,5.62-4.428,6.769
	c2.253,0.934,5.319,3.023,5.319,6.939c0,4.765-3.918,8.212-9.279,8.212h-10.002c-0.465,0-0.81-0.38-0.81-0.808V253.275z
	 M201.612,278.345c2.603,0,4.6-2,4.6-4.637c0-2.6-2.466-4.47-5.235-4.47h-5.832v9.106H201.612z M200.938,265.403
	c2.723,0,4.38-1.999,4.38-4.551c0-2.597-1.657-4.383-4.38-4.383h-5.751v8.934H200.938z"/>
<path d="M214.391,281.154l13.065-28.646c0.131-0.254,0.509-0.468,0.724-0.468h0.426c0.216,0,0.597,0.214,0.724,0.468l12.983,28.646
	c0.255,0.554-0.085,1.106-0.724,1.106h-2.68c-0.516,0-0.809-0.255-0.981-0.636l-2.64-5.835h-13.922
	c-0.846,1.958-1.742,3.875-2.588,5.835c-0.131,0.296-0.472,0.636-0.982,0.636h-2.684
	C214.476,282.261,214.136,281.708,214.391,281.154z M233.671,272.13l-5.233-11.66h-0.219l-5.189,11.66H233.671z"/>
<path d="M245.721,277.965c0.388-0.556,0.727-1.195,1.112-1.746c0.379-0.556,0.979-0.726,1.447-0.344
	c0.252,0.219,3.527,2.938,6.812,2.938c2.934,0,4.806-1.786,4.806-3.957c0-2.556-2.214-4.171-6.427-5.919
	c-4.339-1.828-7.75-4.087-7.75-9.021c0-3.322,2.56-7.876,9.326-7.876c4.256,0,7.448,2.211,7.873,2.512
	c0.342,0.212,0.679,0.809,0.253,1.447c-0.337,0.512-0.723,1.107-1.062,1.62c-0.34,0.551-0.894,0.808-1.495,0.422
	c-0.29-0.17-3.269-2.128-5.741-2.128c-3.576,0-4.807,2.257-4.807,3.832c0,2.426,1.87,3.916,5.402,5.363
	c4.938,2,9.152,4.339,9.152,9.535c0,4.424-3.958,8.042-9.491,8.042c-5.197,0-8.473-2.725-9.155-3.362
	C245.594,278.983,245.302,278.687,245.721,277.965z"/>
<path d="M269.646,277.965c0.385-0.556,0.729-1.195,1.109-1.746c0.383-0.556,0.98-0.726,1.446-0.344
	c0.256,0.219,3.534,2.938,6.813,2.938c2.936,0,4.806-1.786,4.806-3.957c0-2.556-2.21-4.171-6.428-5.919
	c-4.339-1.828-7.747-4.087-7.747-9.021c0-3.322,2.556-7.876,9.327-7.876c4.254,0,7.443,2.211,7.875,2.512
	c0.336,0.212,0.677,0.809,0.251,1.447c-0.336,0.512-0.722,1.107-1.062,1.62c-0.34,0.551-0.894,0.808-1.489,0.422
	c-0.3-0.17-3.277-2.128-5.746-2.128c-3.571,0-4.809,2.257-4.809,3.832c0,2.426,1.873,3.916,5.404,5.363
	c4.938,2,9.151,4.339,9.151,9.535c0,4.424-3.961,8.042-9.495,8.042c-5.19,0-8.471-2.725-9.146-3.362
	C269.521,278.983,269.224,278.687,269.646,277.965z"/>
<path d="M295.489,253.275c0-0.425,0.381-0.808,0.807-0.808h2.812c0.424,0,0.809,0.383,0.809,0.808v28.178
	c0,0.428-0.385,0.808-0.809,0.808h-2.812c-0.426,0-0.807-0.38-0.807-0.808V253.275z"/>
<path d="M309.238,252.808c0-0.426,0.387-0.767,0.812-0.767h1.062l18.475,21.369h0.042v-20.135c0-0.425,0.339-0.808,0.807-0.808
	h2.729c0.424,0,0.807,0.383,0.807,0.808v28.646c0,0.426-0.383,0.766-0.807,0.766h-1.11l-18.476-21.965h-0.04v20.731
	c0,0.428-0.341,0.808-0.807,0.808h-2.682c-0.426,0-0.812-0.38-0.812-0.808V252.808z"/>
<g>
	<path d="M95.571,308.419c0.154-0.221,0.292-0.479,0.447-0.703c0.154-0.223,0.395-0.291,0.582-0.138
		c0.104,0.089,1.426,1.188,2.749,1.188c1.184,0,1.939-0.722,1.939-1.597c0-1.033-0.893-1.686-2.593-2.39
		c-1.75-0.735-3.124-1.646-3.124-3.639c0-1.336,1.029-3.174,3.76-3.174c1.715,0,3.003,0.89,3.175,1.014
		c0.138,0.085,0.275,0.323,0.104,0.582c-0.139,0.205-0.292,0.444-0.429,0.651c-0.138,0.224-0.361,0.327-0.602,0.172
		c-0.12-0.067-1.321-0.859-2.317-0.859c-1.442,0-1.94,0.911-1.94,1.548c0,0.977,0.754,1.577,2.18,2.163
		c1.992,0.807,3.69,1.75,3.69,3.847c0,1.782-1.596,3.242-3.828,3.242c-2.094,0-3.416-1.1-3.69-1.356
		C95.519,308.834,95.399,308.712,95.571,308.419z"/>
	<path d="M112.565,297.967c3.433,0,6.18,2.764,6.18,6.195c0,3.435-2.747,6.164-6.18,6.164c-3.434,0-6.164-2.729-6.164-6.164
		C106.401,300.73,109.131,297.967,112.565,297.967z M112.565,308.61c2.456,0,4.464-1.992,4.464-4.448
		c0-2.436-2.008-4.479-4.464-4.479c-2.439,0-4.447,2.044-4.447,4.479C108.118,306.618,110.126,308.61,112.565,308.61z"/>
	<path d="M128.235,297.967c1.733,0,2.988,0.581,4.155,1.596c0.154,0.136,0.154,0.343,0.017,0.481l-0.756,0.771
		c-0.12,0.153-0.274,0.153-0.428,0c-0.807-0.703-1.906-1.149-2.97-1.149c-2.456,0-4.31,2.061-4.31,4.465
		c0,2.402,1.871,4.445,4.327,4.445c1.253,0,2.128-0.498,2.953-1.134c0.154-0.119,0.309-0.103,0.412-0.018l0.79,0.773
		c0.137,0.12,0.102,0.344-0.017,0.464c-1.168,1.132-2.643,1.664-4.172,1.664c-3.433,0-6.197-2.729-6.197-6.164
		C122.038,300.73,124.802,297.967,128.235,297.967z"/>
	<path d="M136.574,298.463c0-0.169,0.155-0.324,0.326-0.324h1.134c0.171,0,0.326,0.155,0.326,0.324v11.366
		c0,0.169-0.154,0.325-0.326,0.325H136.9c-0.171,0-0.326-0.156-0.326-0.325V298.463z"/>
	<path d="M143.405,298.463c0-0.169,0.137-0.324,0.326-0.324h6.868c0.189,0,0.326,0.155,0.326,0.324v0.964
		c0,0.171-0.137,0.324-0.326,0.324h-5.426v3.503h4.584c0.171,0,0.326,0.153,0.326,0.326v0.96c0,0.191-0.155,0.327-0.326,0.327
		h-4.584v3.691h5.426c0.189,0,0.326,0.153,0.326,0.326v0.944c0,0.169-0.137,0.325-0.326,0.325h-6.868
		c-0.189,0-0.326-0.156-0.326-0.325V298.463z M145.533,296.781l-0.239-0.48c-0.069-0.139,0.017-0.274,0.102-0.327l2.695-1.562
		c0.104-0.07,0.361-0.104,0.447,0.05l0.395,0.757c0.102,0.172,0.034,0.345-0.104,0.411l-2.884,1.237
		C145.722,296.969,145.603,296.937,145.533,296.781z"/>
	<path d="M156.877,299.751h-2.798c-0.189,0-0.326-0.153-0.326-0.324v-0.964c0-0.169,0.137-0.324,0.326-0.324h7.382
		c0.189,0,0.326,0.155,0.326,0.324v0.964c0,0.171-0.136,0.324-0.326,0.324h-2.798v10.078c0,0.169-0.154,0.325-0.326,0.325h-1.133
		c-0.172,0-0.326-0.156-0.326-0.325V299.751z"/>
	<path d="M165.356,298.463c0-0.169,0.138-0.324,0.326-0.324h6.869c0.188,0,0.326,0.155,0.326,0.324v0.964
		c0,0.171-0.138,0.324-0.326,0.324h-5.426v3.503h4.584c0.172,0,0.326,0.153,0.326,0.326v0.96c0,0.191-0.154,0.327-0.326,0.327
		h-4.584v3.691h5.426c0.188,0,0.326,0.153,0.326,0.326v0.944c0,0.169-0.138,0.325-0.326,0.325h-6.869
		c-0.188,0-0.326-0.156-0.326-0.325V298.463z M167.485,296.781l-0.239-0.48c-0.069-0.139,0.018-0.274,0.103-0.327l2.695-1.562
		c0.104-0.07,0.36-0.104,0.447,0.05l0.395,0.757c0.103,0.172,0.035,0.345-0.103,0.411l-2.884,1.237
		C167.674,296.969,167.554,296.937,167.485,296.781z"/>
	<path d="M185.027,298.463c0-0.169,0.155-0.324,0.326-0.324h1.133c0.172,0,0.326,0.155,0.326,0.324v11.366
		c0,0.169-0.154,0.325-0.326,0.325h-1.133c-0.171,0-0.326-0.156-0.326-0.325V298.463z"/>
	<path d="M193.163,298.224c0.034-0.137,0.171-0.257,0.308-0.257h0.275c0.102,0,0.257,0.085,0.292,0.188l3.587,8.773h0.07
		l3.571-8.773c0.031-0.104,0.17-0.188,0.289-0.188h0.277c0.136,0,0.273,0.12,0.309,0.257l2.112,11.536
		c0.05,0.238-0.069,0.395-0.311,0.395h-1.115c-0.154,0-0.293-0.118-0.326-0.241l-1.271-7.672c-0.018,0-0.051,0-0.051,0l-3.091,7.896
		c-0.034,0.104-0.137,0.188-0.292,0.188h-0.309c-0.137,0-0.256-0.085-0.291-0.188l-3.108-7.896c-0.018,0-0.052,0-0.069,0
		l-1.235,7.672c-0.017,0.123-0.172,0.241-0.309,0.241h-1.116c-0.241,0-0.361-0.156-0.328-0.395L193.163,298.224z"/>
	<path d="M209.793,298.224c0.035-0.137,0.173-0.257,0.312-0.257h0.273c0.104,0,0.258,0.085,0.289,0.188l3.59,8.773h0.068
		l3.571-8.773c0.034-0.104,0.172-0.188,0.292-0.188h0.275c0.137,0,0.272,0.12,0.308,0.257l2.112,11.536
		c0.051,0.238-0.069,0.395-0.309,0.395h-1.117c-0.154,0-0.29-0.118-0.324-0.241l-1.272-7.672c-0.016,0-0.05,0-0.05,0l-3.091,7.896
		c-0.033,0.104-0.137,0.188-0.292,0.188h-0.308c-0.139,0-0.258-0.085-0.292-0.188l-3.108-7.896c-0.019,0-0.054,0-0.07,0
		l-1.235,7.672c-0.016,0.123-0.172,0.241-0.31,0.241h-1.113c-0.243,0-0.363-0.156-0.328-0.395L209.793,298.224z"/>
	<path d="M230.409,297.967c3.433,0,6.181,2.764,6.181,6.195c0,3.435-2.748,6.164-6.181,6.164c-3.435,0-6.164-2.729-6.164-6.164
		C224.245,300.73,226.975,297.967,230.409,297.967z M230.409,308.61c2.453,0,4.461-1.992,4.461-4.448
		c0-2.436-2.008-4.479-4.461-4.479c-2.439,0-4.448,2.044-4.448,4.479C225.961,306.618,227.97,308.61,230.409,308.61z"/>
	<path d="M240.757,298.463c0-0.169,0.138-0.324,0.326-0.324h3.845c2.077,0,3.571,1.374,3.571,3.174c0,1.322-0.981,2.268-1.785,2.731
		c0.908,0.376,2.146,1.221,2.146,2.797c0,1.925-1.58,3.313-3.743,3.313h-4.033c-0.188,0-0.326-0.156-0.326-0.325V298.463z
		 M245.1,308.576c1.047,0,1.855-0.806,1.855-1.871c0-1.047-0.997-1.803-2.112-1.803h-2.353v3.674H245.1z M244.824,303.356
		c1.099,0,1.769-0.806,1.769-1.839c0-1.045-0.67-1.767-1.769-1.767h-2.317v3.605H244.824z"/>
	<path d="M253.148,298.463c0-0.169,0.154-0.324,0.326-0.324h1.133c0.172,0,0.326,0.155,0.326,0.324v11.366
		c0,0.169-0.154,0.325-0.326,0.325h-1.133c-0.172,0-0.326-0.156-0.326-0.325V298.463z"/>
	<path d="M259.979,298.463c0-0.169,0.138-0.324,0.326-0.324h1.132c0.172,0,0.327,0.155,0.327,0.324v10.096h4.652
		c0.189,0,0.326,0.153,0.326,0.326v0.944c0,0.169-0.137,0.325-0.326,0.325h-6.111c-0.188,0-0.326-0.156-0.326-0.325V298.463z"/>
	<path d="M270.259,298.463c0-0.169,0.137-0.324,0.327-0.324h6.866c0.189,0,0.324,0.155,0.324,0.324v0.964
		c0,0.171-0.135,0.324-0.324,0.324h-5.424v3.503h4.583c0.17,0,0.325,0.153,0.325,0.326v0.96c0,0.191-0.155,0.327-0.325,0.327h-4.583
		v3.691h5.424c0.189,0,0.324,0.153,0.324,0.326v0.944c0,0.169-0.135,0.325-0.324,0.325h-6.866c-0.19,0-0.327-0.156-0.327-0.325
		V298.463z M272.267,295.63c-0.137-0.066-0.189-0.239-0.104-0.411l0.397-0.757c0.085-0.154,0.344-0.12,0.445-0.05l2.696,1.562
		c0.101,0.053,0.172,0.188,0.101,0.327l-0.239,0.48c-0.068,0.155-0.172,0.188-0.411,0.086L272.267,295.63z"/>
	<path d="M282.084,298.463c0-0.169,0.139-0.324,0.327-0.324h4.669c2.06,0,3.743,1.629,3.743,3.673c0,1.579-1.048,2.883-2.54,3.483
		l2.352,4.364c0.12,0.221,0,0.495-0.293,0.495h-1.338c-0.138,0-0.241-0.085-0.277-0.156l-2.282-4.548h-2.591v4.379
		c0,0.169-0.154,0.325-0.328,0.325h-1.114c-0.188,0-0.327-0.156-0.327-0.325V298.463z M286.942,303.977
		c1.117,0,2.094-0.947,2.094-2.132c0-1.114-0.977-2.04-2.094-2.04h-3.055v4.172H286.942z"/>
	<path d="M295.214,298.463c0-0.169,0.139-0.324,0.327-0.324h6.866c0.189,0,0.324,0.155,0.324,0.324v0.964
		c0,0.171-0.135,0.324-0.324,0.324h-5.425v3.503h4.584c0.171,0,0.325,0.153,0.325,0.326v0.96c0,0.191-0.154,0.327-0.325,0.327
		h-4.584v3.691h5.425c0.189,0,0.324,0.153,0.324,0.326v0.944c0,0.169-0.135,0.325-0.324,0.325h-6.866
		c-0.188,0-0.327-0.156-0.327-0.325V298.463z"/>
</g>
<path fill="none" stroke="#FFFFFF" stroke-width="0.9656" d="M108.602,253.8c-6.561,1.006-11.508,6.64-11.508,13.504
	c0,6.861,4.948,12.432,11.508,13.428"/>
<g>
	<path d="M96.59,267.41c0-6.785,5.013-12.387,11.508-13.322v-1.91c-7.595,0.933-13.379,7.372-13.379,15.237
		c0,7.864,5.784,14.23,13.379,15.155v-1.905C101.514,279.767,96.59,274.279,96.59,267.41z"/>
	<path d="M108.098,256.487v-1.671c-6.096,0.926-10.785,6.208-10.785,12.594c0,6.462,4.606,11.632,10.785,12.526v-1.674
		c-5.151-0.907-9.123-5.413-9.123-10.848C98.975,262.021,102.947,257.415,108.098,256.487z"/>
</g>
<g>
	<path d="M111.942,278.258v1.681c6.181-0.907,10.786-6.072,10.786-12.528c0-6.374-4.689-11.655-10.786-12.594v1.676
		c5.165,0.941,9.124,5.539,9.124,10.923C121.066,272.837,117.107,277.339,111.942,278.258z"/>
	<path d="M111.942,252.184v1.904c6.497,0.948,11.509,6.549,11.509,13.322c0,6.858-4.923,12.342-11.509,13.255v1.899
		c7.579-0.941,13.378-7.295,13.378-15.149C125.321,259.562,119.521,253.135,111.942,252.184z"/>
</g>
<path fill="none" stroke="#000000" stroke-width="1.851" d="M350.147,141.581"/>
<path d="M197.387,183.537c-5.521-10.087-8.381-18.596-8.41-18.681l-0.754-2.263l-0.97,2.18
	c-10.669,23.99-32.404,38.892-56.723,38.892c-33.345,0-60.712-28.495-62.93-64.428h-1.856c2.226,36.954,30.422,66.282,64.786,66.282
	c24.356,0,46.186-14.479,57.464-37.939c1.181,3.127,3.703,9.345,7.508,16.367c-14.824,23.351-39.073,37.273-64.973,37.273
	c-42.191,0-76.771-36.364-79.01-81.983h-1.856c2.245,46.643,37.656,83.835,80.866,83.835c26.71,0,51.693-14.431,66.83-38.601
	l0.288-0.458L197.387,183.537z"/>
<rect x="49.665" y="124.66" fill="#010202" width="299.648" height="14.578"/>
<path d="M185,124.713h1.853c-0.021-0.447-0.052-0.867-0.068-1.321c-0.903-25.578,6.472-48.342,21.922-67.657
	c15.756-19.7,35.587-30.27,58.935-31.414c1.419-0.069,2.826-0.104,4.223-0.104c21.829,0,41.231,8.618,57.675,25.611
	c3.303,3.417,6.36,7.016,9.098,10.708l-12.989,6.216c-1.563-1.951-3.205-3.871-4.896-5.736
	c-14.889-15.254-32.504-22.489-52.394-21.52c-19.768,0.969-36.535,9.924-49.842,26.619c-13.182,16.537-19.371,36.251-18.41,58.597
	h1.853c-0.959-21.92,5.091-41.247,18.004-57.443c12.962-16.261,29.272-24.983,48.486-25.924
	c19.307-0.946,36.475,6.104,50.953,20.939c1.812,1.993,3.578,4.077,5.258,6.194l0.46,0.578l16.321-7.811l-0.648-0.899
	c-2.953-4.077-6.289-8.051-9.924-11.807c-17.876-18.476-39.189-27.227-63.316-26.068c-23.902,1.171-44.188,11.973-60.291,32.104
	c-15.735,19.672-23.246,42.847-22.325,68.882C184.952,123.889,184.982,124.287,185,124.713z"/>
<g>
	<path d="M192.565,124.755h1.298c-0.035-0.699-0.081-1.37-0.106-2.086c-0.825-23.241,5.875-43.927,19.915-61.484
		c14.333-17.912,32.362-27.52,53.59-28.559c22.364-1.082,41.42,6.347,56.666,22.102c1.341,1.392,2.621,2.795,3.81,4.171l0.979-0.846
		c-1.202-1.394-2.499-2.816-3.857-4.226c-15.52-16.038-34.928-23.616-57.66-22.495c-21.617,1.058-39.966,10.828-54.538,29.043
		c-14.24,17.806-21.035,38.779-20.2,62.338C192.486,123.415,192.532,124.071,192.565,124.755z"/>
	<path d="M338.906,146.271l-0.163,1.006c-6.286,37.334-36.043,64.433-70.757,64.433c-28.374,0-54.181-18.346-65.77-46.788
		c-0.059-0.113-4.521-9.045-6.978-25.779h-1.308c2.489,17.098,7.069,26.243,7.108,26.319c11.766,28.882,38.044,47.544,66.947,47.544
		c35.35,0,65.645-27.552,72.037-65.52l0.16-1.002L338.906,146.271z"/>
</g>
<path d="M331.392,139.142c-2.105,36.267-29.761,64.675-62.961,64.675c-22.636,0-43.715-13.512-55.008-35.262
	c-5.969-11.483-8.772-21.713-10.119-29.456h-1.793c1.765,10.354,5.175,20.508,10.268,30.309
	c11.616,22.366,33.321,36.26,56.652,36.26c33.913,0,62.201-28.721,64.751-65.547h14.231c-2.576,45.641-37.1,81.252-78.982,81.252
	c-31.196,0-59.577-20.177-72.332-51.479c-0.067-0.131-5.42-10.794-8.028-30.795h-1.885c2.593,20.389,7.981,31.084,8.233,31.567
	c13.007,31.929,42.056,52.559,74.012,52.559c43.172,0,78.697-36.892,80.882-83.987l-0.022-0.096H331.392z"/>
</svg>
