<?xml version="1.0" encoding="utf-8"?>
<!-- Generator: Adobe Illustrator 16.0.0, SVG Export Plug-In . SVG Version: 6.00 Build 0)  -->
<!DOCTYPE svg PUBLIC "-//W3C//DTD SVG 1.1//EN" "http://www.w3.org/Graphics/SVG/1.1/DTD/svg11.dtd">
<svg version="1.1" id="Calque_1" xmlns="http://www.w3.org/2000/svg" xmlns:xlink="http://www.w3.org/1999/xlink" x="0px" y="0px"
	 width="300px" height="300px" viewBox="0 0 300 300" enable-background="new 0 0 300 300" xml:space="preserve">
<g>
	<path fill="#D2B0B0" d="M38.779,227.958c-0.15,0.095-0.357,0.034-0.453-0.116l-0.237-0.38l3.498-11.332l-0.01-0.015l-7.168,4.479
		c-0.152,0.098-0.363,0.06-0.468-0.105l-0.605-0.971c-0.094-0.154-0.045-0.376,0.109-0.47l10.198-6.371
		c0.152-0.098,0.357-0.037,0.453,0.117l0.245,0.391l-3.708,11.467l0.009,0.016l7.381-4.615c0.152-0.094,0.365-0.057,0.466,0.109
		l0.598,0.955c0.094,0.15,0.043,0.372-0.109,0.467L38.779,227.958z"/>
	<path fill="#D2B0B0" d="M27.602,208.643c-1.497-3.246-0.081-7.048,3.167-8.549c3.244-1.493,7.021-0.09,8.519,3.159
		c1.497,3.246,0.107,7.015-3.139,8.511C32.902,213.261,29.098,211.885,27.602,208.643z M37.664,204.002
		c-1.07-2.324-3.829-3.355-6.149-2.283c-2.304,1.064-3.36,3.852-2.291,6.172c1.064,2.305,3.872,3.312,6.175,2.252
		C37.72,209.071,38.726,206.303,37.664,204.002z"/>
	<path fill="#D2B0B0" d="M23.528,197.562c-0.169,0.057-0.374-0.049-0.425-0.218l-0.365-1.144c-0.061-0.184,0.049-0.372,0.22-0.425
		l7.035-2.241c1.702-0.546,2.684-2.058,2.129-3.795c-0.559-1.756-2.225-2.444-3.91-1.906l-7.066,2.252
		c-0.171,0.057-0.369-0.029-0.427-0.218l-0.365-1.144c-0.054-0.169,0.051-0.372,0.22-0.425l7.153-2.279
		c2.589-0.827,5.241,0.485,6.098,3.175c0.854,2.674-0.555,5.261-3.144,6.089L23.528,197.562z"/>
	<path fill="#D2B0B0" d="M29.433,181.057c-0.26-0.109-0.551-0.195-0.811-0.305c-0.261-0.113-0.382-0.343-0.263-0.568
		c0.064-0.124,0.908-1.703,0.628-3.054c-0.25-1.207-1.145-1.824-2.039-1.64c-1.051,0.215-1.529,1.264-1.888,3.148
		c-0.382,1.94-1.021,3.535-3.054,3.952c-1.365,0.286-3.457-0.38-4.032-3.163c-0.363-1.752,0.274-3.253,0.363-3.456
		c0.06-0.158,0.274-0.346,0.574-0.226c0.239,0.094,0.519,0.203,0.756,0.301c0.256,0.091,0.41,0.297,0.303,0.575
		c-0.045,0.136-0.598,1.527-0.388,2.547c0.305,1.47,1.337,1.786,1.986,1.65c0.999-0.207,1.452-1.105,1.747-2.682
		c0.402-2.2,1.008-4.133,3.144-4.577c1.822-0.372,3.648,0.948,4.118,3.224c0.44,2.136-0.4,3.72-0.605,4.051
		C29.865,181.022,29.77,181.169,29.433,181.057z"/>
	<path fill="#D2B0B0" d="M15.324,158.66c-0.104-1.805,0.429-3.144,1.414-4.419c0.131-0.165,0.346-0.181,0.498-0.045l0.848,0.741
		c0.169,0.116,0.179,0.274,0.026,0.447c-0.685,0.876-1.083,2.05-1.021,3.155c0.146,2.554,2.399,4.359,4.9,4.216
		c2.501-0.143,4.515-2.211,4.368-4.765c-0.075-1.302-0.645-2.186-1.354-3.005c-0.135-0.15-0.126-0.316-0.043-0.425l0.758-0.869
		c0.116-0.15,0.352-0.128,0.483-0.008c1.247,1.144,1.888,2.647,1.98,4.239c0.205,3.572-2.471,6.607-6.044,6.814
		C18.57,164.941,15.529,162.229,15.324,158.66z"/>
	<path fill="#D2B0B0" d="M15.649,148.939c-0.179-0.009-0.333-0.162-0.322-0.357l0.26-4.86c0.115-2.144,1.905-3.804,4.03-3.69
		c1.644,0.087,2.943,1.249,3.486,2.836l4.667-2.205c0.239-0.111,0.517,0.027,0.5,0.331l-0.072,1.395
		c-0.009,0.142-0.104,0.245-0.177,0.276l-4.861,2.124l-0.143,2.697l4.555,0.243c0.179,0.009,0.331,0.179,0.32,0.357l-0.059,1.162
		c-0.011,0.195-0.182,0.329-0.359,0.319L15.649,148.939z M21.654,144.188c0.06-1.162-0.869-2.233-2.099-2.297
		c-1.162-0.062-2.182,0.905-2.244,2.067l-0.169,3.178l4.342,0.231L21.654,144.188z"/>
	<path fill="#D2B0B0" d="M15.399,131.891l-0.534,0.169c-0.152,0.049-0.28-0.062-0.318-0.158l-1.171-3.026
		c-0.055-0.117-0.049-0.387,0.124-0.451l0.84-0.284c0.194-0.078,0.359,0.021,0.408,0.173l0.805,3.166
		C15.625,131.726,15.57,131.845,15.399,131.891z M16.787,134.353c-0.177-0.027-0.314-0.195-0.282-0.388l1.107-7.066
		c0.03-0.194,0.211-0.31,0.388-0.283l0.991,0.156c0.175,0.027,0.312,0.195,0.282,0.388l-0.878,5.582L22,133.307l0.741-4.715
		c0.028-0.177,0.211-0.311,0.39-0.282l0.987,0.155c0.193,0.029,0.31,0.21,0.284,0.387l-0.741,4.716l3.796,0.596l0.876-5.581
		c0.032-0.195,0.212-0.312,0.389-0.284l0.97,0.152c0.177,0.028,0.314,0.194,0.284,0.389l-1.11,7.064
		c-0.03,0.196-0.21,0.312-0.389,0.283L16.787,134.353z"/>
	<path fill="#D2B0B0" d="M20.051,115.761c0.95-3.448,4.485-5.442,7.934-4.494c3.451,0.948,5.433,4.463,4.483,7.911
		c-0.949,3.45-4.445,5.438-7.894,4.488C21.125,122.717,19.104,119.212,20.051,115.761z M30.744,118.705
		c0.679-2.466-0.767-5.035-3.232-5.714c-2.45-0.674-5.057,0.778-5.735,3.245c-0.675,2.451,0.824,5.032,3.272,5.707
		C27.513,122.62,30.07,121.153,30.744,118.705z"/>
	<path fill="#D2B0B0" d="M23.957,104.42c-0.166-0.069-0.235-0.273-0.167-0.438l0.173-0.412l11.268-3.708l0.005-0.016l-7.802-3.252
		c-0.166-0.069-0.26-0.263-0.184-0.444l0.44-1.055c0.069-0.166,0.278-0.251,0.444-0.184l11.102,4.629
		c0.166,0.068,0.235,0.273,0.169,0.437l-0.179,0.43l-11.499,3.612l-0.008,0.016l8.035,3.349c0.166,0.069,0.258,0.262,0.183,0.443
		l-0.435,1.041c-0.068,0.165-0.278,0.249-0.444,0.182L23.957,104.42z"/>
	<path fill="#D2B0B0" d="M39.634,95.029c-0.126-0.252-0.292-0.507-0.419-0.761c-0.126-0.252-0.067-0.507,0.169-0.6
		c0.128-0.052,1.794-0.709,2.456-1.917c0.593-1.082,0.311-2.132-0.489-2.571c-0.94-0.515-1.984-0.026-3.475,1.174
		c-1.551,1.229-3.069,2.028-4.887,1.031c-1.222-0.67-2.384-2.53-1.019-5.022c0.859-1.567,2.318-2.297,2.514-2.393
		c0.148-0.083,0.434-0.088,0.584,0.196c0.121,0.23,0.262,0.492,0.38,0.719c0.138,0.238,0.121,0.493-0.143,0.634
		c-0.123,0.075-1.444,0.778-1.944,1.688c-0.72,1.314-0.139,2.227,0.442,2.543c0.893,0.491,1.82,0.101,3.067-0.908
		c1.732-1.415,3.445-2.495,5.357-1.446c1.63,0.893,2.164,3.081,1.045,5.12c-1.047,1.913-2.713,2.57-3.084,2.693
		C39.986,95.283,39.815,95.332,39.634,95.029z"/>
	<path fill="#D2B0B0" d="M40.541,73.489c-0.143-0.108-0.184-0.319-0.075-0.461l2.501-3.265c2.097-2.739,6.042-3.274,8.769-1.187
		c2.753,2.108,3.263,6.056,1.164,8.797L50.4,80.638c-0.109,0.141-0.324,0.158-0.464,0.049L40.541,73.489z M51.4,76.539
		c1.598-2.086,1.228-4.779-0.871-6.388c-2.087-1.599-4.771-1.244-6.367,0.843l-1.435,1.874l7.238,5.542L51.4,76.539z"/>
	<path fill="#D2B0B0" d="M50.608,61.008c-0.128-0.124-0.146-0.338-0.011-0.481l4.94-5.17c0.135-0.143,0.35-0.137,0.481-0.013
		l0.724,0.692c0.128,0.123,0.146,0.337,0.011,0.479l-3.904,4.087l2.638,2.519l3.298-3.452c0.124-0.13,0.352-0.135,0.479-0.011
		l0.726,0.69c0.139,0.137,0.134,0.352,0.01,0.481l-3.298,3.453l2.781,2.653l3.904-4.086c0.135-0.143,0.35-0.135,0.481-0.01
		l0.711,0.677c0.128,0.124,0.147,0.339,0.009,0.481l-4.938,5.173c-0.137,0.144-0.352,0.135-0.479,0.013L50.608,61.008z"/>
	<path fill="#D2B0B0" d="M66.15,60.03c-0.032-0.279-0.1-0.577-0.13-0.858c-0.03-0.28,0.113-0.5,0.367-0.505
		c0.139-0.003,1.927-0.041,2.969-0.941c0.933-0.808,1.036-1.889,0.438-2.579c-0.701-0.81-1.848-0.714-3.667-0.11
		c-1.882,0.612-3.583,0.831-4.94-0.736c-0.912-1.054-1.354-3.2,0.795-5.062c1.352-1.168,2.971-1.344,3.189-1.365
		c0.167-0.027,0.44,0.069,0.481,0.388c0.03,0.256,0.072,0.551,0.104,0.806c0.045,0.271-0.06,0.503-0.355,0.544
		c-0.139,0.029-1.623,0.226-2.407,0.904c-1.136,0.982-0.908,2.039-0.474,2.539c0.666,0.771,1.672,0.729,3.189,0.217
		c2.117-0.723,4.097-1.138,5.526,0.51c1.217,1.405,0.954,3.642-0.803,5.163c-1.649,1.428-3.436,1.465-3.829,1.449
		C66.389,60.389,66.212,60.377,66.15,60.03z"/>
	<path fill="#D2B0B0" d="M74.21,40.413c-0.1-0.147-0.057-0.373,0.092-0.473l0.976-0.663c0.149-0.101,0.373-0.059,0.472,0.09
		l6.657,9.791c0.102,0.15,0.058,0.372-0.09,0.474l-0.976,0.662c-0.146,0.101-0.372,0.059-0.472-0.089L74.21,40.413z"/>
	<path fill="#D2B0B0" d="M80.844,36.021c-0.087-0.155-0.042-0.367,0.116-0.452l3.588-2.008c3.015-1.684,6.847-0.613,8.522,2.383
		c1.692,3.028,0.598,6.855-2.413,8.541l-3.59,2.007c-0.156,0.084-0.359,0.015-0.448-0.14L80.844,36.021z M89.609,43.124
		c2.294-1.283,3.022-3.901,1.73-6.211c-1.283-2.294-3.885-3.03-6.179-1.747l-2.059,1.151l4.449,7.958L89.609,43.124z"/>
	<path fill="#D2B0B0" d="M95.073,28.54c-0.068-0.165,0-0.37,0.181-0.445l6.585-2.792c0.181-0.076,0.376,0.016,0.444,0.18
		l0.393,0.922c0.07,0.165,0,0.369-0.18,0.445l-5.204,2.207l1.426,3.357l4.395-1.863c0.166-0.071,0.376,0.015,0.445,0.18l0.391,0.922
		c0.077,0.18-0.015,0.375-0.18,0.444l-4.396,1.864l1.502,3.54l5.201-2.207c0.183-0.076,0.376,0.016,0.446,0.182l0.383,0.903
		c0.07,0.165,0.002,0.369-0.18,0.447l-6.583,2.791c-0.181,0.078-0.374-0.014-0.446-0.179L95.073,28.54z"/>
	<path fill="#D2B0B0" d="M107.397,23.382c-0.051-0.17,0.062-0.354,0.233-0.404l0.429-0.128l10.002,6.386l0.015-0.005l-2.415-8.105
		c-0.053-0.172,0.04-0.366,0.229-0.423l1.096-0.327c0.171-0.05,0.369,0.058,0.421,0.229l3.438,11.531
		c0.053,0.171-0.062,0.354-0.233,0.406l-0.447,0.132l-10.072-6.624l-0.015,0.005l2.486,8.344c0.051,0.171-0.04,0.367-0.228,0.422
		l-1.079,0.321c-0.171,0.051-0.373-0.055-0.421-0.228L107.397,23.382z"/>
	<path fill="#D2B0B0" d="M125.418,20.279l-2.866,0.539c-0.192,0.035-0.363-0.096-0.397-0.271l-0.184-0.984
		c-0.032-0.176,0.079-0.362,0.271-0.396l7.558-1.416c0.194-0.037,0.363,0.094,0.395,0.27l0.186,0.984
		c0.034,0.176-0.079,0.361-0.271,0.396l-2.866,0.537l1.933,10.314c0.032,0.176-0.096,0.364-0.271,0.398l-1.16,0.217
		c-0.177,0.032-0.363-0.095-0.397-0.271L125.418,20.279z"/>
	<path fill="#D2B0B0" d="M134.543,17.483c-0.021-0.177,0.121-0.355,0.299-0.376l1.171-0.134c0.179-0.019,0.355,0.121,0.376,0.3
		l1.35,11.757c0.021,0.178-0.12,0.356-0.297,0.377l-1.173,0.135c-0.177,0.021-0.355-0.123-0.376-0.3L134.543,17.483z"/>
	<path fill="#D2B0B0" d="M144.055,18.002l-2.913,0.131c-0.197,0.009-0.348-0.145-0.355-0.324l-0.045-0.999
		c-0.008-0.182,0.128-0.347,0.325-0.354l7.682-0.347c0.195-0.007,0.346,0.145,0.355,0.325l0.043,1
		c0.008,0.179-0.128,0.345-0.323,0.355l-2.913,0.13l0.472,10.487c0.009,0.178-0.146,0.347-0.323,0.354l-1.181,0.055
		c-0.177,0.005-0.344-0.147-0.354-0.326L144.055,18.002z"/>
	<path fill="#D2B0B0" d="M153.658,16.465c0.01-0.181,0.16-0.334,0.357-0.325l7.147,0.33c0.195,0.009,0.331,0.176,0.323,0.354
		l-0.045,1c-0.01,0.18-0.16,0.334-0.355,0.326l-5.648-0.261l-0.168,3.647l4.772,0.219c0.179,0.008,0.331,0.176,0.324,0.355l-0.048,1
		c-0.007,0.197-0.175,0.332-0.355,0.323l-4.771-0.219l-0.177,3.843l5.647,0.259c0.197,0.008,0.335,0.177,0.323,0.354l-0.045,0.985
		c-0.008,0.176-0.156,0.331-0.354,0.323l-7.149-0.331c-0.196-0.008-0.331-0.176-0.323-0.354L153.658,16.465z M155.954,14.815
		l-0.226-0.513c-0.065-0.145,0.03-0.285,0.124-0.335l2.879-1.495c0.111-0.067,0.38-0.09,0.463,0.075l0.374,0.805
		c0.1,0.184,0.019,0.358-0.126,0.422l-3.062,1.15C156.143,15.021,156.021,14.979,155.954,14.815z"/>
	<path fill="#D2B0B0" d="M164.587,27.547c0.19-0.207,0.371-0.454,0.562-0.663c0.192-0.207,0.451-0.243,0.623-0.056
		c0.094,0.103,1.297,1.429,2.66,1.621c1.225,0.17,2.106-0.463,2.236-1.366c0.148-1.063-0.679-1.866-2.328-2.838
		c-1.702-1.016-2.986-2.153-2.696-4.208c0.193-1.381,1.521-3.126,4.338-2.73c1.771,0.251,2.969,1.357,3.129,1.505
		c0.13,0.109,0.239,0.376,0.022,0.617c-0.171,0.193-0.364,0.418-0.536,0.612c-0.175,0.209-0.419,0.285-0.645,0.089
		c-0.115-0.089-1.241-1.078-2.268-1.223c-1.487-0.209-2.133,0.657-2.225,1.313c-0.144,1.01,0.549,1.739,1.935,2.549
		c1.937,1.121,3.554,2.341,3.249,4.5c-0.259,1.845-2.117,3.117-4.42,2.793c-2.161-0.305-3.366-1.629-3.611-1.934
		C164.473,27.964,164.367,27.824,164.587,27.547z"/>
	<path fill="#D2B0B0" d="M190.434,21.81c1.732,0.509,2.813,1.458,3.685,2.812c0.114,0.183,0.054,0.39-0.125,0.485l-0.983,0.551
		c-0.163,0.12-0.317,0.074-0.425-0.125c-0.602-0.94-1.568-1.708-2.631-2.021c-2.454-0.719-4.909,0.795-5.614,3.197
		c-0.705,2.402,0.565,4.993,3.018,5.712c1.253,0.367,2.273,0.126,3.281-0.267c0.192-0.074,0.341-0.011,0.42,0.104l0.56,1.004
		c0.104,0.16,0.004,0.374-0.152,0.458c-1.498,0.789-3.129,0.89-4.655,0.441c-3.432-1.008-5.394-4.543-4.384-7.976
		C183.433,22.754,187.004,20.804,190.434,21.81z"/>
	<path fill="#D2B0B0" d="M204.827,27.063c3.283,1.411,4.774,5.183,3.362,8.468c-1.409,3.285-5.156,4.768-8.441,3.358
		c-3.285-1.413-4.774-5.145-3.364-8.43C197.794,27.176,201.54,25.653,204.827,27.063z M200.453,37.247
		c2.349,1.008,5.088-0.073,6.096-2.419c1.001-2.333-0.08-5.113-2.429-6.122c-2.332-1.001-5.093,0.128-6.093,2.459
		C197.016,33.514,198.119,36.244,200.453,37.247z"/>
	<path fill="#D2B0B0" d="M220.442,35.007c3.076,1.825,4.068,5.76,2.245,8.836c-1.824,3.077-5.737,4.064-8.812,2.24
		c-3.076-1.824-4.07-5.72-2.247-8.797C213.45,34.209,217.365,33.183,220.442,35.007z M214.787,44.543
		c2.198,1.304,5.057,0.587,6.362-1.611c1.295-2.186,0.581-5.083-1.619-6.386c-2.186-1.296-5.07-0.533-6.364,1.651
		C211.863,40.397,212.604,43.248,214.787,44.543z"/>
	<path fill="#D2B0B0" d="M230.064,41.895c0.106-0.142,0.317-0.187,0.476-0.068l0.943,0.708c0.144,0.107,0.176,0.332,0.068,0.475
		l-6.3,8.411l3.876,2.905c0.157,0.118,0.175,0.331,0.067,0.475l-0.589,0.787c-0.106,0.144-0.319,0.186-0.478,0.067l-5.09-3.815
		c-0.156-0.117-0.175-0.333-0.07-0.476L230.064,41.895z"/>
	<path fill="#D2B0B0" d="M243.734,53.126c0.127-0.127,0.343-0.139,0.481-0.003l5.079,5.034c0.144,0.14,0.13,0.354,0.006,0.481
		l-0.705,0.711c-0.128,0.127-0.342,0.141-0.481,0.003l-4.015-3.978l-2.566,2.593l3.392,3.36c0.128,0.124,0.128,0.352,0.002,0.479
		l-0.705,0.71c-0.137,0.14-0.352,0.13-0.479,0.003l-3.393-3.359l-2.705,2.731l4.015,3.978c0.139,0.137,0.128,0.352,0.004,0.479
		l-0.692,0.697c-0.128,0.126-0.343,0.141-0.481,0.002l-5.081-5.033c-0.141-0.138-0.13-0.354-0.002-0.48L243.734,53.126z"/>
	<path fill="#D2B0B0" d="M252.919,64.789l-1.875-2.23c-0.126-0.149-0.094-0.363,0.042-0.478l0.767-0.644
		c0.136-0.115,0.352-0.11,0.478,0.041l4.945,5.883c0.125,0.15,0.095,0.363-0.043,0.479l-0.766,0.644
		c-0.137,0.113-0.354,0.107-0.478-0.043l-1.874-2.229l-8.03,6.749c-0.137,0.116-0.362,0.095-0.479-0.041l-0.76-0.903
		c-0.112-0.136-0.094-0.363,0.044-0.479L252.919,64.789z"/>
	<path fill="#D2B0B0" d="M254.32,81.372c0.279,0.011,0.584-0.015,0.866-0.004s0.478,0.183,0.447,0.434
		c-0.017,0.139-0.238,1.917,0.503,3.076c0.663,1.04,1.722,1.298,2.489,0.807c0.904-0.578,0.976-1.727,0.64-3.613
		c-0.335-1.95-0.305-3.668,1.44-4.784c1.177-0.75,3.366-0.878,4.898,1.519c0.961,1.506,0.9,3.135,0.892,3.354
		c0.001,0.169-0.132,0.424-0.453,0.417c-0.26-0.004-0.557-0.005-0.814-0.01c-0.273,0.005-0.491-0.133-0.489-0.431
		c-0.006-0.144,0.014-1.641-0.547-2.515c-0.809-1.266-1.885-1.193-2.444-0.837c-0.856,0.549-0.961,1.55-0.676,3.128
		c0.41,2.199,0.536,4.221-1.303,5.396c-1.564,1.001-3.742,0.419-4.993-1.539c-1.175-1.838-0.953-3.615-0.882-4
		C253.929,81.556,253.967,81.382,254.32,81.372z"/>
	<path fill="#D2B0B0" d="M269.873,86.868c0.16-0.08,0.374-0.007,0.457,0.151l0.537,1.07c0.089,0.176,0.008,0.376-0.15,0.455
		l-6.6,3.315c-1.597,0.803-2.33,2.45-1.512,4.08c0.827,1.646,2.578,2.065,4.159,1.271l6.63-3.329
		c0.16-0.081,0.369-0.025,0.457,0.152l0.538,1.071c0.079,0.158,0.008,0.374-0.152,0.454l-6.707,3.37
		c-2.432,1.22-5.254,0.338-6.521-2.187c-1.26-2.509-0.272-5.283,2.154-6.505L269.873,86.868z"/>
	<path fill="#D2B0B0" d="M276.641,101.173c0.165-0.062,0.366,0.018,0.433,0.2l1.683,4.563c0.745,2.011-0.242,4.243-2.237,4.98
		c-1.544,0.568-3.197,0.016-4.323-1.226l-3.411,3.869c-0.173,0.198-0.485,0.18-0.591-0.106l-0.483-1.308
		c-0.049-0.134-0.001-0.266,0.051-0.324l3.622-3.871l-0.933-2.531l-4.278,1.577c-0.167,0.062-0.374-0.034-0.434-0.201l-0.403-1.09
		c-0.067-0.185,0.032-0.374,0.2-0.437L276.641,101.173z M273.006,107.905c0.402,1.09,1.677,1.706,2.834,1.279
		c1.092-0.401,1.644-1.691,1.242-2.782l-1.102-2.986l-4.075,1.502L273.006,107.905z"/>
	<path fill="#D2B0B0" d="M283.516,122.445c0.146,0.007,0.297,0.124,0.323,0.266l0.051,0.281c0.021,0.104-0.039,0.28-0.138,0.335
		l-8.294,5.338l0.013,0.071l9.656,1.985c0.111,0.017,0.224,0.141,0.248,0.265l0.053,0.279c0.026,0.141-0.071,0.306-0.205,0.366
		l-11.402,4.355c-0.237,0.097-0.42,0.003-0.465-0.241l-0.213-1.144c-0.029-0.158,0.07-0.32,0.185-0.379l7.612-2.758
		c-0.004-0.018-0.012-0.053-0.012-0.053l-8.667-1.663c-0.11-0.016-0.22-0.103-0.248-0.261l-0.06-0.317
		c-0.026-0.141,0.039-0.28,0.137-0.334l7.492-4.683c-0.004-0.015-0.01-0.052-0.016-0.069l-8.086,0.194
		c-0.128,0.006-0.28-0.129-0.305-0.269l-0.212-1.144c-0.046-0.245,0.088-0.397,0.342-0.408L283.516,122.445z"/>
	<path fill="#D2B0B0" d="M285.87,139.367c0.177-0.013,0.346,0.12,0.358,0.315l0.463,7.136c0.014,0.196-0.137,0.35-0.315,0.359
		l-1.001,0.065c-0.179,0.013-0.348-0.12-0.359-0.315l-0.366-5.639l-3.639,0.236l0.309,4.763c0.011,0.179-0.14,0.35-0.318,0.361
		l-0.996,0.065c-0.197,0.011-0.35-0.139-0.363-0.317l-0.307-4.763l-3.838,0.249l0.367,5.637c0.013,0.197-0.142,0.35-0.318,0.361
		l-0.981,0.064c-0.177,0.011-0.346-0.121-0.359-0.316l-0.464-7.137c-0.012-0.196,0.139-0.349,0.317-0.36L285.87,139.367z"/>
	<path fill="#D2B0B0" d="M276.08,151.437c0.228,0.166,0.493,0.316,0.721,0.485c0.228,0.165,0.291,0.417,0.126,0.612
		c-0.093,0.105-1.275,1.448-1.314,2.824c-0.032,1.229,0.693,2.038,1.604,2.064c1.074,0.03,1.779-0.88,2.562-2.629
		c0.819-1.801,1.809-3.205,3.879-3.146c1.396,0.039,3.278,1.165,3.197,4.008c-0.051,1.787-1.018,3.1-1.147,3.276
		c-0.094,0.139-0.348,0.274-0.611,0.09c-0.208-0.15-0.455-0.315-0.667-0.467c-0.228-0.146-0.329-0.383-0.16-0.631
		c0.075-0.121,0.933-1.351,0.961-2.385c0.043-1.505-0.892-2.046-1.552-2.064c-1.019-0.03-1.666,0.736-2.314,2.203
		c-0.898,2.05-1.931,3.791-4.11,3.731c-1.86-0.053-3.33-1.757-3.265-4.081c0.061-2.181,1.243-3.522,1.52-3.801
		C275.653,151.369,275.783,151.251,276.08,151.437z"/>
	<path fill="#D2B0B0" d="M285.86,164.686c0.177,0.022,0.316,0.203,0.293,0.38l-0.155,1.188c-0.026,0.195-0.205,0.315-0.382,0.293
		l-7.321-0.967c-1.771-0.229-3.304,0.723-3.54,2.527c-0.241,1.828,0.972,3.159,2.725,3.389l7.356,0.971
		c0.177,0.022,0.319,0.185,0.293,0.38l-0.156,1.188c-0.024,0.177-0.203,0.315-0.382,0.293l-7.444-0.981
		c-2.692-0.354-4.534-2.67-4.165-5.472c0.364-2.783,2.739-4.524,5.435-4.171L285.86,164.686z"/>
	<path fill="#D2B0B0" d="M283.406,180.36c0.175,0.042,0.297,0.223,0.248,0.41l-1.169,4.724c-0.516,2.08-2.584,3.374-4.65,2.862
		c-1.597-0.398-2.653-1.783-2.887-3.441l-4.998,1.286c-0.252,0.064-0.5-0.128-0.429-0.421l0.336-1.354
		c0.034-0.139,0.147-0.222,0.225-0.24l5.171-1.166l0.65-2.621l-4.427-1.099c-0.173-0.041-0.293-0.236-0.248-0.409l0.278-1.129
		c0.049-0.191,0.239-0.289,0.412-0.248L283.406,180.36z M276.618,183.893c-0.278,1.124,0.433,2.354,1.63,2.651
		c1.129,0.278,2.312-0.478,2.588-1.606l0.766-3.091l-4.217-1.046L276.618,183.893z"/>
	<path fill="#D2B0B0" d="M279.558,194.46c0.167,0.064,0.271,0.252,0.204,0.437l-2.422,6.732c-0.067,0.184-0.267,0.267-0.435,0.206
		l-0.941-0.338c-0.168-0.061-0.271-0.248-0.205-0.437l1.912-5.318l-3.432-1.233l-1.617,4.494c-0.062,0.166-0.265,0.264-0.435,0.203
		l-0.941-0.338c-0.187-0.068-0.266-0.268-0.207-0.437l1.617-4.49l-3.618-1.302l-1.912,5.318c-0.068,0.185-0.268,0.263-0.437,0.203
		l-0.924-0.331c-0.169-0.064-0.272-0.252-0.204-0.437l2.422-6.731c0.063-0.185,0.263-0.268,0.431-0.207L279.558,194.46z"/>
	<path fill="#D2B0B0" d="M266.338,211.749l0.03,0.019l0.59-0.15c0.977-0.263,1.932-0.38,2.868,0.146
		c1.195,0.647,2.038,2.32,0.992,4.258c-0.936,1.729-2.653,2.204-4.023,1.463c-1.51-0.812-1.7-2.87-1.794-3.712l-3.393,1.012
		c0.474,0.703,1.166,1.343,1.942,1.824c0.339,0.203,0.365,0.38,0.142,0.643l-0.477,0.579c-0.257,0.327-0.5,0.094-0.632,0.004
		c-1.113-0.764-2.008-1.816-2.504-2.595l-2.206,0.699c-0.29,0.087-0.542,0.136-0.707-0.421l-0.188-0.632
		c-0.069-0.282,0.034-0.55,0.414-0.651l1.93-0.56c-0.339-0.918-0.529-2.482,0.405-4.213c1.072-1.985,3.069-2.448,4.644-1.598
		C266.259,208.883,266.313,211.004,266.338,211.749z M260.98,210.301c-0.611,1.132-0.429,2.227-0.142,2.972l4.19-1.133
		c-0.036-0.65-0.128-2.061-1.371-2.733C262.667,208.876,261.525,209.293,260.98,210.301z M267.49,216.052
		c0.675,0.364,1.651,0.18,2.161-0.764c0.476-0.88,0.141-1.73-0.599-2.133c-0.605-0.346-1.272-0.199-2.099,0.045l-0.532,0.162
		C266.45,213.986,266.436,215.483,267.49,216.052z"/>
	<path fill="#D2B0B0" d="M253.735,240.103c0.133,0.12,0.155,0.334,0.024,0.481l-4.805,5.295c-0.13,0.146-0.348,0.143-0.479,0.022
		l-0.741-0.673c-0.132-0.121-0.156-0.335-0.024-0.478l3.797-4.187l-2.7-2.448l-3.208,3.535c-0.12,0.132-0.349,0.144-0.479,0.022
		l-0.741-0.673c-0.146-0.132-0.145-0.35-0.024-0.478l3.208-3.535l-2.847-2.584l-3.795,4.183c-0.132,0.146-0.348,0.143-0.479,0.026
		l-0.729-0.662c-0.132-0.121-0.156-0.335-0.024-0.481l4.806-5.296c0.132-0.143,0.347-0.143,0.48-0.022L253.735,240.103z"/>
	<path fill="#D2B0B0" d="M242.492,249.805l2.144-1.971c0.146-0.131,0.359-0.112,0.481,0.023l0.677,0.736
		c0.122,0.132,0.124,0.347-0.021,0.479l-5.66,5.201c-0.143,0.135-0.355,0.112-0.478-0.02l-0.679-0.736
		c-0.121-0.132-0.124-0.351,0.021-0.481l2.146-1.971l-7.101-7.726c-0.122-0.131-0.111-0.36,0.021-0.481l0.867-0.797
		c0.134-0.12,0.359-0.113,0.481,0.019L242.492,249.805z"/>
	<path fill="#D2B0B0" d="M231.188,261.013c0.1,0.146,0.073,0.361-0.09,0.47l-3.315,2.253c-1.788,1.219-3.879,0.91-4.935-0.643
		c-0.776-1.14-0.485-2.527-0.063-3.4c-1.004,0.207-2.562,0.207-3.486-1.154c-1.127-1.655-0.579-3.78,1.282-5.047l3.477-2.362
		c0.164-0.109,0.373-0.061,0.475,0.091L231.188,261.013z M221.523,254.845c-0.903,0.613-1.127,1.779-0.502,2.696
		c0.612,0.903,1.914,0.971,2.875,0.316l2.025-1.377l-2.149-3.166L221.523,254.845z M224.815,259.178
		c-0.945,0.646-1.053,1.733-0.447,2.621c0.613,0.898,1.613,1.132,2.562,0.485l1.995-1.358l-2.112-3.103L224.815,259.178z"/>
	<path fill="#D2B0B0" d="M219.859,268.398c0.09,0.154,0.033,0.377-0.121,0.467l-1.021,0.594c-0.156,0.091-0.376,0.03-0.467-0.124
		l-5.967-10.229c-0.088-0.154-0.031-0.372,0.124-0.462l1.02-0.595c0.154-0.09,0.374-0.033,0.465,0.12L219.859,268.398z"/>
	<path fill="#D2B0B0" d="M213.02,272.224c0.077,0.162,0.02,0.368-0.159,0.455l-6.436,3.114c-0.179,0.086-0.378,0.004-0.455-0.158
		l-0.434-0.902c-0.079-0.158-0.021-0.365,0.155-0.451l5.085-2.46l-1.585-3.283l-4.299,2.076c-0.16,0.079-0.376,0.004-0.453-0.158
		l-0.435-0.898c-0.088-0.177-0.004-0.376,0.156-0.455l4.297-2.076l-1.674-3.46l-5.085,2.459c-0.179,0.083-0.378,0-0.453-0.157
		l-0.429-0.888c-0.079-0.158-0.021-0.369,0.158-0.451l6.437-3.114c0.177-0.087,0.376-0.004,0.453,0.158L213.02,272.224z"/>
	<path fill="#D2B0B0" d="M200.955,277.993c0.059,0.169-0.045,0.357-0.215,0.417l-0.423,0.15l-10.305-5.882l-0.017,0.008l2.816,7.977
		c0.059,0.165-0.022,0.365-0.207,0.433l-1.081,0.38c-0.169,0.06-0.372-0.038-0.433-0.207l-4.007-11.347
		c-0.059-0.169,0.043-0.357,0.212-0.417l0.44-0.154l10.39,6.115l0.017-0.008l-2.899-8.21c-0.061-0.169,0.021-0.368,0.207-0.433
		l1.062-0.376c0.167-0.061,0.374,0.041,0.434,0.207L200.955,277.993z"/>
	<path fill="#D2B0B0" d="M179.014,284.349c0.032,0.173-0.078,0.357-0.272,0.396l-4.011,0.736c-2.164,0.396-4.265-1.038-4.654-3.166
		c-0.402-2.182,1.05-4.284,3.197-4.679l2.55-0.467l-0.76-4.137c-0.032-0.173,0.098-0.361,0.274-0.395l1.144-0.211
		c0.193-0.034,0.36,0.102,0.395,0.274L179.014,284.349z M173.713,279.336c-1.215,0.226-2.053,1.398-1.822,2.662
		c0.221,1.2,1.409,1.926,2.622,1.704l2.427-0.448l-0.801-4.362L173.713,279.336z"/>
	<path fill="#D2B0B0" d="M165.928,286.406c0.02,0.181-0.108,0.354-0.307,0.368l-1.175,0.109c-0.177,0.015-0.352-0.132-0.368-0.309
		l-0.94-10.467l-4.823,0.433c-0.195,0.016-0.354-0.132-0.367-0.309l-0.09-0.981c-0.016-0.173,0.112-0.35,0.309-0.368l6.337-0.568
		c0.195-0.015,0.354,0.132,0.368,0.309L165.928,286.406z"/>
	<path fill="#D2B0B0" d="M154.735,287.237c-0.003,0.177-0.165,0.338-0.342,0.335l-1.2-0.012c-0.195,0-0.338-0.162-0.336-0.342
		l0.071-7.387c0.017-1.786-1.115-3.193-2.939-3.212c-1.841-0.019-3.018,1.351-3.035,3.118l-0.072,7.424
		c0,0.177-0.145,0.338-0.34,0.335l-1.2-0.012c-0.178,0-0.34-0.162-0.336-0.342l0.071-7.511c0.026-2.72,2.104-4.829,4.929-4.799
		c2.807,0.026,4.828,2.174,4.801,4.893L154.735,287.237z"/>
	<path fill="#D2B0B0" d="M140.948,276.47c-0.188,0.211-0.361,0.459-0.543,0.673c-0.186,0.215-0.445,0.256-0.622,0.075
		c-0.096-0.102-1.337-1.395-2.704-1.545c-1.226-0.14-2.091,0.515-2.195,1.425c-0.12,1.064,0.728,1.843,2.405,2.769
		c1.726,0.97,3.041,2.072,2.808,4.133c-0.158,1.388-1.438,3.167-4.263,2.847c-1.777-0.199-3.005-1.271-3.168-1.418
		c-0.132-0.104-0.246-0.368-0.038-0.616c0.167-0.199,0.355-0.429,0.521-0.624c0.167-0.215,0.412-0.294,0.641-0.109
		c0.117,0.086,1.27,1.045,2.298,1.162c1.491,0.169,2.114-0.719,2.189-1.373c0.115-1.012-0.598-1.723-2.003-2.493
		c-1.967-1.068-3.616-2.245-3.372-4.411c0.211-1.847,2.031-3.171,4.342-2.911c2.168,0.244,3.407,1.538,3.663,1.835
		C141.048,276.049,141.159,276.188,140.948,276.47z"/>
	<path fill="#D2B0B0" d="M120.816,283.818c-0.045,0.173-0.224,0.293-0.414,0.244l-6.931-1.774c-0.19-0.049-0.29-0.241-0.245-0.414
		l0.248-0.97c0.043-0.174,0.222-0.294,0.414-0.245l5.476,1.403l0.904-3.535l-4.627-1.186c-0.171-0.045-0.288-0.24-0.243-0.413
		l0.248-0.971c0.049-0.191,0.239-0.289,0.414-0.244l4.627,1.185l0.952-3.727l-5.474-1.403c-0.19-0.049-0.288-0.24-0.244-0.41
		l0.244-0.955c0.043-0.173,0.222-0.293,0.412-0.244l6.933,1.775c0.192,0.049,0.29,0.24,0.244,0.413L120.816,283.818z"/>
	<path fill="#D2B0B0" d="M107.875,280.438c-0.062,0.165-0.264,0.24-0.431,0.181l-0.417-0.158l-4.084-11.14l-0.019-0.008l-2.99,7.913
		c-0.064,0.166-0.254,0.264-0.438,0.195l-1.07-0.406c-0.167-0.06-0.262-0.271-0.198-0.436l4.255-11.257
		c0.062-0.165,0.265-0.244,0.431-0.181l0.433,0.166l3.998,11.373l0.019,0.007l3.077-8.146c0.065-0.166,0.255-0.268,0.44-0.199
		l1.053,0.398c0.169,0.067,0.262,0.274,0.198,0.44L107.875,280.438z"/>
	<path fill="#D2B0B0" d="M87.26,271.84c-1.602-0.835-2.479-1.975-3.071-3.471c-0.077-0.203,0.022-0.396,0.216-0.455l1.07-0.35
		c0.184-0.087,0.327-0.012,0.395,0.206c0.408,1.038,1.207,1.979,2.192,2.49c2.268,1.181,4.972,0.169,6.13-2.05
		c1.156-2.219,0.41-5.01-1.858-6.19c-1.16-0.602-2.208-0.564-3.276-0.376c-0.199,0.037-0.334-0.053-0.387-0.181l-0.359-1.095
		c-0.069-0.177,0.07-0.368,0.239-0.421c1.625-0.485,3.244-0.264,4.656,0.47c3.174,1.651,4.415,5.506,2.762,8.681
		C94.317,272.269,90.433,273.495,87.26,271.84z"/>
	<path fill="#D2B0B0" d="M74.174,263.908c-2.949-2.023-3.68-6.014-1.659-8.962c2.023-2.948,5.989-3.678,8.939-1.655
		c2.949,2.023,3.686,5.977,1.663,8.925C81.096,265.164,77.123,265.932,74.174,263.908z M80.443,254.766
		c-2.108-1.444-5.007-0.918-6.454,1.192c-1.435,2.091-0.914,5.028,1.196,6.477c2.093,1.437,5.021,0.864,6.457-1.23
		C83.089,259.095,82.538,256.202,80.443,254.766z"/>
	<path fill="#D2B0B0" d="M64.928,256.383c-0.119,0.136-0.333,0.162-0.479,0.03l-3.654-3.208c-1.613-1.414-1.809-3.852-0.404-5.449
		c1.085-1.234,2.8-1.535,4.383-0.979l1.154-5.028c0.062-0.259,0.344-0.391,0.57-0.191l1.049,0.921
		c0.107,0.095,0.13,0.233,0.107,0.309l-1.337,5.13l2.029,1.783l3.007-3.427c0.119-0.135,0.344-0.15,0.481-0.03l0.873,0.768
		c0.146,0.128,0.15,0.343,0.03,0.478L64.928,256.383z M64.913,248.733c-0.875-0.771-2.289-0.703-3.103,0.226
		c-0.765,0.872-0.637,2.268,0.235,3.039l2.392,2.099l2.866-3.265L64.913,248.733z"/>
	<path fill="#D2B0B0" d="M54.172,246.458c-0.13,0.124-0.346,0.128-0.479-0.019l-4.857-5.247c-0.136-0.146-0.115-0.356,0.017-0.481
		l0.735-0.681c0.132-0.12,0.348-0.124,0.481,0.022l3.838,4.145l2.676-2.478l-3.242-3.506c-0.122-0.131-0.113-0.357,0.019-0.478
		l0.733-0.681c0.145-0.135,0.359-0.112,0.481,0.019l3.244,3.506l2.82-2.614l-3.836-4.145c-0.135-0.146-0.115-0.361,0.017-0.481
		l0.722-0.669c0.132-0.12,0.346-0.124,0.479,0.019l4.859,5.25c0.131,0.144,0.111,0.357-0.019,0.481L54.172,246.458z"/>
</g>
<path fill="#D2B0B0" d="M252.986,229.667c-1.168-0.831-1.438-2.451-0.609-3.619c0.831-1.169,2.452-1.44,3.617-0.61
	c1.17,0.832,1.326,3.057,2.601,5.032C256.355,230.031,254.153,230.497,252.986,229.667z"/>
<path fill="#D2B0B0" d="M49.309,227.085c1.199-0.786,2.807-0.448,3.593,0.749c0.787,1.197,0.451,2.808-0.746,3.591
	c-1.201,0.787-3.33,0.124-5.633,0.594C47.745,230.092,48.111,227.871,49.309,227.085z"/>
</svg>
