<?xml version="1.0" encoding="utf-8"?>
<!-- Generator: Adobe Illustrator 16.0.0, SVG Export Plug-In . SVG Version: 6.00 Build 0)  -->
<!DOCTYPE svg PUBLIC "-//W3C//DTD SVG 1.1//EN" "http://www.w3.org/Graphics/SVG/1.1/DTD/svg11.dtd">
<svg version="1.1" id="Calque_1" xmlns="http://www.w3.org/2000/svg" xmlns:xlink="http://www.w3.org/1999/xlink" x="0px" y="0px"
	 width="250px" height="250px" viewBox="0 0 250 250" enable-background="new 0 0 250 250" xml:space="preserve">
<path fill="#D2B0B0" d="M29.84,189.987c1.018-0.668,2.382-0.381,3.05,0.636c0.668,1.016,0.382,2.383-0.633,3.048
	c-1.019,0.668-2.826,0.105-4.782,0.504C28.513,192.539,28.824,190.654,29.84,189.987z"/>
<path fill="#D2B0B0" d="M217.105,193.588c-0.988-0.711-1.209-2.087-0.499-3.075c0.709-0.987,2.087-1.211,3.072-0.501
	c0.989,0.712,1.11,2.603,2.183,4.284C219.964,193.913,218.092,194.298,217.105,193.588z"/>
<g>
	<path fill="#D2B0B0" d="M22.39,189.339c-0.14,0.08-0.324,0.02-0.404-0.12l-0.202-0.35l3.518-10.103l-0.008-0.014l-6.606,3.808
		c-0.14,0.08-0.33,0.041-0.418-0.112l-0.516-0.895c-0.081-0.139-0.027-0.338,0.113-0.419l9.399-5.417
		c0.14-0.08,0.325-0.019,0.405,0.121l0.209,0.362l-3.714,10.216l0.009,0.014l6.802-3.92c0.14-0.08,0.33-0.041,0.418,0.112
		l0.507,0.88c0.081,0.14,0.028,0.338-0.112,0.418L22.39,189.339z"/>
	<path fill="#D2B0B0" d="M12.843,171.289c-1.233-2.979,0.18-6.355,3.16-7.587c2.979-1.232,6.334,0.171,7.566,3.151
		c1.232,2.979-0.157,6.327-3.136,7.561C17.453,175.646,14.075,174.27,12.843,171.289z M22.08,167.47
		c-0.881-2.13-3.331-3.159-5.461-2.278c-2.115,0.875-3.167,3.352-2.286,5.481c0.875,2.116,3.369,3.126,5.484,2.25
		C21.947,172.042,22.954,169.584,22.08,167.47z"/>
	<path fill="#D2B0B0" d="M9.513,160.95c-0.155,0.043-0.334-0.06-0.375-0.215l-0.284-1.043c-0.046-0.172,0.06-0.333,0.215-0.376
		l6.426-1.746c1.556-0.424,2.499-1.75,2.067-3.337c-0.436-1.602-1.908-2.287-3.449-1.868l-6.457,1.755
		c-0.155,0.042-0.329-0.044-0.375-0.216l-0.284-1.043c-0.042-0.154,0.06-0.333,0.216-0.375l6.535-1.776
		c2.365-0.644,4.703,0.643,5.371,3.101c0.665,2.443-0.705,4.721-3.07,5.363L9.513,160.95z"/>
	<path fill="#D2B0B0" d="M15.442,146.111c-0.23-0.109-0.489-0.199-0.719-0.31c-0.229-0.11-0.329-0.323-0.214-0.521
		c0.064-0.108,0.888-1.498,0.693-2.724c-0.175-1.1-0.957-1.694-1.769-1.564c-0.956,0.152-1.429,1.078-1.83,2.759
		c-0.426,1.734-1.067,3.144-2.916,3.438c-1.242,0.198-3.099-0.485-3.503-3.019c-0.254-1.594,0.384-2.92,0.469-3.098
		c0.059-0.14,0.262-0.303,0.527-0.182c0.211,0.098,0.457,0.205,0.668,0.302c0.228,0.095,0.356,0.287,0.249,0.532
		c-0.046,0.121-0.602,1.354-0.454,2.277c0.214,1.338,1.132,1.666,1.721,1.571c0.908-0.145,1.354-0.935,1.684-2.343
		c0.454-1.968,1.079-3.686,3.022-3.994c1.657-0.265,3.248,1,3.578,3.072c0.31,1.942-0.514,3.332-0.712,3.625
		C15.832,146.099,15.738,146.228,15.442,146.111z"/>
	<path fill="#D2B0B0" d="M3.679,124.811c-0.009-1.628,0.534-2.808,1.479-3.908c0.128-0.146,0.322-0.147,0.451-0.02l0.729,0.706
		c0.146,0.112,0.146,0.257,0.002,0.403c-0.658,0.761-1.071,1.796-1.066,2.795c0.012,2.306,1.956,4.037,4.213,4.024
		c2.257-0.012,4.167-1.779,4.154-4.084c-0.005-1.177-0.478-1.996-1.078-2.767c-0.113-0.146-0.098-0.29-0.018-0.387l0.722-0.745
		c0.112-0.13,0.322-0.099,0.435,0.013c1.07,1.092,1.577,2.476,1.584,3.911c0.016,3.223-2.534,5.833-5.758,5.85
		C6.305,130.618,3.696,128.036,3.679,124.811z"/>
	<path fill="#D2B0B0" d="M4.447,115.803c-0.16-0.017-0.291-0.162-0.271-0.337l0.473-4.359c0.208-1.924,1.901-3.329,3.808-3.122
		c1.476,0.159,2.587,1.269,2.997,2.724l4.309-1.754c0.22-0.09,0.465,0.05,0.435,0.322l-0.135,1.25
		c-0.015,0.128-0.104,0.216-0.172,0.241l-4.478,1.671l-0.262,2.42l4.086,0.442c0.16,0.017,0.289,0.177,0.272,0.337l-0.113,1.042
		c-0.02,0.177-0.177,0.29-0.338,0.271L4.447,115.803z M10.083,111.825c0.113-1.041-0.669-2.05-1.775-2.17
		c-1.042-0.113-2.006,0.707-2.119,1.749l-0.31,2.852l3.895,0.421L10.083,111.825z"/>
	<path fill="#D2B0B0" d="M5.103,100.188l-0.49,0.125c-0.14,0.036-0.249-0.07-0.279-0.159l-0.899-2.786
		c-0.043-0.108-0.023-0.352,0.136-0.399l0.772-0.213c0.178-0.061,0.322,0.036,0.358,0.177l0.562,2.895
		C5.313,100.052,5.257,100.156,5.103,100.188z M6.224,102.478c-0.158-0.035-0.272-0.192-0.234-0.365l1.364-6.307
		c0.037-0.174,0.207-0.268,0.364-0.235l0.883,0.191c0.158,0.034,0.273,0.191,0.235,0.364l-1.078,4.982l3.217,0.697l0.911-4.21
		c0.034-0.158,0.207-0.269,0.364-0.235l0.883,0.191c0.173,0.038,0.269,0.207,0.234,0.364l-0.91,4.21l3.39,0.733l1.078-4.982
		c0.037-0.174,0.206-0.269,0.364-0.234l0.868,0.188c0.157,0.034,0.272,0.19,0.234,0.364l-1.364,6.307
		c-0.038,0.173-0.207,0.269-0.365,0.235L6.224,102.478z"/>
	<path fill="#D2B0B0" d="M10.217,85.709c1.041-3.051,4.332-4.655,7.383-3.612c3.052,1.042,4.645,4.311,3.603,7.362
		c-1.041,3.052-4.296,4.65-7.347,3.607C10.803,92.025,9.176,88.761,10.217,85.709z M19.677,88.938
		c0.745-2.182-0.416-4.57-2.597-5.315c-2.167-0.74-4.592,0.425-5.336,2.608c-0.74,2.165,0.466,4.571,2.633,5.311
		C16.559,92.287,18.937,91.105,19.677,88.938z"/>
	<path fill="#D2B0B0" d="M14.449,75.491c-0.145-0.072-0.196-0.259-0.124-0.403l0.179-0.361l10.355-2.687l0.007-0.014l-6.836-3.378
		c-0.144-0.072-0.217-0.252-0.139-0.411l0.458-0.925c0.072-0.144,0.265-0.21,0.41-0.139l9.728,4.808
		c0.145,0.071,0.196,0.259,0.124,0.402l-0.186,0.376l-10.558,2.587l-0.007,0.015l7.039,3.479c0.145,0.072,0.217,0.251,0.139,0.41
		l-0.45,0.911c-0.071,0.145-0.266,0.21-0.41,0.139L14.449,75.491z"/>
	<path fill="#D2B0B0" d="M29.239,67.732c-0.098-0.235-0.232-0.474-0.33-0.709c-0.099-0.235-0.031-0.459,0.187-0.532
		c0.121-0.037,1.659-0.526,2.329-1.572c0.6-0.936,0.413-1.899-0.28-2.344c-0.814-0.521-1.783-0.146-3.201,0.842
		c-1.471,1.012-2.886,1.637-4.461,0.627c-1.059-0.678-1.99-2.424-0.607-4.583c0.87-1.358,2.228-1.924,2.411-1.998
		c0.137-0.066,0.396-0.053,0.513,0.213c0.093,0.213,0.206,0.458,0.299,0.671c0.107,0.222,0.075,0.45-0.169,0.561
		c-0.115,0.061-1.349,0.611-1.853,1.399c-0.731,1.141-0.264,1.995,0.239,2.317c0.775,0.496,1.632,0.203,2.816-0.629
		c1.646-1.167,3.255-2.032,4.912-0.971c1.412,0.904,1.757,2.906,0.626,4.672c-1.061,1.656-2.6,2.146-2.942,2.232
		C29.54,67.982,29.383,68.016,29.239,67.732z"/>
	<path fill="#D2B0B0" d="M31.7,48.019c-0.121-0.107-0.143-0.3-0.036-0.421l2.466-2.771c2.069-2.327,5.656-2.546,7.969-0.487
		c2.337,2.08,2.535,5.667,0.466,7.993l-2.466,2.772c-0.108,0.12-0.302,0.12-0.422,0.012L31.7,48.019z M41.27,51.483
		c1.576-1.772,1.422-4.22-0.361-5.806c-1.771-1.576-4.208-1.435-5.784,0.336l-1.416,1.591l6.146,5.468L41.27,51.483z"/>
	<path fill="#D2B0B0" d="M41.796,37.281c-0.108-0.12-0.109-0.315,0.023-0.433l4.801-4.309c0.131-0.119,0.325-0.097,0.432,0.023
		l0.604,0.672c0.107,0.12,0.109,0.314-0.023,0.433l-3.793,3.403l2.197,2.448l3.205-2.875c0.12-0.108,0.325-0.097,0.433,0.023
		l0.603,0.672c0.118,0.132,0.096,0.324-0.023,0.432l-3.205,2.876l2.316,2.581l3.793-3.403c0.132-0.119,0.324-0.098,0.433,0.023
		l0.592,0.66c0.107,0.12,0.109,0.315-0.024,0.433L49.36,45.25c-0.132,0.118-0.325,0.096-0.433-0.024L41.796,37.281z"/>
	<path fill="#D2B0B0" d="M55.995,37.379c-0.009-0.255-0.05-0.525-0.06-0.78c-0.009-0.254,0.133-0.442,0.363-0.431
		c0.125,0.006,1.738,0.09,2.733-0.653c0.893-0.666,1.055-1.633,0.563-2.292c-0.579-0.775-1.618-0.765-3.293-0.34
		c-1.734,0.428-3.279,0.516-4.398-0.984c-0.753-1.008-1.01-2.97,1.046-4.504c1.292-0.965,2.764-1.017,2.96-1.023
		c0.152-0.012,0.391,0.091,0.405,0.381c0.013,0.232,0.031,0.5,0.044,0.732c0.022,0.246-0.088,0.449-0.356,0.468
		c-0.129,0.016-1.478,0.097-2.227,0.657c-1.086,0.81-0.95,1.774-0.593,2.253c0.551,0.737,1.457,0.764,2.858,0.403
		c1.953-0.512,3.763-0.756,4.941,0.82c1.004,1.345,0.621,3.34-1.059,4.596c-1.577,1.177-3.19,1.092-3.542,1.053
		C56.188,37.718,56.03,37.696,55.995,37.379z"/>
	<path fill="#D2B0B0" d="M65.102,20.029c-0.079-0.141-0.024-0.338,0.117-0.418l0.928-0.521c0.141-0.078,0.338-0.023,0.417,0.118
		l5.233,9.303c0.079,0.141,0.023,0.338-0.117,0.417l-0.927,0.522c-0.141,0.079-0.338,0.024-0.417-0.117L65.102,20.029z"/>
	<path fill="#D2B0B0" d="M71.622,16.467c-0.065-0.146-0.007-0.332,0.14-0.398l3.385-1.516c2.841-1.273,6.201-0.005,7.468,2.821
		c1.279,2.855-0.01,6.208-2.851,7.48l-3.385,1.518c-0.147,0.065-0.324-0.014-0.391-0.162L71.622,16.467z M78.93,23.548
		c2.164-0.969,3.026-3.265,2.05-5.442c-0.969-2.163-3.25-3.032-5.413-2.062l-1.943,0.87l3.364,7.506L78.93,23.548z"/>
	<path fill="#D2B0B0" d="M85.23,10.802c-0.049-0.154,0.03-0.331,0.199-0.386l6.148-1.962c0.17-0.053,0.336,0.045,0.386,0.199
		l0.275,0.861c0.049,0.153-0.03,0.331-0.199,0.384l-4.857,1.55l1,3.136l4.105-1.31c0.153-0.049,0.336,0.045,0.385,0.199l0.274,0.861
		c0.054,0.169-0.044,0.337-0.199,0.386l-4.104,1.309l1.054,3.306l4.857-1.551c0.169-0.053,0.336,0.045,0.386,0.199l0.27,0.846
		c0.049,0.153-0.03,0.331-0.199,0.386l-6.149,1.961c-0.168,0.055-0.336-0.045-0.385-0.199L85.23,10.802z"/>
	<path fill="#D2B0B0" d="M96.989,7.138c-0.031-0.158,0.086-0.313,0.245-0.344l0.396-0.078l8.426,6.597l0.016-0.002l-1.469-7.485
		c-0.03-0.159,0.068-0.326,0.242-0.36l1.013-0.199c0.158-0.031,0.329,0.083,0.359,0.242l2.09,10.65
		c0.031,0.159-0.086,0.313-0.245,0.344l-0.411,0.081l-8.47-6.819l-0.016,0.003l1.512,7.707c0.03,0.159-0.068,0.326-0.242,0.36
		l-0.997,0.195c-0.158,0.032-0.329-0.083-0.359-0.241L96.989,7.138z"/>
	<path fill="#D2B0B0" d="M113.693,5.878l-2.618,0.228c-0.177,0.016-0.318-0.118-0.332-0.279l-0.078-0.899
		c-0.014-0.161,0.103-0.315,0.279-0.332l6.906-0.6c0.177-0.015,0.318,0.119,0.332,0.279l0.078,0.9
		c0.014,0.161-0.102,0.316-0.279,0.331l-2.618,0.228l0.819,9.429c0.014,0.161-0.118,0.317-0.279,0.331l-1.06,0.092
		c-0.16,0.015-0.317-0.118-0.332-0.279L113.693,5.878z"/>
	<path fill="#D2B0B0" d="M122.347,4.167c-0.003-0.163,0.141-0.309,0.302-0.311l1.063-0.017c0.162-0.002,0.309,0.141,0.311,0.303
		l0.157,10.676c0.002,0.161-0.141,0.309-0.302,0.31l-1.064,0.016c-0.161,0.003-0.308-0.14-0.311-0.302L122.347,4.167z"/>
	<path fill="#D2B0B0" d="M131.105,5.512l-2.625-0.156c-0.176-0.011-0.297-0.162-0.287-0.323l0.053-0.901
		c0.01-0.161,0.148-0.298,0.324-0.289l6.922,0.409c0.178,0.01,0.299,0.164,0.289,0.324l-0.053,0.902
		c-0.01,0.16-0.148,0.298-0.324,0.287l-2.625-0.155l-0.557,9.45c-0.01,0.161-0.164,0.297-0.324,0.288l-1.062-0.063
		c-0.162-0.01-0.299-0.164-0.289-0.324L131.105,5.512z"/>
	<path fill="#D2B0B0" d="M140.096,5.053c0.025-0.159,0.176-0.283,0.35-0.256l6.379,0.974c0.176,0.027,0.281,0.189,0.256,0.349
		l-0.137,0.893c-0.023,0.16-0.172,0.283-0.348,0.256l-5.039-0.77l-0.496,3.254l4.256,0.649c0.16,0.024,0.281,0.189,0.258,0.349
		l-0.137,0.894c-0.027,0.175-0.189,0.281-0.35,0.256l-4.258-0.65l-0.523,3.429l5.041,0.77c0.174,0.027,0.279,0.189,0.256,0.349
		l-0.135,0.877c-0.023,0.159-0.174,0.284-0.348,0.257l-6.379-0.974c-0.176-0.026-0.281-0.189-0.258-0.35L140.096,5.053z
		 M142.312,3.792l-0.156-0.48c-0.043-0.137,0.057-0.252,0.143-0.288l2.727-1.069c0.105-0.049,0.348-0.044,0.406,0.111l0.26,0.757
		c0.07,0.174-0.018,0.323-0.154,0.368l-2.854,0.739C142.461,3.994,142.355,3.946,142.312,3.792z"/>
	<path fill="#D2B0B0" d="M149.055,16.074c0.191-0.168,0.377-0.371,0.568-0.538c0.191-0.168,0.426-0.175,0.562,0.009
		c0.074,0.102,1.025,1.407,2.229,1.712c1.08,0.272,1.934-0.209,2.135-1.007c0.238-0.938-0.424-1.738-1.811-2.771
		c-1.424-1.076-2.465-2.222-2.006-4.035c0.309-1.22,1.67-2.655,4.156-2.025c1.562,0.396,2.531,1.505,2.658,1.654
		c0.105,0.11,0.176,0.361-0.041,0.555c-0.172,0.156-0.367,0.339-0.541,0.495c-0.176,0.172-0.402,0.214-0.586,0.018
		c-0.094-0.09-1.006-1.086-1.914-1.316c-1.312-0.333-1.977,0.381-2.121,0.959c-0.227,0.891,0.322,1.613,1.486,2.473
		c1.627,1.194,2.957,2.445,2.475,4.352c-0.412,1.627-2.201,2.588-4.234,2.073c-1.908-0.483-2.857-1.788-3.049-2.086
		C148.912,16.437,148.83,16.299,149.055,16.074z"/>
	<path fill="#D2B0B0" d="M173.262,13.674c1.5,0.635,2.369,1.599,3.01,2.903c0.084,0.176,0.008,0.354-0.162,0.422l-0.936,0.392
		c-0.162,0.089-0.295,0.033-0.371-0.158c-0.441-0.905-1.229-1.693-2.15-2.084c-2.123-0.9-4.482,0.204-5.363,2.283
		c-0.879,2.08-0.01,4.533,2.115,5.432c1.084,0.459,2.023,0.349,2.969,0.102c0.178-0.047,0.305,0.024,0.363,0.136l0.4,0.958
		c0.074,0.154-0.037,0.335-0.186,0.395c-1.424,0.553-2.896,0.473-4.219-0.088c-2.971-1.258-4.361-4.632-3.104-7.604
		C166.887,13.794,170.291,12.416,173.262,13.674z"/>
	<path fill="#D2B0B0" d="M185.844,20.008c2.793,1.617,3.727,5.158,2.109,7.95c-1.617,2.793-5.135,3.72-7.928,2.104
		c-2.793-1.616-3.729-5.121-2.111-7.914C179.529,19.354,183.051,18.392,185.844,20.008z M180.832,28.665
		c1.998,1.156,4.568,0.481,5.725-1.515c1.148-1.982,0.475-4.59-1.521-5.746c-1.982-1.147-4.578-0.431-5.725,1.552
		C178.154,24.952,178.85,27.517,180.832,28.665z"/>
	<path fill="#D2B0B0" d="M199.184,28.965c2.555,1.973,3.008,5.606,1.035,8.161c-1.975,2.553-5.586,3.004-8.139,1.031
		c-2.553-1.973-3.016-5.571-1.041-8.125C193.012,27.477,196.631,26.991,199.184,28.965z M193.066,36.88
		c1.826,1.411,4.465,1.084,5.875-0.741c1.402-1.813,1.082-4.486-0.744-5.898c-1.812-1.4-4.48-1.035-5.883,0.777
		C190.904,32.844,191.254,35.479,193.066,36.88z"/>
	<path fill="#D2B0B0" d="M207.217,36.363c0.111-0.115,0.307-0.13,0.434-0.007l0.764,0.742c0.117,0.112,0.119,0.318,0.008,0.434
		l-6.602,6.813l3.139,3.042c0.127,0.122,0.119,0.317,0.008,0.433l-0.619,0.636c-0.111,0.117-0.305,0.13-0.432,0.007l-4.125-3.997
		c-0.127-0.124-0.119-0.317-0.008-0.433L207.217,36.363z"/>
	<path fill="#D2B0B0" d="M218.465,48.329c0.129-0.099,0.322-0.086,0.432,0.053l3.955,5.095c0.107,0.14,0.072,0.332-0.055,0.43
		l-0.713,0.554c-0.127,0.099-0.32,0.086-0.43-0.053l-3.125-4.024l-2.598,2.017l2.641,3.4c0.098,0.128,0.072,0.332-0.055,0.431
		l-0.713,0.554c-0.141,0.109-0.332,0.073-0.43-0.055l-2.641-3.4l-2.738,2.126l3.125,4.024c0.109,0.14,0.074,0.331-0.055,0.43
		l-0.699,0.544c-0.129,0.098-0.322,0.086-0.432-0.055l-3.955-5.094c-0.107-0.141-0.072-0.332,0.055-0.43L218.465,48.329z"/>
	<path fill="#D2B0B0" d="M225.465,60.034l-1.412-2.217c-0.096-0.149-0.043-0.336,0.092-0.423l0.762-0.485
		c0.137-0.087,0.328-0.057,0.424,0.094l3.727,5.847c0.096,0.149,0.043,0.336-0.094,0.423l-0.762,0.485
		c-0.137,0.086-0.326,0.057-0.422-0.094l-1.414-2.217l-7.98,5.088c-0.137,0.086-0.338,0.042-0.424-0.093l-0.572-0.897
		c-0.086-0.136-0.041-0.337,0.094-0.424L225.465,60.034z"/>
	<path fill="#D2B0B0" d="M224.955,75.442c0.25,0.045,0.523,0.061,0.775,0.106c0.25,0.043,0.404,0.223,0.346,0.444
		c-0.033,0.122-0.453,1.681,0.064,2.81c0.463,1.012,1.375,1.374,2.123,1.031c0.881-0.403,1.088-1.422,1.021-3.149
		c-0.055-1.784,0.186-3.313,1.885-4.093c1.145-0.525,3.115-0.365,4.186,1.966c0.672,1.467,0.414,2.915,0.379,3.11
		c-0.02,0.15-0.172,0.361-0.457,0.316c-0.23-0.036-0.496-0.074-0.727-0.111c-0.244-0.03-0.42-0.18-0.381-0.446
		c0.01-0.129,0.215-1.465-0.176-2.315c-0.564-1.232-1.537-1.301-2.08-1.052c-0.836,0.383-1.053,1.264-0.992,2.71
		c0.09,2.016-0.049,3.837-1.838,4.658c-1.525,0.699-3.396-0.092-4.271-1.999c-0.82-1.788-0.4-3.348-0.287-3.683
		C224.582,75.561,224.639,75.41,224.955,75.442z"/>
	<path fill="#D2B0B0" d="M238.248,82.516c0.154-0.051,0.338,0.042,0.389,0.194l0.342,1.025c0.057,0.168-0.039,0.337-0.193,0.388
		l-6.316,2.112c-1.531,0.511-2.396,1.888-1.875,3.449c0.527,1.576,2.037,2.176,3.551,1.67l6.35-2.123
		c0.152-0.05,0.33,0.025,0.387,0.194l0.344,1.025c0.051,0.152-0.041,0.336-0.193,0.388l-6.426,2.147
		c-2.324,0.777-4.732-0.373-5.541-2.79c-0.803-2.401,0.434-4.753,2.76-5.531L238.248,82.516z"/>
	<path fill="#D2B0B0" d="M242.523,96.456c0.158-0.033,0.326,0.063,0.363,0.237l0.898,4.294c0.398,1.896-0.779,3.758-2.658,4.151
		c-1.453,0.304-2.855-0.408-3.695-1.667l-3.557,3.004c-0.184,0.154-0.459,0.096-0.516-0.173l-0.258-1.231
		c-0.027-0.126,0.033-0.237,0.09-0.282l3.744-2.977l-0.498-2.385l-4.027,0.844c-0.158,0.032-0.33-0.08-0.363-0.237l-0.215-1.026
		c-0.037-0.174,0.08-0.33,0.238-0.363L242.523,96.456z M238.391,101.985c0.215,1.027,1.271,1.745,2.361,1.517
		c1.025-0.214,1.689-1.293,1.475-2.32l-0.588-2.811l-3.836,0.803L238.391,101.985z"/>
	<path fill="#D2B0B0" d="M245.881,116.831c0.131,0.028,0.248,0.153,0.252,0.282l0.008,0.258c0.004,0.098-0.072,0.245-0.168,0.279
		l-8.129,3.63l0.002,0.064l8.342,3.09c0.098,0.03,0.182,0.156,0.186,0.27l0.008,0.258c0.004,0.128-0.104,0.26-0.232,0.296
		l-10.768,2.326c-0.223,0.056-0.371-0.053-0.379-0.278l-0.033-1.047c-0.004-0.145,0.104-0.278,0.215-0.314l7.166-1.42
		c0-0.016,0-0.048,0-0.048l-7.506-2.666c-0.098-0.029-0.182-0.123-0.188-0.268l-0.008-0.291c-0.004-0.129,0.072-0.245,0.168-0.279
		l7.322-3.153c-0.002-0.016-0.002-0.048-0.002-0.064l-7.242-0.932c-0.113-0.012-0.23-0.154-0.234-0.283l-0.033-1.047
		c-0.008-0.226,0.135-0.344,0.361-0.318L245.881,116.831z"/>
	<path fill="#D2B0B0" d="M245.66,132.473c0.16,0.014,0.295,0.156,0.277,0.332l-0.57,6.426c-0.016,0.177-0.17,0.293-0.332,0.277
		l-0.898-0.078c-0.162-0.015-0.295-0.155-0.279-0.333l0.451-5.076l-3.277-0.292l-0.381,4.291c-0.014,0.16-0.172,0.292-0.332,0.278
		l-0.9-0.081c-0.176-0.016-0.293-0.172-0.277-0.332l0.381-4.29l-3.455-0.307l-0.451,5.077c-0.016,0.177-0.172,0.293-0.332,0.278
		l-0.883-0.078c-0.162-0.015-0.295-0.156-0.279-0.333l0.57-6.426c0.018-0.177,0.172-0.293,0.334-0.278L245.66,132.473z"/>
	<path fill="#D2B0B0" d="M235.23,142.085c0.18,0.183,0.393,0.354,0.572,0.535c0.18,0.181,0.201,0.415,0.027,0.562
		c-0.098,0.08-1.342,1.111-1.57,2.334c-0.205,1.094,0.332,1.916,1.141,2.067c0.951,0.178,1.709-0.533,2.652-1.982
		c0.984-1.49,2.062-2.602,3.902-2.258c1.236,0.231,2.756,1.501,2.285,4.023c-0.297,1.585-1.346,2.62-1.486,2.759
		c-0.102,0.111-0.348,0.196-0.557-0.007c-0.166-0.163-0.361-0.347-0.527-0.508c-0.184-0.167-0.24-0.391-0.057-0.586
		c0.084-0.1,1.023-1.073,1.195-1.993c0.248-1.332-0.506-1.949-1.092-2.06c-0.906-0.168-1.592,0.426-2.377,1.641
		c-1.09,1.701-2.256,3.107-4.189,2.746c-1.65-0.309-2.723-2.036-2.336-4.098c0.361-1.936,1.605-2.967,1.891-3.175
		C234.857,141.967,234.99,141.877,235.23,142.085z"/>
	<path fill="#D2B0B0" d="M242.016,155.508c0.154,0.047,0.252,0.228,0.205,0.382l-0.309,1.036c-0.051,0.169-0.227,0.251-0.383,0.205
		l-6.381-1.907c-1.545-0.461-3.045,0.168-3.518,1.744c-0.475,1.591,0.416,2.951,1.945,3.408l6.412,1.916
		c0.154,0.047,0.256,0.211,0.207,0.381l-0.311,1.036c-0.045,0.153-0.227,0.251-0.381,0.205l-6.49-1.938
		c-2.348-0.702-3.656-3.028-2.928-5.47c0.727-2.426,3.092-3.638,5.439-2.937L242.016,155.508z"/>
	<path fill="#D2B0B0" d="M237.49,169.357c0.148,0.063,0.23,0.239,0.16,0.401l-1.732,4.031c-0.766,1.778-2.797,2.626-4.561,1.867
		c-1.363-0.587-2.102-1.975-2.066-3.488l-4.637,0.412c-0.236,0.021-0.43-0.185-0.32-0.437l0.496-1.155
		c0.051-0.118,0.164-0.176,0.236-0.18l4.773-0.282l0.963-2.237l-3.779-1.626c-0.148-0.063-0.223-0.254-0.16-0.401l0.414-0.964
		c0.07-0.162,0.256-0.224,0.402-0.16L237.49,169.357z M230.93,171.505c-0.414,0.963,0.037,2.158,1.061,2.598
		c0.963,0.415,2.127-0.086,2.541-1.048l1.133-2.639l-3.6-1.548L230.93,171.505z"/>
	<path fill="#D2B0B0" d="M231.869,181.553c0.141,0.079,0.203,0.263,0.117,0.418l-3.16,5.623c-0.088,0.153-0.277,0.195-0.418,0.117
		l-0.787-0.443c-0.141-0.078-0.203-0.262-0.117-0.418l2.496-4.441l-2.867-1.612l-2.109,3.755c-0.078,0.141-0.277,0.195-0.416,0.117
		l-0.787-0.443c-0.154-0.086-0.197-0.277-0.117-0.417l2.109-3.753l-3.023-1.699l-2.496,4.441c-0.086,0.156-0.277,0.197-0.418,0.117
		l-0.771-0.434c-0.143-0.079-0.205-0.263-0.117-0.417l3.16-5.623c0.086-0.155,0.275-0.196,0.416-0.117L231.869,181.553z"/>
	<path fill="#D2B0B0" d="M218.732,201.384c0.123,0.106,0.148,0.299,0.033,0.433l-4.209,4.89c-0.117,0.135-0.311,0.138-0.432,0.033
		l-0.686-0.59c-0.123-0.105-0.148-0.298-0.033-0.433l3.326-3.862l-2.494-2.146l-2.809,3.264c-0.105,0.122-0.311,0.138-0.434,0.032
		l-0.684-0.588c-0.135-0.117-0.139-0.311-0.033-0.434l2.811-3.263l-2.629-2.263l-3.324,3.862c-0.117,0.134-0.311,0.139-0.434,0.032
		l-0.672-0.578c-0.121-0.105-0.148-0.297-0.031-0.433l4.209-4.89c0.115-0.135,0.309-0.138,0.432-0.032L218.732,201.384z"/>
	<path fill="#D2B0B0" d="M208.637,210.57l1.896-1.823c0.129-0.122,0.322-0.107,0.434,0.01l0.627,0.65
		c0.111,0.116,0.119,0.311-0.01,0.434l-5.002,4.808c-0.127,0.123-0.322,0.108-0.434-0.008l-0.625-0.651
		c-0.113-0.116-0.119-0.311,0.008-0.434l1.896-1.822l-6.562-6.828c-0.113-0.116-0.109-0.321,0.008-0.434l0.768-0.738
		c0.115-0.112,0.322-0.107,0.434,0.008L208.637,210.57z"/>
	<path fill="#D2B0B0" d="M198.271,221.218c0.092,0.133,0.07,0.325-0.076,0.427l-2.963,2.067c-1.602,1.117-3.49,0.861-4.459-0.527
		c-0.711-1.019-0.465-2.273-0.092-3.063c-0.904,0.198-2.309,0.215-3.158-1.003c-1.033-1.481-0.564-3.403,1.104-4.565l3.107-2.169
		c0.146-0.101,0.336-0.056,0.428,0.076L198.271,221.218z M189.488,215.761c-0.807,0.563-0.994,1.618-0.424,2.438
		c0.564,0.807,1.738,0.854,2.598,0.254l1.812-1.265l-1.975-2.83L189.488,215.761z M192.506,219.635
		c-0.848,0.59-0.93,1.572-0.375,2.366c0.562,0.808,1.467,1.003,2.312,0.412l1.787-1.245l-1.939-2.779L192.506,219.635z"/>
	<path fill="#D2B0B0" d="M187.947,228.16c0.084,0.139,0.035,0.337-0.104,0.42l-0.912,0.55c-0.139,0.082-0.338,0.033-0.42-0.105
		l-5.506-9.146c-0.082-0.137-0.033-0.336,0.105-0.42l0.912-0.548c0.139-0.084,0.338-0.034,0.42,0.104L187.947,228.16z"/>
	<path fill="#D2B0B0" d="M181.621,231.821c0.072,0.145,0.023,0.332-0.137,0.411l-5.775,2.875c-0.16,0.08-0.34,0.007-0.412-0.139
		l-0.402-0.808c-0.072-0.145-0.02-0.332,0.139-0.411l4.562-2.271l-1.465-2.945l-3.857,1.918c-0.145,0.072-0.338,0.008-0.41-0.137
		l-0.402-0.809c-0.078-0.159-0.006-0.339,0.137-0.411l3.857-1.919l-1.545-3.104l-4.564,2.271c-0.158,0.079-0.338,0.007-0.41-0.138
		l-0.395-0.794c-0.072-0.145-0.021-0.332,0.137-0.411l5.775-2.875c0.16-0.079,0.34-0.007,0.412,0.139L181.621,231.821z"/>
	<path fill="#D2B0B0" d="M170.555,237.241c0.057,0.152-0.037,0.323-0.188,0.378l-0.381,0.137l-9.332-5.229l-0.016,0.005l2.596,7.172
		c0.055,0.151-0.018,0.331-0.186,0.391l-0.971,0.352c-0.15,0.055-0.336-0.032-0.391-0.184l-3.691-10.203
		c-0.057-0.151,0.037-0.322,0.188-0.377l0.395-0.142l9.41,5.441l0.016-0.006l-2.672-7.383c-0.055-0.151,0.018-0.332,0.184-0.393
		l0.955-0.345c0.152-0.055,0.338,0.031,0.393,0.184L170.555,237.241z"/>
	<path fill="#D2B0B0" d="M150.334,243.235c0.029,0.16-0.07,0.326-0.246,0.358l-3.615,0.671c-1.951,0.362-3.85-0.927-4.205-2.846
		c-0.365-1.968,0.939-3.867,2.875-4.227l2.301-0.427l-0.693-3.729c-0.029-0.159,0.088-0.328,0.246-0.357l1.031-0.191
		c0.174-0.033,0.328,0.087,0.357,0.246L150.334,243.235z M145.543,238.727c-1.096,0.203-1.852,1.262-1.639,2.405
		c0.201,1.078,1.273,1.732,2.367,1.528l2.189-0.405l-0.729-3.935L145.543,238.727z"/>
	<path fill="#D2B0B0" d="M138.299,245.158c0.016,0.16-0.102,0.315-0.277,0.332l-1.061,0.095c-0.16,0.014-0.318-0.117-0.334-0.278
		l-0.844-9.448l-4.355,0.389c-0.176,0.017-0.318-0.116-0.332-0.278l-0.078-0.883c-0.016-0.16,0.102-0.316,0.277-0.332l5.721-0.512
		c0.176-0.017,0.318,0.116,0.332,0.277L138.299,245.158z"/>
	<path fill="#D2B0B0" d="M127.922,245.9c-0.002,0.161-0.15,0.305-0.311,0.302l-1.082-0.015c-0.176-0.001-0.303-0.148-0.301-0.311
		l0.088-6.661c0.02-1.613-0.996-2.886-2.641-2.907c-1.662-0.021-2.726,1.207-2.748,2.804l-0.088,6.694
		c-0.002,0.161-0.133,0.305-0.311,0.303l-1.081-0.015c-0.162-0.003-0.305-0.149-0.302-0.31l0.089-6.775
		c0.033-2.452,1.913-4.348,4.461-4.314c2.534,0.034,4.346,1.979,4.313,4.43L127.922,245.9z"/>
	<path fill="#D2B0B0" d="M115.277,236.122c-0.169,0.19-0.326,0.415-0.495,0.606s-0.401,0.229-0.561,0.062
		c-0.085-0.09-1.197-1.264-2.431-1.41c-1.105-0.132-1.891,0.457-1.988,1.274c-0.114,0.961,0.646,1.669,2.154,2.515
		c1.552,0.885,2.732,1.887,2.51,3.744c-0.149,1.25-1.314,2.849-3.862,2.545c-1.602-0.19-2.705-1.167-2.851-1.299
		c-0.118-0.095-0.22-0.334-0.031-0.555c0.151-0.178,0.322-0.385,0.473-0.562c0.153-0.193,0.373-0.264,0.58-0.094
		c0.104,0.077,1.138,0.948,2.067,1.06c1.345,0.16,1.912-0.634,1.982-1.227c0.109-0.912-0.529-1.558-1.794-2.262
		c-1.769-0.974-3.249-2.044-3.016-3.998c0.199-1.666,1.851-2.851,3.933-2.603c1.955,0.233,3.066,1.405,3.293,1.677
		C115.372,235.743,115.47,235.868,115.277,236.122z"/>
	<path fill="#D2B0B0" d="M96.606,242.506c-0.042,0.156-0.204,0.264-0.375,0.217l-6.23-1.676c-0.171-0.046-0.258-0.219-0.216-0.375
		l0.234-0.872c0.042-0.156,0.204-0.263,0.375-0.217l4.922,1.323l0.854-3.178l-4.159-1.117c-0.156-0.042-0.258-0.221-0.216-0.375
		l0.234-0.873c0.046-0.172,0.22-0.259,0.376-0.216l4.158,1.118l0.901-3.349l-4.922-1.324c-0.171-0.046-0.258-0.22-0.216-0.375
		l0.229-0.857c0.042-0.155,0.205-0.263,0.376-0.216l6.23,1.676c0.171,0.046,0.258,0.22,0.216,0.375L96.606,242.506z"/>
	<path fill="#D2B0B0" d="M84.749,239.23c-0.06,0.149-0.242,0.216-0.392,0.156l-0.375-0.147l-3.529-10.098l-0.015-0.006l-2.805,7.09
		c-0.06,0.148-0.232,0.236-0.397,0.171l-0.959-0.379c-0.149-0.06-0.231-0.247-0.172-0.397l3.991-10.087
		c0.059-0.15,0.242-0.216,0.392-0.156l0.389,0.152l3.445,10.309l0.015,0.006l2.888-7.3c0.06-0.149,0.233-0.237,0.398-0.172
		l0.944,0.374c0.149,0.059,0.231,0.247,0.172,0.396L84.749,239.23z"/>
	<path fill="#D2B0B0" d="M66.087,231.079c-1.431-0.778-2.203-1.822-2.711-3.182c-0.065-0.183,0.027-0.354,0.202-0.405l0.97-0.298
		c0.169-0.073,0.296-0.004,0.354,0.193c0.35,0.943,1.055,1.805,1.934,2.283c2.025,1.102,4.48,0.234,5.56-1.748
		c1.08-1.983,0.453-4.51-1.573-5.611c-1.034-0.563-1.98-0.546-2.945-0.392c-0.182,0.029-0.301-0.054-0.348-0.171l-0.305-0.992
		c-0.06-0.161,0.069-0.329,0.222-0.376c1.472-0.409,2.93-0.186,4.19,0.5c2.833,1.543,3.888,5.035,2.346,7.868
		C72.442,231.582,68.92,232.621,66.087,231.079z"/>
	<path fill="#D2B0B0" d="M54.18,223.538c-2.621-1.883-3.2-5.499-1.317-8.12c1.884-2.62,5.478-3.196,8.098-1.312
		c2.62,1.884,3.206,5.464,1.323,8.084C60.4,224.811,56.8,225.423,54.18,223.538z M60.019,215.416
		c-1.874-1.347-4.499-0.93-5.846,0.944c-1.337,1.859-0.925,4.521,0.949,5.868c1.86,1.337,4.514,0.88,5.852-0.98
		C62.32,219.374,61.879,216.753,60.019,215.416z"/>
	<path fill="#D2B0B0" d="M45.814,216.396c-0.109,0.118-0.303,0.138-0.433,0.017l-3.22-2.979c-1.42-1.312-1.54-3.512-0.237-4.92
		c1.008-1.089,2.562-1.321,3.976-0.782l1.16-4.507c0.06-0.231,0.317-0.344,0.519-0.157l0.923,0.854
		c0.095,0.087,0.111,0.212,0.092,0.281l-1.328,4.594l1.787,1.653l2.793-3.019c0.11-0.118,0.314-0.127,0.433-0.017l0.77,0.712
		c0.13,0.12,0.126,0.314,0.018,0.434L45.814,216.396z M45.979,209.497c-0.769-0.712-2.046-0.686-2.802,0.132
		c-0.711,0.771-0.628,2.033,0.142,2.745l2.107,1.949l2.662-2.876L45.979,209.497z"/>
	<path fill="#D2B0B0" d="M36.178,207.011c-0.121,0.106-0.315,0.105-0.432-0.028l-4.243-4.855c-0.117-0.135-0.093-0.327,0.029-0.433
		l0.68-0.595c0.121-0.105,0.315-0.104,0.432,0.029l3.352,3.836l2.477-2.164l-2.833-3.24c-0.105-0.121-0.092-0.327,0.03-0.433
		l0.68-0.595c0.133-0.116,0.327-0.092,0.432,0.029l2.832,3.242l2.61-2.28l-3.352-3.837c-0.117-0.133-0.092-0.326,0.029-0.433
		l0.668-0.583c0.122-0.105,0.315-0.104,0.432,0.028l4.243,4.857c0.117,0.133,0.092,0.325-0.028,0.433L36.178,207.011z"/>
</g>
</svg>
