<?xml version="1.0" encoding="utf-8"?>
<!-- Generator: Adobe Illustrator 16.0.0, SVG Export Plug-In . SVG Version: 6.00 Build 0)  -->
<!DOCTYPE svg PUBLIC "-//W3C//DTD SVG 1.1//EN" "http://www.w3.org/Graphics/SVG/1.1/DTD/svg11.dtd">
<svg version="1.1" id="Calque_1" xmlns="http://www.w3.org/2000/svg" xmlns:xlink="http://www.w3.org/1999/xlink" x="0px" y="0px"
	 width="250px" height="250px" viewBox="0 0 250 250" enable-background="new 0 0 250 250" xml:space="preserve">
<g>
	<g>
		<path fill="#D2B0B0" d="M88.402,186.633c0.073,1.545-0.149,6.429-5.325,7.125c-0.808,0.111-3.049,0.328-3.084-3.341
			c-0.039-3.674-0.039-14.984-0.039-14.984s0.295-2.129-2.018-0.77c-0.884,0.588-1.322,2.056-1.322,2.387v12.815
			c0,0-0.219,4.92,4.846,5.105c3.198,0.038,7.807-0.074,9.842-4.849c2.034-4.774-0.953-8.348-5.25-8.589
			c0,0,4.935-1.177,5.083-5.635c0-2.973-3-5.494-6.852-5.604c-3.851-0.112-7.299,0.402-9.762,2.095
			c-2.459,1.688-6.205,6.608-3.71,10.941c0.74,1.088,2.241,1.027,2.866,1.027c0.625,0,2.29,0,0.271-2.533
			c-0.809-1.469-0.771-5.263,1.469-7.541c1.359-1.47,4.759-3.587,8.431-2.707c1.432,0.295,5.035,1.727,3.516,6.476
			c-0.367,0.738-1.79,3.001-5.059,3.075c0,0-1.491-0.039-0.94,0.731C81.917,182.633,87.947,180.979,88.402,186.633z"/>
		<path fill="#D2B0B0" d="M107.34,188.006c0.314-2.162,0.389-3.775,0.455-4.489c0,0,0.402,0.44,3.486,0.44
			c0,0-0.952,13.221,1.14,15.973c0.331,0.588,2.461,4.734,7.602,3.414c1.58-0.368,3.048-2.46,3.451-3.637
			c0.405-1.174-0.549-0.805-1.027-0.035c-0.478,0.771-1.689,2.903-4.296,2.863c-1.984-0.183-3.674-1.726-3.745-7.822
			c0.146-6.057,0.33-11.787,0.33-11.787s0-1.615-1.726-1.797c-1.726-0.185-4.37,0.256-4.591-1.101
			c0.038-0.627,0.368-1.288,0.624-1.69c0.258-0.404-1.725-1.617-2.714-0.478c-0.994,1.138-1.47,3.486,0.218,4.957l0.203,0.108
			l-0.705,8.19"/>
		<path fill="#D2B0B0" d="M106.467,186.173c0,0-0.081,6.249-5.109,7.388c-5.031,1.139-5.387-4.456-5.387-4.456
			s8.47-2.275,8.57-8.152c0.029-1.937-2.065-3.567-3.846-3.567c-1.781,0-4.846,0.476-6.718,3.047
			c-1.875,2.569-1.691,7.687-1.472,8.673c0.221,0.984,0.792,4.639,5.013,5.724c0.771,0.291,4.693,0.176,6.572-1.232
			c1.847-1.384,3.129-3.582,3.388-6.52L106.467,186.173z M96.75,180.67c2.532-3.929,5.288-1.891,5.361,0.274
			c-0.222,5.62-6.373,7.184-6.373,7.184C95.556,182.91,96.64,180.909,96.75,180.67z"/>
		<path fill="#D2B0B0" d="M116.19,182.028c0,0,0.076-2.552,1.084-3.171c1.005-0.62,2.088-0.309,2.088,0.696c0,1.004,0,2.397,0,2.397
			s2.011-4.041,4.796-3.414c0.851,0.318,2.401,0.938,2.862,3.957c0,0,1.704-3.789,4.102-4.022c2.398-0.234,3.947,2.243,4.103,5.182
			c0.152,2.94-0.158,6.654,0.54,8.124c0.697,1.472,1.832,2.466,3.638,0.696c0,0,1.701-0.465,0.541,0.851
			c-1.161,1.315-7.065,4.108-7.441-2.063c-0.374-6.176-0.45-9.387-0.45-9.387s-0.062-3.693-2.555-1.782
			c-0.729,0.688-1.243,1.066-1.855,2.558c-0.613,1.494-0.312,5.646-0.387,7.194c-0.079,1.547-0.014,3.453-1.019,4.771
			c-1.005,1.314-2.057-0.593-2.078-1.985c-0.021-1.397,0-9.365,0-10.062c0-0.694-0.164-4.228-2.243-2.707
			c-0.687,0.486-2.414,2.483-2.553,4.874c0,1.164-0.155,6.344-0.155,6.344s0.089,2.761-1.342,3.713c0,0-1.598,0.777-1.675-1.853
			C116.112,190.308,116.19,182.028,116.19,182.028z"/>
		<path fill="#D2B0B0" d="M145.955,191.567c0,0-0.716,4.322-4.571,3.395c-2.678-0.035-3.499-4.179-3.607-5.752
			c-0.106-1.567-0.202-4.741-0.179-5.712c0,0-0.18-4.144,1.965-4.679c0.43-0.037,1.07,0.286,1.144,1.143
			c0.071,0.857,0,7.463,0,8.536c0,1.071,0.248,4.032,1.355,5.068c0.251,0.215,1.856,1.396,3.036-1.961
			c0.142-0.465,0.607-1.717,0.427-6.037c-0.177-4.32,0.287-6.683,2.25-6.751c0.466,0.038,0.715,0.537,0.822,1.323
			c0.108,0.786-0.107,8.035,0,9.503c0.108,1.459,0.751,4.457,2.68,4.299c0.428-0.087,1.07-0.444,1.465-1.518
			c0.393-1.071,0.429-1.644,0.429-1.644v2.237c0,0-1.168,2.95-4.204,1.858C148.228,194.604,147.074,194.187,145.955,191.567z"/>
		<path fill="#D2B0B0" d="M182.21,196.134c-0.331,0.401-1.175,1.246-2.351,0.806c-1.175-0.44-2.312-1.981-2.864-3.414
			c-0.551-1.434-0.476-5.619-0.527-7.75c-0.047-2.129,0.013-6.449,0-6.647c-0.919-2.422-2.83,0.915-2.83,0.915
			c-0.518-0.996-1.356-1.514-2.703-1.389c-2.985,0.275-5.653,3.851-5.653,8.608s1.238,7.841,4.626,7.841
			c1.908,0,3.11-1.24,3.798-3.174c0.034,1.527,0.867,3.358,1.454,4.091c3.745,4.517,6.684,1.872,7.455,1.044
			C183.384,196.232,182.541,195.729,182.21,196.134z M170.533,193.927c-1.817,0-2.148-2.67-2.148-6.735
			c0-4.069,1.101-7.124,2.589-7.29c1.962-0.218,2.461,2.546,2.461,6.613C173.435,190.583,172.35,193.927,170.533,193.927z"/>
		<path fill="#D2B0B0" d="M167.034,190.862c-0.588,2.165-1.395,2.572-1.836,2.825c-2.387,0.627-3.121-2.642-3.305-6.169
			c-0.183-3.521,0-14.505,0-17.221c-0.438-14.688-6.512-20.122-12.241-20.857c-13.021-1.911-15.813,10.38-15.079,16.206
			c0.736,5.827,4.407,8.618,6.122,9.696c1.712,1.076,1.224-0.688,0.585-0.981c-6.951-4.113-6.361-12.385-5.237-16.059
			c1.126-3.671,5.532-8.079,10.184-7.931c4.649,0.146,7.492,1.566,10.233,7.686c2.74,6.122,2.289,20.991,2.289,20.991
			c-0.707-1.145-1.692-1.75-2.977-1.601c-2.643,0.303-5.628,3.545-5.628,8.615c0,7.394,1.95,9.057,4.993,9.057
			c1.804,0,3.224-1.45,4.08-3.691c0.372,1.633,1.94,3.289,2.97,3.473c4.483,0.956,5.322-3.23,5.656-4.111
			C168.174,189.907,167.622,188.695,167.034,190.862z M155.806,193.837c-1.626,0-2.843-1.416-2.432-7.691
			c0.392-5.958,1.598-7.07,3.009-7.326c1.597-0.293,1.98,2.55,2.327,7.2C159.005,189.935,157.432,193.837,155.806,193.837z"/>
	</g>
	<g>
		<path fill="#D2B0B0" d="M47.071,66.114h19.448v5.719h-6.581v34.317h-6.293V71.833H47.07L47.071,66.114L47.071,66.114z"/>
		<path fill="#D2B0B0" d="M68.794,75.844c0-6.407,3.375-10.066,9.554-10.066c6.175,0,9.549,3.659,9.549,10.066v20.818
			c0,6.404-3.374,10.065-9.549,10.065c-6.179,0-9.554-3.661-9.554-10.065V75.844z M75.084,97.061c0,2.862,1.263,3.946,3.264,3.946
			c2.001,0,3.259-1.084,3.259-3.946V75.444c0-2.86-1.257-3.949-3.259-3.949c-2.001,0-3.264,1.087-3.264,3.949V97.061z"/>
		<path fill="#D2B0B0" d="M94.921,66.388h6.292v40.039h-6.292V66.388z"/>
		<path fill="#D2B0B0" d="M54.811,83.871c-0.188-0.094-0.41-0.08-0.582,0.041l-2.669,1.888c-0.148,0.105-0.237,0.274-0.237,0.457
			c0,0.182,0.086,0.353,0.237,0.457l2.669,1.889c0.096,0.069,0.21,0.101,0.322,0.101c0.088,0,0.175-0.019,0.26-0.062
			c0.185-0.094,0.299-0.288,0.299-0.496v-3.778C55.11,84.159,54.996,83.967,54.811,83.871z"/>
		<path fill="#D2B0B0" d="M69.956,84.022c-0.185-0.096-0.407-0.08-0.581,0.041l-2.665,1.889c-0.148,0.104-0.237,0.273-0.237,0.456
			s0.089,0.353,0.237,0.457l2.665,1.889c0.1,0.066,0.212,0.103,0.327,0.103c0.086,0,0.176-0.021,0.254-0.065
			c0.187-0.094,0.306-0.287,0.306-0.495v-3.774C70.262,84.31,70.143,84.118,69.956,84.022z"/>
		<path fill="#D2B0B0" d="M82.794,84.022c-0.188-0.096-0.41-0.08-0.582,0.041l-2.668,1.889c-0.147,0.104-0.236,0.273-0.236,0.456
			s0.088,0.353,0.236,0.457l2.668,1.889c0.097,0.066,0.209,0.103,0.323,0.103c0.088,0,0.175-0.021,0.259-0.065
			c0.186-0.094,0.301-0.287,0.301-0.495v-3.774C83.097,84.31,82.98,84.118,82.794,84.022z"/>
		<path fill="#D2B0B0" d="M96.061,84.176c-0.185-0.095-0.41-0.081-0.581,0.039l-2.667,1.889c-0.149,0.104-0.237,0.275-0.237,0.458
			c0,0.182,0.087,0.353,0.237,0.457l2.667,1.889c0.096,0.068,0.21,0.101,0.322,0.101c0.089,0,0.179-0.02,0.259-0.062
			c0.185-0.096,0.302-0.288,0.302-0.498v-3.774C96.363,84.464,96.246,84.272,96.061,84.176z"/>
		<path fill="#D2B0B0" d="M58.835,88.638c0.188,0.095,0.411,0.079,0.581-0.042l2.668-1.887c0.151-0.107,0.238-0.276,0.238-0.457
			c0-0.182-0.087-0.352-0.238-0.457l-2.668-1.889c-0.094-0.069-0.208-0.103-0.325-0.103c-0.085,0-0.171,0.021-0.256,0.063
			c-0.183,0.096-0.302,0.286-0.302,0.496v3.776C58.533,88.35,58.652,88.54,58.835,88.638z"/>
		<path fill="#D2B0B0" d="M73.999,88.78c0.188,0.095,0.411,0.08,0.583-0.042l2.667-1.886c0.149-0.103,0.236-0.276,0.236-0.456
			c0-0.183-0.085-0.353-0.236-0.457l-2.667-1.887c-0.099-0.07-0.211-0.103-0.324-0.103c-0.089,0-0.175,0.018-0.26,0.061
			c-0.184,0.094-0.3,0.288-0.3,0.496v3.777C73.699,88.491,73.815,88.684,73.999,88.78z"/>
		<path fill="#D2B0B0" d="M86.805,88.78c0.187,0.095,0.41,0.08,0.58-0.042l2.668-1.886c0.151-0.103,0.238-0.276,0.238-0.456
			c0-0.183-0.087-0.353-0.238-0.457l-2.668-1.887c-0.096-0.07-0.207-0.103-0.322-0.103c-0.089,0-0.177,0.018-0.257,0.061
			c-0.185,0.094-0.303,0.288-0.303,0.496v3.777C86.501,88.491,86.62,88.684,86.805,88.78z"/>
		<path fill="#D2B0B0" d="M100.121,88.91c0.185,0.097,0.406,0.08,0.578-0.039l2.669-1.89c0.146-0.104,0.234-0.275,0.234-0.457
			c0-0.18-0.088-0.35-0.234-0.457l-2.669-1.889c-0.097-0.068-0.207-0.101-0.323-0.101c-0.088,0-0.175,0.021-0.254,0.063
			c-0.188,0.096-0.303,0.286-0.303,0.496v3.776C99.818,88.623,99.935,88.816,100.121,88.91z"/>
	</g>
	<g>
		<path fill="#D2B0B0" d="M160.739,88.96c0.188,0.098,0.409,0.082,0.58-0.039l2.67-1.889c0.146-0.103,0.232-0.273,0.232-0.457
			c0-0.18-0.086-0.351-0.232-0.455l-2.67-1.889c-0.097-0.067-0.208-0.101-0.322-0.101c-0.089,0-0.175,0.02-0.258,0.062
			c-0.184,0.094-0.301,0.286-0.301,0.496v3.777C160.438,88.675,160.556,88.866,160.739,88.96z"/>
		<path fill="#D2B0B0" d="M148.809,94.95l4.283-28.36h8.728v39.944h-5.933V77.888l-4.336,28.645h-5.934l-4.681-28.247v28.247h-5.479
			V66.589h8.732L148.809,94.95z"/>
		<path fill="#D2B0B0" d="M194.963,66.534h6.275v39.944h-6.275V66.534z"/>
		<path fill="#D2B0B0" d="M136.597,84.179c-0.188-0.095-0.41-0.077-0.58,0.041l-2.669,1.889c-0.15,0.104-0.236,0.273-0.236,0.457
			c0,0.182,0.086,0.352,0.236,0.455l2.669,1.889c0.095,0.068,0.212,0.102,0.321,0.102c0.091,0,0.177-0.02,0.259-0.063
			c0.186-0.094,0.301-0.286,0.301-0.496v-3.777C136.897,84.468,136.782,84.276,136.597,84.179z"/>
		<path fill="#D2B0B0" d="M196.126,84.193c-0.188-0.096-0.407-0.081-0.578,0.041l-2.67,1.889c-0.146,0.103-0.237,0.275-0.237,0.457
			c0,0.18,0.091,0.352,0.237,0.456l2.67,1.889c0.095,0.066,0.21,0.101,0.321,0.101c0.086,0,0.177-0.02,0.257-0.063
			c0.187-0.095,0.303-0.286,0.303-0.496V84.69C196.429,84.482,196.312,84.289,196.126,84.193z"/>
		<path fill="#D2B0B0" d="M200.146,88.963c0.188,0.097,0.408,0.081,0.578-0.039l2.67-1.889c0.149-0.104,0.237-0.275,0.237-0.456
			c0-0.182-0.088-0.353-0.237-0.457l-2.67-1.889c-0.094-0.067-0.208-0.103-0.321-0.103c-0.088,0-0.175,0.019-0.257,0.063
			c-0.188,0.095-0.304,0.288-0.304,0.496v3.777C199.842,88.676,199.958,88.866,200.146,88.963z"/>
		<path fill="#D2B0B0" d="M168.8,75.594c0-6.406,3.376-10.067,9.55-10.067c6.178,0,9.553,3.661,9.553,10.067v20.817
			c0,6.406-3.375,10.065-9.553,10.065c-6.174,0-9.55-3.661-9.55-10.065V75.594z M175.093,96.81c0,2.862,1.259,3.949,3.257,3.949
			c2.003,0,3.26-1.085,3.26-3.949V75.193c0-2.858-1.257-3.946-3.26-3.946c-1.999,0-3.257,1.088-3.257,3.946V96.81z"/>
		<path fill="#D2B0B0" d="M169.963,84.176c-0.188-0.095-0.411-0.081-0.582,0.039l-2.667,1.889c-0.15,0.104-0.235,0.275-0.235,0.458
			c0,0.182,0.085,0.353,0.235,0.457l2.667,1.889c0.099,0.068,0.212,0.101,0.325,0.101c0.089,0,0.173-0.02,0.257-0.062
			c0.187-0.096,0.301-0.288,0.301-0.498v-3.774C170.264,84.464,170.149,84.272,169.963,84.176z"/>
		<path fill="#D2B0B0" d="M182.797,84.193c-0.188-0.098-0.409-0.081-0.583,0.041l-2.663,1.889c-0.15,0.103-0.238,0.274-0.238,0.457
			c0,0.18,0.088,0.35,0.238,0.456l2.663,1.889c0.1,0.066,0.213,0.101,0.327,0.101c0.087,0,0.174-0.02,0.256-0.063
			c0.184-0.095,0.304-0.286,0.304-0.496v-3.776C183.101,84.479,182.98,84.289,182.797,84.193z"/>
		<path fill="#D2B0B0" d="M174.007,88.947c0.185,0.096,0.406,0.08,0.578-0.041l2.667-1.889c0.15-0.103,0.237-0.273,0.237-0.457
			c0-0.181-0.087-0.352-0.237-0.456l-2.667-1.889c-0.096-0.068-0.209-0.102-0.323-0.102c-0.089,0-0.175,0.021-0.255,0.062
			c-0.19,0.096-0.304,0.288-0.304,0.498v3.774C173.703,88.658,173.816,88.849,174.007,88.947z"/>
		<path fill="#D2B0B0" d="M186.808,88.96c0.187,0.099,0.411,0.083,0.58-0.038l2.67-1.889c0.147-0.104,0.238-0.275,0.238-0.456
			c0-0.182-0.091-0.354-0.238-0.457l-2.67-1.889c-0.094-0.068-0.209-0.102-0.323-0.102c-0.086,0-0.174,0.02-0.257,0.062
			c-0.186,0.096-0.302,0.29-0.302,0.497v3.775C186.506,88.675,186.622,88.866,186.808,88.96z"/>
	</g>
	
		<rect x="115.17" y="77.029" transform="matrix(0.7071 0.7071 -0.7071 0.7071 95.7969 -58.1355)" fill="#D2B0B0" width="5.821" height="19.1"/>
	
		<rect x="115.178" y="77.025" transform="matrix(-0.7073 0.7069 -0.7069 -0.7073 262.8135 64.326)" fill="#D2B0B0" width="5.823" height="19.099"/>
	<polygon fill="#D2B0B0" points="53.045,133.07 45.962,137.16 53.045,141.249 60.126,137.16 	"/>
	<polygon fill="#D2B0B0" points="200.655,133.07 193.571,137.16 200.655,141.249 207.736,137.16 	"/>
	<g>
		<g>
			<circle fill="#D2B0B0" cx="69.699" cy="119.482" r="0.381"/>
			<circle fill="#D2B0B0" cx="72.042" cy="120.223" r="0.381"/>
			<path fill="#D2B0B0" d="M74.02,120.849c-0.064,0.201,0.047,0.413,0.248,0.478c0.201,0.062,0.415-0.048,0.478-0.249
				c0.065-0.2-0.048-0.413-0.248-0.477C74.297,120.538,74.083,120.649,74.02,120.849z"/>
			<path fill="#D2B0B0" d="M76.361,121.589c-0.062,0.201,0.047,0.416,0.249,0.478c0.2,0.064,0.413-0.045,0.479-0.249
				c0.062-0.199-0.049-0.413-0.248-0.475C76.64,121.277,76.425,121.39,76.361,121.589z"/>
			<path fill="#D2B0B0" d="M78.704,122.331c-0.063,0.2,0.047,0.413,0.245,0.478c0.202,0.062,0.417-0.048,0.48-0.249
				c0.063-0.203-0.048-0.416-0.247-0.479C78.979,122.02,78.766,122.131,78.704,122.331z"/>
			<circle fill="#D2B0B0" cx="81.407" cy="123.186" r="0.38"/>
			<path fill="#D2B0B0" d="M83.385,123.812c-0.063,0.202,0.048,0.414,0.249,0.479c0.202,0.061,0.414-0.049,0.478-0.249
				c0.063-0.202-0.049-0.416-0.25-0.48C83.665,123.5,83.451,123.612,83.385,123.812z"/>
			<circle fill="#D2B0B0" cx="86.09" cy="124.669" r="0.38"/>
			<path fill="#D2B0B0" d="M88.068,125.292c-0.062,0.202,0.048,0.417,0.25,0.48c0.2,0.063,0.413-0.045,0.478-0.247
				c0.062-0.204-0.049-0.415-0.249-0.479C88.347,124.983,88.133,125.094,88.068,125.292z"/>
			<circle fill="#D2B0B0" cx="90.773" cy="126.15" r="0.38"/>
			<circle fill="#D2B0B0" cx="93.116" cy="126.892" r="0.381"/>
			<path fill="#D2B0B0" d="M95.093,127.517c-0.063,0.204,0.048,0.415,0.249,0.479c0.2,0.063,0.415-0.047,0.477-0.248
				c0.064-0.2-0.048-0.413-0.249-0.478C95.372,127.208,95.159,127.317,95.093,127.517z"/>
			<path fill="#D2B0B0" d="M97.436,128.258c-0.065,0.201,0.048,0.413,0.25,0.479c0.2,0.065,0.413-0.047,0.475-0.249
				c0.063-0.2-0.046-0.413-0.247-0.478C97.713,127.95,97.499,128.057,97.436,128.258z"/>
			<circle fill="#D2B0B0" cx="100.139" cy="129.115" r="0.381"/>
			<path fill="#D2B0B0" d="M102.117,129.739c-0.062,0.203,0.048,0.415,0.249,0.478c0.201,0.065,0.415-0.047,0.479-0.245
				c0.064-0.202-0.05-0.416-0.25-0.479C102.396,129.429,102.18,129.54,102.117,129.739z"/>
			<path fill="#D2B0B0" d="M104.458,130.48c-0.062,0.201,0.048,0.416,0.25,0.478c0.199,0.064,0.413-0.046,0.479-0.248
				c0.062-0.201-0.049-0.414-0.25-0.478C104.736,130.17,104.522,130.282,104.458,130.48z"/>
			<circle fill="#D2B0B0" cx="107.165" cy="131.337" r="0.379"/>
			<circle fill="#D2B0B0" cx="109.505" cy="132.078" r="0.38"/>
			<path fill="#D2B0B0" d="M111.484,132.704c-0.063,0.199,0.046,0.415,0.248,0.479c0.2,0.062,0.413-0.047,0.479-0.247
				c0.063-0.205-0.047-0.416-0.25-0.479C111.762,132.395,111.547,132.506,111.484,132.704z"/>
			<circle fill="#D2B0B0" cx="114.189" cy="133.56" r="0.382"/>
			<path fill="#D2B0B0" d="M116.167,134.186c-0.063,0.2,0.047,0.416,0.249,0.479c0.2,0.063,0.416-0.046,0.478-0.248
				c0.062-0.202-0.048-0.414-0.25-0.479C116.445,133.875,116.23,133.984,116.167,134.186z"/>
			<circle fill="#D2B0B0" cx="118.872" cy="135.042" r="0.38"/>
			<path fill="#D2B0B0" d="M120.851,135.669c-0.063,0.2,0.046,0.412,0.247,0.477c0.202,0.065,0.416-0.046,0.479-0.248
				c0.064-0.2-0.047-0.414-0.247-0.479C121.126,135.358,120.914,135.467,120.851,135.669z"/>
			<path fill="#D2B0B0" d="M123.191,136.411c-0.063,0.196,0.047,0.413,0.249,0.477c0.202,0.062,0.413-0.048,0.479-0.249
				c0.064-0.202-0.047-0.414-0.249-0.479C123.469,136.1,123.255,136.209,123.191,136.411z"/>
			<path fill="#D2B0B0" d="M125.532,137.15c-0.063,0.2,0.048,0.414,0.251,0.477c0.2,0.065,0.412-0.045,0.476-0.248
				c0.064-0.199-0.047-0.414-0.249-0.478C125.811,136.839,125.597,136.949,125.532,137.15z"/>
			<path fill="#D2B0B0" d="M127.873,137.891c-0.062,0.2,0.048,0.416,0.251,0.477c0.198,0.065,0.414-0.044,0.478-0.247
				c0.063-0.201-0.047-0.413-0.248-0.479C128.154,137.58,127.938,137.689,127.873,137.891z"/>
			<path fill="#D2B0B0" d="M130.217,138.631c-0.065,0.202,0.048,0.417,0.248,0.479c0.202,0.064,0.414-0.047,0.478-0.247
				c0.063-0.201-0.047-0.413-0.246-0.479C130.493,138.322,130.281,138.431,130.217,138.631z"/>
			<circle fill="#D2B0B0" cx="132.92" cy="139.487" r="0.38"/>
			<circle fill="#D2B0B0" cx="135.264" cy="140.229" r="0.381"/>
		</g>
		<g>
			<path fill="#D2B0B0" d="M137.756,141.019c-0.062,0.201,0.048,0.414,0.251,0.478c0.198,0.064,0.412-0.045,0.476-0.25
				c0.065-0.197-0.046-0.413-0.247-0.477C138.033,140.707,137.819,140.817,137.756,141.019z"/>
			<circle fill="#D2B0B0" cx="140.46" cy="141.875" r="0.381"/>
			<path fill="#D2B0B0" d="M142.44,142.504c-0.065,0.197,0.046,0.412,0.247,0.474c0.201,0.065,0.415-0.046,0.479-0.249
				c0.062-0.198-0.048-0.413-0.247-0.477C142.715,142.188,142.502,142.3,142.44,142.504z"/>
			<path fill="#D2B0B0" d="M144.781,143.242c-0.064,0.2,0.048,0.414,0.247,0.479c0.201,0.062,0.417-0.049,0.477-0.251
				c0.065-0.198-0.046-0.413-0.244-0.478C145.057,142.932,144.845,143.039,144.781,143.242z"/>
			<path fill="#D2B0B0" d="M147.124,143.982c-0.066,0.199,0.047,0.417,0.247,0.477c0.2,0.065,0.413-0.047,0.477-0.247
				c0.065-0.201-0.048-0.415-0.247-0.478C147.399,143.67,147.188,143.782,147.124,143.982z"/>
			<path fill="#D2B0B0" d="M149.465,144.723c-0.063,0.201,0.047,0.415,0.249,0.48c0.2,0.062,0.412-0.048,0.478-0.249
				c0.062-0.201-0.048-0.414-0.248-0.479C149.741,144.412,149.527,144.522,149.465,144.723z"/>
			<path fill="#D2B0B0" d="M151.805,145.466c-0.062,0.197,0.048,0.413,0.249,0.477c0.2,0.063,0.414-0.048,0.479-0.247
				c0.063-0.203-0.048-0.416-0.249-0.479C152.084,145.151,151.868,145.266,151.805,145.466z"/>
			<path fill="#D2B0B0" d="M154.146,146.204c-0.062,0.202,0.05,0.416,0.251,0.479c0.198,0.064,0.414-0.047,0.478-0.249
				c0.062-0.197-0.048-0.414-0.248-0.476C154.423,145.893,154.211,146.005,154.146,146.204z"/>
			<path fill="#D2B0B0" d="M156.49,146.948c-0.064,0.197,0.045,0.413,0.245,0.478c0.201,0.062,0.416-0.049,0.478-0.249
				c0.064-0.201-0.046-0.416-0.245-0.477C156.766,146.634,156.551,146.744,156.49,146.948z"/>
			<path fill="#D2B0B0" d="M158.831,147.688c-0.065,0.2,0.047,0.415,0.246,0.478c0.201,0.064,0.415-0.048,0.479-0.25
				c0.064-0.199-0.048-0.414-0.249-0.477C159.107,147.376,158.894,147.487,158.831,147.688z"/>
			<path fill="#D2B0B0" d="M161.172,148.428c-0.064,0.202,0.046,0.414,0.249,0.477c0.201,0.066,0.414-0.045,0.477-0.248
				c0.064-0.197-0.047-0.413-0.247-0.475C161.449,148.117,161.235,148.226,161.172,148.428z"/>
			<path fill="#D2B0B0" d="M163.512,149.17c-0.062,0.202,0.049,0.413,0.249,0.477c0.201,0.066,0.416-0.046,0.479-0.25
				c0.064-0.197-0.047-0.412-0.248-0.476S163.576,148.968,163.512,149.17z"/>
			<path fill="#D2B0B0" d="M165.854,149.909c-0.062,0.201,0.047,0.416,0.25,0.479c0.199,0.065,0.413-0.047,0.478-0.247
				c0.062-0.202-0.048-0.414-0.249-0.479C166.133,149.6,165.92,149.709,165.854,149.909z"/>
			<path fill="#D2B0B0" d="M168.197,150.649c-0.063,0.2,0.046,0.416,0.245,0.481c0.201,0.06,0.416-0.049,0.479-0.251
				c0.066-0.199-0.046-0.413-0.246-0.479C168.475,150.339,168.26,150.448,168.197,150.649z"/>
			<path fill="#D2B0B0" d="M170.539,151.393c-0.063,0.2,0.047,0.415,0.247,0.476c0.201,0.064,0.414-0.046,0.478-0.249
				c0.064-0.198-0.047-0.41-0.247-0.478C170.816,151.079,170.601,151.19,170.539,151.393z"/>
			<path fill="#D2B0B0" d="M172.88,152.135c-0.064,0.196,0.046,0.413,0.249,0.478c0.199,0.062,0.413-0.047,0.478-0.251
				c0.062-0.2-0.048-0.414-0.25-0.478C173.157,151.822,172.943,151.931,172.88,152.135z"/>
			<path fill="#D2B0B0" d="M175.22,152.874c-0.062,0.2,0.049,0.414,0.249,0.479s0.416-0.049,0.479-0.248
				c0.063-0.202-0.047-0.418-0.249-0.479C175.498,152.563,175.284,152.673,175.22,152.874z"/>
			<path fill="#D2B0B0" d="M177.562,153.614c-0.062,0.201,0.05,0.417,0.249,0.479c0.198,0.063,0.414-0.045,0.478-0.248
				c0.062-0.201-0.047-0.414-0.249-0.478C177.841,153.302,177.625,153.414,177.562,153.614z"/>
			<path fill="#D2B0B0" d="M179.904,154.356c-0.063,0.198,0.047,0.415,0.246,0.479c0.202,0.064,0.416-0.048,0.48-0.251
				c0.062-0.196-0.049-0.414-0.251-0.476C180.183,154.045,179.966,154.154,179.904,154.356z"/>
			<circle fill="#D2B0B0" cx="182.608" cy="155.211" r="0.381"/>
			<path fill="#D2B0B0" d="M198.635,160.284"/>
		</g>
	</g>
	<g>
		<g>
			<path fill="#D2B0B0" d="M183.117,119.041c0.065,0.202-0.044,0.417-0.244,0.479c-0.2,0.066-0.415-0.043-0.48-0.243
				c-0.062-0.201,0.044-0.416,0.246-0.48C182.838,118.731,183.051,118.843,183.117,119.041z"/>
			<circle fill="#D2B0B0" cx="180.419" cy="119.915" r="0.38"/>
			<path fill="#D2B0B0" d="M178.444,120.554c0.063,0.201-0.047,0.412-0.246,0.478c-0.2,0.065-0.414-0.043-0.479-0.243
				c-0.066-0.202,0.045-0.417,0.244-0.479C178.165,120.244,178.378,120.354,178.444,120.554z"/>
			<path fill="#D2B0B0" d="M176.106,121.308c0.065,0.204-0.045,0.416-0.244,0.479c-0.202,0.065-0.415-0.044-0.48-0.244
				c-0.066-0.199,0.044-0.416,0.247-0.481C175.828,120.999,176.042,121.108,176.106,121.308z"/>
			<path fill="#D2B0B0" d="M173.771,122.064c0.065,0.202-0.046,0.416-0.245,0.481c-0.201,0.062-0.414-0.044-0.48-0.247
				c-0.064-0.2,0.048-0.415,0.245-0.477C173.49,121.756,173.705,121.867,173.771,122.064z"/>
			<circle fill="#D2B0B0" cx="171.071" cy="122.938" r="0.381"/>
			<circle fill="#D2B0B0" cx="168.734" cy="123.694" r="0.382"/>
			<circle fill="#D2B0B0" cx="166.397" cy="124.45" r="0.381"/>
			<path fill="#D2B0B0" d="M164.423,125.088c0.065,0.2-0.044,0.415-0.246,0.481c-0.199,0.064-0.413-0.044-0.479-0.245
				c-0.064-0.202,0.046-0.416,0.247-0.482C164.144,124.779,164.358,124.889,164.423,125.088z"/>
			<path fill="#D2B0B0" d="M162.087,125.844c0.065,0.203-0.044,0.414-0.246,0.479c-0.199,0.065-0.413-0.044-0.479-0.245
				c-0.064-0.2,0.045-0.414,0.246-0.479C161.806,125.536,162.023,125.644,162.087,125.844z"/>
			<circle fill="#D2B0B0" cx="159.389" cy="126.718" r="0.381"/>
			<path fill="#D2B0B0" d="M157.412,127.357c0.065,0.201-0.044,0.412-0.244,0.478c-0.199,0.066-0.414-0.046-0.479-0.242
				c-0.066-0.204,0.046-0.417,0.246-0.482C157.134,127.049,157.348,127.157,157.412,127.357z"/>
			<path fill="#D2B0B0" d="M155.077,128.113c0.063,0.201-0.047,0.414-0.245,0.479c-0.202,0.065-0.416-0.044-0.481-0.246
				c-0.064-0.197,0.046-0.412,0.244-0.479C154.799,127.805,155.011,127.914,155.077,128.113z"/>
			<circle fill="#D2B0B0" cx="152.377" cy="128.985" r="0.382"/>
			<circle fill="#D2B0B0" cx="150.04" cy="129.742" r="0.381"/>
			<path fill="#D2B0B0" d="M148.066,130.381c0.065,0.2-0.044,0.415-0.246,0.479c-0.199,0.064-0.414-0.044-0.479-0.244
				c-0.064-0.202,0.046-0.417,0.246-0.48C147.786,130.07,148.002,130.181,148.066,130.381z"/>
			<circle fill="#D2B0B0" cx="145.366" cy="131.254" r="0.381"/>
			<circle fill="#D2B0B0" cx="143.03" cy="132.01" r="0.379"/>
			<circle fill="#D2B0B0" cx="140.693" cy="132.765" r="0.382"/>
			<circle fill="#D2B0B0" cx="138.357" cy="133.521" r="0.381"/>
			<circle fill="#D2B0B0" cx="136.021" cy="134.277" r="0.381"/>
			<path fill="#D2B0B0" d="M134.046,134.917c0.066,0.201-0.046,0.413-0.243,0.479c-0.201,0.066-0.415-0.045-0.481-0.245
				s0.046-0.414,0.246-0.479C133.765,134.606,133.98,134.715,134.046,134.917z"/>
			<path fill="#D2B0B0" d="M131.71,135.673c0.065,0.2-0.046,0.413-0.246,0.479c-0.201,0.066-0.413-0.044-0.479-0.245
				c-0.065-0.2,0.047-0.414,0.245-0.479C131.43,135.363,131.645,135.473,131.71,135.673z"/>
			<path fill="#D2B0B0" d="M129.373,136.43c0.064,0.199-0.045,0.414-0.246,0.479c-0.2,0.062-0.413-0.045-0.479-0.246
				c-0.066-0.201,0.044-0.414,0.245-0.48C129.094,136.119,129.309,136.23,129.373,136.43z"/>
			<path fill="#D2B0B0" d="M124.699,137.941c0.064,0.198-0.044,0.415-0.244,0.479c-0.2,0.063-0.416-0.046-0.481-0.246
				c-0.062-0.199,0.045-0.414,0.246-0.48C124.418,137.63,124.633,137.74,124.699,137.941z"/>
			<path fill="#D2B0B0" d="M122.363,138.693c0.064,0.2-0.047,0.419-0.246,0.48c-0.2,0.067-0.415-0.044-0.479-0.244
				c-0.064-0.199,0.045-0.414,0.245-0.479C122.081,138.385,122.297,138.494,122.363,138.693z"/>
			<path fill="#D2B0B0" d="M120.024,139.451c0.067,0.198-0.044,0.416-0.244,0.48c-0.201,0.064-0.415-0.046-0.479-0.245
				c-0.065-0.199,0.044-0.414,0.244-0.478C119.745,139.142,119.961,139.252,120.024,139.451z"/>
			<circle fill="#D2B0B0" cx="117.325" cy="140.325" r="0.38"/>
		</g>
		<g>
			<path fill="#D2B0B0" d="M114.837,141.13c0.064,0.203-0.044,0.414-0.245,0.479c-0.2,0.067-0.413-0.042-0.478-0.244
				c-0.067-0.198,0.044-0.413,0.244-0.479C114.558,140.819,114.774,140.931,114.837,141.13z"/>
			<path fill="#D2B0B0" d="M112.501,141.887c0.065,0.201-0.045,0.413-0.246,0.479c-0.199,0.065-0.415-0.043-0.482-0.244
				c-0.063-0.202,0.048-0.413,0.248-0.48C112.222,141.578,112.437,141.686,112.501,141.887z"/>
			<path fill="#D2B0B0" d="M110.164,142.643c0.063,0.201-0.046,0.414-0.246,0.479c-0.199,0.066-0.415-0.045-0.48-0.244
				c-0.062-0.201,0.047-0.414,0.247-0.481C109.885,142.332,110.099,142.443,110.164,142.643z"/>
			<path fill="#D2B0B0" d="M107.828,143.398c0.064,0.201-0.046,0.416-0.246,0.48c-0.201,0.064-0.415-0.048-0.479-0.246
				c-0.064-0.201,0.045-0.416,0.246-0.481C107.548,143.09,107.763,143.199,107.828,143.398z"/>
			<path fill="#D2B0B0" d="M105.49,144.155c0.067,0.199-0.046,0.414-0.243,0.478c-0.2,0.066-0.417-0.044-0.481-0.244
				c-0.065-0.2,0.045-0.414,0.248-0.479C105.211,143.844,105.425,143.955,105.49,144.155z"/>
			<circle fill="#D2B0B0" cx="102.792" cy="145.027" r="0.381"/>
			<path fill="#D2B0B0" d="M100.816,145.669c0.066,0.195-0.043,0.412-0.245,0.476c-0.2,0.065-0.413-0.044-0.479-0.244
				c-0.064-0.198,0.046-0.413,0.246-0.479C100.539,145.355,100.751,145.466,100.816,145.669z"/>
			<path fill="#D2B0B0" d="M98.481,146.423c0.065,0.2-0.044,0.414-0.246,0.478c-0.2,0.064-0.415-0.044-0.479-0.244
				s0.046-0.415,0.244-0.479C98.201,146.11,98.415,146.222,98.481,146.423z"/>
			<path fill="#D2B0B0" d="M96.143,147.179c0.065,0.2-0.044,0.416-0.243,0.479c-0.2,0.064-0.416-0.046-0.48-0.246
				c-0.063-0.198,0.045-0.414,0.245-0.479C95.863,146.867,96.08,146.978,96.143,147.179z"/>
			<path fill="#D2B0B0" d="M93.805,147.935c0.068,0.197-0.041,0.416-0.243,0.48c-0.2,0.062-0.416-0.047-0.478-0.248
				c-0.067-0.199,0.044-0.413,0.243-0.479C93.527,147.624,93.741,147.734,93.805,147.935z"/>
			<path fill="#D2B0B0" d="M91.471,148.69c0.065,0.198-0.045,0.414-0.247,0.479c-0.199,0.065-0.413-0.047-0.478-0.248
				c-0.065-0.196,0.044-0.412,0.244-0.476C91.192,148.38,91.406,148.489,91.471,148.69z"/>
			<path fill="#D2B0B0" d="M89.133,149.447c0.065,0.201-0.046,0.414-0.244,0.476c-0.2,0.067-0.416-0.041-0.48-0.243
				c-0.064-0.198,0.044-0.412,0.245-0.478C88.854,149.138,89.069,149.243,89.133,149.447z"/>
			<path fill="#D2B0B0" d="M86.797,150.204c0.064,0.196-0.045,0.413-0.246,0.479c-0.199,0.066-0.415-0.045-0.479-0.245
				c-0.066-0.2,0.045-0.416,0.243-0.479C86.517,149.894,86.73,150.001,86.797,150.204z"/>
			<circle fill="#D2B0B0" cx="84.097" cy="151.075" r="0.381"/>
			<circle fill="#D2B0B0" cx="81.761" cy="151.832" r="0.38"/>
			<circle fill="#D2B0B0" cx="79.424" cy="152.587" r="0.381"/>
			<path fill="#D2B0B0" d="M77.45,153.229c0.064,0.196-0.045,0.414-0.244,0.478c-0.202,0.064-0.417-0.046-0.481-0.246
				c-0.065-0.2,0.043-0.414,0.245-0.479C77.17,152.916,77.385,153.026,77.45,153.229z"/>
			<path fill="#D2B0B0" d="M75.113,153.981c0.064,0.199-0.045,0.417-0.244,0.478c-0.202,0.067-0.415-0.042-0.479-0.243
				c-0.066-0.2,0.044-0.415,0.244-0.479C74.833,153.672,75.048,153.781,75.113,153.981z"/>
			<path fill="#D2B0B0" d="M72.777,154.737c0.063,0.198-0.044,0.416-0.245,0.481c-0.2,0.064-0.416-0.046-0.48-0.245
				c-0.065-0.199,0.046-0.414,0.245-0.479C72.498,154.429,72.713,154.538,72.777,154.737z"/>
			<path fill="#D2B0B0" d="M70.44,155.493c0.065,0.199-0.045,0.416-0.243,0.479c-0.202,0.065-0.418-0.043-0.482-0.247
				c-0.067-0.196,0.045-0.41,0.246-0.478C70.161,155.185,70.376,155.291,70.44,155.493z"/>
			<path fill="#D2B0B0" d="M54.083,160.784"/>
		</g>
	</g>
	<g>
		<path fill="#D2B0B0" d="M122.665,172.297c0,0-0.035,2.817-2.305,3.331c-2.27,0.515-2.432-2.009-2.432-2.009
			s3.824-1.028,3.868-3.679c0.013-0.872-0.931-1.608-1.735-1.608c-0.804,0-2.186,0.215-3.031,1.372
			c-0.845,1.163-0.761,3.471-0.664,3.915c0.102,0.441,0.358,2.094,2.263,2.58c0.347,0.134,2.119,0.081,2.965-0.554
			c0.833-0.624,1.413-1.617,1.528-2.94L122.665,172.297z M118.28,169.813c1.143-1.774,2.385-0.854,2.419,0.123
			c-0.1,2.536-2.875,3.241-2.875,3.241C117.742,170.823,118.232,169.921,118.28,169.813z"/>
		<path fill="#D2B0B0" d="M127.421,173.462c0.013,0.697-0.005,1.559-0.457,2.151c-0.455,0.593-0.931-0.267-0.939-0.896
			c-0.011-0.631,0-4.225,0-4.54c0-0.312-0.073-1.906-1.011-1.221c-0.309,0.22-1.087,1.12-1.15,2.2c0,0.523-0.072,2.86-0.072,2.86
			s0.041,1.245-0.606,1.676c0,0-0.72,0.349-0.756-0.837c-0.034-1.188,0-4.923,0-4.923s0.036-1.151,0.491-1.433
			c0.452-0.278,0.943-0.138,0.943,0.316s0,1.082,0,1.082s0.906-1.822,2.162-1.542c0.385,0.144,1.084,0.425,1.292,1.787
			C127.317,170.146,127.364,170.253,127.421,173.462z"/>
	</g>
	<g opacity="0.4">
		
			<line fill="none" stroke="#D2B0B0" stroke-width="0.6243" stroke-miterlimit="10" x1="57.61" y1="41.63" x2="60.424" y2="44.354"/>
		
			<line fill="none" stroke="#D2B0B0" stroke-width="0.6243" stroke-miterlimit="10" x1="54.725" y1="44.05" x2="57.635" y2="46.672"/>
		
			<line fill="none" stroke="#D2B0B0" stroke-width="0.6243" stroke-miterlimit="10" x1="51.928" y1="46.57" x2="54.926" y2="49.09"/>
		
			<line fill="none" stroke="#D2B0B0" stroke-width="0.6243" stroke-miterlimit="10" x1="49.221" y1="49.185" x2="52.306" y2="51.596"/>
		
			<line fill="none" stroke="#D2B0B0" stroke-width="0.6243" stroke-miterlimit="10" x1="46.605" y1="51.891" x2="49.773" y2="54.195"/>
		
			<line fill="none" stroke="#D2B0B0" stroke-width="0.6243" stroke-miterlimit="10" x1="44.087" y1="54.689" x2="47.331" y2="56.881"/>
		
			<line fill="none" stroke="#D2B0B0" stroke-width="0.6243" stroke-miterlimit="10" x1="41.667" y1="57.572" x2="44.989" y2="59.649"/>
		
			<line fill="none" stroke="#D2B0B0" stroke-width="0.6243" stroke-miterlimit="10" x1="39.349" y1="60.539" x2="42.744" y2="62.496"/>
		
			<line fill="none" stroke="#D2B0B0" stroke-width="0.6243" stroke-miterlimit="10" x1="37.136" y1="63.584" x2="40.597" y2="65.424"/>
		
			<line fill="none" stroke="#D2B0B0" stroke-width="0.6243" stroke-miterlimit="10" x1="35.033" y1="66.706" x2="38.552" y2="68.423"/>
		
			<line fill="none" stroke="#D2B0B0" stroke-width="0.6243" stroke-miterlimit="10" x1="33.038" y1="69.897" x2="36.615" y2="71.49"/>
		
			<line fill="none" stroke="#D2B0B0" stroke-width="0.6243" stroke-miterlimit="10" x1="31.156" y1="73.156" x2="34.789" y2="74.624"/>
		
			<line fill="none" stroke="#D2B0B0" stroke-width="0.6243" stroke-miterlimit="10" x1="29.388" y1="76.478" x2="33.07" y2="77.822"/>
		
			<line fill="none" stroke="#D2B0B0" stroke-width="0.6243" stroke-miterlimit="10" x1="27.739" y1="79.862" x2="31.464" y2="81.073"/>
		
			<line fill="none" stroke="#D2B0B0" stroke-width="0.6243" stroke-miterlimit="10" x1="26.207" y1="83.301" x2="29.973" y2="84.381"/>
		
			<line fill="none" stroke="#D2B0B0" stroke-width="0.6243" stroke-miterlimit="10" x1="24.798" y1="86.791" x2="28.598" y2="87.74"/>
		
			<line fill="none" stroke="#D2B0B0" stroke-width="0.6243" stroke-miterlimit="10" x1="23.509" y1="90.328" x2="27.34" y2="91.144"/>
		
			<line fill="none" stroke="#D2B0B0" stroke-width="0.6243" stroke-miterlimit="10" x1="22.345" y1="93.907" x2="26.206" y2="94.588"/>
		
			<line fill="none" stroke="#D2B0B0" stroke-width="0.6243" stroke-miterlimit="10" x1="21.307" y1="97.526" x2="25.188" y2="98.074"/>
		
			<line fill="none" stroke="#D2B0B0" stroke-width="0.6243" stroke-miterlimit="10" x1="20.396" y1="101.178" x2="24.296" y2="101.59"/>
		
			<line fill="none" stroke="#D2B0B0" stroke-width="0.6243" stroke-miterlimit="10" x1="19.613" y1="104.858" x2="23.525" y2="105.134"/>
		
			<line fill="none" stroke="#D2B0B0" stroke-width="0.6243" stroke-miterlimit="10" x1="18.96" y1="108.567" x2="22.876" y2="108.707"/>
		
			<line fill="none" stroke="#D2B0B0" stroke-width="0.6243" stroke-miterlimit="10" x1="18.437" y1="112.293" x2="22.354" y2="112.296"/>
		
			<line fill="none" stroke="#D2B0B0" stroke-width="0.6243" stroke-miterlimit="10" x1="18.045" y1="116.038" x2="21.958" y2="115.903"/>
		
			<line fill="none" stroke="#D2B0B0" stroke-width="0.6243" stroke-miterlimit="10" x1="17.782" y1="119.791" x2="21.689" y2="119.521"/>
		
			<line fill="none" stroke="#D2B0B0" stroke-width="0.6243" stroke-miterlimit="10" x1="17.648" y1="123.551" x2="21.546" y2="123.146"/>
		
			<line fill="none" stroke="#D2B0B0" stroke-width="0.6243" stroke-miterlimit="10" x1="17.648" y1="127.315" x2="21.532" y2="126.773"/>
		
			<line fill="none" stroke="#D2B0B0" stroke-width="0.6243" stroke-miterlimit="10" x1="17.782" y1="131.078" x2="21.641" y2="130.401"/>
		
			<line fill="none" stroke="#D2B0B0" stroke-width="0.6243" stroke-miterlimit="10" x1="18.042" y1="134.831" x2="21.877" y2="134.022"/>
		
			<line fill="none" stroke="#D2B0B0" stroke-width="0.6243" stroke-miterlimit="10" x1="18.435" y1="138.575" x2="22.238" y2="137.633"/>
		
			<line fill="none" stroke="#D2B0B0" stroke-width="0.6243" stroke-miterlimit="10" x1="18.959" y1="142.3" x2="22.727" y2="141.229"/>
		
			<line fill="none" stroke="#D2B0B0" stroke-width="0.6243" stroke-miterlimit="10" x1="19.612" y1="146.011" x2="23.342" y2="144.805"/>
		
			<line fill="none" stroke="#D2B0B0" stroke-width="0.6243" stroke-miterlimit="10" x1="20.394" y1="149.689" x2="24.081" y2="148.355"/>
		
			<line fill="none" stroke="#D2B0B0" stroke-width="0.6243" stroke-miterlimit="10" x1="21.305" y1="153.343" x2="24.942" y2="151.88"/>
		
			<line fill="none" stroke="#D2B0B0" stroke-width="0.6243" stroke-miterlimit="10" x1="22.341" y1="156.962" x2="25.924" y2="155.372"/>
		
			<line fill="none" stroke="#D2B0B0" stroke-width="0.6243" stroke-miterlimit="10" x1="23.506" y1="160.539" x2="27.03" y2="158.828"/>
		
			<line fill="none" stroke="#D2B0B0" stroke-width="0.6243" stroke-miterlimit="10" x1="24.791" y1="164.078" x2="28.255" y2="162.242"/>
		
			<line fill="none" stroke="#D2B0B0" stroke-width="0.6243" stroke-miterlimit="10" x1="26.202" y1="167.567" x2="29.6" y2="165.612"/>
		
			<line fill="none" stroke="#D2B0B0" stroke-width="0.6243" stroke-miterlimit="10" x1="27.732" y1="171.007" x2="31.061" y2="168.934"/>
		
			<line fill="none" stroke="#D2B0B0" stroke-width="0.6243" stroke-miterlimit="10" x1="29.379" y1="174.39" x2="32.637" y2="172.201"/>
		
			<line fill="none" stroke="#D2B0B0" stroke-width="0.6243" stroke-miterlimit="10" x1="31.147" y1="177.715" x2="34.324" y2="175.413"/>
		
			<line fill="none" stroke="#D2B0B0" stroke-width="0.6243" stroke-miterlimit="10" x1="33.03" y1="180.973" x2="36.125" y2="178.563"/>
		
			<line fill="none" stroke="#D2B0B0" stroke-width="0.6243" stroke-miterlimit="10" x1="35.025" y1="184.167" x2="38.034" y2="181.649"/>
		
			<line fill="none" stroke="#D2B0B0" stroke-width="0.6243" stroke-miterlimit="10" x1="37.13" y1="187.288" x2="40.046" y2="184.667"/>
		
			<line fill="none" stroke="#D2B0B0" stroke-width="0.6243" stroke-miterlimit="10" x1="39.341" y1="190.334" x2="42.167" y2="187.61"/>
		
			<line fill="none" stroke="#D2B0B0" stroke-width="0.6243" stroke-miterlimit="10" x1="41.658" y1="193.299" x2="44.388" y2="190.48"/>
		
			<line fill="none" stroke="#D2B0B0" stroke-width="0.6243" stroke-miterlimit="10" x1="44.079" y1="196.184" x2="46.705" y2="193.271"/>
		
			<line fill="none" stroke="#D2B0B0" stroke-width="0.6243" stroke-miterlimit="10" x1="46.597" y1="198.981" x2="49.122" y2="195.98"/>
		
			<line fill="none" stroke="#D2B0B0" stroke-width="0.6243" stroke-miterlimit="10" x1="49.21" y1="201.688" x2="51.629" y2="198.601"/>
		
			<line fill="none" stroke="#D2B0B0" stroke-width="0.6243" stroke-miterlimit="10" x1="51.919" y1="204.303" x2="54.228" y2="201.134"/>
		
			<line fill="none" stroke="#D2B0B0" stroke-width="0.6243" stroke-miterlimit="10" x1="54.716" y1="206.822" x2="56.913" y2="203.573"/>
		
			<line fill="none" stroke="#D2B0B0" stroke-width="0.6243" stroke-miterlimit="10" x1="57.6" y1="209.243" x2="59.682" y2="205.918"/>
		
			<line fill="none" stroke="#D2B0B0" stroke-width="0.6243" stroke-miterlimit="10" x1="60.564" y1="211.559" x2="62.532" y2="208.164"/>
		
			<line fill="none" stroke="#D2B0B0" stroke-width="0.6243" stroke-miterlimit="10" x1="63.61" y1="213.771" x2="65.456" y2="210.311"/>
		
			<line fill="none" stroke="#D2B0B0" stroke-width="0.6243" stroke-miterlimit="10" x1="66.73" y1="215.877" x2="68.454" y2="212.354"/>
		
			<line fill="none" stroke="#D2B0B0" stroke-width="0.6243" stroke-miterlimit="10" x1="69.924" y1="217.873" x2="71.523" y2="214.291"/>
		
			<line fill="none" stroke="#D2B0B0" stroke-width="0.6243" stroke-miterlimit="10" x1="73.182" y1="219.756" x2="74.657" y2="216.118"/>
		
			<line fill="none" stroke="#D2B0B0" stroke-width="0.6243" stroke-miterlimit="10" x1="76.506" y1="221.522" x2="77.851" y2="217.838"/>
		
			<line fill="none" stroke="#D2B0B0" stroke-width="0.6243" stroke-miterlimit="10" x1="79.89" y1="223.172" x2="81.107" y2="219.442"/>
		
			<line fill="none" stroke="#D2B0B0" stroke-width="0.6243" stroke-miterlimit="10" x1="83.329" y1="224.704" x2="84.412" y2="220.933"/>
		
			<line fill="none" stroke="#D2B0B0" stroke-width="0.6243" stroke-miterlimit="10" x1="86.818" y1="226.114" x2="87.77" y2="222.307"/>
		
			<line fill="none" stroke="#D2B0B0" stroke-width="0.6243" stroke-miterlimit="10" x1="90.354" y1="227.403" x2="91.175" y2="223.564"/>
		
			<line fill="none" stroke="#D2B0B0" stroke-width="0.6243" stroke-miterlimit="10" x1="93.937" y1="228.565" x2="94.621" y2="224.701"/>
		
			<line fill="none" stroke="#D2B0B0" stroke-width="0.6243" stroke-miterlimit="10" x1="97.553" y1="229.603" x2="98.105" y2="225.719"/>
		
			<line fill="none" stroke="#D2B0B0" stroke-width="0.6243" stroke-miterlimit="10" x1="101.208" y1="230.516" x2="101.62" y2="226.61"/>
		
			<line fill="none" stroke="#D2B0B0" stroke-width="0.6243" stroke-miterlimit="10" x1="104.887" y1="231.297" x2="105.165" y2="227.382"/>
		
			<line fill="none" stroke="#D2B0B0" stroke-width="0.6243" stroke-miterlimit="10" x1="108.594" y1="231.95" x2="108.737" y2="228.029"/>
		
			<line fill="none" stroke="#D2B0B0" stroke-width="0.6243" stroke-miterlimit="10" x1="112.322" y1="232.477" x2="112.324" y2="228.55"/>
		
			<line fill="none" stroke="#D2B0B0" stroke-width="0.6243" stroke-miterlimit="10" x1="116.067" y1="232.869" x2="115.932" y2="228.948"/>
		
			<line fill="none" stroke="#D2B0B0" stroke-width="0.6243" stroke-miterlimit="10" x1="119.823" y1="233.133" x2="119.55" y2="229.217"/>
		
			<line fill="none" stroke="#D2B0B0" stroke-width="0.6243" stroke-miterlimit="10" x1="123.584" y1="233.265" x2="123.176" y2="229.36"/>
		
			<line fill="none" stroke="#D2B0B0" stroke-width="0.6243" stroke-miterlimit="10" x1="127.35" y1="233.265" x2="126.806" y2="229.376"/>
		
			<line fill="none" stroke="#D2B0B0" stroke-width="0.6243" stroke-miterlimit="10" x1="131.109" y1="233.133" x2="130.432" y2="229.269"/>
		
			<line fill="none" stroke="#D2B0B0" stroke-width="0.6243" stroke-miterlimit="10" x1="134.864" y1="232.869" x2="134.051" y2="229.033"/>
		
			<line fill="none" stroke="#D2B0B0" stroke-width="0.6243" stroke-miterlimit="10" x1="138.607" y1="232.477" x2="137.664" y2="228.668"/>
		
			<line fill="none" stroke="#D2B0B0" stroke-width="0.6243" stroke-miterlimit="10" x1="142.333" y1="231.951" x2="141.258" y2="228.18"/>
		
			<line fill="none" stroke="#D2B0B0" stroke-width="0.6243" stroke-miterlimit="10" x1="146.044" y1="231.298" x2="144.834" y2="227.566"/>
		
			<line fill="none" stroke="#D2B0B0" stroke-width="0.6243" stroke-miterlimit="10" x1="149.725" y1="230.518" x2="148.384" y2="226.828"/>
		
			<line fill="none" stroke="#D2B0B0" stroke-width="0.6243" stroke-miterlimit="10" x1="153.378" y1="229.605" x2="151.907" y2="225.968"/>
		
			<line fill="none" stroke="#D2B0B0" stroke-width="0.6243" stroke-miterlimit="10" x1="156.996" y1="228.569" x2="155.401" y2="224.985"/>
		
			<line fill="none" stroke="#D2B0B0" stroke-width="0.6243" stroke-miterlimit="10" x1="160.576" y1="227.406" x2="158.859" y2="223.88"/>
		
			<line fill="none" stroke="#D2B0B0" stroke-width="0.6243" stroke-miterlimit="10" x1="164.114" y1="226.118" x2="162.273" y2="222.654"/>
		
			<line fill="none" stroke="#D2B0B0" stroke-width="0.6243" stroke-miterlimit="10" x1="167.603" y1="224.709" x2="165.643" y2="221.312"/>
		
			<line fill="none" stroke="#D2B0B0" stroke-width="0.6243" stroke-miterlimit="10" x1="171.041" y1="223.179" x2="168.967" y2="219.851"/>
		
			<line fill="none" stroke="#D2B0B0" stroke-width="0.6243" stroke-miterlimit="10" x1="174.426" y1="221.529" x2="172.235" y2="218.277"/>
		
			<line fill="none" stroke="#D2B0B0" stroke-width="0.6243" stroke-miterlimit="10" x1="177.751" y1="219.763" x2="175.445" y2="216.588"/>
		
			<line fill="none" stroke="#D2B0B0" stroke-width="0.6243" stroke-miterlimit="10" x1="181.01" y1="217.882" x2="178.598" y2="214.79"/>
		
			<line fill="none" stroke="#D2B0B0" stroke-width="0.6243" stroke-miterlimit="10" x1="184.202" y1="215.886" x2="181.681" y2="212.879"/>
		
			<line fill="none" stroke="#D2B0B0" stroke-width="0.6243" stroke-miterlimit="10" x1="187.324" y1="213.78" x2="184.702" y2="210.866"/>
		
			<line fill="none" stroke="#D2B0B0" stroke-width="0.6243" stroke-miterlimit="10" x1="190.367" y1="211.567" x2="187.646" y2="208.743"/>
		
			<line fill="none" stroke="#D2B0B0" stroke-width="0.6243" stroke-miterlimit="10" x1="193.335" y1="209.253" x2="190.515" y2="206.524"/>
		
			<line fill="none" stroke="#D2B0B0" stroke-width="0.6243" stroke-miterlimit="10" x1="196.219" y1="206.833" x2="193.306" y2="204.205"/>
		
			<line fill="none" stroke="#D2B0B0" stroke-width="0.6243" stroke-miterlimit="10" x1="199.016" y1="204.313" x2="196.012" y2="201.791"/>
		
			<line fill="none" stroke="#D2B0B0" stroke-width="0.6243" stroke-miterlimit="10" x1="201.724" y1="201.701" x2="198.633" y2="199.282"/>
		
			<line fill="none" stroke="#D2B0B0" stroke-width="0.6243" stroke-miterlimit="10" x1="204.339" y1="198.992" x2="201.166" y2="196.683"/>
		
			<line fill="none" stroke="#D2B0B0" stroke-width="0.6243" stroke-miterlimit="10" x1="206.857" y1="196.194" x2="203.607" y2="193.998"/>
		
			<line fill="none" stroke="#D2B0B0" stroke-width="0.6243" stroke-miterlimit="10" x1="209.279" y1="193.314" x2="205.952" y2="191.229"/>
		
			<line fill="none" stroke="#D2B0B0" stroke-width="0.6243" stroke-miterlimit="10" x1="211.594" y1="190.35" x2="208.197" y2="188.382"/>
		
			<line fill="none" stroke="#D2B0B0" stroke-width="0.6243" stroke-miterlimit="10" x1="213.808" y1="187.302" x2="210.346" y2="185.453"/>
		
			<line fill="none" stroke="#D2B0B0" stroke-width="0.6243" stroke-miterlimit="10" x1="215.914" y1="184.183" x2="212.388" y2="182.456"/>
		
			<line fill="none" stroke="#D2B0B0" stroke-width="0.6243" stroke-miterlimit="10" x1="217.91" y1="180.988" x2="214.324" y2="179.386"/>
		
			<line fill="none" stroke="#D2B0B0" stroke-width="0.6243" stroke-miterlimit="10" x1="219.791" y1="177.727" x2="216.153" y2="176.252"/>
		
			<line fill="none" stroke="#D2B0B0" stroke-width="0.6243" stroke-miterlimit="10" x1="221.559" y1="174.404" x2="217.873" y2="173.057"/>
		
			<line fill="none" stroke="#D2B0B0" stroke-width="0.6243" stroke-miterlimit="10" x1="223.208" y1="171.021" x2="219.479" y2="169.805"/>
		
			<line fill="none" stroke="#D2B0B0" stroke-width="0.6243" stroke-miterlimit="10" x1="224.74" y1="167.584" x2="220.971" y2="166.496"/>
		
			<line fill="none" stroke="#D2B0B0" stroke-width="0.6243" stroke-miterlimit="10" x1="226.15" y1="164.09" x2="222.346" y2="163.138"/>
		
			<line fill="none" stroke="#D2B0B0" stroke-width="0.6243" stroke-miterlimit="10" x1="227.438" y1="160.557" x2="223.604" y2="159.731"/>
		
			<line fill="none" stroke="#D2B0B0" stroke-width="0.6243" stroke-miterlimit="10" x1="228.602" y1="156.977" x2="224.74" y2="156.288"/>
		
			<line fill="none" stroke="#D2B0B0" stroke-width="0.6243" stroke-miterlimit="10" x1="229.639" y1="153.358" x2="225.756" y2="152.804"/>
		
			<line fill="none" stroke="#D2B0B0" stroke-width="0.6243" stroke-miterlimit="10" x1="230.553" y1="149.706" x2="226.649" y2="149.287"/>
		
			<line fill="none" stroke="#D2B0B0" stroke-width="0.6243" stroke-miterlimit="10" x1="231.334" y1="146.024" x2="227.42" y2="145.743"/>
		
			<line fill="none" stroke="#D2B0B0" stroke-width="0.6243" stroke-miterlimit="10" x1="231.988" y1="142.318" x2="228.065" y2="142.173"/>
		
			<line fill="none" stroke="#D2B0B0" stroke-width="0.6243" stroke-miterlimit="10" x1="232.513" y1="138.591" x2="228.587" y2="138.582"/>
		
			<line fill="none" stroke="#D2B0B0" stroke-width="0.6243" stroke-miterlimit="10" x1="232.905" y1="134.847" x2="228.983" y2="134.975"/>
		
			<line fill="none" stroke="#D2B0B0" stroke-width="0.6243" stroke-miterlimit="10" x1="233.167" y1="131.09" x2="229.252" y2="131.357"/>
		
			<line fill="none" stroke="#D2B0B0" stroke-width="0.6243" stroke-miterlimit="10" x1="233.299" y1="127.328" x2="229.395" y2="127.732"/>
		
			<line fill="none" stroke="#D2B0B0" stroke-width="0.6243" stroke-miterlimit="10" x1="233.301" y1="123.563" x2="229.413" y2="124.104"/>
		
			<line fill="none" stroke="#D2B0B0" stroke-width="0.6243" stroke-miterlimit="10" x1="233.172" y1="119.802" x2="229.302" y2="120.478"/>
		
			<line fill="none" stroke="#D2B0B0" stroke-width="0.6243" stroke-miterlimit="10" x1="232.908" y1="116.046" x2="229.065" y2="116.86"/>
		
			<line fill="none" stroke="#D2B0B0" stroke-width="0.6243" stroke-miterlimit="10" x1="232.515" y1="112.303" x2="228.704" y2="113.247"/>
		
			<line fill="none" stroke="#D2B0B0" stroke-width="0.6243" stroke-miterlimit="10" x1="231.99" y1="108.577" x2="228.217" y2="109.651"/>
		
			<line fill="none" stroke="#D2B0B0" stroke-width="0.6243" stroke-miterlimit="10" x1="231.339" y1="104.867" x2="227.604" y2="106.075"/>
		
			<line fill="none" stroke="#D2B0B0" stroke-width="0.6243" stroke-miterlimit="10" x1="230.555" y1="101.186" x2="226.864" y2="102.521"/>
		
			<line fill="none" stroke="#D2B0B0" stroke-width="0.6243" stroke-miterlimit="10" x1="229.645" y1="97.533" x2="226.004" y2="98.998"/>
		
			<line fill="none" stroke="#D2B0B0" stroke-width="0.6243" stroke-miterlimit="10" x1="228.607" y1="93.914" x2="225.02" y2="95.505"/>
		
			<line fill="none" stroke="#D2B0B0" stroke-width="0.6243" stroke-miterlimit="10" x1="227.446" y1="90.334" x2="223.914" y2="92.047"/>
		
			<line fill="none" stroke="#D2B0B0" stroke-width="0.6243" stroke-miterlimit="10" x1="226.156" y1="86.797" x2="222.688" y2="88.635"/>
		
			<line fill="none" stroke="#D2B0B0" stroke-width="0.6243" stroke-miterlimit="10" x1="224.748" y1="83.307" x2="221.345" y2="85.264"/>
		
			<line fill="none" stroke="#D2B0B0" stroke-width="0.6243" stroke-miterlimit="10" x1="223.217" y1="79.87" x2="219.885" y2="81.942"/>
		
			<line fill="none" stroke="#D2B0B0" stroke-width="0.6243" stroke-miterlimit="10" x1="221.567" y1="76.484" x2="218.31" y2="78.675"/>
		
			<line fill="none" stroke="#D2B0B0" stroke-width="0.6243" stroke-miterlimit="10" x1="219.8" y1="73.162" x2="216.618" y2="75.463"/>
		
			<line fill="none" stroke="#D2B0B0" stroke-width="0.6243" stroke-miterlimit="10" x1="217.918" y1="69.902" x2="214.821" y2="72.313"/>
		
			<line fill="none" stroke="#D2B0B0" stroke-width="0.6243" stroke-miterlimit="10" x1="215.925" y1="66.708" x2="212.913" y2="69.228"/>
		
			<line fill="none" stroke="#D2B0B0" stroke-width="0.6243" stroke-miterlimit="10" x1="213.817" y1="63.587" x2="210.896" y2="66.211"/>
		
			<line fill="none" stroke="#D2B0B0" stroke-width="0.6243" stroke-miterlimit="10" x1="211.605" y1="60.541" x2="208.776" y2="63.266"/>
		
			<line fill="none" stroke="#D2B0B0" stroke-width="0.6243" stroke-miterlimit="10" x1="209.289" y1="57.572" x2="206.557" y2="60.396"/>
		
			<line fill="none" stroke="#D2B0B0" stroke-width="0.6243" stroke-miterlimit="10" x1="206.868" y1="54.689" x2="204.238" y2="57.606"/>
		
			<line fill="none" stroke="#D2B0B0" stroke-width="0.6243" stroke-miterlimit="10" x1="204.349" y1="51.891" x2="201.82" y2="54.898"/>
		
			<line fill="none" stroke="#D2B0B0" stroke-width="0.6243" stroke-miterlimit="10" x1="201.734" y1="49.184" x2="199.312" y2="52.277"/>
		
			<line fill="none" stroke="#D2B0B0" stroke-width="0.6243" stroke-miterlimit="10" x1="199.026" y1="46.57" x2="196.715" y2="49.744"/>
		
			<line fill="none" stroke="#D2B0B0" stroke-width="0.6243" stroke-miterlimit="10" x1="196.229" y1="44.049" x2="194.028" y2="47.305"/>
		
			<line fill="none" stroke="#D2B0B0" stroke-width="0.6243" stroke-miterlimit="10" x1="193.346" y1="41.629" x2="191.262" y2="44.958"/>
		
			<line fill="none" stroke="#D2B0B0" stroke-width="0.6243" stroke-miterlimit="10" x1="190.382" y1="39.312" x2="188.414" y2="42.713"/>
		
			<line fill="none" stroke="#D2B0B0" stroke-width="0.6243" stroke-miterlimit="10" x1="187.334" y1="37.099" x2="185.486" y2="40.565"/>
		
			<line fill="none" stroke="#D2B0B0" stroke-width="0.6243" stroke-miterlimit="10" x1="184.215" y1="34.994" x2="182.489" y2="38.523"/>
		
			<line fill="none" stroke="#D2B0B0" stroke-width="0.6243" stroke-miterlimit="10" x1="181.021" y1="32.999" x2="179.422" y2="36.587"/>
		
			<line fill="none" stroke="#D2B0B0" stroke-width="0.6243" stroke-miterlimit="10" x1="177.762" y1="31.117" x2="176.287" y2="34.758"/>
		
			<line fill="none" stroke="#D2B0B0" stroke-width="0.6243" stroke-miterlimit="10" x1="174.438" y1="29.348" x2="173.091" y2="33.041"/>
		
			<line fill="none" stroke="#D2B0B0" stroke-width="0.6243" stroke-miterlimit="10" x1="171.054" y1="27.7" x2="169.838" y2="31.435"/>
		
			<line fill="none" stroke="#D2B0B0" stroke-width="0.6243" stroke-miterlimit="10" x1="167.614" y1="26.168" x2="166.531" y2="29.941"/>
		
			<line fill="none" stroke="#D2B0B0" stroke-width="0.6243" stroke-miterlimit="10" x1="164.125" y1="24.757" x2="163.171" y2="28.566"/>
		
			<line fill="none" stroke="#D2B0B0" stroke-width="0.6243" stroke-miterlimit="10" x1="160.589" y1="23.47" x2="159.767" y2="27.308"/>
		
			<line fill="none" stroke="#D2B0B0" stroke-width="0.6243" stroke-miterlimit="10" x1="157.009" y1="22.305" x2="156.323" y2="26.173"/>
		
			<line fill="none" stroke="#D2B0B0" stroke-width="0.6243" stroke-miterlimit="10" x1="153.391" y1="21.27" x2="152.839" y2="25.156"/>
		
			<line fill="none" stroke="#D2B0B0" stroke-width="0.6243" stroke-miterlimit="10" x1="149.738" y1="20.355" x2="149.321" y2="24.262"/>
		
			<line fill="none" stroke="#D2B0B0" stroke-width="0.6243" stroke-miterlimit="10" x1="146.058" y1="19.574" x2="145.778" y2="23.491"/>
		
			<line fill="none" stroke="#D2B0B0" stroke-width="0.6243" stroke-miterlimit="10" x1="142.348" y1="18.92" x2="142.207" y2="22.844"/>
		
			<line fill="none" stroke="#D2B0B0" stroke-width="0.6243" stroke-miterlimit="10" x1="138.621" y1="18.396" x2="138.617" y2="22.324"/>
		
			<line fill="none" stroke="#D2B0B0" stroke-width="0.6243" stroke-miterlimit="10" x1="134.879" y1="18.003" x2="135.01" y2="21.928"/>
		
			<line fill="none" stroke="#D2B0B0" stroke-width="0.6243" stroke-miterlimit="10" x1="131.122" y1="17.738" x2="131.392" y2="21.658"/>
		
			<line fill="none" stroke="#D2B0B0" stroke-width="0.6243" stroke-miterlimit="10" x1="127.36" y1="17.608" x2="127.768" y2="21.514"/>
		
			<line fill="none" stroke="#D2B0B0" stroke-width="0.6243" stroke-miterlimit="10" x1="123.597" y1="17.606" x2="124.139" y2="21.498"/>
		
			<line fill="none" stroke="#D2B0B0" stroke-width="0.6243" stroke-miterlimit="10" x1="119.834" y1="17.738" x2="120.511" y2="21.607"/>
		
			<line fill="none" stroke="#D2B0B0" stroke-width="0.6243" stroke-miterlimit="10" x1="116.08" y1="18.001" x2="116.89" y2="21.843"/>
		
			<line fill="none" stroke="#D2B0B0" stroke-width="0.6243" stroke-miterlimit="10" x1="112.335" y1="18.394" x2="113.281" y2="22.207"/>
		
			<line fill="none" stroke="#D2B0B0" stroke-width="0.6243" stroke-miterlimit="10" x1="108.607" y1="18.917" x2="109.685" y2="22.695"/>
		
			<line fill="none" stroke="#D2B0B0" stroke-width="0.6243" stroke-miterlimit="10" x1="104.899" y1="19.57" x2="106.108" y2="23.308"/>
		
			<line fill="none" stroke="#D2B0B0" stroke-width="0.6243" stroke-miterlimit="10" x1="101.217" y1="20.354" x2="102.556" y2="24.045"/>
		
			<line fill="none" stroke="#D2B0B0" stroke-width="0.6243" stroke-miterlimit="10" x1="97.564" y1="21.264" x2="99.031" y2="24.907"/>
		
			<line fill="none" stroke="#D2B0B0" stroke-width="0.6243" stroke-miterlimit="10" x1="93.947" y1="22.302" x2="95.538" y2="25.893"/>
		
			<line fill="none" stroke="#D2B0B0" stroke-width="0.6243" stroke-miterlimit="10" x1="90.368" y1="23.464" x2="92.083" y2="26.997"/>
		
			<line fill="none" stroke="#D2B0B0" stroke-width="0.6243" stroke-miterlimit="10" x1="86.831" y1="24.752" x2="88.667" y2="28.223"/>
		
			<line fill="none" stroke="#D2B0B0" stroke-width="0.6243" stroke-miterlimit="10" x1="83.34" y1="26.162" x2="85.298" y2="29.566"/>
		
			<line fill="none" stroke="#D2B0B0" stroke-width="0.6243" stroke-miterlimit="10" x1="79.901" y1="27.692" x2="81.975" y2="31.027"/>
		
			<line fill="none" stroke="#D2B0B0" stroke-width="0.6243" stroke-miterlimit="10" x1="76.516" y1="29.342" x2="78.708" y2="32.603"/>
		
			<line fill="none" stroke="#D2B0B0" stroke-width="0.6243" stroke-miterlimit="10" x1="73.192" y1="31.107" x2="75.496" y2="34.29"/>
		
			<line fill="none" stroke="#D2B0B0" stroke-width="0.6243" stroke-miterlimit="10" x1="69.933" y1="32.991" x2="72.345" y2="36.09"/>
		
			<line fill="none" stroke="#D2B0B0" stroke-width="0.6243" stroke-miterlimit="10" x1="66.74" y1="34.986" x2="69.259" y2="37.999"/>
		
			<line fill="none" stroke="#D2B0B0" stroke-width="0.6243" stroke-miterlimit="10" x1="63.62" y1="37.091" x2="66.243" y2="40.014"/>
		
			<line fill="none" stroke="#D2B0B0" stroke-width="0.6243" stroke-miterlimit="10" x1="60.575" y1="39.303" x2="63.297" y2="42.133"/>
	</g>
</g>
</svg>
