<?xml version="1.0" encoding="utf-8"?>
<!-- Generator: Adobe Illustrator 16.0.0, SVG Export Plug-In . SVG Version: 6.00 Build 0)  -->
<!DOCTYPE svg PUBLIC "-//W3C//DTD SVG 1.1//EN" "http://www.w3.org/Graphics/SVG/1.1/DTD/svg11.dtd">
<svg version="1.1" id="Calque_1" xmlns="http://www.w3.org/2000/svg" xmlns:xlink="http://www.w3.org/1999/xlink" x="0px" y="0px"
	 width="400px" height="330px" viewBox="0 0 400 330" enable-background="new 0 0 400 330" xml:space="preserve">
<g>
	<path fill="#D2B0B0" d="M193.54,266.132l-11.938-13.092l0.002-7.541l0.295-0.226c12.834-9.795,20.195-25.312,20.195-42.571
		c0-9.595-3.07-20.488-8.423-29.892l-6.47-11.223c-5.027-9.256-11.62-23.403-10.943-39.509
		c0.994-23.561,12.249-45.593,30.881-60.448l0.549-0.438l11.229,12.313v6.702l-0.293,0.225c-12.647,9.732-20.82,26.033-20.82,41.528
		c0,8.395,1.889,16.431,5.464,23.239c0.488,0.93,1.849,3.696,3.567,7.198c2.979,6.069,7.062,14.379,8.537,17.013
		c6.503,11.604,9.801,23.475,9.801,35.278c0,14.383-5.392,36.623-31.08,60.914L193.54,266.132z M183.104,252.46l10.515,11.531
		c24.823-23.72,30.057-45.314,30.057-59.298c0-11.547-3.233-23.17-9.609-34.549c-1.492-2.666-5.586-11-8.573-17.083
		c-1.647-3.354-3.07-6.25-3.551-7.163c-3.687-7.022-5.636-15.3-5.636-23.937c0-15.824,8.276-32.458,21.113-42.49v-5.384
		l-9.891-10.844c-17.965,14.577-28.806,36.004-29.771,58.899c-0.662,15.734,5.82,29.629,10.753,38.713l6.463,11.208
		c5.479,9.625,8.621,20.791,8.621,30.638c0,17.599-7.462,33.442-20.49,43.536L183.104,252.46z"/>
</g>
<g>
	<path fill="#D2B0B0" d="M193.834,250.011h-11.48v-1h11.094c12.383-11.311,19.769-28.167,19.769-45.135
		c0-10.608-2.784-21.255-8.051-30.788l-1.092-1.982c-2.506-4.558-7.719-14.041-9.002-16.195c-5.536-9.315-8.465-20.553-8.465-32.5
		c0-19.033,7.63-36.383,20.41-46.411l0.136-0.106h10.507v1H207.5c-12.458,9.856-19.893,26.856-19.893,45.518
		c0,11.767,2.878,22.829,8.324,31.989c1.292,2.171,6.51,11.667,9.021,16.227l1.089,1.979c5.349,9.683,8.176,20.496,8.176,31.271
		c0,17.311-7.565,34.508-20.237,46.005L193.834,250.011z"/>
</g>
<g>
	<g>
		<path fill="#D2B0B0" d="M109.78,191.939l-12.453-12.473v-5.214l51.938-51.878l12.035,12.05l-0.002,6.057L109.78,191.939z
			 M98.825,178.848l10.954,10.971l50.018-49.957l0.002-4.814l-10.536-10.549l-50.438,50.378V178.848z"/>
	</g>
	<g>
		<polygon fill="#D2B0B0" points="110.228,177.131 98.632,177.131 98.632,176.131 109.814,176.131 149.261,136.735 159.879,136.735 
			159.879,137.735 149.675,137.735 		"/>
	</g>
</g>
<g>
	<g>
		<path fill="#D2B0B0" d="M253.103,203.543l-12.455-12.471v-5.215l51.941-51.877l12.034,12.05l-0.004,6.057L253.103,203.543z
			 M242.147,190.451l10.957,10.971l50.017-49.957l0.004-4.814l-10.536-10.549l-50.439,50.378L242.147,190.451L242.147,190.451z"/>
	</g>
	<g>
		<polygon fill="#D2B0B0" points="253.552,188.736 241.954,188.736 241.954,187.736 253.138,187.736 292.583,148.339 
			303.201,148.339 303.201,149.339 292.997,149.339 		"/>
	</g>
</g>
<polygon fill="#D2B0B0" points="182.354,157.091 143.608,157.091 129.972,170.712 189.746,170.712 "/>
<polygon fill="#D2B0B0" points="218.519,170.712 257.265,170.712 270.901,157.091 211.128,157.091 "/>
<path fill="#D2B0B0" d="M88.746,168.622c0,3.051-2.477,5.524-5.525,5.524s-5.524-2.476-5.524-5.524c0-3.054,3.667-6.07,5.524-10.721
	C85.225,162.33,88.746,165.568,88.746,168.622z"/>
<path fill="#D2B0B0" d="M321.05,168.622c0,3.051-2.477,5.524-5.525,5.524S310,171.673,310,168.622c0-3.054,3.665-6.07,5.522-10.721
	C317.528,162.33,321.05,165.568,321.05,168.622z"/>
<g>
	<g>
		<path fill="#D2B0B0" d="M118.138,52.769l0.339-0.237c1.023,0.932,2.603,1.432,3.826,0.577c1.136-0.793,1.465-2.208,0.651-3.373
			c-1.916-2.745-5.719,1.115-8.147-2.367c-1.329-1.903-0.661-3.839,1.139-5.096c0.605-0.423,1.305-0.712,1.955-1.035l1.556,1.724
			l-0.339,0.237c-0.885-0.92-1.984-1.051-3.049-0.31c-1.121,0.783-1.202,2.048-0.45,3.125c1.916,2.744,5.935-1.181,8.304,2.213
			c1.339,1.918,0.364,4.2-1.377,5.416c-0.769,0.535-1.688,0.915-2.607,1.074L118.138,52.769z"/>
		<path fill="#D2B0B0" d="M134.048,41.93c0.57,0.481,1.756,1.564,2.204,1.764c0.414,0.177,0.943,0.016,1.442-0.272l0.234,0.405
			c-0.593,0.343-1.219,0.662-1.812,1.004c-0.766,0.441-1.505,0.89-2.261,1.346l-0.232-0.405l0.279-0.162
			c0.392-0.225,0.812-0.573,0.562-1.01c-0.099-0.171-0.477-0.536-0.756-0.77l-2.085-1.811l-3.665,2.115l0.287,1.29
			c0.175,0.771,0.371,1.615,0.648,2.099c0.423,0.732,0.919,0.404,1.483,0.121l0.357-0.207l0.234,0.405
			c-0.607,0.351-1.25,0.68-1.857,1.031c-0.624,0.359-1.255,0.744-1.868,1.12l-0.234-0.405c0.889-0.658,0.988-0.882,0.874-1.98
			c-0.074-0.706-0.238-1.422-0.369-2.116l-1.218-6.719c-0.083-0.431-0.213-1.125-0.483-1.593c-0.09-0.156-0.162-0.281-0.265-0.388
			c0.237-0.345,0.497-0.724,0.508-1.208l0.266-0.153L134.048,41.93z M127.81,43.368l3.212-1.854l-4.313-3.621l-0.031,0.018
			L127.81,43.368z"/>
		<path fill="#D2B0B0" d="M143.452,39.333c0.529,1.143,1.157,0.871,2.03,0.485l0.197,0.425c-0.824,0.362-1.583,0.695-2.333,1.044
			c-0.735,0.341-1.478,0.706-2.238,1.079l-0.195-0.425c0.856-0.418,1.471-0.723,0.938-1.865l-1.835-3.951l-5.596-3.117
			c-0.785-0.449-0.853-0.379-1.854-0.013l-0.195-0.423c0.316-0.128,1.531-0.673,2.285-1.021c0.669-0.312,1.307-0.647,1.977-0.96
			l0.197,0.425c-0.263,0.121-0.915,0.425-0.755,0.768c0.091,0.195,0.492,0.465,1.009,0.762l3.78,2.154l0.779-3.915
			c0.067-0.369,0.267-1.097,0.091-1.472c-0.22-0.474-0.547-0.322-1.379,0.064l-0.195-0.423c0.628-0.271,1.271-0.551,1.893-0.839
			c0.44-0.205,0.866-0.442,1.324-0.656l0.197,0.425c-0.68,0.334-0.783,0.919-0.915,1.576l-1.162,5.66L143.452,39.333z"/>
		<path fill="#D2B0B0" d="M164.669,26.41l-1.071-3.775c-0.344-1.212-1.007-1.043-1.93-0.8l-0.128-0.454
			c0.923-0.243,1.742-0.457,2.571-0.692c0.745-0.211,1.497-0.462,2.276-0.68l0.128,0.45c-0.913,0.278-1.564,0.482-1.222,1.694
			l2.466,8.694c0.344,1.212,1.007,1.043,1.93,0.8l0.128,0.45c-0.782,0.203-1.566,0.407-2.348,0.628
			c-0.812,0.231-1.604,0.475-2.501,0.748l-0.128-0.451c0.913-0.277,1.566-0.481,1.222-1.693l-1.192-4.209l-6.997,1.985l1.192,4.208
			c0.346,1.213,1.009,1.043,1.932,0.8l0.127,0.45c-0.831,0.236-1.585,0.413-2.35,0.629c-0.831,0.236-1.64,0.484-2.501,0.747
			l-0.127-0.45c0.913-0.277,1.566-0.481,1.224-1.694l-2.469-8.693c-0.344-1.213-1.007-1.043-1.93-0.8l-0.127-0.454
			c0.819-0.214,1.62-0.423,2.399-0.644c0.797-0.227,1.588-0.47,2.448-0.729l0.127,0.45c-0.911,0.277-1.564,0.481-1.222,1.694
			l1.071,3.775L164.669,26.41z"/>
		<path fill="#D2B0B0" d="M178.526,28.801c0.207,1.243,0.887,1.149,1.83,1.01l0.077,0.462c-0.891,0.13-1.711,0.249-2.528,0.385
			c-0.799,0.133-1.611,0.287-2.443,0.444l-0.077-0.462c0.938-0.175,1.61-0.305,1.403-1.549l-0.718-4.298l-4.562-4.496
			c-0.637-0.643-0.72-0.593-1.782-0.507l-0.077-0.465c0.341-0.039,1.658-0.24,2.477-0.376c0.728-0.122,1.433-0.275,2.161-0.394
			l0.075,0.462c-0.282,0.048-0.993,0.166-0.933,0.539c0.036,0.213,0.353,0.58,0.771,1.003l3.069,3.085l1.797-3.567
			c0.163-0.337,0.548-0.985,0.479-1.394c-0.086-0.516-0.441-0.456-1.349-0.306l-0.075-0.465c0.678-0.095,1.374-0.192,2.048-0.305
			c0.479-0.08,0.954-0.195,1.451-0.275l0.075,0.462c-0.741,0.143-1,0.678-1.303,1.276l-2.628,5.147L178.526,28.801z"/>
		<path fill="#D2B0B0" d="M184.779,17.033c0.812-0.022,1.619-0.08,2.429-0.139c0.609-0.044,1.235-0.126,1.989-0.179
			c1.852-0.134,4.563,0.447,4.768,3.248c0.153,2.12-1.716,3.735-3.604,3.871c-0.357,0.026-0.646,0.029-0.917,0.049l-0.042-0.593
			c0.236,0.019,0.451,0.003,0.687-0.014c1.544-0.111,2.117-1.688,2.021-2.98c-0.18-2.496-1.973-3.071-3.156-2.985
			c-0.271,0.02-0.593,0.061-0.786,0.11l0.731,10.147c0.092,1.258,0.774,1.226,1.746,1.174l0.034,0.467
			c-0.88,0.063-1.655,0.084-2.445,0.141c-0.86,0.062-1.705,0.142-2.602,0.224l-0.034-0.467c0.951-0.086,1.632-0.153,1.541-1.411
			l-0.617-8.549c-0.1-1.383-0.359-1.743-1.708-1.646L184.779,17.033z"/>
		<path fill="#D2B0B0" d="M200.411,22.012l2.375,0.038c1.457,0.023,1.476-1.11,1.534-1.523l0.36,0.004
			c-0.043,0.396-0.095,1.366-0.104,2.015c-0.011,0.575,0.065,1.423,0.04,1.999l-0.359-0.005c0.028-1.728-0.548-1.736-1.933-1.759
			l-1.928-0.031l-0.049,3.059c-0.032,1.996,0.032,2.501,1.813,2.53l1.113,0.018c1.767-0.062,2.562-0.282,3.293-2.196L207,26.24
			c-0.303,0.895-0.586,1.808-0.781,2.74c-1.799-0.028-3.598-0.094-5.396-0.122c-1.331-0.021-2.662-0.043-3.994-0.029l0.007-0.467
			c1.563,0.024,1.714-0.261,1.742-2.006l0.128-7.987c0.022-1.476-0.265-1.552-1.685-1.629l0.007-0.471
			c1.205,0.055,2.43,0.075,3.636,0.095c1.727,0.027,3.436,0.055,5.182,0.051l-0.044,2.68l-0.36,0.085
			c-0.241-1.696-1.045-2.213-2.844-2.241l-2.104-0.034L200.411,22.012z"/>
		<path fill="#D2B0B0" d="M215.799,26.771l0.41,0.059c0.112,1.379,0.928,2.821,2.407,3.03c1.37,0.193,2.576-0.617,2.774-2.025
			c0.469-3.315-4.945-3.08-4.352-7.286c0.323-2.299,2.134-3.262,4.308-2.954c0.73,0.104,1.438,0.366,2.137,0.574l-0.037,2.321
			l-0.408-0.058c-0.021-1.275-0.736-2.122-2.021-2.303c-1.354-0.191-2.275,0.678-2.461,1.979c-0.468,3.315,5.149,3.182,4.57,7.28
			c-0.327,2.317-2.598,3.324-4.699,3.026c-0.927-0.131-1.858-0.48-2.642-0.991L215.799,26.771z"/>
		<path fill="#D2B0B0" d="M238.085,23.618l-0.476-0.109c0.165-0.959,0.362-1.579-1.042-1.901l-2.667-0.612l-2.252,9.81
			c-0.279,1.229,0.381,1.398,1.309,1.63l-0.104,0.456c-0.842-0.193-1.589-0.401-2.358-0.579c-0.845-0.193-1.673-0.365-2.555-0.549
			l0.104-0.456c0.935,0.196,1.604,0.331,1.887-0.896l2.252-9.81l-2.299-0.527c-1.579-0.363-1.75,0.06-2.31,1.132l-0.457-0.104
			l0.834-2.746l0.351,0.081c0.085,0.518,0.555,0.644,0.993,0.745l7.967,1.828c0.631,0.146,1.106,0.088,1.253-0.229l0.368,0.085
			L238.085,23.618z"/>
		<path fill="#D2B0B0" d="M253.262,26.594c-1.363-0.463-1.572,0.208-2.277,2.287l-1.666,4.909c-0.784,2.317-2.822,3.564-5.822,2.547
			c-2.812-0.954-4.037-2.891-3.105-5.806l2.111-6.221c0.402-1.193-0.237-1.43-1.135-1.753l0.148-0.439
			c0.795,0.289,1.573,0.572,2.341,0.832c0.783,0.267,1.573,0.516,2.434,0.783l-0.15,0.443c-0.909-0.29-1.562-0.492-1.968,0.7
			l-1.966,5.795c-0.688,2.028-0.688,4.214,1.97,5.116c2.83,0.96,3.843-1.129,4.241-2.305l1.646-4.857
			c0.948-2.796,0.829-2.779-0.671-3.345l0.15-0.439c0.71,0.261,1.42,0.521,2.137,0.763c0.579,0.197,1.153,0.354,1.732,0.546
			L253.262,26.594z"/>
		<path fill="#D2B0B0" d="M256.981,29.812c0.686-1.47-0.13-1.729-0.854-2.087l0.195-0.423c0.622,0.329,1.274,0.634,1.911,0.93
			c0.688,0.319,1.632,0.72,2.84,1.279c4.229,1.969,5.219,5.864,3.871,8.754c-0.752,1.617-3.591,5.241-9.371,2.552
			c-0.83-0.388-1.585-0.777-2.352-1.135c-0.735-0.342-1.461-0.66-2.203-0.985l0.197-0.425c1.023,0.358,1.514,0.546,2.08-0.542
			L256.981,29.812z M255.018,38.214c-0.586,1.258,0.244,1.822,1.044,2.194c3.526,1.642,5.925-0.48,7.059-2.913
			c1.421-3.053,0.485-6.169-2.663-7.636c-0.67-0.312-1.003-0.406-1.306-0.527L255.018,38.214z"/>
		<path fill="#D2B0B0" d="M271.323,36.695c0.624-1.095,0.038-1.449-0.78-1.937l0.23-0.404c0.728,0.435,1.438,0.86,2.143,1.261
			c0.719,0.41,1.445,0.805,2.236,1.231l-0.229,0.407c-0.838-0.457-1.441-0.78-2.065,0.315l-4.473,7.851
			c-0.624,1.095-0.039,1.449,0.781,1.938l-0.231,0.406c-0.751-0.428-1.405-0.842-2.094-1.234c-0.751-0.428-1.495-0.831-2.286-1.261
			l0.232-0.406c0.838,0.456,1.438,0.779,2.062-0.315L271.323,36.695z"/>
		<path fill="#D2B0B0" d="M283.847,42.122c2.963,2.045,3.552,6.169,1.609,8.984c-1.871,2.711-5.854,4.011-9.099,1.771
			c-2.963-2.045-3.551-6.168-1.606-8.983C276.621,41.183,280.602,39.884,283.847,42.122z M276.864,52.526
			c2.163,1.493,4.814,0.566,6.665-2.115c1.556-2.252,2.348-6.189-0.188-7.938c-2.163-1.492-4.814-0.566-6.665,2.115
			C275.123,46.842,274.331,50.778,276.864,52.526z"/>
	</g>
</g>
<g>
	<path fill="#D2B0B0" d="M134.529,287.764l-0.305-0.176c0.567-1.814-0.409-3.229-1.96-4.124c-2.452-1.415-5.104-0.083-6.408,2.175
		c-1.383,2.397-1.298,5.644,1.196,7.081c1.094,0.632,1.886,0.571,2.182,0.539l1.191-2.062c0.583-1.013,0.057-1.315-0.677-1.739
		l0.208-0.361c0.643,0.391,1.271,0.771,1.896,1.133c0.637,0.365,1.283,0.722,1.706,0.947l-0.208,0.36
		c-0.457-0.265-0.981-0.567-1.565,0.442l-1.049,1.814l0.09,0.328l-0.138,0.234c-1.354-0.246-2.853-0.595-4.058-1.289
		c-3.895-2.246-3.562-6.118-2.418-8.101c1.679-2.909,5.177-3.754,8.073-2.083c1.231,0.712,2.227,1.71,3.129,2.805L134.529,287.764z"
		/>
	<path fill="#D2B0B0" d="M138.8,293.203l-1.54,3.377c-0.465,1.02,0.082,1.286,0.847,1.652l-0.172,0.379
		c-0.699-0.318-1.312-0.635-1.952-0.926c-0.697-0.318-1.39-0.615-2.124-0.935l0.175-0.379c0.708,0.376,1.391,0.459,1.769-0.371
		l3.365-7.381c0.465-1.021-0.082-1.285-0.849-1.651l0.175-0.383c0.794,0.38,1.484,0.713,2.197,1.038
		c0.511,0.231,1.032,0.437,1.965,0.864c2.752,1.255,2.658,3.074,2.188,4.109c-0.564,1.236-1.914,1.729-3.202,1.545
		c0.442,2.541,0.609,4.023,0.917,5.008c0.229,0.736,0.484,1.328,1.229,1.668l-0.172,0.38c-0.364-0.166-0.717-0.361-1.079-0.527
		c-0.408-0.187-0.836-0.362-1.25-0.535c-0.661-2.06-0.86-4.206-1.158-6.329L138.8,293.203z M141.904,288.711
		c-0.362-0.166-0.631-0.234-0.911-0.312l-1.945,4.268c0.198,0.145,0.491,0.312,0.738,0.424c1.791,0.816,3.025-0.044,3.505-1.092
		C143.866,290.73,143.622,289.494,141.904,288.711z"/>
	<path fill="#D2B0B0" d="M155.461,302.081c0.006,0.663-0.034,2.089,0.092,2.506c0.122,0.381,0.538,0.646,1.021,0.812l-0.139,0.396
		c-0.574-0.2-1.15-0.437-1.727-0.636c-0.74-0.26-1.473-0.496-2.216-0.738l0.137-0.395l0.271,0.096
		c0.377,0.132,0.857,0.215,1.004-0.208c0.06-0.167,0.085-0.632,0.079-0.956l0.01-2.453l-3.552-1.236l-0.699,0.94
		c-0.417,0.565-0.871,1.188-1.034,1.656c-0.248,0.71,0.261,0.854,0.778,1.065l0.349,0.121l-0.139,0.393
		c-0.589-0.203-1.183-0.443-1.771-0.649c-0.604-0.21-1.229-0.411-1.838-0.604l0.137-0.395c0.958,0.215,1.167,0.152,1.839-0.562
		c0.433-0.459,0.817-0.984,1.209-1.477l3.812-4.719c0.242-0.307,0.633-0.796,0.791-1.249c0.053-0.151,0.095-0.272,0.105-0.403
		c0.37-0.041,0.775-0.086,1.108-0.359l0.257,0.091L155.461,302.081z M150.873,298.72l3.11,1.085l-0.067-5.005l-0.03-0.01
		L150.873,298.72z"/>
	<path fill="#D2B0B0" d="M161.906,295.712c0.689,0.21,1.389,0.39,2.087,0.568c0.525,0.136,1.076,0.243,1.729,0.411
		c1.597,0.41,3.72,1.666,3.099,4.084c-0.47,1.83-2.501,2.664-4.129,2.246c-0.31-0.08-0.554-0.16-0.787-0.221l0.133-0.512
		c0.191,0.083,0.379,0.131,0.581,0.184c1.332,0.342,2.261-0.824,2.548-1.939c0.553-2.155-0.795-3.146-1.818-3.409
		c-0.231-0.06-0.516-0.115-0.694-0.128l-2.25,8.759c-0.277,1.085,0.308,1.252,1.141,1.481l-0.104,0.404
		c-0.759-0.195-1.418-0.397-2.1-0.572c-0.744-0.191-1.479-0.363-2.256-0.547l0.104-0.403c0.825,0.196,1.418,0.332,1.697-0.754
		l1.896-7.38c0.309-1.192,0.189-1.57-0.974-1.869L161.906,295.712z"/>
	<path fill="#D2B0B0" d="M180.066,304.721l0.562-3.443c0.18-1.104-0.417-1.219-1.251-1.369l0.065-0.406
		c0.834,0.15,1.574,0.289,2.332,0.413c0.681,0.108,1.379,0.19,2.092,0.305l-0.067,0.41c-0.84-0.121-1.442-0.203-1.623,0.902
		l-1.294,7.928c-0.181,1.104,0.417,1.222,1.251,1.372l-0.067,0.411c-0.708-0.134-1.417-0.265-2.127-0.382
		c-0.742-0.119-1.471-0.225-2.295-0.342l0.067-0.41c0.839,0.121,1.44,0.203,1.623-0.901l0.627-3.838l-6.38-1.042l-0.627,3.838
		c-0.182,1.104,0.417,1.219,1.252,1.372l-0.067,0.41c-0.758-0.124-1.432-0.269-2.127-0.382c-0.758-0.123-1.503-0.229-2.295-0.342
		l0.067-0.41c0.84,0.121,1.44,0.203,1.621-0.901l1.296-7.929c0.181-1.104-0.417-1.221-1.251-1.373l0.065-0.404
		c0.74,0.137,1.464,0.271,2.174,0.388c0.729,0.118,1.456,0.224,2.248,0.33l-0.065,0.411c-0.84-0.121-1.442-0.203-1.623,0.9
		l-0.562,3.442L180.066,304.721z"/>
	<path fill="#D2B0B0" d="M187.128,301.997c0.096-1.116-0.508-1.185-1.354-1.272l0.036-0.412c0.748,0.08,1.48,0.16,2.198,0.223
		c0.733,0.062,1.468,0.109,2.267,0.158l-0.034,0.416c-0.849-0.058-1.454-0.094-1.552,1.021l-0.688,8.006
		c-0.098,1.115,0.508,1.184,1.352,1.272l-0.036,0.414c-0.766-0.065-1.446-0.156-2.148-0.218c-0.768-0.065-1.518-0.113-2.315-0.166
		l0.036-0.416c0.847,0.058,1.454,0.094,1.55-1.022L187.128,301.997z"/>
	<path fill="#D2B0B0" d="M202.666,303.984l-0.4-0.008c-0.271-1.875-1.586-2.649-3.377-2.683c-1.839-0.03-4.531,1.154-4.597,4.992
		c-0.057,3.229,2.208,5.589,4.67,5.631c1.583,0.026,2.913-1.038,3.262-2.711l0.365,0.103l-0.408,2.33
		c-0.678,0.402-2.493,0.805-3.548,0.784c-3.742-0.062-6.067-2.521-6.005-6.116c0.056-3.277,3.021-5.578,6.157-5.523
		c1.295,0.021,2.533,0.459,3.759,0.912L202.666,303.984z"/>
	<path fill="#D2B0B0" d="M212.179,302.338c-0.169-1.43-0.904-1.246-1.621-1.178l-0.049-0.408c0.623-0.042,1.259-0.116,1.878-0.189
		c0.668-0.078,1.569-0.217,2.745-0.359c4.113-0.486,6.678,1.997,7.01,4.811c0.188,1.57-0.268,5.637-5.891,6.301
		c-0.812,0.096-1.562,0.15-2.31,0.238c-0.715,0.086-1.41,0.186-2.124,0.283l-0.049-0.413c0.941-0.208,1.398-0.294,1.318-1.38
		L212.179,302.338z M214.615,309.604c0.145,1.225,1.033,1.265,1.812,1.172c3.432-0.404,4.253-3.129,3.974-5.496
		c-0.351-2.969-2.511-4.889-5.574-4.525c-0.651,0.077-0.947,0.16-1.231,0.21L214.615,309.604z"/>
	<path fill="#D2B0B0" d="M228.041,303.318l2.064-0.435c1.27-0.266,1.062-1.252,1.033-1.622l0.312-0.064
		c0.041,0.352,0.187,1.203,0.305,1.767c0.104,0.501,0.338,1.222,0.427,1.726l-0.312,0.065c-0.315-1.503-0.816-1.397-2.021-1.146
		l-1.676,0.351l0.559,2.662c0.363,1.737,0.521,2.163,2.068,1.838l0.971-0.203c1.52-0.399,2.164-0.748,2.423-2.551l0.392-0.017
		c-0.087,0.836-0.154,1.684-0.143,2.528c-1.563,0.328-3.138,0.625-4.701,0.953c-1.158,0.242-2.316,0.485-3.471,0.761l-0.085-0.406
		c1.361-0.287,1.437-0.562,1.116-2.082l-1.457-6.95c-0.269-1.283-0.532-1.294-1.778-1.082l-0.086-0.407
		c1.058-0.188,2.12-0.411,3.169-0.631c1.503-0.314,2.99-0.627,4.502-0.977l0.489,2.332l-0.297,0.146
		c-0.543-1.423-1.34-1.714-2.905-1.386l-1.831,0.384L228.041,303.318z"/>
	<path fill="#D2B0B0" d="M237.166,304.799l0.354-0.102c0.594,1.078,1.777,1.953,3.057,1.586c1.184-0.342,1.866-1.438,1.519-2.652
		c-0.823-2.859-5.133-0.705-6.177-4.335c-0.571-1.983,0.548-3.422,2.424-3.961c0.631-0.183,1.301-0.226,1.943-0.31l0.812,1.896
		l-0.354,0.104c-0.479-1.028-1.367-1.455-2.477-1.137c-1.169,0.336-1.603,1.377-1.279,2.5c0.823,2.858,5.334,0.713,6.354,4.25
		c0.575,2-0.901,3.641-2.717,4.161c-0.801,0.23-1.686,0.284-2.504,0.154L237.166,304.799z"/>
	<path fill="#D2B0B0" d="M245.152,295.068c-0.371-1.058-0.948-0.87-1.756-0.604l-0.138-0.389c0.715-0.233,1.415-0.462,2.095-0.7
		c0.695-0.244,1.385-0.503,2.135-0.786l0.14,0.394c-0.795,0.295-1.364,0.513-0.993,1.568l2.657,7.583
		c0.371,1.058,0.949,0.872,1.756,0.606l0.138,0.393c-0.725,0.254-1.385,0.451-2.05,0.686c-0.725,0.255-1.43,0.519-2.18,0.799
		l-0.14-0.395c0.796-0.296,1.364-0.512,0.994-1.568L245.152,295.068z"/>
	<path fill="#D2B0B0" d="M260.421,290.312l-0.322,0.141c-1.122-1.536-2.839-1.594-4.481-0.879c-2.6,1.129-3.106,4.055-2.067,6.447
		c1.104,2.539,3.764,4.401,6.405,3.254c1.158-0.504,1.583-1.176,1.731-1.435l-0.95-2.187c-0.466-1.072-1.021-0.829-1.802-0.491
		l-0.166-0.38c0.696-0.285,1.378-0.564,2.038-0.854c0.676-0.293,1.345-0.601,1.778-0.809l0.166,0.382
		c-0.484,0.21-1.042,0.452-0.576,1.524l0.835,1.923l0.316,0.124l0.106,0.25c-1.005,0.941-2.177,1.938-3.453,2.494
		c-4.125,1.793-7.04-0.779-7.952-2.879c-1.34-3.082,0.064-6.397,3.135-7.73c1.306-0.566,2.698-0.771,4.114-0.848L260.421,290.312z"
		/>
	<path fill="#D2B0B0" d="M276.995,290.927l-0.321,0.181l-11.796-3.901l2.926,5.201c1.082,1.925,1.455,2.229,2.962,1.382l0.204,0.361
		c-0.614,0.347-1.258,0.67-1.871,1.017c-0.613,0.346-1.231,0.712-1.839,1.069l-0.204-0.36c0.853-0.479,1.492-0.84,0.496-2.608
		l-3.153-5.606c-0.674-1.2-1.434-1.343-2.633-0.667l-0.204-0.363c0.44-0.229,0.867-0.451,1.299-0.693
		c0.377-0.213,0.752-0.459,1.128-0.67c1.053,0.528,3.062,1.067,5.642,1.933c1.923,0.645,4.01,1.286,5.539,1.786l-3.122-5.551
		c-0.722-1.283-1.234-1.51-2.637-0.74l-0.203-0.36c0.646-0.349,1.312-0.702,1.954-1.062c0.544-0.308,1.058-0.631,1.602-0.938
		l0.204,0.36c-0.853,0.479-1.271,0.81-0.503,2.176L276.995,290.927z"/>
</g>
</svg>
