<?xml version="1.0" encoding="utf-8"?>
<!-- Generator: Adobe Illustrator 16.0.0, SVG Export Plug-In . SVG Version: 6.00 Build 0)  -->
<!DOCTYPE svg PUBLIC "-//W3C//DTD SVG 1.1//EN" "http://www.w3.org/Graphics/SVG/1.1/DTD/svg11.dtd">
<svg version="1.1" id="Calque_1" xmlns="http://www.w3.org/2000/svg" xmlns:xlink="http://www.w3.org/1999/xlink" x="0px" y="0px"
	 width="250px" height="250px" viewBox="0 0 250 250" enable-background="new 0 0 250 250" xml:space="preserve">
<g>
	<path fill="#D2B0B0" d="M39.879,141.219v27.857h10.742v2.521H17.566l0.002-2.518l10.538-0.004v-61.309l-10.538,0.003v-2.526h34.191
		c7.719,0,13.537,1.716,17.439,5.147c3.91,3.433,5.87,7.654,5.869,12.669c0,5.146-1.976,9.457-5.915,12.939
		c-3.942,3.479-10.502,5.217-19.668,5.219H39.879z M39.878,107.771l0.001,30.872l6.383-0.002c3.335,0.002,6.104-0.273,8.314-0.832
		c2.21-0.568,4.119-2.047,5.716-4.455c1.602-2.406,2.4-6.139,2.4-11.183c0-4.451-0.702-7.727-2.102-9.824
		c-1.4-2.096-3.057-3.381-4.972-3.859c-1.916-0.479-4.291-0.717-7.121-0.72L39.878,107.771z"/>
	<path fill="#D2B0B0" d="M89.021,169.076v-33.842h-8.02v-2.527l8.118-0.002c4.157,0.002,7.324-0.213,9.497-0.645v9.354l0.199,0.002
		c2.306-6.236,5.724-9.35,10.245-9.348c1.979-0.002,3.567,0.6,4.773,1.805c1.202,1.203,1.809,2.658,1.809,4.373
		c0.002,1.584-0.488,2.863-1.462,3.832c-0.974,0.98-2.235,1.469-3.785,1.463c-2.836,0-4.252-1.416-4.252-4.254l0.191-2.123
		c0.004-0.762-0.343-1.139-1.032-1.141c-1.091,0-2.477,1.465-4.159,4.404c-1.683,2.934-2.525,7.422-2.525,13.455v15.193h8.216
		l-0.003,2.523l-25.829-0.004v-2.52H89.021L89.021,169.076z"/>
	<path fill="#D2B0B0" d="M157.006,149.184l-25.037,0.002c-0.23,9.77,0.311,15.777,1.631,18.035c1.328,2.262,3.68,3.391,7.082,3.391
		c6.992,0,11.721-4.061,14.197-12.17l2.127-0.002c-1.086,4.918-3.152,8.541-6.186,10.891c-3.035,2.336-6.412,3.508-10.143,3.506
		c-5.312,0-9.932-1.967-13.855-5.91c-3.924-3.941-5.889-8.902-5.89-14.869c0-5.805,1.922-10.684,5.765-14.65
		c3.84-3.951,8.305-5.934,13.389-5.934c4.422,0,8.287,1.564,11.598,4.703C155.002,139.309,156.777,143.641,157.006,149.184z
		 M131.969,146.957h14.396c0.268-2.336,0.402-4.121,0.398-5.344c0-5.27-2.395-7.91-7.174-7.914c-2.377,0-4.242,0.639-5.592,1.906
		c-1.355,1.266-2.029,2.99-2.031,5.168L131.969,146.957z"/>
	<path fill="#D2B0B0" d="M191.25,132.262l-0.004,11.084l-2.025,0.006c-1.518-6.432-5.211-9.648-11.084-9.652
		c-2.541,0-4.662,0.668-6.367,2.008c-1.688,1.332-2.541,2.854-2.535,4.572c-0.006,1.451,0.6,2.6,1.799,3.445
		c1.207,0.836,4.049,1.553,8.539,2.148c9.867,1.223,14.795,5.711,14.791,13.457c0.004,3.867-1.275,7.08-3.83,9.65
		c-2.559,2.572-5.734,3.859-9.525,3.859c-3.725,0-7.336-1.535-10.838-4.6l-3.463,2.971h-1.729l-0.002-14.602h1.727
		c2.842,9.338,7.602,14.008,14.305,14.006c2.539,0,4.848-0.809,6.92-2.422c2.086-1.623,3.125-3.514,3.119-5.693
		c0.006-1.816-0.615-3.18-1.85-4.105c-1.232-0.926-4.576-1.777-10.02-2.572c-9.271-1.354-13.904-5.475-13.908-12.375
		c0.006-3.398,1.242-6.234,3.734-8.531c2.49-2.293,5.537-3.438,9.133-3.441c3.791,0.004,6.977,1.252,9.549,3.756
		c0.664-0.689,1.334-1.68,2.031-2.965L191.25,132.262z"/>
	<path fill="#D2B0B0" d="M219.209,121.426v11.279l11.721,0.004v2.525l-11.721-0.006v24.502c0,3.594,0.234,6.053,0.713,7.367
		c0.479,1.324,1.76,1.98,3.838,1.98c1.578,0.006,3.104-0.525,4.574-1.58c1.469-1.059,2.58-2.688,3.34-4.902h2.127
		c-1.516,6.404-6.119,9.604-13.807,9.602c-3.23,0-5.6-0.588-7.125-1.752c-1.516-1.17-2.449-2.617-2.793-4.334
		c-0.348-1.711-0.52-4.039-0.523-6.979l0.004-23.902l-8.807,0.006v-2.525h8.807V122.27
		C212.822,122.275,216.041,121.989,219.209,121.426z"/>
</g>
<g>
	<g>
		<path fill="#D2B0B0" d="M23.264,209.256c1.002,0,1.726,0.34,2.399,0.928c0.089,0.082,0.089,0.195,0.011,0.275l-0.435,0.443
			c-0.07,0.09-0.161,0.09-0.249,0.004c-0.464-0.406-1.1-0.666-1.717-0.666c-1.415,0-2.485,1.189-2.486,2.57
			c0.002,1.395,1.079,2.574,2.497,2.576c0.728-0.002,1.229-0.291,1.706-0.654c0.09-0.07,0.175-0.061,0.237-0.016l0.458,0.449
			c0.079,0.066,0.059,0.197-0.009,0.266c-0.678,0.654-1.529,0.965-2.412,0.965c-1.983,0-3.579-1.578-3.579-3.564
			C19.685,210.857,21.28,209.256,23.264,209.256z"/>
		<path fill="#D2B0B0" d="M30.614,209.256c1.982-0.002,3.569,1.598,3.569,3.582c0,1.986-1.586,3.557-3.569,3.559
			c-1.984,0-3.558-1.572-3.558-3.561C27.057,210.854,28.628,209.256,30.614,209.256z M30.613,215.406
			c1.417,0,2.576-1.15,2.576-2.564c0-1.412-1.161-2.592-2.576-2.592c-1.41,0-2.572,1.18-2.572,2.594
			C28.041,214.262,29.204,215.406,30.613,215.406z"/>
		<path fill="#D2B0B0" d="M36.098,209.439c0-0.1,0.086-0.184,0.188-0.184h0.248l4.304,4.98h0.007v-4.689
			c0-0.102,0.08-0.191,0.19-0.188h0.632c0.099-0.002,0.189,0.084,0.189,0.188v6.672c-0.003,0.1-0.092,0.178-0.189,0.178h-0.258
			l-4.304-5.111h-0.008l-0.001,4.822c0.001,0.104-0.076,0.191-0.184,0.191l-0.627-0.002c-0.102,0.002-0.188-0.088-0.19-0.189
			L36.098,209.439z"/>
		<path fill="#D2B0B0" d="M43.833,215.299c0.089-0.131,0.167-0.279,0.259-0.41c0.088-0.125,0.224-0.168,0.336-0.08
			c0.056,0.055,0.821,0.689,1.587,0.689c0.683,0,1.12-0.418,1.118-0.924c-0.005-0.596-0.516-0.975-1.495-1.373
			c-1.012-0.432-1.803-0.955-1.807-2.105c0.002-0.773,0.594-1.84,2.172-1.84c0.993-0.002,1.733,0.523,1.834,0.586
			c0.078,0.055,0.153,0.193,0.059,0.342c-0.081,0.117-0.167,0.258-0.247,0.379c-0.082,0.129-0.212,0.188-0.344,0.094
			c-0.07-0.031-0.77-0.494-1.337-0.494c-0.836,0-1.126,0.525-1.126,0.893c0,0.566,0.439,0.916,1.263,1.246
			c1.149,0.469,2.129,1.014,2.131,2.221c-0.004,1.039-0.924,1.879-2.213,1.879c-1.206,0-1.974-0.637-2.13-0.787
			C43.8,215.537,43.733,215.463,43.833,215.299z"/>
		<path fill="#D2B0B0" d="M51.051,210.293h-1.615c-0.11-0.002-0.186-0.092-0.188-0.188v-0.555c0.001-0.105,0.079-0.191,0.188-0.189
			l4.262-0.004c0.108,0,0.189,0.088,0.188,0.189v0.557c0,0.102-0.079,0.188-0.188,0.188l-1.618,0.004v5.818
			c0,0.098-0.084,0.186-0.185,0.186h-0.653c-0.104,0-0.189-0.088-0.189-0.186L51.051,210.293L51.051,210.293z"/>
		<path fill="#D2B0B0" d="M55.452,209.551c0.004-0.105,0.082-0.191,0.189-0.191l2.695-0.004c1.19,0.004,2.165,0.947,2.16,2.123
			c0.002,0.914-0.604,1.668-1.465,2.014l1.359,2.518c0.069,0.127-0.002,0.289-0.169,0.289h-0.775c-0.072,0-0.137-0.053-0.158-0.088
			l-1.317-2.625l-1.498,0.002l0.008,2.525c-0.007,0.1-0.099,0.189-0.192,0.189l-0.646-0.004c-0.107,0.004-0.189-0.088-0.185-0.186
			L55.452,209.551z M58.259,212.729c0.646,0.004,1.21-0.547,1.21-1.234c0-0.637-0.564-1.17-1.21-1.17h-1.77l0.006,2.402
			L58.259,212.729z"/>
		<path fill="#D2B0B0" d="M62.455,209.551c0-0.102,0.091-0.191,0.19-0.189l0.666-0.004c0.104-0.002,0.185,0.092,0.188,0.189
			l-0.003,4.094c0.003,0.99,0.637,1.766,1.646,1.766c1.021,0,1.666-0.762,1.666-1.742v-4.113c0-0.107,0.08-0.195,0.19-0.191h0.663
			c0.101,0.002,0.19,0.086,0.185,0.191l0.006,4.164c0,1.504-1.141,2.682-2.711,2.682c-1.555,0-2.681-1.178-2.686-2.688v-4.158
			H62.455z"/>
		<path fill="#D2B0B0" d="M73.257,209.256c0.999,0.004,1.721,0.34,2.396,0.93c0.087,0.082,0.087,0.197,0.01,0.273l-0.439,0.447
			c-0.063,0.086-0.154,0.086-0.245-0.004c-0.464-0.4-1.101-0.66-1.714-0.662c-1.422,0.002-2.491,1.188-2.491,2.576
			s1.086,2.57,2.501,2.57c0.729,0,1.225-0.285,1.704-0.66c0.095-0.064,0.18-0.055,0.238-0.01l0.46,0.449
			c0.078,0.07,0.06,0.197-0.014,0.268c-0.679,0.654-1.53,0.963-2.405,0.963c-1.986,0-3.58-1.578-3.585-3.559
			C69.672,210.854,71.271,209.26,73.257,209.256z"/>
		<path fill="#D2B0B0" d="M78.525,210.291l-1.609,0.004c-0.108,0-0.192-0.09-0.192-0.189v-0.555
			c0.003-0.105,0.084-0.189,0.192-0.189l4.263-0.006c0.107,0,0.188,0.09,0.189,0.191l-0.002,0.555c0,0.1-0.08,0.186-0.188,0.186
			l-1.619,0.004l-0.003,5.822c0.003,0.098-0.085,0.186-0.182,0.186h-0.656c-0.1,0.008-0.192-0.088-0.19-0.186L78.525,210.291z"/>
		<path fill="#D2B0B0" d="M82.929,209.551c0.006-0.102,0.091-0.189,0.193-0.189l0.655-0.004c0.099,0.004,0.184,0.088,0.187,0.189
			v6.566c0,0.098-0.084,0.186-0.187,0.186l-0.655-0.002c-0.099,0.002-0.188-0.086-0.188-0.186L82.929,209.551z"/>
		<path fill="#D2B0B0" d="M89.438,209.26c1.981-0.004,3.566,1.594,3.566,3.578c0,1.986-1.585,3.559-3.566,3.559
			c-1.981,0-3.56-1.572-3.56-3.559C85.878,210.854,87.457,209.26,89.438,209.26z M89.437,215.406c1.418,0,2.576-1.154,2.576-2.572
			c0.003-1.402-1.161-2.582-2.576-2.582c-1.405,0-2.569,1.18-2.569,2.588C86.867,214.256,88.031,215.406,89.437,215.406z"/>
		<path fill="#D2B0B0" d="M94.919,209.443c0-0.104,0.092-0.188,0.19-0.184h0.248l4.301,4.977h0.012v-4.689
			c0-0.104,0.078-0.188,0.188-0.189l0.636,0.004c0.098-0.004,0.188,0.084,0.188,0.189l0.004,6.67
			c-0.004,0.098-0.095,0.176-0.19,0.176h-0.261l-4.302-5.111h-0.005v4.826c-0.005,0.1-0.082,0.188-0.188,0.188h-0.627
			c-0.102,0-0.192-0.088-0.188-0.188L94.919,209.443z"/>
	</g>
</g>
<g>
	<path fill="#D2B0B0" d="M117.947,210.291h-1.616c-0.108,0-0.189-0.09-0.188-0.188v-0.557c0-0.104,0.079-0.189,0.188-0.189
		l4.265,0.004c0.107-0.004,0.189,0.088,0.189,0.189v0.555c0,0.096-0.079,0.189-0.189,0.189l-1.616-0.006l0.004,5.824
		c-0.004,0.098-0.095,0.186-0.189,0.186h-0.655c-0.103,0-0.191-0.09-0.191-0.186L117.947,210.291z"/>
	<path fill="#D2B0B0" d="M125.301,209.256c1.986,0,3.572,1.598,3.574,3.588c0,1.979-1.588,3.553-3.574,3.553
		c-1.981,0-3.557-1.572-3.557-3.559C121.744,210.854,123.32,209.26,125.301,209.256z M125.305,215.412
		c1.416,0,2.576-1.154,2.576-2.568s-1.16-2.594-2.576-2.594c-1.406,0.002-2.565,1.18-2.563,2.588
		C122.74,214.256,123.899,215.406,125.305,215.412z"/>
	<path fill="#D2B0B0" d="M130.701,209.551c-0.002-0.105,0.088-0.191,0.189-0.191h0.662c0.107,0,0.191,0.09,0.191,0.191v4.096
		c0,0.984,0.633,1.76,1.641,1.76c1.021,0,1.672-0.764,1.67-1.74v-4.115c0.002-0.102,0.074-0.193,0.188-0.189h0.66
		c0.104,0,0.195,0.09,0.191,0.189l0.004,4.158c-0.004,1.51-1.145,2.691-2.709,2.691c-1.557,0-2.688-1.182-2.689-2.691
		L130.701,209.551z"/>
	<path fill="#D2B0B0" d="M139.379,210.295l-1.617-0.004c-0.105,0-0.186-0.086-0.186-0.188l-0.006-0.553
		c0-0.105,0.084-0.193,0.191-0.193h4.26c0.109,0,0.193,0.092,0.189,0.189v0.557c0.004,0.098-0.08,0.188-0.189,0.188h-1.611
		l-0.008,5.822c0.008,0.098-0.082,0.186-0.186,0.186l-0.654,0.008c-0.098-0.008-0.184-0.096-0.184-0.193V210.295L139.379,210.295z"
		/>
	<path fill="#D2B0B0" d="M150.676,209.26c1.002,0,1.727,0.34,2.402,0.928c0.092,0.076,0.088,0.195,0.01,0.275l-0.438,0.439
		c-0.072,0.09-0.16,0.09-0.242,0.004c-0.471-0.404-1.107-0.664-1.723-0.666c-1.42,0.002-2.482,1.189-2.488,2.576
		c0,1.389,1.078,2.57,2.502,2.57c0.725,0,1.225-0.285,1.703-0.66c0.088-0.064,0.18-0.055,0.238-0.01l0.453,0.449
		c0.08,0.066,0.061,0.203-0.014,0.268c-0.67,0.652-1.521,0.963-2.406,0.963c-1.98,0-3.572-1.578-3.58-3.559
		C147.102,210.859,148.695,209.26,150.676,209.26z"/>
	<path fill="#D2B0B0" d="M158.023,209.256c1.986,0,3.566,1.598,3.574,3.588c0,1.979-1.588,3.553-3.574,3.553
		c-1.977,0-3.557-1.572-3.557-3.559C154.467,210.854,156.047,209.256,158.023,209.256z M158.023,215.406
		c1.416,0,2.58-1.15,2.58-2.568c0-1.408-1.162-2.588-2.578-2.588c-1.41,0-2.566,1.18-2.566,2.594S156.621,215.406,158.023,215.406z"
		/>
	<path fill="#D2B0B0" d="M163.514,209.551c-0.006-0.102,0.08-0.191,0.188-0.191h2.693c1.191,0,2.162,0.947,2.158,2.123
		c0,0.91-0.6,1.664-1.463,2.01l1.359,2.523c0.062,0.127,0,0.283-0.168,0.283h-0.777c-0.076,0-0.133-0.047-0.16-0.088l-1.316-2.623
		h-1.492v2.525c-0.004,0.1-0.094,0.188-0.189,0.188h-0.645c-0.107,0-0.191-0.088-0.191-0.188L163.514,209.551z M166.32,212.732
		c0.639,0,1.205-0.541,1.205-1.232c0-0.646-0.562-1.18-1.209-1.18l-1.764,0.006v2.404h1.768V212.732z"/>
	<path fill="#D2B0B0" d="M170.602,209.551c0-0.1,0.08-0.191,0.189-0.191h2.256c1.225,0.002,2.225,0.992,2.225,2.189
		c0,1.234-0.998,2.234-2.209,2.234l-1.441,0.002v2.328c0,0.1-0.094,0.188-0.189,0.188h-0.641c-0.109,0-0.184-0.088-0.189-0.188
		V209.551L170.602,209.551z M172.986,212.809c0.691,0,1.26-0.553,1.26-1.27c0-0.664-0.568-1.189-1.26-1.189h-1.365l-0.002,2.459
		H172.986z"/>
	<path fill="#D2B0B0" d="M176.543,215.295c0.086-0.127,0.166-0.275,0.256-0.404c0.092-0.125,0.225-0.172,0.336-0.082
		c0.055,0.055,0.824,0.689,1.588,0.693c0.684-0.006,1.119-0.42,1.119-0.93c0-0.594-0.518-0.969-1.496-1.377
		c-1.014-0.426-1.803-0.947-1.801-2.102c0-0.773,0.59-1.834,2.17-1.838c0.988,0,1.727,0.523,1.828,0.588
		c0.082,0.053,0.16,0.191,0.062,0.342c-0.08,0.119-0.166,0.254-0.246,0.373c-0.08,0.131-0.211,0.191-0.35,0.1
		c-0.068-0.039-0.764-0.498-1.34-0.498c-0.832,0.006-1.117,0.527-1.117,0.898c0,0.561,0.434,0.912,1.256,1.244
		c1.152,0.467,2.133,1.01,2.133,2.223c0,1.033-0.92,1.871-2.207,1.871c-1.213,0-1.975-0.631-2.129-0.783
		C176.512,215.537,176.441,215.463,176.543,215.295z"/>
	<path fill="#D2B0B0" d="M186.633,209.551c0-0.102,0.082-0.191,0.174-0.191h2.285c1.908,0,3.479,1.557,3.479,3.459
		c0,1.926-1.57,3.48-3.48,3.488l-2.283-0.008c-0.096,0.008-0.174-0.088-0.18-0.186L186.633,209.551z M188.951,215.355
		c1.461-0.004,2.521-1.072,2.521-2.537c-0.004-1.453-1.062-2.518-2.523-2.518h-1.305l-0.002,5.055H188.951L188.951,215.355z"/>
	<path fill="#D2B0B0" d="M194.186,210.035c-0.084-0.09-0.053-0.229,0.059-0.34c0.145-0.111,0.924-0.736,0.924-1.758
		c-0.031,0.014-0.162,0.045-0.303,0.045c-0.477,0-0.877-0.387-0.879-0.867c0-0.488,0.402-0.883,0.91-0.879
		c0.484,0,1.062,0.299,1.064,1.393c-0.002,1.285-0.824,2.221-1.234,2.592c-0.131,0.111-0.24,0.111-0.338,0.01L194.186,210.035z"/>
	<path fill="#D2B0B0" d="M198.01,209.551c0.004-0.105,0.078-0.191,0.191-0.189l3.963-0.004c0.109,0,0.186,0.092,0.188,0.189v0.557
		c0,0.102-0.076,0.188-0.188,0.188h-3.133v2.021l2.646,0.006c0.098-0.006,0.188,0.086,0.189,0.184v0.555
		c-0.002,0.115-0.094,0.188-0.189,0.191h-2.645l-0.002,2.129h3.133c0.109,0,0.186,0.086,0.188,0.189v0.547
		c0,0.098-0.076,0.186-0.188,0.186h-3.965c-0.109,0-0.188-0.088-0.189-0.186V209.551L198.01,209.551z"/>
	<path fill="#D2B0B0" d="M205.301,210.295l-1.617-0.004c-0.105,0-0.188-0.086-0.193-0.186v-0.555c0-0.104,0.088-0.193,0.193-0.193
		h4.262c0.105,0,0.189,0.088,0.189,0.189v0.557c0,0.098-0.084,0.188-0.189,0.188h-1.613l-0.002,5.822
		c0,0.098-0.088,0.186-0.189,0.186l-0.656,0.008c-0.098-0.008-0.184-0.096-0.184-0.193V210.295L205.301,210.295z"/>
	<path fill="#D2B0B0" d="M208.393,216.037l3.045-6.668c0.023-0.055,0.117-0.113,0.164-0.109l0.098-0.004
		c0.055,0,0.145,0.053,0.178,0.117l3.02,6.67c0.061,0.125-0.023,0.256-0.17,0.256h-0.625c-0.115,0-0.189-0.061-0.221-0.152
		l-0.623-1.352h-3.238c-0.195,0.457-0.406,0.904-0.607,1.352c-0.027,0.074-0.105,0.152-0.223,0.152h-0.631
		C208.412,216.299,208.332,216.168,208.393,216.037z M212.883,213.941l-1.221-2.717h-0.047l-1.211,2.719L212.883,213.941z"/>
	<path fill="#D2B0B0" d="M216.973,210.291h-1.623c-0.107,0-0.186-0.09-0.186-0.188v-0.557c0-0.1,0.078-0.189,0.186-0.189
		l4.268,0.004c0.105-0.004,0.188,0.088,0.191,0.189v0.555c-0.006,0.096-0.084,0.189-0.191,0.189l-1.619-0.004l0.006,5.822
		c-0.006,0.098-0.094,0.186-0.188,0.186h-0.658c-0.1-0.002-0.186-0.088-0.189-0.186L216.973,210.291z"/>
	<path fill="#D2B0B0" d="M220.93,215.295c0.084-0.127,0.166-0.273,0.256-0.404c0.088-0.125,0.23-0.172,0.34-0.082
		c0.057,0.055,0.818,0.689,1.58,0.686c0.686,0.004,1.123-0.414,1.123-0.92c0.004-0.596-0.516-0.967-1.494-1.373
		c-1.014-0.432-1.807-0.955-1.805-2.104c0-0.771,0.59-1.842,2.168-1.842c0.992,0.004,1.738,0.523,1.834,0.594
		c0.078,0.047,0.156,0.188,0.059,0.34c-0.08,0.111-0.168,0.252-0.246,0.373c-0.082,0.129-0.207,0.184-0.346,0.094
		c-0.074-0.037-0.764-0.494-1.34-0.49c-0.832-0.004-1.119,0.525-1.121,0.887c0,0.566,0.438,0.918,1.258,1.252
		c1.152,0.465,2.131,1.008,2.131,2.221c0,1.035-0.92,1.875-2.213,1.875c-1.207,0-1.971-0.635-2.125-0.787
		C220.895,215.537,220.826,215.467,220.93,215.295z"/>
</g>
<line fill="none" stroke="#D2B0B0" stroke-width="1.0259" stroke-miterlimit="10" x1="108.311" y1="207.092" x2="108.311" y2="218.238"/>
<polygon fill="#D2B0B0" points="130.076,79.08 115.065,87.412 100.051,79.083 100.053,64.967 104.045,67.515 104.045,76.61 
	115.063,82.64 125.995,76.571 125.993,64.971 122.353,60.222 125.995,55.74 125.993,41.077 115.063,34.569 104.129,40.995 
	104.129,50.276 100.051,53.053 100.051,38.297 115.063,29.911 130.074,38.297 130.08,57.131 127.297,60.222 130.074,63.812 "/>
<polygon fill="#D2B0B0" points="145.092,79.083 130.074,87.416 115.065,79.08 115.063,64.967 119.056,67.52 119.06,76.61 
	130.076,82.641 141.008,76.571 141.008,64.965 137.365,60.222 141.01,55.742 141.012,41.077 130.074,34.569 119.143,40.986 
	119.143,50.278 115.065,53.053 115.065,38.297 130.074,29.911 145.092,38.297 145.094,57.128 142.309,60.222 145.092,63.81 "/>
<polygon fill="#D2B0B0" points="122.928,98.464 104.053,88.037 104.053,92.684 122.925,103.235 141.609,92.948 141.609,88.11 "/>
<polygon fill="#D2B0B0" points="146.201,194.896 104.891,194.893 104.887,190.959 146.201,190.955 "/>
<line fill="none" stroke="#D2B0B0" stroke-width="0.8552" stroke-miterlimit="10" x1="38.263" y1="194.488" x2="94.606" y2="194.492"/>
<line fill="none" stroke="#D2B0B0" stroke-width="0.8552" stroke-miterlimit="10" x1="156.867" y1="194.488" x2="213.209" y2="194.488"/>
<line fill="none" stroke="#D2B0B0" stroke-width="0.9989" stroke-miterlimit="10" x1="156.865" y1="191.369" x2="233.715" y2="191.369"/>
<line fill="none" stroke="#D2B0B0" stroke-width="0.9989" stroke-miterlimit="10" x1="17.757" y1="191.369" x2="94.606" y2="191.369"/>
</svg>
