<?xml version="1.0" encoding="utf-8"?>
<!-- Generator: Adobe Illustrator 16.0.0, SVG Export Plug-In . SVG Version: 6.00 Build 0)  -->
<!DOCTYPE svg PUBLIC "-//W3C//DTD SVG 1.1//EN" "http://www.w3.org/Graphics/SVG/1.1/DTD/svg11.dtd">
<svg version="1.1" id="Calque_1" xmlns="http://www.w3.org/2000/svg" xmlns:xlink="http://www.w3.org/1999/xlink" x="0px" y="0px"
	 width="400px" height="330px" viewBox="0 0 400 330" enable-background="new 0 0 400 330" xml:space="preserve">
<g>
	<path d="M193.54,266.132l-11.936-13.092l0.002-7.541l0.295-0.225c12.834-9.796,20.195-25.312,20.195-42.572
		c0-9.594-3.07-20.488-8.423-29.891l-6.47-11.222c-5.027-9.256-11.62-23.403-10.943-39.509
		c0.994-23.561,12.249-45.593,30.881-60.448l0.549-0.438l11.229,12.313v6.702l-0.293,0.225c-12.647,9.732-20.82,26.033-20.82,41.528
		c0,8.395,1.889,16.431,5.464,23.239c0.488,0.93,1.847,3.696,3.567,7.198c2.981,6.069,7.064,14.381,8.537,17.013
		c6.503,11.604,9.801,23.475,9.801,35.28c0,14.381-5.392,36.622-31.08,60.914L193.54,266.132z M183.104,252.46l10.513,11.531
		c24.825-23.719,30.057-45.314,30.057-59.298c0-11.546-3.233-23.169-9.609-34.548c-1.493-2.667-5.586-11-8.575-17.083
		c-1.647-3.354-3.07-6.25-3.549-7.163c-3.687-7.022-5.636-15.3-5.636-23.937c0-15.824,8.276-32.458,21.113-42.49v-5.384
		l-9.889-10.844c-17.965,14.577-28.806,36.004-29.771,58.899c-0.662,15.734,5.82,29.629,10.753,38.713l6.463,11.208
		c5.479,9.625,8.621,20.791,8.621,30.637c0,17.599-7.462,33.444-20.49,43.537L183.104,252.46z"/>
</g>
<g>
	<path d="M193.834,250.011h-11.48v-1h11.094c12.381-11.311,19.767-28.167,19.767-45.135c0-10.608-2.784-21.255-8.051-30.788
		l-1.091-1.982c-2.505-4.558-7.718-14.041-9.001-16.197c-5.538-9.315-8.465-20.553-8.465-32.5c0-19.033,7.63-36.383,20.41-46.411
		l0.136-0.106h10.505v1h-10.159c-12.458,9.856-19.891,26.856-19.891,45.518c0,11.767,2.878,22.829,8.324,31.989
		c1.292,2.171,6.51,11.665,9.019,16.227l1.089,1.98c5.349,9.681,8.176,20.495,8.176,31.271c0,17.31-7.565,34.508-20.237,46.005
		L193.834,250.011z"/>
</g>
<g>
	<g>
		<path d="M109.78,191.939l-12.455-12.471v-5.214l51.939-51.878l12.035,12.05l-0.002,6.057L109.78,191.939z M98.825,178.848
			l10.956,10.971l50.016-49.957l0.002-4.814l-10.536-10.549l-50.438,50.378V178.848z"/>
	</g>
	<g>
		<polygon points="110.228,177.131 98.632,177.131 98.632,176.131 109.814,176.131 149.261,136.735 159.879,136.735 
			159.879,137.735 149.675,137.735 		"/>
	</g>
</g>
<g>
	<g>
		<path d="M253.103,203.543l-12.455-12.471v-5.214l51.941-51.878l12.034,12.05l-0.004,6.057L253.103,203.543z M242.147,190.451
			l10.957,10.971l50.015-49.957l0.004-4.814l-10.536-10.549l-50.439,50.378V190.451z"/>
	</g>
	<g>
		<polygon points="253.552,188.736 241.954,188.736 241.954,187.736 253.138,187.736 292.583,148.339 303.201,148.339 
			303.201,149.339 292.997,149.339 		"/>
	</g>
</g>
<polygon points="182.354,157.091 143.608,157.091 129.972,170.712 189.746,170.712 "/>
<polygon points="218.519,170.712 257.265,170.712 270.901,157.091 211.128,157.091 "/>
<path fill="#000100" d="M88.746,168.622c0,3.051-2.475,5.524-5.525,5.524s-5.524-2.474-5.524-5.524c0-3.053,3.667-6.07,5.524-10.721
	C85.225,162.33,88.746,165.569,88.746,168.622z"/>
<path fill="#000100" d="M321.05,168.622c0,3.051-2.475,5.524-5.525,5.524S310,171.673,310,168.622c0-3.053,3.667-6.07,5.524-10.721
	C317.528,162.33,321.05,165.569,321.05,168.622z"/>
<g>
	<g>
		<path fill="#1D1D1B" d="M118.138,52.769l0.339-0.237c1.023,0.932,2.601,1.432,3.826,0.577c1.136-0.793,1.465-2.208,0.651-3.373
			c-1.916-2.745-5.717,1.115-8.147-2.367c-1.329-1.903-0.661-3.839,1.139-5.096c0.605-0.423,1.303-0.712,1.955-1.035l1.554,1.724
			l-0.339,0.237c-0.883-0.92-1.984-1.051-3.047-0.31c-1.121,0.783-1.204,2.048-0.452,3.125c1.916,2.744,5.935-1.181,8.304,2.213
			c1.339,1.918,0.364,4.2-1.377,5.416c-0.767,0.535-1.688,0.915-2.607,1.074L118.138,52.769z"/>
		<path fill="#1D1D1B" d="M134.048,41.93c0.57,0.481,1.756,1.564,2.204,1.764c0.414,0.177,0.945,0.016,1.444-0.272l0.234,0.405
			c-0.593,0.343-1.219,0.662-1.812,1.004c-0.764,0.441-1.503,0.89-2.259,1.346l-0.234-0.405l0.281-0.162
			c0.39-0.225,0.812-0.573,0.561-1.01c-0.099-0.171-0.476-0.536-0.756-0.77l-2.085-1.811l-3.665,2.115l0.287,1.29
			c0.175,0.771,0.371,1.615,0.65,2.099c0.423,0.732,0.919,0.404,1.483,0.121l0.359-0.207l0.234,0.405
			c-0.608,0.351-1.25,0.68-1.858,1.031c-0.624,0.359-1.254,0.744-1.869,1.12l-0.234-0.405c0.889-0.658,0.988-0.882,0.874-1.98
			c-0.074-0.706-0.238-1.422-0.369-2.116l-1.218-6.719c-0.083-0.431-0.213-1.125-0.483-1.593c-0.09-0.156-0.162-0.281-0.265-0.388
			c0.237-0.345,0.497-0.724,0.508-1.208l0.265-0.153L134.048,41.93z M127.81,43.368l3.212-1.854l-4.315-3.621l-0.031,0.018
			L127.81,43.368z"/>
		<path fill="#1D1D1B" d="M143.452,39.333c0.531,1.143,1.159,0.871,2.032,0.485l0.197,0.425c-0.824,0.362-1.583,0.695-2.333,1.044
			c-0.735,0.341-1.478,0.706-2.238,1.079l-0.197-0.425c0.858-0.418,1.471-0.723,0.94-1.865l-1.835-3.951l-5.596-3.117
			c-0.785-0.449-0.851-0.379-1.852-0.013l-0.197-0.423c0.318-0.128,1.533-0.673,2.285-1.021c0.669-0.312,1.307-0.647,1.977-0.96
			l0.197,0.425c-0.261,0.121-0.915,0.425-0.755,0.768c0.091,0.195,0.494,0.465,1.009,0.762l3.78,2.154l0.781-3.915
			c0.067-0.369,0.265-1.097,0.091-1.472c-0.22-0.474-0.547-0.322-1.379,0.064l-0.197-0.423c0.628-0.271,1.272-0.551,1.893-0.839
			c0.44-0.205,0.866-0.442,1.324-0.656l0.197,0.425c-0.678,0.334-0.783,0.919-0.915,1.576l-1.162,5.66L143.452,39.333z"/>
		<path fill="#1D1D1B" d="M164.669,26.41l-1.071-3.775c-0.344-1.212-1.007-1.043-1.93-0.8l-0.128-0.454
			c0.923-0.243,1.742-0.457,2.573-0.692c0.745-0.211,1.497-0.462,2.276-0.68l0.128,0.45c-0.913,0.278-1.566,0.482-1.222,1.694
			l2.466,8.694c0.344,1.212,1.007,1.043,1.93,0.8l0.128,0.45c-0.784,0.203-1.568,0.407-2.348,0.628
			c-0.814,0.231-1.605,0.475-2.501,0.748l-0.128-0.451c0.913-0.277,1.566-0.481,1.222-1.693l-1.194-4.209l-6.997,1.985l1.194,4.208
			c0.344,1.213,1.007,1.043,1.93,0.8l0.127,0.45c-0.831,0.236-1.585,0.413-2.348,0.629c-0.831,0.236-1.64,0.484-2.501,0.747
			l-0.127-0.45c0.913-0.277,1.566-0.481,1.222-1.694l-2.467-8.693c-0.344-1.213-1.007-1.043-1.93-0.8l-0.127-0.454
			c0.819-0.214,1.62-0.423,2.399-0.644c0.797-0.227,1.588-0.47,2.45-0.729l0.127,0.45c-0.913,0.277-1.566,0.481-1.222,1.694
			l1.071,3.775L164.669,26.41z"/>
		<path fill="#1D1D1B" d="M178.526,28.801c0.207,1.243,0.885,1.149,1.83,1.01l0.077,0.462c-0.891,0.13-1.711,0.249-2.528,0.385
			c-0.799,0.133-1.613,0.287-2.445,0.444l-0.077-0.462c0.938-0.175,1.61-0.305,1.403-1.549l-0.716-4.298l-4.564-4.496
			c-0.637-0.643-0.72-0.593-1.782-0.507l-0.077-0.465c0.341-0.039,1.658-0.24,2.475-0.376c0.728-0.122,1.433-0.275,2.161-0.394
			l0.077,0.462c-0.284,0.048-0.995,0.166-0.933,0.539c0.036,0.213,0.353,0.58,0.77,1.003l3.07,3.085l1.797-3.567
			c0.163-0.337,0.548-0.985,0.479-1.394c-0.086-0.516-0.441-0.456-1.347-0.306l-0.077-0.465c0.678-0.095,1.374-0.192,2.048-0.305
			c0.48-0.08,0.954-0.195,1.451-0.275l0.077,0.462c-0.743,0.143-1,0.678-1.303,1.276l-2.628,5.147L178.526,28.801z"/>
		<path fill="#1D1D1B" d="M184.779,17.033c0.811-0.022,1.619-0.08,2.427-0.139c0.611-0.044,1.237-0.126,1.991-0.179
			c1.85-0.134,4.563,0.447,4.766,3.248c0.153,2.12-1.716,3.735-3.602,3.871c-0.359,0.026-0.648,0.029-0.917,0.049l-0.042-0.593
			c0.236,0.019,0.451,0.003,0.685-0.014c1.544-0.111,2.117-1.688,2.023-2.98c-0.18-2.496-1.973-3.071-3.158-2.985
			c-0.269,0.02-0.591,0.061-0.786,0.11l0.733,10.147c0.091,1.258,0.774,1.226,1.746,1.174l0.034,0.467
			c-0.88,0.063-1.655,0.084-2.445,0.141c-0.862,0.062-1.705,0.142-2.602,0.224l-0.034-0.467c0.951-0.086,1.632-0.153,1.541-1.411
			l-0.617-8.549c-0.1-1.383-0.361-1.743-1.708-1.646L184.779,17.033z"/>
		<path fill="#1D1D1B" d="M200.411,22.012l2.375,0.038c1.457,0.023,1.476-1.11,1.536-1.523l0.36,0.004
			c-0.043,0.396-0.095,1.366-0.105,2.015c-0.009,0.575,0.067,1.423,0.04,1.999l-0.359-0.005c0.028-1.728-0.548-1.736-1.933-1.759
			l-1.926-0.031l-0.049,3.059c-0.032,1.996,0.032,2.501,1.813,2.53l1.115,0.018c1.765-0.062,2.561-0.282,3.293-2.196l0.43,0.079
			c-0.302,0.895-0.586,1.808-0.781,2.74c-1.799-0.028-3.598-0.094-5.396-0.122c-1.332-0.021-2.663-0.043-3.995-0.029l0.007-0.467
			c1.565,0.024,1.714-0.261,1.742-2.006l0.128-7.987c0.024-1.476-0.263-1.552-1.683-1.629l0.007-0.471
			c1.205,0.055,2.428,0.075,3.634,0.095c1.727,0.027,3.436,0.055,5.182,0.051l-0.044,2.68l-0.36,0.085
			c-0.243-1.696-1.045-2.213-2.844-2.241l-2.105-0.034L200.411,22.012z"/>
		<path fill="#1D1D1B" d="M215.799,26.771l0.41,0.059c0.114,1.379,0.928,2.821,2.407,3.03c1.372,0.193,2.578-0.617,2.776-2.025
			c0.469-3.315-4.945-3.08-4.352-7.286c0.325-2.299,2.134-3.262,4.308-2.954c0.73,0.103,1.438,0.366,2.137,0.574l-0.037,2.321
			l-0.41-0.058c-0.02-1.275-0.736-2.122-2.02-2.303c-1.354-0.191-2.277,0.678-2.461,1.979c-0.468,3.315,5.149,3.182,4.57,7.28
			c-0.327,2.317-2.596,3.324-4.699,3.026c-0.927-0.131-1.858-0.48-2.642-0.991L215.799,26.771z"/>
		<path fill="#1D1D1B" d="M238.085,23.618l-0.474-0.109c0.165-0.959,0.362-1.579-1.042-1.901l-2.667-0.612l-2.252,9.81
			c-0.281,1.229,0.381,1.398,1.307,1.63l-0.104,0.456c-0.842-0.193-1.589-0.401-2.36-0.579c-0.843-0.193-1.671-0.365-2.553-0.549
			l0.104-0.456c0.935,0.196,1.605,0.331,1.887-0.896l2.252-9.81l-2.299-0.527c-1.579-0.363-1.75,0.06-2.31,1.132l-0.457-0.104
			l0.834-2.746l0.351,0.081c0.085,0.518,0.555,0.644,0.993,0.745l7.967,1.828c0.631,0.146,1.106,0.088,1.253-0.229l0.368,0.085
			L238.085,23.618z"/>
		<path fill="#1D1D1B" d="M253.262,26.594c-1.363-0.463-1.572,0.208-2.277,2.287l-1.666,4.909c-0.786,2.317-2.824,3.564-5.824,2.547
			c-2.812-0.954-4.037-2.891-3.105-5.806l2.111-6.221c0.404-1.193-0.237-1.43-1.135-1.753l0.15-0.439
			c0.795,0.289,1.573,0.572,2.341,0.832c0.783,0.267,1.573,0.516,2.432,0.783l-0.15,0.443c-0.909-0.29-1.562-0.492-1.968,0.7
			l-1.966,5.795c-0.688,2.028-0.688,4.214,1.97,5.116c2.83,0.96,3.843-1.129,4.241-2.305l1.648-4.857
			c0.948-2.796,0.829-2.779-0.671-3.345l0.15-0.439c0.71,0.261,1.42,0.521,2.137,0.763c0.579,0.197,1.153,0.354,1.732,0.546
			L253.262,26.594z"/>
		<path fill="#1D1D1B" d="M256.981,29.812c0.684-1.47-0.13-1.729-0.856-2.087l0.197-0.423c0.622,0.329,1.274,0.634,1.911,0.93
			c0.687,0.319,1.632,0.72,2.84,1.279c4.229,1.969,5.217,5.864,3.871,8.754c-0.752,1.617-3.591,5.241-9.371,2.552
			c-0.832-0.388-1.585-0.777-2.352-1.135c-0.735-0.342-1.461-0.66-2.203-0.985l0.197-0.425c1.025,0.358,1.514,0.546,2.08-0.542
			L256.981,29.812z M255.018,38.214c-0.586,1.258,0.244,1.822,1.044,2.194c3.526,1.642,5.925-0.48,7.057-2.913
			c1.421-3.053,0.487-6.169-2.663-7.636c-0.67-0.312-1.003-0.406-1.304-0.527L255.018,38.214z"/>
		<path fill="#1D1D1B" d="M271.323,36.695c0.624-1.095,0.038-1.449-0.782-1.937l0.232-0.404c0.726,0.435,1.437,0.86,2.141,1.261
			c0.719,0.41,1.447,0.805,2.238,1.231l-0.231,0.407c-0.838-0.457-1.441-0.78-2.065,0.315l-4.473,7.851
			c-0.624,1.095-0.039,1.449,0.781,1.938l-0.231,0.406c-0.751-0.428-1.405-0.842-2.094-1.234c-0.751-0.428-1.495-0.831-2.286-1.261
			l0.232-0.406c0.838,0.456,1.44,0.779,2.064-0.315L271.323,36.695z"/>
		<path fill="#1D1D1B" d="M283.847,42.122c2.963,2.045,3.552,6.169,1.609,8.984c-1.871,2.711-5.852,4.011-9.097,1.771
			c-2.963-2.045-3.551-6.168-1.608-8.983C276.621,41.183,280.602,39.884,283.847,42.122z M276.864,52.526
			c2.163,1.493,4.814,0.566,6.665-2.115c1.554-2.252,2.346-6.189-0.188-7.938c-2.163-1.492-4.814-0.566-6.665,2.115
			C275.123,46.842,274.331,50.778,276.864,52.526z"/>
	</g>
</g>
<g>
	<path fill="#1D1D1B" d="M134.529,287.764l-0.305-0.176c0.567-1.815-0.409-3.229-1.96-4.124c-2.452-1.415-5.105-0.083-6.408,2.175
		c-1.383,2.397-1.298,5.642,1.196,7.081c1.094,0.632,1.886,0.571,2.182,0.539l1.191-2.064c0.583-1.012,0.057-1.315-0.677-1.739
		l0.208-0.361c0.643,0.39,1.272,0.771,1.896,1.131c0.637,0.367,1.283,0.722,1.706,0.949l-0.208,0.36
		c-0.457-0.264-0.983-0.567-1.567,0.443l-1.047,1.815l0.088,0.328l-0.136,0.235c-1.354-0.246-2.853-0.594-4.058-1.289
		c-3.893-2.247-3.561-6.119-2.418-8.1c1.679-2.91,5.177-3.754,8.073-2.083c1.233,0.712,2.227,1.71,3.129,2.803L134.529,287.764z"/>
	<path fill="#1D1D1B" d="M138.8,293.203l-1.54,3.377c-0.465,1.02,0.082,1.286,0.847,1.652l-0.172,0.379
		c-0.699-0.318-1.312-0.634-1.952-0.926c-0.699-0.318-1.39-0.615-2.124-0.933l0.173-0.379c0.708,0.376,1.391,0.459,1.769-0.371
		l3.365-7.381c0.465-1.019-0.082-1.285-0.847-1.651l0.173-0.383c0.794,0.38,1.486,0.713,2.199,1.038
		c0.509,0.232,1.032,0.436,1.964,0.864c2.751,1.255,2.659,3.076,2.188,4.11c-0.564,1.237-1.914,1.729-3.202,1.546
		c0.442,2.54,0.609,4.023,0.917,5.008c0.227,0.736,0.484,1.328,1.227,1.667l-0.172,0.379c-0.364-0.166-0.715-0.361-1.079-0.527
		c-0.408-0.186-0.836-0.364-1.25-0.535c-0.661-2.06-0.86-4.207-1.158-6.33L138.8,293.203z M141.904,288.711
		c-0.364-0.166-0.631-0.235-0.913-0.312l-1.945,4.266c0.198,0.143,0.491,0.312,0.738,0.424c1.791,0.816,3.027-0.044,3.505-1.092
		C143.866,290.73,143.622,289.494,141.904,288.711z"/>
	<path fill="#1D1D1B" d="M155.461,302.081c0.006,0.663-0.034,2.089,0.092,2.506c0.122,0.381,0.538,0.645,1.021,0.812l-0.137,0.394
		c-0.574-0.2-1.152-0.436-1.727-0.636c-0.74-0.258-1.471-0.496-2.216-0.738l0.137-0.394l0.272,0.095
		c0.377,0.132,0.857,0.215,1.004-0.208c0.058-0.167,0.084-0.632,0.079-0.956l0.008-2.453l-3.55-1.237l-0.701,0.941
		c-0.417,0.566-0.871,1.188-1.034,1.656c-0.248,0.71,0.261,0.854,0.78,1.067l0.347,0.121l-0.137,0.393
		c-0.589-0.205-1.183-0.445-1.772-0.651c-0.604-0.21-1.229-0.411-1.838-0.606l0.137-0.393c0.958,0.215,1.167,0.152,1.839-0.562
		c0.431-0.459,0.817-0.985,1.209-1.476l3.812-4.719c0.242-0.306,0.633-0.796,0.791-1.249c0.053-0.151,0.095-0.272,0.107-0.403
		c0.37-0.041,0.775-0.086,1.108-0.359l0.257,0.089L155.461,302.081z M150.873,298.72l3.112,1.085l-0.069-5.005l-0.03-0.01
		L150.873,298.72z"/>
	<path fill="#1D1D1B" d="M161.906,295.712c0.689,0.21,1.387,0.39,2.085,0.568c0.527,0.136,1.078,0.244,1.729,0.412
		c1.597,0.41,3.72,1.666,3.099,4.084c-0.47,1.83-2.501,2.663-4.129,2.245c-0.31-0.08-0.554-0.159-0.787-0.219l0.131-0.512
		c0.193,0.083,0.379,0.131,0.581,0.183c1.333,0.342,2.261-0.824,2.548-1.94c0.553-2.155-0.795-3.146-1.818-3.409
		c-0.232-0.06-0.516-0.115-0.694-0.128l-2.25,8.759c-0.279,1.085,0.306,1.252,1.139,1.482l-0.104,0.403
		c-0.759-0.195-1.418-0.397-2.1-0.572c-0.744-0.191-1.477-0.363-2.256-0.547l0.104-0.403c0.825,0.196,1.418,0.332,1.697-0.754
		l1.896-7.379c0.307-1.193,0.189-1.571-0.974-1.87L161.906,295.712z"/>
	<path fill="#1D1D1B" d="M180.066,304.721l0.562-3.443c0.18-1.105-0.417-1.219-1.251-1.371l0.067-0.406
		c0.834,0.152,1.574,0.289,2.332,0.413c0.679,0.11,1.379,0.192,2.09,0.305l-0.067,0.41c-0.84-0.121-1.442-0.203-1.623,0.902
		l-1.294,7.928c-0.181,1.106,0.417,1.22,1.251,1.372l-0.067,0.411c-0.708-0.132-1.417-0.264-2.127-0.38
		c-0.742-0.121-1.471-0.225-2.295-0.343l0.067-0.41c0.839,0.121,1.442,0.203,1.623-0.902l0.627-3.838l-6.38-1.042l-0.627,3.838
		c-0.18,1.105,0.417,1.219,1.252,1.372l-0.067,0.41c-0.758-0.124-1.432-0.267-2.127-0.38c-0.758-0.124-1.503-0.229-2.295-0.342
		l0.067-0.411c0.84,0.121,1.442,0.203,1.623-0.902l1.294-7.928c0.181-1.105-0.417-1.22-1.251-1.372l0.067-0.406
		c0.74,0.137,1.464,0.271,2.174,0.388c0.727,0.118,1.456,0.222,2.248,0.33l-0.067,0.411c-0.839-0.121-1.442-0.203-1.623,0.902
		l-0.562,3.442L180.066,304.721z"/>
	<path fill="#1D1D1B" d="M187.128,301.997c0.096-1.116-0.508-1.185-1.352-1.273l0.036-0.412c0.748,0.081,1.48,0.16,2.198,0.222
		c0.733,0.063,1.468,0.11,2.267,0.16l-0.036,0.415c-0.847-0.057-1.454-0.094-1.55,1.022l-0.689,8.005
		c-0.096,1.116,0.508,1.185,1.352,1.273l-0.036,0.414c-0.766-0.065-1.448-0.156-2.15-0.217c-0.766-0.066-1.516-0.114-2.315-0.167
		l0.036-0.415c0.847,0.057,1.454,0.093,1.55-1.023L187.128,301.997z"/>
	<path fill="#1D1D1B" d="M202.666,303.984l-0.4-0.007c-0.271-1.876-1.586-2.65-3.377-2.682c-1.839-0.031-4.531,1.154-4.597,4.992
		c-0.055,3.23,2.208,5.589,4.67,5.631c1.583,0.027,2.913-1.038,3.262-2.711l0.365,0.102l-0.408,2.329
		c-0.678,0.404-2.493,0.805-3.548,0.786c-3.742-0.063-6.067-2.52-6.005-6.117c0.056-3.278,3.023-5.579,6.157-5.524
		c1.295,0.021,2.535,0.459,3.759,0.912L202.666,303.984z"/>
	<path fill="#1D1D1B" d="M212.179,302.338c-0.169-1.43-0.904-1.246-1.621-1.178l-0.049-0.408c0.623-0.042,1.259-0.116,1.878-0.189
		c0.668-0.079,1.569-0.218,2.745-0.361c4.113-0.486,6.678,1.997,7.01,4.809c0.187,1.572-0.268,5.637-5.891,6.301
		c-0.811,0.096-1.561,0.152-2.308,0.24c-0.715,0.085-1.411,0.184-2.124,0.283l-0.049-0.413c0.941-0.208,1.398-0.294,1.318-1.38
		L212.179,302.338z M214.615,309.604c0.145,1.223,1.035,1.263,1.813,1.171c3.432-0.405,4.253-3.128,3.974-5.495
		c-0.351-2.97-2.511-4.89-5.576-4.527c-0.651,0.077-0.947,0.16-1.231,0.21L214.615,309.604z"/>
	<path fill="#1D1D1B" d="M228.041,303.318l2.066-0.433c1.268-0.266,1.062-1.252,1.033-1.622l0.312-0.066
		c0.041,0.352,0.187,1.203,0.305,1.767c0.105,0.501,0.338,1.221,0.427,1.726l-0.312,0.065c-0.315-1.503-0.816-1.398-2.021-1.146
		l-1.676,0.351l0.559,2.662c0.363,1.737,0.519,2.163,2.068,1.838l0.971-0.203c1.518-0.4,2.164-0.748,2.423-2.551l0.39-0.017
		c-0.087,0.836-0.154,1.684-0.141,2.53c-1.565,0.328-3.138,0.625-4.703,0.953c-1.158,0.242-2.316,0.485-3.469,0.76l-0.085-0.407
		c1.361-0.286,1.435-0.562,1.116-2.081l-1.457-6.951c-0.269-1.283-0.532-1.294-1.778-1.082l-0.086-0.407
		c1.056-0.188,2.12-0.411,3.169-0.631c1.503-0.315,2.99-0.627,4.502-0.976l0.489,2.332l-0.297,0.145
		c-0.543-1.423-1.34-1.714-2.905-1.386l-1.831,0.384L228.041,303.318z"/>
	<path fill="#1D1D1B" d="M237.166,304.799l0.354-0.102c0.594,1.078,1.777,1.953,3.055,1.586c1.184-0.341,1.868-1.438,1.519-2.652
		c-0.823-2.86-5.133-0.705-6.177-4.335c-0.571-1.984,0.548-3.422,2.424-3.961c0.631-0.182,1.301-0.225,1.943-0.31l0.812,1.897
		l-0.354,0.103c-0.479-1.028-1.367-1.455-2.475-1.137c-1.169,0.336-1.603,1.377-1.279,2.5c0.823,2.86,5.334,0.713,6.353,4.251
		c0.575,1.999-0.901,3.64-2.717,4.162c-0.8,0.23-1.684,0.284-2.504,0.154L237.166,304.799z"/>
	<path fill="#1D1D1B" d="M245.152,295.069c-0.371-1.057-0.95-0.871-1.756-0.605l-0.138-0.389c0.715-0.233,1.415-0.462,2.095-0.7
		c0.695-0.244,1.385-0.503,2.135-0.786l0.138,0.393c-0.795,0.296-1.364,0.512-0.993,1.569l2.657,7.583
		c0.371,1.058,0.95,0.872,1.756,0.606l0.138,0.393c-0.725,0.254-1.385,0.451-2.05,0.685c-0.725,0.254-1.43,0.518-2.18,0.798
		l-0.138-0.393c0.796-0.296,1.364-0.512,0.994-1.569L245.152,295.069z"/>
	<path fill="#1D1D1B" d="M260.421,290.313l-0.322,0.14c-1.122-1.536-2.839-1.593-4.483-0.879c-2.598,1.129-3.106,4.055-2.067,6.447
		c1.104,2.54,3.764,4.403,6.405,3.255c1.16-0.504,1.583-1.176,1.733-1.434l-0.95-2.187c-0.466-1.072-1.023-0.829-1.802-0.491
		l-0.166-0.38c0.696-0.285,1.378-0.564,2.038-0.852c0.676-0.293,1.345-0.601,1.778-0.809l0.166,0.382
		c-0.484,0.21-1.042,0.452-0.576,1.524l0.835,1.923l0.316,0.124l0.108,0.25c-1.005,0.942-2.177,1.939-3.453,2.495
		c-4.125,1.792-7.04-0.78-7.952-2.88c-1.34-3.082,0.064-6.397,3.133-7.73c1.306-0.567,2.7-0.771,4.116-0.847L260.421,290.313z"/>
	<path fill="#1D1D1B" d="M276.995,290.927l-0.321,0.181l-11.796-3.903l2.926,5.201c1.082,1.925,1.455,2.229,2.962,1.382l0.204,0.363
		c-0.614,0.345-1.258,0.67-1.871,1.015c-0.613,0.346-1.233,0.712-1.839,1.071l-0.204-0.362c0.851-0.479,1.492-0.84,0.496-2.61
		l-3.153-5.606c-0.674-1.2-1.434-1.342-2.633-0.667l-0.204-0.363c0.44-0.229,0.867-0.451,1.299-0.694
		c0.377-0.212,0.752-0.459,1.128-0.67c1.051,0.529,3.062,1.068,5.64,1.932c1.923,0.645,4.01,1.288,5.539,1.787l-3.122-5.551
		c-0.722-1.283-1.234-1.509-2.637-0.739l-0.203-0.362c0.648-0.348,1.312-0.702,1.954-1.062c0.544-0.307,1.058-0.632,1.602-0.938
		l0.204,0.362c-0.851,0.479-1.271,0.808-0.503,2.174L276.995,290.927z"/>
</g>
</svg>
