<?xml version="1.0" encoding="utf-8"?>
<!-- Generator: Adobe Illustrator 16.0.0, SVG Export Plug-In . SVG Version: 6.00 Build 0)  -->
<!DOCTYPE svg PUBLIC "-//W3C//DTD SVG 1.1//EN" "http://www.w3.org/Graphics/SVG/1.1/DTD/svg11.dtd">
<svg version="1.1" id="Calque_1" xmlns="http://www.w3.org/2000/svg" xmlns:xlink="http://www.w3.org/1999/xlink" x="0px" y="0px"
	 width="400px" height="330px" viewBox="0 0 400 330" enable-background="new 0 0 400 330" xml:space="preserve">
<polyline fill="none" stroke="#577494" stroke-width="1.307" stroke-miterlimit="10" points="143.537,200.713 135.59,223.416 
	135.588,225.744 "/>
<line fill="none" stroke="#577494" stroke-width="1.307" stroke-miterlimit="10" x1="170.293" y1="124.274" x2="159.045" y2="156.406"/>
<polyline fill="none" stroke="#577494" stroke-width="1.307" stroke-miterlimit="10" points="198.339,45.992 197.695,45.992 
	172.467,118.065 "/>
<line fill="none" stroke="#577494" stroke-width="1.307" stroke-miterlimit="10" x1="177.895" y1="124.916" x2="203.154" y2="52.854"/>
<line fill="none" stroke="#577494" stroke-width="1.307" stroke-miterlimit="10" x1="159.047" y1="178.682" x2="175.719" y2="131.119"/>
<path fill="none" stroke="#FFFFFF" stroke-width="0.8963" stroke-miterlimit="10" d="M135.588,225.744"/>
<line fill="none" stroke="#577494" stroke-width="1.307" stroke-miterlimit="10" x1="249.777" y1="119.078" x2="223.898" y2="45.756"/>
<line fill="none" stroke="#577494" stroke-width="1.307" stroke-miterlimit="10" x1="263.993" y1="159.343" x2="251.965" y2="125.27"/>
<line fill="none" stroke="#577494" stroke-width="1.307" stroke-miterlimit="10" x1="285.962" y1="221.584" x2="279.544" y2="203.404"/>
<line fill="none" stroke="#577494" stroke-width="1.307" stroke-miterlimit="10" x1="246.744" y1="131.843" x2="264.088" y2="181.324"/>
<line fill="none" stroke="#577494" stroke-width="1.307" stroke-miterlimit="10" x1="219.061" y1="52.867" x2="244.57" y2="125.645"/>
<path fill="none" stroke="#000100" stroke-width="0.8509" stroke-miterlimit="10" d="M230.773,163.477"/>
<path fill="none" stroke="#577494" stroke-width="1.307" stroke-miterlimit="10" d="M207.609,171.424
	c-6.726,8.615-12.959,16.709-12.959,16.709s-15.223,19.395-15.772,32.09c-0.729,16.732,11.323,30.672,26.593,33.541
	 M216.562,253.939c15.776-2.434,28.549-16.623,27.604-33.717c-0.829-15.053-15.774-32.092-15.774-32.092s-6.354-8.25-13.153-16.961
	c3.312-3.904,6.385-7.585,8.333-10.09l40.426-50.998c0,0,0,97.641,0,104.793c0,7.148-8.085,6.84-8.085,6.84v4.045h31.719v-4.045
	c-7.774,0-8.085-8.084-8.085-8.084s0-113.812,0-117.854c0-0.135,0.016-0.277,0.029-0.421h-0.014
	c0.021-0.195,0.035-0.386,0.074-0.592c0.125-8.813,6.377-16.567,6.377-16.567l-2.146-2.723L269,94.765
	c-0.152,0.192-0.312,0.393-0.467,0.592h-0.016c-16.199,20.538-43.481,55.041-56.799,71.319c-0.066-0.084-0.132-0.168-0.199-0.252
	c-0.063,0.084-0.131,0.168-0.194,0.252c-13.348-16.316-40.729-50.938-56.911-71.46h-0.009c-0.114-0.144-0.228-0.293-0.341-0.431
	l-14.871-19.29l-2.146,2.721c0,0,6.254,7.752,6.378,16.569c0.027,0.15,0.038,0.288,0.056,0.431h-0.026
	c0.025,0.195,0.042,0.384,0.042,0.562c0,4.042,0,117.854,0,117.854c-0.357,7.162-8.084,8.084-8.084,8.084v4.045h31.718v-4.045
	c0,0-2.658,0.104-4.923-1.157c-1.688-0.938-3.161-2.634-3.161-5.683c0-2.678,0-18.028,0-36.194c0-30.369,0-68.599,0-68.599
	l40.423,50.998c1.479,1.897,3.598,4.474,5.984,7.308 M205.669,246.596c-11.727-3.434-21.185-14.564-19.747-27.615
	c1.179-10.67,11.104-24.646,19.055-34.014c1.863-2.195,4.151-4.895,6.545-7.721c2.396,2.826,4.688,5.525,6.551,7.721
	c7.945,9.367,19.051,23.082,19.051,34.014c0,13.414-8.739,24.68-20.559,27.832"/>
<polygon fill="none" stroke="#577494" stroke-width="0.9335" stroke-miterlimit="10" points="264.533,225.574 272.295,215.062 
	280.057,225.574 "/>
<line fill="none" stroke="#577494" stroke-width="0.9335" stroke-miterlimit="10" x1="151.014" y1="90.824" x2="151.014" y2="215.062"/>
<path fill="none" stroke="#010101" stroke-width="0.6722" stroke-miterlimit="10" d="M264.021,215.42"/>
<polyline fill="none" stroke="#577494" stroke-width="0.9335" stroke-miterlimit="10" points="264.098,109.758 272.318,99.226 
	272.318,215.42 "/>
<g>
	<g>
		<g>
			<defs>
				<polygon id="SVGID_1_" points="264.135,110.311 272.355,99.779 272.355,221.713 264.059,221.713 				"/>
			</defs>
			<clipPath id="SVGID_2_">
				<use xlink:href="#SVGID_1_"  overflow="visible"/>
			</clipPath>
			
				<line clip-path="url(#SVGID_2_)" fill="none" stroke="#010101" stroke-width="0.6722" stroke-miterlimit="10" x1="117.486" y1="246.387" x2="232.207" y2="90.215"/>
		</g>
	</g>
	<g>
		<g>
			<defs>
				<polygon id="SVGID_3_" points="264.135,110.311 272.355,99.779 272.355,221.713 264.059,221.713 				"/>
			</defs>
			<clipPath id="SVGID_4_">
				<use xlink:href="#SVGID_3_"  overflow="visible"/>
			</clipPath>
			
				<line clip-path="url(#SVGID_4_)" fill="none" stroke="#010101" stroke-width="0.6722" stroke-miterlimit="10" x1="121.793" y1="246.387" x2="236.514" y2="90.215"/>
		</g>
	</g>
	<g>
		<g>
			<defs>
				<polygon id="SVGID_5_" points="264.135,110.311 272.355,99.779 272.355,221.713 264.059,221.713 				"/>
			</defs>
			<clipPath id="SVGID_6_">
				<use xlink:href="#SVGID_5_"  overflow="visible"/>
			</clipPath>
			
				<line clip-path="url(#SVGID_6_)" fill="none" stroke="#010101" stroke-width="0.6722" stroke-miterlimit="10" x1="126.1" y1="246.387" x2="240.82" y2="90.215"/>
		</g>
	</g>
	<g>
		<g>
			<defs>
				<polygon id="SVGID_7_" points="264.135,110.311 272.355,99.779 272.355,221.713 264.059,221.713 				"/>
			</defs>
			<clipPath id="SVGID_8_">
				<use xlink:href="#SVGID_7_"  overflow="visible"/>
			</clipPath>
			
				<line clip-path="url(#SVGID_8_)" fill="none" stroke="#010101" stroke-width="0.6722" stroke-miterlimit="10" x1="130.406" y1="246.387" x2="245.127" y2="90.215"/>
		</g>
	</g>
	<g>
		<g>
			<defs>
				<polygon id="SVGID_9_" points="264.135,110.311 272.355,99.779 272.355,221.713 264.059,221.713 				"/>
			</defs>
			<clipPath id="SVGID_10_">
				<use xlink:href="#SVGID_9_"  overflow="visible"/>
			</clipPath>
			
				<line clip-path="url(#SVGID_10_)" fill="none" stroke="#010101" stroke-width="0.6722" stroke-miterlimit="10" x1="134.713" y1="246.387" x2="249.434" y2="90.215"/>
		</g>
	</g>
	<g>
		<g>
			<defs>
				<polygon id="SVGID_11_" points="264.135,110.311 272.355,99.779 272.355,221.713 264.059,221.713 				"/>
			</defs>
			<clipPath id="SVGID_12_">
				<use xlink:href="#SVGID_11_"  overflow="visible"/>
			</clipPath>
			
				<line clip-path="url(#SVGID_12_)" fill="none" stroke="#010101" stroke-width="0.6722" stroke-miterlimit="10" x1="139.018" y1="246.387" x2="253.738" y2="90.215"/>
		</g>
	</g>
	<g>
		<g>
			<defs>
				<polygon id="SVGID_13_" points="264.135,110.311 272.355,99.779 272.355,221.713 264.059,221.713 				"/>
			</defs>
			<clipPath id="SVGID_14_">
				<use xlink:href="#SVGID_13_"  overflow="visible"/>
			</clipPath>
			
				<line clip-path="url(#SVGID_14_)" fill="none" stroke="#010101" stroke-width="0.6722" stroke-miterlimit="10" x1="143.324" y1="246.387" x2="258.045" y2="90.215"/>
		</g>
	</g>
	<g>
		<g>
			<defs>
				<polygon id="SVGID_15_" points="264.135,110.311 272.355,99.779 272.355,221.713 264.059,221.713 				"/>
			</defs>
			<clipPath id="SVGID_16_">
				<use xlink:href="#SVGID_15_"  overflow="visible"/>
			</clipPath>
			
				<line clip-path="url(#SVGID_16_)" fill="none" stroke="#010101" stroke-width="0.6722" stroke-miterlimit="10" x1="147.629" y1="246.387" x2="262.352" y2="90.215"/>
		</g>
	</g>
	<g>
		<g>
			<defs>
				<polygon id="SVGID_17_" points="264.135,110.311 272.355,99.779 272.355,221.713 264.059,221.713 				"/>
			</defs>
			<clipPath id="SVGID_18_">
				<use xlink:href="#SVGID_17_"  overflow="visible"/>
			</clipPath>
			
				<line clip-path="url(#SVGID_18_)" fill="none" stroke="#010101" stroke-width="0.6722" stroke-miterlimit="10" x1="151.936" y1="246.387" x2="266.659" y2="90.215"/>
		</g>
	</g>
	<g>
		<g>
			<defs>
				<polygon id="SVGID_19_" points="264.135,110.311 272.355,99.779 272.355,221.713 264.059,221.713 				"/>
			</defs>
			<clipPath id="SVGID_20_">
				<use xlink:href="#SVGID_19_"  overflow="visible"/>
			</clipPath>
			
				<line clip-path="url(#SVGID_20_)" fill="none" stroke="#010101" stroke-width="0.6722" stroke-miterlimit="10" x1="156.242" y1="246.387" x2="270.966" y2="90.215"/>
		</g>
	</g>
	<g>
		<g>
			<defs>
				<polygon id="SVGID_21_" points="264.135,110.311 272.355,99.779 272.355,221.713 264.059,221.713 				"/>
			</defs>
			<clipPath id="SVGID_22_">
				<use xlink:href="#SVGID_21_"  overflow="visible"/>
			</clipPath>
			
				<line clip-path="url(#SVGID_22_)" fill="none" stroke="#010101" stroke-width="0.6722" stroke-miterlimit="10" x1="160.549" y1="246.387" x2="275.271" y2="90.215"/>
		</g>
	</g>
	<g>
		<g>
			<defs>
				<polygon id="SVGID_23_" points="264.135,110.311 272.355,99.779 272.355,221.713 264.059,221.713 				"/>
			</defs>
			<clipPath id="SVGID_24_">
				<use xlink:href="#SVGID_23_"  overflow="visible"/>
			</clipPath>
			<path clip-path="url(#SVGID_24_)" fill="#010101" stroke="#010101" stroke-width="0.6722" stroke-miterlimit="10" d="
				M279.577,90.215"/>
		</g>
	</g>
	<g>
		<g>
			<defs>
				<polygon id="SVGID_25_" points="264.135,110.311 272.355,99.779 272.355,221.713 264.059,221.713 				"/>
			</defs>
			<clipPath id="SVGID_26_">
				<use xlink:href="#SVGID_25_"  overflow="visible"/>
			</clipPath>
			
				<line clip-path="url(#SVGID_26_)" fill="none" stroke="#577494" stroke-width="0.6722" stroke-miterlimit="10" x1="169.162" y1="246.387" x2="283.882" y2="90.215"/>
		</g>
	</g>
	<g>
		<g>
			<defs>
				<polygon id="SVGID_27_" points="264.135,110.311 272.355,99.779 272.355,221.713 264.059,221.713 				"/>
			</defs>
			<clipPath id="SVGID_28_">
				<use xlink:href="#SVGID_27_"  overflow="visible"/>
			</clipPath>
			
				<line clip-path="url(#SVGID_28_)" fill="none" stroke="#577494" stroke-width="0.6722" stroke-miterlimit="10" x1="173.469" y1="246.387" x2="288.189" y2="90.215"/>
		</g>
	</g>
	<g>
		<g>
			<defs>
				<polygon id="SVGID_29_" points="264.135,110.311 272.355,99.779 272.355,221.713 264.059,221.713 				"/>
			</defs>
			<clipPath id="SVGID_30_">
				<use xlink:href="#SVGID_29_"  overflow="visible"/>
			</clipPath>
			
				<line clip-path="url(#SVGID_30_)" fill="none" stroke="#577494" stroke-width="0.6722" stroke-miterlimit="10" x1="177.775" y1="246.387" x2="292.495" y2="90.215"/>
		</g>
	</g>
	<g>
		<g>
			<defs>
				<polygon id="SVGID_31_" points="264.135,110.311 272.355,99.779 272.355,221.713 264.059,221.713 				"/>
			</defs>
			<clipPath id="SVGID_32_">
				<use xlink:href="#SVGID_31_"  overflow="visible"/>
			</clipPath>
			
				<line clip-path="url(#SVGID_32_)" fill="none" stroke="#577494" stroke-width="0.6722" stroke-miterlimit="10" x1="182.079" y1="246.387" x2="296.802" y2="90.215"/>
		</g>
	</g>
	<g>
		<g>
			<defs>
				<polygon id="SVGID_33_" points="264.135,110.311 272.355,99.779 272.355,221.713 264.059,221.713 				"/>
			</defs>
			<clipPath id="SVGID_34_">
				<use xlink:href="#SVGID_33_"  overflow="visible"/>
			</clipPath>
			
				<line clip-path="url(#SVGID_34_)" fill="none" stroke="#577494" stroke-width="0.6722" stroke-miterlimit="10" x1="186.386" y1="246.387" x2="301.108" y2="90.215"/>
		</g>
	</g>
	<g>
		<g>
			<defs>
				<polygon id="SVGID_35_" points="264.135,110.311 272.355,99.779 272.355,221.713 264.059,221.713 				"/>
			</defs>
			<clipPath id="SVGID_36_">
				<use xlink:href="#SVGID_35_"  overflow="visible"/>
			</clipPath>
			
				<line clip-path="url(#SVGID_36_)" fill="none" stroke="#577494" stroke-width="0.6722" stroke-miterlimit="10" x1="190.692" y1="246.387" x2="305.413" y2="90.215"/>
		</g>
	</g>
	<g>
		<g>
			<defs>
				<polygon id="SVGID_37_" points="264.135,110.311 272.355,99.779 272.355,221.713 264.059,221.713 				"/>
			</defs>
			<clipPath id="SVGID_38_">
				<use xlink:href="#SVGID_37_"  overflow="visible"/>
			</clipPath>
			
				<line clip-path="url(#SVGID_38_)" fill="none" stroke="#577494" stroke-width="0.6722" stroke-miterlimit="10" x1="194.999" y1="246.387" x2="309.72" y2="90.215"/>
		</g>
	</g>
	<g>
		<g>
			<defs>
				<polygon id="SVGID_39_" points="264.135,110.311 272.355,99.779 272.355,221.713 264.059,221.713 				"/>
			</defs>
			<clipPath id="SVGID_40_">
				<use xlink:href="#SVGID_39_"  overflow="visible"/>
			</clipPath>
			
				<line clip-path="url(#SVGID_40_)" fill="none" stroke="#577494" stroke-width="0.6722" stroke-miterlimit="10" x1="199.306" y1="246.387" x2="314.026" y2="90.215"/>
		</g>
	</g>
	<g>
		<g>
			<defs>
				<polygon id="SVGID_41_" points="264.135,110.311 272.355,99.779 272.355,221.713 264.059,221.713 				"/>
			</defs>
			<clipPath id="SVGID_42_">
				<use xlink:href="#SVGID_41_"  overflow="visible"/>
			</clipPath>
			
				<line clip-path="url(#SVGID_42_)" fill="none" stroke="#577494" stroke-width="0.6722" stroke-miterlimit="10" x1="203.609" y1="246.387" x2="318.332" y2="90.215"/>
		</g>
	</g>
	<g>
		<g>
			<defs>
				<polygon id="SVGID_43_" points="264.135,110.311 272.355,99.779 272.355,221.713 264.059,221.713 				"/>
			</defs>
			<clipPath id="SVGID_44_">
				<use xlink:href="#SVGID_43_"  overflow="visible"/>
			</clipPath>
			
				<line clip-path="url(#SVGID_44_)" fill="none" stroke="#577494" stroke-width="0.6722" stroke-miterlimit="10" x1="207.919" y1="246.387" x2="322.64" y2="90.215"/>
		</g>
	</g>
	<g>
		<g>
			<defs>
				<polygon id="SVGID_45_" points="264.135,110.311 272.355,99.779 272.355,221.713 264.059,221.713 				"/>
			</defs>
			<clipPath id="SVGID_46_">
				<use xlink:href="#SVGID_45_"  overflow="visible"/>
			</clipPath>
			
				<line clip-path="url(#SVGID_46_)" fill="none" stroke="#577494" stroke-width="0.6722" stroke-miterlimit="10" x1="212.225" y1="246.387" x2="326.945" y2="90.215"/>
		</g>
	</g>
	<g>
		<g>
			<defs>
				<polygon id="SVGID_47_" points="264.135,110.311 272.355,99.779 272.355,221.713 264.059,221.713 				"/>
			</defs>
			<clipPath id="SVGID_48_">
				<use xlink:href="#SVGID_47_"  overflow="visible"/>
			</clipPath>
			
				<line clip-path="url(#SVGID_48_)" fill="none" stroke="#577494" stroke-width="0.6722" stroke-miterlimit="10" x1="216.529" y1="246.387" x2="331.252" y2="90.215"/>
		</g>
	</g>
	<g>
		<g>
			<defs>
				<polygon id="SVGID_49_" points="264.135,110.311 272.355,99.779 272.355,221.713 264.059,221.713 				"/>
			</defs>
			<clipPath id="SVGID_50_">
				<use xlink:href="#SVGID_49_"  overflow="visible"/>
			</clipPath>
			
				<line clip-path="url(#SVGID_50_)" fill="none" stroke="#577494" stroke-width="0.6722" stroke-miterlimit="10" x1="220.837" y1="246.387" x2="335.559" y2="90.215"/>
		</g>
	</g>
	<g>
		<g>
			<defs>
				<polygon id="SVGID_51_" points="264.135,110.311 272.355,99.779 272.355,221.713 264.059,221.713 				"/>
			</defs>
			<clipPath id="SVGID_52_">
				<use xlink:href="#SVGID_51_"  overflow="visible"/>
			</clipPath>
			
				<line clip-path="url(#SVGID_52_)" fill="none" stroke="#577494" stroke-width="0.6722" stroke-miterlimit="10" x1="225.145" y1="246.387" x2="339.863" y2="90.215"/>
		</g>
	</g>
	<g>
		<g>
			<defs>
				<polygon id="SVGID_53_" points="264.135,110.311 272.355,99.779 272.355,221.713 264.059,221.713 				"/>
			</defs>
			<clipPath id="SVGID_54_">
				<use xlink:href="#SVGID_53_"  overflow="visible"/>
			</clipPath>
			
				<line clip-path="url(#SVGID_54_)" fill="none" stroke="#577494" stroke-width="0.6722" stroke-miterlimit="10" x1="229.448" y1="246.387" x2="344.172" y2="90.215"/>
		</g>
	</g>
	<g>
		<g>
			<defs>
				<polygon id="SVGID_55_" points="264.135,110.311 272.355,99.779 272.355,221.713 264.059,221.713 				"/>
			</defs>
			<clipPath id="SVGID_56_">
				<use xlink:href="#SVGID_55_"  overflow="visible"/>
			</clipPath>
			
				<line clip-path="url(#SVGID_56_)" fill="none" stroke="#577494" stroke-width="0.6722" stroke-miterlimit="10" x1="233.755" y1="246.387" x2="348.479" y2="90.215"/>
		</g>
	</g>
	<g>
		<g>
			<defs>
				<polygon id="SVGID_57_" points="264.135,110.311 272.355,99.779 272.355,221.713 264.059,221.713 				"/>
			</defs>
			<clipPath id="SVGID_58_">
				<use xlink:href="#SVGID_57_"  overflow="visible"/>
			</clipPath>
			
				<line clip-path="url(#SVGID_58_)" fill="none" stroke="#577494" stroke-width="0.6722" stroke-miterlimit="10" x1="238.062" y1="246.387" x2="352.781" y2="90.215"/>
		</g>
	</g>
	<g>
		<g>
			<defs>
				<polygon id="SVGID_59_" points="264.135,110.311 272.355,99.779 272.355,221.713 264.059,221.713 				"/>
			</defs>
			<clipPath id="SVGID_60_">
				<use xlink:href="#SVGID_59_"  overflow="visible"/>
			</clipPath>
			
				<line clip-path="url(#SVGID_60_)" fill="none" stroke="#577494" stroke-width="0.6722" stroke-miterlimit="10" x1="242.368" y1="246.387" x2="357.09" y2="90.215"/>
		</g>
	</g>
	<g>
		<g>
			<defs>
				<polygon id="SVGID_61_" points="264.135,110.311 272.355,99.779 272.355,221.713 264.059,221.713 				"/>
			</defs>
			<clipPath id="SVGID_62_">
				<use xlink:href="#SVGID_61_"  overflow="visible"/>
			</clipPath>
			
				<line clip-path="url(#SVGID_62_)" fill="none" stroke="#010101" stroke-width="0.6722" stroke-miterlimit="10" x1="255.287" y1="246.387" x2="370.008" y2="90.215"/>
		</g>
	</g>
	<g>
		<g>
			<defs>
				<polygon id="SVGID_63_" points="264.135,110.311 272.355,99.779 272.355,221.713 264.059,221.713 				"/>
			</defs>
			<clipPath id="SVGID_64_">
				<use xlink:href="#SVGID_63_"  overflow="visible"/>
			</clipPath>
			
				<line clip-path="url(#SVGID_64_)" fill="none" stroke="#010101" stroke-width="0.6722" stroke-miterlimit="10" x1="259.592" y1="246.387" x2="374.312" y2="90.215"/>
		</g>
	</g>
</g>
<path fill="none" stroke="#577494" stroke-width="1.307" stroke-miterlimit="10" d="M216.562,160.716V58.69v0.373v-0.275
	c-0.111-6.609,7.336-8.836,7.336-8.836v-3.96h-0.318h-25.24l-0.015,3.96c0,0,7.446,2.227,7.334,8.836V58.69v100.937"/>
<line fill="none" stroke="#577494" stroke-width="1.307" stroke-miterlimit="10" x1="216.562" y1="172.869" x2="216.562" y2="169.607"/>
<path fill="none" stroke="#577494" stroke-width="1.307" stroke-miterlimit="10" d="M205.658,184.211v78.377l0,0v0.504v-0.371v0.275
	c0.111,6.609-7.334,8.836-7.334,8.836v3.961h0.316h25.24l0.015-3.961c0,0-7.444-2.227-7.332-8.836v-0.408l0,0v-79.523"/>
<line fill="none" stroke="#577494" stroke-width="1.307" stroke-miterlimit="10" x1="205.658" y1="168.703" x2="205.658" y2="173.902"/>
<line fill="none" stroke="#577494" stroke-width="0.9335" stroke-miterlimit="10" x1="211.582" y1="176.859" x2="211.582" y2="265.838"/>
<line fill="none" stroke="#577494" stroke-width="0.9335" stroke-miterlimit="10" x1="211.582" y1="56.253" x2="211.582" y2="166.592"/>
<polygon fill="none" stroke="#577494" stroke-width="0.9335" stroke-miterlimit="10" points="219.344,45.992 211.582,56.502 
	203.82,45.992 "/>
<polygon fill="none" stroke="#577494" stroke-width="0.9335" stroke-miterlimit="10" points="203.82,275.793 211.582,265.279 
	219.344,275.793 "/>
<g>
	<g>
		<g>
			<defs>
				<path id="SVGID_65_" d="M151.054,214.99V90.754l-11.819-15.33l-2.146,2.721c0,0,6.254,7.752,6.378,16.566
					c0.029,0.151,0.038,0.289,0.057,0.433h-0.026c0.024,0.194,0.043,0.383,0.043,0.561c0,4.043,0,117.855,0,117.855
					c-0.356,7.162-8.086,8.084-8.086,8.084v4.045h15.603V214.99H151.054z"/>
			</defs>
			<clipPath id="SVGID_66_">
				<use xlink:href="#SVGID_65_"  overflow="visible"/>
			</clipPath>
			
				<line clip-path="url(#SVGID_66_)" fill="none" stroke="#010101" stroke-width="0.6722" stroke-miterlimit="10" x1="270.893" y1="231.33" x2="156.17" y2="75.159"/>
		</g>
	</g>
	<g>
		<g>
			<defs>
				<path id="SVGID_67_" d="M151.054,214.99V90.754l-11.819-15.33l-2.146,2.721c0,0,6.254,7.752,6.378,16.566
					c0.029,0.151,0.038,0.289,0.057,0.433h-0.026c0.024,0.194,0.043,0.383,0.043,0.561c0,4.043,0,117.855,0,117.855
					c-0.356,7.162-8.086,8.084-8.086,8.084v4.045h15.603V214.99H151.054z"/>
			</defs>
			<clipPath id="SVGID_68_">
				<use xlink:href="#SVGID_67_"  overflow="visible"/>
			</clipPath>
			
				<line clip-path="url(#SVGID_68_)" fill="none" stroke="#010101" stroke-width="0.6722" stroke-miterlimit="10" x1="266.586" y1="231.33" x2="151.864" y2="75.159"/>
		</g>
	</g>
	<g>
		<g>
			<defs>
				<path id="SVGID_69_" d="M151.054,214.99V90.754l-11.819-15.33l-2.146,2.721c0,0,6.254,7.752,6.378,16.566
					c0.029,0.151,0.038,0.289,0.057,0.433h-0.026c0.024,0.194,0.043,0.383,0.043,0.561c0,4.043,0,117.855,0,117.855
					c-0.356,7.162-8.086,8.084-8.086,8.084v4.045h15.603V214.99H151.054z"/>
			</defs>
			<clipPath id="SVGID_70_">
				<use xlink:href="#SVGID_69_"  overflow="visible"/>
			</clipPath>
			
				<line clip-path="url(#SVGID_70_)" fill="none" stroke="#010101" stroke-width="0.6722" stroke-miterlimit="10" x1="262.281" y1="231.33" x2="147.558" y2="75.159"/>
		</g>
	</g>
	<g>
		<g>
			<defs>
				<path id="SVGID_71_" d="M151.054,214.99V90.754l-11.819-15.33l-2.146,2.721c0,0,6.254,7.752,6.378,16.566
					c0.029,0.151,0.038,0.289,0.057,0.433h-0.026c0.024,0.194,0.043,0.383,0.043,0.561c0,4.043,0,117.855,0,117.855
					c-0.356,7.162-8.086,8.084-8.086,8.084v4.045h15.603V214.99H151.054z"/>
			</defs>
			<clipPath id="SVGID_72_">
				<use xlink:href="#SVGID_71_"  overflow="visible"/>
			</clipPath>
			
				<line clip-path="url(#SVGID_72_)" fill="none" stroke="#010101" stroke-width="0.6722" stroke-miterlimit="10" x1="257.975" y1="231.33" x2="143.251" y2="75.159"/>
		</g>
	</g>
	<g>
		<g>
			<defs>
				<path id="SVGID_73_" d="M151.054,214.99V90.754l-11.819-15.33l-2.146,2.721c0,0,6.254,7.752,6.378,16.566
					c0.029,0.151,0.038,0.289,0.057,0.433h-0.026c0.024,0.194,0.043,0.383,0.043,0.561c0,4.043,0,117.855,0,117.855
					c-0.356,7.162-8.086,8.084-8.086,8.084v4.045h15.603V214.99H151.054z"/>
			</defs>
			<clipPath id="SVGID_74_">
				<use xlink:href="#SVGID_73_"  overflow="visible"/>
			</clipPath>
			
				<line clip-path="url(#SVGID_74_)" fill="none" stroke="#577494" stroke-width="0.6722" stroke-miterlimit="10" x1="249.361" y1="231.33" x2="134.64" y2="75.159"/>
		</g>
	</g>
	<g>
		<g>
			<defs>
				<path id="SVGID_75_" d="M151.054,214.99V90.754l-11.819-15.33l-2.146,2.721c0,0,6.254,7.752,6.378,16.566
					c0.029,0.151,0.038,0.289,0.057,0.433h-0.026c0.024,0.194,0.043,0.383,0.043,0.561c0,4.043,0,117.855,0,117.855
					c-0.356,7.162-8.086,8.084-8.086,8.084v4.045h15.603V214.99H151.054z"/>
			</defs>
			<clipPath id="SVGID_76_">
				<use xlink:href="#SVGID_75_"  overflow="visible"/>
			</clipPath>
			
				<line clip-path="url(#SVGID_76_)" fill="none" stroke="#577494" stroke-width="0.6722" stroke-miterlimit="10" x1="245.055" y1="231.33" x2="130.333" y2="75.159"/>
		</g>
	</g>
	<g>
		<g>
			<defs>
				<path id="SVGID_77_" d="M151.054,214.99V90.754l-11.819-15.33l-2.146,2.721c0,0,6.254,7.752,6.378,16.566
					c0.029,0.151,0.038,0.289,0.057,0.433h-0.026c0.024,0.194,0.043,0.383,0.043,0.561c0,4.043,0,117.855,0,117.855
					c-0.356,7.162-8.086,8.084-8.086,8.084v4.045h15.603V214.99H151.054z"/>
			</defs>
			<clipPath id="SVGID_78_">
				<use xlink:href="#SVGID_77_"  overflow="visible"/>
			</clipPath>
			
				<line clip-path="url(#SVGID_78_)" fill="none" stroke="#577494" stroke-width="0.6722" stroke-miterlimit="10" x1="240.749" y1="231.33" x2="126.026" y2="75.159"/>
		</g>
	</g>
	<g>
		<g>
			<defs>
				<path id="SVGID_79_" d="M151.054,214.99V90.754l-11.819-15.33l-2.146,2.721c0,0,6.254,7.752,6.378,16.566
					c0.029,0.151,0.038,0.289,0.057,0.433h-0.026c0.024,0.194,0.043,0.383,0.043,0.561c0,4.043,0,117.855,0,117.855
					c-0.356,7.162-8.086,8.084-8.086,8.084v4.045h15.603V214.99H151.054z"/>
			</defs>
			<clipPath id="SVGID_80_">
				<use xlink:href="#SVGID_79_"  overflow="visible"/>
			</clipPath>
			
				<line clip-path="url(#SVGID_80_)" fill="none" stroke="#577494" stroke-width="0.6722" stroke-miterlimit="10" x1="236.441" y1="231.33" x2="121.72" y2="75.159"/>
		</g>
	</g>
	<g>
		<g>
			<defs>
				<path id="SVGID_81_" d="M151.054,214.99V90.754l-11.819-15.33l-2.146,2.721c0,0,6.254,7.752,6.378,16.566
					c0.029,0.151,0.038,0.289,0.057,0.433h-0.026c0.024,0.194,0.043,0.383,0.043,0.561c0,4.043,0,117.855,0,117.855
					c-0.356,7.162-8.086,8.084-8.086,8.084v4.045h15.603V214.99H151.054z"/>
			</defs>
			<clipPath id="SVGID_82_">
				<use xlink:href="#SVGID_81_"  overflow="visible"/>
			</clipPath>
			
				<line clip-path="url(#SVGID_82_)" fill="none" stroke="#577494" stroke-width="0.6722" stroke-miterlimit="10" x1="232.137" y1="231.33" x2="117.413" y2="75.159"/>
		</g>
	</g>
	<g>
		<g>
			<defs>
				<path id="SVGID_83_" d="M151.054,214.99V90.754l-11.819-15.33l-2.146,2.721c0,0,6.254,7.752,6.378,16.566
					c0.029,0.151,0.038,0.289,0.057,0.433h-0.026c0.024,0.194,0.043,0.383,0.043,0.561c0,4.043,0,117.855,0,117.855
					c-0.356,7.162-8.086,8.084-8.086,8.084v4.045h15.603V214.99H151.054z"/>
			</defs>
			<clipPath id="SVGID_84_">
				<use xlink:href="#SVGID_83_"  overflow="visible"/>
			</clipPath>
			
				<line clip-path="url(#SVGID_84_)" fill="none" stroke="#577494" stroke-width="0.6722" stroke-miterlimit="10" x1="227.829" y1="231.33" x2="113.108" y2="75.159"/>
		</g>
	</g>
	<g>
		<g>
			<defs>
				<path id="SVGID_85_" d="M151.054,214.99V90.754l-11.819-15.33l-2.146,2.721c0,0,6.254,7.752,6.378,16.566
					c0.029,0.151,0.038,0.289,0.057,0.433h-0.026c0.024,0.194,0.043,0.383,0.043,0.561c0,4.043,0,117.855,0,117.855
					c-0.356,7.162-8.086,8.084-8.086,8.084v4.045h15.603V214.99H151.054z"/>
			</defs>
			<clipPath id="SVGID_86_">
				<use xlink:href="#SVGID_85_"  overflow="visible"/>
			</clipPath>
			
				<line clip-path="url(#SVGID_86_)" fill="none" stroke="#577494" stroke-width="0.6722" stroke-miterlimit="10" x1="223.521" y1="231.33" x2="108.804" y2="75.159"/>
		</g>
	</g>
	<g>
		<g>
			<defs>
				<path id="SVGID_87_" d="M151.054,214.99V90.754l-11.819-15.33l-2.146,2.721c0,0,6.254,7.752,6.378,16.566
					c0.029,0.151,0.038,0.289,0.057,0.433h-0.026c0.024,0.194,0.043,0.383,0.043,0.561c0,4.043,0,117.855,0,117.855
					c-0.356,7.162-8.086,8.084-8.086,8.084v4.045h15.603V214.99H151.054z"/>
			</defs>
			<clipPath id="SVGID_88_">
				<use xlink:href="#SVGID_87_"  overflow="visible"/>
			</clipPath>
			
				<line clip-path="url(#SVGID_88_)" fill="none" stroke="#577494" stroke-width="0.6722" stroke-miterlimit="10" x1="219.216" y1="231.33" x2="104.495" y2="75.159"/>
		</g>
	</g>
	<g>
		<g>
			<defs>
				<path id="SVGID_89_" d="M151.054,214.99V90.754l-11.819-15.33l-2.146,2.721c0,0,6.254,7.752,6.378,16.566
					c0.029,0.151,0.038,0.289,0.057,0.433h-0.026c0.024,0.194,0.043,0.383,0.043,0.561c0,4.043,0,117.855,0,117.855
					c-0.356,7.162-8.086,8.084-8.086,8.084v4.045h15.603V214.99H151.054z"/>
			</defs>
			<clipPath id="SVGID_90_">
				<use xlink:href="#SVGID_89_"  overflow="visible"/>
			</clipPath>
			
				<line clip-path="url(#SVGID_90_)" fill="none" stroke="#577494" stroke-width="0.6722" stroke-miterlimit="10" x1="214.911" y1="231.33" x2="100.19" y2="75.159"/>
		</g>
	</g>
	<g>
		<g>
			<defs>
				<path id="SVGID_91_" d="M151.054,214.99V90.754l-11.819-15.33l-2.146,2.721c0,0,6.254,7.752,6.378,16.566
					c0.029,0.151,0.038,0.289,0.057,0.433h-0.026c0.024,0.194,0.043,0.383,0.043,0.561c0,4.043,0,117.855,0,117.855
					c-0.356,7.162-8.086,8.084-8.086,8.084v4.045h15.603V214.99H151.054z"/>
			</defs>
			<clipPath id="SVGID_92_">
				<use xlink:href="#SVGID_91_"  overflow="visible"/>
			</clipPath>
			
				<line clip-path="url(#SVGID_92_)" fill="none" stroke="#577494" stroke-width="0.6722" stroke-miterlimit="10" x1="210.604" y1="231.33" x2="95.884" y2="75.159"/>
		</g>
	</g>
	<g>
		<g>
			<defs>
				<path id="SVGID_93_" d="M151.054,214.99V90.754l-11.819-15.33l-2.146,2.721c0,0,6.254,7.752,6.378,16.566
					c0.029,0.151,0.038,0.289,0.057,0.433h-0.026c0.024,0.194,0.043,0.383,0.043,0.561c0,4.043,0,117.855,0,117.855
					c-0.356,7.162-8.086,8.084-8.086,8.084v4.045h15.603V214.99H151.054z"/>
			</defs>
			<clipPath id="SVGID_94_">
				<use xlink:href="#SVGID_93_"  overflow="visible"/>
			</clipPath>
			
				<line clip-path="url(#SVGID_94_)" fill="none" stroke="#577494" stroke-width="0.6722" stroke-miterlimit="10" x1="206.3" y1="231.33" x2="91.577" y2="75.159"/>
		</g>
	</g>
	<g>
		<g>
			<defs>
				<path id="SVGID_95_" d="M151.054,214.99V90.754l-11.819-15.33l-2.146,2.721c0,0,6.254,7.752,6.378,16.566
					c0.029,0.151,0.038,0.289,0.057,0.433h-0.026c0.024,0.194,0.043,0.383,0.043,0.561c0,4.043,0,117.855,0,117.855
					c-0.356,7.162-8.086,8.084-8.086,8.084v4.045h15.603V214.99H151.054z"/>
			</defs>
			<clipPath id="SVGID_96_">
				<use xlink:href="#SVGID_95_"  overflow="visible"/>
			</clipPath>
			
				<line clip-path="url(#SVGID_96_)" fill="none" stroke="#577494" stroke-width="0.6722" stroke-miterlimit="10" x1="201.993" y1="231.33" x2="87.271" y2="75.159"/>
		</g>
	</g>
	<g>
		<g>
			<defs>
				<path id="SVGID_97_" d="M151.054,214.99V90.754l-11.819-15.33l-2.146,2.721c0,0,6.254,7.752,6.378,16.566
					c0.029,0.151,0.038,0.289,0.057,0.433h-0.026c0.024,0.194,0.043,0.383,0.043,0.561c0,4.043,0,117.855,0,117.855
					c-0.356,7.162-8.086,8.084-8.086,8.084v4.045h15.603V214.99H151.054z"/>
			</defs>
			<clipPath id="SVGID_98_">
				<use xlink:href="#SVGID_97_"  overflow="visible"/>
			</clipPath>
			
				<line clip-path="url(#SVGID_98_)" fill="none" stroke="#577494" stroke-width="0.6722" stroke-miterlimit="10" x1="197.685" y1="231.33" x2="82.964" y2="75.159"/>
		</g>
	</g>
	<g>
		<g>
			<defs>
				<path id="SVGID_99_" d="M151.054,214.99V90.754l-11.819-15.33l-2.146,2.721c0,0,6.254,7.752,6.378,16.566
					c0.029,0.151,0.038,0.289,0.057,0.433h-0.026c0.024,0.194,0.043,0.383,0.043,0.561c0,4.043,0,117.855,0,117.855
					c-0.356,7.162-8.086,8.084-8.086,8.084v4.045h15.603V214.99H151.054z"/>
			</defs>
			<clipPath id="SVGID_100_">
				<use xlink:href="#SVGID_99_"  overflow="visible"/>
			</clipPath>
			
				<line clip-path="url(#SVGID_100_)" fill="none" stroke="#577494" stroke-width="0.6722" stroke-miterlimit="10" x1="193.38" y1="231.33" x2="78.656" y2="75.159"/>
		</g>
	</g>
	<g>
		<g>
			<defs>
				<path id="SVGID_101_" d="M151.054,214.99V90.754l-11.819-15.33l-2.146,2.721c0,0,6.254,7.752,6.378,16.566
					c0.029,0.151,0.038,0.289,0.057,0.433h-0.026c0.024,0.194,0.043,0.383,0.043,0.561c0,4.043,0,117.855,0,117.855
					c-0.356,7.162-8.086,8.084-8.086,8.084v4.045h15.603V214.99H151.054z"/>
			</defs>
			<clipPath id="SVGID_102_">
				<use xlink:href="#SVGID_101_"  overflow="visible"/>
			</clipPath>
			
				<line clip-path="url(#SVGID_102_)" fill="none" stroke="#577494" stroke-width="0.6722" stroke-miterlimit="10" x1="189.073" y1="231.33" x2="74.352" y2="75.159"/>
		</g>
	</g>
	<g>
		<g>
			<defs>
				<path id="SVGID_103_" d="M151.054,214.99V90.754l-11.819-15.33l-2.146,2.721c0,0,6.254,7.752,6.378,16.566
					c0.029,0.151,0.038,0.289,0.057,0.433h-0.026c0.024,0.194,0.043,0.383,0.043,0.561c0,4.043,0,117.855,0,117.855
					c-0.356,7.162-8.086,8.084-8.086,8.084v4.045h15.603V214.99H151.054z"/>
			</defs>
			<clipPath id="SVGID_104_">
				<use xlink:href="#SVGID_103_"  overflow="visible"/>
			</clipPath>
			
				<line clip-path="url(#SVGID_104_)" fill="none" stroke="#577494" stroke-width="0.6722" stroke-miterlimit="10" x1="184.767" y1="231.33" x2="70.045" y2="75.159"/>
		</g>
	</g>
	<g>
		<g>
			<defs>
				<path id="SVGID_105_" d="M151.054,214.99V90.754l-11.819-15.33l-2.146,2.721c0,0,6.254,7.752,6.378,16.566
					c0.029,0.151,0.038,0.289,0.057,0.433h-0.026c0.024,0.194,0.043,0.383,0.043,0.561c0,4.043,0,117.855,0,117.855
					c-0.356,7.162-8.086,8.084-8.086,8.084v4.045h15.603V214.99H151.054z"/>
			</defs>
			<clipPath id="SVGID_106_">
				<use xlink:href="#SVGID_105_"  overflow="visible"/>
			</clipPath>
			
				<line clip-path="url(#SVGID_106_)" fill="none" stroke="#577494" stroke-width="0.6722" stroke-miterlimit="10" x1="180.46" y1="231.33" x2="65.74" y2="75.159"/>
		</g>
	</g>
	<g>
		<g>
			<defs>
				<path id="SVGID_107_" d="M151.054,214.99V90.754l-11.819-15.33l-2.146,2.721c0,0,6.254,7.752,6.378,16.566
					c0.029,0.151,0.038,0.289,0.057,0.433h-0.026c0.024,0.194,0.043,0.383,0.043,0.561c0,4.043,0,117.855,0,117.855
					c-0.356,7.162-8.086,8.084-8.086,8.084v4.045h15.603V214.99H151.054z"/>
			</defs>
			<clipPath id="SVGID_108_">
				<use xlink:href="#SVGID_107_"  overflow="visible"/>
			</clipPath>
			
				<line clip-path="url(#SVGID_108_)" fill="none" stroke="#577494" stroke-width="0.6722" stroke-miterlimit="10" x1="176.153" y1="231.33" x2="61.434" y2="75.159"/>
		</g>
	</g>
	<g>
		<g>
			<defs>
				<path id="SVGID_109_" d="M151.054,214.99V90.754l-11.819-15.33l-2.146,2.721c0,0,6.254,7.752,6.378,16.566
					c0.029,0.151,0.038,0.289,0.057,0.433h-0.026c0.024,0.194,0.043,0.383,0.043,0.561c0,4.043,0,117.855,0,117.855
					c-0.356,7.162-8.086,8.084-8.086,8.084v4.045h15.603V214.99H151.054z"/>
			</defs>
			<clipPath id="SVGID_110_">
				<use xlink:href="#SVGID_109_"  overflow="visible"/>
			</clipPath>
			
				<line clip-path="url(#SVGID_110_)" fill="none" stroke="#577494" stroke-width="0.6722" stroke-miterlimit="10" x1="171.847" y1="231.33" x2="57.127" y2="75.159"/>
		</g>
	</g>
	<g>
		<g>
			<defs>
				<path id="SVGID_111_" d="M151.054,214.99V90.754l-11.819-15.33l-2.146,2.721c0,0,6.254,7.752,6.378,16.566
					c0.029,0.151,0.038,0.289,0.057,0.433h-0.026c0.024,0.194,0.043,0.383,0.043,0.561c0,4.043,0,117.855,0,117.855
					c-0.356,7.162-8.086,8.084-8.086,8.084v4.045h15.603V214.99H151.054z"/>
			</defs>
			<clipPath id="SVGID_112_">
				<use xlink:href="#SVGID_111_"  overflow="visible"/>
			</clipPath>
			
				<line clip-path="url(#SVGID_112_)" fill="none" stroke="#577494" stroke-width="0.6722" stroke-miterlimit="10" x1="167.541" y1="231.33" x2="52.82" y2="75.159"/>
		</g>
	</g>
	<g>
		<g>
			<defs>
				<path id="SVGID_113_" d="M151.054,214.99V90.754l-11.819-15.33l-2.146,2.721c0,0,6.254,7.752,6.378,16.566
					c0.029,0.151,0.038,0.289,0.057,0.433h-0.026c0.024,0.194,0.043,0.383,0.043,0.561c0,4.043,0,117.855,0,117.855
					c-0.356,7.162-8.086,8.084-8.086,8.084v4.045h15.603V214.99H151.054z"/>
			</defs>
			<clipPath id="SVGID_114_">
				<use xlink:href="#SVGID_113_"  overflow="visible"/>
			</clipPath>
			
				<line clip-path="url(#SVGID_114_)" fill="none" stroke="#577494" stroke-width="0.6722" stroke-miterlimit="10" x1="163.016" y1="231.096" x2="48.295" y2="74.924"/>
		</g>
	</g>
	<g>
		<g>
			<defs>
				<path id="SVGID_115_" d="M151.054,214.99V90.754l-11.819-15.33l-2.146,2.721c0,0,6.254,7.752,6.378,16.566
					c0.029,0.151,0.038,0.289,0.057,0.433h-0.026c0.024,0.194,0.043,0.383,0.043,0.561c0,4.043,0,117.855,0,117.855
					c-0.356,7.162-8.086,8.084-8.086,8.084v4.045h15.603V214.99H151.054z"/>
			</defs>
			<clipPath id="SVGID_116_">
				<use xlink:href="#SVGID_115_"  overflow="visible"/>
			</clipPath>
			<path clip-path="url(#SVGID_116_)" fill="none" stroke="#010101" stroke-width="0.6722" stroke-miterlimit="10" d="
				M44.207,75.159"/>
		</g>
	</g>
	<g>
		<g>
			<defs>
				<path id="SVGID_117_" d="M151.054,214.99V90.754l-11.819-15.33l-2.146,2.721c0,0,6.254,7.752,6.378,16.566
					c0.029,0.151,0.038,0.289,0.057,0.433h-0.026c0.024,0.194,0.043,0.383,0.043,0.561c0,4.043,0,117.855,0,117.855
					c-0.356,7.162-8.086,8.084-8.086,8.084v4.045h15.603V214.99H151.054z"/>
			</defs>
			<clipPath id="SVGID_118_">
				<use xlink:href="#SVGID_117_"  overflow="visible"/>
			</clipPath>
			<path clip-path="url(#SVGID_118_)" fill="none" stroke="#010101" stroke-width="0.6722" stroke-miterlimit="10" d="
				M158.93,231.33"/>
		</g>
	</g>
	<g>
		<g>
			<defs>
				<path id="SVGID_119_" d="M151.054,214.99V90.754l-11.819-15.33l-2.146,2.721c0,0,6.254,7.752,6.378,16.566
					c0.029,0.151,0.038,0.289,0.057,0.433h-0.026c0.024,0.194,0.043,0.383,0.043,0.561c0,4.043,0,117.855,0,117.855
					c-0.356,7.162-8.086,8.084-8.086,8.084v4.045h15.603V214.99H151.054z"/>
			</defs>
			<clipPath id="SVGID_120_">
				<use xlink:href="#SVGID_119_"  overflow="visible"/>
			</clipPath>
			<path clip-path="url(#SVGID_120_)" fill="none" stroke="#010101" stroke-width="0.6722" stroke-miterlimit="10" d="M39.9,75.159"
				/>
		</g>
	</g>
	<g>
		<g>
			<defs>
				<path id="SVGID_121_" d="M151.054,214.99V90.754l-11.819-15.33l-2.146,2.721c0,0,6.254,7.752,6.378,16.566
					c0.029,0.151,0.038,0.289,0.057,0.433h-0.026c0.024,0.194,0.043,0.383,0.043,0.561c0,4.043,0,117.855,0,117.855
					c-0.356,7.162-8.086,8.084-8.086,8.084v4.045h15.603V214.99H151.054z"/>
			</defs>
			<clipPath id="SVGID_122_">
				<use xlink:href="#SVGID_121_"  overflow="visible"/>
			</clipPath>
			<path clip-path="url(#SVGID_122_)" fill="none" stroke="#010101" stroke-width="0.6722" stroke-miterlimit="10" d="
				M154.623,231.33"/>
		</g>
	</g>
	<g>
		<g>
			<defs>
				<path id="SVGID_123_" d="M151.054,214.99V90.754l-11.819-15.33l-2.146,2.721c0,0,6.254,7.752,6.378,16.566
					c0.029,0.151,0.038,0.289,0.057,0.433h-0.026c0.024,0.194,0.043,0.383,0.043,0.561c0,4.043,0,117.855,0,117.855
					c-0.356,7.162-8.086,8.084-8.086,8.084v4.045h15.603V214.99H151.054z"/>
			</defs>
			<clipPath id="SVGID_124_">
				<use xlink:href="#SVGID_123_"  overflow="visible"/>
			</clipPath>
			<path clip-path="url(#SVGID_124_)" fill="none" stroke="#010101" stroke-width="0.6722" stroke-miterlimit="10" d="
				M35.594,75.159"/>
		</g>
	</g>
	<g>
		<g>
			<defs>
				<path id="SVGID_125_" d="M151.054,214.99V90.754l-11.819-15.33l-2.146,2.721c0,0,6.254,7.752,6.378,16.566
					c0.029,0.151,0.038,0.289,0.057,0.433h-0.026c0.024,0.194,0.043,0.383,0.043,0.561c0,4.043,0,117.855,0,117.855
					c-0.356,7.162-8.086,8.084-8.086,8.084v4.045h15.603V214.99H151.054z"/>
			</defs>
			<clipPath id="SVGID_126_">
				<use xlink:href="#SVGID_125_"  overflow="visible"/>
			</clipPath>
			<path clip-path="url(#SVGID_126_)" fill="none" stroke="#010101" stroke-width="0.6722" stroke-miterlimit="10" d="
				M150.316,231.33"/>
		</g>
	</g>
	<g>
		<g>
			<defs>
				<path id="SVGID_127_" d="M151.054,214.99V90.754l-11.819-15.33l-2.146,2.721c0,0,6.254,7.752,6.378,16.566
					c0.029,0.151,0.038,0.289,0.057,0.433h-0.026c0.024,0.194,0.043,0.383,0.043,0.561c0,4.043,0,117.855,0,117.855
					c-0.356,7.162-8.086,8.084-8.086,8.084v4.045h15.603V214.99H151.054z"/>
			</defs>
			<clipPath id="SVGID_128_">
				<use xlink:href="#SVGID_127_"  overflow="visible"/>
			</clipPath>
			<path clip-path="url(#SVGID_128_)" fill="none" stroke="#010101" stroke-width="0.6722" stroke-miterlimit="10" d="
				M31.289,75.159"/>
		</g>
	</g>
	<g>
		<g>
			<defs>
				<path id="SVGID_129_" d="M151.054,214.99V90.754l-11.819-15.33l-2.146,2.721c0,0,6.254,7.752,6.378,16.566
					c0.029,0.151,0.038,0.289,0.057,0.433h-0.026c0.024,0.194,0.043,0.383,0.043,0.561c0,4.043,0,117.855,0,117.855
					c-0.356,7.162-8.086,8.084-8.086,8.084v4.045h15.603V214.99H151.054z"/>
			</defs>
			<clipPath id="SVGID_130_">
				<use xlink:href="#SVGID_129_"  overflow="visible"/>
			</clipPath>
			<path clip-path="url(#SVGID_130_)" fill="none" stroke="#010101" stroke-width="0.6722" stroke-miterlimit="10" d="
				M146.01,231.33"/>
		</g>
	</g>
	<g>
		<g>
			<defs>
				<path id="SVGID_131_" d="M151.054,214.99V90.754l-11.819-15.33l-2.146,2.721c0,0,6.254,7.752,6.378,16.566
					c0.029,0.151,0.038,0.289,0.057,0.433h-0.026c0.024,0.194,0.043,0.383,0.043,0.561c0,4.043,0,117.855,0,117.855
					c-0.356,7.162-8.086,8.084-8.086,8.084v4.045h15.603V214.99H151.054z"/>
			</defs>
			<clipPath id="SVGID_132_">
				<use xlink:href="#SVGID_131_"  overflow="visible"/>
			</clipPath>
			<path clip-path="url(#SVGID_132_)" fill="none" stroke="#010101" stroke-width="0.6722" stroke-miterlimit="10" d="
				M26.984,75.159"/>
		</g>
	</g>
	<g>
		<g>
			<defs>
				<path id="SVGID_133_" d="M151.054,214.99V90.754l-11.819-15.33l-2.146,2.721c0,0,6.254,7.752,6.378,16.566
					c0.029,0.151,0.038,0.289,0.057,0.433h-0.026c0.024,0.194,0.043,0.383,0.043,0.561c0,4.043,0,117.855,0,117.855
					c-0.356,7.162-8.086,8.084-8.086,8.084v4.045h15.603V214.99H151.054z"/>
			</defs>
			<clipPath id="SVGID_134_">
				<use xlink:href="#SVGID_133_"  overflow="visible"/>
			</clipPath>
			<path clip-path="url(#SVGID_134_)" fill="none" stroke="#010101" stroke-width="0.6722" stroke-miterlimit="10" d="
				M141.703,231.33"/>
		</g>
	</g>
</g>
<polygon fill="none" stroke="#577494" stroke-width="0.9335" stroke-miterlimit="10" points="143.251,225.574 151.014,215.062 
	158.775,225.574 "/>
<path fill="none" d="M204.609,158.707c0,0,11.951,14.463,13.002,15.811l-0.321,9.199c-1.271-1.734-12.015-15.229-12.015-15.229
	L204.609,158.707z"/>
<path fill="none" stroke="#577494" stroke-width="1.307" stroke-miterlimit="10" d="M207.125,161.5
	c1.211,1.47,2.877,3.494,4.572,5.555c3.219,3.914,6.543,7.963,7.064,8.633"/>
<path fill="none" stroke="#577494" stroke-width="1.307" stroke-miterlimit="10" d="M217.369,184.141
	c-0.559-0.76-3.038-4.021-5.656-7.461c-3.371-4.428-6.969-9.137-6.969-9.137"/>
<g>
	<path fill="#577494" d="M136.782,38.44c-0.065-0.165-0.014-0.388,0.126-0.488l0.279-0.202c0.104-0.075,0.325-0.101,0.436-0.021
		l10.069,6.298l0.068-0.05l-2.787-11.537c-0.04-0.13,0.036-0.318,0.16-0.406l0.277-0.202c0.141-0.1,0.367-0.078,0.503,0.037
		l10.592,10.19c0.228,0.206,0.219,0.451-0.025,0.627l-1.136,0.817c-0.157,0.113-0.383,0.091-0.507-0.006l-6.909-6.876
		c-0.017,0.012-0.053,0.038-0.053,0.038l2.637,10.294c0.04,0.13-0.002,0.292-0.158,0.405l-0.315,0.227
		c-0.139,0.101-0.324,0.101-0.435,0.021l-8.94-5.759c-0.018,0.012-0.052,0.037-0.069,0.05l4.359,8.711
		c0.07,0.135,0.002,0.37-0.14,0.47l-1.136,0.817c-0.244,0.176-0.479,0.106-0.62-0.163L136.782,38.44z"/>
	<path fill="#577494" d="M161.814,23.464c-0.088-0.196,0.008-0.452,0.202-0.542l1.293-0.588c0.195-0.089,0.452,0.006,0.54,0.203
		l5.903,12.957c0.09,0.196-0.007,0.452-0.202,0.542l-1.293,0.588c-0.193,0.089-0.452-0.006-0.539-0.202L161.814,23.464z"/>
	<path fill="#577494" d="M179.094,16.53c-0.049-0.209,0.101-0.421,0.311-0.47l0.523-0.123l11.549,8.385l0.021-0.004l-2.317-9.905
		c-0.049-0.208,0.073-0.437,0.305-0.49l1.341-0.313c0.21-0.049,0.44,0.095,0.489,0.304l3.299,14.092
		c0.05,0.21-0.101,0.421-0.31,0.471l-0.544,0.126l-11.618-8.678l-0.02,0.005l2.387,10.197c0.047,0.21-0.075,0.438-0.307,0.491
		l-1.318,0.309c-0.21,0.048-0.441-0.096-0.49-0.305L179.094,16.53z"/>
	<path fill="#577494" d="M207.963,12.148c0.003-0.215,0.18-0.406,0.395-0.401l4.947,0.091c4.15,0.077,7.486,3.517,7.41,7.647
		c-0.078,4.172-3.539,7.486-7.689,7.41l-4.946-0.092c-0.216-0.004-0.384-0.201-0.379-0.416L207.963,12.148z M212.762,24.846
		c3.161,0.059,5.506-2.222,5.564-5.404c0.061-3.163-2.199-5.506-5.36-5.565l-2.841-0.053l-0.202,10.97L212.762,24.846z"/>
	<path fill="#577494" d="M236.089,14.665c0.052-0.209,0.263-0.355,0.492-0.3l8.354,2.041c0.229,0.057,0.352,0.284,0.299,0.494
		l-0.285,1.168c-0.051,0.209-0.264,0.357-0.492,0.3l-6.6-1.611l-1.181,4.823l5.576,1.361c0.209,0.051,0.353,0.285,0.302,0.494
		l-0.281,1.148c-0.051,0.209-0.285,0.351-0.494,0.3l-5.574-1.362l-1.342,5.493c-0.051,0.209-0.283,0.35-0.492,0.299l-1.357-0.331
		c-0.229-0.057-0.352-0.285-0.301-0.494L236.089,14.665z"/>
	<path fill="#577494" d="M259.216,21.958c0.095-0.192,0.354-0.281,0.548-0.186l1.293,0.636c0.211,0.104,0.28,0.354,0.188,0.547
		l-3.919,7.966c-0.948,1.928-0.454,4.04,1.514,5.008c1.984,0.978,3.972,0.108,4.91-1.8l3.937-8.004
		c0.096-0.193,0.334-0.291,0.547-0.187l1.293,0.636c0.191,0.095,0.281,0.354,0.188,0.546l-3.984,8.101
		c-1.439,2.932-4.789,4.136-7.836,2.637c-3.026-1.489-4.099-4.866-2.656-7.797L259.216,21.958z"/>
	<path fill="#577494" d="M283.331,35.925c0.132-0.17,0.385-0.219,0.571-0.074l1.125,0.867c0.17,0.131,0.203,0.403,0.072,0.573
		l-7.722,10.018l4.616,3.559c0.188,0.144,0.206,0.403,0.074,0.573l-0.723,0.937c-0.132,0.17-0.387,0.219-0.574,0.075l-6.062-4.676
		c-0.188-0.144-0.206-0.403-0.075-0.574L283.331,35.925z"/>
</g>
<g id="g2462_3_">
	<path id="path2530_3_" marker-end="none" marker-mid="none" marker-start="none" fill="#577494" d="M206.285,312.07
		c0-2.842,2.374-5.15,5.297-5.15s5.35,2.309,5.295,5.15c-0.07,3.816-2.982,5.367-5.295,9.752
		C209.126,317.584,206.285,314.918,206.285,312.07z"/>
</g>
<g>
	<path fill="#577494" d="M140.622,299.482l6.052-13.271c0.06-0.117,0.237-0.217,0.335-0.217h0.197c0.099,0,0.276,0.1,0.336,0.217
		l6.013,13.271c0.119,0.254-0.04,0.512-0.335,0.512h-1.242c-0.236,0-0.374-0.119-0.454-0.295l-1.222-2.701h-6.447
		c-0.394,0.906-0.808,1.795-1.203,2.701c-0.059,0.137-0.215,0.295-0.451,0.295h-1.241
		C140.66,299.994,140.504,299.736,140.622,299.482z M149.553,295.303l-2.425-5.402h-0.1l-2.404,5.402H149.553z"/>
	<path fill="#577494" d="M164.578,288.045h-3.212c-0.22,0-0.377-0.174-0.377-0.373v-1.104c0-0.197,0.157-0.375,0.377-0.375h8.477
		c0.217,0,0.374,0.178,0.374,0.375v1.104c0,0.199-0.157,0.373-0.374,0.373h-3.215v11.576c0,0.195-0.177,0.373-0.374,0.373h-1.302
		c-0.196,0-0.374-0.178-0.374-0.373V288.045L164.578,288.045z"/>
	<path fill="#577494" d="M182.464,288.045h-3.215c-0.215,0-0.374-0.174-0.374-0.373v-1.104c0-0.197,0.159-0.375,0.374-0.375h8.479
		c0.215,0,0.374,0.178,0.374,0.375v1.104c0,0.199-0.159,0.373-0.374,0.373h-3.213v11.576c0,0.195-0.179,0.373-0.376,0.373h-1.302
		c-0.196,0-0.373-0.178-0.373-0.373V288.045z"/>
	<path fill="#577494" d="M198.12,286.568c0-0.197,0.175-0.375,0.374-0.375h1.3c0.197,0,0.376,0.178,0.376,0.375v13.053
		c0,0.195-0.179,0.373-0.376,0.373h-1.3c-0.199,0-0.374-0.178-0.374-0.373V286.568z"/>
	<path fill="#577494" d="M213.775,288.045h-3.215c-0.218,0-0.373-0.174-0.373-0.373v-1.104c0-0.197,0.155-0.375,0.373-0.375h8.478
		c0.217,0,0.376,0.178,0.376,0.375v1.104c0,0.199-0.159,0.373-0.376,0.373h-3.213v11.576c0,0.195-0.179,0.373-0.375,0.373h-1.302
		c-0.197,0-0.373-0.178-0.373-0.373V288.045L213.775,288.045z"/>
	<path fill="#577494" d="M229.252,286.568c0-0.197,0.18-0.375,0.375-0.375h1.318c0.219,0,0.378,0.178,0.378,0.375v8.143
		c0,1.971,1.262,3.51,3.271,3.51c2.029,0,3.312-1.518,3.312-3.471v-8.182c0-0.197,0.156-0.375,0.375-0.375h1.318
		c0.197,0,0.375,0.178,0.375,0.375v8.281c0,2.992-2.268,5.342-5.382,5.342c-3.096,0-5.344-2.35-5.344-5.342L229.252,286.568
		L229.252,286.568z"/>
	<path fill="#577494" d="M251.516,286.568c0-0.197,0.155-0.375,0.354-0.375h4.533c3.807,0,6.921,3.096,6.921,6.881
		c0,3.826-3.114,6.92-6.921,6.92h-4.533c-0.197,0-0.354-0.178-0.354-0.373V286.568L251.516,286.568z M256.127,298.121
		c2.896,0,5.007-2.129,5.007-5.047c0-2.898-2.108-5.006-5.007-5.006h-2.604v10.053H256.127z"/>
	<path fill="#577494" d="M274.053,286.568c0-0.197,0.156-0.375,0.373-0.375h7.887c0.217,0,0.375,0.178,0.375,0.375v1.104
		c0,0.199-0.158,0.373-0.375,0.373h-6.229v4.023h5.265c0.197,0,0.375,0.178,0.375,0.375v1.104c0,0.217-0.178,0.373-0.375,0.373
		h-5.265v4.24h6.229c0.217,0,0.375,0.176,0.375,0.373v1.086c0,0.193-0.158,0.373-0.375,0.373h-7.887
		c-0.217,0-0.373-0.18-0.373-0.373V286.568z"/>
</g>
</svg>
