<?xml version="1.0" encoding="utf-8"?>
<!-- Generator: Adobe Illustrator 16.0.0, SVG Export Plug-In . SVG Version: 6.00 Build 0)  -->
<!DOCTYPE svg PUBLIC "-//W3C//DTD SVG 1.1//EN" "http://www.w3.org/Graphics/SVG/1.1/DTD/svg11.dtd">
<svg version="1.1" id="Calque_1" xmlns="http://www.w3.org/2000/svg" xmlns:xlink="http://www.w3.org/1999/xlink" x="0px" y="0px"
	 width="400px" height="330px" viewBox="0 0 400 330" enable-background="new 0 0 400 330" xml:space="preserve">
<g>
	<path fill="#1A171B" d="M147.894,252.337c0.103,2.171-0.208,9.034-7.483,10.012c-1.135,0.158-4.286,0.462-4.336-4.695
		c-0.053-5.161-0.053-21.059-0.053-21.059s0.414-2.993-2.837-1.083c-1.241,0.827-1.857,2.891-1.857,3.356v18.011
		c0,0-0.309,6.916,6.811,7.175c4.495,0.053,10.972-0.105,13.834-6.813c2.858-6.711-1.339-11.732-7.38-12.073
		c0,0,6.937-1.654,7.145-7.919c0-4.179-4.217-7.723-9.63-7.876c-5.413-0.157-10.261,0.567-13.722,2.943
		c-3.457,2.374-8.721,9.29-5.214,15.379c1.04,1.53,3.15,1.444,4.028,1.444s3.219,0,0.382-3.561
		c-1.136-2.065-1.083-7.397,2.065-10.599c1.91-2.065,6.688-5.04,11.849-3.805c2.013,0.416,7.076,2.427,4.942,9.101
		c-0.517,1.037-2.516,4.22-7.11,4.323c0,0-2.095-0.055-1.321,1.028C138.78,246.714,147.254,244.391,147.894,252.337z"/>
	<path fill="#1A171B" d="M174.512,254.266c0.441-3.039,0.546-5.306,0.638-6.311c0,0,0.566,0.619,4.901,0.619
		c0,0-1.339,18.582,1.602,22.45c0.464,0.827,3.459,6.655,10.684,4.798c2.219-0.517,4.284-3.457,4.851-5.111
		c0.569-1.649-0.772-1.131-1.444-0.048s-2.374,4.079-6.039,4.023c-2.788-0.256-5.164-2.424-5.264-10.992
		c0.206-8.515,0.464-16.566,0.464-16.566s0-2.273-2.427-2.529c-2.426-0.259-6.142,0.36-6.452-1.547
		c0.053-0.88,0.517-1.808,0.877-2.374c0.363-0.569-2.424-2.273-3.815-0.672c-1.396,1.6-2.066,4.901,0.306,6.967l0.285,0.155
		l-0.989,11.508"/>
	<path fill="#1A171B" d="M173.285,251.69c0,0-0.114,8.783-7.181,10.382c-7.072,1.602-7.572-6.263-7.572-6.263
		s11.906-3.198,12.045-11.458c0.041-2.719-2.902-5.013-5.404-5.013c-2.504,0-6.811,0.669-9.443,4.281
		c-2.634,3.612-2.376,10.806-2.068,12.189c0.311,1.385,1.113,6.521,7.046,8.045c1.083,0.411,6.596,0.249,9.237-1.729
		c2.596-1.946,4.398-5.035,4.762-9.164L173.285,251.69z M159.626,243.956c3.56-5.522,7.433-2.659,7.535,0.387
		c-0.311,7.898-8.957,10.094-8.957,10.094C157.949,247.104,159.473,244.292,159.626,243.956z"/>
	<path fill="#1A171B" d="M186.95,245.864c0,0,0.107-3.587,1.524-4.458c1.412-0.87,2.936-0.434,2.936,0.98c0,1.412,0,3.37,0,3.37
		s2.827-5.68,6.74-4.798c1.195,0.447,3.375,1.318,4.023,5.561c0,0,2.395-5.325,5.765-5.654s5.548,3.152,5.765,7.284
		c0.215,4.133-0.22,9.352,0.759,11.417c0.979,2.069,2.575,3.466,5.113,0.979c0,0,2.392-0.653,0.761,1.195
		c-1.632,1.851-9.93,5.776-10.458-2.899c-0.527-8.68-0.633-13.194-0.633-13.194s-0.089-5.189-3.592-2.505
		c-1.023,0.965-1.747,1.499-2.608,3.595c-0.861,2.1-0.437,7.938-0.544,10.112c-0.11,2.175-0.019,4.855-1.431,6.706
		c-1.412,1.848-2.89-0.832-2.92-2.792c-0.03-1.961,0-13.161,0-14.139s-0.229-5.942-3.151-3.805
		c-0.966,0.684-3.393,3.489-3.589,6.851c0,1.634-0.219,8.915-0.219,8.915s0.125,3.88-1.887,5.219c0,0-2.246,1.092-2.354-2.604
		C186.841,257.501,186.95,245.864,186.95,245.864z"/>
	<path fill="#1A171B" d="M228.785,259.271c0,0-1.006,6.075-6.425,4.771c-3.764-0.05-4.917-5.874-5.07-8.084
		c-0.15-2.204-0.283-6.662-0.251-8.028c0,0-0.252-5.824,2.762-6.576c0.604-0.052,1.504,0.402,1.606,1.606
		c0.101,1.204,0,10.489,0,11.998c0,1.505,0.35,5.668,1.905,7.124c0.353,0.301,2.612,1.96,4.269-2.758
		c0.198-0.651,0.853-2.411,0.601-8.483c-0.251-6.073,0.402-9.394,3.162-9.491c0.653,0.055,1.003,0.756,1.154,1.862
		c0.153,1.104-0.151,11.293,0,13.354c0.153,2.052,1.056,6.267,3.768,6.043c0.599-0.123,1.503-0.624,2.057-2.132
		c0.553-1.506,0.603-2.31,0.603-2.31v3.144c0,0-1.641,4.149-5.908,2.611C231.979,263.539,230.357,262.954,228.785,259.271z"/>
	<path fill="#1A171B" d="M279.743,265.689c-0.466,0.566-1.652,1.752-3.304,1.133c-1.652-0.619-3.252-2.785-4.026-4.798
		c-0.774-2.015-0.669-7.898-0.742-10.892c-0.066-2.993,0.019-9.066,0-9.343c-1.291-3.406-3.978,1.284-3.978,1.284
		c-0.727-1.398-1.906-2.127-3.798-1.951c-4.197,0.387-7.946,5.413-7.946,12.099c0,6.688,1.741,11.021,6.502,11.021
		c2.681,0,4.371-1.743,5.338-4.46c0.048,2.146,1.218,4.718,2.042,5.748c5.265,6.35,9.396,2.633,10.479,1.468
		C281.393,265.829,280.207,265.12,279.743,265.689z M263.329,262.589c-2.553,0-3.019-3.752-3.019-9.468
		c0-5.72,1.547-10.013,3.638-10.245c2.76-0.307,3.461,3.578,3.461,9.294C267.409,257.889,265.884,262.589,263.329,262.589z"/>
	<path fill="#1A171B" d="M258.412,258.279c-0.825,3.044-1.96,3.615-2.58,3.974c-3.355,0.88-4.387-3.715-4.645-8.671
		c-0.258-4.951,0-20.387,0-24.205c-0.617-20.644-9.153-28.283-17.204-29.316c-18.302-2.685-22.227,14.589-21.194,22.779
		c1.033,8.189,6.194,12.112,8.603,13.627c2.408,1.513,1.721-0.967,0.824-1.378c-9.77-5.782-8.942-17.41-7.363-22.571
		c1.583-5.161,7.777-11.355,14.314-11.147c6.536,0.203,10.53,2.202,14.383,10.803c3.852,8.604,3.217,29.503,3.217,29.503
		c-0.994-1.608-2.379-2.46-4.182-2.25c-3.715,0.425-7.912,4.983-7.912,12.109c0,10.392,2.742,12.73,7.019,12.73
		c2.534,0,4.531-2.04,5.735-5.19c0.523,2.296,2.728,4.624,4.175,4.882c6.301,1.344,7.479-4.542,7.948-5.78
		C260.014,256.937,259.239,255.234,258.412,258.279z M242.631,262.461c-2.285,0-3.996-1.99-3.418-10.81
		c0.551-8.374,2.246-9.935,4.229-10.298c2.243-0.411,2.782,3.585,3.271,10.122C247.127,256.976,244.916,262.461,242.631,262.461z"/>
</g>
<g>
	<path fill="#1A171B" d="M89.803,82.946h27.333v8.038h-9.247v48.234h-8.845V90.984h-9.242V82.946z"/>
	<path fill="#1A171B" d="M120.335,96.621c0-9.004,4.745-14.147,13.428-14.147c8.68,0,13.423,5.143,13.423,14.147v29.261
		c0,9-4.743,14.146-13.423,14.146c-8.683,0-13.428-5.146-13.428-14.146V96.621z M129.177,126.442c0,4.023,1.775,5.547,4.586,5.547
		c2.814,0,4.581-1.524,4.581-5.547V96.059c0-4.021-1.767-5.55-4.581-5.55c-2.811,0-4.586,1.528-4.586,5.55V126.442z"/>
	<path fill="#1A171B" d="M157.056,83.331h8.844v56.274h-8.844V83.331z"/>
	<path fill="#1A171B" d="M100.681,107.903c-0.263-0.132-0.576-0.112-0.818,0.057l-3.751,2.653c-0.21,0.148-0.332,0.386-0.332,0.642
		c0,0.256,0.121,0.496,0.332,0.642l3.751,2.655c0.135,0.096,0.295,0.142,0.453,0.142c0.123,0,0.247-0.027,0.365-0.087
		c0.261-0.132,0.42-0.404,0.42-0.697v-5.31C101.101,108.308,100.941,108.038,100.681,107.903z"/>
	<path fill="#1A171B" d="M121.968,108.116c-0.26-0.135-0.571-0.112-0.815,0.057l-3.747,2.655c-0.208,0.146-0.333,0.384-0.333,0.64
		s0.125,0.496,0.333,0.642l3.747,2.655c0.139,0.094,0.297,0.144,0.459,0.144c0.121,0,0.247-0.03,0.356-0.091
		c0.263-0.133,0.43-0.405,0.43-0.697v-5.305C122.398,108.52,122.231,108.25,121.968,108.116z"/>
	<path fill="#1A171B" d="M140.011,108.116c-0.263-0.135-0.576-0.112-0.818,0.057l-3.749,2.655c-0.208,0.146-0.332,0.384-0.332,0.64
		s0.124,0.496,0.332,0.642l3.749,2.655c0.137,0.094,0.295,0.144,0.455,0.144c0.124,0,0.247-0.03,0.363-0.091
		c0.263-0.133,0.425-0.405,0.425-0.697v-5.305C140.437,108.52,140.274,108.25,140.011,108.116z"/>
	<path fill="#1A171B" d="M158.658,108.333c-0.26-0.135-0.576-0.114-0.816,0.055l-3.749,2.655c-0.21,0.146-0.333,0.386-0.333,0.642
		s0.123,0.496,0.333,0.642l3.749,2.655c0.135,0.096,0.295,0.142,0.453,0.142c0.125,0,0.251-0.028,0.363-0.087
		c0.26-0.135,0.425-0.404,0.425-0.699v-5.305C159.083,108.737,158.918,108.468,158.658,108.333z"/>
	<path fill="#1A171B" d="M106.338,114.603c0.263,0.135,0.576,0.112,0.816-0.057l3.75-2.653c0.212-0.151,0.335-0.388,0.335-0.642
		c0-0.256-0.123-0.494-0.335-0.642l-3.75-2.655c-0.133-0.096-0.292-0.144-0.457-0.144c-0.119,0-0.24,0.03-0.359,0.089
		c-0.258,0.135-0.425,0.402-0.425,0.697v5.308C105.913,114.198,106.08,114.465,106.338,114.603z"/>
	<path fill="#1A171B" d="M127.651,114.803c0.263,0.133,0.578,0.112,0.82-0.059l3.747-2.65c0.21-0.146,0.332-0.389,0.332-0.642
		c0-0.256-0.121-0.496-0.332-0.642l-3.747-2.653c-0.139-0.098-0.297-0.144-0.455-0.144c-0.125,0-0.247,0.025-0.365,0.086
		c-0.258,0.133-0.423,0.405-0.423,0.697v5.308C127.228,114.397,127.393,114.668,127.651,114.803z"/>
	<path fill="#1A171B" d="M145.648,114.803c0.263,0.133,0.576,0.112,0.816-0.059l3.749-2.65c0.213-0.146,0.336-0.389,0.336-0.642
		c0-0.256-0.123-0.496-0.336-0.642l-3.749-2.653c-0.135-0.098-0.292-0.144-0.453-0.144c-0.125,0-0.249,0.025-0.363,0.086
		c-0.26,0.133-0.425,0.405-0.425,0.697v5.308C145.223,114.397,145.388,114.668,145.648,114.803z"/>
	<path fill="#1A171B" d="M164.365,114.986c0.26,0.137,0.571,0.112,0.813-0.055l3.751-2.655c0.206-0.146,0.329-0.386,0.329-0.642
		c0-0.253-0.124-0.493-0.329-0.642l-3.751-2.655c-0.137-0.096-0.292-0.142-0.455-0.142c-0.123,0-0.247,0.03-0.358,0.089
		c-0.263,0.135-0.425,0.402-0.425,0.697v5.308C163.94,114.582,164.103,114.854,164.365,114.986z"/>
</g>
<g>
	<path fill="#1A171B" d="M249.565,115.057c0.263,0.137,0.575,0.114,0.815-0.055l3.752-2.655c0.208-0.146,0.329-0.384,0.329-0.642
		c0-0.253-0.121-0.493-0.329-0.64l-3.752-2.655c-0.135-0.094-0.292-0.142-0.452-0.142c-0.126,0-0.247,0.027-0.363,0.087
		c-0.259,0.132-0.423,0.402-0.423,0.697v5.308C249.143,114.655,249.307,114.924,249.565,115.057z"/>
	<path fill="#1A171B" d="M232.797,123.474l6.019-39.86h12.267v56.142h-8.339V99.495l-6.094,40.261h-8.34l-6.578-39.701v39.701
		h-7.701V83.614h12.273L232.797,123.474z"/>
	<path fill="#1A171B" d="M297.665,83.536h8.821v56.142h-8.821V83.536z"/>
	<path fill="#1A171B" d="M215.632,108.337c-0.263-0.135-0.576-0.109-0.816,0.057l-3.751,2.655c-0.211,0.146-0.332,0.384-0.332,0.642
		c0,0.256,0.121,0.494,0.332,0.64l3.751,2.655c0.133,0.096,0.298,0.144,0.453,0.144c0.125,0,0.246-0.028,0.363-0.089
		c0.26-0.132,0.422-0.402,0.422-0.697v-5.308C216.054,108.742,215.892,108.472,215.632,108.337z"/>
	<path fill="#1A171B" d="M299.301,108.356c-0.263-0.135-0.573-0.114-0.813,0.057l-3.752,2.655c-0.207,0.144-0.333,0.386-0.333,0.642
		c0,0.253,0.126,0.493,0.333,0.64l3.752,2.655c0.133,0.094,0.295,0.142,0.452,0.142c0.121,0,0.247-0.027,0.361-0.089
		c0.263-0.133,0.425-0.402,0.425-0.697v-5.306C299.726,108.763,299.563,108.491,299.301,108.356z"/>
	<path fill="#1A171B" d="M304.951,115.06c0.263,0.137,0.573,0.114,0.813-0.055l3.752-2.655c0.21-0.146,0.335-0.386,0.335-0.64
		c0-0.256-0.125-0.496-0.335-0.642l-3.752-2.655c-0.133-0.094-0.293-0.144-0.452-0.144c-0.124,0-0.247,0.027-0.361,0.089
		c-0.263,0.133-0.428,0.405-0.428,0.697v5.308C304.523,114.657,304.688,114.924,304.951,115.06z"/>
	<path fill="#1A171B" d="M260.894,96.271c0-9.004,4.745-14.15,13.423-14.15c8.683,0,13.426,5.146,13.426,14.15v29.259
		c0,9.002-4.743,14.147-13.426,14.147c-8.678,0-13.423-5.146-13.423-14.147V96.271z M269.738,126.09c0,4.023,1.771,5.55,4.578,5.55
		c2.815,0,4.583-1.526,4.583-5.55V95.707c0-4.017-1.768-5.547-4.583-5.547c-2.808,0-4.578,1.531-4.578,5.547V126.09z"/>
	<path fill="#1A171B" d="M262.529,108.333c-0.265-0.135-0.578-0.114-0.818,0.055l-3.749,2.655c-0.21,0.146-0.331,0.386-0.331,0.642
		s0.121,0.496,0.331,0.642l3.749,2.655c0.138,0.096,0.298,0.142,0.457,0.142c0.124,0,0.242-0.028,0.361-0.087
		c0.261-0.135,0.423-0.404,0.423-0.699v-5.305C262.952,108.737,262.79,108.468,262.529,108.333z"/>
	<path fill="#1A171B" d="M280.567,108.356c-0.263-0.137-0.575-0.114-0.82,0.057l-3.742,2.655c-0.212,0.144-0.336,0.384-0.336,0.642
		c0,0.253,0.124,0.491,0.336,0.64l3.742,2.655c0.14,0.094,0.3,0.142,0.46,0.142c0.123,0,0.244-0.027,0.36-0.089
		c0.259-0.133,0.426-0.402,0.426-0.697v-5.308C280.993,108.758,280.826,108.491,280.567,108.356z"/>
	<path fill="#1A171B" d="M268.212,115.037c0.26,0.135,0.571,0.112,0.813-0.057l3.749-2.655c0.21-0.144,0.333-0.384,0.333-0.642
		c0-0.254-0.123-0.494-0.333-0.64l-3.749-2.655c-0.135-0.096-0.293-0.144-0.455-0.144c-0.123,0-0.244,0.03-0.358,0.089
		c-0.266,0.135-0.426,0.404-0.426,0.699v5.305C267.786,114.632,267.946,114.899,268.212,115.037z"/>
	<path fill="#1A171B" d="M286.204,115.057c0.263,0.139,0.578,0.117,0.816-0.053l3.751-2.655c0.21-0.146,0.334-0.386,0.334-0.64
		c0-0.256-0.124-0.498-0.334-0.642l-3.751-2.655c-0.133-0.096-0.293-0.144-0.453-0.144c-0.123,0-0.246,0.027-0.363,0.087
		c-0.26,0.135-0.425,0.407-0.425,0.699v5.306C285.779,114.655,285.944,114.924,286.204,115.057z"/>
</g>
<rect x="185.515" y="98.285" transform="matrix(-0.7071 -0.7071 0.7071 -0.7071 244.6876 324.768)" fill="#1A171B" width="8.181" height="26.845"/>
<rect x="185.514" y="98.286" transform="matrix(0.7073 -0.707 0.707 0.7073 -23.4666 166.7448)" fill="#1A171B" width="8.183" height="26.843"/>
<polygon fill="#EDA4A2" points="98.2,177.053 88.245,182.802 98.2,188.55 108.152,182.802 "/>
<polygon fill="#EDA4A2" points="305.666,177.053 295.711,182.802 305.666,188.55 315.619,182.802 "/>
<g>
	<g>
		<circle fill="#1A171B" cx="121.607" cy="157.955" r="0.535"/>
		<circle fill="#1A171B" cx="124.9" cy="158.996" r="0.535"/>
		<path fill="#1A171B" d="M127.68,159.875c-0.091,0.284,0.066,0.581,0.35,0.672c0.281,0.089,0.581-0.066,0.669-0.35
			c0.092-0.281-0.066-0.58-0.347-0.669C128.071,159.439,127.77,159.595,127.68,159.875z"/>
		<path fill="#1A171B" d="M130.971,160.917c-0.089,0.283,0.066,0.583,0.349,0.672c0.281,0.089,0.581-0.066,0.672-0.35
			c0.089-0.279-0.068-0.581-0.347-0.669C131.361,160.479,131.06,160.637,130.971,160.917z"/>
		<path fill="#1A171B" d="M134.263,161.959c-0.089,0.281,0.066,0.58,0.345,0.672c0.283,0.086,0.585-0.069,0.674-0.35
			c0.089-0.284-0.068-0.583-0.347-0.672C134.651,161.521,134.35,161.678,134.263,161.959z"/>
		<circle fill="#1A171B" cx="138.063" cy="163.162" r="0.534"/>
		<path fill="#1A171B" d="M140.843,164.041c-0.089,0.283,0.068,0.583,0.35,0.674c0.283,0.087,0.583-0.068,0.671-0.35
			c0.089-0.283-0.068-0.583-0.35-0.674C141.236,163.602,140.935,163.76,140.843,164.041z"/>
		<circle fill="#1A171B" cx="144.645" cy="165.245" r="0.534"/>
		<path fill="#1A171B" d="M147.426,166.122c-0.087,0.283,0.066,0.585,0.35,0.674c0.281,0.09,0.58-0.065,0.671-0.347
			c0.089-0.286-0.068-0.583-0.35-0.674C147.816,165.686,147.515,165.842,147.426,166.122z"/>
		<circle fill="#1A171B" cx="151.226" cy="167.327" r="0.535"/>
		<circle fill="#1A171B" cx="154.519" cy="168.369" r="0.535"/>
		<path fill="#1A171B" d="M157.298,169.248c-0.089,0.285,0.068,0.583,0.35,0.672c0.281,0.091,0.583-0.066,0.671-0.35
			c0.089-0.281-0.068-0.58-0.35-0.67C157.689,168.812,157.39,168.967,157.298,169.248z"/>
		<path fill="#1A171B" d="M160.591,170.29c-0.092,0.283,0.066,0.582,0.35,0.672c0.281,0.091,0.58-0.066,0.669-0.35
			c0.089-0.281-0.066-0.581-0.348-0.672C160.981,169.855,160.68,170.007,160.591,170.29z"/>
		<circle fill="#1A171B" cx="164.391" cy="171.494" r="0.536"/>
		<path fill="#1A171B" d="M167.171,172.371c-0.087,0.286,0.068,0.585,0.35,0.672c0.281,0.092,0.583-0.066,0.672-0.345
			c0.091-0.283-0.069-0.585-0.35-0.674C167.562,171.935,167.26,172.093,167.171,172.371z"/>
		<path fill="#1A171B" d="M170.461,173.415c-0.087,0.281,0.068,0.583,0.352,0.67c0.279,0.089,0.58-0.066,0.671-0.348
			c0.089-0.283-0.068-0.582-0.35-0.672C170.852,172.977,170.552,173.135,170.461,173.415z"/>
		<circle fill="#1A171B" cx="174.265" cy="174.618" r="0.534"/>
		<circle fill="#1A171B" cx="177.555" cy="175.659" r="0.534"/>
		<path fill="#1A171B" d="M180.336,176.539c-0.089,0.28,0.066,0.582,0.35,0.672c0.281,0.089,0.58-0.066,0.672-0.348
			c0.089-0.286-0.066-0.585-0.35-0.672C180.727,176.103,180.425,176.26,180.336,176.539z"/>
		<circle fill="#1A171B" cx="184.138" cy="177.743" r="0.537"/>
		<path fill="#1A171B" d="M186.918,178.622c-0.089,0.281,0.066,0.583,0.35,0.672c0.281,0.09,0.583-0.066,0.671-0.35
			c0.089-0.283-0.068-0.58-0.352-0.672C187.309,178.184,187.007,178.339,186.918,178.622z"/>
		<circle fill="#1A171B" cx="190.72" cy="179.825" r="0.534"/>
		<path fill="#1A171B" d="M193.501,180.706c-0.089,0.281,0.066,0.58,0.347,0.67c0.283,0.091,0.583-0.066,0.672-0.348
			c0.089-0.283-0.066-0.583-0.347-0.674C193.889,180.27,193.59,180.423,193.501,180.706z"/>
		<path fill="#1A171B" d="M196.791,181.748c-0.089,0.278,0.066,0.58,0.35,0.67c0.283,0.089,0.58-0.066,0.672-0.35
			c0.089-0.284-0.066-0.581-0.35-0.672C197.182,181.31,196.88,181.465,196.791,181.748z"/>
		<path fill="#1A171B" d="M200.081,182.788c-0.089,0.28,0.068,0.582,0.352,0.669c0.281,0.092,0.581-0.063,0.669-0.348
			c0.091-0.28-0.066-0.582-0.35-0.671C200.472,182.349,200.172,182.507,200.081,182.788z"/>
		<path fill="#1A171B" d="M203.371,183.829c-0.087,0.281,0.068,0.583,0.352,0.67c0.281,0.092,0.583-0.064,0.672-0.348
			c0.09-0.283-0.066-0.58-0.35-0.672C203.765,183.391,203.465,183.546,203.371,183.829z"/>
		<path fill="#1A171B" d="M206.666,184.869c-0.092,0.283,0.066,0.585,0.348,0.672c0.283,0.091,0.582-0.066,0.671-0.348
			c0.09-0.283-0.065-0.58-0.347-0.674C207.055,184.433,206.755,184.588,206.666,184.869z"/>
		<circle fill="#1A171B" cx="210.465" cy="186.072" r="0.534"/>
		<circle fill="#1A171B" cx="213.758" cy="187.115" r="0.536"/>
	</g>
	<g>
		<path fill="#1A171B" d="M217.261,188.224c-0.087,0.285,0.068,0.582,0.352,0.671c0.279,0.092,0.58-0.063,0.67-0.35
			c0.091-0.28-0.066-0.58-0.348-0.669C217.651,187.787,217.352,187.942,217.261,188.224z"/>
		<circle fill="#1A171B" cx="221.063" cy="189.429" r="0.536"/>
		<path fill="#1A171B" d="M223.846,190.31c-0.092,0.28,0.065,0.58,0.347,0.669c0.281,0.092,0.583-0.066,0.672-0.35
			c0.089-0.281-0.066-0.582-0.348-0.672C224.233,189.868,223.932,190.026,223.846,190.31z"/>
		<path fill="#1A171B" d="M227.136,191.349c-0.09,0.283,0.066,0.583,0.347,0.672c0.283,0.089,0.585-0.068,0.672-0.35
			c0.089-0.281-0.066-0.583-0.347-0.672C227.523,190.912,227.225,191.065,227.136,191.349z"/>
		<path fill="#1A171B" d="M230.428,192.391c-0.092,0.279,0.066,0.583,0.348,0.67c0.281,0.091,0.582-0.066,0.669-0.348
			c0.092-0.283-0.066-0.583-0.347-0.672C230.816,191.952,230.517,192.109,230.428,192.391z"/>
		<path fill="#1A171B" d="M233.718,193.431c-0.089,0.283,0.066,0.582,0.35,0.674c0.281,0.089,0.58-0.068,0.672-0.348
			c0.087-0.285-0.068-0.582-0.35-0.674C234.108,192.994,233.807,193.149,233.718,193.431z"/>
		<path fill="#1A171B" d="M237.008,194.477c-0.089,0.276,0.066,0.58,0.35,0.667c0.281,0.09,0.58-0.066,0.672-0.347
			c0.089-0.283-0.068-0.583-0.35-0.672C237.398,194.033,237.098,194.193,237.008,194.477z"/>
		<path fill="#1A171B" d="M240.298,195.514c-0.087,0.283,0.069,0.583,0.35,0.67c0.281,0.091,0.583-0.064,0.672-0.348
			c0.089-0.278-0.066-0.582-0.347-0.669C240.688,195.075,240.388,195.233,240.298,195.514z"/>
		<path fill="#1A171B" d="M243.593,196.559c-0.091,0.278,0.064,0.582,0.345,0.669c0.283,0.089,0.583-0.066,0.672-0.348
			c0.089-0.283-0.066-0.585-0.347-0.671C243.981,196.117,243.678,196.272,243.593,196.559z"/>
		<path fill="#1A171B" d="M246.883,197.598c-0.091,0.281,0.066,0.583,0.345,0.672c0.284,0.089,0.585-0.068,0.675-0.352
			c0.089-0.279-0.069-0.581-0.35-0.672C247.271,197.161,246.97,197.316,246.883,197.598z"/>
		<path fill="#1A171B" d="M250.173,198.638c-0.091,0.285,0.066,0.582,0.35,0.671c0.281,0.092,0.583-0.065,0.67-0.349
			c0.091-0.279-0.066-0.583-0.348-0.668C250.562,198.201,250.262,198.354,250.173,198.638z"/>
		<path fill="#1A171B" d="M253.463,199.682c-0.089,0.283,0.066,0.58,0.35,0.669c0.281,0.092,0.583-0.063,0.672-0.35
			c0.089-0.278-0.066-0.58-0.35-0.669C253.854,199.243,253.553,199.396,253.463,199.682z"/>
		<path fill="#1A171B" d="M256.753,200.721c-0.087,0.281,0.066,0.583,0.35,0.672c0.281,0.092,0.583-0.066,0.672-0.347
			c0.089-0.284-0.066-0.583-0.35-0.672C257.146,200.285,256.845,200.438,256.753,200.721z"/>
		<path fill="#1A171B" d="M260.048,201.761c-0.091,0.283,0.064,0.585,0.345,0.676c0.281,0.085,0.583-0.068,0.672-0.352
			c0.092-0.281-0.066-0.58-0.347-0.672C260.437,201.324,260.135,201.479,260.048,201.761z"/>
		<path fill="#1A171B" d="M263.338,202.805c-0.089,0.283,0.066,0.583,0.348,0.67c0.283,0.089,0.582-0.064,0.672-0.35
			c0.089-0.279-0.068-0.578-0.348-0.672C263.727,202.366,263.425,202.521,263.338,202.805z"/>
		<path fill="#1A171B" d="M266.628,203.847c-0.091,0.278,0.066,0.583,0.35,0.672c0.281,0.089,0.581-0.066,0.67-0.35
			s-0.066-0.583-0.348-0.672S266.718,203.563,266.628,203.847z"/>
		<path fill="#1A171B" d="M269.918,204.887c-0.089,0.283,0.069,0.582,0.35,0.674c0.281,0.089,0.583-0.068,0.672-0.35
			c0.089-0.283-0.066-0.585-0.35-0.674C270.309,204.452,270.008,204.605,269.918,204.887z"/>
		<path fill="#1A171B" d="M273.208,205.928c-0.086,0.284,0.071,0.585,0.35,0.672c0.281,0.09,0.583-0.063,0.672-0.347
			s-0.066-0.583-0.35-0.672C273.602,205.489,273.298,205.647,273.208,205.928z"/>
		<path fill="#1A171B" d="M276.503,206.97c-0.091,0.281,0.066,0.583,0.345,0.672c0.284,0.092,0.583-0.066,0.675-0.35
			c0.089-0.278-0.069-0.582-0.353-0.669C276.892,206.533,276.588,206.687,276.503,206.97z"/>
		<circle fill="#1A171B" cx="280.303" cy="208.172" r="0.535"/>
		<path fill="#1A171B" d="M302.828,215.303"/>
	</g>
</g>
<g>
	<g>
		<path fill="#1A171B" d="M281.018,157.335c0.092,0.283-0.063,0.585-0.343,0.674c-0.283,0.092-0.585-0.062-0.676-0.342
			c-0.089-0.284,0.062-0.585,0.345-0.674C280.625,156.898,280.924,157.056,281.018,157.335z"/>
		<circle fill="#1A171B" cx="277.224" cy="158.564" r="0.534"/>
		<path fill="#1A171B" d="M274.449,159.462c0.089,0.281-0.064,0.578-0.345,0.672c-0.281,0.091-0.583-0.062-0.675-0.343
			c-0.091-0.283,0.064-0.585,0.346-0.674C274.056,159.026,274.357,159.179,274.449,159.462z"/>
		<path fill="#1A171B" d="M271.163,160.522c0.092,0.286-0.062,0.583-0.343,0.674c-0.283,0.091-0.584-0.062-0.676-0.345
			c-0.092-0.279,0.063-0.583,0.348-0.674C270.771,160.086,271.074,160.241,271.163,160.522z"/>
		<path fill="#1A171B" d="M267.88,161.585c0.092,0.283-0.063,0.583-0.345,0.676c-0.281,0.086-0.582-0.064-0.674-0.348
			c-0.092-0.281,0.066-0.583,0.345-0.671C267.487,161.15,267.789,161.306,267.88,161.585z"/>
		<circle fill="#1A171B" cx="264.086" cy="162.813" r="0.535"/>
		<circle fill="#1A171B" cx="260.802" cy="163.875" r="0.536"/>
		<circle fill="#1A171B" cx="257.518" cy="164.938" r="0.535"/>
		<path fill="#1A171B" d="M254.742,165.834c0.092,0.281-0.062,0.583-0.345,0.677c-0.281,0.089-0.58-0.063-0.674-0.345
			c-0.092-0.283,0.064-0.583,0.345-0.677C254.35,165.398,254.651,165.554,254.742,165.834z"/>
		<path fill="#1A171B" d="M251.459,166.896c0.092,0.286-0.063,0.583-0.345,0.675c-0.281,0.091-0.582-0.062-0.674-0.346
			c-0.092-0.28,0.063-0.58,0.345-0.672C251.064,166.463,251.368,166.616,251.459,166.896z"/>
		<circle fill="#1A171B" cx="247.666" cy="168.125" r="0.535"/>
		<path fill="#1A171B" d="M244.889,169.024c0.091,0.283-0.062,0.58-0.343,0.671c-0.281,0.094-0.583-0.063-0.675-0.342
			c-0.091-0.284,0.064-0.585,0.346-0.675C244.498,168.59,244.799,168.74,244.889,169.024z"/>
		<path fill="#1A171B" d="M241.607,170.087c0.089,0.28-0.066,0.582-0.345,0.674c-0.283,0.091-0.585-0.064-0.677-0.348
			c-0.089-0.278,0.064-0.58,0.345-0.674C241.215,169.652,241.514,169.806,241.607,170.087z"/>
		<circle fill="#1A171B" cx="237.812" cy="171.312" r="0.536"/>
		<circle fill="#1A171B" cx="234.528" cy="172.375" r="0.535"/>
		<path fill="#1A171B" d="M231.753,173.273c0.092,0.281-0.062,0.583-0.345,0.672c-0.281,0.092-0.583-0.062-0.674-0.343
			c-0.092-0.283,0.063-0.585,0.345-0.674C231.36,172.837,231.662,172.993,231.753,173.273z"/>
		<circle fill="#1A171B" cx="227.959" cy="174.5" r="0.535"/>
		<circle fill="#1A171B" cx="224.675" cy="175.563" r="0.533"/>
		<circle fill="#1A171B" cx="221.391" cy="176.625" r="0.537"/>
		<circle fill="#1A171B" cx="218.106" cy="177.688" r="0.535"/>
		<circle fill="#1A171B" cx="214.823" cy="178.75" r="0.535"/>
		<path fill="#1A171B" d="M212.047,179.648c0.094,0.283-0.064,0.58-0.343,0.672c-0.281,0.094-0.583-0.062-0.677-0.343
			c-0.091-0.281,0.066-0.583,0.348-0.674C211.653,179.212,211.955,179.365,212.047,179.648z"/>
		<path fill="#1A171B" d="M208.764,180.711c0.091,0.281-0.064,0.58-0.346,0.672c-0.283,0.094-0.582-0.06-0.674-0.343
			c-0.091-0.281,0.064-0.583,0.345-0.674C208.37,180.276,208.672,180.43,208.764,180.711z"/>
		<path fill="#1A171B" d="M205.478,181.775c0.092,0.279-0.062,0.58-0.345,0.672c-0.281,0.089-0.58-0.062-0.672-0.345
			c-0.094-0.283,0.062-0.583,0.343-0.675C205.087,181.339,205.389,181.494,205.478,181.775z"/>
		<path fill="#1A171B" d="M198.909,183.898c0.091,0.28-0.062,0.585-0.343,0.674c-0.281,0.091-0.583-0.064-0.676-0.345
			c-0.087-0.281,0.064-0.583,0.347-0.675C198.516,183.462,198.817,183.617,198.909,183.898z"/>
		<path fill="#1A171B" d="M195.626,184.958c0.091,0.281-0.066,0.588-0.345,0.674c-0.281,0.094-0.583-0.062-0.674-0.343
			c-0.089-0.28,0.064-0.582,0.345-0.674C195.23,184.524,195.534,184.677,195.626,184.958z"/>
		<path fill="#1A171B" d="M192.34,186.021c0.094,0.281-0.062,0.585-0.343,0.677c-0.283,0.089-0.583-0.064-0.674-0.346
			c-0.091-0.28,0.062-0.58,0.343-0.671C191.947,185.587,192.251,185.742,192.34,186.021z"/>
		<circle fill="#1A171B" cx="188.546" cy="187.25" r="0.534"/>
	</g>
	<g>
		<path fill="#1A171B" d="M185.049,188.381c0.089,0.285-0.062,0.583-0.345,0.674c-0.281,0.094-0.581-0.06-0.672-0.345
			c-0.094-0.279,0.062-0.58,0.343-0.672C184.656,187.946,184.96,188.1,185.049,188.381z"/>
		<path fill="#1A171B" d="M181.766,189.445c0.091,0.281-0.064,0.581-0.345,0.672c-0.281,0.092-0.583-0.06-0.677-0.343
			c-0.089-0.283,0.066-0.58,0.348-0.674C181.373,189.012,181.675,189.162,181.766,189.445z"/>
		<path fill="#1A171B" d="M178.48,190.508c0.091,0.281-0.064,0.58-0.345,0.672c-0.279,0.094-0.583-0.062-0.674-0.343
			c-0.089-0.283,0.066-0.582,0.345-0.676C178.09,190.071,178.389,190.229,178.48,190.508z"/>
		<path fill="#1A171B" d="M175.197,191.57c0.091,0.281-0.064,0.585-0.345,0.674c-0.281,0.092-0.583-0.066-0.674-0.345
			c-0.091-0.281,0.064-0.585,0.345-0.676C174.804,191.137,175.106,191.289,175.197,191.57z"/>
		<path fill="#1A171B" d="M171.912,192.633c0.094,0.281-0.064,0.583-0.342,0.672c-0.281,0.094-0.585-0.062-0.677-0.343
			c-0.091-0.283,0.064-0.583,0.348-0.674C171.519,192.196,171.82,192.352,171.912,192.633z"/>
		<circle fill="#1A171B" cx="168.119" cy="193.86" r="0.535"/>
		<path fill="#1A171B" d="M165.343,194.76c0.092,0.276-0.062,0.581-0.345,0.67c-0.281,0.091-0.581-0.062-0.674-0.343
			c-0.089-0.281,0.064-0.58,0.345-0.674C164.952,194.321,165.251,194.477,165.343,194.76z"/>
		<path fill="#1A171B" d="M162.06,195.82c0.092,0.281-0.062,0.582-0.345,0.672c-0.281,0.091-0.583-0.062-0.674-0.343
			c-0.091-0.281,0.064-0.585,0.343-0.672C161.667,195.382,161.968,195.539,162.06,195.82z"/>
		<path fill="#1A171B" d="M158.774,196.883c0.091,0.281-0.062,0.585-0.343,0.674c-0.281,0.092-0.583-0.064-0.674-0.345
			c-0.089-0.281,0.064-0.583,0.345-0.672C158.381,196.446,158.685,196.6,158.774,196.883z"/>
		<path fill="#1A171B" d="M155.489,197.945c0.094,0.278-0.06,0.585-0.343,0.676c-0.281,0.087-0.583-0.066-0.672-0.35
			c-0.094-0.278,0.062-0.58,0.343-0.674C155.098,197.509,155.399,197.664,155.489,197.945z"/>
		<path fill="#1A171B" d="M152.208,199.008c0.092,0.28-0.064,0.582-0.347,0.674c-0.279,0.091-0.58-0.066-0.672-0.348
			c-0.091-0.278,0.062-0.58,0.343-0.669C151.815,198.571,152.116,198.725,152.208,199.008z"/>
		<path fill="#1A171B" d="M148.922,200.07c0.091,0.283-0.064,0.582-0.343,0.671c-0.281,0.094-0.583-0.059-0.674-0.343
			c-0.091-0.278,0.062-0.58,0.343-0.671C148.529,199.636,148.831,199.786,148.922,200.07z"/>
		<path fill="#1A171B" d="M145.639,201.135c0.089,0.278-0.064,0.58-0.345,0.672c-0.281,0.094-0.583-0.062-0.674-0.343
			c-0.092-0.283,0.064-0.585,0.342-0.674C145.244,200.698,145.545,200.849,145.639,201.135z"/>
		<circle fill="#1A171B" cx="141.844" cy="202.358" r="0.536"/>
		<circle fill="#1A171B" cx="138.561" cy="203.423" r="0.535"/>
		<circle fill="#1A171B" cx="135.276" cy="204.484" r="0.535"/>
		<path fill="#1A171B" d="M132.501,205.385c0.091,0.278-0.064,0.582-0.343,0.671c-0.283,0.092-0.585-0.063-0.676-0.345
			s0.062-0.582,0.345-0.674C132.108,204.948,132.41,205.101,132.501,205.385z"/>
		<path fill="#1A171B" d="M129.216,206.444c0.091,0.281-0.064,0.585-0.343,0.672c-0.283,0.094-0.583-0.06-0.674-0.343
			c-0.092-0.281,0.062-0.583,0.343-0.674C128.823,206.008,129.125,206.163,129.216,206.444z"/>
		<path fill="#1A171B" d="M125.933,207.507c0.089,0.279-0.062,0.583-0.343,0.674c-0.281,0.092-0.585-0.062-0.676-0.343
			c-0.091-0.28,0.064-0.582,0.345-0.674C125.54,207.073,125.843,207.226,125.933,207.507z"/>
		<path fill="#1A171B" d="M122.649,208.569c0.091,0.281-0.064,0.583-0.343,0.674c-0.283,0.092-0.587-0.062-0.676-0.347
			c-0.094-0.277,0.064-0.578,0.345-0.672C122.256,208.135,122.558,208.286,122.649,208.569z"/>
		<path fill="#1A171B" d="M99.657,216.007"/>
	</g>
</g>
<g>
	<path fill="#1A171B" d="M196.051,232.185c0,0-0.05,3.962-3.24,4.685c-3.19,0.722-3.418-2.824-3.418-2.824s5.374-1.446,5.436-5.171
		c0.019-1.227-1.307-2.262-2.438-2.262c-1.129,0-3.073,0.304-4.261,1.931c-1.186,1.632-1.069,4.876-0.932,5.502
		c0.142,0.621,0.502,2.94,3.18,3.626c0.487,0.188,2.977,0.114,4.167-0.779c1.172-0.877,1.986-2.271,2.148-4.133L196.051,232.185z
		 M189.889,228.696c1.606-2.493,3.352-1.202,3.4,0.174c-0.14,3.564-4.042,4.554-4.042,4.554
		C189.132,230.115,189.82,228.847,189.889,228.696z"/>
	<path fill="#1A171B" d="M202.736,233.823c0.018,0.982-0.007,2.191-0.643,3.025c-0.64,0.834-1.307-0.375-1.32-1.259
		c-0.014-0.885,0-5.938,0-6.38c0-0.44-0.103-2.68-1.421-1.716c-0.434,0.309-1.528,1.574-1.618,3.092c0,0.735-0.1,4.021-0.1,4.021
		s0.057,1.75-0.853,2.355c0,0-1.012,0.491-1.062-1.177c-0.048-1.668,0-6.919,0-6.919s0.05-1.619,0.69-2.013
		c0.635-0.391,1.325-0.194,1.325,0.445c0,0.636,0,1.52,0,1.52s1.275-2.563,3.039-2.166c0.541,0.201,1.523,0.595,1.816,2.511
		C202.59,229.164,202.656,229.315,202.736,233.823z"/>
</g>
<g opacity="0.4">
	
		<line fill="none" stroke="#1A171B" stroke-width="0.8774" stroke-miterlimit="10" x1="104.616" y1="48.533" x2="108.571" y2="52.362"/>
	
		<line fill="none" stroke="#1A171B" stroke-width="0.8774" stroke-miterlimit="10" x1="100.561" y1="51.935" x2="104.651" y2="55.62"/>
	
		<line fill="none" stroke="#1A171B" stroke-width="0.8774" stroke-miterlimit="10" x1="96.629" y1="55.477" x2="100.844" y2="59.018"/>
	
		<line fill="none" stroke="#1A171B" stroke-width="0.8774" stroke-miterlimit="10" x1="92.825" y1="59.152" x2="97.161" y2="62.541"/>
	
		<line fill="none" stroke="#1A171B" stroke-width="0.8774" stroke-miterlimit="10" x1="89.148" y1="62.955" x2="93.602" y2="66.194"/>
	
		<line fill="none" stroke="#1A171B" stroke-width="0.8774" stroke-miterlimit="10" x1="85.609" y1="66.887" x2="90.169" y2="69.969"/>
	<line fill="none" stroke="#1A171B" stroke-width="0.8774" stroke-miterlimit="10" x1="82.207" y1="70.94" x2="86.877" y2="73.86"/>
	<line fill="none" stroke="#1A171B" stroke-width="0.8774" stroke-miterlimit="10" x1="78.949" y1="75.11" x2="83.72" y2="77.86"/>
	
		<line fill="none" stroke="#1A171B" stroke-width="0.8774" stroke-miterlimit="10" x1="75.839" y1="79.391" x2="80.704" y2="81.976"/>
	
		<line fill="none" stroke="#1A171B" stroke-width="0.8774" stroke-miterlimit="10" x1="72.883" y1="83.778" x2="77.83" y2="86.191"/>
	
		<line fill="none" stroke="#1A171B" stroke-width="0.8774" stroke-miterlimit="10" x1="70.08" y1="88.263" x2="75.108" y2="90.502"/>
	
		<line fill="none" stroke="#1A171B" stroke-width="0.8774" stroke-miterlimit="10" x1="67.434" y1="92.844" x2="72.54" y2="94.907"/>
	
		<line fill="none" stroke="#1A171B" stroke-width="0.8774" stroke-miterlimit="10" x1="64.95" y1="97.512" x2="70.125" y2="99.402"/>
	
		<line fill="none" stroke="#1A171B" stroke-width="0.8774" stroke-miterlimit="10" x1="62.631" y1="102.269" x2="67.868" y2="103.971"/>
	
		<line fill="none" stroke="#1A171B" stroke-width="0.8774" stroke-miterlimit="10" x1="60.479" y1="107.102" x2="65.772" y2="108.621"/>
	
		<line fill="none" stroke="#1A171B" stroke-width="0.8774" stroke-miterlimit="10" x1="58.498" y1="112.007" x2="63.84" y2="113.341"/>
	
		<line fill="none" stroke="#1A171B" stroke-width="0.8774" stroke-miterlimit="10" x1="56.686" y1="116.979" x2="62.071" y2="118.125"/>
	
		<line fill="none" stroke="#1A171B" stroke-width="0.8774" stroke-miterlimit="10" x1="55.05" y1="122.01" x2="60.477" y2="122.967"/>
	
		<line fill="none" stroke="#1A171B" stroke-width="0.8774" stroke-miterlimit="10" x1="53.592" y1="127.096" x2="59.046" y2="127.866"/>
	
		<line fill="none" stroke="#1A171B" stroke-width="0.8774" stroke-miterlimit="10" x1="52.311" y1="132.228" x2="57.792" y2="132.808"/>
	
		<line fill="none" stroke="#1A171B" stroke-width="0.8774" stroke-miterlimit="10" x1="51.211" y1="137.402" x2="56.709" y2="137.789"/>
	
		<line fill="none" stroke="#1A171B" stroke-width="0.8774" stroke-miterlimit="10" x1="50.293" y1="142.614" x2="55.797" y2="142.811"/>
	
		<line fill="none" stroke="#1A171B" stroke-width="0.8774" stroke-miterlimit="10" x1="49.557" y1="147.851" x2="55.063" y2="147.855"/>
	
		<line fill="none" stroke="#1A171B" stroke-width="0.8774" stroke-miterlimit="10" x1="49.007" y1="153.113" x2="54.506" y2="152.925"/>
	
		<line fill="none" stroke="#1A171B" stroke-width="0.8774" stroke-miterlimit="10" x1="48.637" y1="158.388" x2="54.129" y2="158.011"/>
	
		<line fill="none" stroke="#1A171B" stroke-width="0.8774" stroke-miterlimit="10" x1="48.449" y1="163.675" x2="53.928" y2="163.106"/>
	
		<line fill="none" stroke="#1A171B" stroke-width="0.8774" stroke-miterlimit="10" x1="48.449" y1="168.965" x2="53.908" y2="168.204"/>
	
		<line fill="none" stroke="#1A171B" stroke-width="0.8774" stroke-miterlimit="10" x1="48.637" y1="174.252" x2="54.061" y2="173.301"/>
	
		<line fill="none" stroke="#1A171B" stroke-width="0.8774" stroke-miterlimit="10" x1="49.002" y1="179.527" x2="54.392" y2="178.392"/>
	
		<line fill="none" stroke="#1A171B" stroke-width="0.8774" stroke-miterlimit="10" x1="49.555" y1="184.791" x2="54.901" y2="183.466"/>
	
		<line fill="none" stroke="#1A171B" stroke-width="0.8774" stroke-miterlimit="10" x1="50.291" y1="190.026" x2="55.587" y2="188.521"/>
	
		<line fill="none" stroke="#1A171B" stroke-width="0.8774" stroke-miterlimit="10" x1="51.209" y1="195.24" x2="56.451" y2="193.545"/>
	
		<line fill="none" stroke="#1A171B" stroke-width="0.8774" stroke-miterlimit="10" x1="52.308" y1="200.413" x2="57.49" y2="198.537"/>
	
		<line fill="none" stroke="#1A171B" stroke-width="0.8774" stroke-miterlimit="10" x1="53.588" y1="205.547" x2="58.701" y2="203.49"/>
	
		<line fill="none" stroke="#1A171B" stroke-width="0.8774" stroke-miterlimit="10" x1="55.045" y1="210.633" x2="60.081" y2="208.398"/>
	
		<line fill="none" stroke="#1A171B" stroke-width="0.8774" stroke-miterlimit="10" x1="56.681" y1="215.661" x2="61.635" y2="213.256"/>
	
		<line fill="none" stroke="#1A171B" stroke-width="0.8774" stroke-miterlimit="10" x1="58.489" y1="220.636" x2="63.357" y2="218.054"/>
	
		<line fill="none" stroke="#1A171B" stroke-width="0.8774" stroke-miterlimit="10" x1="60.47" y1="225.539" x2="65.247" y2="222.792"/>
	
		<line fill="none" stroke="#1A171B" stroke-width="0.8774" stroke-miterlimit="10" x1="62.622" y1="230.373" x2="67.301" y2="227.46"/>
	
		<line fill="none" stroke="#1A171B" stroke-width="0.8774" stroke-miterlimit="10" x1="64.938" y1="235.13" x2="69.515" y2="232.053"/>
	
		<line fill="none" stroke="#1A171B" stroke-width="0.8774" stroke-miterlimit="10" x1="67.422" y1="239.801" x2="71.887" y2="236.567"/>
	
		<line fill="none" stroke="#1A171B" stroke-width="0.8774" stroke-miterlimit="10" x1="70.068" y1="244.381" x2="74.418" y2="240.995"/>
	
		<line fill="none" stroke="#1A171B" stroke-width="0.8774" stroke-miterlimit="10" x1="72.872" y1="248.869" x2="77.101" y2="245.332"/>
	
		<line fill="none" stroke="#1A171B" stroke-width="0.8774" stroke-miterlimit="10" x1="75.83" y1="253.256" x2="79.929" y2="249.572"/>
	
		<line fill="none" stroke="#1A171B" stroke-width="0.8774" stroke-miterlimit="10" x1="78.94" y1="257.537" x2="82.911" y2="253.71"/>
	
		<line fill="none" stroke="#1A171B" stroke-width="0.8774" stroke-miterlimit="10" x1="82.196" y1="261.705" x2="86.032" y2="257.745"/>
	
		<line fill="none" stroke="#1A171B" stroke-width="0.8774" stroke-miterlimit="10" x1="85.598" y1="265.76" x2="89.288" y2="261.666"/>
	
		<line fill="none" stroke="#1A171B" stroke-width="0.8774" stroke-miterlimit="10" x1="89.137" y1="269.692" x2="92.685" y2="265.475"/>
	
		<line fill="none" stroke="#1A171B" stroke-width="0.8774" stroke-miterlimit="10" x1="92.811" y1="273.496" x2="96.21" y2="269.157"/>
	
		<line fill="none" stroke="#1A171B" stroke-width="0.8774" stroke-miterlimit="10" x1="96.617" y1="277.173" x2="99.862" y2="272.718"/>
	
		<line fill="none" stroke="#1A171B" stroke-width="0.8774" stroke-miterlimit="10" x1="100.549" y1="280.714" x2="103.636" y2="276.146"/>
	
		<line fill="none" stroke="#1A171B" stroke-width="0.8774" stroke-miterlimit="10" x1="104.601" y1="284.116" x2="107.527" y2="279.441"/>
	
		<line fill="none" stroke="#1A171B" stroke-width="0.8774" stroke-miterlimit="10" x1="108.768" y1="287.37" x2="111.533" y2="282.6"/>
	
		<line fill="none" stroke="#1A171B" stroke-width="0.8774" stroke-miterlimit="10" x1="113.05" y1="290.481" x2="115.643" y2="285.615"/>
	
		<line fill="none" stroke="#1A171B" stroke-width="0.8774" stroke-miterlimit="10" x1="117.434" y1="293.438" x2="119.858" y2="288.487"/>
	
		<line fill="none" stroke="#1A171B" stroke-width="0.8774" stroke-miterlimit="10" x1="121.924" y1="296.244" x2="124.17" y2="291.211"/>
	
		<line fill="none" stroke="#1A171B" stroke-width="0.8774" stroke-miterlimit="10" x1="126.502" y1="298.89" x2="128.575" y2="293.778"/>
	
		<line fill="none" stroke="#1A171B" stroke-width="0.8774" stroke-miterlimit="10" x1="131.175" y1="301.373" x2="133.064" y2="296.193"/>
	
		<line fill="none" stroke="#1A171B" stroke-width="0.8774" stroke-miterlimit="10" x1="135.93" y1="303.692" x2="137.641" y2="298.449"/>
	
		<line fill="none" stroke="#1A171B" stroke-width="0.8774" stroke-miterlimit="10" x1="140.764" y1="305.845" x2="142.286" y2="300.546"/>
	
		<line fill="none" stroke="#1A171B" stroke-width="0.8774" stroke-miterlimit="10" x1="145.667" y1="307.828" x2="147.006" y2="302.477"/>
	
		<line fill="none" stroke="#1A171B" stroke-width="0.8774" stroke-miterlimit="10" x1="150.639" y1="309.638" x2="151.791" y2="304.245"/>
	
		<line fill="none" stroke="#1A171B" stroke-width="0.8774" stroke-miterlimit="10" x1="155.673" y1="311.271" x2="156.634" y2="305.84"/>
	
		<line fill="none" stroke="#1A171B" stroke-width="0.8774" stroke-miterlimit="10" x1="160.756" y1="312.731" x2="161.531" y2="307.271"/>
	
		<line fill="none" stroke="#1A171B" stroke-width="0.8774" stroke-miterlimit="10" x1="165.893" y1="314.013" x2="166.473" y2="308.524"/>
	
		<line fill="none" stroke="#1A171B" stroke-width="0.8774" stroke-miterlimit="10" x1="171.065" y1="315.112" x2="171.454" y2="309.61"/>
	
		<line fill="none" stroke="#1A171B" stroke-width="0.8774" stroke-miterlimit="10" x1="176.274" y1="316.03" x2="176.474" y2="310.52"/>
	
		<line fill="none" stroke="#1A171B" stroke-width="0.8774" stroke-miterlimit="10" x1="181.514" y1="316.769" x2="181.518" y2="311.251"/>
	
		<line fill="none" stroke="#1A171B" stroke-width="0.8774" stroke-miterlimit="10" x1="186.778" y1="317.321" x2="186.588" y2="311.811"/>
	
		<line fill="none" stroke="#1A171B" stroke-width="0.8774" stroke-miterlimit="10" x1="192.056" y1="317.691" x2="191.674" y2="312.189"/>
	
		<line fill="none" stroke="#1A171B" stroke-width="0.8774" stroke-miterlimit="10" x1="197.343" y1="317.877" x2="196.77" y2="312.389"/>
	
		<line fill="none" stroke="#1A171B" stroke-width="0.8774" stroke-miterlimit="10" x1="202.635" y1="317.877" x2="201.871" y2="312.413"/>
	
		<line fill="none" stroke="#1A171B" stroke-width="0.8774" stroke-miterlimit="10" x1="207.919" y1="317.691" x2="206.967" y2="312.261"/>
	
		<line fill="none" stroke="#1A171B" stroke-width="0.8774" stroke-miterlimit="10" x1="213.197" y1="317.321" x2="212.055" y2="311.929"/>
	
		<line fill="none" stroke="#1A171B" stroke-width="0.8774" stroke-miterlimit="10" x1="218.459" y1="316.769" x2="217.132" y2="311.417"/>
	
		<line fill="none" stroke="#1A171B" stroke-width="0.8774" stroke-miterlimit="10" x1="223.695" y1="316.032" x2="222.184" y2="310.731"/>
	
		<line fill="none" stroke="#1A171B" stroke-width="0.8774" stroke-miterlimit="10" x1="228.909" y1="315.114" x2="227.21" y2="309.87"/>
	
		<line fill="none" stroke="#1A171B" stroke-width="0.8774" stroke-miterlimit="10" x1="234.085" y1="314.016" x2="232.199" y2="308.833"/>
	
		<line fill="none" stroke="#1A171B" stroke-width="0.8774" stroke-miterlimit="10" x1="239.219" y1="312.735" x2="237.153" y2="307.622"/>
	
		<line fill="none" stroke="#1A171B" stroke-width="0.8774" stroke-miterlimit="10" x1="244.305" y1="311.278" x2="242.063" y2="306.24"/>
	
		<line fill="none" stroke="#1A171B" stroke-width="0.8774" stroke-miterlimit="10" x1="249.336" y1="309.642" x2="246.923" y2="304.688"/>
	
		<line fill="none" stroke="#1A171B" stroke-width="0.8774" stroke-miterlimit="10" x1="254.308" y1="307.835" x2="251.721" y2="302.966"/>
	
		<line fill="none" stroke="#1A171B" stroke-width="0.8774" stroke-miterlimit="10" x1="259.211" y1="305.852" x2="256.457" y2="301.079"/>
	
		<line fill="none" stroke="#1A171B" stroke-width="0.8774" stroke-miterlimit="10" x1="264.045" y1="303.701" x2="261.128" y2="299.024"/>
	
		<line fill="none" stroke="#1A171B" stroke-width="0.8774" stroke-miterlimit="10" x1="268.802" y1="301.383" x2="265.723" y2="296.812"/>
	
		<line fill="none" stroke="#1A171B" stroke-width="0.8774" stroke-miterlimit="10" x1="273.475" y1="298.901" x2="270.234" y2="294.439"/>
	
		<line fill="none" stroke="#1A171B" stroke-width="0.8774" stroke-miterlimit="10" x1="278.054" y1="296.256" x2="274.665" y2="291.91"/>
	
		<line fill="none" stroke="#1A171B" stroke-width="0.8774" stroke-miterlimit="10" x1="282.541" y1="293.452" x2="278.999" y2="289.225"/>
	
		<line fill="none" stroke="#1A171B" stroke-width="0.8774" stroke-miterlimit="10" x1="286.93" y1="290.493" x2="283.244" y2="286.396"/>
	
		<line fill="none" stroke="#1A171B" stroke-width="0.8774" stroke-miterlimit="10" x1="291.207" y1="287.384" x2="287.382" y2="283.412"/>
	
		<line fill="none" stroke="#1A171B" stroke-width="0.8774" stroke-miterlimit="10" x1="295.379" y1="284.13" x2="291.415" y2="280.294"/>
	
		<line fill="none" stroke="#1A171B" stroke-width="0.8774" stroke-miterlimit="10" x1="299.433" y1="280.726" x2="295.338" y2="277.033"/>
	
		<line fill="none" stroke="#1A171B" stroke-width="0.8774" stroke-miterlimit="10" x1="303.364" y1="277.187" x2="299.142" y2="273.641"/>
	
		<line fill="none" stroke="#1A171B" stroke-width="0.8774" stroke-miterlimit="10" x1="307.169" y1="273.515" x2="302.825" y2="270.115"/>
	
		<line fill="none" stroke="#1A171B" stroke-width="0.8774" stroke-miterlimit="10" x1="310.845" y1="269.708" x2="306.385" y2="266.462"/>
	
		<line fill="none" stroke="#1A171B" stroke-width="0.8774" stroke-miterlimit="10" x1="314.384" y1="265.776" x2="309.816" y2="262.688"/>
	
		<line fill="none" stroke="#1A171B" stroke-width="0.8774" stroke-miterlimit="10" x1="317.788" y1="261.726" x2="313.113" y2="258.796"/>
	
		<line fill="none" stroke="#1A171B" stroke-width="0.8774" stroke-miterlimit="10" x1="321.042" y1="257.558" x2="316.269" y2="254.793"/>
	
		<line fill="none" stroke="#1A171B" stroke-width="0.8774" stroke-miterlimit="10" x1="324.153" y1="253.276" x2="319.287" y2="250.678"/>
	
		<line fill="none" stroke="#1A171B" stroke-width="0.8774" stroke-miterlimit="10" x1="327.112" y1="248.89" x2="322.157" y2="246.465"/>
	
		<line fill="none" stroke="#1A171B" stroke-width="0.8774" stroke-miterlimit="10" x1="329.918" y1="244.402" x2="324.88" y2="242.151"/>
	
		<line fill="none" stroke="#1A171B" stroke-width="0.8774" stroke-miterlimit="10" x1="332.562" y1="239.818" x2="327.451" y2="237.746"/>
	
		<line fill="none" stroke="#1A171B" stroke-width="0.8774" stroke-miterlimit="10" x1="335.048" y1="235.148" x2="329.866" y2="233.254"/>
	
		<line fill="none" stroke="#1A171B" stroke-width="0.8774" stroke-miterlimit="10" x1="337.364" y1="230.394" x2="332.123" y2="228.683"/>
	
		<line fill="none" stroke="#1A171B" stroke-width="0.8774" stroke-miterlimit="10" x1="339.519" y1="225.562" x2="334.221" y2="224.033"/>
	
		<line fill="none" stroke="#1A171B" stroke-width="0.8774" stroke-miterlimit="10" x1="341.5" y1="220.653" x2="336.153" y2="219.312"/>
	
		<line fill="none" stroke="#1A171B" stroke-width="0.8774" stroke-miterlimit="10" x1="343.31" y1="215.685" x2="337.922" y2="214.525"/>
	
		<line fill="none" stroke="#1A171B" stroke-width="0.8774" stroke-miterlimit="10" x1="344.945" y1="210.653" x2="339.519" y2="209.685"/>
	
		<line fill="none" stroke="#1A171B" stroke-width="0.8774" stroke-miterlimit="10" x1="346.405" y1="205.569" x2="340.947" y2="204.788"/>
	
		<line fill="none" stroke="#1A171B" stroke-width="0.8774" stroke-miterlimit="10" x1="347.688" y1="200.436" x2="342.201" y2="199.846"/>
	
		<line fill="none" stroke="#1A171B" stroke-width="0.8774" stroke-miterlimit="10" x1="348.786" y1="195.261" x2="343.284" y2="194.865"/>
	
		<line fill="none" stroke="#1A171B" stroke-width="0.8774" stroke-miterlimit="10" x1="349.705" y1="190.051" x2="344.193" y2="189.846"/>
	
		<line fill="none" stroke="#1A171B" stroke-width="0.8774" stroke-miterlimit="10" x1="350.442" y1="184.812" x2="344.925" y2="184.801"/>
	
		<line fill="none" stroke="#1A171B" stroke-width="0.8774" stroke-miterlimit="10" x1="350.995" y1="179.55" x2="345.482" y2="179.73"/>
	
		<line fill="none" stroke="#1A171B" stroke-width="0.8774" stroke-miterlimit="10" x1="351.363" y1="174.27" x2="345.861" y2="174.645"/>
	
		<line fill="none" stroke="#1A171B" stroke-width="0.8774" stroke-miterlimit="10" x1="351.549" y1="168.982" x2="346.061" y2="169.552"/>
	
		<line fill="none" stroke="#1A171B" stroke-width="0.8774" stroke-miterlimit="10" x1="351.551" y1="163.691" x2="346.086" y2="164.452"/>
	
		<line fill="none" stroke="#1A171B" stroke-width="0.8774" stroke-miterlimit="10" x1="351.368" y1="158.404" x2="345.93" y2="159.353"/>
	
		<line fill="none" stroke="#1A171B" stroke-width="0.8774" stroke-miterlimit="10" x1="350.998" y1="153.126" x2="345.599" y2="154.269"/>
	
		<line fill="none" stroke="#1A171B" stroke-width="0.8774" stroke-miterlimit="10" x1="350.445" y1="147.865" x2="345.09" y2="149.192"/>
	
		<line fill="none" stroke="#1A171B" stroke-width="0.8774" stroke-miterlimit="10" x1="349.709" y1="142.628" x2="344.404" y2="144.138"/>
	
		<line fill="none" stroke="#1A171B" stroke-width="0.8774" stroke-miterlimit="10" x1="348.793" y1="137.414" x2="343.543" y2="139.111"/>
	
		<line fill="none" stroke="#1A171B" stroke-width="0.8774" stroke-miterlimit="10" x1="347.691" y1="132.239" x2="342.505" y2="134.117"/>
	
		<line fill="none" stroke="#1A171B" stroke-width="0.8774" stroke-miterlimit="10" x1="346.412" y1="127.105" x2="341.294" y2="129.164"/>
	
		<line fill="none" stroke="#1A171B" stroke-width="0.8774" stroke-miterlimit="10" x1="344.954" y1="122.019" x2="339.912" y2="124.256"/>
	
		<line fill="none" stroke="#1A171B" stroke-width="0.8774" stroke-miterlimit="10" x1="343.321" y1="116.988" x2="338.358" y2="119.396"/>
	
		<line fill="none" stroke="#1A171B" stroke-width="0.8774" stroke-miterlimit="10" x1="341.509" y1="112.016" x2="336.634" y2="114.598"/>
	
		<line fill="none" stroke="#1A171B" stroke-width="0.8774" stroke-miterlimit="10" x1="339.528" y1="107.11" x2="334.746" y2="109.861"/>
	
		<line fill="none" stroke="#1A171B" stroke-width="0.8774" stroke-miterlimit="10" x1="337.378" y1="102.28" x2="332.694" y2="105.193"/>
	
		<line fill="none" stroke="#1A171B" stroke-width="0.8774" stroke-miterlimit="10" x1="335.06" y1="97.521" x2="330.48" y2="100.601"/>
	
		<line fill="none" stroke="#1A171B" stroke-width="0.8774" stroke-miterlimit="10" x1="332.575" y1="92.851" x2="328.104" y2="96.086"/>
	
		<line fill="none" stroke="#1A171B" stroke-width="0.8774" stroke-miterlimit="10" x1="329.93" y1="88.27" x2="325.577" y2="91.658"/>
	
		<line fill="none" stroke="#1A171B" stroke-width="0.8774" stroke-miterlimit="10" x1="327.129" y1="83.78" x2="322.895" y2="87.322"/>
	
		<line fill="none" stroke="#1A171B" stroke-width="0.8774" stroke-miterlimit="10" x1="324.167" y1="79.394" x2="320.062" y2="83.083"/>
	
		<line fill="none" stroke="#1A171B" stroke-width="0.8774" stroke-miterlimit="10" x1="321.058" y1="75.112" x2="317.082" y2="78.943"/>
	
		<line fill="none" stroke="#1A171B" stroke-width="0.8774" stroke-miterlimit="10" x1="317.802" y1="70.94" x2="313.961" y2="74.909"/>
	
		<line fill="none" stroke="#1A171B" stroke-width="0.8774" stroke-miterlimit="10" x1="314.4" y1="66.887" x2="310.703" y2="70.988"/>
	
		<line fill="none" stroke="#1A171B" stroke-width="0.8774" stroke-miterlimit="10" x1="310.858" y1="62.955" x2="307.304" y2="67.182"/>
	
		<line fill="none" stroke="#1A171B" stroke-width="0.8774" stroke-miterlimit="10" x1="307.185" y1="59.15" x2="303.78" y2="63.498"/>
	
		<line fill="none" stroke="#1A171B" stroke-width="0.8774" stroke-miterlimit="10" x1="303.378" y1="55.477" x2="300.129" y2="59.938"/>
	
		<line fill="none" stroke="#1A171B" stroke-width="0.8774" stroke-miterlimit="10" x1="299.446" y1="51.933" x2="296.354" y2="56.509"/>
	
		<line fill="none" stroke="#1A171B" stroke-width="0.8774" stroke-miterlimit="10" x1="295.393" y1="48.531" x2="292.464" y2="53.21"/>
	
		<line fill="none" stroke="#1A171B" stroke-width="0.8774" stroke-miterlimit="10" x1="291.226" y1="45.275" x2="288.461" y2="50.055"/>
	
		<line fill="none" stroke="#1A171B" stroke-width="0.8774" stroke-miterlimit="10" x1="286.943" y1="42.165" x2="284.348" y2="47.036"/>
	
		<line fill="none" stroke="#1A171B" stroke-width="0.8774" stroke-miterlimit="10" x1="282.559" y1="39.206" x2="280.135" y2="44.167"/>
	
		<line fill="none" stroke="#1A171B" stroke-width="0.8774" stroke-miterlimit="10" x1="278.071" y1="36.403" x2="275.823" y2="41.445"/>
	
		<line fill="none" stroke="#1A171B" stroke-width="0.8774" stroke-miterlimit="10" x1="273.49" y1="33.757" x2="271.418" y2="38.875"/>
	
		<line fill="none" stroke="#1A171B" stroke-width="0.8774" stroke-miterlimit="10" x1="268.818" y1="31.271" x2="266.924" y2="36.46"/>
	
		<line fill="none" stroke="#1A171B" stroke-width="0.8774" stroke-miterlimit="10" x1="264.063" y1="28.955" x2="262.354" y2="34.203"/>
	
		<line fill="none" stroke="#1A171B" stroke-width="0.8774" stroke-miterlimit="10" x1="259.229" y1="26.802" x2="257.705" y2="32.105"/>
	
		<line fill="none" stroke="#1A171B" stroke-width="0.8774" stroke-miterlimit="10" x1="254.323" y1="24.819" x2="252.982" y2="30.172"/>
	
		<line fill="none" stroke="#1A171B" stroke-width="0.8774" stroke-miterlimit="10" x1="249.354" y1="23.009" x2="248.198" y2="28.404"/>
	
		<line fill="none" stroke="#1A171B" stroke-width="0.8774" stroke-miterlimit="10" x1="244.323" y1="21.371" x2="243.358" y2="26.809"/>
	
		<line fill="none" stroke="#1A171B" stroke-width="0.8774" stroke-miterlimit="10" x1="239.237" y1="19.916" x2="238.46" y2="25.379"/>
	
		<line fill="none" stroke="#1A171B" stroke-width="0.8774" stroke-miterlimit="10" x1="234.103" y1="18.632" x2="233.518" y2="24.122"/>
	
		<line fill="none" stroke="#1A171B" stroke-width="0.8774" stroke-miterlimit="10" x1="228.93" y1="17.533" x2="228.537" y2="23.039"/>
	
		<line fill="none" stroke="#1A171B" stroke-width="0.8774" stroke-miterlimit="10" x1="223.716" y1="16.614" x2="223.518" y2="22.13"/>
	
		<line fill="none" stroke="#1A171B" stroke-width="0.8774" stroke-miterlimit="10" x1="218.479" y1="15.878" x2="218.473" y2="21.398"/>
	
		<line fill="none" stroke="#1A171B" stroke-width="0.8774" stroke-miterlimit="10" x1="213.218" y1="15.326" x2="213.402" y2="20.841"/>
	
		<line fill="none" stroke="#1A171B" stroke-width="0.8774" stroke-miterlimit="10" x1="207.938" y1="14.953" x2="208.316" y2="20.462"/>
	
		<line fill="none" stroke="#1A171B" stroke-width="0.8774" stroke-miterlimit="10" x1="202.65" y1="14.771" x2="203.222" y2="20.261"/>
	
		<line fill="none" stroke="#1A171B" stroke-width="0.8774" stroke-miterlimit="10" x1="197.361" y1="14.768" x2="198.122" y2="20.238"/>
	
		<line fill="none" stroke="#1A171B" stroke-width="0.8774" stroke-miterlimit="10" x1="192.072" y1="14.953" x2="193.024" y2="20.391"/>
	
		<line fill="none" stroke="#1A171B" stroke-width="0.8774" stroke-miterlimit="10" x1="186.796" y1="15.323" x2="187.934" y2="20.722"/>
	
		<line fill="none" stroke="#1A171B" stroke-width="0.8774" stroke-miterlimit="10" x1="181.532" y1="15.874" x2="182.862" y2="21.234"/>
	
		<line fill="none" stroke="#1A171B" stroke-width="0.8774" stroke-miterlimit="10" x1="176.293" y1="16.609" x2="177.806" y2="21.919"/>
	
		<line fill="none" stroke="#1A171B" stroke-width="0.8774" stroke-miterlimit="10" x1="171.081" y1="17.528" x2="172.779" y2="22.781"/>
	
		<line fill="none" stroke="#1A171B" stroke-width="0.8774" stroke-miterlimit="10" x1="165.906" y1="18.629" x2="167.787" y2="23.818"/>
	
		<line fill="none" stroke="#1A171B" stroke-width="0.8774" stroke-miterlimit="10" x1="160.772" y1="19.909" x2="162.833" y2="25.029"/>
	
		<line fill="none" stroke="#1A171B" stroke-width="0.8774" stroke-miterlimit="10" x1="155.688" y1="21.367" x2="157.925" y2="26.414"/>
	<line fill="none" stroke="#1A171B" stroke-width="0.8774" stroke-miterlimit="10" x1="150.657" y1="23" x2="153.068" y2="27.967"/>
	
		<line fill="none" stroke="#1A171B" stroke-width="0.8774" stroke-miterlimit="10" x1="145.686" y1="24.812" x2="148.268" y2="29.69"/>
	
		<line fill="none" stroke="#1A171B" stroke-width="0.8774" stroke-miterlimit="10" x1="140.78" y1="26.793" x2="143.531" y2="31.577"/>
	
		<line fill="none" stroke="#1A171B" stroke-width="0.8774" stroke-miterlimit="10" x1="135.946" y1="28.943" x2="138.861" y2="33.631"/>
	
		<line fill="none" stroke="#1A171B" stroke-width="0.8774" stroke-miterlimit="10" x1="131.188" y1="31.262" x2="134.269" y2="35.845"/>
	
		<line fill="none" stroke="#1A171B" stroke-width="0.8774" stroke-miterlimit="10" x1="126.516" y1="33.743" x2="129.754" y2="38.217"/>
	
		<line fill="none" stroke="#1A171B" stroke-width="0.8774" stroke-miterlimit="10" x1="121.935" y1="36.392" x2="125.326" y2="40.746"/>
	
		<line fill="none" stroke="#1A171B" stroke-width="0.8774" stroke-miterlimit="10" x1="117.448" y1="39.195" x2="120.989" y2="43.429"/>
	
		<line fill="none" stroke="#1A171B" stroke-width="0.8774" stroke-miterlimit="10" x1="113.063" y1="42.154" x2="116.749" y2="46.262"/>
	
		<line fill="none" stroke="#1A171B" stroke-width="0.8774" stroke-miterlimit="10" x1="108.782" y1="45.263" x2="112.609" y2="49.241"/>
</g>
</svg>
